G04 #@! TF.GenerationSoftware,KiCad,Pcbnew,5.1.5-52549c5~86~ubuntu19.04.1*
G04 #@! TF.CreationDate,2020-12-11T00:42:32+01:00*
G04 #@! TF.ProjectId,jlink-tagConnect-adapter-v3,6a6c696e-6b2d-4746-9167-436f6e6e6563,rev?*
G04 #@! TF.SameCoordinates,Original*
G04 #@! TF.FileFunction,Copper,L2,Bot*
G04 #@! TF.FilePolarity,Positive*
%FSLAX46Y46*%
G04 Gerber Fmt 4.6, Leading zero omitted, Abs format (unit mm)*
G04 Created by KiCad (PCBNEW 5.1.5-52549c5~86~ubuntu19.04.1) date 2020-12-11 00:42:32*
%MOMM*%
%LPD*%
G04 APERTURE LIST*
%ADD10C,0.100000*%
%ADD11O,1.700000X1.700000*%
%ADD12R,1.700000X1.700000*%
%ADD13C,0.787400*%
%ADD14O,1.000000X1.000000*%
%ADD15R,1.000000X1.000000*%
%ADD16O,1.727200X1.727200*%
%ADD17R,1.727200X1.727200*%
%ADD18R,1.500000X1.000000*%
%ADD19C,1.400000*%
%ADD20C,0.800000*%
%ADD21C,1.016000*%
%ADD22C,0.762000*%
%ADD23C,0.254000*%
G04 APERTURE END LIST*
D10*
G36*
X105710000Y-115200000D02*
G01*
X105710000Y-114700000D01*
X105110000Y-114700000D01*
X105110000Y-115200000D01*
X105710000Y-115200000D01*
G37*
G36*
X99360000Y-115200000D02*
G01*
X99360000Y-114700000D01*
X98760000Y-114700000D01*
X98760000Y-115200000D01*
X99360000Y-115200000D01*
G37*
D11*
X109220000Y-107950000D03*
D12*
X106680000Y-107950000D03*
D13*
X133477000Y-95250000D03*
X132207000Y-95250000D03*
X130937000Y-95250000D03*
X129667000Y-95250000D03*
X128397000Y-95250000D03*
X128397000Y-96520000D03*
X129667000Y-96520000D03*
X130937000Y-96520000D03*
X132207000Y-96520000D03*
X133477000Y-96520000D03*
D14*
X131445000Y-104140000D03*
X132715000Y-104140000D03*
X131445000Y-105410000D03*
X132715000Y-105410000D03*
X131445000Y-106680000D03*
X132715000Y-106680000D03*
X131445000Y-107950000D03*
X132715000Y-107950000D03*
X131445000Y-109220000D03*
D15*
X132715000Y-109220000D03*
D16*
X120015000Y-101600000D03*
X122555000Y-101600000D03*
X120015000Y-104140000D03*
X122555000Y-104140000D03*
X120015000Y-106680000D03*
X122555000Y-106680000D03*
X120015000Y-109220000D03*
X122555000Y-109220000D03*
X120015000Y-111760000D03*
D17*
X122555000Y-111760000D03*
D11*
X91440000Y-118110000D03*
X93980000Y-118110000D03*
X91440000Y-115570000D03*
X93980000Y-115570000D03*
X91440000Y-113030000D03*
X93980000Y-113030000D03*
X91440000Y-110490000D03*
X93980000Y-110490000D03*
X91440000Y-107950000D03*
X93980000Y-107950000D03*
X91440000Y-105410000D03*
X93980000Y-105410000D03*
X91440000Y-102870000D03*
X93980000Y-102870000D03*
X91440000Y-100330000D03*
X93980000Y-100330000D03*
X91440000Y-97790000D03*
X93980000Y-97790000D03*
X91440000Y-95250000D03*
D12*
X93980000Y-95250000D03*
D11*
X102235000Y-113030000D03*
X102235000Y-115570000D03*
D12*
X102235000Y-118110000D03*
D18*
X105410000Y-114300000D03*
X105410000Y-113000000D03*
X105410000Y-115600000D03*
X99060000Y-114300000D03*
X99060000Y-113000000D03*
X99060000Y-115600000D03*
D11*
X122555000Y-119380000D03*
D12*
X120015000Y-119380000D03*
D11*
X122555000Y-93980000D03*
D12*
X120015000Y-93980000D03*
D11*
X109220000Y-118110000D03*
X109220000Y-115570000D03*
D12*
X109220000Y-113030000D03*
D11*
X106680000Y-97790000D03*
X106680000Y-100330000D03*
D12*
X106680000Y-102870000D03*
D11*
X102235000Y-97790000D03*
X102235000Y-100330000D03*
D12*
X102235000Y-102870000D03*
D19*
X136525000Y-107950000D03*
X128270000Y-109220000D03*
X128270000Y-116205000D03*
D20*
X97790000Y-111125000D03*
X97790000Y-104140000D03*
X95250000Y-101600000D03*
X95250000Y-106680000D03*
D19*
X104140000Y-109855000D03*
X96520000Y-109855000D03*
D20*
X128270000Y-104140000D03*
D19*
X125095000Y-113665000D03*
D21*
X91440000Y-97790000D02*
X91440000Y-120015000D01*
D22*
X105410000Y-115600000D02*
X107285000Y-115600000D01*
X107285000Y-115600000D02*
X107315000Y-115570000D01*
X107315000Y-115570000D02*
X107315000Y-113030000D01*
X107315000Y-113030000D02*
X109220000Y-113030000D01*
X122555000Y-109220000D02*
X128270000Y-109220000D01*
D23*
X97790000Y-111125000D02*
X97790000Y-104140000D01*
X130175000Y-104140000D02*
X131445000Y-104140000D01*
X120015000Y-101600000D02*
X121285000Y-102870000D01*
X128905000Y-102870000D02*
X130175000Y-104140000D01*
X121285000Y-102870000D02*
X128905000Y-102870000D01*
X92710000Y-106680000D02*
X92710000Y-102235000D01*
X93980000Y-107950000D02*
X92710000Y-106680000D01*
X92710000Y-102235000D02*
X93345000Y-101600000D01*
X93345000Y-101600000D02*
X95250000Y-101600000D01*
X120015000Y-109220000D02*
X121285000Y-107950000D01*
X121285000Y-107950000D02*
X127000000Y-107950000D01*
X127000000Y-107950000D02*
X131445000Y-107950000D01*
X93980000Y-102870000D02*
X94615000Y-102870000D01*
X94615000Y-102870000D02*
X95250000Y-103505000D01*
X95250000Y-103505000D02*
X95250000Y-106680000D01*
X95250000Y-106680000D02*
X95250000Y-106680000D01*
X130810000Y-110490000D02*
X131445000Y-109855000D01*
X120015000Y-111760000D02*
X121285000Y-110490000D01*
X131445000Y-109855000D02*
X131445000Y-109220000D01*
X121285000Y-110490000D02*
X130810000Y-110490000D01*
D22*
X99060000Y-115600000D02*
X97820000Y-115600000D01*
X97820000Y-115600000D02*
X96520000Y-114300000D01*
X105410000Y-113000000D02*
X105410000Y-111125000D01*
X105410000Y-111125000D02*
X104140000Y-109855000D01*
X96520000Y-114300000D02*
X96520000Y-109855000D01*
X96520000Y-108585000D02*
X96520000Y-96520000D01*
X95250000Y-95250000D02*
X96520000Y-96520000D01*
X93980000Y-95250000D02*
X95250000Y-95250000D01*
X96520000Y-109855000D02*
X96520000Y-108585000D01*
D23*
X122555000Y-101600000D02*
X132080000Y-101600000D01*
X132715000Y-102235000D02*
X132715000Y-104140000D01*
X132080000Y-101600000D02*
X132715000Y-102235000D01*
X127635000Y-104140000D02*
X127635000Y-104140000D01*
X122555000Y-104140000D02*
X128270000Y-104140000D01*
D22*
X134620000Y-107315000D02*
X133985000Y-106680000D01*
X125095000Y-113665000D02*
X132715000Y-113665000D01*
X133985000Y-106680000D02*
X132715000Y-106680000D01*
X132715000Y-113665000D02*
X134620000Y-111760000D01*
X134620000Y-111760000D02*
X134620000Y-107315000D01*
X132715000Y-110490000D02*
X132715000Y-109220000D01*
X122555000Y-111760000D02*
X131445000Y-111760000D01*
X131445000Y-111760000D02*
X132715000Y-110490000D01*
X103505000Y-114300000D02*
X102235000Y-113030000D01*
X105410000Y-114300000D02*
X103505000Y-114300000D01*
X100965000Y-114300000D02*
X102235000Y-115570000D01*
X99060000Y-114300000D02*
X100965000Y-114300000D01*
D23*
X120015000Y-106680000D02*
X121285000Y-105410000D01*
X121285000Y-105410000D02*
X125095000Y-105410000D01*
X125095000Y-105410000D02*
X126365000Y-106680000D01*
X126365000Y-106680000D02*
X131445000Y-106680000D01*
G36*
X136126173Y-92152245D02*
G01*
X136353345Y-92220833D01*
X136562878Y-92332243D01*
X136746771Y-92482224D01*
X136898039Y-92665075D01*
X137010903Y-92873816D01*
X137081077Y-93100510D01*
X137109201Y-93368089D01*
X137109200Y-119981460D01*
X137082755Y-120251169D01*
X137014167Y-120478346D01*
X136902756Y-120687878D01*
X136752776Y-120871772D01*
X136569925Y-121023039D01*
X136361188Y-121135902D01*
X136134490Y-121206077D01*
X135866921Y-121234200D01*
X91473540Y-121234200D01*
X91203831Y-121207755D01*
X90976654Y-121139167D01*
X90767122Y-121027756D01*
X90583228Y-120877776D01*
X90431961Y-120694925D01*
X90319098Y-120486188D01*
X90248923Y-120259490D01*
X90220800Y-119991921D01*
X90220800Y-118947226D01*
X90342412Y-119110269D01*
X90558645Y-119305178D01*
X90808748Y-119454157D01*
X91083109Y-119551481D01*
X91313000Y-119430814D01*
X91313000Y-118237000D01*
X91293000Y-118237000D01*
X91293000Y-117983000D01*
X91313000Y-117983000D01*
X91313000Y-115697000D01*
X91293000Y-115697000D01*
X91293000Y-115443000D01*
X91313000Y-115443000D01*
X91313000Y-113157000D01*
X91293000Y-113157000D01*
X91293000Y-112903000D01*
X91313000Y-112903000D01*
X91313000Y-110617000D01*
X91293000Y-110617000D01*
X91293000Y-110363000D01*
X91313000Y-110363000D01*
X91313000Y-108077000D01*
X91293000Y-108077000D01*
X91293000Y-107823000D01*
X91313000Y-107823000D01*
X91313000Y-105537000D01*
X91293000Y-105537000D01*
X91293000Y-105283000D01*
X91313000Y-105283000D01*
X91313000Y-102997000D01*
X91293000Y-102997000D01*
X91293000Y-102743000D01*
X91313000Y-102743000D01*
X91313000Y-100457000D01*
X91293000Y-100457000D01*
X91293000Y-100203000D01*
X91313000Y-100203000D01*
X91313000Y-97917000D01*
X91293000Y-97917000D01*
X91293000Y-97663000D01*
X91313000Y-97663000D01*
X91313000Y-97643000D01*
X91567000Y-97643000D01*
X91567000Y-97663000D01*
X91587000Y-97663000D01*
X91587000Y-97917000D01*
X91567000Y-97917000D01*
X91567000Y-100203000D01*
X91587000Y-100203000D01*
X91587000Y-100457000D01*
X91567000Y-100457000D01*
X91567000Y-102743000D01*
X91587000Y-102743000D01*
X91587000Y-102997000D01*
X91567000Y-102997000D01*
X91567000Y-105283000D01*
X91587000Y-105283000D01*
X91587000Y-105537000D01*
X91567000Y-105537000D01*
X91567000Y-107823000D01*
X91587000Y-107823000D01*
X91587000Y-108077000D01*
X91567000Y-108077000D01*
X91567000Y-110363000D01*
X91587000Y-110363000D01*
X91587000Y-110617000D01*
X91567000Y-110617000D01*
X91567000Y-112903000D01*
X91587000Y-112903000D01*
X91587000Y-113157000D01*
X91567000Y-113157000D01*
X91567000Y-115443000D01*
X91587000Y-115443000D01*
X91587000Y-115697000D01*
X91567000Y-115697000D01*
X91567000Y-117983000D01*
X91587000Y-117983000D01*
X91587000Y-118237000D01*
X91567000Y-118237000D01*
X91567000Y-119430814D01*
X91796891Y-119551481D01*
X92071252Y-119454157D01*
X92321355Y-119305178D01*
X92537588Y-119110269D01*
X92708900Y-118880594D01*
X92826525Y-119056632D01*
X93033368Y-119263475D01*
X93276589Y-119425990D01*
X93546842Y-119537932D01*
X93833740Y-119595000D01*
X94126260Y-119595000D01*
X94413158Y-119537932D01*
X94683411Y-119425990D01*
X94926632Y-119263475D01*
X95133475Y-119056632D01*
X95295990Y-118813411D01*
X95407932Y-118543158D01*
X95465000Y-118256260D01*
X95465000Y-117963740D01*
X95407932Y-117676842D01*
X95295990Y-117406589D01*
X95133475Y-117163368D01*
X94937107Y-116967000D01*
X100821593Y-116967000D01*
X100795498Y-117015820D01*
X100759188Y-117135518D01*
X100746928Y-117260000D01*
X100746928Y-118960000D01*
X100759188Y-119084482D01*
X100795498Y-119204180D01*
X100854463Y-119314494D01*
X100933815Y-119411185D01*
X101030506Y-119490537D01*
X101140820Y-119549502D01*
X101260518Y-119585812D01*
X101385000Y-119598072D01*
X103085000Y-119598072D01*
X103209482Y-119585812D01*
X103329180Y-119549502D01*
X103439494Y-119490537D01*
X103536185Y-119411185D01*
X103615537Y-119314494D01*
X103674502Y-119204180D01*
X103710812Y-119084482D01*
X103723072Y-118960000D01*
X103723072Y-117260000D01*
X103710812Y-117135518D01*
X103674502Y-117015820D01*
X103615537Y-116905506D01*
X103536185Y-116808815D01*
X103439494Y-116729463D01*
X103329180Y-116670498D01*
X103256620Y-116648487D01*
X103388475Y-116516632D01*
X103550990Y-116273411D01*
X103662932Y-116003158D01*
X103720000Y-115716260D01*
X103720000Y-115423740D01*
X103698569Y-115316000D01*
X104026750Y-115316000D01*
X104183750Y-115473000D01*
X104539407Y-115473000D01*
X104550988Y-115494781D01*
X104578655Y-115547703D01*
X104580049Y-115549437D01*
X104581095Y-115551404D01*
X104618883Y-115597737D01*
X104656310Y-115644286D01*
X104658015Y-115645717D01*
X104659423Y-115647443D01*
X104705473Y-115685539D01*
X104751246Y-115723947D01*
X104753198Y-115725020D01*
X104754913Y-115726439D01*
X104755951Y-115727000D01*
X104183750Y-115727000D01*
X104025000Y-115885750D01*
X104021928Y-116100000D01*
X104034188Y-116224482D01*
X104070498Y-116344180D01*
X104129463Y-116454494D01*
X104208815Y-116551185D01*
X104305506Y-116630537D01*
X104415820Y-116689502D01*
X104535518Y-116725812D01*
X104660000Y-116738072D01*
X105124250Y-116735000D01*
X105283000Y-116576250D01*
X105283000Y-115835000D01*
X105537000Y-115835000D01*
X105537000Y-116576250D01*
X105695750Y-116735000D01*
X106160000Y-116738072D01*
X106284482Y-116725812D01*
X106404180Y-116689502D01*
X106514494Y-116630537D01*
X106611185Y-116551185D01*
X106690537Y-116454494D01*
X106749502Y-116344180D01*
X106785812Y-116224482D01*
X106798072Y-116100000D01*
X106795000Y-115885750D01*
X106636250Y-115727000D01*
X106063740Y-115727000D01*
X106107737Y-115691117D01*
X106154286Y-115653690D01*
X106155717Y-115651985D01*
X106157443Y-115650577D01*
X106195539Y-115604527D01*
X106233947Y-115558754D01*
X106235020Y-115556802D01*
X106236439Y-115555087D01*
X106264851Y-115502539D01*
X106281091Y-115473000D01*
X106636250Y-115473000D01*
X106795000Y-115314250D01*
X106798072Y-115100000D01*
X106785812Y-114975518D01*
X106778071Y-114950000D01*
X106785812Y-114924482D01*
X106798072Y-114800000D01*
X106798072Y-113880000D01*
X107731928Y-113880000D01*
X107744188Y-114004482D01*
X107780498Y-114124180D01*
X107839463Y-114234494D01*
X107918815Y-114331185D01*
X108015506Y-114410537D01*
X108125820Y-114469502D01*
X108198380Y-114491513D01*
X108066525Y-114623368D01*
X107904010Y-114866589D01*
X107792068Y-115136842D01*
X107735000Y-115423740D01*
X107735000Y-115716260D01*
X107792068Y-116003158D01*
X107904010Y-116273411D01*
X108066525Y-116516632D01*
X108273368Y-116723475D01*
X108447760Y-116840000D01*
X108273368Y-116956525D01*
X108066525Y-117163368D01*
X107904010Y-117406589D01*
X107792068Y-117676842D01*
X107735000Y-117963740D01*
X107735000Y-118256260D01*
X107792068Y-118543158D01*
X107904010Y-118813411D01*
X108066525Y-119056632D01*
X108273368Y-119263475D01*
X108516589Y-119425990D01*
X108786842Y-119537932D01*
X109073740Y-119595000D01*
X109366260Y-119595000D01*
X109653158Y-119537932D01*
X109923411Y-119425990D01*
X110166632Y-119263475D01*
X110373475Y-119056632D01*
X110535990Y-118813411D01*
X110647932Y-118543158D01*
X110650549Y-118530000D01*
X118526928Y-118530000D01*
X118526928Y-120230000D01*
X118539188Y-120354482D01*
X118575498Y-120474180D01*
X118634463Y-120584494D01*
X118713815Y-120681185D01*
X118810506Y-120760537D01*
X118920820Y-120819502D01*
X119040518Y-120855812D01*
X119165000Y-120868072D01*
X120865000Y-120868072D01*
X120989482Y-120855812D01*
X121109180Y-120819502D01*
X121219494Y-120760537D01*
X121316185Y-120681185D01*
X121395537Y-120584494D01*
X121454502Y-120474180D01*
X121476513Y-120401620D01*
X121608368Y-120533475D01*
X121851589Y-120695990D01*
X122121842Y-120807932D01*
X122408740Y-120865000D01*
X122701260Y-120865000D01*
X122988158Y-120807932D01*
X123258411Y-120695990D01*
X123501632Y-120533475D01*
X123708475Y-120326632D01*
X123870990Y-120083411D01*
X123982932Y-119813158D01*
X124040000Y-119526260D01*
X124040000Y-119233740D01*
X123982932Y-118946842D01*
X123870990Y-118676589D01*
X123708475Y-118433368D01*
X123501632Y-118226525D01*
X123258411Y-118064010D01*
X122988158Y-117952068D01*
X122701260Y-117895000D01*
X122408740Y-117895000D01*
X122121842Y-117952068D01*
X121851589Y-118064010D01*
X121608368Y-118226525D01*
X121476513Y-118358380D01*
X121454502Y-118285820D01*
X121395537Y-118175506D01*
X121316185Y-118078815D01*
X121219494Y-117999463D01*
X121109180Y-117940498D01*
X120989482Y-117904188D01*
X120865000Y-117891928D01*
X119165000Y-117891928D01*
X119040518Y-117904188D01*
X118920820Y-117940498D01*
X118810506Y-117999463D01*
X118713815Y-118078815D01*
X118634463Y-118175506D01*
X118575498Y-118285820D01*
X118539188Y-118405518D01*
X118526928Y-118530000D01*
X110650549Y-118530000D01*
X110705000Y-118256260D01*
X110705000Y-117963740D01*
X110647932Y-117676842D01*
X110535990Y-117406589D01*
X110373475Y-117163368D01*
X110166632Y-116956525D01*
X109992240Y-116840000D01*
X110166632Y-116723475D01*
X110373475Y-116516632D01*
X110535990Y-116273411D01*
X110647932Y-116003158D01*
X110705000Y-115716260D01*
X110705000Y-115423740D01*
X110647932Y-115136842D01*
X110535990Y-114866589D01*
X110373475Y-114623368D01*
X110241620Y-114491513D01*
X110314180Y-114469502D01*
X110424494Y-114410537D01*
X110521185Y-114331185D01*
X110600537Y-114234494D01*
X110659502Y-114124180D01*
X110695812Y-114004482D01*
X110708072Y-113880000D01*
X110705000Y-113315750D01*
X110546250Y-113157000D01*
X109347000Y-113157000D01*
X109347000Y-113177000D01*
X109093000Y-113177000D01*
X109093000Y-113157000D01*
X107893750Y-113157000D01*
X107735000Y-113315750D01*
X107731928Y-113880000D01*
X106798072Y-113880000D01*
X106798072Y-113800000D01*
X106785812Y-113675518D01*
X106778071Y-113650000D01*
X106785812Y-113624482D01*
X106798072Y-113500000D01*
X106798072Y-112500000D01*
X106785812Y-112375518D01*
X106749502Y-112255820D01*
X106708975Y-112180000D01*
X107731928Y-112180000D01*
X107735000Y-112744250D01*
X107893750Y-112903000D01*
X109093000Y-112903000D01*
X109093000Y-111703750D01*
X109347000Y-111703750D01*
X109347000Y-112903000D01*
X110546250Y-112903000D01*
X110705000Y-112744250D01*
X110708072Y-112180000D01*
X110695812Y-112055518D01*
X110659502Y-111935820D01*
X110600537Y-111825506D01*
X110521185Y-111728815D01*
X110424494Y-111649463D01*
X110314180Y-111590498D01*
X110194482Y-111554188D01*
X110070000Y-111541928D01*
X109505750Y-111545000D01*
X109347000Y-111703750D01*
X109093000Y-111703750D01*
X108934250Y-111545000D01*
X108370000Y-111541928D01*
X108245518Y-111554188D01*
X108125820Y-111590498D01*
X108015506Y-111649463D01*
X107918815Y-111728815D01*
X107839463Y-111825506D01*
X107780498Y-111935820D01*
X107744188Y-112055518D01*
X107731928Y-112180000D01*
X106708975Y-112180000D01*
X106690537Y-112145506D01*
X106611185Y-112048815D01*
X106514494Y-111969463D01*
X106426000Y-111922161D01*
X106426000Y-111174893D01*
X106430914Y-111124999D01*
X106426000Y-111075105D01*
X106426000Y-111075098D01*
X106411298Y-110925829D01*
X106353202Y-110734313D01*
X106258860Y-110557810D01*
X106131896Y-110403104D01*
X106093133Y-110371292D01*
X105475000Y-109753160D01*
X105475000Y-109723514D01*
X105423696Y-109465595D01*
X105323061Y-109222641D01*
X105176962Y-109003987D01*
X104991013Y-108818038D01*
X104772359Y-108671939D01*
X104529405Y-108571304D01*
X104271486Y-108520000D01*
X104008514Y-108520000D01*
X103750595Y-108571304D01*
X103507641Y-108671939D01*
X103288987Y-108818038D01*
X103103038Y-109003987D01*
X102956939Y-109222641D01*
X102856304Y-109465595D01*
X102805000Y-109723514D01*
X102805000Y-109986486D01*
X102856304Y-110244405D01*
X102956939Y-110487359D01*
X103103038Y-110706013D01*
X103288987Y-110891962D01*
X103507641Y-111038061D01*
X103750595Y-111138696D01*
X104008514Y-111190000D01*
X104038160Y-111190000D01*
X104394001Y-111545842D01*
X104394001Y-111922161D01*
X104305506Y-111969463D01*
X104208815Y-112048815D01*
X104129463Y-112145506D01*
X104070498Y-112255820D01*
X104034188Y-112375518D01*
X104021928Y-112500000D01*
X104021928Y-113284000D01*
X103925841Y-113284000D01*
X103720000Y-113078159D01*
X103720000Y-112883740D01*
X103662932Y-112596842D01*
X103550990Y-112326589D01*
X103388475Y-112083368D01*
X103181632Y-111876525D01*
X102938411Y-111714010D01*
X102668158Y-111602068D01*
X102381260Y-111545000D01*
X102088740Y-111545000D01*
X101801842Y-111602068D01*
X101531589Y-111714010D01*
X101288368Y-111876525D01*
X101081525Y-112083368D01*
X100919010Y-112326589D01*
X100807068Y-112596842D01*
X100750000Y-112883740D01*
X100750000Y-113176260D01*
X100771431Y-113284000D01*
X100443250Y-113284000D01*
X100286250Y-113127000D01*
X99187000Y-113127000D01*
X99187000Y-113147000D01*
X98933000Y-113147000D01*
X98933000Y-113127000D01*
X98913000Y-113127000D01*
X98913000Y-112873000D01*
X98933000Y-112873000D01*
X98933000Y-112023750D01*
X99187000Y-112023750D01*
X99187000Y-112873000D01*
X100286250Y-112873000D01*
X100445000Y-112714250D01*
X100448072Y-112500000D01*
X100435812Y-112375518D01*
X100399502Y-112255820D01*
X100340537Y-112145506D01*
X100261185Y-112048815D01*
X100164494Y-111969463D01*
X100054180Y-111910498D01*
X99934482Y-111874188D01*
X99810000Y-111861928D01*
X99345750Y-111865000D01*
X99187000Y-112023750D01*
X98933000Y-112023750D01*
X98774250Y-111865000D01*
X98515424Y-111863287D01*
X98593937Y-111784774D01*
X98707205Y-111615256D01*
X98785226Y-111426898D01*
X98825000Y-111226939D01*
X98825000Y-111023061D01*
X98785226Y-110823102D01*
X98707205Y-110634744D01*
X98593937Y-110465226D01*
X98552000Y-110423289D01*
X98552000Y-107100000D01*
X105191928Y-107100000D01*
X105191928Y-108800000D01*
X105204188Y-108924482D01*
X105240498Y-109044180D01*
X105299463Y-109154494D01*
X105378815Y-109251185D01*
X105475506Y-109330537D01*
X105585820Y-109389502D01*
X105705518Y-109425812D01*
X105830000Y-109438072D01*
X107530000Y-109438072D01*
X107654482Y-109425812D01*
X107774180Y-109389502D01*
X107884494Y-109330537D01*
X107981185Y-109251185D01*
X108060537Y-109154494D01*
X108119502Y-109044180D01*
X108141513Y-108971620D01*
X108273368Y-109103475D01*
X108516589Y-109265990D01*
X108786842Y-109377932D01*
X109073740Y-109435000D01*
X109366260Y-109435000D01*
X109653158Y-109377932D01*
X109923411Y-109265990D01*
X110166632Y-109103475D01*
X110373475Y-108896632D01*
X110535990Y-108653411D01*
X110647932Y-108383158D01*
X110705000Y-108096260D01*
X110705000Y-107803740D01*
X110647932Y-107516842D01*
X110535990Y-107246589D01*
X110373475Y-107003368D01*
X110166632Y-106796525D01*
X109923411Y-106634010D01*
X109653158Y-106522068D01*
X109366260Y-106465000D01*
X109073740Y-106465000D01*
X108786842Y-106522068D01*
X108516589Y-106634010D01*
X108273368Y-106796525D01*
X108141513Y-106928380D01*
X108119502Y-106855820D01*
X108060537Y-106745506D01*
X107981185Y-106648815D01*
X107884494Y-106569463D01*
X107774180Y-106510498D01*
X107654482Y-106474188D01*
X107530000Y-106461928D01*
X105830000Y-106461928D01*
X105705518Y-106474188D01*
X105585820Y-106510498D01*
X105475506Y-106569463D01*
X105378815Y-106648815D01*
X105299463Y-106745506D01*
X105240498Y-106855820D01*
X105204188Y-106975518D01*
X105191928Y-107100000D01*
X98552000Y-107100000D01*
X98552000Y-104841711D01*
X98593937Y-104799774D01*
X98707205Y-104630256D01*
X98785226Y-104441898D01*
X98825000Y-104241939D01*
X98825000Y-104038061D01*
X98785226Y-103838102D01*
X98707205Y-103649744D01*
X98593937Y-103480226D01*
X98449774Y-103336063D01*
X98280256Y-103222795D01*
X98091898Y-103144774D01*
X97891939Y-103105000D01*
X97688061Y-103105000D01*
X97536000Y-103135247D01*
X97536000Y-102020000D01*
X100746928Y-102020000D01*
X100746928Y-103720000D01*
X100759188Y-103844482D01*
X100795498Y-103964180D01*
X100854463Y-104074494D01*
X100933815Y-104171185D01*
X101030506Y-104250537D01*
X101140820Y-104309502D01*
X101260518Y-104345812D01*
X101385000Y-104358072D01*
X103085000Y-104358072D01*
X103209482Y-104345812D01*
X103329180Y-104309502D01*
X103439494Y-104250537D01*
X103536185Y-104171185D01*
X103615537Y-104074494D01*
X103674502Y-103964180D01*
X103710812Y-103844482D01*
X103723072Y-103720000D01*
X105191928Y-103720000D01*
X105204188Y-103844482D01*
X105240498Y-103964180D01*
X105299463Y-104074494D01*
X105378815Y-104171185D01*
X105475506Y-104250537D01*
X105585820Y-104309502D01*
X105705518Y-104345812D01*
X105830000Y-104358072D01*
X106394250Y-104355000D01*
X106553000Y-104196250D01*
X106553000Y-102997000D01*
X106807000Y-102997000D01*
X106807000Y-104196250D01*
X106965750Y-104355000D01*
X107530000Y-104358072D01*
X107654482Y-104345812D01*
X107774180Y-104309502D01*
X107884494Y-104250537D01*
X107981185Y-104171185D01*
X108060537Y-104074494D01*
X108119502Y-103964180D01*
X108155812Y-103844482D01*
X108168072Y-103720000D01*
X108165000Y-103155750D01*
X108006250Y-102997000D01*
X106807000Y-102997000D01*
X106553000Y-102997000D01*
X105353750Y-102997000D01*
X105195000Y-103155750D01*
X105191928Y-103720000D01*
X103723072Y-103720000D01*
X103723072Y-102020000D01*
X105191928Y-102020000D01*
X105195000Y-102584250D01*
X105353750Y-102743000D01*
X106553000Y-102743000D01*
X106553000Y-102723000D01*
X106807000Y-102723000D01*
X106807000Y-102743000D01*
X108006250Y-102743000D01*
X108165000Y-102584250D01*
X108168072Y-102020000D01*
X108155812Y-101895518D01*
X108119502Y-101775820D01*
X108060537Y-101665506D01*
X107981185Y-101568815D01*
X107884494Y-101489463D01*
X107815157Y-101452401D01*
X118516400Y-101452401D01*
X118516400Y-101747599D01*
X118573990Y-102037125D01*
X118686958Y-102309853D01*
X118850961Y-102555302D01*
X119059698Y-102764039D01*
X119218281Y-102870000D01*
X119059698Y-102975961D01*
X118850961Y-103184698D01*
X118686958Y-103430147D01*
X118573990Y-103702875D01*
X118516400Y-103992401D01*
X118516400Y-104287599D01*
X118573990Y-104577125D01*
X118686958Y-104849853D01*
X118850961Y-105095302D01*
X119059698Y-105304039D01*
X119218281Y-105410000D01*
X119059698Y-105515961D01*
X118850961Y-105724698D01*
X118686958Y-105970147D01*
X118573990Y-106242875D01*
X118516400Y-106532401D01*
X118516400Y-106827599D01*
X118573990Y-107117125D01*
X118686958Y-107389853D01*
X118850961Y-107635302D01*
X119059698Y-107844039D01*
X119218281Y-107950000D01*
X119059698Y-108055961D01*
X118850961Y-108264698D01*
X118686958Y-108510147D01*
X118573990Y-108782875D01*
X118516400Y-109072401D01*
X118516400Y-109367599D01*
X118573990Y-109657125D01*
X118686958Y-109929853D01*
X118850961Y-110175302D01*
X119059698Y-110384039D01*
X119218281Y-110490000D01*
X119059698Y-110595961D01*
X118850961Y-110804698D01*
X118686958Y-111050147D01*
X118573990Y-111322875D01*
X118516400Y-111612401D01*
X118516400Y-111907599D01*
X118573990Y-112197125D01*
X118686958Y-112469853D01*
X118850961Y-112715302D01*
X119059698Y-112924039D01*
X119305147Y-113088042D01*
X119577875Y-113201010D01*
X119867401Y-113258600D01*
X120162599Y-113258600D01*
X120452125Y-113201010D01*
X120724853Y-113088042D01*
X120970302Y-112924039D01*
X121084364Y-112809977D01*
X121101898Y-112867780D01*
X121160863Y-112978094D01*
X121240215Y-113074785D01*
X121336906Y-113154137D01*
X121447220Y-113213102D01*
X121566918Y-113249412D01*
X121691400Y-113261672D01*
X123418600Y-113261672D01*
X123543082Y-113249412D01*
X123662780Y-113213102D01*
X123773094Y-113154137D01*
X123869785Y-113074785D01*
X123945095Y-112983019D01*
X123911939Y-113032641D01*
X123811304Y-113275595D01*
X123760000Y-113533514D01*
X123760000Y-113796486D01*
X123811304Y-114054405D01*
X123911939Y-114297359D01*
X124058038Y-114516013D01*
X124243987Y-114701962D01*
X124462641Y-114848061D01*
X124705595Y-114948696D01*
X124963514Y-115000000D01*
X125226486Y-115000000D01*
X125484405Y-114948696D01*
X125727359Y-114848061D01*
X125946013Y-114701962D01*
X125966975Y-114681000D01*
X132665098Y-114681000D01*
X132715000Y-114685915D01*
X132764902Y-114681000D01*
X132914171Y-114666298D01*
X133105687Y-114608202D01*
X133282190Y-114513860D01*
X133436896Y-114386896D01*
X133468712Y-114348128D01*
X135303135Y-112513706D01*
X135341896Y-112481896D01*
X135468860Y-112327190D01*
X135563202Y-112150687D01*
X135621298Y-111959171D01*
X135636000Y-111809902D01*
X135636000Y-111809901D01*
X135640915Y-111760000D01*
X135636000Y-111710098D01*
X135636000Y-107364902D01*
X135640915Y-107315000D01*
X135621298Y-107115829D01*
X135563202Y-106924313D01*
X135468860Y-106747810D01*
X135443924Y-106717426D01*
X135341896Y-106593104D01*
X135303127Y-106561287D01*
X134738713Y-105996873D01*
X134706896Y-105958104D01*
X134552190Y-105831140D01*
X134375687Y-105736798D01*
X134184171Y-105678702D01*
X134034902Y-105664000D01*
X133985000Y-105659085D01*
X133935098Y-105664000D01*
X133821712Y-105664000D01*
X133850000Y-105521788D01*
X133850000Y-105298212D01*
X133806383Y-105078933D01*
X133720824Y-104872376D01*
X133655759Y-104775000D01*
X133720824Y-104677624D01*
X133806383Y-104471067D01*
X133850000Y-104251788D01*
X133850000Y-104028212D01*
X133806383Y-103808933D01*
X133720824Y-103602376D01*
X133596612Y-103416480D01*
X133477000Y-103296868D01*
X133477000Y-102272423D01*
X133480686Y-102235000D01*
X133473555Y-102162598D01*
X133465974Y-102085622D01*
X133422402Y-101941985D01*
X133389465Y-101880364D01*
X133351645Y-101809607D01*
X133309236Y-101757932D01*
X133256422Y-101693578D01*
X133227347Y-101669717D01*
X132645284Y-101087654D01*
X132621422Y-101058578D01*
X132505392Y-100963355D01*
X132373015Y-100892598D01*
X132229378Y-100849026D01*
X132117426Y-100838000D01*
X132117423Y-100838000D01*
X132080000Y-100834314D01*
X132042577Y-100838000D01*
X123848199Y-100838000D01*
X123719039Y-100644698D01*
X123510302Y-100435961D01*
X123264853Y-100271958D01*
X122992125Y-100158990D01*
X122702599Y-100101400D01*
X122407401Y-100101400D01*
X122117875Y-100158990D01*
X121845147Y-100271958D01*
X121599698Y-100435961D01*
X121390961Y-100644698D01*
X121285000Y-100803281D01*
X121179039Y-100644698D01*
X120970302Y-100435961D01*
X120724853Y-100271958D01*
X120452125Y-100158990D01*
X120162599Y-100101400D01*
X119867401Y-100101400D01*
X119577875Y-100158990D01*
X119305147Y-100271958D01*
X119059698Y-100435961D01*
X118850961Y-100644698D01*
X118686958Y-100890147D01*
X118573990Y-101162875D01*
X118516400Y-101452401D01*
X107815157Y-101452401D01*
X107774180Y-101430498D01*
X107701620Y-101408487D01*
X107833475Y-101276632D01*
X107995990Y-101033411D01*
X108107932Y-100763158D01*
X108165000Y-100476260D01*
X108165000Y-100183740D01*
X108107932Y-99896842D01*
X107995990Y-99626589D01*
X107833475Y-99383368D01*
X107626632Y-99176525D01*
X107452240Y-99060000D01*
X107626632Y-98943475D01*
X107833475Y-98736632D01*
X107995990Y-98493411D01*
X108107932Y-98223158D01*
X108165000Y-97936260D01*
X108165000Y-97643740D01*
X108107932Y-97356842D01*
X107995990Y-97086589D01*
X107833475Y-96843368D01*
X107626632Y-96636525D01*
X107383411Y-96474010D01*
X107113158Y-96362068D01*
X106826260Y-96305000D01*
X106533740Y-96305000D01*
X106246842Y-96362068D01*
X105976589Y-96474010D01*
X105733368Y-96636525D01*
X105526525Y-96843368D01*
X105364010Y-97086589D01*
X105252068Y-97356842D01*
X105195000Y-97643740D01*
X105195000Y-97936260D01*
X105252068Y-98223158D01*
X105364010Y-98493411D01*
X105526525Y-98736632D01*
X105733368Y-98943475D01*
X105907760Y-99060000D01*
X105733368Y-99176525D01*
X105526525Y-99383368D01*
X105364010Y-99626589D01*
X105252068Y-99896842D01*
X105195000Y-100183740D01*
X105195000Y-100476260D01*
X105252068Y-100763158D01*
X105364010Y-101033411D01*
X105526525Y-101276632D01*
X105658380Y-101408487D01*
X105585820Y-101430498D01*
X105475506Y-101489463D01*
X105378815Y-101568815D01*
X105299463Y-101665506D01*
X105240498Y-101775820D01*
X105204188Y-101895518D01*
X105191928Y-102020000D01*
X103723072Y-102020000D01*
X103710812Y-101895518D01*
X103674502Y-101775820D01*
X103615537Y-101665506D01*
X103536185Y-101568815D01*
X103439494Y-101489463D01*
X103329180Y-101430498D01*
X103256620Y-101408487D01*
X103388475Y-101276632D01*
X103550990Y-101033411D01*
X103662932Y-100763158D01*
X103720000Y-100476260D01*
X103720000Y-100183740D01*
X103662932Y-99896842D01*
X103550990Y-99626589D01*
X103388475Y-99383368D01*
X103181632Y-99176525D01*
X103007240Y-99060000D01*
X103181632Y-98943475D01*
X103388475Y-98736632D01*
X103550990Y-98493411D01*
X103662932Y-98223158D01*
X103720000Y-97936260D01*
X103720000Y-97643740D01*
X103662932Y-97356842D01*
X103550990Y-97086589D01*
X103388475Y-96843368D01*
X103181632Y-96636525D01*
X102938411Y-96474010D01*
X102668158Y-96362068D01*
X102381260Y-96305000D01*
X102088740Y-96305000D01*
X101801842Y-96362068D01*
X101531589Y-96474010D01*
X101288368Y-96636525D01*
X101081525Y-96843368D01*
X100919010Y-97086589D01*
X100807068Y-97356842D01*
X100750000Y-97643740D01*
X100750000Y-97936260D01*
X100807068Y-98223158D01*
X100919010Y-98493411D01*
X101081525Y-98736632D01*
X101288368Y-98943475D01*
X101462760Y-99060000D01*
X101288368Y-99176525D01*
X101081525Y-99383368D01*
X100919010Y-99626589D01*
X100807068Y-99896842D01*
X100750000Y-100183740D01*
X100750000Y-100476260D01*
X100807068Y-100763158D01*
X100919010Y-101033411D01*
X101081525Y-101276632D01*
X101213380Y-101408487D01*
X101140820Y-101430498D01*
X101030506Y-101489463D01*
X100933815Y-101568815D01*
X100854463Y-101665506D01*
X100795498Y-101775820D01*
X100759188Y-101895518D01*
X100746928Y-102020000D01*
X97536000Y-102020000D01*
X97536000Y-96569893D01*
X97540914Y-96519999D01*
X97536000Y-96470105D01*
X97536000Y-96470098D01*
X97521298Y-96320829D01*
X97463202Y-96129313D01*
X97368860Y-95952810D01*
X97241896Y-95798104D01*
X97203133Y-95766292D01*
X96003712Y-94566872D01*
X95971896Y-94528104D01*
X95817190Y-94401140D01*
X95640687Y-94306798D01*
X95449171Y-94248702D01*
X95447631Y-94248550D01*
X95419502Y-94155820D01*
X95360537Y-94045506D01*
X95281185Y-93948815D01*
X95184494Y-93869463D01*
X95074180Y-93810498D01*
X94954482Y-93774188D01*
X94830000Y-93761928D01*
X93130000Y-93761928D01*
X93005518Y-93774188D01*
X92885820Y-93810498D01*
X92775506Y-93869463D01*
X92678815Y-93948815D01*
X92599463Y-94045506D01*
X92540498Y-94155820D01*
X92518487Y-94228380D01*
X92386632Y-94096525D01*
X92143411Y-93934010D01*
X91873158Y-93822068D01*
X91586260Y-93765000D01*
X91293740Y-93765000D01*
X91006842Y-93822068D01*
X90736589Y-93934010D01*
X90493368Y-94096525D01*
X90286525Y-94303368D01*
X90220800Y-94401732D01*
X90220800Y-93378541D01*
X90245169Y-93130000D01*
X118526928Y-93130000D01*
X118526928Y-94830000D01*
X118539188Y-94954482D01*
X118575498Y-95074180D01*
X118634463Y-95184494D01*
X118713815Y-95281185D01*
X118810506Y-95360537D01*
X118920820Y-95419502D01*
X119040518Y-95455812D01*
X119165000Y-95468072D01*
X120865000Y-95468072D01*
X120989482Y-95455812D01*
X121109180Y-95419502D01*
X121219494Y-95360537D01*
X121316185Y-95281185D01*
X121395537Y-95184494D01*
X121454502Y-95074180D01*
X121476513Y-95001620D01*
X121608368Y-95133475D01*
X121851589Y-95295990D01*
X122121842Y-95407932D01*
X122408740Y-95465000D01*
X122701260Y-95465000D01*
X122988158Y-95407932D01*
X123258411Y-95295990D01*
X123501632Y-95133475D01*
X123708475Y-94926632D01*
X123821368Y-94757675D01*
X125996700Y-94757675D01*
X125996700Y-94980325D01*
X126040137Y-95198696D01*
X126125341Y-95404398D01*
X126249039Y-95589524D01*
X126406476Y-95746961D01*
X126591602Y-95870659D01*
X126626224Y-95885000D01*
X126591602Y-95899341D01*
X126406476Y-96023039D01*
X126249039Y-96180476D01*
X126125341Y-96365602D01*
X126040137Y-96571304D01*
X125996700Y-96789675D01*
X125996700Y-97012325D01*
X126040137Y-97230696D01*
X126125341Y-97436398D01*
X126249039Y-97621524D01*
X126406476Y-97778961D01*
X126591602Y-97902659D01*
X126797304Y-97987863D01*
X127015675Y-98031300D01*
X127238325Y-98031300D01*
X127456696Y-97987863D01*
X127662398Y-97902659D01*
X127847524Y-97778961D01*
X128004961Y-97621524D01*
X128083700Y-97503683D01*
X128096939Y-97509167D01*
X128295682Y-97548700D01*
X128498318Y-97548700D01*
X128697061Y-97509167D01*
X128884272Y-97431622D01*
X129032000Y-97332913D01*
X129179728Y-97431622D01*
X129366939Y-97509167D01*
X129565682Y-97548700D01*
X129768318Y-97548700D01*
X129967061Y-97509167D01*
X130154272Y-97431622D01*
X130302000Y-97332913D01*
X130449728Y-97431622D01*
X130636939Y-97509167D01*
X130835682Y-97548700D01*
X131038318Y-97548700D01*
X131237061Y-97509167D01*
X131424272Y-97431622D01*
X131572000Y-97332913D01*
X131719728Y-97431622D01*
X131906939Y-97509167D01*
X132105682Y-97548700D01*
X132308318Y-97548700D01*
X132507061Y-97509167D01*
X132694272Y-97431622D01*
X132842000Y-97332913D01*
X132989728Y-97431622D01*
X133176939Y-97509167D01*
X133375682Y-97548700D01*
X133578318Y-97548700D01*
X133777061Y-97509167D01*
X133964272Y-97431622D01*
X134132758Y-97319043D01*
X134276043Y-97175758D01*
X134388622Y-97007272D01*
X134405341Y-96966908D01*
X134417304Y-96971863D01*
X134635675Y-97015300D01*
X134858325Y-97015300D01*
X135076696Y-96971863D01*
X135282398Y-96886659D01*
X135467524Y-96762961D01*
X135624961Y-96605524D01*
X135748659Y-96420398D01*
X135833863Y-96214696D01*
X135877300Y-95996325D01*
X135877300Y-95773675D01*
X135833863Y-95555304D01*
X135748659Y-95349602D01*
X135624961Y-95164476D01*
X135467524Y-95007039D01*
X135282398Y-94883341D01*
X135076696Y-94798137D01*
X134858325Y-94754700D01*
X134635675Y-94754700D01*
X134417304Y-94798137D01*
X134405341Y-94803092D01*
X134388622Y-94762728D01*
X134276043Y-94594242D01*
X134132758Y-94450957D01*
X133964272Y-94338378D01*
X133777061Y-94260833D01*
X133578318Y-94221300D01*
X133375682Y-94221300D01*
X133176939Y-94260833D01*
X132989728Y-94338378D01*
X132842000Y-94437087D01*
X132694272Y-94338378D01*
X132507061Y-94260833D01*
X132308318Y-94221300D01*
X132105682Y-94221300D01*
X131906939Y-94260833D01*
X131719728Y-94338378D01*
X131572000Y-94437087D01*
X131424272Y-94338378D01*
X131237061Y-94260833D01*
X131038318Y-94221300D01*
X130835682Y-94221300D01*
X130636939Y-94260833D01*
X130449728Y-94338378D01*
X130302000Y-94437087D01*
X130154272Y-94338378D01*
X129967061Y-94260833D01*
X129768318Y-94221300D01*
X129565682Y-94221300D01*
X129366939Y-94260833D01*
X129179728Y-94338378D01*
X129032000Y-94437087D01*
X128884272Y-94338378D01*
X128697061Y-94260833D01*
X128498318Y-94221300D01*
X128295682Y-94221300D01*
X128096939Y-94260833D01*
X128083700Y-94266317D01*
X128004961Y-94148476D01*
X127847524Y-93991039D01*
X127662398Y-93867341D01*
X127456696Y-93782137D01*
X127238325Y-93738700D01*
X127015675Y-93738700D01*
X126797304Y-93782137D01*
X126591602Y-93867341D01*
X126406476Y-93991039D01*
X126249039Y-94148476D01*
X126125341Y-94333602D01*
X126040137Y-94539304D01*
X125996700Y-94757675D01*
X123821368Y-94757675D01*
X123870990Y-94683411D01*
X123982932Y-94413158D01*
X124040000Y-94126260D01*
X124040000Y-93833740D01*
X123982932Y-93546842D01*
X123870990Y-93276589D01*
X123708475Y-93033368D01*
X123501632Y-92826525D01*
X123258411Y-92664010D01*
X122988158Y-92552068D01*
X122701260Y-92495000D01*
X122408740Y-92495000D01*
X122121842Y-92552068D01*
X121851589Y-92664010D01*
X121608368Y-92826525D01*
X121476513Y-92958380D01*
X121454502Y-92885820D01*
X121395537Y-92775506D01*
X121316185Y-92678815D01*
X121219494Y-92599463D01*
X121109180Y-92540498D01*
X120989482Y-92504188D01*
X120865000Y-92491928D01*
X119165000Y-92491928D01*
X119040518Y-92504188D01*
X118920820Y-92540498D01*
X118810506Y-92599463D01*
X118713815Y-92678815D01*
X118634463Y-92775506D01*
X118575498Y-92885820D01*
X118539188Y-93005518D01*
X118526928Y-93130000D01*
X90245169Y-93130000D01*
X90247245Y-93108827D01*
X90315833Y-92881655D01*
X90427243Y-92672122D01*
X90577224Y-92488229D01*
X90760075Y-92336961D01*
X90968816Y-92224097D01*
X91195510Y-92153923D01*
X91463079Y-92125800D01*
X135856459Y-92125800D01*
X136126173Y-92152245D01*
G37*
X136126173Y-92152245D02*
X136353345Y-92220833D01*
X136562878Y-92332243D01*
X136746771Y-92482224D01*
X136898039Y-92665075D01*
X137010903Y-92873816D01*
X137081077Y-93100510D01*
X137109201Y-93368089D01*
X137109200Y-119981460D01*
X137082755Y-120251169D01*
X137014167Y-120478346D01*
X136902756Y-120687878D01*
X136752776Y-120871772D01*
X136569925Y-121023039D01*
X136361188Y-121135902D01*
X136134490Y-121206077D01*
X135866921Y-121234200D01*
X91473540Y-121234200D01*
X91203831Y-121207755D01*
X90976654Y-121139167D01*
X90767122Y-121027756D01*
X90583228Y-120877776D01*
X90431961Y-120694925D01*
X90319098Y-120486188D01*
X90248923Y-120259490D01*
X90220800Y-119991921D01*
X90220800Y-118947226D01*
X90342412Y-119110269D01*
X90558645Y-119305178D01*
X90808748Y-119454157D01*
X91083109Y-119551481D01*
X91313000Y-119430814D01*
X91313000Y-118237000D01*
X91293000Y-118237000D01*
X91293000Y-117983000D01*
X91313000Y-117983000D01*
X91313000Y-115697000D01*
X91293000Y-115697000D01*
X91293000Y-115443000D01*
X91313000Y-115443000D01*
X91313000Y-113157000D01*
X91293000Y-113157000D01*
X91293000Y-112903000D01*
X91313000Y-112903000D01*
X91313000Y-110617000D01*
X91293000Y-110617000D01*
X91293000Y-110363000D01*
X91313000Y-110363000D01*
X91313000Y-108077000D01*
X91293000Y-108077000D01*
X91293000Y-107823000D01*
X91313000Y-107823000D01*
X91313000Y-105537000D01*
X91293000Y-105537000D01*
X91293000Y-105283000D01*
X91313000Y-105283000D01*
X91313000Y-102997000D01*
X91293000Y-102997000D01*
X91293000Y-102743000D01*
X91313000Y-102743000D01*
X91313000Y-100457000D01*
X91293000Y-100457000D01*
X91293000Y-100203000D01*
X91313000Y-100203000D01*
X91313000Y-97917000D01*
X91293000Y-97917000D01*
X91293000Y-97663000D01*
X91313000Y-97663000D01*
X91313000Y-97643000D01*
X91567000Y-97643000D01*
X91567000Y-97663000D01*
X91587000Y-97663000D01*
X91587000Y-97917000D01*
X91567000Y-97917000D01*
X91567000Y-100203000D01*
X91587000Y-100203000D01*
X91587000Y-100457000D01*
X91567000Y-100457000D01*
X91567000Y-102743000D01*
X91587000Y-102743000D01*
X91587000Y-102997000D01*
X91567000Y-102997000D01*
X91567000Y-105283000D01*
X91587000Y-105283000D01*
X91587000Y-105537000D01*
X91567000Y-105537000D01*
X91567000Y-107823000D01*
X91587000Y-107823000D01*
X91587000Y-108077000D01*
X91567000Y-108077000D01*
X91567000Y-110363000D01*
X91587000Y-110363000D01*
X91587000Y-110617000D01*
X91567000Y-110617000D01*
X91567000Y-112903000D01*
X91587000Y-112903000D01*
X91587000Y-113157000D01*
X91567000Y-113157000D01*
X91567000Y-115443000D01*
X91587000Y-115443000D01*
X91587000Y-115697000D01*
X91567000Y-115697000D01*
X91567000Y-117983000D01*
X91587000Y-117983000D01*
X91587000Y-118237000D01*
X91567000Y-118237000D01*
X91567000Y-119430814D01*
X91796891Y-119551481D01*
X92071252Y-119454157D01*
X92321355Y-119305178D01*
X92537588Y-119110269D01*
X92708900Y-118880594D01*
X92826525Y-119056632D01*
X93033368Y-119263475D01*
X93276589Y-119425990D01*
X93546842Y-119537932D01*
X93833740Y-119595000D01*
X94126260Y-119595000D01*
X94413158Y-119537932D01*
X94683411Y-119425990D01*
X94926632Y-119263475D01*
X95133475Y-119056632D01*
X95295990Y-118813411D01*
X95407932Y-118543158D01*
X95465000Y-118256260D01*
X95465000Y-117963740D01*
X95407932Y-117676842D01*
X95295990Y-117406589D01*
X95133475Y-117163368D01*
X94937107Y-116967000D01*
X100821593Y-116967000D01*
X100795498Y-117015820D01*
X100759188Y-117135518D01*
X100746928Y-117260000D01*
X100746928Y-118960000D01*
X100759188Y-119084482D01*
X100795498Y-119204180D01*
X100854463Y-119314494D01*
X100933815Y-119411185D01*
X101030506Y-119490537D01*
X101140820Y-119549502D01*
X101260518Y-119585812D01*
X101385000Y-119598072D01*
X103085000Y-119598072D01*
X103209482Y-119585812D01*
X103329180Y-119549502D01*
X103439494Y-119490537D01*
X103536185Y-119411185D01*
X103615537Y-119314494D01*
X103674502Y-119204180D01*
X103710812Y-119084482D01*
X103723072Y-118960000D01*
X103723072Y-117260000D01*
X103710812Y-117135518D01*
X103674502Y-117015820D01*
X103615537Y-116905506D01*
X103536185Y-116808815D01*
X103439494Y-116729463D01*
X103329180Y-116670498D01*
X103256620Y-116648487D01*
X103388475Y-116516632D01*
X103550990Y-116273411D01*
X103662932Y-116003158D01*
X103720000Y-115716260D01*
X103720000Y-115423740D01*
X103698569Y-115316000D01*
X104026750Y-115316000D01*
X104183750Y-115473000D01*
X104539407Y-115473000D01*
X104550988Y-115494781D01*
X104578655Y-115547703D01*
X104580049Y-115549437D01*
X104581095Y-115551404D01*
X104618883Y-115597737D01*
X104656310Y-115644286D01*
X104658015Y-115645717D01*
X104659423Y-115647443D01*
X104705473Y-115685539D01*
X104751246Y-115723947D01*
X104753198Y-115725020D01*
X104754913Y-115726439D01*
X104755951Y-115727000D01*
X104183750Y-115727000D01*
X104025000Y-115885750D01*
X104021928Y-116100000D01*
X104034188Y-116224482D01*
X104070498Y-116344180D01*
X104129463Y-116454494D01*
X104208815Y-116551185D01*
X104305506Y-116630537D01*
X104415820Y-116689502D01*
X104535518Y-116725812D01*
X104660000Y-116738072D01*
X105124250Y-116735000D01*
X105283000Y-116576250D01*
X105283000Y-115835000D01*
X105537000Y-115835000D01*
X105537000Y-116576250D01*
X105695750Y-116735000D01*
X106160000Y-116738072D01*
X106284482Y-116725812D01*
X106404180Y-116689502D01*
X106514494Y-116630537D01*
X106611185Y-116551185D01*
X106690537Y-116454494D01*
X106749502Y-116344180D01*
X106785812Y-116224482D01*
X106798072Y-116100000D01*
X106795000Y-115885750D01*
X106636250Y-115727000D01*
X106063740Y-115727000D01*
X106107737Y-115691117D01*
X106154286Y-115653690D01*
X106155717Y-115651985D01*
X106157443Y-115650577D01*
X106195539Y-115604527D01*
X106233947Y-115558754D01*
X106235020Y-115556802D01*
X106236439Y-115555087D01*
X106264851Y-115502539D01*
X106281091Y-115473000D01*
X106636250Y-115473000D01*
X106795000Y-115314250D01*
X106798072Y-115100000D01*
X106785812Y-114975518D01*
X106778071Y-114950000D01*
X106785812Y-114924482D01*
X106798072Y-114800000D01*
X106798072Y-113880000D01*
X107731928Y-113880000D01*
X107744188Y-114004482D01*
X107780498Y-114124180D01*
X107839463Y-114234494D01*
X107918815Y-114331185D01*
X108015506Y-114410537D01*
X108125820Y-114469502D01*
X108198380Y-114491513D01*
X108066525Y-114623368D01*
X107904010Y-114866589D01*
X107792068Y-115136842D01*
X107735000Y-115423740D01*
X107735000Y-115716260D01*
X107792068Y-116003158D01*
X107904010Y-116273411D01*
X108066525Y-116516632D01*
X108273368Y-116723475D01*
X108447760Y-116840000D01*
X108273368Y-116956525D01*
X108066525Y-117163368D01*
X107904010Y-117406589D01*
X107792068Y-117676842D01*
X107735000Y-117963740D01*
X107735000Y-118256260D01*
X107792068Y-118543158D01*
X107904010Y-118813411D01*
X108066525Y-119056632D01*
X108273368Y-119263475D01*
X108516589Y-119425990D01*
X108786842Y-119537932D01*
X109073740Y-119595000D01*
X109366260Y-119595000D01*
X109653158Y-119537932D01*
X109923411Y-119425990D01*
X110166632Y-119263475D01*
X110373475Y-119056632D01*
X110535990Y-118813411D01*
X110647932Y-118543158D01*
X110650549Y-118530000D01*
X118526928Y-118530000D01*
X118526928Y-120230000D01*
X118539188Y-120354482D01*
X118575498Y-120474180D01*
X118634463Y-120584494D01*
X118713815Y-120681185D01*
X118810506Y-120760537D01*
X118920820Y-120819502D01*
X119040518Y-120855812D01*
X119165000Y-120868072D01*
X120865000Y-120868072D01*
X120989482Y-120855812D01*
X121109180Y-120819502D01*
X121219494Y-120760537D01*
X121316185Y-120681185D01*
X121395537Y-120584494D01*
X121454502Y-120474180D01*
X121476513Y-120401620D01*
X121608368Y-120533475D01*
X121851589Y-120695990D01*
X122121842Y-120807932D01*
X122408740Y-120865000D01*
X122701260Y-120865000D01*
X122988158Y-120807932D01*
X123258411Y-120695990D01*
X123501632Y-120533475D01*
X123708475Y-120326632D01*
X123870990Y-120083411D01*
X123982932Y-119813158D01*
X124040000Y-119526260D01*
X124040000Y-119233740D01*
X123982932Y-118946842D01*
X123870990Y-118676589D01*
X123708475Y-118433368D01*
X123501632Y-118226525D01*
X123258411Y-118064010D01*
X122988158Y-117952068D01*
X122701260Y-117895000D01*
X122408740Y-117895000D01*
X122121842Y-117952068D01*
X121851589Y-118064010D01*
X121608368Y-118226525D01*
X121476513Y-118358380D01*
X121454502Y-118285820D01*
X121395537Y-118175506D01*
X121316185Y-118078815D01*
X121219494Y-117999463D01*
X121109180Y-117940498D01*
X120989482Y-117904188D01*
X120865000Y-117891928D01*
X119165000Y-117891928D01*
X119040518Y-117904188D01*
X118920820Y-117940498D01*
X118810506Y-117999463D01*
X118713815Y-118078815D01*
X118634463Y-118175506D01*
X118575498Y-118285820D01*
X118539188Y-118405518D01*
X118526928Y-118530000D01*
X110650549Y-118530000D01*
X110705000Y-118256260D01*
X110705000Y-117963740D01*
X110647932Y-117676842D01*
X110535990Y-117406589D01*
X110373475Y-117163368D01*
X110166632Y-116956525D01*
X109992240Y-116840000D01*
X110166632Y-116723475D01*
X110373475Y-116516632D01*
X110535990Y-116273411D01*
X110647932Y-116003158D01*
X110705000Y-115716260D01*
X110705000Y-115423740D01*
X110647932Y-115136842D01*
X110535990Y-114866589D01*
X110373475Y-114623368D01*
X110241620Y-114491513D01*
X110314180Y-114469502D01*
X110424494Y-114410537D01*
X110521185Y-114331185D01*
X110600537Y-114234494D01*
X110659502Y-114124180D01*
X110695812Y-114004482D01*
X110708072Y-113880000D01*
X110705000Y-113315750D01*
X110546250Y-113157000D01*
X109347000Y-113157000D01*
X109347000Y-113177000D01*
X109093000Y-113177000D01*
X109093000Y-113157000D01*
X107893750Y-113157000D01*
X107735000Y-113315750D01*
X107731928Y-113880000D01*
X106798072Y-113880000D01*
X106798072Y-113800000D01*
X106785812Y-113675518D01*
X106778071Y-113650000D01*
X106785812Y-113624482D01*
X106798072Y-113500000D01*
X106798072Y-112500000D01*
X106785812Y-112375518D01*
X106749502Y-112255820D01*
X106708975Y-112180000D01*
X107731928Y-112180000D01*
X107735000Y-112744250D01*
X107893750Y-112903000D01*
X109093000Y-112903000D01*
X109093000Y-111703750D01*
X109347000Y-111703750D01*
X109347000Y-112903000D01*
X110546250Y-112903000D01*
X110705000Y-112744250D01*
X110708072Y-112180000D01*
X110695812Y-112055518D01*
X110659502Y-111935820D01*
X110600537Y-111825506D01*
X110521185Y-111728815D01*
X110424494Y-111649463D01*
X110314180Y-111590498D01*
X110194482Y-111554188D01*
X110070000Y-111541928D01*
X109505750Y-111545000D01*
X109347000Y-111703750D01*
X109093000Y-111703750D01*
X108934250Y-111545000D01*
X108370000Y-111541928D01*
X108245518Y-111554188D01*
X108125820Y-111590498D01*
X108015506Y-111649463D01*
X107918815Y-111728815D01*
X107839463Y-111825506D01*
X107780498Y-111935820D01*
X107744188Y-112055518D01*
X107731928Y-112180000D01*
X106708975Y-112180000D01*
X106690537Y-112145506D01*
X106611185Y-112048815D01*
X106514494Y-111969463D01*
X106426000Y-111922161D01*
X106426000Y-111174893D01*
X106430914Y-111124999D01*
X106426000Y-111075105D01*
X106426000Y-111075098D01*
X106411298Y-110925829D01*
X106353202Y-110734313D01*
X106258860Y-110557810D01*
X106131896Y-110403104D01*
X106093133Y-110371292D01*
X105475000Y-109753160D01*
X105475000Y-109723514D01*
X105423696Y-109465595D01*
X105323061Y-109222641D01*
X105176962Y-109003987D01*
X104991013Y-108818038D01*
X104772359Y-108671939D01*
X104529405Y-108571304D01*
X104271486Y-108520000D01*
X104008514Y-108520000D01*
X103750595Y-108571304D01*
X103507641Y-108671939D01*
X103288987Y-108818038D01*
X103103038Y-109003987D01*
X102956939Y-109222641D01*
X102856304Y-109465595D01*
X102805000Y-109723514D01*
X102805000Y-109986486D01*
X102856304Y-110244405D01*
X102956939Y-110487359D01*
X103103038Y-110706013D01*
X103288987Y-110891962D01*
X103507641Y-111038061D01*
X103750595Y-111138696D01*
X104008514Y-111190000D01*
X104038160Y-111190000D01*
X104394001Y-111545842D01*
X104394001Y-111922161D01*
X104305506Y-111969463D01*
X104208815Y-112048815D01*
X104129463Y-112145506D01*
X104070498Y-112255820D01*
X104034188Y-112375518D01*
X104021928Y-112500000D01*
X104021928Y-113284000D01*
X103925841Y-113284000D01*
X103720000Y-113078159D01*
X103720000Y-112883740D01*
X103662932Y-112596842D01*
X103550990Y-112326589D01*
X103388475Y-112083368D01*
X103181632Y-111876525D01*
X102938411Y-111714010D01*
X102668158Y-111602068D01*
X102381260Y-111545000D01*
X102088740Y-111545000D01*
X101801842Y-111602068D01*
X101531589Y-111714010D01*
X101288368Y-111876525D01*
X101081525Y-112083368D01*
X100919010Y-112326589D01*
X100807068Y-112596842D01*
X100750000Y-112883740D01*
X100750000Y-113176260D01*
X100771431Y-113284000D01*
X100443250Y-113284000D01*
X100286250Y-113127000D01*
X99187000Y-113127000D01*
X99187000Y-113147000D01*
X98933000Y-113147000D01*
X98933000Y-113127000D01*
X98913000Y-113127000D01*
X98913000Y-112873000D01*
X98933000Y-112873000D01*
X98933000Y-112023750D01*
X99187000Y-112023750D01*
X99187000Y-112873000D01*
X100286250Y-112873000D01*
X100445000Y-112714250D01*
X100448072Y-112500000D01*
X100435812Y-112375518D01*
X100399502Y-112255820D01*
X100340537Y-112145506D01*
X100261185Y-112048815D01*
X100164494Y-111969463D01*
X100054180Y-111910498D01*
X99934482Y-111874188D01*
X99810000Y-111861928D01*
X99345750Y-111865000D01*
X99187000Y-112023750D01*
X98933000Y-112023750D01*
X98774250Y-111865000D01*
X98515424Y-111863287D01*
X98593937Y-111784774D01*
X98707205Y-111615256D01*
X98785226Y-111426898D01*
X98825000Y-111226939D01*
X98825000Y-111023061D01*
X98785226Y-110823102D01*
X98707205Y-110634744D01*
X98593937Y-110465226D01*
X98552000Y-110423289D01*
X98552000Y-107100000D01*
X105191928Y-107100000D01*
X105191928Y-108800000D01*
X105204188Y-108924482D01*
X105240498Y-109044180D01*
X105299463Y-109154494D01*
X105378815Y-109251185D01*
X105475506Y-109330537D01*
X105585820Y-109389502D01*
X105705518Y-109425812D01*
X105830000Y-109438072D01*
X107530000Y-109438072D01*
X107654482Y-109425812D01*
X107774180Y-109389502D01*
X107884494Y-109330537D01*
X107981185Y-109251185D01*
X108060537Y-109154494D01*
X108119502Y-109044180D01*
X108141513Y-108971620D01*
X108273368Y-109103475D01*
X108516589Y-109265990D01*
X108786842Y-109377932D01*
X109073740Y-109435000D01*
X109366260Y-109435000D01*
X109653158Y-109377932D01*
X109923411Y-109265990D01*
X110166632Y-109103475D01*
X110373475Y-108896632D01*
X110535990Y-108653411D01*
X110647932Y-108383158D01*
X110705000Y-108096260D01*
X110705000Y-107803740D01*
X110647932Y-107516842D01*
X110535990Y-107246589D01*
X110373475Y-107003368D01*
X110166632Y-106796525D01*
X109923411Y-106634010D01*
X109653158Y-106522068D01*
X109366260Y-106465000D01*
X109073740Y-106465000D01*
X108786842Y-106522068D01*
X108516589Y-106634010D01*
X108273368Y-106796525D01*
X108141513Y-106928380D01*
X108119502Y-106855820D01*
X108060537Y-106745506D01*
X107981185Y-106648815D01*
X107884494Y-106569463D01*
X107774180Y-106510498D01*
X107654482Y-106474188D01*
X107530000Y-106461928D01*
X105830000Y-106461928D01*
X105705518Y-106474188D01*
X105585820Y-106510498D01*
X105475506Y-106569463D01*
X105378815Y-106648815D01*
X105299463Y-106745506D01*
X105240498Y-106855820D01*
X105204188Y-106975518D01*
X105191928Y-107100000D01*
X98552000Y-107100000D01*
X98552000Y-104841711D01*
X98593937Y-104799774D01*
X98707205Y-104630256D01*
X98785226Y-104441898D01*
X98825000Y-104241939D01*
X98825000Y-104038061D01*
X98785226Y-103838102D01*
X98707205Y-103649744D01*
X98593937Y-103480226D01*
X98449774Y-103336063D01*
X98280256Y-103222795D01*
X98091898Y-103144774D01*
X97891939Y-103105000D01*
X97688061Y-103105000D01*
X97536000Y-103135247D01*
X97536000Y-102020000D01*
X100746928Y-102020000D01*
X100746928Y-103720000D01*
X100759188Y-103844482D01*
X100795498Y-103964180D01*
X100854463Y-104074494D01*
X100933815Y-104171185D01*
X101030506Y-104250537D01*
X101140820Y-104309502D01*
X101260518Y-104345812D01*
X101385000Y-104358072D01*
X103085000Y-104358072D01*
X103209482Y-104345812D01*
X103329180Y-104309502D01*
X103439494Y-104250537D01*
X103536185Y-104171185D01*
X103615537Y-104074494D01*
X103674502Y-103964180D01*
X103710812Y-103844482D01*
X103723072Y-103720000D01*
X105191928Y-103720000D01*
X105204188Y-103844482D01*
X105240498Y-103964180D01*
X105299463Y-104074494D01*
X105378815Y-104171185D01*
X105475506Y-104250537D01*
X105585820Y-104309502D01*
X105705518Y-104345812D01*
X105830000Y-104358072D01*
X106394250Y-104355000D01*
X106553000Y-104196250D01*
X106553000Y-102997000D01*
X106807000Y-102997000D01*
X106807000Y-104196250D01*
X106965750Y-104355000D01*
X107530000Y-104358072D01*
X107654482Y-104345812D01*
X107774180Y-104309502D01*
X107884494Y-104250537D01*
X107981185Y-104171185D01*
X108060537Y-104074494D01*
X108119502Y-103964180D01*
X108155812Y-103844482D01*
X108168072Y-103720000D01*
X108165000Y-103155750D01*
X108006250Y-102997000D01*
X106807000Y-102997000D01*
X106553000Y-102997000D01*
X105353750Y-102997000D01*
X105195000Y-103155750D01*
X105191928Y-103720000D01*
X103723072Y-103720000D01*
X103723072Y-102020000D01*
X105191928Y-102020000D01*
X105195000Y-102584250D01*
X105353750Y-102743000D01*
X106553000Y-102743000D01*
X106553000Y-102723000D01*
X106807000Y-102723000D01*
X106807000Y-102743000D01*
X108006250Y-102743000D01*
X108165000Y-102584250D01*
X108168072Y-102020000D01*
X108155812Y-101895518D01*
X108119502Y-101775820D01*
X108060537Y-101665506D01*
X107981185Y-101568815D01*
X107884494Y-101489463D01*
X107815157Y-101452401D01*
X118516400Y-101452401D01*
X118516400Y-101747599D01*
X118573990Y-102037125D01*
X118686958Y-102309853D01*
X118850961Y-102555302D01*
X119059698Y-102764039D01*
X119218281Y-102870000D01*
X119059698Y-102975961D01*
X118850961Y-103184698D01*
X118686958Y-103430147D01*
X118573990Y-103702875D01*
X118516400Y-103992401D01*
X118516400Y-104287599D01*
X118573990Y-104577125D01*
X118686958Y-104849853D01*
X118850961Y-105095302D01*
X119059698Y-105304039D01*
X119218281Y-105410000D01*
X119059698Y-105515961D01*
X118850961Y-105724698D01*
X118686958Y-105970147D01*
X118573990Y-106242875D01*
X118516400Y-106532401D01*
X118516400Y-106827599D01*
X118573990Y-107117125D01*
X118686958Y-107389853D01*
X118850961Y-107635302D01*
X119059698Y-107844039D01*
X119218281Y-107950000D01*
X119059698Y-108055961D01*
X118850961Y-108264698D01*
X118686958Y-108510147D01*
X118573990Y-108782875D01*
X118516400Y-109072401D01*
X118516400Y-109367599D01*
X118573990Y-109657125D01*
X118686958Y-109929853D01*
X118850961Y-110175302D01*
X119059698Y-110384039D01*
X119218281Y-110490000D01*
X119059698Y-110595961D01*
X118850961Y-110804698D01*
X118686958Y-111050147D01*
X118573990Y-111322875D01*
X118516400Y-111612401D01*
X118516400Y-111907599D01*
X118573990Y-112197125D01*
X118686958Y-112469853D01*
X118850961Y-112715302D01*
X119059698Y-112924039D01*
X119305147Y-113088042D01*
X119577875Y-113201010D01*
X119867401Y-113258600D01*
X120162599Y-113258600D01*
X120452125Y-113201010D01*
X120724853Y-113088042D01*
X120970302Y-112924039D01*
X121084364Y-112809977D01*
X121101898Y-112867780D01*
X121160863Y-112978094D01*
X121240215Y-113074785D01*
X121336906Y-113154137D01*
X121447220Y-113213102D01*
X121566918Y-113249412D01*
X121691400Y-113261672D01*
X123418600Y-113261672D01*
X123543082Y-113249412D01*
X123662780Y-113213102D01*
X123773094Y-113154137D01*
X123869785Y-113074785D01*
X123945095Y-112983019D01*
X123911939Y-113032641D01*
X123811304Y-113275595D01*
X123760000Y-113533514D01*
X123760000Y-113796486D01*
X123811304Y-114054405D01*
X123911939Y-114297359D01*
X124058038Y-114516013D01*
X124243987Y-114701962D01*
X124462641Y-114848061D01*
X124705595Y-114948696D01*
X124963514Y-115000000D01*
X125226486Y-115000000D01*
X125484405Y-114948696D01*
X125727359Y-114848061D01*
X125946013Y-114701962D01*
X125966975Y-114681000D01*
X132665098Y-114681000D01*
X132715000Y-114685915D01*
X132764902Y-114681000D01*
X132914171Y-114666298D01*
X133105687Y-114608202D01*
X133282190Y-114513860D01*
X133436896Y-114386896D01*
X133468712Y-114348128D01*
X135303135Y-112513706D01*
X135341896Y-112481896D01*
X135468860Y-112327190D01*
X135563202Y-112150687D01*
X135621298Y-111959171D01*
X135636000Y-111809902D01*
X135636000Y-111809901D01*
X135640915Y-111760000D01*
X135636000Y-111710098D01*
X135636000Y-107364902D01*
X135640915Y-107315000D01*
X135621298Y-107115829D01*
X135563202Y-106924313D01*
X135468860Y-106747810D01*
X135443924Y-106717426D01*
X135341896Y-106593104D01*
X135303127Y-106561287D01*
X134738713Y-105996873D01*
X134706896Y-105958104D01*
X134552190Y-105831140D01*
X134375687Y-105736798D01*
X134184171Y-105678702D01*
X134034902Y-105664000D01*
X133985000Y-105659085D01*
X133935098Y-105664000D01*
X133821712Y-105664000D01*
X133850000Y-105521788D01*
X133850000Y-105298212D01*
X133806383Y-105078933D01*
X133720824Y-104872376D01*
X133655759Y-104775000D01*
X133720824Y-104677624D01*
X133806383Y-104471067D01*
X133850000Y-104251788D01*
X133850000Y-104028212D01*
X133806383Y-103808933D01*
X133720824Y-103602376D01*
X133596612Y-103416480D01*
X133477000Y-103296868D01*
X133477000Y-102272423D01*
X133480686Y-102235000D01*
X133473555Y-102162598D01*
X133465974Y-102085622D01*
X133422402Y-101941985D01*
X133389465Y-101880364D01*
X133351645Y-101809607D01*
X133309236Y-101757932D01*
X133256422Y-101693578D01*
X133227347Y-101669717D01*
X132645284Y-101087654D01*
X132621422Y-101058578D01*
X132505392Y-100963355D01*
X132373015Y-100892598D01*
X132229378Y-100849026D01*
X132117426Y-100838000D01*
X132117423Y-100838000D01*
X132080000Y-100834314D01*
X132042577Y-100838000D01*
X123848199Y-100838000D01*
X123719039Y-100644698D01*
X123510302Y-100435961D01*
X123264853Y-100271958D01*
X122992125Y-100158990D01*
X122702599Y-100101400D01*
X122407401Y-100101400D01*
X122117875Y-100158990D01*
X121845147Y-100271958D01*
X121599698Y-100435961D01*
X121390961Y-100644698D01*
X121285000Y-100803281D01*
X121179039Y-100644698D01*
X120970302Y-100435961D01*
X120724853Y-100271958D01*
X120452125Y-100158990D01*
X120162599Y-100101400D01*
X119867401Y-100101400D01*
X119577875Y-100158990D01*
X119305147Y-100271958D01*
X119059698Y-100435961D01*
X118850961Y-100644698D01*
X118686958Y-100890147D01*
X118573990Y-101162875D01*
X118516400Y-101452401D01*
X107815157Y-101452401D01*
X107774180Y-101430498D01*
X107701620Y-101408487D01*
X107833475Y-101276632D01*
X107995990Y-101033411D01*
X108107932Y-100763158D01*
X108165000Y-100476260D01*
X108165000Y-100183740D01*
X108107932Y-99896842D01*
X107995990Y-99626589D01*
X107833475Y-99383368D01*
X107626632Y-99176525D01*
X107452240Y-99060000D01*
X107626632Y-98943475D01*
X107833475Y-98736632D01*
X107995990Y-98493411D01*
X108107932Y-98223158D01*
X108165000Y-97936260D01*
X108165000Y-97643740D01*
X108107932Y-97356842D01*
X107995990Y-97086589D01*
X107833475Y-96843368D01*
X107626632Y-96636525D01*
X107383411Y-96474010D01*
X107113158Y-96362068D01*
X106826260Y-96305000D01*
X106533740Y-96305000D01*
X106246842Y-96362068D01*
X105976589Y-96474010D01*
X105733368Y-96636525D01*
X105526525Y-96843368D01*
X105364010Y-97086589D01*
X105252068Y-97356842D01*
X105195000Y-97643740D01*
X105195000Y-97936260D01*
X105252068Y-98223158D01*
X105364010Y-98493411D01*
X105526525Y-98736632D01*
X105733368Y-98943475D01*
X105907760Y-99060000D01*
X105733368Y-99176525D01*
X105526525Y-99383368D01*
X105364010Y-99626589D01*
X105252068Y-99896842D01*
X105195000Y-100183740D01*
X105195000Y-100476260D01*
X105252068Y-100763158D01*
X105364010Y-101033411D01*
X105526525Y-101276632D01*
X105658380Y-101408487D01*
X105585820Y-101430498D01*
X105475506Y-101489463D01*
X105378815Y-101568815D01*
X105299463Y-101665506D01*
X105240498Y-101775820D01*
X105204188Y-101895518D01*
X105191928Y-102020000D01*
X103723072Y-102020000D01*
X103710812Y-101895518D01*
X103674502Y-101775820D01*
X103615537Y-101665506D01*
X103536185Y-101568815D01*
X103439494Y-101489463D01*
X103329180Y-101430498D01*
X103256620Y-101408487D01*
X103388475Y-101276632D01*
X103550990Y-101033411D01*
X103662932Y-100763158D01*
X103720000Y-100476260D01*
X103720000Y-100183740D01*
X103662932Y-99896842D01*
X103550990Y-99626589D01*
X103388475Y-99383368D01*
X103181632Y-99176525D01*
X103007240Y-99060000D01*
X103181632Y-98943475D01*
X103388475Y-98736632D01*
X103550990Y-98493411D01*
X103662932Y-98223158D01*
X103720000Y-97936260D01*
X103720000Y-97643740D01*
X103662932Y-97356842D01*
X103550990Y-97086589D01*
X103388475Y-96843368D01*
X103181632Y-96636525D01*
X102938411Y-96474010D01*
X102668158Y-96362068D01*
X102381260Y-96305000D01*
X102088740Y-96305000D01*
X101801842Y-96362068D01*
X101531589Y-96474010D01*
X101288368Y-96636525D01*
X101081525Y-96843368D01*
X100919010Y-97086589D01*
X100807068Y-97356842D01*
X100750000Y-97643740D01*
X100750000Y-97936260D01*
X100807068Y-98223158D01*
X100919010Y-98493411D01*
X101081525Y-98736632D01*
X101288368Y-98943475D01*
X101462760Y-99060000D01*
X101288368Y-99176525D01*
X101081525Y-99383368D01*
X100919010Y-99626589D01*
X100807068Y-99896842D01*
X100750000Y-100183740D01*
X100750000Y-100476260D01*
X100807068Y-100763158D01*
X100919010Y-101033411D01*
X101081525Y-101276632D01*
X101213380Y-101408487D01*
X101140820Y-101430498D01*
X101030506Y-101489463D01*
X100933815Y-101568815D01*
X100854463Y-101665506D01*
X100795498Y-101775820D01*
X100759188Y-101895518D01*
X100746928Y-102020000D01*
X97536000Y-102020000D01*
X97536000Y-96569893D01*
X97540914Y-96519999D01*
X97536000Y-96470105D01*
X97536000Y-96470098D01*
X97521298Y-96320829D01*
X97463202Y-96129313D01*
X97368860Y-95952810D01*
X97241896Y-95798104D01*
X97203133Y-95766292D01*
X96003712Y-94566872D01*
X95971896Y-94528104D01*
X95817190Y-94401140D01*
X95640687Y-94306798D01*
X95449171Y-94248702D01*
X95447631Y-94248550D01*
X95419502Y-94155820D01*
X95360537Y-94045506D01*
X95281185Y-93948815D01*
X95184494Y-93869463D01*
X95074180Y-93810498D01*
X94954482Y-93774188D01*
X94830000Y-93761928D01*
X93130000Y-93761928D01*
X93005518Y-93774188D01*
X92885820Y-93810498D01*
X92775506Y-93869463D01*
X92678815Y-93948815D01*
X92599463Y-94045506D01*
X92540498Y-94155820D01*
X92518487Y-94228380D01*
X92386632Y-94096525D01*
X92143411Y-93934010D01*
X91873158Y-93822068D01*
X91586260Y-93765000D01*
X91293740Y-93765000D01*
X91006842Y-93822068D01*
X90736589Y-93934010D01*
X90493368Y-94096525D01*
X90286525Y-94303368D01*
X90220800Y-94401732D01*
X90220800Y-93378541D01*
X90245169Y-93130000D01*
X118526928Y-93130000D01*
X118526928Y-94830000D01*
X118539188Y-94954482D01*
X118575498Y-95074180D01*
X118634463Y-95184494D01*
X118713815Y-95281185D01*
X118810506Y-95360537D01*
X118920820Y-95419502D01*
X119040518Y-95455812D01*
X119165000Y-95468072D01*
X120865000Y-95468072D01*
X120989482Y-95455812D01*
X121109180Y-95419502D01*
X121219494Y-95360537D01*
X121316185Y-95281185D01*
X121395537Y-95184494D01*
X121454502Y-95074180D01*
X121476513Y-95001620D01*
X121608368Y-95133475D01*
X121851589Y-95295990D01*
X122121842Y-95407932D01*
X122408740Y-95465000D01*
X122701260Y-95465000D01*
X122988158Y-95407932D01*
X123258411Y-95295990D01*
X123501632Y-95133475D01*
X123708475Y-94926632D01*
X123821368Y-94757675D01*
X125996700Y-94757675D01*
X125996700Y-94980325D01*
X126040137Y-95198696D01*
X126125341Y-95404398D01*
X126249039Y-95589524D01*
X126406476Y-95746961D01*
X126591602Y-95870659D01*
X126626224Y-95885000D01*
X126591602Y-95899341D01*
X126406476Y-96023039D01*
X126249039Y-96180476D01*
X126125341Y-96365602D01*
X126040137Y-96571304D01*
X125996700Y-96789675D01*
X125996700Y-97012325D01*
X126040137Y-97230696D01*
X126125341Y-97436398D01*
X126249039Y-97621524D01*
X126406476Y-97778961D01*
X126591602Y-97902659D01*
X126797304Y-97987863D01*
X127015675Y-98031300D01*
X127238325Y-98031300D01*
X127456696Y-97987863D01*
X127662398Y-97902659D01*
X127847524Y-97778961D01*
X128004961Y-97621524D01*
X128083700Y-97503683D01*
X128096939Y-97509167D01*
X128295682Y-97548700D01*
X128498318Y-97548700D01*
X128697061Y-97509167D01*
X128884272Y-97431622D01*
X129032000Y-97332913D01*
X129179728Y-97431622D01*
X129366939Y-97509167D01*
X129565682Y-97548700D01*
X129768318Y-97548700D01*
X129967061Y-97509167D01*
X130154272Y-97431622D01*
X130302000Y-97332913D01*
X130449728Y-97431622D01*
X130636939Y-97509167D01*
X130835682Y-97548700D01*
X131038318Y-97548700D01*
X131237061Y-97509167D01*
X131424272Y-97431622D01*
X131572000Y-97332913D01*
X131719728Y-97431622D01*
X131906939Y-97509167D01*
X132105682Y-97548700D01*
X132308318Y-97548700D01*
X132507061Y-97509167D01*
X132694272Y-97431622D01*
X132842000Y-97332913D01*
X132989728Y-97431622D01*
X133176939Y-97509167D01*
X133375682Y-97548700D01*
X133578318Y-97548700D01*
X133777061Y-97509167D01*
X133964272Y-97431622D01*
X134132758Y-97319043D01*
X134276043Y-97175758D01*
X134388622Y-97007272D01*
X134405341Y-96966908D01*
X134417304Y-96971863D01*
X134635675Y-97015300D01*
X134858325Y-97015300D01*
X135076696Y-96971863D01*
X135282398Y-96886659D01*
X135467524Y-96762961D01*
X135624961Y-96605524D01*
X135748659Y-96420398D01*
X135833863Y-96214696D01*
X135877300Y-95996325D01*
X135877300Y-95773675D01*
X135833863Y-95555304D01*
X135748659Y-95349602D01*
X135624961Y-95164476D01*
X135467524Y-95007039D01*
X135282398Y-94883341D01*
X135076696Y-94798137D01*
X134858325Y-94754700D01*
X134635675Y-94754700D01*
X134417304Y-94798137D01*
X134405341Y-94803092D01*
X134388622Y-94762728D01*
X134276043Y-94594242D01*
X134132758Y-94450957D01*
X133964272Y-94338378D01*
X133777061Y-94260833D01*
X133578318Y-94221300D01*
X133375682Y-94221300D01*
X133176939Y-94260833D01*
X132989728Y-94338378D01*
X132842000Y-94437087D01*
X132694272Y-94338378D01*
X132507061Y-94260833D01*
X132308318Y-94221300D01*
X132105682Y-94221300D01*
X131906939Y-94260833D01*
X131719728Y-94338378D01*
X131572000Y-94437087D01*
X131424272Y-94338378D01*
X131237061Y-94260833D01*
X131038318Y-94221300D01*
X130835682Y-94221300D01*
X130636939Y-94260833D01*
X130449728Y-94338378D01*
X130302000Y-94437087D01*
X130154272Y-94338378D01*
X129967061Y-94260833D01*
X129768318Y-94221300D01*
X129565682Y-94221300D01*
X129366939Y-94260833D01*
X129179728Y-94338378D01*
X129032000Y-94437087D01*
X128884272Y-94338378D01*
X128697061Y-94260833D01*
X128498318Y-94221300D01*
X128295682Y-94221300D01*
X128096939Y-94260833D01*
X128083700Y-94266317D01*
X128004961Y-94148476D01*
X127847524Y-93991039D01*
X127662398Y-93867341D01*
X127456696Y-93782137D01*
X127238325Y-93738700D01*
X127015675Y-93738700D01*
X126797304Y-93782137D01*
X126591602Y-93867341D01*
X126406476Y-93991039D01*
X126249039Y-94148476D01*
X126125341Y-94333602D01*
X126040137Y-94539304D01*
X125996700Y-94757675D01*
X123821368Y-94757675D01*
X123870990Y-94683411D01*
X123982932Y-94413158D01*
X124040000Y-94126260D01*
X124040000Y-93833740D01*
X123982932Y-93546842D01*
X123870990Y-93276589D01*
X123708475Y-93033368D01*
X123501632Y-92826525D01*
X123258411Y-92664010D01*
X122988158Y-92552068D01*
X122701260Y-92495000D01*
X122408740Y-92495000D01*
X122121842Y-92552068D01*
X121851589Y-92664010D01*
X121608368Y-92826525D01*
X121476513Y-92958380D01*
X121454502Y-92885820D01*
X121395537Y-92775506D01*
X121316185Y-92678815D01*
X121219494Y-92599463D01*
X121109180Y-92540498D01*
X120989482Y-92504188D01*
X120865000Y-92491928D01*
X119165000Y-92491928D01*
X119040518Y-92504188D01*
X118920820Y-92540498D01*
X118810506Y-92599463D01*
X118713815Y-92678815D01*
X118634463Y-92775506D01*
X118575498Y-92885820D01*
X118539188Y-93005518D01*
X118526928Y-93130000D01*
X90245169Y-93130000D01*
X90247245Y-93108827D01*
X90315833Y-92881655D01*
X90427243Y-92672122D01*
X90577224Y-92488229D01*
X90760075Y-92336961D01*
X90968816Y-92224097D01*
X91195510Y-92153923D01*
X91463079Y-92125800D01*
X135856459Y-92125800D01*
X136126173Y-92152245D01*
G36*
X130353617Y-108888933D02*
G01*
X130310000Y-109108212D01*
X130310000Y-109331788D01*
X130353617Y-109551067D01*
X130426905Y-109728000D01*
X123964772Y-109728000D01*
X124009958Y-109579026D01*
X123888817Y-109347000D01*
X122682000Y-109347000D01*
X122682000Y-109367000D01*
X122428000Y-109367000D01*
X122428000Y-109347000D01*
X122408000Y-109347000D01*
X122408000Y-109093000D01*
X122428000Y-109093000D01*
X122428000Y-109073000D01*
X122682000Y-109073000D01*
X122682000Y-109093000D01*
X123888817Y-109093000D01*
X124009958Y-108860974D01*
X123964772Y-108712000D01*
X130426905Y-108712000D01*
X130353617Y-108888933D01*
G37*
X130353617Y-108888933D02*
X130310000Y-109108212D01*
X130310000Y-109331788D01*
X130353617Y-109551067D01*
X130426905Y-109728000D01*
X123964772Y-109728000D01*
X124009958Y-109579026D01*
X123888817Y-109347000D01*
X122682000Y-109347000D01*
X122682000Y-109367000D01*
X122428000Y-109367000D01*
X122428000Y-109347000D01*
X122408000Y-109347000D01*
X122408000Y-109093000D01*
X122428000Y-109093000D01*
X122428000Y-109073000D01*
X122682000Y-109073000D01*
X122682000Y-109093000D01*
X123888817Y-109093000D01*
X124009958Y-108860974D01*
X123964772Y-108712000D01*
X130426905Y-108712000D01*
X130353617Y-108888933D01*
G36*
X132842000Y-107823000D02*
G01*
X132862000Y-107823000D01*
X132862000Y-108077000D01*
X132842000Y-108077000D01*
X132842000Y-108081928D01*
X132588000Y-108081928D01*
X132588000Y-108077000D01*
X132576974Y-108077000D01*
X132580000Y-108061788D01*
X132580000Y-107838212D01*
X132576974Y-107823000D01*
X132588000Y-107823000D01*
X132588000Y-107811974D01*
X132603212Y-107815000D01*
X132826788Y-107815000D01*
X132842000Y-107811974D01*
X132842000Y-107823000D01*
G37*
X132842000Y-107823000D02*
X132862000Y-107823000D01*
X132862000Y-108077000D01*
X132842000Y-108077000D01*
X132842000Y-108081928D01*
X132588000Y-108081928D01*
X132588000Y-108077000D01*
X132576974Y-108077000D01*
X132580000Y-108061788D01*
X132580000Y-107838212D01*
X132576974Y-107823000D01*
X132588000Y-107823000D01*
X132588000Y-107811974D01*
X132603212Y-107815000D01*
X132826788Y-107815000D01*
X132842000Y-107811974D01*
X132842000Y-107823000D01*
M02*
