G04 #@! TF.GenerationSoftware,KiCad,Pcbnew,5.1.5-52549c5~86~ubuntu19.04.1*
G04 #@! TF.CreationDate,2020-12-11T00:42:32+01:00*
G04 #@! TF.ProjectId,jlink-tagConnect-adapter-v3,6a6c696e-6b2d-4746-9167-436f6e6e6563,rev?*
G04 #@! TF.SameCoordinates,Original*
G04 #@! TF.FileFunction,Copper,L1,Top*
G04 #@! TF.FilePolarity,Positive*
%FSLAX46Y46*%
G04 Gerber Fmt 4.6, Leading zero omitted, Abs format (unit mm)*
G04 Created by KiCad (PCBNEW 5.1.5-52549c5~86~ubuntu19.04.1) date 2020-12-11 00:42:32*
%MOMM*%
%LPD*%
G04 APERTURE LIST*
%ADD10C,0.200000*%
%ADD11O,1.700000X1.700000*%
%ADD12R,1.700000X1.700000*%
%ADD13O,1.000000X1.000000*%
%ADD14R,1.000000X1.000000*%
%ADD15O,1.727200X1.727200*%
%ADD16R,1.727200X1.727200*%
%ADD17C,1.400000*%
%ADD18C,0.800000*%
%ADD19C,0.762000*%
%ADD20C,0.254000*%
G04 APERTURE END LIST*
D10*
X102984095Y-94337142D02*
X103031714Y-94384761D01*
X102984095Y-94432380D01*
X102936476Y-94384761D01*
X102984095Y-94337142D01*
X102984095Y-94432380D01*
X103460285Y-94432380D02*
X103460285Y-93432380D01*
X103460285Y-93813333D02*
X103555523Y-93765714D01*
X103746000Y-93765714D01*
X103841238Y-93813333D01*
X103888857Y-93860952D01*
X103936476Y-93956190D01*
X103936476Y-94241904D01*
X103888857Y-94337142D01*
X103841238Y-94384761D01*
X103746000Y-94432380D01*
X103555523Y-94432380D01*
X103460285Y-94384761D01*
X104365047Y-94432380D02*
X104365047Y-93765714D01*
X104365047Y-93956190D02*
X104412666Y-93860952D01*
X104460285Y-93813333D01*
X104555523Y-93765714D01*
X104650761Y-93765714D01*
X105365047Y-94384761D02*
X105269809Y-94432380D01*
X105079333Y-94432380D01*
X104984095Y-94384761D01*
X104936476Y-94289523D01*
X104936476Y-93908571D01*
X104984095Y-93813333D01*
X105079333Y-93765714D01*
X105269809Y-93765714D01*
X105365047Y-93813333D01*
X105412666Y-93908571D01*
X105412666Y-94003809D01*
X104936476Y-94099047D01*
X106269809Y-94384761D02*
X106174571Y-94432380D01*
X105984095Y-94432380D01*
X105888857Y-94384761D01*
X105841238Y-94337142D01*
X105793619Y-94241904D01*
X105793619Y-93956190D01*
X105841238Y-93860952D01*
X105888857Y-93813333D01*
X105984095Y-93765714D01*
X106174571Y-93765714D01*
X106269809Y-93813333D01*
X106698380Y-94432380D02*
X106698380Y-93432380D01*
X107126952Y-94432380D02*
X107126952Y-93908571D01*
X107079333Y-93813333D01*
X106984095Y-93765714D01*
X106841238Y-93765714D01*
X106746000Y-93813333D01*
X106698380Y-93860952D01*
X107460285Y-93765714D02*
X107841238Y-93765714D01*
X107603142Y-93432380D02*
X107603142Y-94289523D01*
X107650761Y-94384761D01*
X107746000Y-94432380D01*
X107841238Y-94432380D01*
X108079333Y-93765714D02*
X108317428Y-94432380D01*
X108555523Y-93765714D01*
X109317428Y-94384761D02*
X109222190Y-94432380D01*
X109031714Y-94432380D01*
X108936476Y-94384761D01*
X108888857Y-94289523D01*
X108888857Y-93908571D01*
X108936476Y-93813333D01*
X109031714Y-93765714D01*
X109222190Y-93765714D01*
X109317428Y-93813333D01*
X109365047Y-93908571D01*
X109365047Y-94003809D01*
X108888857Y-94099047D01*
X109793619Y-94337142D02*
X109841238Y-94384761D01*
X109793619Y-94432380D01*
X109746000Y-94384761D01*
X109793619Y-94337142D01*
X109793619Y-94432380D01*
X110269809Y-94432380D02*
X110269809Y-93432380D01*
X110269809Y-93813333D02*
X110365047Y-93765714D01*
X110555523Y-93765714D01*
X110650761Y-93813333D01*
X110698380Y-93860952D01*
X110746000Y-93956190D01*
X110746000Y-94241904D01*
X110698380Y-94337142D01*
X110650761Y-94384761D01*
X110555523Y-94432380D01*
X110365047Y-94432380D01*
X110269809Y-94384761D01*
X111555523Y-94384761D02*
X111460285Y-94432380D01*
X111269809Y-94432380D01*
X111174571Y-94384761D01*
X111126952Y-94289523D01*
X111126952Y-93908571D01*
X111174571Y-93813333D01*
X111269809Y-93765714D01*
X111460285Y-93765714D01*
X111555523Y-93813333D01*
X111603142Y-93908571D01*
X111603142Y-94003809D01*
X111126952Y-94099047D01*
D11*
X109220000Y-107950000D03*
D12*
X106680000Y-107950000D03*
D13*
X131445000Y-104140000D03*
X132715000Y-104140000D03*
X131445000Y-105410000D03*
X132715000Y-105410000D03*
X131445000Y-106680000D03*
X132715000Y-106680000D03*
X131445000Y-107950000D03*
X132715000Y-107950000D03*
X131445000Y-109220000D03*
D14*
X132715000Y-109220000D03*
D15*
X120015000Y-101600000D03*
X122555000Y-101600000D03*
X120015000Y-104140000D03*
X122555000Y-104140000D03*
X120015000Y-106680000D03*
X122555000Y-106680000D03*
X120015000Y-109220000D03*
X122555000Y-109220000D03*
X120015000Y-111760000D03*
D16*
X122555000Y-111760000D03*
D11*
X91440000Y-118110000D03*
X93980000Y-118110000D03*
X91440000Y-115570000D03*
X93980000Y-115570000D03*
X91440000Y-113030000D03*
X93980000Y-113030000D03*
X91440000Y-110490000D03*
X93980000Y-110490000D03*
X91440000Y-107950000D03*
X93980000Y-107950000D03*
X91440000Y-105410000D03*
X93980000Y-105410000D03*
X91440000Y-102870000D03*
X93980000Y-102870000D03*
X91440000Y-100330000D03*
X93980000Y-100330000D03*
X91440000Y-97790000D03*
X93980000Y-97790000D03*
X91440000Y-95250000D03*
D12*
X93980000Y-95250000D03*
D11*
X102235000Y-113030000D03*
X102235000Y-115570000D03*
D12*
X102235000Y-118110000D03*
D11*
X122555000Y-119380000D03*
D12*
X120015000Y-119380000D03*
D11*
X122555000Y-93980000D03*
D12*
X120015000Y-93980000D03*
D11*
X109220000Y-118110000D03*
X109220000Y-115570000D03*
D12*
X109220000Y-113030000D03*
D11*
X106680000Y-97790000D03*
X106680000Y-100330000D03*
D12*
X106680000Y-102870000D03*
D11*
X102235000Y-97790000D03*
X102235000Y-100330000D03*
D12*
X102235000Y-102870000D03*
D17*
X136525000Y-107950000D03*
X128270000Y-109220000D03*
X128270000Y-116205000D03*
D18*
X97790000Y-111125000D03*
X97790000Y-104140000D03*
X95250000Y-101600000D03*
X95250000Y-106680000D03*
D17*
X104140000Y-109855000D03*
X96520000Y-109855000D03*
D18*
X128270000Y-104140000D03*
D17*
X125095000Y-113665000D03*
D19*
X132715000Y-107950000D02*
X136525000Y-107950000D01*
X128270000Y-109220000D02*
X128270000Y-116205000D01*
X93980000Y-118110000D02*
X102870000Y-118110000D01*
X102235000Y-118110000D02*
X109220000Y-118110000D01*
D20*
X93980000Y-115570000D02*
X97155000Y-115570000D01*
X97155000Y-115570000D02*
X97790000Y-114935000D01*
X97790000Y-114935000D02*
X97790000Y-111125000D01*
X97790000Y-111125000D02*
X97790000Y-111125000D01*
X99060000Y-102870000D02*
X102235000Y-102870000D01*
X97790000Y-104140000D02*
X99060000Y-102870000D01*
X95885000Y-102235000D02*
X96520000Y-101600000D01*
X95885000Y-103505000D02*
X95885000Y-102235000D01*
X92710000Y-111760000D02*
X92710000Y-104775000D01*
X93345000Y-104140000D02*
X95250000Y-104140000D01*
X96520000Y-101600000D02*
X120015000Y-101600000D01*
X95250000Y-104140000D02*
X95885000Y-103505000D01*
X93980000Y-113030000D02*
X92710000Y-111760000D01*
X92710000Y-104775000D02*
X93345000Y-104140000D01*
X96520000Y-107950000D02*
X106680000Y-107950000D01*
X93980000Y-110490000D02*
X96520000Y-107950000D01*
X96520000Y-97790000D02*
X102235000Y-97790000D01*
X95885000Y-98425000D02*
X96520000Y-97790000D01*
X95885000Y-100965000D02*
X95885000Y-98425000D01*
X95250000Y-101600000D02*
X95885000Y-100965000D01*
X118110000Y-109220000D02*
X120015000Y-109220000D01*
X117475000Y-108585000D02*
X118110000Y-109220000D01*
X117475000Y-106680000D02*
X117475000Y-108585000D01*
X93980000Y-105410000D02*
X116205000Y-105410000D01*
X116205000Y-105410000D02*
X117475000Y-106680000D01*
X118110000Y-111760000D02*
X120015000Y-111760000D01*
X116840000Y-107950000D02*
X116840000Y-110490000D01*
X116840000Y-110490000D02*
X118110000Y-111760000D01*
X95250000Y-106680000D02*
X115570000Y-106680000D01*
X115570000Y-106680000D02*
X116840000Y-107950000D01*
X120015000Y-94932500D02*
X120015000Y-93980000D01*
X92710000Y-99060000D02*
X92710000Y-97155000D01*
X92710000Y-97155000D02*
X93345000Y-96520000D01*
X95885000Y-95885000D02*
X119062500Y-95885000D01*
X93345000Y-96520000D02*
X95250000Y-96520000D01*
X93980000Y-100330000D02*
X92710000Y-99060000D01*
X119062500Y-95885000D02*
X120015000Y-94932500D01*
X95250000Y-96520000D02*
X95885000Y-95885000D01*
X106680000Y-97155000D02*
X106680000Y-97790000D01*
X106045000Y-96520000D02*
X106680000Y-97155000D01*
X96520000Y-96520000D02*
X106045000Y-96520000D01*
X93980000Y-97790000D02*
X95250000Y-97790000D01*
X95250000Y-97790000D02*
X96520000Y-96520000D01*
D19*
X104140000Y-109855000D02*
X104140000Y-109855000D01*
X114935000Y-119380000D02*
X120015000Y-119380000D01*
X113665000Y-118110000D02*
X114935000Y-119380000D01*
X113665000Y-111125000D02*
X113665000Y-118110000D01*
X104140000Y-109855000D02*
X112395000Y-109855000D01*
X112395000Y-109855000D02*
X113665000Y-111125000D01*
X97790000Y-109855000D02*
X96593009Y-109855000D01*
X104140000Y-109855000D02*
X97790000Y-109855000D01*
D20*
X121285000Y-100330000D02*
X122555000Y-101600000D01*
X106680000Y-100330000D02*
X121285000Y-100330000D01*
X121285000Y-105410000D02*
X123825000Y-105410000D01*
X123825000Y-105410000D02*
X125095000Y-104140000D01*
X124460000Y-93980000D02*
X122555000Y-93980000D01*
X120015000Y-104140000D02*
X121285000Y-105410000D01*
X125095000Y-104140000D02*
X125095000Y-94615000D01*
X125095000Y-94615000D02*
X124460000Y-93980000D01*
X125095000Y-104140000D02*
X126365000Y-105410000D01*
X126365000Y-105410000D02*
X127000000Y-105410000D01*
X130130000Y-105410000D02*
X127000000Y-105410000D01*
X127000000Y-105410000D02*
X126682500Y-105410000D01*
X130130000Y-105410000D02*
X131445000Y-105410000D01*
X102235000Y-100330000D02*
X102870000Y-100330000D01*
X122555000Y-104140000D02*
X123190000Y-104140000D01*
X103505000Y-99060000D02*
X102235000Y-100330000D01*
X123825000Y-104140000D02*
X124460000Y-103505000D01*
X122555000Y-104140000D02*
X123825000Y-104140000D01*
X124460000Y-103505000D02*
X124460000Y-100330000D01*
X124460000Y-100330000D02*
X123190000Y-99060000D01*
X123190000Y-99060000D02*
X103505000Y-99060000D01*
X133350000Y-105410000D02*
X132715000Y-105410000D01*
X133985000Y-104775000D02*
X133350000Y-105410000D01*
X128270000Y-104140000D02*
X128270000Y-103505000D01*
X128270000Y-103505000D02*
X128905000Y-102870000D01*
X128905000Y-102870000D02*
X133350000Y-102870000D01*
X133350000Y-102870000D02*
X133985000Y-103505000D01*
X133985000Y-103505000D02*
X133985000Y-104775000D01*
D19*
X124142500Y-106680000D02*
X122555000Y-106680000D01*
X125095000Y-107632500D02*
X124142500Y-106680000D01*
X123825000Y-121285000D02*
X125095000Y-120015000D01*
X109220000Y-115570000D02*
X110490000Y-115570000D01*
X110490000Y-115570000D02*
X111760000Y-116840000D01*
X111760000Y-120015000D02*
X113030000Y-121285000D01*
X113030000Y-121285000D02*
X123825000Y-121285000D01*
X111760000Y-116840000D02*
X111760000Y-120015000D01*
X125095000Y-114300000D02*
X125095000Y-107632500D01*
X125095000Y-120015000D02*
X125095000Y-114300000D01*
X122555000Y-119380000D02*
X122555000Y-111760000D01*
D20*
X114300000Y-107950000D02*
X109220000Y-107950000D01*
X115570000Y-109220000D02*
X114300000Y-107950000D01*
X115570000Y-112395000D02*
X115570000Y-109220000D01*
X120015000Y-106680000D02*
X121285000Y-107950000D01*
X116205000Y-113030000D02*
X115570000Y-112395000D01*
X121285000Y-107950000D02*
X121285000Y-112395000D01*
X121285000Y-112395000D02*
X120650000Y-113030000D01*
X120650000Y-113030000D02*
X116205000Y-113030000D01*
M02*
