G04 #@! TF.GenerationSoftware,KiCad,Pcbnew,5.1.5-52549c5~86~ubuntu19.04.1*
G04 #@! TF.CreationDate,2020-12-26T14:34:18+01:00*
G04 #@! TF.ProjectId,jlink-tagConnect-adapter-v3,6a6c696e-6b2d-4746-9167-436f6e6e6563,rev?*
G04 #@! TF.SameCoordinates,Original*
G04 #@! TF.FileFunction,Legend,Top*
G04 #@! TF.FilePolarity,Positive*
%FSLAX46Y46*%
G04 Gerber Fmt 4.6, Leading zero omitted, Abs format (unit mm)*
G04 Created by KiCad (PCBNEW 5.1.5-52549c5~86~ubuntu19.04.1) date 2020-12-26 14:34:18*
%MOMM*%
%LPD*%
G04 APERTURE LIST*
%ADD10C,0.150000*%
%ADD11C,0.120000*%
%ADD12C,0.200000*%
G04 APERTURE END LIST*
D10*
X117308380Y-111299047D02*
X118022666Y-111299047D01*
X118165523Y-111346666D01*
X118260761Y-111441904D01*
X118308380Y-111584761D01*
X118308380Y-111680000D01*
X118308380Y-110346666D02*
X118308380Y-110822857D01*
X117308380Y-110822857D01*
X118213142Y-109441904D02*
X118260761Y-109489523D01*
X118308380Y-109632380D01*
X118308380Y-109727619D01*
X118260761Y-109870476D01*
X118165523Y-109965714D01*
X118070285Y-110013333D01*
X117879809Y-110060952D01*
X117736952Y-110060952D01*
X117546476Y-110013333D01*
X117451238Y-109965714D01*
X117356000Y-109870476D01*
X117308380Y-109727619D01*
X117308380Y-109632380D01*
X117356000Y-109489523D01*
X117403619Y-109441904D01*
X117308380Y-108727619D02*
X118022666Y-108727619D01*
X118165523Y-108775238D01*
X118260761Y-108870476D01*
X118308380Y-109013333D01*
X118308380Y-109108571D01*
X118308380Y-107775238D02*
X118308380Y-108251428D01*
X117308380Y-108251428D01*
X118213142Y-106870476D02*
X118260761Y-106918095D01*
X118308380Y-107060952D01*
X118308380Y-107156190D01*
X118260761Y-107299047D01*
X118165523Y-107394285D01*
X118070285Y-107441904D01*
X117879809Y-107489523D01*
X117736952Y-107489523D01*
X117546476Y-107441904D01*
X117451238Y-107394285D01*
X117356000Y-107299047D01*
X117308380Y-107156190D01*
X117308380Y-107060952D01*
X117356000Y-106918095D01*
X117403619Y-106870476D01*
X117308380Y-106156190D02*
X118022666Y-106156190D01*
X118165523Y-106203809D01*
X118260761Y-106299047D01*
X118308380Y-106441904D01*
X118308380Y-106537142D01*
X118308380Y-105203809D02*
X118308380Y-105680000D01*
X117308380Y-105680000D01*
X118213142Y-104299047D02*
X118260761Y-104346666D01*
X118308380Y-104489523D01*
X118308380Y-104584761D01*
X118260761Y-104727619D01*
X118165523Y-104822857D01*
X118070285Y-104870476D01*
X117879809Y-104918095D01*
X117736952Y-104918095D01*
X117546476Y-104870476D01*
X117451238Y-104822857D01*
X117356000Y-104727619D01*
X117308380Y-104584761D01*
X117308380Y-104489523D01*
X117356000Y-104346666D01*
X117403619Y-104299047D01*
X117308380Y-103584761D02*
X118022666Y-103584761D01*
X118165523Y-103632380D01*
X118260761Y-103727619D01*
X118308380Y-103870476D01*
X118308380Y-103965714D01*
X118308380Y-102632380D02*
X118308380Y-103108571D01*
X117308380Y-103108571D01*
X118213142Y-101727619D02*
X118260761Y-101775238D01*
X118308380Y-101918095D01*
X118308380Y-102013333D01*
X118260761Y-102156190D01*
X118165523Y-102251428D01*
X118070285Y-102299047D01*
X117879809Y-102346666D01*
X117736952Y-102346666D01*
X117546476Y-102299047D01*
X117451238Y-102251428D01*
X117356000Y-102156190D01*
X117308380Y-102013333D01*
X117308380Y-101918095D01*
X117356000Y-101775238D01*
X117403619Y-101727619D01*
D11*
X126873000Y-120650000D02*
X126873000Y-113030000D01*
X126873000Y-92710000D02*
X126873000Y-100330000D01*
D12*
X97697666Y-94432380D02*
X97697666Y-93908571D01*
X97650047Y-93813333D01*
X97554809Y-93765714D01*
X97364333Y-93765714D01*
X97269095Y-93813333D01*
X97697666Y-94384761D02*
X97602428Y-94432380D01*
X97364333Y-94432380D01*
X97269095Y-94384761D01*
X97221476Y-94289523D01*
X97221476Y-94194285D01*
X97269095Y-94099047D01*
X97364333Y-94051428D01*
X97602428Y-94051428D01*
X97697666Y-94003809D01*
X98602428Y-94432380D02*
X98602428Y-93432380D01*
X98602428Y-94384761D02*
X98507190Y-94432380D01*
X98316714Y-94432380D01*
X98221476Y-94384761D01*
X98173857Y-94337142D01*
X98126238Y-94241904D01*
X98126238Y-93956190D01*
X98173857Y-93860952D01*
X98221476Y-93813333D01*
X98316714Y-93765714D01*
X98507190Y-93765714D01*
X98602428Y-93813333D01*
X99507190Y-94432380D02*
X99507190Y-93908571D01*
X99459571Y-93813333D01*
X99364333Y-93765714D01*
X99173857Y-93765714D01*
X99078619Y-93813333D01*
X99507190Y-94384761D02*
X99411952Y-94432380D01*
X99173857Y-94432380D01*
X99078619Y-94384761D01*
X99031000Y-94289523D01*
X99031000Y-94194285D01*
X99078619Y-94099047D01*
X99173857Y-94051428D01*
X99411952Y-94051428D01*
X99507190Y-94003809D01*
X99983380Y-93765714D02*
X99983380Y-94765714D01*
X99983380Y-93813333D02*
X100078619Y-93765714D01*
X100269095Y-93765714D01*
X100364333Y-93813333D01*
X100411952Y-93860952D01*
X100459571Y-93956190D01*
X100459571Y-94241904D01*
X100411952Y-94337142D01*
X100364333Y-94384761D01*
X100269095Y-94432380D01*
X100078619Y-94432380D01*
X99983380Y-94384761D01*
X100745285Y-93765714D02*
X101126238Y-93765714D01*
X100888142Y-93432380D02*
X100888142Y-94289523D01*
X100935761Y-94384761D01*
X101031000Y-94432380D01*
X101126238Y-94432380D01*
X101840523Y-94384761D02*
X101745285Y-94432380D01*
X101554809Y-94432380D01*
X101459571Y-94384761D01*
X101411952Y-94289523D01*
X101411952Y-93908571D01*
X101459571Y-93813333D01*
X101554809Y-93765714D01*
X101745285Y-93765714D01*
X101840523Y-93813333D01*
X101888142Y-93908571D01*
X101888142Y-94003809D01*
X101411952Y-94099047D01*
X102316714Y-94432380D02*
X102316714Y-93765714D01*
X102316714Y-93956190D02*
X102364333Y-93860952D01*
X102411952Y-93813333D01*
X102507190Y-93765714D01*
X102602428Y-93765714D01*
D11*
X112395000Y-92710000D02*
X96520000Y-92710000D01*
X112395000Y-95250000D02*
X112395000Y-92710000D01*
X96520000Y-95250000D02*
X112395000Y-95250000D01*
X96520000Y-92710000D02*
X96520000Y-95250000D01*
D10*
X111889166Y-107402380D02*
X111698690Y-107402380D01*
X111603452Y-107450000D01*
X111555833Y-107497619D01*
X111460595Y-107640476D01*
X111412976Y-107830952D01*
X111412976Y-108211904D01*
X111460595Y-108307142D01*
X111508214Y-108354761D01*
X111603452Y-108402380D01*
X111793928Y-108402380D01*
X111889166Y-108354761D01*
X111936785Y-108307142D01*
X111984404Y-108211904D01*
X111984404Y-107973809D01*
X111936785Y-107878571D01*
X111889166Y-107830952D01*
X111793928Y-107783333D01*
X111603452Y-107783333D01*
X111508214Y-107830952D01*
X111460595Y-107878571D01*
X111412976Y-107973809D01*
X97867976Y-108354761D02*
X98010833Y-108402380D01*
X98248928Y-108402380D01*
X98344166Y-108354761D01*
X98391785Y-108307142D01*
X98439404Y-108211904D01*
X98439404Y-108116666D01*
X98391785Y-108021428D01*
X98344166Y-107973809D01*
X98248928Y-107926190D01*
X98058452Y-107878571D01*
X97963214Y-107830952D01*
X97915595Y-107783333D01*
X97867976Y-107688095D01*
X97867976Y-107592857D01*
X97915595Y-107497619D01*
X97963214Y-107450000D01*
X98058452Y-107402380D01*
X98296547Y-107402380D01*
X98439404Y-107450000D01*
X98772738Y-107402380D02*
X99010833Y-108402380D01*
X99201309Y-107688095D01*
X99391785Y-108402380D01*
X99629880Y-107402380D01*
X100201309Y-107402380D02*
X100391785Y-107402380D01*
X100487023Y-107450000D01*
X100582261Y-107545238D01*
X100629880Y-107735714D01*
X100629880Y-108069047D01*
X100582261Y-108259523D01*
X100487023Y-108354761D01*
X100391785Y-108402380D01*
X100201309Y-108402380D01*
X100106071Y-108354761D01*
X100010833Y-108259523D01*
X99963214Y-108069047D01*
X99963214Y-107735714D01*
X100010833Y-107545238D01*
X100106071Y-107450000D01*
X100201309Y-107402380D01*
X101772738Y-107354761D02*
X100915595Y-108640476D01*
X101963214Y-107402380D02*
X102534642Y-107402380D01*
X102248928Y-108402380D02*
X102248928Y-107402380D01*
X102867976Y-108402380D02*
X102867976Y-107402380D01*
X103106071Y-107402380D01*
X103248928Y-107450000D01*
X103344166Y-107545238D01*
X103391785Y-107640476D01*
X103439404Y-107830952D01*
X103439404Y-107973809D01*
X103391785Y-108164285D01*
X103344166Y-108259523D01*
X103248928Y-108354761D01*
X103106071Y-108402380D01*
X102867976Y-108402380D01*
X104058452Y-107402380D02*
X104248928Y-107402380D01*
X104344166Y-107450000D01*
X104439404Y-107545238D01*
X104487023Y-107735714D01*
X104487023Y-108069047D01*
X104439404Y-108259523D01*
X104344166Y-108354761D01*
X104248928Y-108402380D01*
X104058452Y-108402380D01*
X103963214Y-108354761D01*
X103867976Y-108259523D01*
X103820357Y-108069047D01*
X103820357Y-107735714D01*
X103867976Y-107545238D01*
X103963214Y-107450000D01*
X104058452Y-107402380D01*
D11*
X136652000Y-120650000D02*
X126873000Y-120650000D01*
X136652000Y-113030000D02*
X136652000Y-120650000D01*
X126873000Y-113030000D02*
X136652000Y-113030000D01*
X136652000Y-100330000D02*
X126873000Y-100330000D01*
X136652000Y-92710000D02*
X136652000Y-100330000D01*
X126873000Y-92710000D02*
X136652000Y-92710000D01*
X127992333Y-113761904D02*
X127839952Y-113761904D01*
X127763761Y-113800000D01*
X127725666Y-113838095D01*
X127649476Y-113952380D01*
X127611380Y-114104761D01*
X127611380Y-114409523D01*
X127649476Y-114485714D01*
X127687571Y-114523809D01*
X127763761Y-114561904D01*
X127916142Y-114561904D01*
X127992333Y-114523809D01*
X128030428Y-114485714D01*
X128068523Y-114409523D01*
X128068523Y-114219047D01*
X128030428Y-114142857D01*
X127992333Y-114104761D01*
X127916142Y-114066666D01*
X127763761Y-114066666D01*
X127687571Y-114104761D01*
X127649476Y-114142857D01*
X127611380Y-114219047D01*
X128411380Y-114485714D02*
X128449476Y-114523809D01*
X128411380Y-114561904D01*
X128373285Y-114523809D01*
X128411380Y-114485714D01*
X128411380Y-114561904D01*
X128411380Y-114066666D02*
X128449476Y-114104761D01*
X128411380Y-114142857D01*
X128373285Y-114104761D01*
X128411380Y-114066666D01*
X128411380Y-114142857D01*
X129363761Y-114523809D02*
X129478047Y-114561904D01*
X129668523Y-114561904D01*
X129744714Y-114523809D01*
X129782809Y-114485714D01*
X129820904Y-114409523D01*
X129820904Y-114333333D01*
X129782809Y-114257142D01*
X129744714Y-114219047D01*
X129668523Y-114180952D01*
X129516142Y-114142857D01*
X129439952Y-114104761D01*
X129401857Y-114066666D01*
X129363761Y-113990476D01*
X129363761Y-113914285D01*
X129401857Y-113838095D01*
X129439952Y-113800000D01*
X129516142Y-113761904D01*
X129706619Y-113761904D01*
X129820904Y-113800000D01*
X130087571Y-113761904D02*
X130278047Y-114561904D01*
X130430428Y-113990476D01*
X130582809Y-114561904D01*
X130773285Y-113761904D01*
X131230428Y-113761904D02*
X131382809Y-113761904D01*
X131459000Y-113800000D01*
X131535190Y-113876190D01*
X131573285Y-114028571D01*
X131573285Y-114295238D01*
X131535190Y-114447619D01*
X131459000Y-114523809D01*
X131382809Y-114561904D01*
X131230428Y-114561904D01*
X131154238Y-114523809D01*
X131078047Y-114447619D01*
X131039952Y-114295238D01*
X131039952Y-114028571D01*
X131078047Y-113876190D01*
X131154238Y-113800000D01*
X131230428Y-113761904D01*
X132487571Y-113723809D02*
X131801857Y-114752380D01*
X132639952Y-113761904D02*
X133097095Y-113761904D01*
X132868523Y-114561904D02*
X132868523Y-113761904D01*
X133363761Y-114561904D02*
X133363761Y-113761904D01*
X133554238Y-113761904D01*
X133668523Y-113800000D01*
X133744714Y-113876190D01*
X133782809Y-113952380D01*
X133820904Y-114104761D01*
X133820904Y-114219047D01*
X133782809Y-114371428D01*
X133744714Y-114447619D01*
X133668523Y-114523809D01*
X133554238Y-114561904D01*
X133363761Y-114561904D01*
X134316142Y-113761904D02*
X134468523Y-113761904D01*
X134544714Y-113800000D01*
X134620904Y-113876190D01*
X134659000Y-114028571D01*
X134659000Y-114295238D01*
X134620904Y-114447619D01*
X134544714Y-114523809D01*
X134468523Y-114561904D01*
X134316142Y-114561904D01*
X134239952Y-114523809D01*
X134163761Y-114447619D01*
X134125666Y-114295238D01*
X134125666Y-114028571D01*
X134163761Y-113876190D01*
X134239952Y-113800000D01*
X134316142Y-113761904D01*
X127573285Y-115081904D02*
X128106619Y-115081904D01*
X127763761Y-115881904D01*
X128411380Y-115805714D02*
X128449476Y-115843809D01*
X128411380Y-115881904D01*
X128373285Y-115843809D01*
X128411380Y-115805714D01*
X128411380Y-115881904D01*
X128411380Y-115386666D02*
X128449476Y-115424761D01*
X128411380Y-115462857D01*
X128373285Y-115424761D01*
X128411380Y-115386666D01*
X128411380Y-115462857D01*
X129401857Y-115348571D02*
X129401857Y-116034285D01*
X129363761Y-116110476D01*
X129287571Y-116148571D01*
X129249476Y-116148571D01*
X129401857Y-115081904D02*
X129363761Y-115120000D01*
X129401857Y-115158095D01*
X129439952Y-115120000D01*
X129401857Y-115081904D01*
X129401857Y-115158095D01*
X129897095Y-115881904D02*
X129820904Y-115843809D01*
X129782809Y-115767619D01*
X129782809Y-115081904D01*
X130201857Y-115805714D02*
X130239952Y-115843809D01*
X130201857Y-115881904D01*
X130163761Y-115843809D01*
X130201857Y-115805714D01*
X130201857Y-115881904D01*
X131039952Y-115881904D02*
X130773285Y-115500952D01*
X130582809Y-115881904D02*
X130582809Y-115081904D01*
X130887571Y-115081904D01*
X130963761Y-115120000D01*
X131001857Y-115158095D01*
X131039952Y-115234285D01*
X131039952Y-115348571D01*
X131001857Y-115424761D01*
X130963761Y-115462857D01*
X130887571Y-115500952D01*
X130582809Y-115500952D01*
X131306619Y-115081904D02*
X131839952Y-115881904D01*
X131839952Y-115081904D02*
X131306619Y-115881904D01*
X132716142Y-115043809D02*
X132030428Y-116072380D01*
X133439952Y-115881904D02*
X133173285Y-115500952D01*
X132982809Y-115881904D02*
X132982809Y-115081904D01*
X133287571Y-115081904D01*
X133363761Y-115120000D01*
X133401857Y-115158095D01*
X133439952Y-115234285D01*
X133439952Y-115348571D01*
X133401857Y-115424761D01*
X133363761Y-115462857D01*
X133287571Y-115500952D01*
X132982809Y-115500952D01*
X133668523Y-115081904D02*
X134125666Y-115081904D01*
X133897095Y-115881904D02*
X133897095Y-115081904D01*
X134849476Y-115805714D02*
X134811380Y-115843809D01*
X134697095Y-115881904D01*
X134620904Y-115881904D01*
X134506619Y-115843809D01*
X134430428Y-115767619D01*
X134392333Y-115691428D01*
X134354238Y-115539047D01*
X134354238Y-115424761D01*
X134392333Y-115272380D01*
X134430428Y-115196190D01*
X134506619Y-115120000D01*
X134620904Y-115081904D01*
X134697095Y-115081904D01*
X134811380Y-115120000D01*
X134849476Y-115158095D01*
X135192333Y-115881904D02*
X135192333Y-115081904D01*
X135649476Y-115881904D02*
X135306619Y-115424761D01*
X135649476Y-115081904D02*
X135192333Y-115539047D01*
X127763761Y-116744761D02*
X127687571Y-116706666D01*
X127649476Y-116668571D01*
X127611380Y-116592380D01*
X127611380Y-116554285D01*
X127649476Y-116478095D01*
X127687571Y-116440000D01*
X127763761Y-116401904D01*
X127916142Y-116401904D01*
X127992333Y-116440000D01*
X128030428Y-116478095D01*
X128068523Y-116554285D01*
X128068523Y-116592380D01*
X128030428Y-116668571D01*
X127992333Y-116706666D01*
X127916142Y-116744761D01*
X127763761Y-116744761D01*
X127687571Y-116782857D01*
X127649476Y-116820952D01*
X127611380Y-116897142D01*
X127611380Y-117049523D01*
X127649476Y-117125714D01*
X127687571Y-117163809D01*
X127763761Y-117201904D01*
X127916142Y-117201904D01*
X127992333Y-117163809D01*
X128030428Y-117125714D01*
X128068523Y-117049523D01*
X128068523Y-116897142D01*
X128030428Y-116820952D01*
X127992333Y-116782857D01*
X127916142Y-116744761D01*
X128411380Y-117125714D02*
X128449476Y-117163809D01*
X128411380Y-117201904D01*
X128373285Y-117163809D01*
X128411380Y-117125714D01*
X128411380Y-117201904D01*
X128411380Y-116706666D02*
X128449476Y-116744761D01*
X128411380Y-116782857D01*
X128373285Y-116744761D01*
X128411380Y-116706666D01*
X128411380Y-116782857D01*
X129401857Y-116668571D02*
X129401857Y-117354285D01*
X129363761Y-117430476D01*
X129287571Y-117468571D01*
X129249476Y-117468571D01*
X129401857Y-116401904D02*
X129363761Y-116440000D01*
X129401857Y-116478095D01*
X129439952Y-116440000D01*
X129401857Y-116401904D01*
X129401857Y-116478095D01*
X129897095Y-117201904D02*
X129820904Y-117163809D01*
X129782809Y-117087619D01*
X129782809Y-116401904D01*
X130201857Y-117125714D02*
X130239952Y-117163809D01*
X130201857Y-117201904D01*
X130163761Y-117163809D01*
X130201857Y-117125714D01*
X130201857Y-117201904D01*
X130468523Y-116401904D02*
X130925666Y-116401904D01*
X130697095Y-117201904D02*
X130697095Y-116401904D01*
X131116142Y-116401904D02*
X131649476Y-117201904D01*
X131649476Y-116401904D02*
X131116142Y-117201904D01*
X132525666Y-116363809D02*
X131839952Y-117392380D01*
X132678047Y-116401904D02*
X133135190Y-116401904D01*
X132906619Y-117201904D02*
X132906619Y-116401904D01*
X133401857Y-117201904D02*
X133401857Y-116401904D01*
X133592333Y-116401904D01*
X133706619Y-116440000D01*
X133782809Y-116516190D01*
X133820904Y-116592380D01*
X133859000Y-116744761D01*
X133859000Y-116859047D01*
X133820904Y-117011428D01*
X133782809Y-117087619D01*
X133706619Y-117163809D01*
X133592333Y-117201904D01*
X133401857Y-117201904D01*
X134201857Y-117201904D02*
X134201857Y-116401904D01*
X127687571Y-118521904D02*
X127839952Y-118521904D01*
X127916142Y-118483809D01*
X127954238Y-118445714D01*
X128030428Y-118331428D01*
X128068523Y-118179047D01*
X128068523Y-117874285D01*
X128030428Y-117798095D01*
X127992333Y-117760000D01*
X127916142Y-117721904D01*
X127763761Y-117721904D01*
X127687571Y-117760000D01*
X127649476Y-117798095D01*
X127611380Y-117874285D01*
X127611380Y-118064761D01*
X127649476Y-118140952D01*
X127687571Y-118179047D01*
X127763761Y-118217142D01*
X127916142Y-118217142D01*
X127992333Y-118179047D01*
X128030428Y-118140952D01*
X128068523Y-118064761D01*
X128411380Y-118445714D02*
X128449476Y-118483809D01*
X128411380Y-118521904D01*
X128373285Y-118483809D01*
X128411380Y-118445714D01*
X128411380Y-118521904D01*
X128411380Y-118026666D02*
X128449476Y-118064761D01*
X128411380Y-118102857D01*
X128373285Y-118064761D01*
X128411380Y-118026666D01*
X128411380Y-118102857D01*
X129820904Y-117760000D02*
X129744714Y-117721904D01*
X129630428Y-117721904D01*
X129516142Y-117760000D01*
X129439952Y-117836190D01*
X129401857Y-117912380D01*
X129363761Y-118064761D01*
X129363761Y-118179047D01*
X129401857Y-118331428D01*
X129439952Y-118407619D01*
X129516142Y-118483809D01*
X129630428Y-118521904D01*
X129706619Y-118521904D01*
X129820904Y-118483809D01*
X129859000Y-118445714D01*
X129859000Y-118179047D01*
X129706619Y-118179047D01*
X130201857Y-118521904D02*
X130201857Y-117721904D01*
X130659000Y-118521904D01*
X130659000Y-117721904D01*
X131039952Y-118521904D02*
X131039952Y-117721904D01*
X131230428Y-117721904D01*
X131344714Y-117760000D01*
X131420904Y-117836190D01*
X131459000Y-117912380D01*
X131497095Y-118064761D01*
X131497095Y-118179047D01*
X131459000Y-118331428D01*
X131420904Y-118407619D01*
X131344714Y-118483809D01*
X131230428Y-118521904D01*
X131039952Y-118521904D01*
X132182809Y-118521904D02*
X132182809Y-117721904D01*
X132182809Y-118483809D02*
X132106619Y-118521904D01*
X131954238Y-118521904D01*
X131878047Y-118483809D01*
X131839952Y-118445714D01*
X131801857Y-118369523D01*
X131801857Y-118140952D01*
X131839952Y-118064761D01*
X131878047Y-118026666D01*
X131954238Y-117988571D01*
X132106619Y-117988571D01*
X132182809Y-118026666D01*
X133135190Y-117683809D02*
X132449476Y-118712380D01*
X133211380Y-117428000D02*
X133820904Y-117428000D01*
X133287571Y-117721904D02*
X133744714Y-117721904D01*
X133516142Y-118521904D02*
X133516142Y-117721904D01*
X133820904Y-117428000D02*
X134620904Y-117428000D01*
X134468523Y-118521904D02*
X134201857Y-118140952D01*
X134011380Y-118521904D02*
X134011380Y-117721904D01*
X134316142Y-117721904D01*
X134392333Y-117760000D01*
X134430428Y-117798095D01*
X134468523Y-117874285D01*
X134468523Y-117988571D01*
X134430428Y-118064761D01*
X134392333Y-118102857D01*
X134316142Y-118140952D01*
X134011380Y-118140952D01*
X134620904Y-117428000D02*
X135382809Y-117428000D01*
X134773285Y-118483809D02*
X134887571Y-118521904D01*
X135078047Y-118521904D01*
X135154238Y-118483809D01*
X135192333Y-118445714D01*
X135230428Y-118369523D01*
X135230428Y-118293333D01*
X135192333Y-118217142D01*
X135154238Y-118179047D01*
X135078047Y-118140952D01*
X134925666Y-118102857D01*
X134849476Y-118064761D01*
X134811380Y-118026666D01*
X134773285Y-117950476D01*
X134773285Y-117874285D01*
X134811380Y-117798095D01*
X134849476Y-117760000D01*
X134925666Y-117721904D01*
X135116142Y-117721904D01*
X135230428Y-117760000D01*
X135382809Y-117428000D02*
X135992333Y-117428000D01*
X135459000Y-117721904D02*
X135916142Y-117721904D01*
X135687571Y-118521904D02*
X135687571Y-117721904D01*
X128068523Y-119841904D02*
X127611380Y-119841904D01*
X127839952Y-119841904D02*
X127839952Y-119041904D01*
X127763761Y-119156190D01*
X127687571Y-119232380D01*
X127611380Y-119270476D01*
X128563761Y-119041904D02*
X128639952Y-119041904D01*
X128716142Y-119080000D01*
X128754238Y-119118095D01*
X128792333Y-119194285D01*
X128830428Y-119346666D01*
X128830428Y-119537142D01*
X128792333Y-119689523D01*
X128754238Y-119765714D01*
X128716142Y-119803809D01*
X128639952Y-119841904D01*
X128563761Y-119841904D01*
X128487571Y-119803809D01*
X128449476Y-119765714D01*
X128411380Y-119689523D01*
X128373285Y-119537142D01*
X128373285Y-119346666D01*
X128411380Y-119194285D01*
X128449476Y-119118095D01*
X128487571Y-119080000D01*
X128563761Y-119041904D01*
X129173285Y-119765714D02*
X129211380Y-119803809D01*
X129173285Y-119841904D01*
X129135190Y-119803809D01*
X129173285Y-119765714D01*
X129173285Y-119841904D01*
X129173285Y-119346666D02*
X129211380Y-119384761D01*
X129173285Y-119422857D01*
X129135190Y-119384761D01*
X129173285Y-119346666D01*
X129173285Y-119422857D01*
X129973285Y-118748000D02*
X130773285Y-118748000D01*
X130620904Y-119841904D02*
X130354238Y-119460952D01*
X130163761Y-119841904D02*
X130163761Y-119041904D01*
X130468523Y-119041904D01*
X130544714Y-119080000D01*
X130582809Y-119118095D01*
X130620904Y-119194285D01*
X130620904Y-119308571D01*
X130582809Y-119384761D01*
X130544714Y-119422857D01*
X130468523Y-119460952D01*
X130163761Y-119460952D01*
X130773285Y-118748000D02*
X131497095Y-118748000D01*
X130963761Y-119422857D02*
X131230428Y-119422857D01*
X131344714Y-119841904D02*
X130963761Y-119841904D01*
X130963761Y-119041904D01*
X131344714Y-119041904D01*
X131497095Y-118748000D02*
X132259000Y-118748000D01*
X131649476Y-119803809D02*
X131763761Y-119841904D01*
X131954238Y-119841904D01*
X132030428Y-119803809D01*
X132068523Y-119765714D01*
X132106619Y-119689523D01*
X132106619Y-119613333D01*
X132068523Y-119537142D01*
X132030428Y-119499047D01*
X131954238Y-119460952D01*
X131801857Y-119422857D01*
X131725666Y-119384761D01*
X131687571Y-119346666D01*
X131649476Y-119270476D01*
X131649476Y-119194285D01*
X131687571Y-119118095D01*
X131725666Y-119080000D01*
X131801857Y-119041904D01*
X131992333Y-119041904D01*
X132106619Y-119080000D01*
X132259000Y-118748000D02*
X132982809Y-118748000D01*
X132449476Y-119422857D02*
X132716142Y-119422857D01*
X132830428Y-119841904D02*
X132449476Y-119841904D01*
X132449476Y-119041904D01*
X132830428Y-119041904D01*
X132982809Y-118748000D02*
X133592333Y-118748000D01*
X133059000Y-119041904D02*
X133516142Y-119041904D01*
X133287571Y-119841904D02*
X133287571Y-119041904D01*
X128068523Y-94241904D02*
X127611380Y-94241904D01*
X127839952Y-94241904D02*
X127839952Y-93441904D01*
X127763761Y-93556190D01*
X127687571Y-93632380D01*
X127611380Y-93670476D01*
X128411380Y-94165714D02*
X128449476Y-94203809D01*
X128411380Y-94241904D01*
X128373285Y-94203809D01*
X128411380Y-94165714D01*
X128411380Y-94241904D01*
X128411380Y-93746666D02*
X128449476Y-93784761D01*
X128411380Y-93822857D01*
X128373285Y-93784761D01*
X128411380Y-93746666D01*
X128411380Y-93822857D01*
X129287571Y-93441904D02*
X129554238Y-94241904D01*
X129820904Y-93441904D01*
X129973285Y-93441904D02*
X130430428Y-93441904D01*
X130201857Y-94241904D02*
X130201857Y-93441904D01*
X131154238Y-94241904D02*
X130887571Y-93860952D01*
X130697095Y-94241904D02*
X130697095Y-93441904D01*
X131001857Y-93441904D01*
X131078047Y-93480000D01*
X131116142Y-93518095D01*
X131154238Y-93594285D01*
X131154238Y-93708571D01*
X131116142Y-93784761D01*
X131078047Y-93822857D01*
X131001857Y-93860952D01*
X130697095Y-93860952D01*
X131497095Y-93822857D02*
X131763761Y-93822857D01*
X131878047Y-94241904D02*
X131497095Y-94241904D01*
X131497095Y-93441904D01*
X131878047Y-93441904D01*
X132487571Y-93822857D02*
X132220904Y-93822857D01*
X132220904Y-94241904D02*
X132220904Y-93441904D01*
X132601857Y-93441904D01*
X127611380Y-94838095D02*
X127649476Y-94800000D01*
X127725666Y-94761904D01*
X127916142Y-94761904D01*
X127992333Y-94800000D01*
X128030428Y-94838095D01*
X128068523Y-94914285D01*
X128068523Y-94990476D01*
X128030428Y-95104761D01*
X127573285Y-95561904D01*
X128068523Y-95561904D01*
X128411380Y-95485714D02*
X128449476Y-95523809D01*
X128411380Y-95561904D01*
X128373285Y-95523809D01*
X128411380Y-95485714D01*
X128411380Y-95561904D01*
X128411380Y-95066666D02*
X128449476Y-95104761D01*
X128411380Y-95142857D01*
X128373285Y-95104761D01*
X128411380Y-95066666D01*
X128411380Y-95142857D01*
X129363761Y-95523809D02*
X129478047Y-95561904D01*
X129668523Y-95561904D01*
X129744714Y-95523809D01*
X129782809Y-95485714D01*
X129820904Y-95409523D01*
X129820904Y-95333333D01*
X129782809Y-95257142D01*
X129744714Y-95219047D01*
X129668523Y-95180952D01*
X129516142Y-95142857D01*
X129439952Y-95104761D01*
X129401857Y-95066666D01*
X129363761Y-94990476D01*
X129363761Y-94914285D01*
X129401857Y-94838095D01*
X129439952Y-94800000D01*
X129516142Y-94761904D01*
X129706619Y-94761904D01*
X129820904Y-94800000D01*
X130087571Y-94761904D02*
X130278047Y-95561904D01*
X130430428Y-94990476D01*
X130582809Y-95561904D01*
X130773285Y-94761904D01*
X131078047Y-95561904D02*
X131078047Y-94761904D01*
X131268523Y-94761904D01*
X131382809Y-94800000D01*
X131459000Y-94876190D01*
X131497095Y-94952380D01*
X131535190Y-95104761D01*
X131535190Y-95219047D01*
X131497095Y-95371428D01*
X131459000Y-95447619D01*
X131382809Y-95523809D01*
X131268523Y-95561904D01*
X131078047Y-95561904D01*
X131878047Y-95561904D02*
X131878047Y-94761904D01*
X132411380Y-94761904D02*
X132563761Y-94761904D01*
X132639952Y-94800000D01*
X132716142Y-94876190D01*
X132754238Y-95028571D01*
X132754238Y-95295238D01*
X132716142Y-95447619D01*
X132639952Y-95523809D01*
X132563761Y-95561904D01*
X132411380Y-95561904D01*
X132335190Y-95523809D01*
X132259000Y-95447619D01*
X132220904Y-95295238D01*
X132220904Y-95028571D01*
X132259000Y-94876190D01*
X132335190Y-94800000D01*
X132411380Y-94761904D01*
X133668523Y-94723809D02*
X132982809Y-95752380D01*
X133820904Y-94761904D02*
X134278047Y-94761904D01*
X134049476Y-95561904D02*
X134049476Y-94761904D01*
X134544714Y-95561904D02*
X134544714Y-94761904D01*
X134811380Y-95333333D01*
X135078047Y-94761904D01*
X135078047Y-95561904D01*
X135420904Y-95523809D02*
X135535190Y-95561904D01*
X135725666Y-95561904D01*
X135801857Y-95523809D01*
X135839952Y-95485714D01*
X135878047Y-95409523D01*
X135878047Y-95333333D01*
X135839952Y-95257142D01*
X135801857Y-95219047D01*
X135725666Y-95180952D01*
X135573285Y-95142857D01*
X135497095Y-95104761D01*
X135459000Y-95066666D01*
X135420904Y-94990476D01*
X135420904Y-94914285D01*
X135459000Y-94838095D01*
X135497095Y-94800000D01*
X135573285Y-94761904D01*
X135763761Y-94761904D01*
X135878047Y-94800000D01*
X127573285Y-96081904D02*
X128068523Y-96081904D01*
X127801857Y-96386666D01*
X127916142Y-96386666D01*
X127992333Y-96424761D01*
X128030428Y-96462857D01*
X128068523Y-96539047D01*
X128068523Y-96729523D01*
X128030428Y-96805714D01*
X127992333Y-96843809D01*
X127916142Y-96881904D01*
X127687571Y-96881904D01*
X127611380Y-96843809D01*
X127573285Y-96805714D01*
X128411380Y-96805714D02*
X128449476Y-96843809D01*
X128411380Y-96881904D01*
X128373285Y-96843809D01*
X128411380Y-96805714D01*
X128411380Y-96881904D01*
X128411380Y-96386666D02*
X128449476Y-96424761D01*
X128411380Y-96462857D01*
X128373285Y-96424761D01*
X128411380Y-96386666D01*
X128411380Y-96462857D01*
X129820904Y-96120000D02*
X129744714Y-96081904D01*
X129630428Y-96081904D01*
X129516142Y-96120000D01*
X129439952Y-96196190D01*
X129401857Y-96272380D01*
X129363761Y-96424761D01*
X129363761Y-96539047D01*
X129401857Y-96691428D01*
X129439952Y-96767619D01*
X129516142Y-96843809D01*
X129630428Y-96881904D01*
X129706619Y-96881904D01*
X129820904Y-96843809D01*
X129859000Y-96805714D01*
X129859000Y-96539047D01*
X129706619Y-96539047D01*
X130201857Y-96881904D02*
X130201857Y-96081904D01*
X130659000Y-96881904D01*
X130659000Y-96081904D01*
X131039952Y-96881904D02*
X131039952Y-96081904D01*
X131230428Y-96081904D01*
X131344714Y-96120000D01*
X131420904Y-96196190D01*
X131459000Y-96272380D01*
X131497095Y-96424761D01*
X131497095Y-96539047D01*
X131459000Y-96691428D01*
X131420904Y-96767619D01*
X131344714Y-96843809D01*
X131230428Y-96881904D01*
X131039952Y-96881904D01*
X127992333Y-97668571D02*
X127992333Y-98201904D01*
X127801857Y-97363809D02*
X127611380Y-97935238D01*
X128106619Y-97935238D01*
X128411380Y-98125714D02*
X128449476Y-98163809D01*
X128411380Y-98201904D01*
X128373285Y-98163809D01*
X128411380Y-98125714D01*
X128411380Y-98201904D01*
X128411380Y-97706666D02*
X128449476Y-97744761D01*
X128411380Y-97782857D01*
X128373285Y-97744761D01*
X128411380Y-97706666D01*
X128411380Y-97782857D01*
X129363761Y-98163809D02*
X129478047Y-98201904D01*
X129668523Y-98201904D01*
X129744714Y-98163809D01*
X129782809Y-98125714D01*
X129820904Y-98049523D01*
X129820904Y-97973333D01*
X129782809Y-97897142D01*
X129744714Y-97859047D01*
X129668523Y-97820952D01*
X129516142Y-97782857D01*
X129439952Y-97744761D01*
X129401857Y-97706666D01*
X129363761Y-97630476D01*
X129363761Y-97554285D01*
X129401857Y-97478095D01*
X129439952Y-97440000D01*
X129516142Y-97401904D01*
X129706619Y-97401904D01*
X129820904Y-97440000D01*
X130087571Y-97401904D02*
X130278047Y-98201904D01*
X130430428Y-97630476D01*
X130582809Y-98201904D01*
X130773285Y-97401904D01*
X131535190Y-98125714D02*
X131497095Y-98163809D01*
X131382809Y-98201904D01*
X131306619Y-98201904D01*
X131192333Y-98163809D01*
X131116142Y-98087619D01*
X131078047Y-98011428D01*
X131039952Y-97859047D01*
X131039952Y-97744761D01*
X131078047Y-97592380D01*
X131116142Y-97516190D01*
X131192333Y-97440000D01*
X131306619Y-97401904D01*
X131382809Y-97401904D01*
X131497095Y-97440000D01*
X131535190Y-97478095D01*
X132259000Y-98201904D02*
X131878047Y-98201904D01*
X131878047Y-97401904D01*
X132525666Y-98201904D02*
X132525666Y-97401904D01*
X132982809Y-98201904D02*
X132639952Y-97744761D01*
X132982809Y-97401904D02*
X132525666Y-97859047D01*
X133897095Y-97363809D02*
X133211380Y-98392380D01*
X134049476Y-97401904D02*
X134506619Y-97401904D01*
X134278047Y-98201904D02*
X134278047Y-97401904D01*
X135230428Y-98125714D02*
X135192333Y-98163809D01*
X135078047Y-98201904D01*
X135001857Y-98201904D01*
X134887571Y-98163809D01*
X134811380Y-98087619D01*
X134773285Y-98011428D01*
X134735190Y-97859047D01*
X134735190Y-97744761D01*
X134773285Y-97592380D01*
X134811380Y-97516190D01*
X134887571Y-97440000D01*
X135001857Y-97401904D01*
X135078047Y-97401904D01*
X135192333Y-97440000D01*
X135230428Y-97478095D01*
X135573285Y-98201904D02*
X135573285Y-97401904D01*
X136030428Y-98201904D02*
X135687571Y-97744761D01*
X136030428Y-97401904D02*
X135573285Y-97859047D01*
X128030428Y-98721904D02*
X127649476Y-98721904D01*
X127611380Y-99102857D01*
X127649476Y-99064761D01*
X127725666Y-99026666D01*
X127916142Y-99026666D01*
X127992333Y-99064761D01*
X128030428Y-99102857D01*
X128068523Y-99179047D01*
X128068523Y-99369523D01*
X128030428Y-99445714D01*
X127992333Y-99483809D01*
X127916142Y-99521904D01*
X127725666Y-99521904D01*
X127649476Y-99483809D01*
X127611380Y-99445714D01*
X128411380Y-99445714D02*
X128449476Y-99483809D01*
X128411380Y-99521904D01*
X128373285Y-99483809D01*
X128411380Y-99445714D01*
X128411380Y-99521904D01*
X128411380Y-99026666D02*
X128449476Y-99064761D01*
X128411380Y-99102857D01*
X128373285Y-99064761D01*
X128411380Y-99026666D01*
X128411380Y-99102857D01*
X129820904Y-98760000D02*
X129744714Y-98721904D01*
X129630428Y-98721904D01*
X129516142Y-98760000D01*
X129439952Y-98836190D01*
X129401857Y-98912380D01*
X129363761Y-99064761D01*
X129363761Y-99179047D01*
X129401857Y-99331428D01*
X129439952Y-99407619D01*
X129516142Y-99483809D01*
X129630428Y-99521904D01*
X129706619Y-99521904D01*
X129820904Y-99483809D01*
X129859000Y-99445714D01*
X129859000Y-99179047D01*
X129706619Y-99179047D01*
X130201857Y-99521904D02*
X130201857Y-98721904D01*
X130659000Y-99521904D01*
X130659000Y-98721904D01*
X131039952Y-99521904D02*
X131039952Y-98721904D01*
X131230428Y-98721904D01*
X131344714Y-98760000D01*
X131420904Y-98836190D01*
X131459000Y-98912380D01*
X131497095Y-99064761D01*
X131497095Y-99179047D01*
X131459000Y-99331428D01*
X131420904Y-99407619D01*
X131344714Y-99483809D01*
X131230428Y-99521904D01*
X131039952Y-99521904D01*
X132411380Y-98683809D02*
X131725666Y-99712380D01*
X132906619Y-99826666D02*
X132868523Y-99788571D01*
X132792333Y-99674285D01*
X132754238Y-99598095D01*
X132716142Y-99483809D01*
X132678047Y-99293333D01*
X132678047Y-99140952D01*
X132716142Y-98950476D01*
X132754238Y-98836190D01*
X132792333Y-98760000D01*
X132868523Y-98645714D01*
X132906619Y-98607619D01*
X133592333Y-98721904D02*
X133211380Y-98721904D01*
X133173285Y-99102857D01*
X133211380Y-99064761D01*
X133287571Y-99026666D01*
X133478047Y-99026666D01*
X133554238Y-99064761D01*
X133592333Y-99102857D01*
X133630428Y-99179047D01*
X133630428Y-99369523D01*
X133592333Y-99445714D01*
X133554238Y-99483809D01*
X133478047Y-99521904D01*
X133287571Y-99521904D01*
X133211380Y-99483809D01*
X133173285Y-99445714D01*
X133859000Y-98721904D02*
X134125666Y-99521904D01*
X134392333Y-98721904D01*
X134582809Y-99826666D02*
X134620904Y-99788571D01*
X134697095Y-99674285D01*
X134735190Y-99598095D01*
X134773285Y-99483809D01*
X134811380Y-99293333D01*
X134811380Y-99140952D01*
X134773285Y-98950476D01*
X134735190Y-98836190D01*
X134697095Y-98760000D01*
X134620904Y-98645714D01*
X134582809Y-98607619D01*
D10*
X114964642Y-102052380D02*
X114393214Y-102052380D01*
X114678928Y-102052380D02*
X114678928Y-101052380D01*
X114583690Y-101195238D01*
X114488452Y-101290476D01*
X114393214Y-101338095D01*
X115583690Y-101052380D02*
X115678928Y-101052380D01*
X115774166Y-101100000D01*
X115821785Y-101147619D01*
X115869404Y-101242857D01*
X115917023Y-101433333D01*
X115917023Y-101671428D01*
X115869404Y-101861904D01*
X115821785Y-101957142D01*
X115774166Y-102004761D01*
X115678928Y-102052380D01*
X115583690Y-102052380D01*
X115488452Y-102004761D01*
X115440833Y-101957142D01*
X115393214Y-101861904D01*
X115345595Y-101671428D01*
X115345595Y-101433333D01*
X115393214Y-101242857D01*
X115440833Y-101147619D01*
X115488452Y-101100000D01*
X115583690Y-101052380D01*
X115345595Y-111307619D02*
X115393214Y-111260000D01*
X115488452Y-111212380D01*
X115726547Y-111212380D01*
X115821785Y-111260000D01*
X115869404Y-111307619D01*
X115917023Y-111402857D01*
X115917023Y-111498095D01*
X115869404Y-111640952D01*
X115297976Y-112212380D01*
X115917023Y-112212380D01*
X126748214Y-102052380D02*
X126938690Y-102052380D01*
X127033928Y-102004761D01*
X127081547Y-101957142D01*
X127176785Y-101814285D01*
X127224404Y-101623809D01*
X127224404Y-101242857D01*
X127176785Y-101147619D01*
X127129166Y-101100000D01*
X127033928Y-101052380D01*
X126843452Y-101052380D01*
X126748214Y-101100000D01*
X126700595Y-101147619D01*
X126652976Y-101242857D01*
X126652976Y-101480952D01*
X126700595Y-101576190D01*
X126748214Y-101623809D01*
X126843452Y-101671428D01*
X127033928Y-101671428D01*
X127129166Y-101623809D01*
X127176785Y-101576190D01*
X127224404Y-101480952D01*
X127224404Y-112212380D02*
X126652976Y-112212380D01*
X126938690Y-112212380D02*
X126938690Y-111212380D01*
X126843452Y-111355238D01*
X126748214Y-111450476D01*
X126652976Y-111498095D01*
X113726785Y-118832380D02*
X114060119Y-119832380D01*
X114393452Y-118832380D01*
X114583928Y-118832380D02*
X115155357Y-118832380D01*
X114869642Y-119832380D02*
X114869642Y-118832380D01*
X116060119Y-119832380D02*
X115726785Y-119356190D01*
X115488690Y-119832380D02*
X115488690Y-118832380D01*
X115869642Y-118832380D01*
X115964880Y-118880000D01*
X116012500Y-118927619D01*
X116060119Y-119022857D01*
X116060119Y-119165714D01*
X116012500Y-119260952D01*
X115964880Y-119308571D01*
X115869642Y-119356190D01*
X115488690Y-119356190D01*
X116488690Y-119308571D02*
X116822023Y-119308571D01*
X116964880Y-119832380D02*
X116488690Y-119832380D01*
X116488690Y-118832380D01*
X116964880Y-118832380D01*
X117726785Y-119308571D02*
X117393452Y-119308571D01*
X117393452Y-119832380D02*
X117393452Y-118832380D01*
X117869642Y-118832380D01*
X98042023Y-112482380D02*
X98042023Y-113196666D01*
X97994404Y-113339523D01*
X97899166Y-113434761D01*
X97756309Y-113482380D01*
X97661071Y-113482380D01*
X98518214Y-113482380D02*
X98518214Y-112482380D01*
X98899166Y-112482380D01*
X98994404Y-112530000D01*
X99042023Y-112577619D01*
X99089642Y-112672857D01*
X99089642Y-112815714D01*
X99042023Y-112910952D01*
X98994404Y-112958571D01*
X98899166Y-113006190D01*
X98518214Y-113006190D01*
X100042023Y-113482380D02*
X99470595Y-113482380D01*
X99756309Y-113482380D02*
X99756309Y-112482380D01*
X99661071Y-112625238D01*
X99565833Y-112720476D01*
X99470595Y-112768095D01*
X98042023Y-115022380D02*
X98042023Y-115736666D01*
X97994404Y-115879523D01*
X97899166Y-115974761D01*
X97756309Y-116022380D01*
X97661071Y-116022380D01*
X98518214Y-116022380D02*
X98518214Y-115022380D01*
X98899166Y-115022380D01*
X98994404Y-115070000D01*
X99042023Y-115117619D01*
X99089642Y-115212857D01*
X99089642Y-115355714D01*
X99042023Y-115450952D01*
X98994404Y-115498571D01*
X98899166Y-115546190D01*
X98518214Y-115546190D01*
X99470595Y-115117619D02*
X99518214Y-115070000D01*
X99613452Y-115022380D01*
X99851547Y-115022380D01*
X99946785Y-115070000D01*
X99994404Y-115117619D01*
X100042023Y-115212857D01*
X100042023Y-115308095D01*
X99994404Y-115450952D01*
X99422976Y-116022380D01*
X100042023Y-116022380D01*
X128299642Y-104592380D02*
X127728214Y-104592380D01*
X128013928Y-104592380D02*
X128013928Y-103592380D01*
X127918690Y-103735238D01*
X127823452Y-103830476D01*
X127728214Y-103878095D01*
X128918690Y-103592380D02*
X129013928Y-103592380D01*
X129109166Y-103640000D01*
X129156785Y-103687619D01*
X129204404Y-103782857D01*
X129252023Y-103973333D01*
X129252023Y-104211428D01*
X129204404Y-104401904D01*
X129156785Y-104497142D01*
X129109166Y-104544761D01*
X129013928Y-104592380D01*
X128918690Y-104592380D01*
X128823452Y-104544761D01*
X128775833Y-104497142D01*
X128728214Y-104401904D01*
X128680595Y-104211428D01*
X128680595Y-103973333D01*
X128728214Y-103782857D01*
X128775833Y-103687619D01*
X128823452Y-103640000D01*
X128918690Y-103592380D01*
X135003214Y-104592380D02*
X135193690Y-104592380D01*
X135288928Y-104544761D01*
X135336547Y-104497142D01*
X135431785Y-104354285D01*
X135479404Y-104163809D01*
X135479404Y-103782857D01*
X135431785Y-103687619D01*
X135384166Y-103640000D01*
X135288928Y-103592380D01*
X135098452Y-103592380D01*
X135003214Y-103640000D01*
X134955595Y-103687619D01*
X134907976Y-103782857D01*
X134907976Y-104020952D01*
X134955595Y-104116190D01*
X135003214Y-104163809D01*
X135098452Y-104211428D01*
X135288928Y-104211428D01*
X135384166Y-104163809D01*
X135431785Y-104116190D01*
X135479404Y-104020952D01*
X128680595Y-108767619D02*
X128728214Y-108720000D01*
X128823452Y-108672380D01*
X129061547Y-108672380D01*
X129156785Y-108720000D01*
X129204404Y-108767619D01*
X129252023Y-108862857D01*
X129252023Y-108958095D01*
X129204404Y-109100952D01*
X128632976Y-109672380D01*
X129252023Y-109672380D01*
X135479404Y-109672380D02*
X134907976Y-109672380D01*
X135193690Y-109672380D02*
X135193690Y-108672380D01*
X135098452Y-108815238D01*
X135003214Y-108910476D01*
X134907976Y-108958095D01*
X125319404Y-119832380D02*
X124747976Y-119832380D01*
X125033690Y-119832380D02*
X125033690Y-118832380D01*
X124938452Y-118975238D01*
X124843214Y-119070476D01*
X124747976Y-119118095D01*
X115869642Y-94194380D02*
X116441071Y-94194380D01*
X116155357Y-95194380D02*
X116155357Y-94194380D01*
X116774404Y-95194380D02*
X116774404Y-94194380D01*
X117012500Y-94194380D01*
X117155357Y-94242000D01*
X117250595Y-94337238D01*
X117298214Y-94432476D01*
X117345833Y-94622952D01*
X117345833Y-94765809D01*
X117298214Y-94956285D01*
X117250595Y-95051523D01*
X117155357Y-95146761D01*
X117012500Y-95194380D01*
X116774404Y-95194380D01*
X117774404Y-95194380D02*
X117774404Y-94194380D01*
X114774404Y-92797380D02*
X114774404Y-93511666D01*
X114726785Y-93654523D01*
X114631547Y-93749761D01*
X114488690Y-93797380D01*
X114393452Y-93797380D01*
X115726785Y-93797380D02*
X115250595Y-93797380D01*
X115250595Y-92797380D01*
X116060119Y-93702142D02*
X116107738Y-93749761D01*
X116060119Y-93797380D01*
X116012500Y-93749761D01*
X116060119Y-93702142D01*
X116060119Y-93797380D01*
X116393452Y-92797380D02*
X116964880Y-92797380D01*
X116679166Y-93797380D02*
X116679166Y-92797380D01*
X117202976Y-92797380D02*
X117869642Y-93797380D01*
X117869642Y-92797380D02*
X117202976Y-93797380D01*
X124938452Y-93860952D02*
X124843214Y-93813333D01*
X124795595Y-93765714D01*
X124747976Y-93670476D01*
X124747976Y-93622857D01*
X124795595Y-93527619D01*
X124843214Y-93480000D01*
X124938452Y-93432380D01*
X125128928Y-93432380D01*
X125224166Y-93480000D01*
X125271785Y-93527619D01*
X125319404Y-93622857D01*
X125319404Y-93670476D01*
X125271785Y-93765714D01*
X125224166Y-93813333D01*
X125128928Y-93860952D01*
X124938452Y-93860952D01*
X124843214Y-93908571D01*
X124795595Y-93956190D01*
X124747976Y-94051428D01*
X124747976Y-94241904D01*
X124795595Y-94337142D01*
X124843214Y-94384761D01*
X124938452Y-94432380D01*
X125128928Y-94432380D01*
X125224166Y-94384761D01*
X125271785Y-94337142D01*
X125319404Y-94241904D01*
X125319404Y-94051428D01*
X125271785Y-93956190D01*
X125224166Y-93908571D01*
X125128928Y-93860952D01*
X111984404Y-112530000D02*
X111889166Y-112482380D01*
X111746309Y-112482380D01*
X111603452Y-112530000D01*
X111508214Y-112625238D01*
X111460595Y-112720476D01*
X111412976Y-112910952D01*
X111412976Y-113053809D01*
X111460595Y-113244285D01*
X111508214Y-113339523D01*
X111603452Y-113434761D01*
X111746309Y-113482380D01*
X111841547Y-113482380D01*
X111984404Y-113434761D01*
X112032023Y-113387142D01*
X112032023Y-113053809D01*
X111841547Y-113053809D01*
X112460595Y-113482380D02*
X112460595Y-112482380D01*
X113032023Y-113482380D01*
X113032023Y-112482380D01*
X113508214Y-113482380D02*
X113508214Y-112482380D01*
X113746309Y-112482380D01*
X113889166Y-112530000D01*
X113984404Y-112625238D01*
X114032023Y-112720476D01*
X114079642Y-112910952D01*
X114079642Y-113053809D01*
X114032023Y-113244285D01*
X113984404Y-113339523D01*
X113889166Y-113434761D01*
X113746309Y-113482380D01*
X113508214Y-113482380D01*
X111936785Y-117562380D02*
X111460595Y-117562380D01*
X111412976Y-118038571D01*
X111460595Y-117990952D01*
X111555833Y-117943333D01*
X111793928Y-117943333D01*
X111889166Y-117990952D01*
X111936785Y-118038571D01*
X111984404Y-118133809D01*
X111984404Y-118371904D01*
X111936785Y-118467142D01*
X111889166Y-118514761D01*
X111793928Y-118562380D01*
X111555833Y-118562380D01*
X111460595Y-118514761D01*
X111412976Y-118467142D01*
X112270119Y-117562380D02*
X112603452Y-118562380D01*
X112936785Y-117562380D01*
X111936785Y-115022380D02*
X111460595Y-115022380D01*
X111412976Y-115498571D01*
X111460595Y-115450952D01*
X111555833Y-115403333D01*
X111793928Y-115403333D01*
X111889166Y-115450952D01*
X111936785Y-115498571D01*
X111984404Y-115593809D01*
X111984404Y-115831904D01*
X111936785Y-115927142D01*
X111889166Y-115974761D01*
X111793928Y-116022380D01*
X111555833Y-116022380D01*
X111460595Y-115974761D01*
X111412976Y-115927142D01*
X99137261Y-117562380D02*
X98661071Y-117562380D01*
X98613452Y-118038571D01*
X98661071Y-117990952D01*
X98756309Y-117943333D01*
X98994404Y-117943333D01*
X99089642Y-117990952D01*
X99137261Y-118038571D01*
X99184880Y-118133809D01*
X99184880Y-118371904D01*
X99137261Y-118467142D01*
X99089642Y-118514761D01*
X98994404Y-118562380D01*
X98756309Y-118562380D01*
X98661071Y-118514761D01*
X98613452Y-118467142D01*
X99470595Y-117562380D02*
X99803928Y-118562380D01*
X100137261Y-117562380D01*
X109444404Y-102370000D02*
X109349166Y-102322380D01*
X109206309Y-102322380D01*
X109063452Y-102370000D01*
X108968214Y-102465238D01*
X108920595Y-102560476D01*
X108872976Y-102750952D01*
X108872976Y-102893809D01*
X108920595Y-103084285D01*
X108968214Y-103179523D01*
X109063452Y-103274761D01*
X109206309Y-103322380D01*
X109301547Y-103322380D01*
X109444404Y-103274761D01*
X109492023Y-103227142D01*
X109492023Y-102893809D01*
X109301547Y-102893809D01*
X109920595Y-103322380D02*
X109920595Y-102322380D01*
X110492023Y-103322380D01*
X110492023Y-102322380D01*
X110968214Y-103322380D02*
X110968214Y-102322380D01*
X111206309Y-102322380D01*
X111349166Y-102370000D01*
X111444404Y-102465238D01*
X111492023Y-102560476D01*
X111539642Y-102750952D01*
X111539642Y-102893809D01*
X111492023Y-103084285D01*
X111444404Y-103179523D01*
X111349166Y-103274761D01*
X111206309Y-103322380D01*
X110968214Y-103322380D01*
X108968214Y-100782380D02*
X109158690Y-100782380D01*
X109253928Y-100734761D01*
X109301547Y-100687142D01*
X109396785Y-100544285D01*
X109444404Y-100353809D01*
X109444404Y-99972857D01*
X109396785Y-99877619D01*
X109349166Y-99830000D01*
X109253928Y-99782380D01*
X109063452Y-99782380D01*
X108968214Y-99830000D01*
X108920595Y-99877619D01*
X108872976Y-99972857D01*
X108872976Y-100210952D01*
X108920595Y-100306190D01*
X108968214Y-100353809D01*
X109063452Y-100401428D01*
X109253928Y-100401428D01*
X109349166Y-100353809D01*
X109396785Y-100306190D01*
X109444404Y-100210952D01*
X108682500Y-96875000D02*
X109444404Y-96875000D01*
X108777738Y-97242380D02*
X109349166Y-97242380D01*
X109063452Y-98242380D02*
X109063452Y-97242380D01*
X109444404Y-96875000D02*
X110444404Y-96875000D01*
X110253928Y-98242380D02*
X109920595Y-97766190D01*
X109682500Y-98242380D02*
X109682500Y-97242380D01*
X110063452Y-97242380D01*
X110158690Y-97290000D01*
X110206309Y-97337619D01*
X110253928Y-97432857D01*
X110253928Y-97575714D01*
X110206309Y-97670952D01*
X110158690Y-97718571D01*
X110063452Y-97766190D01*
X109682500Y-97766190D01*
X110444404Y-96875000D02*
X111396785Y-96875000D01*
X110634880Y-98194761D02*
X110777738Y-98242380D01*
X111015833Y-98242380D01*
X111111071Y-98194761D01*
X111158690Y-98147142D01*
X111206309Y-98051904D01*
X111206309Y-97956666D01*
X111158690Y-97861428D01*
X111111071Y-97813809D01*
X111015833Y-97766190D01*
X110825357Y-97718571D01*
X110730119Y-97670952D01*
X110682500Y-97623333D01*
X110634880Y-97528095D01*
X110634880Y-97432857D01*
X110682500Y-97337619D01*
X110730119Y-97290000D01*
X110825357Y-97242380D01*
X111063452Y-97242380D01*
X111206309Y-97290000D01*
X111396785Y-96875000D02*
X112158690Y-96875000D01*
X111492023Y-97242380D02*
X112063452Y-97242380D01*
X111777738Y-98242380D02*
X111777738Y-97242380D01*
X96756309Y-102322380D02*
X96756309Y-103036666D01*
X96708690Y-103179523D01*
X96613452Y-103274761D01*
X96470595Y-103322380D01*
X96375357Y-103322380D01*
X97708690Y-103322380D02*
X97232500Y-103322380D01*
X97232500Y-102322380D01*
X98042023Y-103227142D02*
X98089642Y-103274761D01*
X98042023Y-103322380D01*
X97994404Y-103274761D01*
X98042023Y-103227142D01*
X98042023Y-103322380D01*
X99089642Y-103322380D02*
X98756309Y-102846190D01*
X98518214Y-103322380D02*
X98518214Y-102322380D01*
X98899166Y-102322380D01*
X98994404Y-102370000D01*
X99042023Y-102417619D01*
X99089642Y-102512857D01*
X99089642Y-102655714D01*
X99042023Y-102750952D01*
X98994404Y-102798571D01*
X98899166Y-102846190D01*
X98518214Y-102846190D01*
X99422976Y-102322380D02*
X100089642Y-103322380D01*
X100089642Y-102322380D02*
X99422976Y-103322380D01*
X99422976Y-99782380D02*
X100089642Y-99782380D01*
X99661071Y-100782380D01*
X97280119Y-98242380D02*
X96946785Y-97766190D01*
X96708690Y-98242380D02*
X96708690Y-97242380D01*
X97089642Y-97242380D01*
X97184880Y-97290000D01*
X97232500Y-97337619D01*
X97280119Y-97432857D01*
X97280119Y-97575714D01*
X97232500Y-97670952D01*
X97184880Y-97718571D01*
X97089642Y-97766190D01*
X96708690Y-97766190D01*
X97565833Y-97242380D02*
X98137261Y-97242380D01*
X97851547Y-98242380D02*
X97851547Y-97242380D01*
X99042023Y-98147142D02*
X98994404Y-98194761D01*
X98851547Y-98242380D01*
X98756309Y-98242380D01*
X98613452Y-98194761D01*
X98518214Y-98099523D01*
X98470595Y-98004285D01*
X98422976Y-97813809D01*
X98422976Y-97670952D01*
X98470595Y-97480476D01*
X98518214Y-97385238D01*
X98613452Y-97290000D01*
X98756309Y-97242380D01*
X98851547Y-97242380D01*
X98994404Y-97290000D01*
X99042023Y-97337619D01*
X99470595Y-98242380D02*
X99470595Y-97242380D01*
X100042023Y-98242380D02*
X99613452Y-97670952D01*
X100042023Y-97242380D02*
X99470595Y-97813809D01*
D11*
X105350000Y-109280000D02*
X105350000Y-107950000D01*
X106680000Y-109280000D02*
X105350000Y-109280000D01*
X107950000Y-109280000D02*
X107950000Y-106620000D01*
X107950000Y-106620000D02*
X110550000Y-106620000D01*
X107950000Y-109280000D02*
X110550000Y-109280000D01*
X110550000Y-109280000D02*
X110550000Y-106620000D01*
X133845000Y-109980000D02*
X132715000Y-109980000D01*
X133845000Y-109220000D02*
X133845000Y-109980000D01*
X131137470Y-109915000D02*
X130315000Y-109915000D01*
X131955000Y-109915000D02*
X131752530Y-109915000D01*
X131955000Y-109783471D02*
X131955000Y-109915000D01*
X131955000Y-108513471D02*
X131955000Y-108656529D01*
X132151529Y-108460000D02*
X132008471Y-108460000D01*
X133845000Y-108460000D02*
X133278471Y-108460000D01*
X130315000Y-109915000D02*
X130315000Y-103445000D01*
X133845000Y-108460000D02*
X133845000Y-103445000D01*
X132407470Y-103445000D02*
X131752530Y-103445000D01*
X131137470Y-103445000D02*
X130315000Y-103445000D01*
X133845000Y-103445000D02*
X133022530Y-103445000D01*
X126210000Y-117360000D02*
X123670000Y-117360000D01*
X126210000Y-117360000D02*
X126210000Y-114820000D01*
X125960000Y-117110000D02*
X116610000Y-117110000D01*
X125960000Y-96250000D02*
X125960000Y-117110000D01*
X116610000Y-96250000D02*
X125960000Y-96250000D01*
X116610000Y-117110000D02*
X116610000Y-96250000D01*
X93980000Y-93920000D02*
X95090000Y-93920000D01*
X95090000Y-93920000D02*
X95090000Y-95250000D01*
X102235000Y-119440000D02*
X100905000Y-119440000D01*
X100905000Y-119440000D02*
X100905000Y-118110000D01*
X100905000Y-116840000D02*
X100905000Y-111700000D01*
X103565000Y-111700000D02*
X100905000Y-111700000D01*
X103565000Y-116840000D02*
X103565000Y-111700000D01*
X103565000Y-116840000D02*
X100905000Y-116840000D01*
X118685000Y-120710000D02*
X118685000Y-119380000D01*
X120015000Y-120710000D02*
X118685000Y-120710000D01*
X121285000Y-120710000D02*
X121285000Y-118050000D01*
X121285000Y-118050000D02*
X123885000Y-118050000D01*
X121285000Y-120710000D02*
X123885000Y-120710000D01*
X123885000Y-120710000D02*
X123885000Y-118050000D01*
X118685000Y-95310000D02*
X118685000Y-93980000D01*
X120015000Y-95310000D02*
X118685000Y-95310000D01*
X121285000Y-95310000D02*
X121285000Y-92650000D01*
X121285000Y-92650000D02*
X123885000Y-92650000D01*
X121285000Y-95310000D02*
X123885000Y-95310000D01*
X123885000Y-95310000D02*
X123885000Y-92650000D01*
X107890000Y-111700000D02*
X109220000Y-111700000D01*
X107890000Y-113030000D02*
X107890000Y-111700000D01*
X107890000Y-114300000D02*
X110550000Y-114300000D01*
X110550000Y-114300000D02*
X110550000Y-119440000D01*
X107890000Y-114300000D02*
X107890000Y-119440000D01*
X107890000Y-119440000D02*
X110550000Y-119440000D01*
X108010000Y-104200000D02*
X106680000Y-104200000D01*
X108010000Y-102870000D02*
X108010000Y-104200000D01*
X108010000Y-101600000D02*
X105350000Y-101600000D01*
X105350000Y-101600000D02*
X105350000Y-96460000D01*
X108010000Y-101600000D02*
X108010000Y-96460000D01*
X108010000Y-96460000D02*
X105350000Y-96460000D01*
X103565000Y-104200000D02*
X102235000Y-104200000D01*
X103565000Y-102870000D02*
X103565000Y-104200000D01*
X103565000Y-101600000D02*
X100905000Y-101600000D01*
X100905000Y-101600000D02*
X100905000Y-96460000D01*
X103565000Y-101600000D02*
X103565000Y-96460000D01*
X103565000Y-96460000D02*
X100905000Y-96460000D01*
M02*
