G04 #@! TF.GenerationSoftware,KiCad,Pcbnew,5.1.5-52549c5~86~ubuntu19.04.1*
G04 #@! TF.CreationDate,2020-12-26T14:34:18+01:00*
G04 #@! TF.ProjectId,jlink-tagConnect-adapter-v3,6a6c696e-6b2d-4746-9167-436f6e6e6563,rev?*
G04 #@! TF.SameCoordinates,Original*
G04 #@! TF.FileFunction,Soldermask,Bot*
G04 #@! TF.FilePolarity,Negative*
%FSLAX46Y46*%
G04 Gerber Fmt 4.6, Leading zero omitted, Abs format (unit mm)*
G04 Created by KiCad (PCBNEW 5.1.5-52549c5~86~ubuntu19.04.1) date 2020-12-26 14:34:18*
%MOMM*%
%LPD*%
G04 APERTURE LIST*
%ADD10C,0.150000*%
%ADD11C,0.010000*%
%ADD12C,0.100000*%
G04 APERTURE END LIST*
D10*
X112180714Y-115175357D02*
X112847380Y-115413452D01*
X112180714Y-115651547D01*
X111847380Y-115937261D02*
X111847380Y-116556309D01*
X112228333Y-116222976D01*
X112228333Y-116365833D01*
X112275952Y-116461071D01*
X112323571Y-116508690D01*
X112418809Y-116556309D01*
X112656904Y-116556309D01*
X112752142Y-116508690D01*
X112799761Y-116461071D01*
X112847380Y-116365833D01*
X112847380Y-116080119D01*
X112799761Y-115984880D01*
X112752142Y-115937261D01*
X112752142Y-116984880D02*
X112799761Y-117032500D01*
X112847380Y-116984880D01*
X112799761Y-116937261D01*
X112752142Y-116984880D01*
X112847380Y-116984880D01*
X111847380Y-117651547D02*
X111847380Y-117746785D01*
X111895000Y-117842023D01*
X111942619Y-117889642D01*
X112037857Y-117937261D01*
X112228333Y-117984880D01*
X112466428Y-117984880D01*
X112656904Y-117937261D01*
X112752142Y-117889642D01*
X112799761Y-117842023D01*
X112847380Y-117746785D01*
X112847380Y-117651547D01*
X112799761Y-117556309D01*
X112752142Y-117508690D01*
X112656904Y-117461071D01*
X112466428Y-117413452D01*
X112228333Y-117413452D01*
X112037857Y-117461071D01*
X111942619Y-117508690D01*
X111895000Y-117556309D01*
X111847380Y-117651547D01*
D11*
G36*
X132914184Y-115566241D02*
G01*
X132927282Y-115592753D01*
X132950106Y-115625447D01*
X132974996Y-115649275D01*
X133006249Y-115665594D01*
X133048166Y-115675760D01*
X133105044Y-115681128D01*
X133181184Y-115683056D01*
X133213917Y-115683169D01*
X133285656Y-115682839D01*
X133336927Y-115681473D01*
X133372404Y-115678500D01*
X133396763Y-115673351D01*
X133414680Y-115665457D01*
X133426902Y-115657243D01*
X133478905Y-115604813D01*
X133510184Y-115543070D01*
X133519592Y-115476464D01*
X133505980Y-115409442D01*
X133496354Y-115388208D01*
X133469859Y-115337376D01*
X133885052Y-115337376D01*
X133865868Y-115374475D01*
X133851025Y-115423357D01*
X133847222Y-115483439D01*
X133854243Y-115543436D01*
X133870013Y-115588744D01*
X133900047Y-115626325D01*
X133943024Y-115658436D01*
X133947436Y-115660850D01*
X133968221Y-115671033D01*
X133989170Y-115678470D01*
X134014548Y-115683589D01*
X134048618Y-115686819D01*
X134095641Y-115688587D01*
X134159882Y-115689323D01*
X134232176Y-115689456D01*
X134462822Y-115689456D01*
X134462822Y-115551139D01*
X134037533Y-115551139D01*
X134004979Y-115512451D01*
X133978940Y-115472262D01*
X133974205Y-115434203D01*
X133986389Y-115395934D01*
X133998320Y-115375538D01*
X134015313Y-115360358D01*
X134040995Y-115349562D01*
X134078991Y-115342317D01*
X134132926Y-115337792D01*
X134206425Y-115335156D01*
X134255347Y-115334228D01*
X134456535Y-115331089D01*
X134460336Y-115265074D01*
X134464136Y-115199060D01*
X133215650Y-115199060D01*
X133215650Y-115337376D01*
X133285254Y-115340903D01*
X133333569Y-115352785D01*
X133363631Y-115374980D01*
X133378471Y-115409441D01*
X133381436Y-115444258D01*
X133378028Y-115483671D01*
X133364617Y-115509829D01*
X133346896Y-115526186D01*
X133327835Y-115539063D01*
X133306601Y-115546728D01*
X133276849Y-115550139D01*
X133232236Y-115550251D01*
X133194880Y-115549103D01*
X133138604Y-115546468D01*
X133101658Y-115542544D01*
X133078223Y-115535937D01*
X133062480Y-115525251D01*
X133053380Y-115515167D01*
X133033537Y-115473030D01*
X133030332Y-115423160D01*
X133037168Y-115394524D01*
X133061464Y-115366172D01*
X133108728Y-115347391D01*
X133178624Y-115338288D01*
X133215650Y-115337376D01*
X133215650Y-115199060D01*
X132903614Y-115199060D01*
X132903614Y-115268218D01*
X132905256Y-115309740D01*
X132911087Y-115331162D01*
X132922461Y-115337374D01*
X132922798Y-115337376D01*
X132933938Y-115340258D01*
X132932673Y-115352970D01*
X132920433Y-115378243D01*
X132901707Y-115437131D01*
X132899739Y-115503385D01*
X132914184Y-115566241D01*
G37*
X132914184Y-115566241D02*
X132927282Y-115592753D01*
X132950106Y-115625447D01*
X132974996Y-115649275D01*
X133006249Y-115665594D01*
X133048166Y-115675760D01*
X133105044Y-115681128D01*
X133181184Y-115683056D01*
X133213917Y-115683169D01*
X133285656Y-115682839D01*
X133336927Y-115681473D01*
X133372404Y-115678500D01*
X133396763Y-115673351D01*
X133414680Y-115665457D01*
X133426902Y-115657243D01*
X133478905Y-115604813D01*
X133510184Y-115543070D01*
X133519592Y-115476464D01*
X133505980Y-115409442D01*
X133496354Y-115388208D01*
X133469859Y-115337376D01*
X133885052Y-115337376D01*
X133865868Y-115374475D01*
X133851025Y-115423357D01*
X133847222Y-115483439D01*
X133854243Y-115543436D01*
X133870013Y-115588744D01*
X133900047Y-115626325D01*
X133943024Y-115658436D01*
X133947436Y-115660850D01*
X133968221Y-115671033D01*
X133989170Y-115678470D01*
X134014548Y-115683589D01*
X134048618Y-115686819D01*
X134095641Y-115688587D01*
X134159882Y-115689323D01*
X134232176Y-115689456D01*
X134462822Y-115689456D01*
X134462822Y-115551139D01*
X134037533Y-115551139D01*
X134004979Y-115512451D01*
X133978940Y-115472262D01*
X133974205Y-115434203D01*
X133986389Y-115395934D01*
X133998320Y-115375538D01*
X134015313Y-115360358D01*
X134040995Y-115349562D01*
X134078991Y-115342317D01*
X134132926Y-115337792D01*
X134206425Y-115335156D01*
X134255347Y-115334228D01*
X134456535Y-115331089D01*
X134460336Y-115265074D01*
X134464136Y-115199060D01*
X133215650Y-115199060D01*
X133215650Y-115337376D01*
X133285254Y-115340903D01*
X133333569Y-115352785D01*
X133363631Y-115374980D01*
X133378471Y-115409441D01*
X133381436Y-115444258D01*
X133378028Y-115483671D01*
X133364617Y-115509829D01*
X133346896Y-115526186D01*
X133327835Y-115539063D01*
X133306601Y-115546728D01*
X133276849Y-115550139D01*
X133232236Y-115550251D01*
X133194880Y-115549103D01*
X133138604Y-115546468D01*
X133101658Y-115542544D01*
X133078223Y-115535937D01*
X133062480Y-115525251D01*
X133053380Y-115515167D01*
X133033537Y-115473030D01*
X133030332Y-115423160D01*
X133037168Y-115394524D01*
X133061464Y-115366172D01*
X133108728Y-115347391D01*
X133178624Y-115338288D01*
X133215650Y-115337376D01*
X133215650Y-115199060D01*
X132903614Y-115199060D01*
X132903614Y-115268218D01*
X132905256Y-115309740D01*
X132911087Y-115331162D01*
X132922461Y-115337374D01*
X132922798Y-115337376D01*
X132933938Y-115340258D01*
X132932673Y-115352970D01*
X132920433Y-115378243D01*
X132901707Y-115437131D01*
X132899739Y-115503385D01*
X132914184Y-115566241D01*
G36*
X133851555Y-116090790D02*
G01*
X133867339Y-116149945D01*
X133895948Y-116194977D01*
X133933419Y-116226754D01*
X133949411Y-116236634D01*
X133966163Y-116243927D01*
X133987592Y-116249026D01*
X134017616Y-116252321D01*
X134060154Y-116254203D01*
X134119122Y-116255063D01*
X134198440Y-116255293D01*
X134219484Y-116255297D01*
X134462822Y-116255297D01*
X134462822Y-116194941D01*
X134460126Y-116156443D01*
X134453295Y-116127977D01*
X134449083Y-116120845D01*
X134441813Y-116101348D01*
X134449083Y-116081434D01*
X134458160Y-116048647D01*
X134461813Y-116001022D01*
X134460228Y-115948236D01*
X134453589Y-115899964D01*
X134445072Y-115871782D01*
X134410063Y-115817247D01*
X134361479Y-115783165D01*
X134296882Y-115767843D01*
X134295223Y-115767701D01*
X134266566Y-115769045D01*
X134266566Y-115890644D01*
X134299161Y-115901274D01*
X134317505Y-115918590D01*
X134331379Y-115953348D01*
X134336917Y-115999227D01*
X134334191Y-116046012D01*
X134323274Y-116083486D01*
X134316269Y-116093985D01*
X134283904Y-116112332D01*
X134247111Y-116116980D01*
X134198763Y-116116980D01*
X134198763Y-116047418D01*
X134203850Y-115981333D01*
X134218263Y-115931236D01*
X134240729Y-115900071D01*
X134266566Y-115890644D01*
X134266566Y-115769045D01*
X134224647Y-115771013D01*
X134168845Y-115794290D01*
X134126647Y-115838052D01*
X134122808Y-115844101D01*
X134110309Y-115870093D01*
X134102740Y-115902265D01*
X134099061Y-115947240D01*
X134098216Y-116000669D01*
X134098169Y-116116980D01*
X134049411Y-116116980D01*
X134011581Y-116112047D01*
X133986236Y-116099457D01*
X133984887Y-116097983D01*
X133973800Y-116069966D01*
X133969503Y-116027674D01*
X133971615Y-115980936D01*
X133979756Y-115939582D01*
X133991965Y-115915043D01*
X134001746Y-115901747D01*
X134003613Y-115887706D01*
X133995600Y-115868329D01*
X133975739Y-115839024D01*
X133942063Y-115795197D01*
X133938909Y-115791175D01*
X133927236Y-115793236D01*
X133907822Y-115810432D01*
X133886248Y-115836567D01*
X133868096Y-115865448D01*
X133863809Y-115874522D01*
X133855256Y-115907620D01*
X133849155Y-115956120D01*
X133846708Y-116010305D01*
X133846703Y-116012839D01*
X133851555Y-116090790D01*
G37*
X133851555Y-116090790D02*
X133867339Y-116149945D01*
X133895948Y-116194977D01*
X133933419Y-116226754D01*
X133949411Y-116236634D01*
X133966163Y-116243927D01*
X133987592Y-116249026D01*
X134017616Y-116252321D01*
X134060154Y-116254203D01*
X134119122Y-116255063D01*
X134198440Y-116255293D01*
X134219484Y-116255297D01*
X134462822Y-116255297D01*
X134462822Y-116194941D01*
X134460126Y-116156443D01*
X134453295Y-116127977D01*
X134449083Y-116120845D01*
X134441813Y-116101348D01*
X134449083Y-116081434D01*
X134458160Y-116048647D01*
X134461813Y-116001022D01*
X134460228Y-115948236D01*
X134453589Y-115899964D01*
X134445072Y-115871782D01*
X134410063Y-115817247D01*
X134361479Y-115783165D01*
X134296882Y-115767843D01*
X134295223Y-115767701D01*
X134266566Y-115769045D01*
X134266566Y-115890644D01*
X134299161Y-115901274D01*
X134317505Y-115918590D01*
X134331379Y-115953348D01*
X134336917Y-115999227D01*
X134334191Y-116046012D01*
X134323274Y-116083486D01*
X134316269Y-116093985D01*
X134283904Y-116112332D01*
X134247111Y-116116980D01*
X134198763Y-116116980D01*
X134198763Y-116047418D01*
X134203850Y-115981333D01*
X134218263Y-115931236D01*
X134240729Y-115900071D01*
X134266566Y-115890644D01*
X134266566Y-115769045D01*
X134224647Y-115771013D01*
X134168845Y-115794290D01*
X134126647Y-115838052D01*
X134122808Y-115844101D01*
X134110309Y-115870093D01*
X134102740Y-115902265D01*
X134099061Y-115947240D01*
X134098216Y-116000669D01*
X134098169Y-116116980D01*
X134049411Y-116116980D01*
X134011581Y-116112047D01*
X133986236Y-116099457D01*
X133984887Y-116097983D01*
X133973800Y-116069966D01*
X133969503Y-116027674D01*
X133971615Y-115980936D01*
X133979756Y-115939582D01*
X133991965Y-115915043D01*
X134001746Y-115901747D01*
X134003613Y-115887706D01*
X133995600Y-115868329D01*
X133975739Y-115839024D01*
X133942063Y-115795197D01*
X133938909Y-115791175D01*
X133927236Y-115793236D01*
X133907822Y-115810432D01*
X133886248Y-115836567D01*
X133868096Y-115865448D01*
X133863809Y-115874522D01*
X133855256Y-115907620D01*
X133849155Y-115956120D01*
X133846708Y-116010305D01*
X133846703Y-116012839D01*
X133851555Y-116090790D01*
G36*
X133848020Y-116481644D02*
G01*
X133853660Y-116500461D01*
X133866053Y-116506527D01*
X133871647Y-116506782D01*
X133887230Y-116507871D01*
X133889676Y-116515368D01*
X133878993Y-116535619D01*
X133871694Y-116547649D01*
X133856063Y-116585600D01*
X133848334Y-116630928D01*
X133847740Y-116678456D01*
X133853513Y-116723005D01*
X133864884Y-116759398D01*
X133881088Y-116782457D01*
X133901355Y-116787004D01*
X133906843Y-116784709D01*
X133929626Y-116767980D01*
X133957647Y-116742037D01*
X133962177Y-116737345D01*
X133983005Y-116712617D01*
X133989735Y-116691282D01*
X133985038Y-116661445D01*
X133981917Y-116649492D01*
X133974421Y-116612295D01*
X133977792Y-116586141D01*
X133989681Y-116564054D01*
X134005635Y-116543822D01*
X134025700Y-116528921D01*
X134053702Y-116518566D01*
X134093467Y-116511971D01*
X134148823Y-116508351D01*
X134223594Y-116506922D01*
X134268740Y-116506782D01*
X134462822Y-116506782D01*
X134462822Y-116381040D01*
X133846683Y-116381040D01*
X133846683Y-116443911D01*
X133848020Y-116481644D01*
G37*
X133848020Y-116481644D02*
X133853660Y-116500461D01*
X133866053Y-116506527D01*
X133871647Y-116506782D01*
X133887230Y-116507871D01*
X133889676Y-116515368D01*
X133878993Y-116535619D01*
X133871694Y-116547649D01*
X133856063Y-116585600D01*
X133848334Y-116630928D01*
X133847740Y-116678456D01*
X133853513Y-116723005D01*
X133864884Y-116759398D01*
X133881088Y-116782457D01*
X133901355Y-116787004D01*
X133906843Y-116784709D01*
X133929626Y-116767980D01*
X133957647Y-116742037D01*
X133962177Y-116737345D01*
X133983005Y-116712617D01*
X133989735Y-116691282D01*
X133985038Y-116661445D01*
X133981917Y-116649492D01*
X133974421Y-116612295D01*
X133977792Y-116586141D01*
X133989681Y-116564054D01*
X134005635Y-116543822D01*
X134025700Y-116528921D01*
X134053702Y-116518566D01*
X134093467Y-116511971D01*
X134148823Y-116508351D01*
X134223594Y-116506922D01*
X134268740Y-116506782D01*
X134462822Y-116506782D01*
X134462822Y-116381040D01*
X133846683Y-116381040D01*
X133846683Y-116443911D01*
X133848020Y-116481644D01*
G36*
X134462822Y-117273812D02*
G01*
X134462822Y-117204654D01*
X134461645Y-117164512D01*
X134456772Y-117143606D01*
X134446186Y-117136078D01*
X134439029Y-117135495D01*
X134424676Y-117134226D01*
X134421923Y-117126221D01*
X134430771Y-117105185D01*
X134439029Y-117088827D01*
X134458597Y-117026023D01*
X134459729Y-116957752D01*
X134445135Y-116902248D01*
X134409877Y-116850562D01*
X134357835Y-116811162D01*
X134296450Y-116789587D01*
X134293018Y-116789038D01*
X134255571Y-116785833D01*
X134201813Y-116784239D01*
X134161155Y-116784367D01*
X134161155Y-116921721D01*
X134215194Y-116924903D01*
X134259735Y-116932141D01*
X134284888Y-116941940D01*
X134319260Y-116979011D01*
X134331582Y-117023026D01*
X134321618Y-117068416D01*
X134291895Y-117107203D01*
X134271905Y-117121892D01*
X134248050Y-117130481D01*
X134213230Y-117134504D01*
X134160930Y-117135495D01*
X134109139Y-117133722D01*
X134063634Y-117129037D01*
X134033181Y-117122397D01*
X134030452Y-117121290D01*
X133998000Y-117094509D01*
X133980183Y-117055421D01*
X133977306Y-117011685D01*
X133989674Y-116970962D01*
X134017593Y-116940913D01*
X134023148Y-116937796D01*
X134057022Y-116928039D01*
X134105728Y-116922723D01*
X134161155Y-116921721D01*
X134161155Y-116784367D01*
X134140540Y-116784432D01*
X134107563Y-116785336D01*
X134025981Y-116791486D01*
X133964730Y-116804267D01*
X133919449Y-116825529D01*
X133885779Y-116857122D01*
X133866014Y-116887793D01*
X133852120Y-116930646D01*
X133847354Y-116983944D01*
X133851236Y-117038520D01*
X133863282Y-117085208D01*
X133877693Y-117109876D01*
X133900878Y-117135495D01*
X133607773Y-117135495D01*
X133607773Y-117273812D01*
X134462822Y-117273812D01*
G37*
X134462822Y-117273812D02*
X134462822Y-117204654D01*
X134461645Y-117164512D01*
X134456772Y-117143606D01*
X134446186Y-117136078D01*
X134439029Y-117135495D01*
X134424676Y-117134226D01*
X134421923Y-117126221D01*
X134430771Y-117105185D01*
X134439029Y-117088827D01*
X134458597Y-117026023D01*
X134459729Y-116957752D01*
X134445135Y-116902248D01*
X134409877Y-116850562D01*
X134357835Y-116811162D01*
X134296450Y-116789587D01*
X134293018Y-116789038D01*
X134255571Y-116785833D01*
X134201813Y-116784239D01*
X134161155Y-116784367D01*
X134161155Y-116921721D01*
X134215194Y-116924903D01*
X134259735Y-116932141D01*
X134284888Y-116941940D01*
X134319260Y-116979011D01*
X134331582Y-117023026D01*
X134321618Y-117068416D01*
X134291895Y-117107203D01*
X134271905Y-117121892D01*
X134248050Y-117130481D01*
X134213230Y-117134504D01*
X134160930Y-117135495D01*
X134109139Y-117133722D01*
X134063634Y-117129037D01*
X134033181Y-117122397D01*
X134030452Y-117121290D01*
X133998000Y-117094509D01*
X133980183Y-117055421D01*
X133977306Y-117011685D01*
X133989674Y-116970962D01*
X134017593Y-116940913D01*
X134023148Y-116937796D01*
X134057022Y-116928039D01*
X134105728Y-116922723D01*
X134161155Y-116921721D01*
X134161155Y-116784367D01*
X134140540Y-116784432D01*
X134107563Y-116785336D01*
X134025981Y-116791486D01*
X133964730Y-116804267D01*
X133919449Y-116825529D01*
X133885779Y-116857122D01*
X133866014Y-116887793D01*
X133852120Y-116930646D01*
X133847354Y-116983944D01*
X133851236Y-117038520D01*
X133863282Y-117085208D01*
X133877693Y-117109876D01*
X133900878Y-117135495D01*
X133607773Y-117135495D01*
X133607773Y-117273812D01*
X134462822Y-117273812D01*
G36*
X133849237Y-117756524D02*
G01*
X133852971Y-117806255D01*
X134242773Y-117936291D01*
X134173614Y-117956678D01*
X134130874Y-117968946D01*
X134073115Y-117985085D01*
X134009625Y-118002512D01*
X133975570Y-118011726D01*
X133846683Y-118046388D01*
X133846683Y-118189391D01*
X133981857Y-118146646D01*
X134048342Y-118125596D01*
X134128539Y-118100167D01*
X134212193Y-118073610D01*
X134286782Y-118049902D01*
X134456535Y-117995902D01*
X134460328Y-117937598D01*
X134464122Y-117879295D01*
X134359734Y-117847679D01*
X134294889Y-117828182D01*
X134223400Y-117806904D01*
X134160263Y-117788308D01*
X134157750Y-117787574D01*
X134114969Y-117773684D01*
X134085779Y-117761429D01*
X134074741Y-117752846D01*
X134076018Y-117751082D01*
X134093130Y-117744891D01*
X134129787Y-117733128D01*
X134181378Y-117717225D01*
X134243294Y-117698614D01*
X134277352Y-117688543D01*
X134462822Y-117634007D01*
X134462822Y-117518264D01*
X134170471Y-117425737D01*
X134088462Y-117399744D01*
X134013987Y-117376066D01*
X133950544Y-117355820D01*
X133901632Y-117340126D01*
X133870749Y-117330102D01*
X133861726Y-117327055D01*
X133852487Y-117329467D01*
X133848441Y-117348408D01*
X133848846Y-117387823D01*
X133849152Y-117393993D01*
X133852971Y-117467086D01*
X134029010Y-117514957D01*
X134093211Y-117532553D01*
X134149649Y-117548277D01*
X134193422Y-117560746D01*
X134219630Y-117568574D01*
X134223903Y-117570020D01*
X134218990Y-117576014D01*
X134193532Y-117588101D01*
X134150997Y-117604893D01*
X134094850Y-117625003D01*
X134044130Y-117642003D01*
X133845504Y-117706794D01*
X133849237Y-117756524D01*
G37*
X133849237Y-117756524D02*
X133852971Y-117806255D01*
X134242773Y-117936291D01*
X134173614Y-117956678D01*
X134130874Y-117968946D01*
X134073115Y-117985085D01*
X134009625Y-118002512D01*
X133975570Y-118011726D01*
X133846683Y-118046388D01*
X133846683Y-118189391D01*
X133981857Y-118146646D01*
X134048342Y-118125596D01*
X134128539Y-118100167D01*
X134212193Y-118073610D01*
X134286782Y-118049902D01*
X134456535Y-117995902D01*
X134460328Y-117937598D01*
X134464122Y-117879295D01*
X134359734Y-117847679D01*
X134294889Y-117828182D01*
X134223400Y-117806904D01*
X134160263Y-117788308D01*
X134157750Y-117787574D01*
X134114969Y-117773684D01*
X134085779Y-117761429D01*
X134074741Y-117752846D01*
X134076018Y-117751082D01*
X134093130Y-117744891D01*
X134129787Y-117733128D01*
X134181378Y-117717225D01*
X134243294Y-117698614D01*
X134277352Y-117688543D01*
X134462822Y-117634007D01*
X134462822Y-117518264D01*
X134170471Y-117425737D01*
X134088462Y-117399744D01*
X134013987Y-117376066D01*
X133950544Y-117355820D01*
X133901632Y-117340126D01*
X133870749Y-117330102D01*
X133861726Y-117327055D01*
X133852487Y-117329467D01*
X133848441Y-117348408D01*
X133848846Y-117387823D01*
X133849152Y-117393993D01*
X133852971Y-117467086D01*
X134029010Y-117514957D01*
X134093211Y-117532553D01*
X134149649Y-117548277D01*
X134193422Y-117560746D01*
X134219630Y-117568574D01*
X134223903Y-117570020D01*
X134218990Y-117576014D01*
X134193532Y-117588101D01*
X134150997Y-117604893D01*
X134094850Y-117625003D01*
X134044130Y-117642003D01*
X133845504Y-117706794D01*
X133849237Y-117756524D01*
G36*
X133850417Y-118513411D02*
G01*
X133863290Y-118566411D01*
X133870110Y-118581731D01*
X133887974Y-118611428D01*
X133908093Y-118634220D01*
X133933962Y-118651083D01*
X133969073Y-118662998D01*
X134016920Y-118670942D01*
X134080996Y-118675894D01*
X134164794Y-118678831D01*
X134220768Y-118679947D01*
X134462822Y-118684052D01*
X134462822Y-118613932D01*
X134461038Y-118571393D01*
X134454942Y-118549476D01*
X134444706Y-118543812D01*
X134433637Y-118540821D01*
X134435754Y-118527451D01*
X134444629Y-118509233D01*
X134458233Y-118463624D01*
X134461899Y-118405007D01*
X134455903Y-118343354D01*
X134440521Y-118288638D01*
X134438386Y-118283730D01*
X134403255Y-118233723D01*
X134354419Y-118200756D01*
X134297333Y-118185587D01*
X134276824Y-118186746D01*
X134276824Y-118310508D01*
X134304425Y-118321413D01*
X134324204Y-118353745D01*
X134334819Y-118405910D01*
X134336228Y-118433787D01*
X134332620Y-118480247D01*
X134318597Y-118511129D01*
X134311931Y-118518664D01*
X134275666Y-118539076D01*
X134242773Y-118543812D01*
X134198763Y-118543812D01*
X134198763Y-118482513D01*
X134202395Y-118411256D01*
X134213818Y-118361276D01*
X134233824Y-118329696D01*
X134242743Y-118322626D01*
X134276824Y-118310508D01*
X134276824Y-118186746D01*
X134237456Y-118188971D01*
X134180244Y-118211663D01*
X134141580Y-118242624D01*
X134124864Y-118261376D01*
X134113878Y-118279733D01*
X134107180Y-118303619D01*
X134103326Y-118338957D01*
X134100873Y-118391669D01*
X134100168Y-118412577D01*
X134095879Y-118543812D01*
X134056158Y-118543620D01*
X134014405Y-118538537D01*
X133989158Y-118520162D01*
X133973030Y-118483039D01*
X133972742Y-118482043D01*
X133966400Y-118429410D01*
X133974684Y-118377906D01*
X133994827Y-118339630D01*
X134004773Y-118324272D01*
X134003397Y-118307730D01*
X133988987Y-118282275D01*
X133978817Y-118267328D01*
X133957088Y-118238091D01*
X133940800Y-118219980D01*
X133936137Y-118217074D01*
X133912005Y-118229040D01*
X133883185Y-118264396D01*
X133873461Y-118279753D01*
X133856714Y-118323901D01*
X133847227Y-118383398D01*
X133845095Y-118449487D01*
X133850417Y-118513411D01*
G37*
X133850417Y-118513411D02*
X133863290Y-118566411D01*
X133870110Y-118581731D01*
X133887974Y-118611428D01*
X133908093Y-118634220D01*
X133933962Y-118651083D01*
X133969073Y-118662998D01*
X134016920Y-118670942D01*
X134080996Y-118675894D01*
X134164794Y-118678831D01*
X134220768Y-118679947D01*
X134462822Y-118684052D01*
X134462822Y-118613932D01*
X134461038Y-118571393D01*
X134454942Y-118549476D01*
X134444706Y-118543812D01*
X134433637Y-118540821D01*
X134435754Y-118527451D01*
X134444629Y-118509233D01*
X134458233Y-118463624D01*
X134461899Y-118405007D01*
X134455903Y-118343354D01*
X134440521Y-118288638D01*
X134438386Y-118283730D01*
X134403255Y-118233723D01*
X134354419Y-118200756D01*
X134297333Y-118185587D01*
X134276824Y-118186746D01*
X134276824Y-118310508D01*
X134304425Y-118321413D01*
X134324204Y-118353745D01*
X134334819Y-118405910D01*
X134336228Y-118433787D01*
X134332620Y-118480247D01*
X134318597Y-118511129D01*
X134311931Y-118518664D01*
X134275666Y-118539076D01*
X134242773Y-118543812D01*
X134198763Y-118543812D01*
X134198763Y-118482513D01*
X134202395Y-118411256D01*
X134213818Y-118361276D01*
X134233824Y-118329696D01*
X134242743Y-118322626D01*
X134276824Y-118310508D01*
X134276824Y-118186746D01*
X134237456Y-118188971D01*
X134180244Y-118211663D01*
X134141580Y-118242624D01*
X134124864Y-118261376D01*
X134113878Y-118279733D01*
X134107180Y-118303619D01*
X134103326Y-118338957D01*
X134100873Y-118391669D01*
X134100168Y-118412577D01*
X134095879Y-118543812D01*
X134056158Y-118543620D01*
X134014405Y-118538537D01*
X133989158Y-118520162D01*
X133973030Y-118483039D01*
X133972742Y-118482043D01*
X133966400Y-118429410D01*
X133974684Y-118377906D01*
X133994827Y-118339630D01*
X134004773Y-118324272D01*
X134003397Y-118307730D01*
X133988987Y-118282275D01*
X133978817Y-118267328D01*
X133957088Y-118238091D01*
X133940800Y-118219980D01*
X133936137Y-118217074D01*
X133912005Y-118229040D01*
X133883185Y-118264396D01*
X133873461Y-118279753D01*
X133856714Y-118323901D01*
X133847227Y-118383398D01*
X133845095Y-118449487D01*
X133850417Y-118513411D01*
G36*
X133846486Y-119110255D02*
G01*
X133856015Y-119158595D01*
X133870125Y-119186114D01*
X133893568Y-119215064D01*
X133945571Y-119173876D01*
X133977064Y-119148482D01*
X133992428Y-119131238D01*
X133994776Y-119114102D01*
X133987217Y-119089027D01*
X133982941Y-119077257D01*
X133976631Y-119029270D01*
X133990156Y-118985324D01*
X134020710Y-118953060D01*
X134030452Y-118947819D01*
X134056258Y-118942112D01*
X134103817Y-118937706D01*
X134169758Y-118934811D01*
X134250710Y-118933631D01*
X134262226Y-118933614D01*
X134462822Y-118933614D01*
X134462822Y-118795297D01*
X133846683Y-118795297D01*
X133846683Y-118864456D01*
X133847725Y-118904333D01*
X133852358Y-118925107D01*
X133862849Y-118932789D01*
X133872745Y-118933614D01*
X133898806Y-118933614D01*
X133872745Y-118966745D01*
X133854965Y-119004735D01*
X133846174Y-119055770D01*
X133846486Y-119110255D01*
G37*
X133846486Y-119110255D02*
X133856015Y-119158595D01*
X133870125Y-119186114D01*
X133893568Y-119215064D01*
X133945571Y-119173876D01*
X133977064Y-119148482D01*
X133992428Y-119131238D01*
X133994776Y-119114102D01*
X133987217Y-119089027D01*
X133982941Y-119077257D01*
X133976631Y-119029270D01*
X133990156Y-118985324D01*
X134020710Y-118953060D01*
X134030452Y-118947819D01*
X134056258Y-118942112D01*
X134103817Y-118937706D01*
X134169758Y-118934811D01*
X134250710Y-118933631D01*
X134262226Y-118933614D01*
X134462822Y-118933614D01*
X134462822Y-118795297D01*
X133846683Y-118795297D01*
X133846683Y-118864456D01*
X133847725Y-118904333D01*
X133852358Y-118925107D01*
X133862849Y-118932789D01*
X133872745Y-118933614D01*
X133898806Y-118933614D01*
X133872745Y-118966745D01*
X133854965Y-119004735D01*
X133846174Y-119055770D01*
X133846486Y-119110255D01*
G36*
X133849970Y-119507581D02*
G01*
X133865597Y-119567685D01*
X133897848Y-119618021D01*
X133921940Y-119642393D01*
X133978895Y-119682345D01*
X134044965Y-119705242D01*
X134126182Y-119713108D01*
X134132748Y-119713148D01*
X134198763Y-119713218D01*
X134198763Y-119333264D01*
X134233342Y-119341363D01*
X134264659Y-119355987D01*
X134297291Y-119381581D01*
X134302500Y-119386935D01*
X134330694Y-119432943D01*
X134335475Y-119485410D01*
X134316926Y-119545803D01*
X134311931Y-119556040D01*
X134296745Y-119587439D01*
X134288094Y-119608470D01*
X134287293Y-119612139D01*
X134295063Y-119624948D01*
X134314072Y-119649378D01*
X134324460Y-119661779D01*
X134348321Y-119687476D01*
X134364077Y-119695915D01*
X134378571Y-119690058D01*
X134382534Y-119686928D01*
X134399879Y-119665725D01*
X134420959Y-119630738D01*
X134433265Y-119606337D01*
X134454946Y-119537072D01*
X134461971Y-119460388D01*
X134453647Y-119387765D01*
X134447686Y-119367426D01*
X134413952Y-119304476D01*
X134362045Y-119257815D01*
X134291459Y-119227173D01*
X134201692Y-119212282D01*
X134154753Y-119210647D01*
X134086413Y-119215421D01*
X134086413Y-119335990D01*
X134091465Y-119347652D01*
X134095429Y-119378998D01*
X134097768Y-119424571D01*
X134098169Y-119455446D01*
X134097783Y-119510981D01*
X134095975Y-119546033D01*
X134091773Y-119565262D01*
X134084203Y-119573330D01*
X134073218Y-119574901D01*
X134039381Y-119564121D01*
X134005940Y-119536980D01*
X133980272Y-119501277D01*
X133969772Y-119465560D01*
X133979086Y-119417048D01*
X134006013Y-119375053D01*
X134044827Y-119345936D01*
X134086413Y-119335990D01*
X134086413Y-119215421D01*
X134055236Y-119217599D01*
X133975949Y-119239055D01*
X133916263Y-119275470D01*
X133875549Y-119327297D01*
X133853179Y-119394990D01*
X133848871Y-119431662D01*
X133849970Y-119507581D01*
G37*
X133849970Y-119507581D02*
X133865597Y-119567685D01*
X133897848Y-119618021D01*
X133921940Y-119642393D01*
X133978895Y-119682345D01*
X134044965Y-119705242D01*
X134126182Y-119713108D01*
X134132748Y-119713148D01*
X134198763Y-119713218D01*
X134198763Y-119333264D01*
X134233342Y-119341363D01*
X134264659Y-119355987D01*
X134297291Y-119381581D01*
X134302500Y-119386935D01*
X134330694Y-119432943D01*
X134335475Y-119485410D01*
X134316926Y-119545803D01*
X134311931Y-119556040D01*
X134296745Y-119587439D01*
X134288094Y-119608470D01*
X134287293Y-119612139D01*
X134295063Y-119624948D01*
X134314072Y-119649378D01*
X134324460Y-119661779D01*
X134348321Y-119687476D01*
X134364077Y-119695915D01*
X134378571Y-119690058D01*
X134382534Y-119686928D01*
X134399879Y-119665725D01*
X134420959Y-119630738D01*
X134433265Y-119606337D01*
X134454946Y-119537072D01*
X134461971Y-119460388D01*
X134453647Y-119387765D01*
X134447686Y-119367426D01*
X134413952Y-119304476D01*
X134362045Y-119257815D01*
X134291459Y-119227173D01*
X134201692Y-119212282D01*
X134154753Y-119210647D01*
X134086413Y-119215421D01*
X134086413Y-119335990D01*
X134091465Y-119347652D01*
X134095429Y-119378998D01*
X134097768Y-119424571D01*
X134098169Y-119455446D01*
X134097783Y-119510981D01*
X134095975Y-119546033D01*
X134091773Y-119565262D01*
X134084203Y-119573330D01*
X134073218Y-119574901D01*
X134039381Y-119564121D01*
X134005940Y-119536980D01*
X133980272Y-119501277D01*
X133969772Y-119465560D01*
X133979086Y-119417048D01*
X134006013Y-119375053D01*
X134044827Y-119345936D01*
X134086413Y-119335990D01*
X134086413Y-119215421D01*
X134055236Y-119217599D01*
X133975949Y-119239055D01*
X133916263Y-119275470D01*
X133875549Y-119327297D01*
X133853179Y-119394990D01*
X133848871Y-119431662D01*
X133849970Y-119507581D01*
G36*
X132910148Y-114936739D02*
G01*
X132939231Y-115002521D01*
X132987793Y-115052460D01*
X133055908Y-115086626D01*
X133143651Y-115105093D01*
X133157351Y-115106417D01*
X133253939Y-115107454D01*
X133338602Y-115094007D01*
X133407221Y-115066892D01*
X133429294Y-115052373D01*
X133476011Y-115001799D01*
X133506268Y-114937391D01*
X133518824Y-114865334D01*
X133512439Y-114791815D01*
X133492772Y-114735928D01*
X133459629Y-114687868D01*
X133416175Y-114648588D01*
X133415158Y-114647908D01*
X133388338Y-114631956D01*
X133361368Y-114621590D01*
X133327332Y-114615312D01*
X133279310Y-114611627D01*
X133239931Y-114610003D01*
X133204219Y-114609328D01*
X133204219Y-114735045D01*
X133239770Y-114736274D01*
X133287094Y-114740734D01*
X133317465Y-114748603D01*
X133339072Y-114762793D01*
X133351694Y-114776083D01*
X133378122Y-114823198D01*
X133381653Y-114872495D01*
X133362639Y-114918407D01*
X133341331Y-114941362D01*
X133319859Y-114957904D01*
X133299313Y-114967579D01*
X133272574Y-114971826D01*
X133232523Y-114972080D01*
X133195638Y-114970772D01*
X133142947Y-114967957D01*
X133108772Y-114963495D01*
X133086480Y-114955452D01*
X133069442Y-114941897D01*
X133059703Y-114931155D01*
X133034123Y-114886223D01*
X133032847Y-114837751D01*
X133047999Y-114797106D01*
X133079642Y-114762433D01*
X133131620Y-114741776D01*
X133204219Y-114735045D01*
X133204219Y-114609328D01*
X133161621Y-114608521D01*
X133103056Y-114611052D01*
X133059007Y-114618638D01*
X133024248Y-114632319D01*
X132993551Y-114653135D01*
X132984436Y-114660853D01*
X132939021Y-114709111D01*
X132912493Y-114760872D01*
X132901379Y-114824172D01*
X132900471Y-114855039D01*
X132910148Y-114936739D01*
G37*
X132910148Y-114936739D02*
X132939231Y-115002521D01*
X132987793Y-115052460D01*
X133055908Y-115086626D01*
X133143651Y-115105093D01*
X133157351Y-115106417D01*
X133253939Y-115107454D01*
X133338602Y-115094007D01*
X133407221Y-115066892D01*
X133429294Y-115052373D01*
X133476011Y-115001799D01*
X133506268Y-114937391D01*
X133518824Y-114865334D01*
X133512439Y-114791815D01*
X133492772Y-114735928D01*
X133459629Y-114687868D01*
X133416175Y-114648588D01*
X133415158Y-114647908D01*
X133388338Y-114631956D01*
X133361368Y-114621590D01*
X133327332Y-114615312D01*
X133279310Y-114611627D01*
X133239931Y-114610003D01*
X133204219Y-114609328D01*
X133204219Y-114735045D01*
X133239770Y-114736274D01*
X133287094Y-114740734D01*
X133317465Y-114748603D01*
X133339072Y-114762793D01*
X133351694Y-114776083D01*
X133378122Y-114823198D01*
X133381653Y-114872495D01*
X133362639Y-114918407D01*
X133341331Y-114941362D01*
X133319859Y-114957904D01*
X133299313Y-114967579D01*
X133272574Y-114971826D01*
X133232523Y-114972080D01*
X133195638Y-114970772D01*
X133142947Y-114967957D01*
X133108772Y-114963495D01*
X133086480Y-114955452D01*
X133069442Y-114941897D01*
X133059703Y-114931155D01*
X133034123Y-114886223D01*
X133032847Y-114837751D01*
X133047999Y-114797106D01*
X133079642Y-114762433D01*
X133131620Y-114741776D01*
X133204219Y-114735045D01*
X133204219Y-114609328D01*
X133161621Y-114608521D01*
X133103056Y-114611052D01*
X133059007Y-114618638D01*
X133024248Y-114632319D01*
X132993551Y-114653135D01*
X132984436Y-114660853D01*
X132939021Y-114709111D01*
X132912493Y-114760872D01*
X132901379Y-114824172D01*
X132900471Y-114855039D01*
X132910148Y-114936739D01*
G36*
X132917614Y-116118301D02*
G01*
X132923514Y-116130832D01*
X132955283Y-116174201D01*
X133001646Y-116215210D01*
X133052696Y-116245832D01*
X133076166Y-116254541D01*
X133118091Y-116262488D01*
X133168757Y-116267226D01*
X133189679Y-116267801D01*
X133255693Y-116267871D01*
X133255693Y-115887917D01*
X133290273Y-115896017D01*
X133331170Y-115915896D01*
X133366514Y-115950653D01*
X133389282Y-115992002D01*
X133394010Y-116018351D01*
X133388273Y-116054084D01*
X133373882Y-116096718D01*
X133367262Y-116111201D01*
X133340513Y-116164760D01*
X133375376Y-116210467D01*
X133398955Y-116236842D01*
X133418417Y-116250876D01*
X133424129Y-116251586D01*
X133437973Y-116239049D01*
X133459012Y-116211572D01*
X133475425Y-116186634D01*
X133504930Y-116119336D01*
X133518284Y-116043890D01*
X133514812Y-115969112D01*
X133496663Y-115909505D01*
X133457784Y-115848059D01*
X133406595Y-115804392D01*
X133340367Y-115777074D01*
X133256371Y-115764678D01*
X133217936Y-115763579D01*
X133129861Y-115767978D01*
X133127299Y-115768518D01*
X133127299Y-115894418D01*
X133135558Y-115897885D01*
X133140113Y-115912137D01*
X133142065Y-115941530D01*
X133142517Y-115990425D01*
X133142525Y-116009252D01*
X133141843Y-116066533D01*
X133139364Y-116102859D01*
X133134443Y-116122396D01*
X133126434Y-116129310D01*
X133123862Y-116129555D01*
X133103423Y-116121664D01*
X133074789Y-116101915D01*
X133064763Y-116093425D01*
X133036408Y-116061906D01*
X133025259Y-116029051D01*
X133024327Y-116011349D01*
X133035981Y-115963461D01*
X133067285Y-115923301D01*
X133112752Y-115897827D01*
X133114233Y-115897375D01*
X133127299Y-115894418D01*
X133127299Y-115768518D01*
X133060510Y-115782608D01*
X133005025Y-115808962D01*
X132965639Y-115841193D01*
X132922931Y-115900783D01*
X132900109Y-115970832D01*
X132898046Y-116045339D01*
X132917614Y-116118301D01*
G37*
X132917614Y-116118301D02*
X132923514Y-116130832D01*
X132955283Y-116174201D01*
X133001646Y-116215210D01*
X133052696Y-116245832D01*
X133076166Y-116254541D01*
X133118091Y-116262488D01*
X133168757Y-116267226D01*
X133189679Y-116267801D01*
X133255693Y-116267871D01*
X133255693Y-115887917D01*
X133290273Y-115896017D01*
X133331170Y-115915896D01*
X133366514Y-115950653D01*
X133389282Y-115992002D01*
X133394010Y-116018351D01*
X133388273Y-116054084D01*
X133373882Y-116096718D01*
X133367262Y-116111201D01*
X133340513Y-116164760D01*
X133375376Y-116210467D01*
X133398955Y-116236842D01*
X133418417Y-116250876D01*
X133424129Y-116251586D01*
X133437973Y-116239049D01*
X133459012Y-116211572D01*
X133475425Y-116186634D01*
X133504930Y-116119336D01*
X133518284Y-116043890D01*
X133514812Y-115969112D01*
X133496663Y-115909505D01*
X133457784Y-115848059D01*
X133406595Y-115804392D01*
X133340367Y-115777074D01*
X133256371Y-115764678D01*
X133217936Y-115763579D01*
X133129861Y-115767978D01*
X133127299Y-115768518D01*
X133127299Y-115894418D01*
X133135558Y-115897885D01*
X133140113Y-115912137D01*
X133142065Y-115941530D01*
X133142517Y-115990425D01*
X133142525Y-116009252D01*
X133141843Y-116066533D01*
X133139364Y-116102859D01*
X133134443Y-116122396D01*
X133126434Y-116129310D01*
X133123862Y-116129555D01*
X133103423Y-116121664D01*
X133074789Y-116101915D01*
X133064763Y-116093425D01*
X133036408Y-116061906D01*
X133025259Y-116029051D01*
X133024327Y-116011349D01*
X133035981Y-115963461D01*
X133067285Y-115923301D01*
X133112752Y-115897827D01*
X133114233Y-115897375D01*
X133127299Y-115894418D01*
X133127299Y-115768518D01*
X133060510Y-115782608D01*
X133005025Y-115808962D01*
X132965639Y-115841193D01*
X132922931Y-115900783D01*
X132900109Y-115970832D01*
X132898046Y-116045339D01*
X132917614Y-116118301D01*
G36*
X132901452Y-117489017D02*
G01*
X132910482Y-117536634D01*
X132929370Y-117586034D01*
X132931777Y-117591312D01*
X132951476Y-117628774D01*
X132969781Y-117654717D01*
X132981508Y-117663103D01*
X133000632Y-117655117D01*
X133028850Y-117635720D01*
X133039384Y-117627110D01*
X133080847Y-117591628D01*
X133053858Y-117545885D01*
X133035878Y-117502350D01*
X133026267Y-117452050D01*
X133025660Y-117403812D01*
X133034691Y-117366467D01*
X133040327Y-117357505D01*
X133066171Y-117340437D01*
X133095941Y-117338363D01*
X133119197Y-117351134D01*
X133123708Y-117358688D01*
X133129309Y-117381325D01*
X133135892Y-117421115D01*
X133142183Y-117470166D01*
X133143170Y-117479215D01*
X133156798Y-117557996D01*
X133179946Y-117615136D01*
X133214752Y-117653030D01*
X133263354Y-117674079D01*
X133322718Y-117680635D01*
X133390198Y-117671577D01*
X133443188Y-117642164D01*
X133481783Y-117592278D01*
X133506081Y-117521800D01*
X133515667Y-117443565D01*
X133515552Y-117379766D01*
X133506845Y-117328016D01*
X133494825Y-117292673D01*
X133473880Y-117248017D01*
X133449574Y-117206747D01*
X133438876Y-117192079D01*
X133408084Y-117154357D01*
X133362049Y-117199852D01*
X133316013Y-117245347D01*
X133350243Y-117297072D01*
X133375952Y-117348952D01*
X133389399Y-117404351D01*
X133390818Y-117457605D01*
X133380443Y-117503049D01*
X133358507Y-117535016D01*
X133339998Y-117545338D01*
X133310314Y-117543789D01*
X133287615Y-117518140D01*
X133271940Y-117468460D01*
X133264695Y-117414031D01*
X133250873Y-117330264D01*
X133224796Y-117268033D01*
X133185699Y-117226507D01*
X133132820Y-117204853D01*
X133070126Y-117201853D01*
X133004642Y-117216671D01*
X132955144Y-117250454D01*
X132921408Y-117303505D01*
X132903207Y-117376126D01*
X132899639Y-117429928D01*
X132901452Y-117489017D01*
G37*
X132901452Y-117489017D02*
X132910482Y-117536634D01*
X132929370Y-117586034D01*
X132931777Y-117591312D01*
X132951476Y-117628774D01*
X132969781Y-117654717D01*
X132981508Y-117663103D01*
X133000632Y-117655117D01*
X133028850Y-117635720D01*
X133039384Y-117627110D01*
X133080847Y-117591628D01*
X133053858Y-117545885D01*
X133035878Y-117502350D01*
X133026267Y-117452050D01*
X133025660Y-117403812D01*
X133034691Y-117366467D01*
X133040327Y-117357505D01*
X133066171Y-117340437D01*
X133095941Y-117338363D01*
X133119197Y-117351134D01*
X133123708Y-117358688D01*
X133129309Y-117381325D01*
X133135892Y-117421115D01*
X133142183Y-117470166D01*
X133143170Y-117479215D01*
X133156798Y-117557996D01*
X133179946Y-117615136D01*
X133214752Y-117653030D01*
X133263354Y-117674079D01*
X133322718Y-117680635D01*
X133390198Y-117671577D01*
X133443188Y-117642164D01*
X133481783Y-117592278D01*
X133506081Y-117521800D01*
X133515667Y-117443565D01*
X133515552Y-117379766D01*
X133506845Y-117328016D01*
X133494825Y-117292673D01*
X133473880Y-117248017D01*
X133449574Y-117206747D01*
X133438876Y-117192079D01*
X133408084Y-117154357D01*
X133362049Y-117199852D01*
X133316013Y-117245347D01*
X133350243Y-117297072D01*
X133375952Y-117348952D01*
X133389399Y-117404351D01*
X133390818Y-117457605D01*
X133380443Y-117503049D01*
X133358507Y-117535016D01*
X133339998Y-117545338D01*
X133310314Y-117543789D01*
X133287615Y-117518140D01*
X133271940Y-117468460D01*
X133264695Y-117414031D01*
X133250873Y-117330264D01*
X133224796Y-117268033D01*
X133185699Y-117226507D01*
X133132820Y-117204853D01*
X133070126Y-117201853D01*
X133004642Y-117216671D01*
X132955144Y-117250454D01*
X132921408Y-117303505D01*
X132903207Y-117376126D01*
X132899639Y-117429928D01*
X132901452Y-117489017D01*
G36*
X132911055Y-118085762D02*
G01*
X132945692Y-118149363D01*
X133000372Y-118199123D01*
X133044842Y-118222568D01*
X133084121Y-118232634D01*
X133140116Y-118239156D01*
X133204621Y-118241951D01*
X133269429Y-118240836D01*
X133326334Y-118235626D01*
X133356727Y-118229541D01*
X133398306Y-118209014D01*
X133442468Y-118173463D01*
X133481087Y-118130619D01*
X133506034Y-118088211D01*
X133506430Y-118087177D01*
X133517331Y-118034553D01*
X133517601Y-117972188D01*
X133507676Y-117912924D01*
X133499722Y-117890040D01*
X133466300Y-117831102D01*
X133422511Y-117788890D01*
X133364538Y-117761156D01*
X133288565Y-117745651D01*
X133248771Y-117742143D01*
X133198766Y-117742590D01*
X133198766Y-117877376D01*
X133271732Y-117881917D01*
X133327334Y-117894986D01*
X133362861Y-117915756D01*
X133373020Y-117930552D01*
X133380104Y-117968464D01*
X133378007Y-118013527D01*
X133367812Y-118052487D01*
X133362204Y-118062704D01*
X133329538Y-118089659D01*
X133279545Y-118107451D01*
X133218705Y-118115024D01*
X133153497Y-118111325D01*
X133114253Y-118103057D01*
X133068805Y-118079320D01*
X133040396Y-118041849D01*
X133030573Y-117996720D01*
X133040887Y-117950011D01*
X133066112Y-117914132D01*
X133086925Y-117895277D01*
X133107439Y-117884272D01*
X133135203Y-117879026D01*
X133177762Y-117877449D01*
X133198766Y-117877376D01*
X133198766Y-117742590D01*
X133142580Y-117743094D01*
X133055501Y-117760388D01*
X132987530Y-117794029D01*
X132938664Y-117844018D01*
X132908899Y-117910356D01*
X132905448Y-117924601D01*
X132897345Y-118010210D01*
X132911055Y-118085762D01*
G37*
X132911055Y-118085762D02*
X132945692Y-118149363D01*
X133000372Y-118199123D01*
X133044842Y-118222568D01*
X133084121Y-118232634D01*
X133140116Y-118239156D01*
X133204621Y-118241951D01*
X133269429Y-118240836D01*
X133326334Y-118235626D01*
X133356727Y-118229541D01*
X133398306Y-118209014D01*
X133442468Y-118173463D01*
X133481087Y-118130619D01*
X133506034Y-118088211D01*
X133506430Y-118087177D01*
X133517331Y-118034553D01*
X133517601Y-117972188D01*
X133507676Y-117912924D01*
X133499722Y-117890040D01*
X133466300Y-117831102D01*
X133422511Y-117788890D01*
X133364538Y-117761156D01*
X133288565Y-117745651D01*
X133248771Y-117742143D01*
X133198766Y-117742590D01*
X133198766Y-117877376D01*
X133271732Y-117881917D01*
X133327334Y-117894986D01*
X133362861Y-117915756D01*
X133373020Y-117930552D01*
X133380104Y-117968464D01*
X133378007Y-118013527D01*
X133367812Y-118052487D01*
X133362204Y-118062704D01*
X133329538Y-118089659D01*
X133279545Y-118107451D01*
X133218705Y-118115024D01*
X133153497Y-118111325D01*
X133114253Y-118103057D01*
X133068805Y-118079320D01*
X133040396Y-118041849D01*
X133030573Y-117996720D01*
X133040887Y-117950011D01*
X133066112Y-117914132D01*
X133086925Y-117895277D01*
X133107439Y-117884272D01*
X133135203Y-117879026D01*
X133177762Y-117877449D01*
X133198766Y-117877376D01*
X133198766Y-117742590D01*
X133142580Y-117743094D01*
X133055501Y-117760388D01*
X132987530Y-117794029D01*
X132938664Y-117844018D01*
X132908899Y-117910356D01*
X132905448Y-117924601D01*
X132897345Y-118010210D01*
X132911055Y-118085762D01*
G36*
X133099342Y-118468367D02*
G01*
X133191563Y-118469555D01*
X133261610Y-118473897D01*
X133312381Y-118482558D01*
X133346772Y-118496704D01*
X133367679Y-118517500D01*
X133378000Y-118546110D01*
X133380636Y-118581535D01*
X133377682Y-118618636D01*
X133366889Y-118646818D01*
X133345360Y-118667243D01*
X133310199Y-118681079D01*
X133258510Y-118689491D01*
X133187394Y-118693643D01*
X133099342Y-118694703D01*
X132903614Y-118694703D01*
X132903614Y-118833020D01*
X133507179Y-118833020D01*
X133507179Y-118763862D01*
X133505489Y-118722170D01*
X133499556Y-118700701D01*
X133488293Y-118694703D01*
X133478261Y-118691091D01*
X133480383Y-118676714D01*
X133494580Y-118647736D01*
X133516480Y-118581319D01*
X133514928Y-118510875D01*
X133491147Y-118443377D01*
X133472362Y-118411233D01*
X133452022Y-118386715D01*
X133426573Y-118368804D01*
X133392458Y-118356479D01*
X133346121Y-118348723D01*
X133284007Y-118344516D01*
X133202561Y-118342840D01*
X133139578Y-118342624D01*
X132903614Y-118342624D01*
X132903614Y-118468367D01*
X133099342Y-118468367D01*
G37*
X133099342Y-118468367D02*
X133191563Y-118469555D01*
X133261610Y-118473897D01*
X133312381Y-118482558D01*
X133346772Y-118496704D01*
X133367679Y-118517500D01*
X133378000Y-118546110D01*
X133380636Y-118581535D01*
X133377682Y-118618636D01*
X133366889Y-118646818D01*
X133345360Y-118667243D01*
X133310199Y-118681079D01*
X133258510Y-118689491D01*
X133187394Y-118693643D01*
X133099342Y-118694703D01*
X132903614Y-118694703D01*
X132903614Y-118833020D01*
X133507179Y-118833020D01*
X133507179Y-118763862D01*
X133505489Y-118722170D01*
X133499556Y-118700701D01*
X133488293Y-118694703D01*
X133478261Y-118691091D01*
X133480383Y-118676714D01*
X133494580Y-118647736D01*
X133516480Y-118581319D01*
X133514928Y-118510875D01*
X133491147Y-118443377D01*
X133472362Y-118411233D01*
X133452022Y-118386715D01*
X133426573Y-118368804D01*
X133392458Y-118356479D01*
X133346121Y-118348723D01*
X133284007Y-118344516D01*
X133202561Y-118342840D01*
X133139578Y-118342624D01*
X132903614Y-118342624D01*
X132903614Y-118468367D01*
X133099342Y-118468367D01*
G36*
X132908880Y-119692226D02*
G01*
X132939830Y-119765080D01*
X132954895Y-119788027D01*
X132978048Y-119817354D01*
X132996253Y-119835764D01*
X133002183Y-119838961D01*
X133015340Y-119829935D01*
X133037667Y-119806837D01*
X133053250Y-119788344D01*
X133093926Y-119737728D01*
X133060295Y-119697760D01*
X133038584Y-119666874D01*
X133031090Y-119636759D01*
X133032920Y-119602292D01*
X133046528Y-119547561D01*
X133074772Y-119509886D01*
X133120433Y-119486991D01*
X133186289Y-119476597D01*
X133186331Y-119476595D01*
X133259939Y-119477494D01*
X133313946Y-119491463D01*
X133350716Y-119519328D01*
X133363168Y-119538325D01*
X133378673Y-119588776D01*
X133378683Y-119642663D01*
X133363638Y-119689546D01*
X133356287Y-119700644D01*
X133337511Y-119728476D01*
X133334434Y-119750236D01*
X133348409Y-119773704D01*
X133373510Y-119799649D01*
X133415880Y-119840716D01*
X133453464Y-119795121D01*
X133495882Y-119724674D01*
X133516785Y-119645233D01*
X133515272Y-119562215D01*
X133501411Y-119507694D01*
X133467135Y-119443970D01*
X133413212Y-119393005D01*
X133375149Y-119369851D01*
X133320536Y-119351099D01*
X133251369Y-119341715D01*
X133176407Y-119341643D01*
X133104409Y-119350824D01*
X133044137Y-119369199D01*
X133037958Y-119372093D01*
X132977351Y-119414952D01*
X132933224Y-119472979D01*
X132906493Y-119541591D01*
X132898073Y-119616201D01*
X132908880Y-119692226D01*
G37*
X132908880Y-119692226D02*
X132939830Y-119765080D01*
X132954895Y-119788027D01*
X132978048Y-119817354D01*
X132996253Y-119835764D01*
X133002183Y-119838961D01*
X133015340Y-119829935D01*
X133037667Y-119806837D01*
X133053250Y-119788344D01*
X133093926Y-119737728D01*
X133060295Y-119697760D01*
X133038584Y-119666874D01*
X133031090Y-119636759D01*
X133032920Y-119602292D01*
X133046528Y-119547561D01*
X133074772Y-119509886D01*
X133120433Y-119486991D01*
X133186289Y-119476597D01*
X133186331Y-119476595D01*
X133259939Y-119477494D01*
X133313946Y-119491463D01*
X133350716Y-119519328D01*
X133363168Y-119538325D01*
X133378673Y-119588776D01*
X133378683Y-119642663D01*
X133363638Y-119689546D01*
X133356287Y-119700644D01*
X133337511Y-119728476D01*
X133334434Y-119750236D01*
X133348409Y-119773704D01*
X133373510Y-119799649D01*
X133415880Y-119840716D01*
X133453464Y-119795121D01*
X133495882Y-119724674D01*
X133516785Y-119645233D01*
X133515272Y-119562215D01*
X133501411Y-119507694D01*
X133467135Y-119443970D01*
X133413212Y-119393005D01*
X133375149Y-119369851D01*
X133320536Y-119351099D01*
X133251369Y-119341715D01*
X133176407Y-119341643D01*
X133104409Y-119350824D01*
X133044137Y-119369199D01*
X133037958Y-119372093D01*
X132977351Y-119414952D01*
X132933224Y-119472979D01*
X132906493Y-119541591D01*
X132898073Y-119616201D01*
X132908880Y-119692226D01*
G36*
X132901457Y-120152898D02*
G01*
X132909279Y-120185096D01*
X132937921Y-120246825D01*
X132981667Y-120299610D01*
X133034117Y-120336141D01*
X133045893Y-120341160D01*
X133076740Y-120348045D01*
X133122371Y-120352864D01*
X133168492Y-120354505D01*
X133255693Y-120354505D01*
X133255693Y-120172178D01*
X133255978Y-120096979D01*
X133257704Y-120044003D01*
X133262181Y-120010325D01*
X133270720Y-119993020D01*
X133284630Y-119989163D01*
X133305222Y-119995829D01*
X133329315Y-120007770D01*
X133369525Y-120041080D01*
X133389558Y-120087368D01*
X133388905Y-120143944D01*
X133367101Y-120208031D01*
X133340193Y-120263417D01*
X133376532Y-120309375D01*
X133412872Y-120355333D01*
X133452819Y-120312096D01*
X133490563Y-120254374D01*
X133513320Y-120183386D01*
X133519688Y-120107029D01*
X133508268Y-120033199D01*
X133504393Y-120021287D01*
X133470506Y-119956399D01*
X133419986Y-119908130D01*
X133351325Y-119875465D01*
X133263014Y-119857385D01*
X133261121Y-119857175D01*
X133164878Y-119855556D01*
X133130542Y-119862100D01*
X133130542Y-119989852D01*
X133135822Y-120001584D01*
X133139867Y-120033438D01*
X133142176Y-120080397D01*
X133142525Y-120110154D01*
X133142306Y-120165648D01*
X133140916Y-120200346D01*
X133137251Y-120218601D01*
X133130210Y-120224766D01*
X133118690Y-120223195D01*
X133114233Y-120221878D01*
X133072355Y-120199382D01*
X133038604Y-120164003D01*
X133023773Y-120132780D01*
X133024668Y-120091301D01*
X133043164Y-120049269D01*
X133073786Y-120014012D01*
X133111062Y-119992854D01*
X133130542Y-119989852D01*
X133130542Y-119862100D01*
X133080229Y-119871690D01*
X133009191Y-119903698D01*
X132953779Y-119949701D01*
X132916009Y-120007821D01*
X132897896Y-120076180D01*
X132901457Y-120152898D01*
G37*
X132901457Y-120152898D02*
X132909279Y-120185096D01*
X132937921Y-120246825D01*
X132981667Y-120299610D01*
X133034117Y-120336141D01*
X133045893Y-120341160D01*
X133076740Y-120348045D01*
X133122371Y-120352864D01*
X133168492Y-120354505D01*
X133255693Y-120354505D01*
X133255693Y-120172178D01*
X133255978Y-120096979D01*
X133257704Y-120044003D01*
X133262181Y-120010325D01*
X133270720Y-119993020D01*
X133284630Y-119989163D01*
X133305222Y-119995829D01*
X133329315Y-120007770D01*
X133369525Y-120041080D01*
X133389558Y-120087368D01*
X133388905Y-120143944D01*
X133367101Y-120208031D01*
X133340193Y-120263417D01*
X133376532Y-120309375D01*
X133412872Y-120355333D01*
X133452819Y-120312096D01*
X133490563Y-120254374D01*
X133513320Y-120183386D01*
X133519688Y-120107029D01*
X133508268Y-120033199D01*
X133504393Y-120021287D01*
X133470506Y-119956399D01*
X133419986Y-119908130D01*
X133351325Y-119875465D01*
X133263014Y-119857385D01*
X133261121Y-119857175D01*
X133164878Y-119855556D01*
X133130542Y-119862100D01*
X133130542Y-119989852D01*
X133135822Y-120001584D01*
X133139867Y-120033438D01*
X133142176Y-120080397D01*
X133142525Y-120110154D01*
X133142306Y-120165648D01*
X133140916Y-120200346D01*
X133137251Y-120218601D01*
X133130210Y-120224766D01*
X133118690Y-120223195D01*
X133114233Y-120221878D01*
X133072355Y-120199382D01*
X133038604Y-120164003D01*
X133023773Y-120132780D01*
X133024668Y-120091301D01*
X133043164Y-120049269D01*
X133073786Y-120014012D01*
X133111062Y-119992854D01*
X133130542Y-119989852D01*
X133130542Y-119862100D01*
X133080229Y-119871690D01*
X133009191Y-119903698D01*
X132953779Y-119949701D01*
X132916009Y-120007821D01*
X132897896Y-120076180D01*
X132901457Y-120152898D01*
G36*
X132914002Y-116720988D02*
G01*
X132928950Y-116752283D01*
X132950541Y-116782591D01*
X132975391Y-116805682D01*
X133007087Y-116822500D01*
X133049214Y-116833994D01*
X133105358Y-116841109D01*
X133179106Y-116844793D01*
X133274044Y-116845992D01*
X133283985Y-116846011D01*
X133507179Y-116846287D01*
X133507179Y-116707970D01*
X133301418Y-116707970D01*
X133225189Y-116707872D01*
X133169939Y-116707191D01*
X133131501Y-116705349D01*
X133105706Y-116701767D01*
X133088384Y-116695868D01*
X133075368Y-116687073D01*
X133062507Y-116674820D01*
X133034873Y-116631953D01*
X133029745Y-116585157D01*
X133047217Y-116540576D01*
X133060221Y-116525072D01*
X133072447Y-116513690D01*
X133085540Y-116505519D01*
X133103615Y-116500026D01*
X133130787Y-116496680D01*
X133171170Y-116494949D01*
X133228879Y-116494303D01*
X133299132Y-116494208D01*
X133507179Y-116494208D01*
X133507179Y-116355891D01*
X132903614Y-116355891D01*
X132903614Y-116425050D01*
X132905256Y-116466572D01*
X132911087Y-116487994D01*
X132922461Y-116494205D01*
X132922798Y-116494208D01*
X132933938Y-116497090D01*
X132932674Y-116509801D01*
X132920434Y-116535074D01*
X132902424Y-116592395D01*
X132900421Y-116657963D01*
X132914002Y-116720988D01*
G37*
X132914002Y-116720988D02*
X132928950Y-116752283D01*
X132950541Y-116782591D01*
X132975391Y-116805682D01*
X133007087Y-116822500D01*
X133049214Y-116833994D01*
X133105358Y-116841109D01*
X133179106Y-116844793D01*
X133274044Y-116845992D01*
X133283985Y-116846011D01*
X133507179Y-116846287D01*
X133507179Y-116707970D01*
X133301418Y-116707970D01*
X133225189Y-116707872D01*
X133169939Y-116707191D01*
X133131501Y-116705349D01*
X133105706Y-116701767D01*
X133088384Y-116695868D01*
X133075368Y-116687073D01*
X133062507Y-116674820D01*
X133034873Y-116631953D01*
X133029745Y-116585157D01*
X133047217Y-116540576D01*
X133060221Y-116525072D01*
X133072447Y-116513690D01*
X133085540Y-116505519D01*
X133103615Y-116500026D01*
X133130787Y-116496680D01*
X133171170Y-116494949D01*
X133228879Y-116494303D01*
X133299132Y-116494208D01*
X133507179Y-116494208D01*
X133507179Y-116355891D01*
X132903614Y-116355891D01*
X132903614Y-116425050D01*
X132905256Y-116466572D01*
X132911087Y-116487994D01*
X132922461Y-116494205D01*
X132922798Y-116494208D01*
X132933938Y-116497090D01*
X132932674Y-116509801D01*
X132920434Y-116535074D01*
X132902424Y-116592395D01*
X132900421Y-116657963D01*
X132914002Y-116720988D01*
G36*
X132903030Y-119274460D02*
G01*
X132916245Y-119317711D01*
X132932941Y-119345558D01*
X132946145Y-119354629D01*
X132961797Y-119352132D01*
X132986385Y-119335931D01*
X133003800Y-119322232D01*
X133035283Y-119293992D01*
X133048529Y-119272775D01*
X133047664Y-119254688D01*
X133034010Y-119201035D01*
X133034630Y-119161630D01*
X133050104Y-119129632D01*
X133059161Y-119118890D01*
X133091027Y-119084505D01*
X133507179Y-119084505D01*
X133507179Y-118946188D01*
X132903614Y-118946188D01*
X132903614Y-119015347D01*
X132905256Y-119056869D01*
X132911087Y-119078291D01*
X132922461Y-119084502D01*
X132922798Y-119084505D01*
X132934713Y-119087439D01*
X132933159Y-119100704D01*
X132924563Y-119119084D01*
X132908568Y-119157046D01*
X132898945Y-119187872D01*
X132896478Y-119227536D01*
X132903030Y-119274460D01*
G37*
X132903030Y-119274460D02*
X132916245Y-119317711D01*
X132932941Y-119345558D01*
X132946145Y-119354629D01*
X132961797Y-119352132D01*
X132986385Y-119335931D01*
X133003800Y-119322232D01*
X133035283Y-119293992D01*
X133048529Y-119272775D01*
X133047664Y-119254688D01*
X133034010Y-119201035D01*
X133034630Y-119161630D01*
X133050104Y-119129632D01*
X133059161Y-119118890D01*
X133091027Y-119084505D01*
X133507179Y-119084505D01*
X133507179Y-118946188D01*
X132903614Y-118946188D01*
X132903614Y-119015347D01*
X132905256Y-119056869D01*
X132911087Y-119078291D01*
X132922461Y-119084502D01*
X132922798Y-119084505D01*
X132934713Y-119087439D01*
X132933159Y-119100704D01*
X132924563Y-119119084D01*
X132908568Y-119157046D01*
X132898945Y-119187872D01*
X132896478Y-119227536D01*
X132903030Y-119274460D01*
G36*
X128735018Y-117851964D02*
G01*
X129036570Y-117908812D01*
X129209512Y-118328338D01*
X129038395Y-118579984D01*
X128990750Y-118650458D01*
X128948210Y-118714163D01*
X128912715Y-118768126D01*
X128886210Y-118809373D01*
X128870636Y-118834934D01*
X128867278Y-118841895D01*
X128875914Y-118854435D01*
X128899792Y-118881231D01*
X128935859Y-118919280D01*
X128981067Y-118965579D01*
X129032364Y-119017123D01*
X129086701Y-119070909D01*
X129141028Y-119123935D01*
X129192295Y-119173195D01*
X129237451Y-119215687D01*
X129273446Y-119248407D01*
X129297230Y-119268351D01*
X129305190Y-119273119D01*
X129319865Y-119266257D01*
X129352014Y-119247020D01*
X129398492Y-119217430D01*
X129456156Y-119179510D01*
X129521860Y-119135282D01*
X129559336Y-119109654D01*
X129627768Y-119062941D01*
X129689520Y-119021432D01*
X129741519Y-118987140D01*
X129780692Y-118962080D01*
X129803965Y-118948264D01*
X129808855Y-118946188D01*
X129822755Y-118950895D01*
X129855150Y-118963723D01*
X129901485Y-118982738D01*
X129957206Y-119006003D01*
X130017758Y-119031584D01*
X130078586Y-119057545D01*
X130135136Y-119081950D01*
X130182852Y-119102863D01*
X130217181Y-119118349D01*
X130233568Y-119126472D01*
X130234212Y-119126952D01*
X130237341Y-119139707D01*
X130244321Y-119173677D01*
X130254467Y-119225340D01*
X130267092Y-119291176D01*
X130281509Y-119367664D01*
X130289823Y-119412290D01*
X130305384Y-119494021D01*
X130320192Y-119567843D01*
X130333436Y-119630021D01*
X130344305Y-119676822D01*
X130351989Y-119704509D01*
X130354427Y-119710074D01*
X130370930Y-119715526D01*
X130408200Y-119719924D01*
X130461880Y-119723272D01*
X130527612Y-119725574D01*
X130601037Y-119726832D01*
X130677796Y-119727048D01*
X130753532Y-119726227D01*
X130823886Y-119724371D01*
X130884500Y-119721482D01*
X130931016Y-119717565D01*
X130959075Y-119712622D01*
X130964916Y-119709657D01*
X130971917Y-119691934D01*
X130981927Y-119654381D01*
X130993769Y-119601964D01*
X131006267Y-119539652D01*
X131010310Y-119517900D01*
X131029520Y-119413024D01*
X131044991Y-119330180D01*
X131057337Y-119266630D01*
X131067173Y-119219637D01*
X131075114Y-119186463D01*
X131081776Y-119164371D01*
X131087773Y-119150624D01*
X131093719Y-119142484D01*
X131094894Y-119141345D01*
X131113826Y-119129977D01*
X131150669Y-119112635D01*
X131200913Y-119091050D01*
X131260046Y-119066954D01*
X131323556Y-119042079D01*
X131386932Y-119018157D01*
X131445662Y-118996919D01*
X131495235Y-118980097D01*
X131531139Y-118969422D01*
X131548862Y-118966627D01*
X131549483Y-118966860D01*
X131563970Y-118976331D01*
X131595844Y-118997818D01*
X131641789Y-119029063D01*
X131698485Y-119067807D01*
X131762617Y-119111793D01*
X131780842Y-119124319D01*
X131846914Y-119168984D01*
X131907200Y-119208288D01*
X131958235Y-119240088D01*
X131996560Y-119262245D01*
X132018711Y-119272617D01*
X132021432Y-119273119D01*
X132035736Y-119264405D01*
X132064072Y-119240325D01*
X132103396Y-119203976D01*
X132150661Y-119158453D01*
X132202823Y-119106852D01*
X132256835Y-119052267D01*
X132309653Y-118997794D01*
X132358231Y-118946529D01*
X132399523Y-118901567D01*
X132430485Y-118866004D01*
X132448070Y-118842935D01*
X132450941Y-118836554D01*
X132444178Y-118821699D01*
X132425939Y-118791286D01*
X132399297Y-118750268D01*
X132377852Y-118718709D01*
X132338503Y-118661525D01*
X132292171Y-118593806D01*
X132245913Y-118525880D01*
X132221155Y-118489361D01*
X132137547Y-118365752D01*
X132193650Y-118261991D01*
X132218228Y-118214720D01*
X132237331Y-118174523D01*
X132248227Y-118147326D01*
X132249743Y-118140402D01*
X132238549Y-118132077D01*
X132206917Y-118115654D01*
X132157765Y-118092357D01*
X132094010Y-118063414D01*
X132018571Y-118030050D01*
X131934364Y-117993491D01*
X131844308Y-117954964D01*
X131751321Y-117915694D01*
X131658320Y-117876908D01*
X131568223Y-117839830D01*
X131483948Y-117805689D01*
X131408413Y-117775708D01*
X131344534Y-117751116D01*
X131295231Y-117733136D01*
X131263421Y-117722997D01*
X131252496Y-117721366D01*
X131238561Y-117734291D01*
X131215940Y-117762589D01*
X131189333Y-117800346D01*
X131187228Y-117803515D01*
X131109114Y-117901100D01*
X131017982Y-117979786D01*
X130916745Y-118038891D01*
X130808318Y-118077732D01*
X130695614Y-118095628D01*
X130581548Y-118091897D01*
X130469034Y-118065857D01*
X130360985Y-118016825D01*
X130337345Y-118002400D01*
X130241887Y-117927369D01*
X130165232Y-117838730D01*
X130107780Y-117739549D01*
X130069929Y-117632895D01*
X130052078Y-117521836D01*
X130054625Y-117409439D01*
X130077970Y-117298773D01*
X130122510Y-117192906D01*
X130188645Y-117094905D01*
X130215487Y-117064590D01*
X130299512Y-116987438D01*
X130387966Y-116931218D01*
X130487115Y-116892653D01*
X130585303Y-116871174D01*
X130695697Y-116865872D01*
X130806640Y-116883552D01*
X130914381Y-116922419D01*
X131015169Y-116980677D01*
X131105256Y-117056531D01*
X131180892Y-117148183D01*
X131188864Y-117160228D01*
X131214974Y-117198389D01*
X131237595Y-117227399D01*
X131252039Y-117241268D01*
X131252496Y-117241469D01*
X131268121Y-117238492D01*
X131303582Y-117226689D01*
X131355962Y-117207286D01*
X131422345Y-117181512D01*
X131499814Y-117150591D01*
X131585450Y-117115751D01*
X131676337Y-117078217D01*
X131769559Y-117039217D01*
X131862197Y-116999977D01*
X131951335Y-116961724D01*
X132034055Y-116925683D01*
X132107441Y-116893083D01*
X132168575Y-116865148D01*
X132214541Y-116843105D01*
X132242421Y-116828182D01*
X132249743Y-116822172D01*
X132244041Y-116803809D01*
X132228749Y-116769448D01*
X132206599Y-116725016D01*
X132193650Y-116700583D01*
X132137547Y-116596822D01*
X132221155Y-116473213D01*
X132263987Y-116410114D01*
X132311122Y-116341030D01*
X132355503Y-116276293D01*
X132377852Y-116243866D01*
X132408477Y-116198259D01*
X132432747Y-116159640D01*
X132447587Y-116133048D01*
X132450724Y-116124410D01*
X132442261Y-116111839D01*
X132418636Y-116084016D01*
X132382302Y-116043639D01*
X132335711Y-115993405D01*
X132281317Y-115936012D01*
X132246392Y-115899714D01*
X132183996Y-115836210D01*
X132128188Y-115781327D01*
X132081354Y-115737286D01*
X132045882Y-115706305D01*
X132024161Y-115690602D01*
X132019752Y-115689095D01*
X132002985Y-115696086D01*
X131969082Y-115715406D01*
X131921476Y-115744909D01*
X131863599Y-115782455D01*
X131798884Y-115825900D01*
X131780842Y-115838255D01*
X131715267Y-115883273D01*
X131656228Y-115923660D01*
X131607042Y-115957160D01*
X131571028Y-115981514D01*
X131551502Y-115994464D01*
X131549483Y-115995715D01*
X131533922Y-115993844D01*
X131499709Y-115983913D01*
X131451355Y-115967653D01*
X131393371Y-115946795D01*
X131330270Y-115923073D01*
X131266563Y-115898216D01*
X131206761Y-115873958D01*
X131155376Y-115852029D01*
X131116919Y-115834162D01*
X131095902Y-115822087D01*
X131094894Y-115821229D01*
X131088888Y-115813846D01*
X131082948Y-115801375D01*
X131076460Y-115781080D01*
X131068809Y-115750222D01*
X131059380Y-115706066D01*
X131047559Y-115645874D01*
X131032729Y-115566907D01*
X131014277Y-115466430D01*
X131010310Y-115444675D01*
X130997853Y-115380198D01*
X130985666Y-115323989D01*
X130974926Y-115281013D01*
X130966809Y-115256240D01*
X130964916Y-115252918D01*
X130948138Y-115247444D01*
X130910645Y-115242994D01*
X130856794Y-115239572D01*
X130790944Y-115237181D01*
X130717453Y-115235823D01*
X130640680Y-115235501D01*
X130564983Y-115236219D01*
X130494720Y-115237979D01*
X130434250Y-115240784D01*
X130387930Y-115244638D01*
X130360119Y-115249543D01*
X130354427Y-115252500D01*
X130348686Y-115268963D01*
X130339345Y-115306449D01*
X130327215Y-115361225D01*
X130313107Y-115429555D01*
X130297830Y-115507706D01*
X130289823Y-115550284D01*
X130274721Y-115631071D01*
X130261040Y-115703113D01*
X130249467Y-115762889D01*
X130240687Y-115806879D01*
X130235387Y-115831561D01*
X130234212Y-115835623D01*
X130220965Y-115842489D01*
X130189057Y-115857002D01*
X130143047Y-115877229D01*
X130087492Y-115901234D01*
X130026953Y-115927082D01*
X129965986Y-115952840D01*
X129909151Y-115976573D01*
X129861006Y-115996346D01*
X129826110Y-116010224D01*
X129809021Y-116016274D01*
X129808274Y-116016386D01*
X129794793Y-116009528D01*
X129763770Y-115990302D01*
X129718289Y-115960728D01*
X129661432Y-115922827D01*
X129596283Y-115878620D01*
X129558862Y-115852921D01*
X129490247Y-115806093D01*
X129427952Y-115764501D01*
X129375129Y-115730175D01*
X129334927Y-115705143D01*
X129310500Y-115691435D01*
X129305024Y-115689456D01*
X129292278Y-115697966D01*
X129265063Y-115721493D01*
X129226428Y-115757032D01*
X129179423Y-115801577D01*
X129127095Y-115852123D01*
X129072495Y-115905664D01*
X129018670Y-115959195D01*
X128968670Y-116009711D01*
X128925543Y-116054206D01*
X128892339Y-116089675D01*
X128872106Y-116113113D01*
X128867278Y-116120954D01*
X128874067Y-116133720D01*
X128893142Y-116164256D01*
X128922561Y-116209590D01*
X128960381Y-116266756D01*
X129004661Y-116332784D01*
X129038395Y-116382590D01*
X129209512Y-116634236D01*
X129123041Y-116843999D01*
X129036570Y-117053763D01*
X128735018Y-117110611D01*
X128433466Y-117167460D01*
X128433466Y-117795115D01*
X128735018Y-117851964D01*
G37*
X128735018Y-117851964D02*
X129036570Y-117908812D01*
X129209512Y-118328338D01*
X129038395Y-118579984D01*
X128990750Y-118650458D01*
X128948210Y-118714163D01*
X128912715Y-118768126D01*
X128886210Y-118809373D01*
X128870636Y-118834934D01*
X128867278Y-118841895D01*
X128875914Y-118854435D01*
X128899792Y-118881231D01*
X128935859Y-118919280D01*
X128981067Y-118965579D01*
X129032364Y-119017123D01*
X129086701Y-119070909D01*
X129141028Y-119123935D01*
X129192295Y-119173195D01*
X129237451Y-119215687D01*
X129273446Y-119248407D01*
X129297230Y-119268351D01*
X129305190Y-119273119D01*
X129319865Y-119266257D01*
X129352014Y-119247020D01*
X129398492Y-119217430D01*
X129456156Y-119179510D01*
X129521860Y-119135282D01*
X129559336Y-119109654D01*
X129627768Y-119062941D01*
X129689520Y-119021432D01*
X129741519Y-118987140D01*
X129780692Y-118962080D01*
X129803965Y-118948264D01*
X129808855Y-118946188D01*
X129822755Y-118950895D01*
X129855150Y-118963723D01*
X129901485Y-118982738D01*
X129957206Y-119006003D01*
X130017758Y-119031584D01*
X130078586Y-119057545D01*
X130135136Y-119081950D01*
X130182852Y-119102863D01*
X130217181Y-119118349D01*
X130233568Y-119126472D01*
X130234212Y-119126952D01*
X130237341Y-119139707D01*
X130244321Y-119173677D01*
X130254467Y-119225340D01*
X130267092Y-119291176D01*
X130281509Y-119367664D01*
X130289823Y-119412290D01*
X130305384Y-119494021D01*
X130320192Y-119567843D01*
X130333436Y-119630021D01*
X130344305Y-119676822D01*
X130351989Y-119704509D01*
X130354427Y-119710074D01*
X130370930Y-119715526D01*
X130408200Y-119719924D01*
X130461880Y-119723272D01*
X130527612Y-119725574D01*
X130601037Y-119726832D01*
X130677796Y-119727048D01*
X130753532Y-119726227D01*
X130823886Y-119724371D01*
X130884500Y-119721482D01*
X130931016Y-119717565D01*
X130959075Y-119712622D01*
X130964916Y-119709657D01*
X130971917Y-119691934D01*
X130981927Y-119654381D01*
X130993769Y-119601964D01*
X131006267Y-119539652D01*
X131010310Y-119517900D01*
X131029520Y-119413024D01*
X131044991Y-119330180D01*
X131057337Y-119266630D01*
X131067173Y-119219637D01*
X131075114Y-119186463D01*
X131081776Y-119164371D01*
X131087773Y-119150624D01*
X131093719Y-119142484D01*
X131094894Y-119141345D01*
X131113826Y-119129977D01*
X131150669Y-119112635D01*
X131200913Y-119091050D01*
X131260046Y-119066954D01*
X131323556Y-119042079D01*
X131386932Y-119018157D01*
X131445662Y-118996919D01*
X131495235Y-118980097D01*
X131531139Y-118969422D01*
X131548862Y-118966627D01*
X131549483Y-118966860D01*
X131563970Y-118976331D01*
X131595844Y-118997818D01*
X131641789Y-119029063D01*
X131698485Y-119067807D01*
X131762617Y-119111793D01*
X131780842Y-119124319D01*
X131846914Y-119168984D01*
X131907200Y-119208288D01*
X131958235Y-119240088D01*
X131996560Y-119262245D01*
X132018711Y-119272617D01*
X132021432Y-119273119D01*
X132035736Y-119264405D01*
X132064072Y-119240325D01*
X132103396Y-119203976D01*
X132150661Y-119158453D01*
X132202823Y-119106852D01*
X132256835Y-119052267D01*
X132309653Y-118997794D01*
X132358231Y-118946529D01*
X132399523Y-118901567D01*
X132430485Y-118866004D01*
X132448070Y-118842935D01*
X132450941Y-118836554D01*
X132444178Y-118821699D01*
X132425939Y-118791286D01*
X132399297Y-118750268D01*
X132377852Y-118718709D01*
X132338503Y-118661525D01*
X132292171Y-118593806D01*
X132245913Y-118525880D01*
X132221155Y-118489361D01*
X132137547Y-118365752D01*
X132193650Y-118261991D01*
X132218228Y-118214720D01*
X132237331Y-118174523D01*
X132248227Y-118147326D01*
X132249743Y-118140402D01*
X132238549Y-118132077D01*
X132206917Y-118115654D01*
X132157765Y-118092357D01*
X132094010Y-118063414D01*
X132018571Y-118030050D01*
X131934364Y-117993491D01*
X131844308Y-117954964D01*
X131751321Y-117915694D01*
X131658320Y-117876908D01*
X131568223Y-117839830D01*
X131483948Y-117805689D01*
X131408413Y-117775708D01*
X131344534Y-117751116D01*
X131295231Y-117733136D01*
X131263421Y-117722997D01*
X131252496Y-117721366D01*
X131238561Y-117734291D01*
X131215940Y-117762589D01*
X131189333Y-117800346D01*
X131187228Y-117803515D01*
X131109114Y-117901100D01*
X131017982Y-117979786D01*
X130916745Y-118038891D01*
X130808318Y-118077732D01*
X130695614Y-118095628D01*
X130581548Y-118091897D01*
X130469034Y-118065857D01*
X130360985Y-118016825D01*
X130337345Y-118002400D01*
X130241887Y-117927369D01*
X130165232Y-117838730D01*
X130107780Y-117739549D01*
X130069929Y-117632895D01*
X130052078Y-117521836D01*
X130054625Y-117409439D01*
X130077970Y-117298773D01*
X130122510Y-117192906D01*
X130188645Y-117094905D01*
X130215487Y-117064590D01*
X130299512Y-116987438D01*
X130387966Y-116931218D01*
X130487115Y-116892653D01*
X130585303Y-116871174D01*
X130695697Y-116865872D01*
X130806640Y-116883552D01*
X130914381Y-116922419D01*
X131015169Y-116980677D01*
X131105256Y-117056531D01*
X131180892Y-117148183D01*
X131188864Y-117160228D01*
X131214974Y-117198389D01*
X131237595Y-117227399D01*
X131252039Y-117241268D01*
X131252496Y-117241469D01*
X131268121Y-117238492D01*
X131303582Y-117226689D01*
X131355962Y-117207286D01*
X131422345Y-117181512D01*
X131499814Y-117150591D01*
X131585450Y-117115751D01*
X131676337Y-117078217D01*
X131769559Y-117039217D01*
X131862197Y-116999977D01*
X131951335Y-116961724D01*
X132034055Y-116925683D01*
X132107441Y-116893083D01*
X132168575Y-116865148D01*
X132214541Y-116843105D01*
X132242421Y-116828182D01*
X132249743Y-116822172D01*
X132244041Y-116803809D01*
X132228749Y-116769448D01*
X132206599Y-116725016D01*
X132193650Y-116700583D01*
X132137547Y-116596822D01*
X132221155Y-116473213D01*
X132263987Y-116410114D01*
X132311122Y-116341030D01*
X132355503Y-116276293D01*
X132377852Y-116243866D01*
X132408477Y-116198259D01*
X132432747Y-116159640D01*
X132447587Y-116133048D01*
X132450724Y-116124410D01*
X132442261Y-116111839D01*
X132418636Y-116084016D01*
X132382302Y-116043639D01*
X132335711Y-115993405D01*
X132281317Y-115936012D01*
X132246392Y-115899714D01*
X132183996Y-115836210D01*
X132128188Y-115781327D01*
X132081354Y-115737286D01*
X132045882Y-115706305D01*
X132024161Y-115690602D01*
X132019752Y-115689095D01*
X132002985Y-115696086D01*
X131969082Y-115715406D01*
X131921476Y-115744909D01*
X131863599Y-115782455D01*
X131798884Y-115825900D01*
X131780842Y-115838255D01*
X131715267Y-115883273D01*
X131656228Y-115923660D01*
X131607042Y-115957160D01*
X131571028Y-115981514D01*
X131551502Y-115994464D01*
X131549483Y-115995715D01*
X131533922Y-115993844D01*
X131499709Y-115983913D01*
X131451355Y-115967653D01*
X131393371Y-115946795D01*
X131330270Y-115923073D01*
X131266563Y-115898216D01*
X131206761Y-115873958D01*
X131155376Y-115852029D01*
X131116919Y-115834162D01*
X131095902Y-115822087D01*
X131094894Y-115821229D01*
X131088888Y-115813846D01*
X131082948Y-115801375D01*
X131076460Y-115781080D01*
X131068809Y-115750222D01*
X131059380Y-115706066D01*
X131047559Y-115645874D01*
X131032729Y-115566907D01*
X131014277Y-115466430D01*
X131010310Y-115444675D01*
X130997853Y-115380198D01*
X130985666Y-115323989D01*
X130974926Y-115281013D01*
X130966809Y-115256240D01*
X130964916Y-115252918D01*
X130948138Y-115247444D01*
X130910645Y-115242994D01*
X130856794Y-115239572D01*
X130790944Y-115237181D01*
X130717453Y-115235823D01*
X130640680Y-115235501D01*
X130564983Y-115236219D01*
X130494720Y-115237979D01*
X130434250Y-115240784D01*
X130387930Y-115244638D01*
X130360119Y-115249543D01*
X130354427Y-115252500D01*
X130348686Y-115268963D01*
X130339345Y-115306449D01*
X130327215Y-115361225D01*
X130313107Y-115429555D01*
X130297830Y-115507706D01*
X130289823Y-115550284D01*
X130274721Y-115631071D01*
X130261040Y-115703113D01*
X130249467Y-115762889D01*
X130240687Y-115806879D01*
X130235387Y-115831561D01*
X130234212Y-115835623D01*
X130220965Y-115842489D01*
X130189057Y-115857002D01*
X130143047Y-115877229D01*
X130087492Y-115901234D01*
X130026953Y-115927082D01*
X129965986Y-115952840D01*
X129909151Y-115976573D01*
X129861006Y-115996346D01*
X129826110Y-116010224D01*
X129809021Y-116016274D01*
X129808274Y-116016386D01*
X129794793Y-116009528D01*
X129763770Y-115990302D01*
X129718289Y-115960728D01*
X129661432Y-115922827D01*
X129596283Y-115878620D01*
X129558862Y-115852921D01*
X129490247Y-115806093D01*
X129427952Y-115764501D01*
X129375129Y-115730175D01*
X129334927Y-115705143D01*
X129310500Y-115691435D01*
X129305024Y-115689456D01*
X129292278Y-115697966D01*
X129265063Y-115721493D01*
X129226428Y-115757032D01*
X129179423Y-115801577D01*
X129127095Y-115852123D01*
X129072495Y-115905664D01*
X129018670Y-115959195D01*
X128968670Y-116009711D01*
X128925543Y-116054206D01*
X128892339Y-116089675D01*
X128872106Y-116113113D01*
X128867278Y-116120954D01*
X128874067Y-116133720D01*
X128893142Y-116164256D01*
X128922561Y-116209590D01*
X128960381Y-116266756D01*
X129004661Y-116332784D01*
X129038395Y-116382590D01*
X129209512Y-116634236D01*
X129123041Y-116843999D01*
X129036570Y-117053763D01*
X128735018Y-117110611D01*
X128433466Y-117167460D01*
X128433466Y-117795115D01*
X128735018Y-117851964D01*
D12*
G36*
X122668512Y-118483927D02*
G01*
X122817812Y-118513624D01*
X122981784Y-118581544D01*
X123129354Y-118680147D01*
X123254853Y-118805646D01*
X123353456Y-118953216D01*
X123421376Y-119117188D01*
X123456000Y-119291259D01*
X123456000Y-119468741D01*
X123421376Y-119642812D01*
X123353456Y-119806784D01*
X123254853Y-119954354D01*
X123129354Y-120079853D01*
X122981784Y-120178456D01*
X122817812Y-120246376D01*
X122668512Y-120276073D01*
X122643742Y-120281000D01*
X122466258Y-120281000D01*
X122441488Y-120276073D01*
X122292188Y-120246376D01*
X122128216Y-120178456D01*
X121980646Y-120079853D01*
X121855147Y-119954354D01*
X121756544Y-119806784D01*
X121688624Y-119642812D01*
X121654000Y-119468741D01*
X121654000Y-119291259D01*
X121688624Y-119117188D01*
X121756544Y-118953216D01*
X121855147Y-118805646D01*
X121980646Y-118680147D01*
X122128216Y-118581544D01*
X122292188Y-118513624D01*
X122441488Y-118483927D01*
X122466258Y-118479000D01*
X122643742Y-118479000D01*
X122668512Y-118483927D01*
G37*
G36*
X120916000Y-120281000D02*
G01*
X119114000Y-120281000D01*
X119114000Y-118479000D01*
X120916000Y-118479000D01*
X120916000Y-120281000D01*
G37*
G36*
X91553512Y-117213927D02*
G01*
X91702812Y-117243624D01*
X91866784Y-117311544D01*
X92014354Y-117410147D01*
X92139853Y-117535646D01*
X92238456Y-117683216D01*
X92306376Y-117847188D01*
X92341000Y-118021259D01*
X92341000Y-118198741D01*
X92306376Y-118372812D01*
X92238456Y-118536784D01*
X92139853Y-118684354D01*
X92014354Y-118809853D01*
X91866784Y-118908456D01*
X91702812Y-118976376D01*
X91553512Y-119006073D01*
X91528742Y-119011000D01*
X91351258Y-119011000D01*
X91326488Y-119006073D01*
X91177188Y-118976376D01*
X91013216Y-118908456D01*
X90865646Y-118809853D01*
X90740147Y-118684354D01*
X90641544Y-118536784D01*
X90573624Y-118372812D01*
X90539000Y-118198741D01*
X90539000Y-118021259D01*
X90573624Y-117847188D01*
X90641544Y-117683216D01*
X90740147Y-117535646D01*
X90865646Y-117410147D01*
X91013216Y-117311544D01*
X91177188Y-117243624D01*
X91326488Y-117213927D01*
X91351258Y-117209000D01*
X91528742Y-117209000D01*
X91553512Y-117213927D01*
G37*
G36*
X103136000Y-119011000D02*
G01*
X101334000Y-119011000D01*
X101334000Y-117209000D01*
X103136000Y-117209000D01*
X103136000Y-119011000D01*
G37*
G36*
X109333512Y-117213927D02*
G01*
X109482812Y-117243624D01*
X109646784Y-117311544D01*
X109794354Y-117410147D01*
X109919853Y-117535646D01*
X110018456Y-117683216D01*
X110086376Y-117847188D01*
X110121000Y-118021259D01*
X110121000Y-118198741D01*
X110086376Y-118372812D01*
X110018456Y-118536784D01*
X109919853Y-118684354D01*
X109794354Y-118809853D01*
X109646784Y-118908456D01*
X109482812Y-118976376D01*
X109333512Y-119006073D01*
X109308742Y-119011000D01*
X109131258Y-119011000D01*
X109106488Y-119006073D01*
X108957188Y-118976376D01*
X108793216Y-118908456D01*
X108645646Y-118809853D01*
X108520147Y-118684354D01*
X108421544Y-118536784D01*
X108353624Y-118372812D01*
X108319000Y-118198741D01*
X108319000Y-118021259D01*
X108353624Y-117847188D01*
X108421544Y-117683216D01*
X108520147Y-117535646D01*
X108645646Y-117410147D01*
X108793216Y-117311544D01*
X108957188Y-117243624D01*
X109106488Y-117213927D01*
X109131258Y-117209000D01*
X109308742Y-117209000D01*
X109333512Y-117213927D01*
G37*
G36*
X94093512Y-117213927D02*
G01*
X94242812Y-117243624D01*
X94406784Y-117311544D01*
X94554354Y-117410147D01*
X94679853Y-117535646D01*
X94778456Y-117683216D01*
X94846376Y-117847188D01*
X94881000Y-118021259D01*
X94881000Y-118198741D01*
X94846376Y-118372812D01*
X94778456Y-118536784D01*
X94679853Y-118684354D01*
X94554354Y-118809853D01*
X94406784Y-118908456D01*
X94242812Y-118976376D01*
X94093512Y-119006073D01*
X94068742Y-119011000D01*
X93891258Y-119011000D01*
X93866488Y-119006073D01*
X93717188Y-118976376D01*
X93553216Y-118908456D01*
X93405646Y-118809853D01*
X93280147Y-118684354D01*
X93181544Y-118536784D01*
X93113624Y-118372812D01*
X93079000Y-118198741D01*
X93079000Y-118021259D01*
X93113624Y-117847188D01*
X93181544Y-117683216D01*
X93280147Y-117535646D01*
X93405646Y-117410147D01*
X93553216Y-117311544D01*
X93717188Y-117243624D01*
X93866488Y-117213927D01*
X93891258Y-117209000D01*
X94068742Y-117209000D01*
X94093512Y-117213927D01*
G37*
G36*
X91553512Y-114673927D02*
G01*
X91702812Y-114703624D01*
X91866784Y-114771544D01*
X92014354Y-114870147D01*
X92139853Y-114995646D01*
X92238456Y-115143216D01*
X92306376Y-115307188D01*
X92341000Y-115481259D01*
X92341000Y-115658741D01*
X92306376Y-115832812D01*
X92238456Y-115996784D01*
X92139853Y-116144354D01*
X92014354Y-116269853D01*
X91866784Y-116368456D01*
X91702812Y-116436376D01*
X91553512Y-116466073D01*
X91528742Y-116471000D01*
X91351258Y-116471000D01*
X91326488Y-116466073D01*
X91177188Y-116436376D01*
X91013216Y-116368456D01*
X90865646Y-116269853D01*
X90740147Y-116144354D01*
X90641544Y-115996784D01*
X90573624Y-115832812D01*
X90539000Y-115658741D01*
X90539000Y-115481259D01*
X90573624Y-115307188D01*
X90641544Y-115143216D01*
X90740147Y-114995646D01*
X90865646Y-114870147D01*
X91013216Y-114771544D01*
X91177188Y-114703624D01*
X91326488Y-114673927D01*
X91351258Y-114669000D01*
X91528742Y-114669000D01*
X91553512Y-114673927D01*
G37*
G36*
X94093512Y-114673927D02*
G01*
X94242812Y-114703624D01*
X94406784Y-114771544D01*
X94554354Y-114870147D01*
X94679853Y-114995646D01*
X94778456Y-115143216D01*
X94846376Y-115307188D01*
X94881000Y-115481259D01*
X94881000Y-115658741D01*
X94846376Y-115832812D01*
X94778456Y-115996784D01*
X94679853Y-116144354D01*
X94554354Y-116269853D01*
X94406784Y-116368456D01*
X94242812Y-116436376D01*
X94093512Y-116466073D01*
X94068742Y-116471000D01*
X93891258Y-116471000D01*
X93866488Y-116466073D01*
X93717188Y-116436376D01*
X93553216Y-116368456D01*
X93405646Y-116269853D01*
X93280147Y-116144354D01*
X93181544Y-115996784D01*
X93113624Y-115832812D01*
X93079000Y-115658741D01*
X93079000Y-115481259D01*
X93113624Y-115307188D01*
X93181544Y-115143216D01*
X93280147Y-114995646D01*
X93405646Y-114870147D01*
X93553216Y-114771544D01*
X93717188Y-114703624D01*
X93866488Y-114673927D01*
X93891258Y-114669000D01*
X94068742Y-114669000D01*
X94093512Y-114673927D01*
G37*
G36*
X102348512Y-114673927D02*
G01*
X102497812Y-114703624D01*
X102661784Y-114771544D01*
X102809354Y-114870147D01*
X102934853Y-114995646D01*
X103033456Y-115143216D01*
X103101376Y-115307188D01*
X103136000Y-115481259D01*
X103136000Y-115658741D01*
X103101376Y-115832812D01*
X103033456Y-115996784D01*
X102934853Y-116144354D01*
X102809354Y-116269853D01*
X102661784Y-116368456D01*
X102497812Y-116436376D01*
X102348512Y-116466073D01*
X102323742Y-116471000D01*
X102146258Y-116471000D01*
X102121488Y-116466073D01*
X101972188Y-116436376D01*
X101808216Y-116368456D01*
X101660646Y-116269853D01*
X101535147Y-116144354D01*
X101436544Y-115996784D01*
X101368624Y-115832812D01*
X101334000Y-115658741D01*
X101334000Y-115481259D01*
X101368624Y-115307188D01*
X101436544Y-115143216D01*
X101535147Y-114995646D01*
X101660646Y-114870147D01*
X101808216Y-114771544D01*
X101972188Y-114703624D01*
X102121488Y-114673927D01*
X102146258Y-114669000D01*
X102323742Y-114669000D01*
X102348512Y-114673927D01*
G37*
G36*
X109333512Y-114673927D02*
G01*
X109482812Y-114703624D01*
X109646784Y-114771544D01*
X109794354Y-114870147D01*
X109919853Y-114995646D01*
X110018456Y-115143216D01*
X110086376Y-115307188D01*
X110121000Y-115481259D01*
X110121000Y-115658741D01*
X110086376Y-115832812D01*
X110018456Y-115996784D01*
X109919853Y-116144354D01*
X109794354Y-116269853D01*
X109646784Y-116368456D01*
X109482812Y-116436376D01*
X109333512Y-116466073D01*
X109308742Y-116471000D01*
X109131258Y-116471000D01*
X109106488Y-116466073D01*
X108957188Y-116436376D01*
X108793216Y-116368456D01*
X108645646Y-116269853D01*
X108520147Y-116144354D01*
X108421544Y-115996784D01*
X108353624Y-115832812D01*
X108319000Y-115658741D01*
X108319000Y-115481259D01*
X108353624Y-115307188D01*
X108421544Y-115143216D01*
X108520147Y-114995646D01*
X108645646Y-114870147D01*
X108793216Y-114771544D01*
X108957188Y-114703624D01*
X109106488Y-114673927D01*
X109131258Y-114669000D01*
X109308742Y-114669000D01*
X109333512Y-114673927D01*
G37*
G36*
X106211000Y-116151000D02*
G01*
X104609000Y-116151000D01*
X104609000Y-112449000D01*
X106211000Y-112449000D01*
X106211000Y-116151000D01*
G37*
G36*
X99861000Y-116151000D02*
G01*
X98259000Y-116151000D01*
X98259000Y-112449000D01*
X99861000Y-112449000D01*
X99861000Y-116151000D01*
G37*
G36*
X94093512Y-112133927D02*
G01*
X94242812Y-112163624D01*
X94406784Y-112231544D01*
X94554354Y-112330147D01*
X94679853Y-112455646D01*
X94778456Y-112603216D01*
X94846376Y-112767188D01*
X94881000Y-112941259D01*
X94881000Y-113118741D01*
X94846376Y-113292812D01*
X94778456Y-113456784D01*
X94679853Y-113604354D01*
X94554354Y-113729853D01*
X94406784Y-113828456D01*
X94242812Y-113896376D01*
X94093512Y-113926073D01*
X94068742Y-113931000D01*
X93891258Y-113931000D01*
X93866488Y-113926073D01*
X93717188Y-113896376D01*
X93553216Y-113828456D01*
X93405646Y-113729853D01*
X93280147Y-113604354D01*
X93181544Y-113456784D01*
X93113624Y-113292812D01*
X93079000Y-113118741D01*
X93079000Y-112941259D01*
X93113624Y-112767188D01*
X93181544Y-112603216D01*
X93280147Y-112455646D01*
X93405646Y-112330147D01*
X93553216Y-112231544D01*
X93717188Y-112163624D01*
X93866488Y-112133927D01*
X93891258Y-112129000D01*
X94068742Y-112129000D01*
X94093512Y-112133927D01*
G37*
G36*
X110121000Y-113931000D02*
G01*
X108319000Y-113931000D01*
X108319000Y-112129000D01*
X110121000Y-112129000D01*
X110121000Y-113931000D01*
G37*
G36*
X91553512Y-112133927D02*
G01*
X91702812Y-112163624D01*
X91866784Y-112231544D01*
X92014354Y-112330147D01*
X92139853Y-112455646D01*
X92238456Y-112603216D01*
X92306376Y-112767188D01*
X92341000Y-112941259D01*
X92341000Y-113118741D01*
X92306376Y-113292812D01*
X92238456Y-113456784D01*
X92139853Y-113604354D01*
X92014354Y-113729853D01*
X91866784Y-113828456D01*
X91702812Y-113896376D01*
X91553512Y-113926073D01*
X91528742Y-113931000D01*
X91351258Y-113931000D01*
X91326488Y-113926073D01*
X91177188Y-113896376D01*
X91013216Y-113828456D01*
X90865646Y-113729853D01*
X90740147Y-113604354D01*
X90641544Y-113456784D01*
X90573624Y-113292812D01*
X90539000Y-113118741D01*
X90539000Y-112941259D01*
X90573624Y-112767188D01*
X90641544Y-112603216D01*
X90740147Y-112455646D01*
X90865646Y-112330147D01*
X91013216Y-112231544D01*
X91177188Y-112163624D01*
X91326488Y-112133927D01*
X91351258Y-112129000D01*
X91528742Y-112129000D01*
X91553512Y-112133927D01*
G37*
G36*
X102348512Y-112133927D02*
G01*
X102497812Y-112163624D01*
X102661784Y-112231544D01*
X102809354Y-112330147D01*
X102934853Y-112455646D01*
X103033456Y-112603216D01*
X103101376Y-112767188D01*
X103136000Y-112941259D01*
X103136000Y-113118741D01*
X103101376Y-113292812D01*
X103033456Y-113456784D01*
X102934853Y-113604354D01*
X102809354Y-113729853D01*
X102661784Y-113828456D01*
X102497812Y-113896376D01*
X102348512Y-113926073D01*
X102323742Y-113931000D01*
X102146258Y-113931000D01*
X102121488Y-113926073D01*
X101972188Y-113896376D01*
X101808216Y-113828456D01*
X101660646Y-113729853D01*
X101535147Y-113604354D01*
X101436544Y-113456784D01*
X101368624Y-113292812D01*
X101334000Y-113118741D01*
X101334000Y-112941259D01*
X101368624Y-112767188D01*
X101436544Y-112603216D01*
X101535147Y-112455646D01*
X101660646Y-112330147D01*
X101808216Y-112231544D01*
X101972188Y-112163624D01*
X102121488Y-112133927D01*
X102146258Y-112129000D01*
X102323742Y-112129000D01*
X102348512Y-112133927D01*
G37*
G36*
X120281778Y-110880547D02*
G01*
X120448224Y-110949491D01*
X120598022Y-111049583D01*
X120725417Y-111176978D01*
X120825509Y-111326776D01*
X120894453Y-111493222D01*
X120929600Y-111669918D01*
X120929600Y-111850082D01*
X120894453Y-112026778D01*
X120825509Y-112193224D01*
X120725417Y-112343022D01*
X120598022Y-112470417D01*
X120448224Y-112570509D01*
X120281778Y-112639453D01*
X120105082Y-112674600D01*
X119924918Y-112674600D01*
X119748222Y-112639453D01*
X119581776Y-112570509D01*
X119431978Y-112470417D01*
X119304583Y-112343022D01*
X119204491Y-112193224D01*
X119135547Y-112026778D01*
X119100400Y-111850082D01*
X119100400Y-111669918D01*
X119135547Y-111493222D01*
X119204491Y-111326776D01*
X119304583Y-111176978D01*
X119431978Y-111049583D01*
X119581776Y-110949491D01*
X119748222Y-110880547D01*
X119924918Y-110845400D01*
X120105082Y-110845400D01*
X120281778Y-110880547D01*
G37*
G36*
X123469600Y-112674600D02*
G01*
X121640400Y-112674600D01*
X121640400Y-110845400D01*
X123469600Y-110845400D01*
X123469600Y-112674600D01*
G37*
G36*
X94093512Y-109593927D02*
G01*
X94242812Y-109623624D01*
X94406784Y-109691544D01*
X94554354Y-109790147D01*
X94679853Y-109915646D01*
X94778456Y-110063216D01*
X94846376Y-110227188D01*
X94881000Y-110401259D01*
X94881000Y-110578741D01*
X94846376Y-110752812D01*
X94778456Y-110916784D01*
X94679853Y-111064354D01*
X94554354Y-111189853D01*
X94406784Y-111288456D01*
X94242812Y-111356376D01*
X94093512Y-111386073D01*
X94068742Y-111391000D01*
X93891258Y-111391000D01*
X93866488Y-111386073D01*
X93717188Y-111356376D01*
X93553216Y-111288456D01*
X93405646Y-111189853D01*
X93280147Y-111064354D01*
X93181544Y-110916784D01*
X93113624Y-110752812D01*
X93079000Y-110578741D01*
X93079000Y-110401259D01*
X93113624Y-110227188D01*
X93181544Y-110063216D01*
X93280147Y-109915646D01*
X93405646Y-109790147D01*
X93553216Y-109691544D01*
X93717188Y-109623624D01*
X93866488Y-109593927D01*
X93891258Y-109589000D01*
X94068742Y-109589000D01*
X94093512Y-109593927D01*
G37*
G36*
X91553512Y-109593927D02*
G01*
X91702812Y-109623624D01*
X91866784Y-109691544D01*
X92014354Y-109790147D01*
X92139853Y-109915646D01*
X92238456Y-110063216D01*
X92306376Y-110227188D01*
X92341000Y-110401259D01*
X92341000Y-110578741D01*
X92306376Y-110752812D01*
X92238456Y-110916784D01*
X92139853Y-111064354D01*
X92014354Y-111189853D01*
X91866784Y-111288456D01*
X91702812Y-111356376D01*
X91553512Y-111386073D01*
X91528742Y-111391000D01*
X91351258Y-111391000D01*
X91326488Y-111386073D01*
X91177188Y-111356376D01*
X91013216Y-111288456D01*
X90865646Y-111189853D01*
X90740147Y-111064354D01*
X90641544Y-110916784D01*
X90573624Y-110752812D01*
X90539000Y-110578741D01*
X90539000Y-110401259D01*
X90573624Y-110227188D01*
X90641544Y-110063216D01*
X90740147Y-109915646D01*
X90865646Y-109790147D01*
X91013216Y-109691544D01*
X91177188Y-109623624D01*
X91326488Y-109593927D01*
X91351258Y-109589000D01*
X91528742Y-109589000D01*
X91553512Y-109593927D01*
G37*
G36*
X120281778Y-108340547D02*
G01*
X120448224Y-108409491D01*
X120598022Y-108509583D01*
X120725417Y-108636978D01*
X120825509Y-108786776D01*
X120894453Y-108953222D01*
X120929600Y-109129918D01*
X120929600Y-109310082D01*
X120894453Y-109486778D01*
X120825509Y-109653224D01*
X120725417Y-109803022D01*
X120598022Y-109930417D01*
X120448224Y-110030509D01*
X120281778Y-110099453D01*
X120105082Y-110134600D01*
X119924918Y-110134600D01*
X119748222Y-110099453D01*
X119581776Y-110030509D01*
X119431978Y-109930417D01*
X119304583Y-109803022D01*
X119204491Y-109653224D01*
X119135547Y-109486778D01*
X119100400Y-109310082D01*
X119100400Y-109129918D01*
X119135547Y-108953222D01*
X119204491Y-108786776D01*
X119304583Y-108636978D01*
X119431978Y-108509583D01*
X119581776Y-108409491D01*
X119748222Y-108340547D01*
X119924918Y-108305400D01*
X120105082Y-108305400D01*
X120281778Y-108340547D01*
G37*
G36*
X122821778Y-108340547D02*
G01*
X122988224Y-108409491D01*
X123138022Y-108509583D01*
X123265417Y-108636978D01*
X123365509Y-108786776D01*
X123434453Y-108953222D01*
X123469600Y-109129918D01*
X123469600Y-109310082D01*
X123434453Y-109486778D01*
X123365509Y-109653224D01*
X123265417Y-109803022D01*
X123138022Y-109930417D01*
X122988224Y-110030509D01*
X122821778Y-110099453D01*
X122645082Y-110134600D01*
X122464918Y-110134600D01*
X122288222Y-110099453D01*
X122121776Y-110030509D01*
X121971978Y-109930417D01*
X121844583Y-109803022D01*
X121744491Y-109653224D01*
X121675547Y-109486778D01*
X121640400Y-109310082D01*
X121640400Y-109129918D01*
X121675547Y-108953222D01*
X121744491Y-108786776D01*
X121844583Y-108636978D01*
X121971978Y-108509583D01*
X122121776Y-108409491D01*
X122288222Y-108340547D01*
X122464918Y-108305400D01*
X122645082Y-108305400D01*
X122821778Y-108340547D01*
G37*
G36*
X131605721Y-103610174D02*
G01*
X131705995Y-103651709D01*
X131750812Y-103681655D01*
X131796242Y-103712010D01*
X131872990Y-103788758D01*
X131872991Y-103788760D01*
X131933291Y-103879005D01*
X131964516Y-103954389D01*
X131976067Y-103976000D01*
X131991612Y-103994941D01*
X132010554Y-104010487D01*
X132032165Y-104022038D01*
X132055614Y-104029151D01*
X132080000Y-104031553D01*
X132104386Y-104029151D01*
X132127835Y-104022038D01*
X132149446Y-104010487D01*
X132168387Y-103994942D01*
X132183933Y-103976000D01*
X132195484Y-103954389D01*
X132226709Y-103879005D01*
X132287009Y-103788760D01*
X132287010Y-103788758D01*
X132363758Y-103712010D01*
X132409188Y-103681655D01*
X132454005Y-103651709D01*
X132554279Y-103610174D01*
X132660730Y-103589000D01*
X132769270Y-103589000D01*
X132875721Y-103610174D01*
X132975995Y-103651709D01*
X133020812Y-103681655D01*
X133066242Y-103712010D01*
X133142990Y-103788758D01*
X133142991Y-103788760D01*
X133203291Y-103879005D01*
X133244826Y-103979279D01*
X133266000Y-104085730D01*
X133266000Y-104194270D01*
X133244826Y-104300721D01*
X133203291Y-104400995D01*
X133203290Y-104400996D01*
X133142990Y-104491242D01*
X133066242Y-104567990D01*
X133058407Y-104573225D01*
X132975995Y-104628291D01*
X132900611Y-104659516D01*
X132879000Y-104671067D01*
X132860059Y-104686612D01*
X132844513Y-104705554D01*
X132832962Y-104727165D01*
X132825849Y-104750614D01*
X132823447Y-104775000D01*
X132825849Y-104799386D01*
X132832962Y-104822835D01*
X132844513Y-104844446D01*
X132860058Y-104863387D01*
X132879000Y-104878933D01*
X132900611Y-104890484D01*
X132975995Y-104921709D01*
X132975996Y-104921710D01*
X133066242Y-104982010D01*
X133142990Y-105058758D01*
X133142991Y-105058760D01*
X133203291Y-105149005D01*
X133244826Y-105249279D01*
X133266000Y-105355730D01*
X133266000Y-105464270D01*
X133244826Y-105570721D01*
X133203291Y-105670995D01*
X133202077Y-105672812D01*
X133142990Y-105761242D01*
X133066242Y-105837990D01*
X133020812Y-105868345D01*
X132975995Y-105898291D01*
X132900611Y-105929516D01*
X132879000Y-105941067D01*
X132860059Y-105956612D01*
X132844513Y-105975554D01*
X132832962Y-105997165D01*
X132825849Y-106020614D01*
X132823447Y-106045000D01*
X132825849Y-106069386D01*
X132832962Y-106092835D01*
X132844513Y-106114446D01*
X132860058Y-106133387D01*
X132879000Y-106148933D01*
X132900611Y-106160484D01*
X132975995Y-106191709D01*
X133020812Y-106221655D01*
X133066242Y-106252010D01*
X133142990Y-106328758D01*
X133142991Y-106328760D01*
X133203291Y-106419005D01*
X133244826Y-106519279D01*
X133266000Y-106625730D01*
X133266000Y-106734270D01*
X133244826Y-106840721D01*
X133203291Y-106940995D01*
X133203290Y-106940996D01*
X133142990Y-107031242D01*
X133066242Y-107107990D01*
X133058407Y-107113225D01*
X132975995Y-107168291D01*
X132900611Y-107199516D01*
X132879000Y-107211067D01*
X132860059Y-107226612D01*
X132844513Y-107245554D01*
X132832962Y-107267165D01*
X132825849Y-107290614D01*
X132823447Y-107315000D01*
X132825849Y-107339386D01*
X132832962Y-107362835D01*
X132844513Y-107384446D01*
X132860058Y-107403387D01*
X132879000Y-107418933D01*
X132900611Y-107430484D01*
X132975995Y-107461709D01*
X132975996Y-107461710D01*
X133066242Y-107522010D01*
X133142990Y-107598758D01*
X133142991Y-107598760D01*
X133203291Y-107689005D01*
X133244826Y-107789279D01*
X133266000Y-107895730D01*
X133266000Y-108004270D01*
X133244826Y-108110721D01*
X133203291Y-108210995D01*
X133202077Y-108212812D01*
X133142990Y-108301242D01*
X133066242Y-108377990D01*
X133034816Y-108398988D01*
X132973336Y-108440068D01*
X132954394Y-108455614D01*
X132938849Y-108474556D01*
X132927298Y-108496167D01*
X132920185Y-108519615D01*
X132917783Y-108544002D01*
X132920185Y-108568388D01*
X132927298Y-108591837D01*
X132938849Y-108613447D01*
X132954395Y-108632389D01*
X132973337Y-108647934D01*
X132994948Y-108659485D01*
X133018396Y-108666598D01*
X133042782Y-108669000D01*
X133266000Y-108669000D01*
X133266000Y-109771000D01*
X132164000Y-109771000D01*
X132164000Y-109547782D01*
X132161598Y-109523396D01*
X132154485Y-109499947D01*
X132142934Y-109478336D01*
X132127389Y-109459394D01*
X132108447Y-109443849D01*
X132086836Y-109432298D01*
X132063387Y-109425185D01*
X132039001Y-109422783D01*
X132014615Y-109425185D01*
X131991166Y-109432298D01*
X131969555Y-109443849D01*
X131950613Y-109459394D01*
X131935068Y-109478336D01*
X131893988Y-109539816D01*
X131872990Y-109571242D01*
X131796242Y-109647990D01*
X131788407Y-109653225D01*
X131705995Y-109708291D01*
X131605721Y-109749826D01*
X131499270Y-109771000D01*
X131390730Y-109771000D01*
X131284279Y-109749826D01*
X131184005Y-109708291D01*
X131101593Y-109653225D01*
X131093758Y-109647990D01*
X131017010Y-109571242D01*
X130985041Y-109523396D01*
X130956709Y-109480995D01*
X130915174Y-109380721D01*
X130894000Y-109274270D01*
X130894000Y-109165730D01*
X130915174Y-109059279D01*
X130956709Y-108959005D01*
X131017009Y-108868760D01*
X131017010Y-108868758D01*
X131093758Y-108792010D01*
X131139188Y-108761655D01*
X131184005Y-108731709D01*
X131259389Y-108700484D01*
X131281000Y-108688933D01*
X131299941Y-108673388D01*
X131315487Y-108654446D01*
X131327038Y-108632835D01*
X131334151Y-108609386D01*
X131336553Y-108585000D01*
X131553447Y-108585000D01*
X131555849Y-108609386D01*
X131562962Y-108632835D01*
X131574513Y-108654446D01*
X131590058Y-108673387D01*
X131609000Y-108688933D01*
X131630611Y-108700484D01*
X131705995Y-108731709D01*
X131750812Y-108761655D01*
X131796242Y-108792010D01*
X131872990Y-108868758D01*
X131872991Y-108868760D01*
X131935068Y-108961664D01*
X131950614Y-108980606D01*
X131969556Y-108996151D01*
X131991167Y-109007702D01*
X132014615Y-109014815D01*
X132039002Y-109017217D01*
X132063388Y-109014815D01*
X132086837Y-109007702D01*
X132108447Y-108996151D01*
X132127389Y-108980605D01*
X132142934Y-108961663D01*
X132154485Y-108940052D01*
X132161598Y-108916604D01*
X132164000Y-108892218D01*
X132164000Y-108669000D01*
X132387218Y-108669000D01*
X132411604Y-108666598D01*
X132435053Y-108659485D01*
X132456664Y-108647934D01*
X132475606Y-108632389D01*
X132491151Y-108613447D01*
X132502702Y-108591836D01*
X132509815Y-108568387D01*
X132512217Y-108544001D01*
X132509815Y-108519615D01*
X132502702Y-108496166D01*
X132491151Y-108474555D01*
X132475606Y-108455613D01*
X132456664Y-108440068D01*
X132395184Y-108398988D01*
X132363758Y-108377990D01*
X132287010Y-108301242D01*
X132227923Y-108212812D01*
X132226709Y-108210995D01*
X132195484Y-108135611D01*
X132183933Y-108114000D01*
X132168388Y-108095059D01*
X132149446Y-108079513D01*
X132127835Y-108067962D01*
X132104386Y-108060849D01*
X132080000Y-108058447D01*
X132055614Y-108060849D01*
X132032165Y-108067962D01*
X132010554Y-108079513D01*
X131991613Y-108095058D01*
X131976067Y-108114000D01*
X131964516Y-108135611D01*
X131933291Y-108210995D01*
X131932077Y-108212812D01*
X131872990Y-108301242D01*
X131796242Y-108377990D01*
X131750812Y-108408345D01*
X131705995Y-108438291D01*
X131630611Y-108469516D01*
X131609000Y-108481067D01*
X131590059Y-108496612D01*
X131574513Y-108515554D01*
X131562962Y-108537165D01*
X131555849Y-108560614D01*
X131553447Y-108585000D01*
X131336553Y-108585000D01*
X131334151Y-108560614D01*
X131327038Y-108537165D01*
X131315487Y-108515554D01*
X131299942Y-108496613D01*
X131281000Y-108481067D01*
X131259389Y-108469516D01*
X131184005Y-108438291D01*
X131139188Y-108408345D01*
X131093758Y-108377990D01*
X131017010Y-108301242D01*
X130957923Y-108212812D01*
X130956709Y-108210995D01*
X130915174Y-108110721D01*
X130894000Y-108004270D01*
X130894000Y-107895730D01*
X130915174Y-107789279D01*
X130956709Y-107689005D01*
X131017009Y-107598760D01*
X131017010Y-107598758D01*
X131093758Y-107522010D01*
X131184004Y-107461710D01*
X131184005Y-107461709D01*
X131259389Y-107430484D01*
X131281000Y-107418933D01*
X131299941Y-107403388D01*
X131315487Y-107384446D01*
X131327038Y-107362835D01*
X131334151Y-107339386D01*
X131336553Y-107315000D01*
X131553447Y-107315000D01*
X131555849Y-107339386D01*
X131562962Y-107362835D01*
X131574513Y-107384446D01*
X131590058Y-107403387D01*
X131609000Y-107418933D01*
X131630611Y-107430484D01*
X131705995Y-107461709D01*
X131705996Y-107461710D01*
X131796242Y-107522010D01*
X131872990Y-107598758D01*
X131872991Y-107598760D01*
X131933291Y-107689005D01*
X131964516Y-107764389D01*
X131976067Y-107786000D01*
X131991612Y-107804941D01*
X132010554Y-107820487D01*
X132032165Y-107832038D01*
X132055614Y-107839151D01*
X132080000Y-107841553D01*
X132104386Y-107839151D01*
X132127835Y-107832038D01*
X132149446Y-107820487D01*
X132168387Y-107804942D01*
X132183933Y-107786000D01*
X132195484Y-107764389D01*
X132226709Y-107689005D01*
X132287009Y-107598760D01*
X132287010Y-107598758D01*
X132363758Y-107522010D01*
X132454004Y-107461710D01*
X132454005Y-107461709D01*
X132529389Y-107430484D01*
X132551000Y-107418933D01*
X132569941Y-107403388D01*
X132585487Y-107384446D01*
X132597038Y-107362835D01*
X132604151Y-107339386D01*
X132606553Y-107315000D01*
X132604151Y-107290614D01*
X132597038Y-107267165D01*
X132585487Y-107245554D01*
X132569942Y-107226613D01*
X132551000Y-107211067D01*
X132529389Y-107199516D01*
X132454005Y-107168291D01*
X132371593Y-107113225D01*
X132363758Y-107107990D01*
X132287010Y-107031242D01*
X132226710Y-106940996D01*
X132226709Y-106940995D01*
X132195484Y-106865611D01*
X132183933Y-106844000D01*
X132168388Y-106825059D01*
X132149446Y-106809513D01*
X132127835Y-106797962D01*
X132104386Y-106790849D01*
X132080000Y-106788447D01*
X132055614Y-106790849D01*
X132032165Y-106797962D01*
X132010554Y-106809513D01*
X131991613Y-106825058D01*
X131976067Y-106844000D01*
X131964516Y-106865611D01*
X131933291Y-106940995D01*
X131933290Y-106940996D01*
X131872990Y-107031242D01*
X131796242Y-107107990D01*
X131788407Y-107113225D01*
X131705995Y-107168291D01*
X131630611Y-107199516D01*
X131609000Y-107211067D01*
X131590059Y-107226612D01*
X131574513Y-107245554D01*
X131562962Y-107267165D01*
X131555849Y-107290614D01*
X131553447Y-107315000D01*
X131336553Y-107315000D01*
X131334151Y-107290614D01*
X131327038Y-107267165D01*
X131315487Y-107245554D01*
X131299942Y-107226613D01*
X131281000Y-107211067D01*
X131259389Y-107199516D01*
X131184005Y-107168291D01*
X131101593Y-107113225D01*
X131093758Y-107107990D01*
X131017010Y-107031242D01*
X130956710Y-106940996D01*
X130956709Y-106940995D01*
X130915174Y-106840721D01*
X130894000Y-106734270D01*
X130894000Y-106625730D01*
X130915174Y-106519279D01*
X130956709Y-106419005D01*
X131017009Y-106328760D01*
X131017010Y-106328758D01*
X131093758Y-106252010D01*
X131139188Y-106221655D01*
X131184005Y-106191709D01*
X131259389Y-106160484D01*
X131281000Y-106148933D01*
X131299941Y-106133388D01*
X131315487Y-106114446D01*
X131327038Y-106092835D01*
X131334151Y-106069386D01*
X131336553Y-106045000D01*
X131553447Y-106045000D01*
X131555849Y-106069386D01*
X131562962Y-106092835D01*
X131574513Y-106114446D01*
X131590058Y-106133387D01*
X131609000Y-106148933D01*
X131630611Y-106160484D01*
X131705995Y-106191709D01*
X131750812Y-106221655D01*
X131796242Y-106252010D01*
X131872990Y-106328758D01*
X131872991Y-106328760D01*
X131933291Y-106419005D01*
X131964516Y-106494389D01*
X131976067Y-106516000D01*
X131991612Y-106534941D01*
X132010554Y-106550487D01*
X132032165Y-106562038D01*
X132055614Y-106569151D01*
X132080000Y-106571553D01*
X132104386Y-106569151D01*
X132127835Y-106562038D01*
X132149446Y-106550487D01*
X132168387Y-106534942D01*
X132183933Y-106516000D01*
X132195484Y-106494389D01*
X132226709Y-106419005D01*
X132287009Y-106328760D01*
X132287010Y-106328758D01*
X132363758Y-106252010D01*
X132409188Y-106221655D01*
X132454005Y-106191709D01*
X132529389Y-106160484D01*
X132551000Y-106148933D01*
X132569941Y-106133388D01*
X132585487Y-106114446D01*
X132597038Y-106092835D01*
X132604151Y-106069386D01*
X132606553Y-106045000D01*
X132604151Y-106020614D01*
X132597038Y-105997165D01*
X132585487Y-105975554D01*
X132569942Y-105956613D01*
X132551000Y-105941067D01*
X132529389Y-105929516D01*
X132454005Y-105898291D01*
X132409188Y-105868345D01*
X132363758Y-105837990D01*
X132287010Y-105761242D01*
X132227923Y-105672812D01*
X132226709Y-105670995D01*
X132195484Y-105595611D01*
X132183933Y-105574000D01*
X132168388Y-105555059D01*
X132149446Y-105539513D01*
X132127835Y-105527962D01*
X132104386Y-105520849D01*
X132080000Y-105518447D01*
X132055614Y-105520849D01*
X132032165Y-105527962D01*
X132010554Y-105539513D01*
X131991613Y-105555058D01*
X131976067Y-105574000D01*
X131964516Y-105595611D01*
X131933291Y-105670995D01*
X131932077Y-105672812D01*
X131872990Y-105761242D01*
X131796242Y-105837990D01*
X131750812Y-105868345D01*
X131705995Y-105898291D01*
X131630611Y-105929516D01*
X131609000Y-105941067D01*
X131590059Y-105956612D01*
X131574513Y-105975554D01*
X131562962Y-105997165D01*
X131555849Y-106020614D01*
X131553447Y-106045000D01*
X131336553Y-106045000D01*
X131334151Y-106020614D01*
X131327038Y-105997165D01*
X131315487Y-105975554D01*
X131299942Y-105956613D01*
X131281000Y-105941067D01*
X131259389Y-105929516D01*
X131184005Y-105898291D01*
X131139188Y-105868345D01*
X131093758Y-105837990D01*
X131017010Y-105761242D01*
X130957923Y-105672812D01*
X130956709Y-105670995D01*
X130915174Y-105570721D01*
X130894000Y-105464270D01*
X130894000Y-105355730D01*
X130915174Y-105249279D01*
X130956709Y-105149005D01*
X131017009Y-105058760D01*
X131017010Y-105058758D01*
X131093758Y-104982010D01*
X131184004Y-104921710D01*
X131184005Y-104921709D01*
X131259389Y-104890484D01*
X131281000Y-104878933D01*
X131299941Y-104863388D01*
X131315487Y-104844446D01*
X131327038Y-104822835D01*
X131334151Y-104799386D01*
X131336553Y-104775000D01*
X131553447Y-104775000D01*
X131555849Y-104799386D01*
X131562962Y-104822835D01*
X131574513Y-104844446D01*
X131590058Y-104863387D01*
X131609000Y-104878933D01*
X131630611Y-104890484D01*
X131705995Y-104921709D01*
X131705996Y-104921710D01*
X131796242Y-104982010D01*
X131872990Y-105058758D01*
X131872991Y-105058760D01*
X131933291Y-105149005D01*
X131964516Y-105224389D01*
X131976067Y-105246000D01*
X131991612Y-105264941D01*
X132010554Y-105280487D01*
X132032165Y-105292038D01*
X132055614Y-105299151D01*
X132080000Y-105301553D01*
X132104386Y-105299151D01*
X132127835Y-105292038D01*
X132149446Y-105280487D01*
X132168387Y-105264942D01*
X132183933Y-105246000D01*
X132195484Y-105224389D01*
X132226709Y-105149005D01*
X132287009Y-105058760D01*
X132287010Y-105058758D01*
X132363758Y-104982010D01*
X132454004Y-104921710D01*
X132454005Y-104921709D01*
X132529389Y-104890484D01*
X132551000Y-104878933D01*
X132569941Y-104863388D01*
X132585487Y-104844446D01*
X132597038Y-104822835D01*
X132604151Y-104799386D01*
X132606553Y-104775000D01*
X132604151Y-104750614D01*
X132597038Y-104727165D01*
X132585487Y-104705554D01*
X132569942Y-104686613D01*
X132551000Y-104671067D01*
X132529389Y-104659516D01*
X132454005Y-104628291D01*
X132371593Y-104573225D01*
X132363758Y-104567990D01*
X132287010Y-104491242D01*
X132226710Y-104400996D01*
X132226709Y-104400995D01*
X132195484Y-104325611D01*
X132183933Y-104304000D01*
X132168388Y-104285059D01*
X132149446Y-104269513D01*
X132127835Y-104257962D01*
X132104386Y-104250849D01*
X132080000Y-104248447D01*
X132055614Y-104250849D01*
X132032165Y-104257962D01*
X132010554Y-104269513D01*
X131991613Y-104285058D01*
X131976067Y-104304000D01*
X131964516Y-104325611D01*
X131933291Y-104400995D01*
X131933290Y-104400996D01*
X131872990Y-104491242D01*
X131796242Y-104567990D01*
X131788407Y-104573225D01*
X131705995Y-104628291D01*
X131630611Y-104659516D01*
X131609000Y-104671067D01*
X131590059Y-104686612D01*
X131574513Y-104705554D01*
X131562962Y-104727165D01*
X131555849Y-104750614D01*
X131553447Y-104775000D01*
X131336553Y-104775000D01*
X131334151Y-104750614D01*
X131327038Y-104727165D01*
X131315487Y-104705554D01*
X131299942Y-104686613D01*
X131281000Y-104671067D01*
X131259389Y-104659516D01*
X131184005Y-104628291D01*
X131101593Y-104573225D01*
X131093758Y-104567990D01*
X131017010Y-104491242D01*
X130956710Y-104400996D01*
X130956709Y-104400995D01*
X130915174Y-104300721D01*
X130894000Y-104194270D01*
X130894000Y-104085730D01*
X130915174Y-103979279D01*
X130956709Y-103879005D01*
X131017009Y-103788760D01*
X131017010Y-103788758D01*
X131093758Y-103712010D01*
X131139188Y-103681655D01*
X131184005Y-103651709D01*
X131284279Y-103610174D01*
X131390730Y-103589000D01*
X131499270Y-103589000D01*
X131605721Y-103610174D01*
G37*
G36*
X91553512Y-107053927D02*
G01*
X91702812Y-107083624D01*
X91866784Y-107151544D01*
X92014354Y-107250147D01*
X92139853Y-107375646D01*
X92238456Y-107523216D01*
X92306376Y-107687188D01*
X92341000Y-107861259D01*
X92341000Y-108038741D01*
X92306376Y-108212812D01*
X92238456Y-108376784D01*
X92139853Y-108524354D01*
X92014354Y-108649853D01*
X91866784Y-108748456D01*
X91702812Y-108816376D01*
X91553512Y-108846073D01*
X91528742Y-108851000D01*
X91351258Y-108851000D01*
X91326488Y-108846073D01*
X91177188Y-108816376D01*
X91013216Y-108748456D01*
X90865646Y-108649853D01*
X90740147Y-108524354D01*
X90641544Y-108376784D01*
X90573624Y-108212812D01*
X90539000Y-108038741D01*
X90539000Y-107861259D01*
X90573624Y-107687188D01*
X90641544Y-107523216D01*
X90740147Y-107375646D01*
X90865646Y-107250147D01*
X91013216Y-107151544D01*
X91177188Y-107083624D01*
X91326488Y-107053927D01*
X91351258Y-107049000D01*
X91528742Y-107049000D01*
X91553512Y-107053927D01*
G37*
G36*
X94093512Y-107053927D02*
G01*
X94242812Y-107083624D01*
X94406784Y-107151544D01*
X94554354Y-107250147D01*
X94679853Y-107375646D01*
X94778456Y-107523216D01*
X94846376Y-107687188D01*
X94881000Y-107861259D01*
X94881000Y-108038741D01*
X94846376Y-108212812D01*
X94778456Y-108376784D01*
X94679853Y-108524354D01*
X94554354Y-108649853D01*
X94406784Y-108748456D01*
X94242812Y-108816376D01*
X94093512Y-108846073D01*
X94068742Y-108851000D01*
X93891258Y-108851000D01*
X93866488Y-108846073D01*
X93717188Y-108816376D01*
X93553216Y-108748456D01*
X93405646Y-108649853D01*
X93280147Y-108524354D01*
X93181544Y-108376784D01*
X93113624Y-108212812D01*
X93079000Y-108038741D01*
X93079000Y-107861259D01*
X93113624Y-107687188D01*
X93181544Y-107523216D01*
X93280147Y-107375646D01*
X93405646Y-107250147D01*
X93553216Y-107151544D01*
X93717188Y-107083624D01*
X93866488Y-107053927D01*
X93891258Y-107049000D01*
X94068742Y-107049000D01*
X94093512Y-107053927D01*
G37*
G36*
X109333512Y-107053927D02*
G01*
X109482812Y-107083624D01*
X109646784Y-107151544D01*
X109794354Y-107250147D01*
X109919853Y-107375646D01*
X110018456Y-107523216D01*
X110086376Y-107687188D01*
X110121000Y-107861259D01*
X110121000Y-108038741D01*
X110086376Y-108212812D01*
X110018456Y-108376784D01*
X109919853Y-108524354D01*
X109794354Y-108649853D01*
X109646784Y-108748456D01*
X109482812Y-108816376D01*
X109333512Y-108846073D01*
X109308742Y-108851000D01*
X109131258Y-108851000D01*
X109106488Y-108846073D01*
X108957188Y-108816376D01*
X108793216Y-108748456D01*
X108645646Y-108649853D01*
X108520147Y-108524354D01*
X108421544Y-108376784D01*
X108353624Y-108212812D01*
X108319000Y-108038741D01*
X108319000Y-107861259D01*
X108353624Y-107687188D01*
X108421544Y-107523216D01*
X108520147Y-107375646D01*
X108645646Y-107250147D01*
X108793216Y-107151544D01*
X108957188Y-107083624D01*
X109106488Y-107053927D01*
X109131258Y-107049000D01*
X109308742Y-107049000D01*
X109333512Y-107053927D01*
G37*
G36*
X107581000Y-108851000D02*
G01*
X105779000Y-108851000D01*
X105779000Y-107049000D01*
X107581000Y-107049000D01*
X107581000Y-108851000D01*
G37*
G36*
X122821778Y-105800547D02*
G01*
X122988224Y-105869491D01*
X123138022Y-105969583D01*
X123265417Y-106096978D01*
X123365509Y-106246776D01*
X123434453Y-106413222D01*
X123469600Y-106589918D01*
X123469600Y-106770082D01*
X123434453Y-106946778D01*
X123365509Y-107113224D01*
X123265417Y-107263022D01*
X123138022Y-107390417D01*
X122988224Y-107490509D01*
X122821778Y-107559453D01*
X122645082Y-107594600D01*
X122464918Y-107594600D01*
X122288222Y-107559453D01*
X122121776Y-107490509D01*
X121971978Y-107390417D01*
X121844583Y-107263022D01*
X121744491Y-107113224D01*
X121675547Y-106946778D01*
X121640400Y-106770082D01*
X121640400Y-106589918D01*
X121675547Y-106413222D01*
X121744491Y-106246776D01*
X121844583Y-106096978D01*
X121971978Y-105969583D01*
X122121776Y-105869491D01*
X122288222Y-105800547D01*
X122464918Y-105765400D01*
X122645082Y-105765400D01*
X122821778Y-105800547D01*
G37*
G36*
X120281778Y-105800547D02*
G01*
X120448224Y-105869491D01*
X120598022Y-105969583D01*
X120725417Y-106096978D01*
X120825509Y-106246776D01*
X120894453Y-106413222D01*
X120929600Y-106589918D01*
X120929600Y-106770082D01*
X120894453Y-106946778D01*
X120825509Y-107113224D01*
X120725417Y-107263022D01*
X120598022Y-107390417D01*
X120448224Y-107490509D01*
X120281778Y-107559453D01*
X120105082Y-107594600D01*
X119924918Y-107594600D01*
X119748222Y-107559453D01*
X119581776Y-107490509D01*
X119431978Y-107390417D01*
X119304583Y-107263022D01*
X119204491Y-107113224D01*
X119135547Y-106946778D01*
X119100400Y-106770082D01*
X119100400Y-106589918D01*
X119135547Y-106413222D01*
X119204491Y-106246776D01*
X119304583Y-106096978D01*
X119431978Y-105969583D01*
X119581776Y-105869491D01*
X119748222Y-105800547D01*
X119924918Y-105765400D01*
X120105082Y-105765400D01*
X120281778Y-105800547D01*
G37*
G36*
X91553512Y-104513927D02*
G01*
X91702812Y-104543624D01*
X91866784Y-104611544D01*
X92014354Y-104710147D01*
X92139853Y-104835646D01*
X92238456Y-104983216D01*
X92306376Y-105147188D01*
X92341000Y-105321259D01*
X92341000Y-105498741D01*
X92306376Y-105672812D01*
X92238456Y-105836784D01*
X92139853Y-105984354D01*
X92014354Y-106109853D01*
X91866784Y-106208456D01*
X91702812Y-106276376D01*
X91553512Y-106306073D01*
X91528742Y-106311000D01*
X91351258Y-106311000D01*
X91326488Y-106306073D01*
X91177188Y-106276376D01*
X91013216Y-106208456D01*
X90865646Y-106109853D01*
X90740147Y-105984354D01*
X90641544Y-105836784D01*
X90573624Y-105672812D01*
X90539000Y-105498741D01*
X90539000Y-105321259D01*
X90573624Y-105147188D01*
X90641544Y-104983216D01*
X90740147Y-104835646D01*
X90865646Y-104710147D01*
X91013216Y-104611544D01*
X91177188Y-104543624D01*
X91326488Y-104513927D01*
X91351258Y-104509000D01*
X91528742Y-104509000D01*
X91553512Y-104513927D01*
G37*
G36*
X94093512Y-104513927D02*
G01*
X94242812Y-104543624D01*
X94406784Y-104611544D01*
X94554354Y-104710147D01*
X94679853Y-104835646D01*
X94778456Y-104983216D01*
X94846376Y-105147188D01*
X94881000Y-105321259D01*
X94881000Y-105498741D01*
X94846376Y-105672812D01*
X94778456Y-105836784D01*
X94679853Y-105984354D01*
X94554354Y-106109853D01*
X94406784Y-106208456D01*
X94242812Y-106276376D01*
X94093512Y-106306073D01*
X94068742Y-106311000D01*
X93891258Y-106311000D01*
X93866488Y-106306073D01*
X93717188Y-106276376D01*
X93553216Y-106208456D01*
X93405646Y-106109853D01*
X93280147Y-105984354D01*
X93181544Y-105836784D01*
X93113624Y-105672812D01*
X93079000Y-105498741D01*
X93079000Y-105321259D01*
X93113624Y-105147188D01*
X93181544Y-104983216D01*
X93280147Y-104835646D01*
X93405646Y-104710147D01*
X93553216Y-104611544D01*
X93717188Y-104543624D01*
X93866488Y-104513927D01*
X93891258Y-104509000D01*
X94068742Y-104509000D01*
X94093512Y-104513927D01*
G37*
G36*
X122821778Y-103260547D02*
G01*
X122988224Y-103329491D01*
X123138022Y-103429583D01*
X123265417Y-103556978D01*
X123365509Y-103706776D01*
X123434453Y-103873222D01*
X123469600Y-104049918D01*
X123469600Y-104230082D01*
X123434453Y-104406778D01*
X123365509Y-104573224D01*
X123265417Y-104723022D01*
X123138022Y-104850417D01*
X122988224Y-104950509D01*
X122821778Y-105019453D01*
X122645082Y-105054600D01*
X122464918Y-105054600D01*
X122288222Y-105019453D01*
X122121776Y-104950509D01*
X121971978Y-104850417D01*
X121844583Y-104723022D01*
X121744491Y-104573224D01*
X121675547Y-104406778D01*
X121640400Y-104230082D01*
X121640400Y-104049918D01*
X121675547Y-103873222D01*
X121744491Y-103706776D01*
X121844583Y-103556978D01*
X121971978Y-103429583D01*
X122121776Y-103329491D01*
X122288222Y-103260547D01*
X122464918Y-103225400D01*
X122645082Y-103225400D01*
X122821778Y-103260547D01*
G37*
G36*
X120281778Y-103260547D02*
G01*
X120448224Y-103329491D01*
X120598022Y-103429583D01*
X120725417Y-103556978D01*
X120825509Y-103706776D01*
X120894453Y-103873222D01*
X120929600Y-104049918D01*
X120929600Y-104230082D01*
X120894453Y-104406778D01*
X120825509Y-104573224D01*
X120725417Y-104723022D01*
X120598022Y-104850417D01*
X120448224Y-104950509D01*
X120281778Y-105019453D01*
X120105082Y-105054600D01*
X119924918Y-105054600D01*
X119748222Y-105019453D01*
X119581776Y-104950509D01*
X119431978Y-104850417D01*
X119304583Y-104723022D01*
X119204491Y-104573224D01*
X119135547Y-104406778D01*
X119100400Y-104230082D01*
X119100400Y-104049918D01*
X119135547Y-103873222D01*
X119204491Y-103706776D01*
X119304583Y-103556978D01*
X119431978Y-103429583D01*
X119581776Y-103329491D01*
X119748222Y-103260547D01*
X119924918Y-103225400D01*
X120105082Y-103225400D01*
X120281778Y-103260547D01*
G37*
G36*
X91553512Y-101973927D02*
G01*
X91702812Y-102003624D01*
X91866784Y-102071544D01*
X92014354Y-102170147D01*
X92139853Y-102295646D01*
X92238456Y-102443216D01*
X92306376Y-102607188D01*
X92341000Y-102781259D01*
X92341000Y-102958741D01*
X92306376Y-103132812D01*
X92238456Y-103296784D01*
X92139853Y-103444354D01*
X92014354Y-103569853D01*
X91866784Y-103668456D01*
X91702812Y-103736376D01*
X91553512Y-103766073D01*
X91528742Y-103771000D01*
X91351258Y-103771000D01*
X91326488Y-103766073D01*
X91177188Y-103736376D01*
X91013216Y-103668456D01*
X90865646Y-103569853D01*
X90740147Y-103444354D01*
X90641544Y-103296784D01*
X90573624Y-103132812D01*
X90539000Y-102958741D01*
X90539000Y-102781259D01*
X90573624Y-102607188D01*
X90641544Y-102443216D01*
X90740147Y-102295646D01*
X90865646Y-102170147D01*
X91013216Y-102071544D01*
X91177188Y-102003624D01*
X91326488Y-101973927D01*
X91351258Y-101969000D01*
X91528742Y-101969000D01*
X91553512Y-101973927D01*
G37*
G36*
X94093512Y-101973927D02*
G01*
X94242812Y-102003624D01*
X94406784Y-102071544D01*
X94554354Y-102170147D01*
X94679853Y-102295646D01*
X94778456Y-102443216D01*
X94846376Y-102607188D01*
X94881000Y-102781259D01*
X94881000Y-102958741D01*
X94846376Y-103132812D01*
X94778456Y-103296784D01*
X94679853Y-103444354D01*
X94554354Y-103569853D01*
X94406784Y-103668456D01*
X94242812Y-103736376D01*
X94093512Y-103766073D01*
X94068742Y-103771000D01*
X93891258Y-103771000D01*
X93866488Y-103766073D01*
X93717188Y-103736376D01*
X93553216Y-103668456D01*
X93405646Y-103569853D01*
X93280147Y-103444354D01*
X93181544Y-103296784D01*
X93113624Y-103132812D01*
X93079000Y-102958741D01*
X93079000Y-102781259D01*
X93113624Y-102607188D01*
X93181544Y-102443216D01*
X93280147Y-102295646D01*
X93405646Y-102170147D01*
X93553216Y-102071544D01*
X93717188Y-102003624D01*
X93866488Y-101973927D01*
X93891258Y-101969000D01*
X94068742Y-101969000D01*
X94093512Y-101973927D01*
G37*
G36*
X103136000Y-103771000D02*
G01*
X101334000Y-103771000D01*
X101334000Y-101969000D01*
X103136000Y-101969000D01*
X103136000Y-103771000D01*
G37*
G36*
X107581000Y-103771000D02*
G01*
X105779000Y-103771000D01*
X105779000Y-101969000D01*
X107581000Y-101969000D01*
X107581000Y-103771000D01*
G37*
G36*
X120281778Y-100720547D02*
G01*
X120448224Y-100789491D01*
X120598022Y-100889583D01*
X120725417Y-101016978D01*
X120825509Y-101166776D01*
X120894453Y-101333222D01*
X120929600Y-101509918D01*
X120929600Y-101690082D01*
X120894453Y-101866778D01*
X120825509Y-102033224D01*
X120725417Y-102183022D01*
X120598022Y-102310417D01*
X120448224Y-102410509D01*
X120281778Y-102479453D01*
X120105082Y-102514600D01*
X119924918Y-102514600D01*
X119748222Y-102479453D01*
X119581776Y-102410509D01*
X119431978Y-102310417D01*
X119304583Y-102183022D01*
X119204491Y-102033224D01*
X119135547Y-101866778D01*
X119100400Y-101690082D01*
X119100400Y-101509918D01*
X119135547Y-101333222D01*
X119204491Y-101166776D01*
X119304583Y-101016978D01*
X119431978Y-100889583D01*
X119581776Y-100789491D01*
X119748222Y-100720547D01*
X119924918Y-100685400D01*
X120105082Y-100685400D01*
X120281778Y-100720547D01*
G37*
G36*
X122821778Y-100720547D02*
G01*
X122988224Y-100789491D01*
X123138022Y-100889583D01*
X123265417Y-101016978D01*
X123365509Y-101166776D01*
X123434453Y-101333222D01*
X123469600Y-101509918D01*
X123469600Y-101690082D01*
X123434453Y-101866778D01*
X123365509Y-102033224D01*
X123265417Y-102183022D01*
X123138022Y-102310417D01*
X122988224Y-102410509D01*
X122821778Y-102479453D01*
X122645082Y-102514600D01*
X122464918Y-102514600D01*
X122288222Y-102479453D01*
X122121776Y-102410509D01*
X121971978Y-102310417D01*
X121844583Y-102183022D01*
X121744491Y-102033224D01*
X121675547Y-101866778D01*
X121640400Y-101690082D01*
X121640400Y-101509918D01*
X121675547Y-101333222D01*
X121744491Y-101166776D01*
X121844583Y-101016978D01*
X121971978Y-100889583D01*
X122121776Y-100789491D01*
X122288222Y-100720547D01*
X122464918Y-100685400D01*
X122645082Y-100685400D01*
X122821778Y-100720547D01*
G37*
G36*
X91553512Y-99433927D02*
G01*
X91702812Y-99463624D01*
X91866784Y-99531544D01*
X92014354Y-99630147D01*
X92139853Y-99755646D01*
X92238456Y-99903216D01*
X92306376Y-100067188D01*
X92341000Y-100241259D01*
X92341000Y-100418741D01*
X92306376Y-100592812D01*
X92238456Y-100756784D01*
X92139853Y-100904354D01*
X92014354Y-101029853D01*
X91866784Y-101128456D01*
X91702812Y-101196376D01*
X91553512Y-101226073D01*
X91528742Y-101231000D01*
X91351258Y-101231000D01*
X91326488Y-101226073D01*
X91177188Y-101196376D01*
X91013216Y-101128456D01*
X90865646Y-101029853D01*
X90740147Y-100904354D01*
X90641544Y-100756784D01*
X90573624Y-100592812D01*
X90539000Y-100418741D01*
X90539000Y-100241259D01*
X90573624Y-100067188D01*
X90641544Y-99903216D01*
X90740147Y-99755646D01*
X90865646Y-99630147D01*
X91013216Y-99531544D01*
X91177188Y-99463624D01*
X91326488Y-99433927D01*
X91351258Y-99429000D01*
X91528742Y-99429000D01*
X91553512Y-99433927D01*
G37*
G36*
X94093512Y-99433927D02*
G01*
X94242812Y-99463624D01*
X94406784Y-99531544D01*
X94554354Y-99630147D01*
X94679853Y-99755646D01*
X94778456Y-99903216D01*
X94846376Y-100067188D01*
X94881000Y-100241259D01*
X94881000Y-100418741D01*
X94846376Y-100592812D01*
X94778456Y-100756784D01*
X94679853Y-100904354D01*
X94554354Y-101029853D01*
X94406784Y-101128456D01*
X94242812Y-101196376D01*
X94093512Y-101226073D01*
X94068742Y-101231000D01*
X93891258Y-101231000D01*
X93866488Y-101226073D01*
X93717188Y-101196376D01*
X93553216Y-101128456D01*
X93405646Y-101029853D01*
X93280147Y-100904354D01*
X93181544Y-100756784D01*
X93113624Y-100592812D01*
X93079000Y-100418741D01*
X93079000Y-100241259D01*
X93113624Y-100067188D01*
X93181544Y-99903216D01*
X93280147Y-99755646D01*
X93405646Y-99630147D01*
X93553216Y-99531544D01*
X93717188Y-99463624D01*
X93866488Y-99433927D01*
X93891258Y-99429000D01*
X94068742Y-99429000D01*
X94093512Y-99433927D01*
G37*
G36*
X102348512Y-99433927D02*
G01*
X102497812Y-99463624D01*
X102661784Y-99531544D01*
X102809354Y-99630147D01*
X102934853Y-99755646D01*
X103033456Y-99903216D01*
X103101376Y-100067188D01*
X103136000Y-100241259D01*
X103136000Y-100418741D01*
X103101376Y-100592812D01*
X103033456Y-100756784D01*
X102934853Y-100904354D01*
X102809354Y-101029853D01*
X102661784Y-101128456D01*
X102497812Y-101196376D01*
X102348512Y-101226073D01*
X102323742Y-101231000D01*
X102146258Y-101231000D01*
X102121488Y-101226073D01*
X101972188Y-101196376D01*
X101808216Y-101128456D01*
X101660646Y-101029853D01*
X101535147Y-100904354D01*
X101436544Y-100756784D01*
X101368624Y-100592812D01*
X101334000Y-100418741D01*
X101334000Y-100241259D01*
X101368624Y-100067188D01*
X101436544Y-99903216D01*
X101535147Y-99755646D01*
X101660646Y-99630147D01*
X101808216Y-99531544D01*
X101972188Y-99463624D01*
X102121488Y-99433927D01*
X102146258Y-99429000D01*
X102323742Y-99429000D01*
X102348512Y-99433927D01*
G37*
G36*
X106793512Y-99433927D02*
G01*
X106942812Y-99463624D01*
X107106784Y-99531544D01*
X107254354Y-99630147D01*
X107379853Y-99755646D01*
X107478456Y-99903216D01*
X107546376Y-100067188D01*
X107581000Y-100241259D01*
X107581000Y-100418741D01*
X107546376Y-100592812D01*
X107478456Y-100756784D01*
X107379853Y-100904354D01*
X107254354Y-101029853D01*
X107106784Y-101128456D01*
X106942812Y-101196376D01*
X106793512Y-101226073D01*
X106768742Y-101231000D01*
X106591258Y-101231000D01*
X106566488Y-101226073D01*
X106417188Y-101196376D01*
X106253216Y-101128456D01*
X106105646Y-101029853D01*
X105980147Y-100904354D01*
X105881544Y-100756784D01*
X105813624Y-100592812D01*
X105779000Y-100418741D01*
X105779000Y-100241259D01*
X105813624Y-100067188D01*
X105881544Y-99903216D01*
X105980147Y-99755646D01*
X106105646Y-99630147D01*
X106253216Y-99531544D01*
X106417188Y-99463624D01*
X106566488Y-99433927D01*
X106591258Y-99429000D01*
X106768742Y-99429000D01*
X106793512Y-99433927D01*
G37*
G36*
X91553512Y-96893927D02*
G01*
X91702812Y-96923624D01*
X91866784Y-96991544D01*
X92014354Y-97090147D01*
X92139853Y-97215646D01*
X92238456Y-97363216D01*
X92306376Y-97527188D01*
X92341000Y-97701259D01*
X92341000Y-97878741D01*
X92306376Y-98052812D01*
X92238456Y-98216784D01*
X92139853Y-98364354D01*
X92014354Y-98489853D01*
X91866784Y-98588456D01*
X91702812Y-98656376D01*
X91553512Y-98686073D01*
X91528742Y-98691000D01*
X91351258Y-98691000D01*
X91326488Y-98686073D01*
X91177188Y-98656376D01*
X91013216Y-98588456D01*
X90865646Y-98489853D01*
X90740147Y-98364354D01*
X90641544Y-98216784D01*
X90573624Y-98052812D01*
X90539000Y-97878741D01*
X90539000Y-97701259D01*
X90573624Y-97527188D01*
X90641544Y-97363216D01*
X90740147Y-97215646D01*
X90865646Y-97090147D01*
X91013216Y-96991544D01*
X91177188Y-96923624D01*
X91326488Y-96893927D01*
X91351258Y-96889000D01*
X91528742Y-96889000D01*
X91553512Y-96893927D01*
G37*
G36*
X94093512Y-96893927D02*
G01*
X94242812Y-96923624D01*
X94406784Y-96991544D01*
X94554354Y-97090147D01*
X94679853Y-97215646D01*
X94778456Y-97363216D01*
X94846376Y-97527188D01*
X94881000Y-97701259D01*
X94881000Y-97878741D01*
X94846376Y-98052812D01*
X94778456Y-98216784D01*
X94679853Y-98364354D01*
X94554354Y-98489853D01*
X94406784Y-98588456D01*
X94242812Y-98656376D01*
X94093512Y-98686073D01*
X94068742Y-98691000D01*
X93891258Y-98691000D01*
X93866488Y-98686073D01*
X93717188Y-98656376D01*
X93553216Y-98588456D01*
X93405646Y-98489853D01*
X93280147Y-98364354D01*
X93181544Y-98216784D01*
X93113624Y-98052812D01*
X93079000Y-97878741D01*
X93079000Y-97701259D01*
X93113624Y-97527188D01*
X93181544Y-97363216D01*
X93280147Y-97215646D01*
X93405646Y-97090147D01*
X93553216Y-96991544D01*
X93717188Y-96923624D01*
X93866488Y-96893927D01*
X93891258Y-96889000D01*
X94068742Y-96889000D01*
X94093512Y-96893927D01*
G37*
G36*
X106793512Y-96893927D02*
G01*
X106942812Y-96923624D01*
X107106784Y-96991544D01*
X107254354Y-97090147D01*
X107379853Y-97215646D01*
X107478456Y-97363216D01*
X107546376Y-97527188D01*
X107581000Y-97701259D01*
X107581000Y-97878741D01*
X107546376Y-98052812D01*
X107478456Y-98216784D01*
X107379853Y-98364354D01*
X107254354Y-98489853D01*
X107106784Y-98588456D01*
X106942812Y-98656376D01*
X106793512Y-98686073D01*
X106768742Y-98691000D01*
X106591258Y-98691000D01*
X106566488Y-98686073D01*
X106417188Y-98656376D01*
X106253216Y-98588456D01*
X106105646Y-98489853D01*
X105980147Y-98364354D01*
X105881544Y-98216784D01*
X105813624Y-98052812D01*
X105779000Y-97878741D01*
X105779000Y-97701259D01*
X105813624Y-97527188D01*
X105881544Y-97363216D01*
X105980147Y-97215646D01*
X106105646Y-97090147D01*
X106253216Y-96991544D01*
X106417188Y-96923624D01*
X106566488Y-96893927D01*
X106591258Y-96889000D01*
X106768742Y-96889000D01*
X106793512Y-96893927D01*
G37*
G36*
X102348512Y-96893927D02*
G01*
X102497812Y-96923624D01*
X102661784Y-96991544D01*
X102809354Y-97090147D01*
X102934853Y-97215646D01*
X103033456Y-97363216D01*
X103101376Y-97527188D01*
X103136000Y-97701259D01*
X103136000Y-97878741D01*
X103101376Y-98052812D01*
X103033456Y-98216784D01*
X102934853Y-98364354D01*
X102809354Y-98489853D01*
X102661784Y-98588456D01*
X102497812Y-98656376D01*
X102348512Y-98686073D01*
X102323742Y-98691000D01*
X102146258Y-98691000D01*
X102121488Y-98686073D01*
X101972188Y-98656376D01*
X101808216Y-98588456D01*
X101660646Y-98489853D01*
X101535147Y-98364354D01*
X101436544Y-98216784D01*
X101368624Y-98052812D01*
X101334000Y-97878741D01*
X101334000Y-97701259D01*
X101368624Y-97527188D01*
X101436544Y-97363216D01*
X101535147Y-97215646D01*
X101660646Y-97090147D01*
X101808216Y-96991544D01*
X101972188Y-96923624D01*
X102121488Y-96893927D01*
X102146258Y-96889000D01*
X102323742Y-96889000D01*
X102348512Y-96893927D01*
G37*
G36*
X127233578Y-96365197D02*
G01*
X127286350Y-96375694D01*
X127385770Y-96416875D01*
X127475246Y-96476661D01*
X127551339Y-96552754D01*
X127611125Y-96642230D01*
X127652306Y-96741650D01*
X127673300Y-96847194D01*
X127673300Y-96954806D01*
X127652306Y-97060350D01*
X127611125Y-97159770D01*
X127551339Y-97249246D01*
X127475246Y-97325339D01*
X127385770Y-97385125D01*
X127286350Y-97426306D01*
X127233578Y-97436803D01*
X127180807Y-97447300D01*
X127073193Y-97447300D01*
X127020422Y-97436803D01*
X126967650Y-97426306D01*
X126868230Y-97385125D01*
X126778754Y-97325339D01*
X126702661Y-97249246D01*
X126642875Y-97159770D01*
X126601694Y-97060350D01*
X126580700Y-96954806D01*
X126580700Y-96847194D01*
X126601694Y-96741650D01*
X126642875Y-96642230D01*
X126702661Y-96552754D01*
X126778754Y-96476661D01*
X126868230Y-96416875D01*
X126967650Y-96375694D01*
X127020422Y-96365197D01*
X127073193Y-96354700D01*
X127180807Y-96354700D01*
X127233578Y-96365197D01*
G37*
G36*
X129796714Y-96092389D02*
G01*
X129854624Y-96116376D01*
X129877645Y-96125912D01*
X129950480Y-96174579D01*
X130012421Y-96236520D01*
X130061088Y-96309355D01*
X130094611Y-96390286D01*
X130111700Y-96476201D01*
X130111700Y-96563799D01*
X130094611Y-96649714D01*
X130061088Y-96730645D01*
X130012421Y-96803480D01*
X129950480Y-96865421D01*
X129877645Y-96914088D01*
X129877644Y-96914089D01*
X129877643Y-96914089D01*
X129796714Y-96947611D01*
X129710801Y-96964700D01*
X129623199Y-96964700D01*
X129537286Y-96947611D01*
X129456357Y-96914089D01*
X129456356Y-96914089D01*
X129456355Y-96914088D01*
X129383520Y-96865421D01*
X129321579Y-96803480D01*
X129272912Y-96730645D01*
X129239389Y-96649714D01*
X129222300Y-96563799D01*
X129222300Y-96476201D01*
X129239389Y-96390286D01*
X129272912Y-96309355D01*
X129321579Y-96236520D01*
X129383520Y-96174579D01*
X129456355Y-96125912D01*
X129479377Y-96116376D01*
X129537286Y-96092389D01*
X129623199Y-96075300D01*
X129710801Y-96075300D01*
X129796714Y-96092389D01*
G37*
G36*
X128526714Y-96092389D02*
G01*
X128584624Y-96116376D01*
X128607645Y-96125912D01*
X128680480Y-96174579D01*
X128742421Y-96236520D01*
X128791088Y-96309355D01*
X128824611Y-96390286D01*
X128841700Y-96476201D01*
X128841700Y-96563799D01*
X128824611Y-96649714D01*
X128791088Y-96730645D01*
X128742421Y-96803480D01*
X128680480Y-96865421D01*
X128607645Y-96914088D01*
X128607644Y-96914089D01*
X128607643Y-96914089D01*
X128526714Y-96947611D01*
X128440801Y-96964700D01*
X128353199Y-96964700D01*
X128267286Y-96947611D01*
X128186357Y-96914089D01*
X128186356Y-96914089D01*
X128186355Y-96914088D01*
X128113520Y-96865421D01*
X128051579Y-96803480D01*
X128002912Y-96730645D01*
X127969389Y-96649714D01*
X127952300Y-96563799D01*
X127952300Y-96476201D01*
X127969389Y-96390286D01*
X128002912Y-96309355D01*
X128051579Y-96236520D01*
X128113520Y-96174579D01*
X128186355Y-96125912D01*
X128209377Y-96116376D01*
X128267286Y-96092389D01*
X128353199Y-96075300D01*
X128440801Y-96075300D01*
X128526714Y-96092389D01*
G37*
G36*
X131066714Y-96092389D02*
G01*
X131124624Y-96116376D01*
X131147645Y-96125912D01*
X131220480Y-96174579D01*
X131282421Y-96236520D01*
X131331088Y-96309355D01*
X131364611Y-96390286D01*
X131381700Y-96476201D01*
X131381700Y-96563799D01*
X131364611Y-96649714D01*
X131331088Y-96730645D01*
X131282421Y-96803480D01*
X131220480Y-96865421D01*
X131147645Y-96914088D01*
X131147644Y-96914089D01*
X131147643Y-96914089D01*
X131066714Y-96947611D01*
X130980801Y-96964700D01*
X130893199Y-96964700D01*
X130807286Y-96947611D01*
X130726357Y-96914089D01*
X130726356Y-96914089D01*
X130726355Y-96914088D01*
X130653520Y-96865421D01*
X130591579Y-96803480D01*
X130542912Y-96730645D01*
X130509389Y-96649714D01*
X130492300Y-96563799D01*
X130492300Y-96476201D01*
X130509389Y-96390286D01*
X130542912Y-96309355D01*
X130591579Y-96236520D01*
X130653520Y-96174579D01*
X130726355Y-96125912D01*
X130749377Y-96116376D01*
X130807286Y-96092389D01*
X130893199Y-96075300D01*
X130980801Y-96075300D01*
X131066714Y-96092389D01*
G37*
G36*
X132336714Y-96092389D02*
G01*
X132394624Y-96116376D01*
X132417645Y-96125912D01*
X132490480Y-96174579D01*
X132552421Y-96236520D01*
X132601088Y-96309355D01*
X132634611Y-96390286D01*
X132651700Y-96476201D01*
X132651700Y-96563799D01*
X132634611Y-96649714D01*
X132601088Y-96730645D01*
X132552421Y-96803480D01*
X132490480Y-96865421D01*
X132417645Y-96914088D01*
X132417644Y-96914089D01*
X132417643Y-96914089D01*
X132336714Y-96947611D01*
X132250801Y-96964700D01*
X132163199Y-96964700D01*
X132077286Y-96947611D01*
X131996357Y-96914089D01*
X131996356Y-96914089D01*
X131996355Y-96914088D01*
X131923520Y-96865421D01*
X131861579Y-96803480D01*
X131812912Y-96730645D01*
X131779389Y-96649714D01*
X131762300Y-96563799D01*
X131762300Y-96476201D01*
X131779389Y-96390286D01*
X131812912Y-96309355D01*
X131861579Y-96236520D01*
X131923520Y-96174579D01*
X131996355Y-96125912D01*
X132019377Y-96116376D01*
X132077286Y-96092389D01*
X132163199Y-96075300D01*
X132250801Y-96075300D01*
X132336714Y-96092389D01*
G37*
G36*
X133606714Y-96092389D02*
G01*
X133664624Y-96116376D01*
X133687645Y-96125912D01*
X133760480Y-96174579D01*
X133822421Y-96236520D01*
X133871088Y-96309355D01*
X133904611Y-96390286D01*
X133921700Y-96476201D01*
X133921700Y-96563799D01*
X133904611Y-96649714D01*
X133871088Y-96730645D01*
X133822421Y-96803480D01*
X133760480Y-96865421D01*
X133687645Y-96914088D01*
X133687644Y-96914089D01*
X133687643Y-96914089D01*
X133606714Y-96947611D01*
X133520801Y-96964700D01*
X133433199Y-96964700D01*
X133347286Y-96947611D01*
X133266357Y-96914089D01*
X133266356Y-96914089D01*
X133266355Y-96914088D01*
X133193520Y-96865421D01*
X133131579Y-96803480D01*
X133082912Y-96730645D01*
X133049389Y-96649714D01*
X133032300Y-96563799D01*
X133032300Y-96476201D01*
X133049389Y-96390286D01*
X133082912Y-96309355D01*
X133131579Y-96236520D01*
X133193520Y-96174579D01*
X133266355Y-96125912D01*
X133289377Y-96116376D01*
X133347286Y-96092389D01*
X133433199Y-96075300D01*
X133520801Y-96075300D01*
X133606714Y-96092389D01*
G37*
G36*
X134853578Y-95349197D02*
G01*
X134906350Y-95359694D01*
X135005770Y-95400875D01*
X135095246Y-95460661D01*
X135171339Y-95536754D01*
X135231125Y-95626230D01*
X135259486Y-95694700D01*
X135272306Y-95725651D01*
X135291940Y-95824354D01*
X135293300Y-95831194D01*
X135293300Y-95938806D01*
X135272306Y-96044350D01*
X135231125Y-96143770D01*
X135171339Y-96233246D01*
X135095246Y-96309339D01*
X135005770Y-96369125D01*
X134906350Y-96410306D01*
X134873325Y-96416875D01*
X134800807Y-96431300D01*
X134693193Y-96431300D01*
X134620675Y-96416875D01*
X134587650Y-96410306D01*
X134488230Y-96369125D01*
X134398754Y-96309339D01*
X134322661Y-96233246D01*
X134262875Y-96143770D01*
X134221694Y-96044350D01*
X134200700Y-95938806D01*
X134200700Y-95831194D01*
X134202061Y-95824354D01*
X134221694Y-95725651D01*
X134234514Y-95694700D01*
X134262875Y-95626230D01*
X134322661Y-95536754D01*
X134398754Y-95460661D01*
X134488230Y-95400875D01*
X134587650Y-95359694D01*
X134640422Y-95349197D01*
X134693193Y-95338700D01*
X134800807Y-95338700D01*
X134853578Y-95349197D01*
G37*
G36*
X94881000Y-96151000D02*
G01*
X93079000Y-96151000D01*
X93079000Y-94349000D01*
X94881000Y-94349000D01*
X94881000Y-96151000D01*
G37*
G36*
X91553512Y-94353927D02*
G01*
X91702812Y-94383624D01*
X91866784Y-94451544D01*
X92014354Y-94550147D01*
X92139853Y-94675646D01*
X92238456Y-94823216D01*
X92306376Y-94987188D01*
X92341000Y-95161259D01*
X92341000Y-95338741D01*
X92306376Y-95512812D01*
X92238456Y-95676784D01*
X92139853Y-95824354D01*
X92014354Y-95949853D01*
X91866784Y-96048456D01*
X91702812Y-96116376D01*
X91553512Y-96146073D01*
X91528742Y-96151000D01*
X91351258Y-96151000D01*
X91326488Y-96146073D01*
X91177188Y-96116376D01*
X91013216Y-96048456D01*
X90865646Y-95949853D01*
X90740147Y-95824354D01*
X90641544Y-95676784D01*
X90573624Y-95512812D01*
X90539000Y-95338741D01*
X90539000Y-95161259D01*
X90573624Y-94987188D01*
X90641544Y-94823216D01*
X90740147Y-94675646D01*
X90865646Y-94550147D01*
X91013216Y-94451544D01*
X91177188Y-94383624D01*
X91326488Y-94353927D01*
X91351258Y-94349000D01*
X91528742Y-94349000D01*
X91553512Y-94353927D01*
G37*
G36*
X128526714Y-94822389D02*
G01*
X128584624Y-94846376D01*
X128607645Y-94855912D01*
X128680480Y-94904579D01*
X128742421Y-94966520D01*
X128791088Y-95039355D01*
X128824611Y-95120286D01*
X128841700Y-95206201D01*
X128841700Y-95293799D01*
X128824611Y-95379714D01*
X128791088Y-95460645D01*
X128742421Y-95533480D01*
X128680480Y-95595421D01*
X128607645Y-95644088D01*
X128607644Y-95644089D01*
X128607643Y-95644089D01*
X128526714Y-95677611D01*
X128440801Y-95694700D01*
X128353199Y-95694700D01*
X128267286Y-95677611D01*
X128186357Y-95644089D01*
X128186356Y-95644089D01*
X128186355Y-95644088D01*
X128113520Y-95595421D01*
X128051579Y-95533480D01*
X128002912Y-95460645D01*
X127969389Y-95379714D01*
X127952300Y-95293799D01*
X127952300Y-95206201D01*
X127969389Y-95120286D01*
X128002912Y-95039355D01*
X128051579Y-94966520D01*
X128113520Y-94904579D01*
X128186355Y-94855912D01*
X128209377Y-94846376D01*
X128267286Y-94822389D01*
X128353199Y-94805300D01*
X128440801Y-94805300D01*
X128526714Y-94822389D01*
G37*
G36*
X129796714Y-94822389D02*
G01*
X129854624Y-94846376D01*
X129877645Y-94855912D01*
X129950480Y-94904579D01*
X130012421Y-94966520D01*
X130061088Y-95039355D01*
X130094611Y-95120286D01*
X130111700Y-95206201D01*
X130111700Y-95293799D01*
X130094611Y-95379714D01*
X130061088Y-95460645D01*
X130012421Y-95533480D01*
X129950480Y-95595421D01*
X129877645Y-95644088D01*
X129877644Y-95644089D01*
X129877643Y-95644089D01*
X129796714Y-95677611D01*
X129710801Y-95694700D01*
X129623199Y-95694700D01*
X129537286Y-95677611D01*
X129456357Y-95644089D01*
X129456356Y-95644089D01*
X129456355Y-95644088D01*
X129383520Y-95595421D01*
X129321579Y-95533480D01*
X129272912Y-95460645D01*
X129239389Y-95379714D01*
X129222300Y-95293799D01*
X129222300Y-95206201D01*
X129239389Y-95120286D01*
X129272912Y-95039355D01*
X129321579Y-94966520D01*
X129383520Y-94904579D01*
X129456355Y-94855912D01*
X129479377Y-94846376D01*
X129537286Y-94822389D01*
X129623199Y-94805300D01*
X129710801Y-94805300D01*
X129796714Y-94822389D01*
G37*
G36*
X131066714Y-94822389D02*
G01*
X131124624Y-94846376D01*
X131147645Y-94855912D01*
X131220480Y-94904579D01*
X131282421Y-94966520D01*
X131331088Y-95039355D01*
X131364611Y-95120286D01*
X131381700Y-95206201D01*
X131381700Y-95293799D01*
X131364611Y-95379714D01*
X131331088Y-95460645D01*
X131282421Y-95533480D01*
X131220480Y-95595421D01*
X131147645Y-95644088D01*
X131147644Y-95644089D01*
X131147643Y-95644089D01*
X131066714Y-95677611D01*
X130980801Y-95694700D01*
X130893199Y-95694700D01*
X130807286Y-95677611D01*
X130726357Y-95644089D01*
X130726356Y-95644089D01*
X130726355Y-95644088D01*
X130653520Y-95595421D01*
X130591579Y-95533480D01*
X130542912Y-95460645D01*
X130509389Y-95379714D01*
X130492300Y-95293799D01*
X130492300Y-95206201D01*
X130509389Y-95120286D01*
X130542912Y-95039355D01*
X130591579Y-94966520D01*
X130653520Y-94904579D01*
X130726355Y-94855912D01*
X130749377Y-94846376D01*
X130807286Y-94822389D01*
X130893199Y-94805300D01*
X130980801Y-94805300D01*
X131066714Y-94822389D01*
G37*
G36*
X133606714Y-94822389D02*
G01*
X133664624Y-94846376D01*
X133687645Y-94855912D01*
X133760480Y-94904579D01*
X133822421Y-94966520D01*
X133871088Y-95039355D01*
X133904611Y-95120286D01*
X133921700Y-95206201D01*
X133921700Y-95293799D01*
X133904611Y-95379714D01*
X133871088Y-95460645D01*
X133822421Y-95533480D01*
X133760480Y-95595421D01*
X133687645Y-95644088D01*
X133687644Y-95644089D01*
X133687643Y-95644089D01*
X133606714Y-95677611D01*
X133520801Y-95694700D01*
X133433199Y-95694700D01*
X133347286Y-95677611D01*
X133266357Y-95644089D01*
X133266356Y-95644089D01*
X133266355Y-95644088D01*
X133193520Y-95595421D01*
X133131579Y-95533480D01*
X133082912Y-95460645D01*
X133049389Y-95379714D01*
X133032300Y-95293799D01*
X133032300Y-95206201D01*
X133049389Y-95120286D01*
X133082912Y-95039355D01*
X133131579Y-94966520D01*
X133193520Y-94904579D01*
X133266355Y-94855912D01*
X133289377Y-94846376D01*
X133347286Y-94822389D01*
X133433199Y-94805300D01*
X133520801Y-94805300D01*
X133606714Y-94822389D01*
G37*
G36*
X132336714Y-94822389D02*
G01*
X132394624Y-94846376D01*
X132417645Y-94855912D01*
X132490480Y-94904579D01*
X132552421Y-94966520D01*
X132601088Y-95039355D01*
X132634611Y-95120286D01*
X132651700Y-95206201D01*
X132651700Y-95293799D01*
X132634611Y-95379714D01*
X132601088Y-95460645D01*
X132552421Y-95533480D01*
X132490480Y-95595421D01*
X132417645Y-95644088D01*
X132417644Y-95644089D01*
X132417643Y-95644089D01*
X132336714Y-95677611D01*
X132250801Y-95694700D01*
X132163199Y-95694700D01*
X132077286Y-95677611D01*
X131996357Y-95644089D01*
X131996356Y-95644089D01*
X131996355Y-95644088D01*
X131923520Y-95595421D01*
X131861579Y-95533480D01*
X131812912Y-95460645D01*
X131779389Y-95379714D01*
X131762300Y-95293799D01*
X131762300Y-95206201D01*
X131779389Y-95120286D01*
X131812912Y-95039355D01*
X131861579Y-94966520D01*
X131923520Y-94904579D01*
X131996355Y-94855912D01*
X132019377Y-94846376D01*
X132077286Y-94822389D01*
X132163199Y-94805300D01*
X132250801Y-94805300D01*
X132336714Y-94822389D01*
G37*
G36*
X127233578Y-94333197D02*
G01*
X127286350Y-94343694D01*
X127385770Y-94384875D01*
X127475246Y-94444661D01*
X127551339Y-94520754D01*
X127611125Y-94610230D01*
X127652306Y-94709650D01*
X127673300Y-94815194D01*
X127673300Y-94922806D01*
X127652306Y-95028350D01*
X127611125Y-95127770D01*
X127551339Y-95217246D01*
X127475246Y-95293339D01*
X127385770Y-95353125D01*
X127286350Y-95394306D01*
X127253325Y-95400875D01*
X127180807Y-95415300D01*
X127073193Y-95415300D01*
X127000675Y-95400875D01*
X126967650Y-95394306D01*
X126868230Y-95353125D01*
X126778754Y-95293339D01*
X126702661Y-95217246D01*
X126642875Y-95127770D01*
X126601694Y-95028350D01*
X126580700Y-94922806D01*
X126580700Y-94815194D01*
X126601694Y-94709650D01*
X126642875Y-94610230D01*
X126702661Y-94520754D01*
X126778754Y-94444661D01*
X126868230Y-94384875D01*
X126967650Y-94343694D01*
X127020422Y-94333197D01*
X127073193Y-94322700D01*
X127180807Y-94322700D01*
X127233578Y-94333197D01*
G37*
G36*
X120916000Y-94881000D02*
G01*
X119114000Y-94881000D01*
X119114000Y-93079000D01*
X120916000Y-93079000D01*
X120916000Y-94881000D01*
G37*
G36*
X122668512Y-93083927D02*
G01*
X122817812Y-93113624D01*
X122981784Y-93181544D01*
X123129354Y-93280147D01*
X123254853Y-93405646D01*
X123353456Y-93553216D01*
X123421376Y-93717188D01*
X123456000Y-93891259D01*
X123456000Y-94068741D01*
X123421376Y-94242812D01*
X123353456Y-94406784D01*
X123254853Y-94554354D01*
X123129354Y-94679853D01*
X122981784Y-94778456D01*
X122817812Y-94846376D01*
X122668512Y-94876073D01*
X122643742Y-94881000D01*
X122466258Y-94881000D01*
X122441488Y-94876073D01*
X122292188Y-94846376D01*
X122128216Y-94778456D01*
X121980646Y-94679853D01*
X121855147Y-94554354D01*
X121756544Y-94406784D01*
X121688624Y-94242812D01*
X121654000Y-94068741D01*
X121654000Y-93891259D01*
X121688624Y-93717188D01*
X121756544Y-93553216D01*
X121855147Y-93405646D01*
X121980646Y-93280147D01*
X122128216Y-93181544D01*
X122292188Y-93113624D01*
X122441488Y-93083927D01*
X122466258Y-93079000D01*
X122643742Y-93079000D01*
X122668512Y-93083927D01*
G37*
M02*
