G04 #@! TF.GenerationSoftware,KiCad,Pcbnew,5.1.5-52549c5~84~ubuntu19.04.1*
G04 #@! TF.CreationDate,2019-12-10T10:59:35+01:00*
G04 #@! TF.ProjectId,jlink-tagConnect-adapter-v2,6a6c696e-6b2d-4746-9167-436f6e6e6563,rev?*
G04 #@! TF.SameCoordinates,Original*
G04 #@! TF.FileFunction,Copper,L2,Bot*
G04 #@! TF.FilePolarity,Positive*
%FSLAX46Y46*%
G04 Gerber Fmt 4.6, Leading zero omitted, Abs format (unit mm)*
G04 Created by KiCad (PCBNEW 5.1.5-52549c5~84~ubuntu19.04.1) date 2019-12-10 10:59:35*
%MOMM*%
%LPD*%
G04 APERTURE LIST*
%ADD10C,0.100000*%
%ADD11O,1.727200X1.727200*%
%ADD12R,1.727200X1.727200*%
%ADD13O,1.700000X1.700000*%
%ADD14R,1.700000X1.700000*%
%ADD15R,1.500000X1.000000*%
%ADD16C,1.400000*%
%ADD17C,0.800000*%
%ADD18C,1.016000*%
%ADD19C,0.762000*%
%ADD20C,0.254000*%
G04 APERTURE END LIST*
D10*
G36*
X105710000Y-115200000D02*
G01*
X105710000Y-114700000D01*
X105110000Y-114700000D01*
X105110000Y-115200000D01*
X105710000Y-115200000D01*
G37*
G36*
X99360000Y-115200000D02*
G01*
X99360000Y-114700000D01*
X98760000Y-114700000D01*
X98760000Y-115200000D01*
X99360000Y-115200000D01*
G37*
D11*
X120015000Y-101600000D03*
X122555000Y-101600000D03*
X120015000Y-104140000D03*
X122555000Y-104140000D03*
X120015000Y-106680000D03*
X122555000Y-106680000D03*
X120015000Y-109220000D03*
X122555000Y-109220000D03*
X120015000Y-111760000D03*
D12*
X122555000Y-111760000D03*
D13*
X91440000Y-118110000D03*
X93980000Y-118110000D03*
X91440000Y-115570000D03*
X93980000Y-115570000D03*
X91440000Y-113030000D03*
X93980000Y-113030000D03*
X91440000Y-110490000D03*
X93980000Y-110490000D03*
X91440000Y-107950000D03*
X93980000Y-107950000D03*
X91440000Y-105410000D03*
X93980000Y-105410000D03*
X91440000Y-102870000D03*
X93980000Y-102870000D03*
X91440000Y-100330000D03*
X93980000Y-100330000D03*
X91440000Y-97790000D03*
X93980000Y-97790000D03*
X91440000Y-95250000D03*
D14*
X93980000Y-95250000D03*
D13*
X102235000Y-113030000D03*
X102235000Y-115570000D03*
D14*
X102235000Y-118110000D03*
D15*
X105410000Y-114300000D03*
X105410000Y-113000000D03*
X105410000Y-115600000D03*
X99060000Y-114300000D03*
X99060000Y-113000000D03*
X99060000Y-115600000D03*
D13*
X122555000Y-119380000D03*
D14*
X120015000Y-119380000D03*
D13*
X122555000Y-93980000D03*
D14*
X120015000Y-93980000D03*
D13*
X109220000Y-118110000D03*
X109220000Y-115570000D03*
D14*
X109220000Y-113030000D03*
D13*
X106045000Y-97790000D03*
X106045000Y-100330000D03*
D14*
X106045000Y-102870000D03*
D13*
X102235000Y-97790000D03*
X102235000Y-100330000D03*
D14*
X102235000Y-102870000D03*
D16*
X127000000Y-109855000D03*
X136525000Y-108585000D03*
X127000000Y-115570000D03*
D17*
X97790000Y-104775000D03*
X97790000Y-111125000D03*
X127000000Y-102870000D03*
X125095000Y-105410000D03*
X95250000Y-101600000D03*
X127000000Y-107950000D03*
X128905000Y-111125000D03*
X95250000Y-106680000D03*
D16*
X104140000Y-109855000D03*
X96520000Y-109855000D03*
D17*
X133985000Y-101600000D03*
X136525000Y-104140000D03*
D16*
X136525000Y-106045000D03*
X133985000Y-112395000D03*
D18*
X91440000Y-97790000D02*
X91440000Y-120015000D01*
D19*
X126365000Y-109220000D02*
X127000000Y-109855000D01*
X122555000Y-109220000D02*
X126365000Y-109220000D01*
X105410000Y-115600000D02*
X107285000Y-115600000D01*
X107285000Y-115600000D02*
X107315000Y-115570000D01*
X107315000Y-115570000D02*
X107315000Y-113030000D01*
X107315000Y-113030000D02*
X109220000Y-113030000D01*
D20*
X97790000Y-111125000D02*
X97790000Y-104775000D01*
X121285000Y-102870000D02*
X120015000Y-101600000D01*
X127000000Y-102870000D02*
X121285000Y-102870000D01*
X120015000Y-106680000D02*
X121285000Y-105410000D01*
X121285000Y-105410000D02*
X125095000Y-105410000D01*
X92710000Y-106680000D02*
X92710000Y-102235000D01*
X93980000Y-107950000D02*
X92710000Y-106680000D01*
X92710000Y-102235000D02*
X93345000Y-101600000D01*
X93345000Y-101600000D02*
X95250000Y-101600000D01*
X120015000Y-109220000D02*
X121285000Y-107950000D01*
X121285000Y-107950000D02*
X127000000Y-107950000D01*
X93980000Y-102870000D02*
X94615000Y-102870000D01*
X94615000Y-102870000D02*
X95250000Y-103505000D01*
X95250000Y-103505000D02*
X95250000Y-106680000D01*
X95250000Y-106680000D02*
X95250000Y-106680000D01*
X125730000Y-111125000D02*
X128905000Y-111125000D01*
X125095000Y-110490000D02*
X125730000Y-111125000D01*
X120015000Y-111760000D02*
X121285000Y-110490000D01*
X121285000Y-110490000D02*
X125095000Y-110490000D01*
D19*
X99060000Y-115600000D02*
X97820000Y-115600000D01*
X97820000Y-115600000D02*
X96520000Y-114300000D01*
X105410000Y-113000000D02*
X105410000Y-111125000D01*
X105410000Y-111125000D02*
X104140000Y-109855000D01*
X96520000Y-114300000D02*
X96520000Y-109855000D01*
X96520000Y-108585000D02*
X96520000Y-96520000D01*
X95250000Y-95250000D02*
X96520000Y-96520000D01*
X93980000Y-95250000D02*
X95250000Y-95250000D01*
X96520000Y-109855000D02*
X96520000Y-108585000D01*
D20*
X122555000Y-101600000D02*
X130175000Y-101600000D01*
X133985000Y-101600000D02*
X130175000Y-101600000D01*
X122555000Y-104140000D02*
X136525000Y-104140000D01*
D19*
X135890000Y-106680000D02*
X136525000Y-106045000D01*
X122555000Y-106680000D02*
X135890000Y-106680000D01*
X124460000Y-111760000D02*
X125095000Y-112395000D01*
X125095000Y-112395000D02*
X133985000Y-112395000D01*
X122555000Y-111760000D02*
X124460000Y-111760000D01*
X103505000Y-114300000D02*
X102235000Y-113030000D01*
X105410000Y-114300000D02*
X103505000Y-114300000D01*
X100965000Y-114300000D02*
X102235000Y-115570000D01*
X99060000Y-114300000D02*
X100965000Y-114300000D01*
D20*
G36*
X130343476Y-92213039D02*
G01*
X130186039Y-92370476D01*
X130062341Y-92555602D01*
X129977137Y-92761304D01*
X129933700Y-92979675D01*
X129933700Y-93202325D01*
X129977137Y-93420696D01*
X130062341Y-93626398D01*
X130186039Y-93811524D01*
X130343476Y-93968961D01*
X130528602Y-94092659D01*
X130734304Y-94177863D01*
X130952675Y-94221300D01*
X131175325Y-94221300D01*
X131393696Y-94177863D01*
X131599398Y-94092659D01*
X131784524Y-93968961D01*
X131941961Y-93811524D01*
X132065659Y-93626398D01*
X132080000Y-93591776D01*
X132094341Y-93626398D01*
X132218039Y-93811524D01*
X132375476Y-93968961D01*
X132560602Y-94092659D01*
X132766304Y-94177863D01*
X132984675Y-94221300D01*
X133207325Y-94221300D01*
X133425696Y-94177863D01*
X133631398Y-94092659D01*
X133816524Y-93968961D01*
X133973961Y-93811524D01*
X134097659Y-93626398D01*
X134182863Y-93420696D01*
X134226300Y-93202325D01*
X134226300Y-92979675D01*
X134182863Y-92761304D01*
X134097659Y-92555602D01*
X133973961Y-92370476D01*
X133816524Y-92213039D01*
X133647350Y-92100000D01*
X135857723Y-92100000D01*
X136131204Y-92126815D01*
X136363226Y-92196867D01*
X136577222Y-92310650D01*
X136765041Y-92463832D01*
X136919530Y-92650577D01*
X137034801Y-92863769D01*
X137106472Y-93095300D01*
X137135001Y-93366734D01*
X137135001Y-100838000D01*
X134686711Y-100838000D01*
X134644774Y-100796063D01*
X134475256Y-100682795D01*
X134286898Y-100604774D01*
X134086939Y-100565000D01*
X133883061Y-100565000D01*
X133683102Y-100604774D01*
X133494744Y-100682795D01*
X133325226Y-100796063D01*
X133283289Y-100838000D01*
X133207182Y-100838000D01*
X133210300Y-100822325D01*
X133210300Y-100599675D01*
X133166863Y-100381304D01*
X133081659Y-100175602D01*
X132957961Y-99990476D01*
X132800524Y-99833039D01*
X132615398Y-99709341D01*
X132409696Y-99624137D01*
X132191325Y-99580700D01*
X131968675Y-99580700D01*
X131750304Y-99624137D01*
X131544602Y-99709341D01*
X131359476Y-99833039D01*
X131202039Y-99990476D01*
X131078341Y-100175602D01*
X130993137Y-100381304D01*
X130949700Y-100599675D01*
X130949700Y-100822325D01*
X130952818Y-100838000D01*
X123848199Y-100838000D01*
X123719039Y-100644698D01*
X123510302Y-100435961D01*
X123264853Y-100271958D01*
X122992125Y-100158990D01*
X122702599Y-100101400D01*
X122407401Y-100101400D01*
X122117875Y-100158990D01*
X121845147Y-100271958D01*
X121599698Y-100435961D01*
X121390961Y-100644698D01*
X121285000Y-100803281D01*
X121179039Y-100644698D01*
X120970302Y-100435961D01*
X120724853Y-100271958D01*
X120452125Y-100158990D01*
X120162599Y-100101400D01*
X119867401Y-100101400D01*
X119577875Y-100158990D01*
X119305147Y-100271958D01*
X119059698Y-100435961D01*
X118850961Y-100644698D01*
X118686958Y-100890147D01*
X118573990Y-101162875D01*
X118516400Y-101452401D01*
X118516400Y-101747599D01*
X118573990Y-102037125D01*
X118686958Y-102309853D01*
X118850961Y-102555302D01*
X119059698Y-102764039D01*
X119218281Y-102870000D01*
X119059698Y-102975961D01*
X118850961Y-103184698D01*
X118686958Y-103430147D01*
X118573990Y-103702875D01*
X118516400Y-103992401D01*
X118516400Y-104287599D01*
X118573990Y-104577125D01*
X118686958Y-104849853D01*
X118850961Y-105095302D01*
X119059698Y-105304039D01*
X119218281Y-105410000D01*
X119059698Y-105515961D01*
X118850961Y-105724698D01*
X118686958Y-105970147D01*
X118573990Y-106242875D01*
X118516400Y-106532401D01*
X118516400Y-106827599D01*
X118573990Y-107117125D01*
X118686958Y-107389853D01*
X118850961Y-107635302D01*
X119059698Y-107844039D01*
X119218281Y-107950000D01*
X119059698Y-108055961D01*
X118850961Y-108264698D01*
X118686958Y-108510147D01*
X118573990Y-108782875D01*
X118516400Y-109072401D01*
X118516400Y-109367599D01*
X118573990Y-109657125D01*
X118686958Y-109929853D01*
X118850961Y-110175302D01*
X119059698Y-110384039D01*
X119218281Y-110490000D01*
X119059698Y-110595961D01*
X118850961Y-110804698D01*
X118686958Y-111050147D01*
X118573990Y-111322875D01*
X118516400Y-111612401D01*
X118516400Y-111907599D01*
X118573990Y-112197125D01*
X118686958Y-112469853D01*
X118850961Y-112715302D01*
X119059698Y-112924039D01*
X119305147Y-113088042D01*
X119577875Y-113201010D01*
X119867401Y-113258600D01*
X120162599Y-113258600D01*
X120452125Y-113201010D01*
X120724853Y-113088042D01*
X120970302Y-112924039D01*
X121084364Y-112809977D01*
X121101898Y-112867780D01*
X121160863Y-112978094D01*
X121240215Y-113074785D01*
X121336906Y-113154137D01*
X121447220Y-113213102D01*
X121566918Y-113249412D01*
X121691400Y-113261672D01*
X123418600Y-113261672D01*
X123543082Y-113249412D01*
X123662780Y-113213102D01*
X123773094Y-113154137D01*
X123869785Y-113074785D01*
X123949137Y-112978094D01*
X124008102Y-112867780D01*
X124035943Y-112776000D01*
X124039160Y-112776000D01*
X124341287Y-113078127D01*
X124373104Y-113116896D01*
X124509910Y-113229170D01*
X124527810Y-113243860D01*
X124704313Y-113338202D01*
X124895829Y-113396298D01*
X125095000Y-113415915D01*
X125144902Y-113411000D01*
X133113025Y-113411000D01*
X133133987Y-113431962D01*
X133352641Y-113578061D01*
X133595595Y-113678696D01*
X133853514Y-113730000D01*
X134116486Y-113730000D01*
X134374405Y-113678696D01*
X134617359Y-113578061D01*
X134836013Y-113431962D01*
X135021962Y-113246013D01*
X135168061Y-113027359D01*
X135268696Y-112784405D01*
X135320000Y-112526486D01*
X135320000Y-112263514D01*
X135268696Y-112005595D01*
X135168061Y-111762641D01*
X135021962Y-111543987D01*
X134836013Y-111358038D01*
X134617359Y-111211939D01*
X134374405Y-111111304D01*
X134116486Y-111060000D01*
X133853514Y-111060000D01*
X133595595Y-111111304D01*
X133352641Y-111211939D01*
X133133987Y-111358038D01*
X133113025Y-111379000D01*
X129909753Y-111379000D01*
X129940000Y-111226939D01*
X129940000Y-111023061D01*
X129900226Y-110823102D01*
X129822205Y-110634744D01*
X129708937Y-110465226D01*
X129564774Y-110321063D01*
X129395256Y-110207795D01*
X129206898Y-110129774D01*
X129006939Y-110090000D01*
X128803061Y-110090000D01*
X128603102Y-110129774D01*
X128414744Y-110207795D01*
X128245226Y-110321063D01*
X128203289Y-110363000D01*
X126045630Y-110363000D01*
X125660284Y-109977654D01*
X125636422Y-109948578D01*
X125520392Y-109853355D01*
X125388015Y-109782598D01*
X125244378Y-109739026D01*
X125132426Y-109728000D01*
X125132423Y-109728000D01*
X125095000Y-109724314D01*
X125057577Y-109728000D01*
X123964772Y-109728000D01*
X124009958Y-109579026D01*
X123888817Y-109347000D01*
X122682000Y-109347000D01*
X122682000Y-109367000D01*
X122428000Y-109367000D01*
X122428000Y-109347000D01*
X122408000Y-109347000D01*
X122408000Y-109093000D01*
X122428000Y-109093000D01*
X122428000Y-109073000D01*
X122682000Y-109073000D01*
X122682000Y-109093000D01*
X123888817Y-109093000D01*
X124009958Y-108860974D01*
X123964772Y-108712000D01*
X126298289Y-108712000D01*
X126340226Y-108753937D01*
X126509744Y-108867205D01*
X126698102Y-108945226D01*
X126898061Y-108985000D01*
X127101939Y-108985000D01*
X127301898Y-108945226D01*
X127490256Y-108867205D01*
X127659774Y-108753937D01*
X127803937Y-108609774D01*
X127917205Y-108440256D01*
X127995226Y-108251898D01*
X128035000Y-108051939D01*
X128035000Y-107848061D01*
X128004753Y-107696000D01*
X135840098Y-107696000D01*
X135890000Y-107700915D01*
X135939902Y-107696000D01*
X136089171Y-107681298D01*
X136280687Y-107623202D01*
X136457190Y-107528860D01*
X136611896Y-107401896D01*
X136629866Y-107380000D01*
X136656486Y-107380000D01*
X136914405Y-107328696D01*
X137135000Y-107237322D01*
X137135000Y-119982723D01*
X137108185Y-120256205D01*
X137038133Y-120488226D01*
X136924350Y-120702222D01*
X136771169Y-120890039D01*
X136584424Y-121044529D01*
X136371231Y-121159802D01*
X136139701Y-121231472D01*
X135868276Y-121260000D01*
X91472277Y-121260000D01*
X91198795Y-121233185D01*
X90966774Y-121163133D01*
X90752778Y-121049350D01*
X90564961Y-120896169D01*
X90410471Y-120709424D01*
X90295198Y-120496231D01*
X90223528Y-120264701D01*
X90195000Y-119993276D01*
X90195000Y-118912637D01*
X90342412Y-119110269D01*
X90558645Y-119305178D01*
X90808748Y-119454157D01*
X91083109Y-119551481D01*
X91313000Y-119430814D01*
X91313000Y-118237000D01*
X91293000Y-118237000D01*
X91293000Y-117983000D01*
X91313000Y-117983000D01*
X91313000Y-115697000D01*
X91293000Y-115697000D01*
X91293000Y-115443000D01*
X91313000Y-115443000D01*
X91313000Y-113157000D01*
X91293000Y-113157000D01*
X91293000Y-112903000D01*
X91313000Y-112903000D01*
X91313000Y-110617000D01*
X91293000Y-110617000D01*
X91293000Y-110363000D01*
X91313000Y-110363000D01*
X91313000Y-108077000D01*
X91293000Y-108077000D01*
X91293000Y-107823000D01*
X91313000Y-107823000D01*
X91313000Y-105537000D01*
X91293000Y-105537000D01*
X91293000Y-105283000D01*
X91313000Y-105283000D01*
X91313000Y-102997000D01*
X91293000Y-102997000D01*
X91293000Y-102743000D01*
X91313000Y-102743000D01*
X91313000Y-100457000D01*
X91293000Y-100457000D01*
X91293000Y-100203000D01*
X91313000Y-100203000D01*
X91313000Y-97917000D01*
X91293000Y-97917000D01*
X91293000Y-97663000D01*
X91313000Y-97663000D01*
X91313000Y-97643000D01*
X91567000Y-97643000D01*
X91567000Y-97663000D01*
X91587000Y-97663000D01*
X91587000Y-97917000D01*
X91567000Y-97917000D01*
X91567000Y-100203000D01*
X91587000Y-100203000D01*
X91587000Y-100457000D01*
X91567000Y-100457000D01*
X91567000Y-102743000D01*
X91587000Y-102743000D01*
X91587000Y-102997000D01*
X91567000Y-102997000D01*
X91567000Y-105283000D01*
X91587000Y-105283000D01*
X91587000Y-105537000D01*
X91567000Y-105537000D01*
X91567000Y-107823000D01*
X91587000Y-107823000D01*
X91587000Y-108077000D01*
X91567000Y-108077000D01*
X91567000Y-110363000D01*
X91587000Y-110363000D01*
X91587000Y-110617000D01*
X91567000Y-110617000D01*
X91567000Y-112903000D01*
X91587000Y-112903000D01*
X91587000Y-113157000D01*
X91567000Y-113157000D01*
X91567000Y-115443000D01*
X91587000Y-115443000D01*
X91587000Y-115697000D01*
X91567000Y-115697000D01*
X91567000Y-117983000D01*
X91587000Y-117983000D01*
X91587000Y-118237000D01*
X91567000Y-118237000D01*
X91567000Y-119430814D01*
X91796891Y-119551481D01*
X92071252Y-119454157D01*
X92321355Y-119305178D01*
X92537588Y-119110269D01*
X92708900Y-118880594D01*
X92826525Y-119056632D01*
X93033368Y-119263475D01*
X93276589Y-119425990D01*
X93546842Y-119537932D01*
X93833740Y-119595000D01*
X94126260Y-119595000D01*
X94413158Y-119537932D01*
X94683411Y-119425990D01*
X94926632Y-119263475D01*
X95133475Y-119056632D01*
X95295990Y-118813411D01*
X95407932Y-118543158D01*
X95465000Y-118256260D01*
X95465000Y-117963740D01*
X95407932Y-117676842D01*
X95295990Y-117406589D01*
X95133475Y-117163368D01*
X94937107Y-116967000D01*
X100821593Y-116967000D01*
X100795498Y-117015820D01*
X100759188Y-117135518D01*
X100746928Y-117260000D01*
X100746928Y-118960000D01*
X100759188Y-119084482D01*
X100795498Y-119204180D01*
X100854463Y-119314494D01*
X100933815Y-119411185D01*
X101030506Y-119490537D01*
X101140820Y-119549502D01*
X101260518Y-119585812D01*
X101385000Y-119598072D01*
X103085000Y-119598072D01*
X103209482Y-119585812D01*
X103329180Y-119549502D01*
X103439494Y-119490537D01*
X103536185Y-119411185D01*
X103615537Y-119314494D01*
X103674502Y-119204180D01*
X103710812Y-119084482D01*
X103723072Y-118960000D01*
X103723072Y-117260000D01*
X103710812Y-117135518D01*
X103674502Y-117015820D01*
X103615537Y-116905506D01*
X103536185Y-116808815D01*
X103439494Y-116729463D01*
X103329180Y-116670498D01*
X103256620Y-116648487D01*
X103388475Y-116516632D01*
X103550990Y-116273411D01*
X103662932Y-116003158D01*
X103720000Y-115716260D01*
X103720000Y-115423740D01*
X103698569Y-115316000D01*
X104026750Y-115316000D01*
X104183750Y-115473000D01*
X104539407Y-115473000D01*
X104550988Y-115494781D01*
X104578655Y-115547703D01*
X104580049Y-115549437D01*
X104581095Y-115551404D01*
X104618883Y-115597737D01*
X104656310Y-115644286D01*
X104658015Y-115645717D01*
X104659423Y-115647443D01*
X104705473Y-115685539D01*
X104751246Y-115723947D01*
X104753198Y-115725020D01*
X104754913Y-115726439D01*
X104755951Y-115727000D01*
X104183750Y-115727000D01*
X104025000Y-115885750D01*
X104021928Y-116100000D01*
X104034188Y-116224482D01*
X104070498Y-116344180D01*
X104129463Y-116454494D01*
X104208815Y-116551185D01*
X104305506Y-116630537D01*
X104415820Y-116689502D01*
X104535518Y-116725812D01*
X104660000Y-116738072D01*
X105124250Y-116735000D01*
X105283000Y-116576250D01*
X105283000Y-115835000D01*
X105537000Y-115835000D01*
X105537000Y-116576250D01*
X105695750Y-116735000D01*
X106160000Y-116738072D01*
X106284482Y-116725812D01*
X106404180Y-116689502D01*
X106514494Y-116630537D01*
X106611185Y-116551185D01*
X106690537Y-116454494D01*
X106749502Y-116344180D01*
X106785812Y-116224482D01*
X106798072Y-116100000D01*
X106795000Y-115885750D01*
X106636250Y-115727000D01*
X106063740Y-115727000D01*
X106107737Y-115691117D01*
X106154286Y-115653690D01*
X106155717Y-115651985D01*
X106157443Y-115650577D01*
X106195539Y-115604527D01*
X106233947Y-115558754D01*
X106235020Y-115556802D01*
X106236439Y-115555087D01*
X106264851Y-115502539D01*
X106281091Y-115473000D01*
X106636250Y-115473000D01*
X106795000Y-115314250D01*
X106798072Y-115100000D01*
X106785812Y-114975518D01*
X106778071Y-114950000D01*
X106785812Y-114924482D01*
X106798072Y-114800000D01*
X106798072Y-113880000D01*
X107731928Y-113880000D01*
X107744188Y-114004482D01*
X107780498Y-114124180D01*
X107839463Y-114234494D01*
X107918815Y-114331185D01*
X108015506Y-114410537D01*
X108125820Y-114469502D01*
X108198380Y-114491513D01*
X108066525Y-114623368D01*
X107904010Y-114866589D01*
X107792068Y-115136842D01*
X107735000Y-115423740D01*
X107735000Y-115716260D01*
X107792068Y-116003158D01*
X107904010Y-116273411D01*
X108066525Y-116516632D01*
X108273368Y-116723475D01*
X108447760Y-116840000D01*
X108273368Y-116956525D01*
X108066525Y-117163368D01*
X107904010Y-117406589D01*
X107792068Y-117676842D01*
X107735000Y-117963740D01*
X107735000Y-118256260D01*
X107792068Y-118543158D01*
X107904010Y-118813411D01*
X108066525Y-119056632D01*
X108273368Y-119263475D01*
X108516589Y-119425990D01*
X108786842Y-119537932D01*
X109073740Y-119595000D01*
X109366260Y-119595000D01*
X109653158Y-119537932D01*
X109923411Y-119425990D01*
X110166632Y-119263475D01*
X110373475Y-119056632D01*
X110535990Y-118813411D01*
X110647932Y-118543158D01*
X110650549Y-118530000D01*
X118526928Y-118530000D01*
X118526928Y-120230000D01*
X118539188Y-120354482D01*
X118575498Y-120474180D01*
X118634463Y-120584494D01*
X118713815Y-120681185D01*
X118810506Y-120760537D01*
X118920820Y-120819502D01*
X119040518Y-120855812D01*
X119165000Y-120868072D01*
X120865000Y-120868072D01*
X120989482Y-120855812D01*
X121109180Y-120819502D01*
X121219494Y-120760537D01*
X121316185Y-120681185D01*
X121395537Y-120584494D01*
X121454502Y-120474180D01*
X121476513Y-120401620D01*
X121608368Y-120533475D01*
X121851589Y-120695990D01*
X122121842Y-120807932D01*
X122408740Y-120865000D01*
X122701260Y-120865000D01*
X122988158Y-120807932D01*
X123258411Y-120695990D01*
X123501632Y-120533475D01*
X123708475Y-120326632D01*
X123870990Y-120083411D01*
X123982932Y-119813158D01*
X124040000Y-119526260D01*
X124040000Y-119233740D01*
X123982932Y-118946842D01*
X123870990Y-118676589D01*
X123708475Y-118433368D01*
X123501632Y-118226525D01*
X123258411Y-118064010D01*
X122988158Y-117952068D01*
X122701260Y-117895000D01*
X122408740Y-117895000D01*
X122121842Y-117952068D01*
X121851589Y-118064010D01*
X121608368Y-118226525D01*
X121476513Y-118358380D01*
X121454502Y-118285820D01*
X121395537Y-118175506D01*
X121316185Y-118078815D01*
X121219494Y-117999463D01*
X121109180Y-117940498D01*
X120989482Y-117904188D01*
X120865000Y-117891928D01*
X119165000Y-117891928D01*
X119040518Y-117904188D01*
X118920820Y-117940498D01*
X118810506Y-117999463D01*
X118713815Y-118078815D01*
X118634463Y-118175506D01*
X118575498Y-118285820D01*
X118539188Y-118405518D01*
X118526928Y-118530000D01*
X110650549Y-118530000D01*
X110705000Y-118256260D01*
X110705000Y-117963740D01*
X110647932Y-117676842D01*
X110535990Y-117406589D01*
X110373475Y-117163368D01*
X110166632Y-116956525D01*
X109992240Y-116840000D01*
X110166632Y-116723475D01*
X110373475Y-116516632D01*
X110535990Y-116273411D01*
X110647932Y-116003158D01*
X110705000Y-115716260D01*
X110705000Y-115423740D01*
X110647932Y-115136842D01*
X110535990Y-114866589D01*
X110373475Y-114623368D01*
X110241620Y-114491513D01*
X110314180Y-114469502D01*
X110424494Y-114410537D01*
X110521185Y-114331185D01*
X110600537Y-114234494D01*
X110659502Y-114124180D01*
X110695812Y-114004482D01*
X110708072Y-113880000D01*
X110705000Y-113315750D01*
X110546250Y-113157000D01*
X109347000Y-113157000D01*
X109347000Y-113177000D01*
X109093000Y-113177000D01*
X109093000Y-113157000D01*
X107893750Y-113157000D01*
X107735000Y-113315750D01*
X107731928Y-113880000D01*
X106798072Y-113880000D01*
X106798072Y-113800000D01*
X106785812Y-113675518D01*
X106778071Y-113650000D01*
X106785812Y-113624482D01*
X106798072Y-113500000D01*
X106798072Y-112500000D01*
X106785812Y-112375518D01*
X106749502Y-112255820D01*
X106708975Y-112180000D01*
X107731928Y-112180000D01*
X107735000Y-112744250D01*
X107893750Y-112903000D01*
X109093000Y-112903000D01*
X109093000Y-111703750D01*
X109347000Y-111703750D01*
X109347000Y-112903000D01*
X110546250Y-112903000D01*
X110705000Y-112744250D01*
X110708072Y-112180000D01*
X110695812Y-112055518D01*
X110659502Y-111935820D01*
X110600537Y-111825506D01*
X110521185Y-111728815D01*
X110424494Y-111649463D01*
X110314180Y-111590498D01*
X110194482Y-111554188D01*
X110070000Y-111541928D01*
X109505750Y-111545000D01*
X109347000Y-111703750D01*
X109093000Y-111703750D01*
X108934250Y-111545000D01*
X108370000Y-111541928D01*
X108245518Y-111554188D01*
X108125820Y-111590498D01*
X108015506Y-111649463D01*
X107918815Y-111728815D01*
X107839463Y-111825506D01*
X107780498Y-111935820D01*
X107744188Y-112055518D01*
X107731928Y-112180000D01*
X106708975Y-112180000D01*
X106690537Y-112145506D01*
X106611185Y-112048815D01*
X106514494Y-111969463D01*
X106426000Y-111922161D01*
X106426000Y-111174893D01*
X106430914Y-111124999D01*
X106426000Y-111075105D01*
X106426000Y-111075098D01*
X106411298Y-110925829D01*
X106353202Y-110734313D01*
X106258860Y-110557810D01*
X106131896Y-110403104D01*
X106093133Y-110371292D01*
X105475000Y-109753160D01*
X105475000Y-109723514D01*
X105423696Y-109465595D01*
X105323061Y-109222641D01*
X105176962Y-109003987D01*
X104991013Y-108818038D01*
X104772359Y-108671939D01*
X104529405Y-108571304D01*
X104271486Y-108520000D01*
X104008514Y-108520000D01*
X103750595Y-108571304D01*
X103507641Y-108671939D01*
X103288987Y-108818038D01*
X103103038Y-109003987D01*
X102956939Y-109222641D01*
X102856304Y-109465595D01*
X102805000Y-109723514D01*
X102805000Y-109986486D01*
X102856304Y-110244405D01*
X102956939Y-110487359D01*
X103103038Y-110706013D01*
X103288987Y-110891962D01*
X103507641Y-111038061D01*
X103750595Y-111138696D01*
X104008514Y-111190000D01*
X104038160Y-111190000D01*
X104394001Y-111545842D01*
X104394001Y-111922161D01*
X104305506Y-111969463D01*
X104208815Y-112048815D01*
X104129463Y-112145506D01*
X104070498Y-112255820D01*
X104034188Y-112375518D01*
X104021928Y-112500000D01*
X104021928Y-113284000D01*
X103925841Y-113284000D01*
X103720000Y-113078159D01*
X103720000Y-112883740D01*
X103662932Y-112596842D01*
X103550990Y-112326589D01*
X103388475Y-112083368D01*
X103181632Y-111876525D01*
X102938411Y-111714010D01*
X102668158Y-111602068D01*
X102381260Y-111545000D01*
X102088740Y-111545000D01*
X101801842Y-111602068D01*
X101531589Y-111714010D01*
X101288368Y-111876525D01*
X101081525Y-112083368D01*
X100919010Y-112326589D01*
X100807068Y-112596842D01*
X100750000Y-112883740D01*
X100750000Y-113176260D01*
X100771431Y-113284000D01*
X100443250Y-113284000D01*
X100286250Y-113127000D01*
X99187000Y-113127000D01*
X99187000Y-113147000D01*
X98933000Y-113147000D01*
X98933000Y-113127000D01*
X98913000Y-113127000D01*
X98913000Y-112873000D01*
X98933000Y-112873000D01*
X98933000Y-112023750D01*
X99187000Y-112023750D01*
X99187000Y-112873000D01*
X100286250Y-112873000D01*
X100445000Y-112714250D01*
X100448072Y-112500000D01*
X100435812Y-112375518D01*
X100399502Y-112255820D01*
X100340537Y-112145506D01*
X100261185Y-112048815D01*
X100164494Y-111969463D01*
X100054180Y-111910498D01*
X99934482Y-111874188D01*
X99810000Y-111861928D01*
X99345750Y-111865000D01*
X99187000Y-112023750D01*
X98933000Y-112023750D01*
X98774250Y-111865000D01*
X98515424Y-111863287D01*
X98593937Y-111784774D01*
X98707205Y-111615256D01*
X98785226Y-111426898D01*
X98825000Y-111226939D01*
X98825000Y-111023061D01*
X98785226Y-110823102D01*
X98707205Y-110634744D01*
X98593937Y-110465226D01*
X98552000Y-110423289D01*
X98552000Y-105476711D01*
X98593937Y-105434774D01*
X98707205Y-105265256D01*
X98785226Y-105076898D01*
X98825000Y-104876939D01*
X98825000Y-104673061D01*
X98785226Y-104473102D01*
X98707205Y-104284744D01*
X98593937Y-104115226D01*
X98449774Y-103971063D01*
X98280256Y-103857795D01*
X98091898Y-103779774D01*
X97891939Y-103740000D01*
X97688061Y-103740000D01*
X97536000Y-103770247D01*
X97536000Y-102020000D01*
X100746928Y-102020000D01*
X100746928Y-103720000D01*
X100759188Y-103844482D01*
X100795498Y-103964180D01*
X100854463Y-104074494D01*
X100933815Y-104171185D01*
X101030506Y-104250537D01*
X101140820Y-104309502D01*
X101260518Y-104345812D01*
X101385000Y-104358072D01*
X103085000Y-104358072D01*
X103209482Y-104345812D01*
X103329180Y-104309502D01*
X103439494Y-104250537D01*
X103536185Y-104171185D01*
X103615537Y-104074494D01*
X103674502Y-103964180D01*
X103710812Y-103844482D01*
X103723072Y-103720000D01*
X104556928Y-103720000D01*
X104569188Y-103844482D01*
X104605498Y-103964180D01*
X104664463Y-104074494D01*
X104743815Y-104171185D01*
X104840506Y-104250537D01*
X104950820Y-104309502D01*
X105070518Y-104345812D01*
X105195000Y-104358072D01*
X105759250Y-104355000D01*
X105918000Y-104196250D01*
X105918000Y-102997000D01*
X106172000Y-102997000D01*
X106172000Y-104196250D01*
X106330750Y-104355000D01*
X106895000Y-104358072D01*
X107019482Y-104345812D01*
X107139180Y-104309502D01*
X107249494Y-104250537D01*
X107346185Y-104171185D01*
X107425537Y-104074494D01*
X107484502Y-103964180D01*
X107520812Y-103844482D01*
X107533072Y-103720000D01*
X107530000Y-103155750D01*
X107371250Y-102997000D01*
X106172000Y-102997000D01*
X105918000Y-102997000D01*
X104718750Y-102997000D01*
X104560000Y-103155750D01*
X104556928Y-103720000D01*
X103723072Y-103720000D01*
X103723072Y-102020000D01*
X104556928Y-102020000D01*
X104560000Y-102584250D01*
X104718750Y-102743000D01*
X105918000Y-102743000D01*
X105918000Y-102723000D01*
X106172000Y-102723000D01*
X106172000Y-102743000D01*
X107371250Y-102743000D01*
X107530000Y-102584250D01*
X107533072Y-102020000D01*
X107520812Y-101895518D01*
X107484502Y-101775820D01*
X107425537Y-101665506D01*
X107346185Y-101568815D01*
X107249494Y-101489463D01*
X107139180Y-101430498D01*
X107066620Y-101408487D01*
X107198475Y-101276632D01*
X107360990Y-101033411D01*
X107472932Y-100763158D01*
X107530000Y-100476260D01*
X107530000Y-100183740D01*
X107472932Y-99896842D01*
X107360990Y-99626589D01*
X107198475Y-99383368D01*
X106991632Y-99176525D01*
X106817240Y-99060000D01*
X106991632Y-98943475D01*
X107198475Y-98736632D01*
X107360990Y-98493411D01*
X107472932Y-98223158D01*
X107530000Y-97936260D01*
X107530000Y-97643740D01*
X107472932Y-97356842D01*
X107360990Y-97086589D01*
X107198475Y-96843368D01*
X106991632Y-96636525D01*
X106748411Y-96474010D01*
X106478158Y-96362068D01*
X106191260Y-96305000D01*
X105898740Y-96305000D01*
X105611842Y-96362068D01*
X105341589Y-96474010D01*
X105098368Y-96636525D01*
X104891525Y-96843368D01*
X104729010Y-97086589D01*
X104617068Y-97356842D01*
X104560000Y-97643740D01*
X104560000Y-97936260D01*
X104617068Y-98223158D01*
X104729010Y-98493411D01*
X104891525Y-98736632D01*
X105098368Y-98943475D01*
X105272760Y-99060000D01*
X105098368Y-99176525D01*
X104891525Y-99383368D01*
X104729010Y-99626589D01*
X104617068Y-99896842D01*
X104560000Y-100183740D01*
X104560000Y-100476260D01*
X104617068Y-100763158D01*
X104729010Y-101033411D01*
X104891525Y-101276632D01*
X105023380Y-101408487D01*
X104950820Y-101430498D01*
X104840506Y-101489463D01*
X104743815Y-101568815D01*
X104664463Y-101665506D01*
X104605498Y-101775820D01*
X104569188Y-101895518D01*
X104556928Y-102020000D01*
X103723072Y-102020000D01*
X103710812Y-101895518D01*
X103674502Y-101775820D01*
X103615537Y-101665506D01*
X103536185Y-101568815D01*
X103439494Y-101489463D01*
X103329180Y-101430498D01*
X103256620Y-101408487D01*
X103388475Y-101276632D01*
X103550990Y-101033411D01*
X103662932Y-100763158D01*
X103720000Y-100476260D01*
X103720000Y-100183740D01*
X103662932Y-99896842D01*
X103550990Y-99626589D01*
X103388475Y-99383368D01*
X103181632Y-99176525D01*
X103007240Y-99060000D01*
X103181632Y-98943475D01*
X103388475Y-98736632D01*
X103550990Y-98493411D01*
X103662932Y-98223158D01*
X103720000Y-97936260D01*
X103720000Y-97643740D01*
X103662932Y-97356842D01*
X103550990Y-97086589D01*
X103388475Y-96843368D01*
X103181632Y-96636525D01*
X102938411Y-96474010D01*
X102668158Y-96362068D01*
X102381260Y-96305000D01*
X102088740Y-96305000D01*
X101801842Y-96362068D01*
X101531589Y-96474010D01*
X101288368Y-96636525D01*
X101081525Y-96843368D01*
X100919010Y-97086589D01*
X100807068Y-97356842D01*
X100750000Y-97643740D01*
X100750000Y-97936260D01*
X100807068Y-98223158D01*
X100919010Y-98493411D01*
X101081525Y-98736632D01*
X101288368Y-98943475D01*
X101462760Y-99060000D01*
X101288368Y-99176525D01*
X101081525Y-99383368D01*
X100919010Y-99626589D01*
X100807068Y-99896842D01*
X100750000Y-100183740D01*
X100750000Y-100476260D01*
X100807068Y-100763158D01*
X100919010Y-101033411D01*
X101081525Y-101276632D01*
X101213380Y-101408487D01*
X101140820Y-101430498D01*
X101030506Y-101489463D01*
X100933815Y-101568815D01*
X100854463Y-101665506D01*
X100795498Y-101775820D01*
X100759188Y-101895518D01*
X100746928Y-102020000D01*
X97536000Y-102020000D01*
X97536000Y-96569893D01*
X97540914Y-96519999D01*
X97536000Y-96470105D01*
X97536000Y-96470098D01*
X97521298Y-96320829D01*
X97463202Y-96129313D01*
X97368860Y-95952810D01*
X97241896Y-95798104D01*
X97203133Y-95766292D01*
X96003712Y-94566872D01*
X95971896Y-94528104D01*
X95817190Y-94401140D01*
X95640687Y-94306798D01*
X95449171Y-94248702D01*
X95447631Y-94248550D01*
X95419502Y-94155820D01*
X95360537Y-94045506D01*
X95281185Y-93948815D01*
X95184494Y-93869463D01*
X95074180Y-93810498D01*
X94954482Y-93774188D01*
X94830000Y-93761928D01*
X93130000Y-93761928D01*
X93005518Y-93774188D01*
X92885820Y-93810498D01*
X92775506Y-93869463D01*
X92678815Y-93948815D01*
X92599463Y-94045506D01*
X92540498Y-94155820D01*
X92518487Y-94228380D01*
X92386632Y-94096525D01*
X92143411Y-93934010D01*
X91873158Y-93822068D01*
X91586260Y-93765000D01*
X91293740Y-93765000D01*
X91006842Y-93822068D01*
X90736589Y-93934010D01*
X90493368Y-94096525D01*
X90286525Y-94303368D01*
X90195000Y-94440345D01*
X90195000Y-93377277D01*
X90219245Y-93130000D01*
X118526928Y-93130000D01*
X118526928Y-94830000D01*
X118539188Y-94954482D01*
X118575498Y-95074180D01*
X118634463Y-95184494D01*
X118713815Y-95281185D01*
X118810506Y-95360537D01*
X118920820Y-95419502D01*
X119040518Y-95455812D01*
X119165000Y-95468072D01*
X120865000Y-95468072D01*
X120989482Y-95455812D01*
X121109180Y-95419502D01*
X121219494Y-95360537D01*
X121316185Y-95281185D01*
X121395537Y-95184494D01*
X121454502Y-95074180D01*
X121476513Y-95001620D01*
X121608368Y-95133475D01*
X121851589Y-95295990D01*
X122121842Y-95407932D01*
X122408740Y-95465000D01*
X122701260Y-95465000D01*
X122988158Y-95407932D01*
X123258411Y-95295990D01*
X123501632Y-95133475D01*
X123708475Y-94926632D01*
X123870990Y-94683411D01*
X123982932Y-94413158D01*
X124040000Y-94126260D01*
X124040000Y-93833740D01*
X123982932Y-93546842D01*
X123870990Y-93276589D01*
X123708475Y-93033368D01*
X123501632Y-92826525D01*
X123258411Y-92664010D01*
X122988158Y-92552068D01*
X122701260Y-92495000D01*
X122408740Y-92495000D01*
X122121842Y-92552068D01*
X121851589Y-92664010D01*
X121608368Y-92826525D01*
X121476513Y-92958380D01*
X121454502Y-92885820D01*
X121395537Y-92775506D01*
X121316185Y-92678815D01*
X121219494Y-92599463D01*
X121109180Y-92540498D01*
X120989482Y-92504188D01*
X120865000Y-92491928D01*
X119165000Y-92491928D01*
X119040518Y-92504188D01*
X118920820Y-92540498D01*
X118810506Y-92599463D01*
X118713815Y-92678815D01*
X118634463Y-92775506D01*
X118575498Y-92885820D01*
X118539188Y-93005518D01*
X118526928Y-93130000D01*
X90219245Y-93130000D01*
X90221815Y-93103796D01*
X90291867Y-92871774D01*
X90405650Y-92657778D01*
X90558832Y-92469959D01*
X90745577Y-92315470D01*
X90958769Y-92200199D01*
X91190300Y-92128528D01*
X91461725Y-92100000D01*
X130512650Y-92100000D01*
X130343476Y-92213039D01*
G37*
X130343476Y-92213039D02*
X130186039Y-92370476D01*
X130062341Y-92555602D01*
X129977137Y-92761304D01*
X129933700Y-92979675D01*
X129933700Y-93202325D01*
X129977137Y-93420696D01*
X130062341Y-93626398D01*
X130186039Y-93811524D01*
X130343476Y-93968961D01*
X130528602Y-94092659D01*
X130734304Y-94177863D01*
X130952675Y-94221300D01*
X131175325Y-94221300D01*
X131393696Y-94177863D01*
X131599398Y-94092659D01*
X131784524Y-93968961D01*
X131941961Y-93811524D01*
X132065659Y-93626398D01*
X132080000Y-93591776D01*
X132094341Y-93626398D01*
X132218039Y-93811524D01*
X132375476Y-93968961D01*
X132560602Y-94092659D01*
X132766304Y-94177863D01*
X132984675Y-94221300D01*
X133207325Y-94221300D01*
X133425696Y-94177863D01*
X133631398Y-94092659D01*
X133816524Y-93968961D01*
X133973961Y-93811524D01*
X134097659Y-93626398D01*
X134182863Y-93420696D01*
X134226300Y-93202325D01*
X134226300Y-92979675D01*
X134182863Y-92761304D01*
X134097659Y-92555602D01*
X133973961Y-92370476D01*
X133816524Y-92213039D01*
X133647350Y-92100000D01*
X135857723Y-92100000D01*
X136131204Y-92126815D01*
X136363226Y-92196867D01*
X136577222Y-92310650D01*
X136765041Y-92463832D01*
X136919530Y-92650577D01*
X137034801Y-92863769D01*
X137106472Y-93095300D01*
X137135001Y-93366734D01*
X137135001Y-100838000D01*
X134686711Y-100838000D01*
X134644774Y-100796063D01*
X134475256Y-100682795D01*
X134286898Y-100604774D01*
X134086939Y-100565000D01*
X133883061Y-100565000D01*
X133683102Y-100604774D01*
X133494744Y-100682795D01*
X133325226Y-100796063D01*
X133283289Y-100838000D01*
X133207182Y-100838000D01*
X133210300Y-100822325D01*
X133210300Y-100599675D01*
X133166863Y-100381304D01*
X133081659Y-100175602D01*
X132957961Y-99990476D01*
X132800524Y-99833039D01*
X132615398Y-99709341D01*
X132409696Y-99624137D01*
X132191325Y-99580700D01*
X131968675Y-99580700D01*
X131750304Y-99624137D01*
X131544602Y-99709341D01*
X131359476Y-99833039D01*
X131202039Y-99990476D01*
X131078341Y-100175602D01*
X130993137Y-100381304D01*
X130949700Y-100599675D01*
X130949700Y-100822325D01*
X130952818Y-100838000D01*
X123848199Y-100838000D01*
X123719039Y-100644698D01*
X123510302Y-100435961D01*
X123264853Y-100271958D01*
X122992125Y-100158990D01*
X122702599Y-100101400D01*
X122407401Y-100101400D01*
X122117875Y-100158990D01*
X121845147Y-100271958D01*
X121599698Y-100435961D01*
X121390961Y-100644698D01*
X121285000Y-100803281D01*
X121179039Y-100644698D01*
X120970302Y-100435961D01*
X120724853Y-100271958D01*
X120452125Y-100158990D01*
X120162599Y-100101400D01*
X119867401Y-100101400D01*
X119577875Y-100158990D01*
X119305147Y-100271958D01*
X119059698Y-100435961D01*
X118850961Y-100644698D01*
X118686958Y-100890147D01*
X118573990Y-101162875D01*
X118516400Y-101452401D01*
X118516400Y-101747599D01*
X118573990Y-102037125D01*
X118686958Y-102309853D01*
X118850961Y-102555302D01*
X119059698Y-102764039D01*
X119218281Y-102870000D01*
X119059698Y-102975961D01*
X118850961Y-103184698D01*
X118686958Y-103430147D01*
X118573990Y-103702875D01*
X118516400Y-103992401D01*
X118516400Y-104287599D01*
X118573990Y-104577125D01*
X118686958Y-104849853D01*
X118850961Y-105095302D01*
X119059698Y-105304039D01*
X119218281Y-105410000D01*
X119059698Y-105515961D01*
X118850961Y-105724698D01*
X118686958Y-105970147D01*
X118573990Y-106242875D01*
X118516400Y-106532401D01*
X118516400Y-106827599D01*
X118573990Y-107117125D01*
X118686958Y-107389853D01*
X118850961Y-107635302D01*
X119059698Y-107844039D01*
X119218281Y-107950000D01*
X119059698Y-108055961D01*
X118850961Y-108264698D01*
X118686958Y-108510147D01*
X118573990Y-108782875D01*
X118516400Y-109072401D01*
X118516400Y-109367599D01*
X118573990Y-109657125D01*
X118686958Y-109929853D01*
X118850961Y-110175302D01*
X119059698Y-110384039D01*
X119218281Y-110490000D01*
X119059698Y-110595961D01*
X118850961Y-110804698D01*
X118686958Y-111050147D01*
X118573990Y-111322875D01*
X118516400Y-111612401D01*
X118516400Y-111907599D01*
X118573990Y-112197125D01*
X118686958Y-112469853D01*
X118850961Y-112715302D01*
X119059698Y-112924039D01*
X119305147Y-113088042D01*
X119577875Y-113201010D01*
X119867401Y-113258600D01*
X120162599Y-113258600D01*
X120452125Y-113201010D01*
X120724853Y-113088042D01*
X120970302Y-112924039D01*
X121084364Y-112809977D01*
X121101898Y-112867780D01*
X121160863Y-112978094D01*
X121240215Y-113074785D01*
X121336906Y-113154137D01*
X121447220Y-113213102D01*
X121566918Y-113249412D01*
X121691400Y-113261672D01*
X123418600Y-113261672D01*
X123543082Y-113249412D01*
X123662780Y-113213102D01*
X123773094Y-113154137D01*
X123869785Y-113074785D01*
X123949137Y-112978094D01*
X124008102Y-112867780D01*
X124035943Y-112776000D01*
X124039160Y-112776000D01*
X124341287Y-113078127D01*
X124373104Y-113116896D01*
X124509910Y-113229170D01*
X124527810Y-113243860D01*
X124704313Y-113338202D01*
X124895829Y-113396298D01*
X125095000Y-113415915D01*
X125144902Y-113411000D01*
X133113025Y-113411000D01*
X133133987Y-113431962D01*
X133352641Y-113578061D01*
X133595595Y-113678696D01*
X133853514Y-113730000D01*
X134116486Y-113730000D01*
X134374405Y-113678696D01*
X134617359Y-113578061D01*
X134836013Y-113431962D01*
X135021962Y-113246013D01*
X135168061Y-113027359D01*
X135268696Y-112784405D01*
X135320000Y-112526486D01*
X135320000Y-112263514D01*
X135268696Y-112005595D01*
X135168061Y-111762641D01*
X135021962Y-111543987D01*
X134836013Y-111358038D01*
X134617359Y-111211939D01*
X134374405Y-111111304D01*
X134116486Y-111060000D01*
X133853514Y-111060000D01*
X133595595Y-111111304D01*
X133352641Y-111211939D01*
X133133987Y-111358038D01*
X133113025Y-111379000D01*
X129909753Y-111379000D01*
X129940000Y-111226939D01*
X129940000Y-111023061D01*
X129900226Y-110823102D01*
X129822205Y-110634744D01*
X129708937Y-110465226D01*
X129564774Y-110321063D01*
X129395256Y-110207795D01*
X129206898Y-110129774D01*
X129006939Y-110090000D01*
X128803061Y-110090000D01*
X128603102Y-110129774D01*
X128414744Y-110207795D01*
X128245226Y-110321063D01*
X128203289Y-110363000D01*
X126045630Y-110363000D01*
X125660284Y-109977654D01*
X125636422Y-109948578D01*
X125520392Y-109853355D01*
X125388015Y-109782598D01*
X125244378Y-109739026D01*
X125132426Y-109728000D01*
X125132423Y-109728000D01*
X125095000Y-109724314D01*
X125057577Y-109728000D01*
X123964772Y-109728000D01*
X124009958Y-109579026D01*
X123888817Y-109347000D01*
X122682000Y-109347000D01*
X122682000Y-109367000D01*
X122428000Y-109367000D01*
X122428000Y-109347000D01*
X122408000Y-109347000D01*
X122408000Y-109093000D01*
X122428000Y-109093000D01*
X122428000Y-109073000D01*
X122682000Y-109073000D01*
X122682000Y-109093000D01*
X123888817Y-109093000D01*
X124009958Y-108860974D01*
X123964772Y-108712000D01*
X126298289Y-108712000D01*
X126340226Y-108753937D01*
X126509744Y-108867205D01*
X126698102Y-108945226D01*
X126898061Y-108985000D01*
X127101939Y-108985000D01*
X127301898Y-108945226D01*
X127490256Y-108867205D01*
X127659774Y-108753937D01*
X127803937Y-108609774D01*
X127917205Y-108440256D01*
X127995226Y-108251898D01*
X128035000Y-108051939D01*
X128035000Y-107848061D01*
X128004753Y-107696000D01*
X135840098Y-107696000D01*
X135890000Y-107700915D01*
X135939902Y-107696000D01*
X136089171Y-107681298D01*
X136280687Y-107623202D01*
X136457190Y-107528860D01*
X136611896Y-107401896D01*
X136629866Y-107380000D01*
X136656486Y-107380000D01*
X136914405Y-107328696D01*
X137135000Y-107237322D01*
X137135000Y-119982723D01*
X137108185Y-120256205D01*
X137038133Y-120488226D01*
X136924350Y-120702222D01*
X136771169Y-120890039D01*
X136584424Y-121044529D01*
X136371231Y-121159802D01*
X136139701Y-121231472D01*
X135868276Y-121260000D01*
X91472277Y-121260000D01*
X91198795Y-121233185D01*
X90966774Y-121163133D01*
X90752778Y-121049350D01*
X90564961Y-120896169D01*
X90410471Y-120709424D01*
X90295198Y-120496231D01*
X90223528Y-120264701D01*
X90195000Y-119993276D01*
X90195000Y-118912637D01*
X90342412Y-119110269D01*
X90558645Y-119305178D01*
X90808748Y-119454157D01*
X91083109Y-119551481D01*
X91313000Y-119430814D01*
X91313000Y-118237000D01*
X91293000Y-118237000D01*
X91293000Y-117983000D01*
X91313000Y-117983000D01*
X91313000Y-115697000D01*
X91293000Y-115697000D01*
X91293000Y-115443000D01*
X91313000Y-115443000D01*
X91313000Y-113157000D01*
X91293000Y-113157000D01*
X91293000Y-112903000D01*
X91313000Y-112903000D01*
X91313000Y-110617000D01*
X91293000Y-110617000D01*
X91293000Y-110363000D01*
X91313000Y-110363000D01*
X91313000Y-108077000D01*
X91293000Y-108077000D01*
X91293000Y-107823000D01*
X91313000Y-107823000D01*
X91313000Y-105537000D01*
X91293000Y-105537000D01*
X91293000Y-105283000D01*
X91313000Y-105283000D01*
X91313000Y-102997000D01*
X91293000Y-102997000D01*
X91293000Y-102743000D01*
X91313000Y-102743000D01*
X91313000Y-100457000D01*
X91293000Y-100457000D01*
X91293000Y-100203000D01*
X91313000Y-100203000D01*
X91313000Y-97917000D01*
X91293000Y-97917000D01*
X91293000Y-97663000D01*
X91313000Y-97663000D01*
X91313000Y-97643000D01*
X91567000Y-97643000D01*
X91567000Y-97663000D01*
X91587000Y-97663000D01*
X91587000Y-97917000D01*
X91567000Y-97917000D01*
X91567000Y-100203000D01*
X91587000Y-100203000D01*
X91587000Y-100457000D01*
X91567000Y-100457000D01*
X91567000Y-102743000D01*
X91587000Y-102743000D01*
X91587000Y-102997000D01*
X91567000Y-102997000D01*
X91567000Y-105283000D01*
X91587000Y-105283000D01*
X91587000Y-105537000D01*
X91567000Y-105537000D01*
X91567000Y-107823000D01*
X91587000Y-107823000D01*
X91587000Y-108077000D01*
X91567000Y-108077000D01*
X91567000Y-110363000D01*
X91587000Y-110363000D01*
X91587000Y-110617000D01*
X91567000Y-110617000D01*
X91567000Y-112903000D01*
X91587000Y-112903000D01*
X91587000Y-113157000D01*
X91567000Y-113157000D01*
X91567000Y-115443000D01*
X91587000Y-115443000D01*
X91587000Y-115697000D01*
X91567000Y-115697000D01*
X91567000Y-117983000D01*
X91587000Y-117983000D01*
X91587000Y-118237000D01*
X91567000Y-118237000D01*
X91567000Y-119430814D01*
X91796891Y-119551481D01*
X92071252Y-119454157D01*
X92321355Y-119305178D01*
X92537588Y-119110269D01*
X92708900Y-118880594D01*
X92826525Y-119056632D01*
X93033368Y-119263475D01*
X93276589Y-119425990D01*
X93546842Y-119537932D01*
X93833740Y-119595000D01*
X94126260Y-119595000D01*
X94413158Y-119537932D01*
X94683411Y-119425990D01*
X94926632Y-119263475D01*
X95133475Y-119056632D01*
X95295990Y-118813411D01*
X95407932Y-118543158D01*
X95465000Y-118256260D01*
X95465000Y-117963740D01*
X95407932Y-117676842D01*
X95295990Y-117406589D01*
X95133475Y-117163368D01*
X94937107Y-116967000D01*
X100821593Y-116967000D01*
X100795498Y-117015820D01*
X100759188Y-117135518D01*
X100746928Y-117260000D01*
X100746928Y-118960000D01*
X100759188Y-119084482D01*
X100795498Y-119204180D01*
X100854463Y-119314494D01*
X100933815Y-119411185D01*
X101030506Y-119490537D01*
X101140820Y-119549502D01*
X101260518Y-119585812D01*
X101385000Y-119598072D01*
X103085000Y-119598072D01*
X103209482Y-119585812D01*
X103329180Y-119549502D01*
X103439494Y-119490537D01*
X103536185Y-119411185D01*
X103615537Y-119314494D01*
X103674502Y-119204180D01*
X103710812Y-119084482D01*
X103723072Y-118960000D01*
X103723072Y-117260000D01*
X103710812Y-117135518D01*
X103674502Y-117015820D01*
X103615537Y-116905506D01*
X103536185Y-116808815D01*
X103439494Y-116729463D01*
X103329180Y-116670498D01*
X103256620Y-116648487D01*
X103388475Y-116516632D01*
X103550990Y-116273411D01*
X103662932Y-116003158D01*
X103720000Y-115716260D01*
X103720000Y-115423740D01*
X103698569Y-115316000D01*
X104026750Y-115316000D01*
X104183750Y-115473000D01*
X104539407Y-115473000D01*
X104550988Y-115494781D01*
X104578655Y-115547703D01*
X104580049Y-115549437D01*
X104581095Y-115551404D01*
X104618883Y-115597737D01*
X104656310Y-115644286D01*
X104658015Y-115645717D01*
X104659423Y-115647443D01*
X104705473Y-115685539D01*
X104751246Y-115723947D01*
X104753198Y-115725020D01*
X104754913Y-115726439D01*
X104755951Y-115727000D01*
X104183750Y-115727000D01*
X104025000Y-115885750D01*
X104021928Y-116100000D01*
X104034188Y-116224482D01*
X104070498Y-116344180D01*
X104129463Y-116454494D01*
X104208815Y-116551185D01*
X104305506Y-116630537D01*
X104415820Y-116689502D01*
X104535518Y-116725812D01*
X104660000Y-116738072D01*
X105124250Y-116735000D01*
X105283000Y-116576250D01*
X105283000Y-115835000D01*
X105537000Y-115835000D01*
X105537000Y-116576250D01*
X105695750Y-116735000D01*
X106160000Y-116738072D01*
X106284482Y-116725812D01*
X106404180Y-116689502D01*
X106514494Y-116630537D01*
X106611185Y-116551185D01*
X106690537Y-116454494D01*
X106749502Y-116344180D01*
X106785812Y-116224482D01*
X106798072Y-116100000D01*
X106795000Y-115885750D01*
X106636250Y-115727000D01*
X106063740Y-115727000D01*
X106107737Y-115691117D01*
X106154286Y-115653690D01*
X106155717Y-115651985D01*
X106157443Y-115650577D01*
X106195539Y-115604527D01*
X106233947Y-115558754D01*
X106235020Y-115556802D01*
X106236439Y-115555087D01*
X106264851Y-115502539D01*
X106281091Y-115473000D01*
X106636250Y-115473000D01*
X106795000Y-115314250D01*
X106798072Y-115100000D01*
X106785812Y-114975518D01*
X106778071Y-114950000D01*
X106785812Y-114924482D01*
X106798072Y-114800000D01*
X106798072Y-113880000D01*
X107731928Y-113880000D01*
X107744188Y-114004482D01*
X107780498Y-114124180D01*
X107839463Y-114234494D01*
X107918815Y-114331185D01*
X108015506Y-114410537D01*
X108125820Y-114469502D01*
X108198380Y-114491513D01*
X108066525Y-114623368D01*
X107904010Y-114866589D01*
X107792068Y-115136842D01*
X107735000Y-115423740D01*
X107735000Y-115716260D01*
X107792068Y-116003158D01*
X107904010Y-116273411D01*
X108066525Y-116516632D01*
X108273368Y-116723475D01*
X108447760Y-116840000D01*
X108273368Y-116956525D01*
X108066525Y-117163368D01*
X107904010Y-117406589D01*
X107792068Y-117676842D01*
X107735000Y-117963740D01*
X107735000Y-118256260D01*
X107792068Y-118543158D01*
X107904010Y-118813411D01*
X108066525Y-119056632D01*
X108273368Y-119263475D01*
X108516589Y-119425990D01*
X108786842Y-119537932D01*
X109073740Y-119595000D01*
X109366260Y-119595000D01*
X109653158Y-119537932D01*
X109923411Y-119425990D01*
X110166632Y-119263475D01*
X110373475Y-119056632D01*
X110535990Y-118813411D01*
X110647932Y-118543158D01*
X110650549Y-118530000D01*
X118526928Y-118530000D01*
X118526928Y-120230000D01*
X118539188Y-120354482D01*
X118575498Y-120474180D01*
X118634463Y-120584494D01*
X118713815Y-120681185D01*
X118810506Y-120760537D01*
X118920820Y-120819502D01*
X119040518Y-120855812D01*
X119165000Y-120868072D01*
X120865000Y-120868072D01*
X120989482Y-120855812D01*
X121109180Y-120819502D01*
X121219494Y-120760537D01*
X121316185Y-120681185D01*
X121395537Y-120584494D01*
X121454502Y-120474180D01*
X121476513Y-120401620D01*
X121608368Y-120533475D01*
X121851589Y-120695990D01*
X122121842Y-120807932D01*
X122408740Y-120865000D01*
X122701260Y-120865000D01*
X122988158Y-120807932D01*
X123258411Y-120695990D01*
X123501632Y-120533475D01*
X123708475Y-120326632D01*
X123870990Y-120083411D01*
X123982932Y-119813158D01*
X124040000Y-119526260D01*
X124040000Y-119233740D01*
X123982932Y-118946842D01*
X123870990Y-118676589D01*
X123708475Y-118433368D01*
X123501632Y-118226525D01*
X123258411Y-118064010D01*
X122988158Y-117952068D01*
X122701260Y-117895000D01*
X122408740Y-117895000D01*
X122121842Y-117952068D01*
X121851589Y-118064010D01*
X121608368Y-118226525D01*
X121476513Y-118358380D01*
X121454502Y-118285820D01*
X121395537Y-118175506D01*
X121316185Y-118078815D01*
X121219494Y-117999463D01*
X121109180Y-117940498D01*
X120989482Y-117904188D01*
X120865000Y-117891928D01*
X119165000Y-117891928D01*
X119040518Y-117904188D01*
X118920820Y-117940498D01*
X118810506Y-117999463D01*
X118713815Y-118078815D01*
X118634463Y-118175506D01*
X118575498Y-118285820D01*
X118539188Y-118405518D01*
X118526928Y-118530000D01*
X110650549Y-118530000D01*
X110705000Y-118256260D01*
X110705000Y-117963740D01*
X110647932Y-117676842D01*
X110535990Y-117406589D01*
X110373475Y-117163368D01*
X110166632Y-116956525D01*
X109992240Y-116840000D01*
X110166632Y-116723475D01*
X110373475Y-116516632D01*
X110535990Y-116273411D01*
X110647932Y-116003158D01*
X110705000Y-115716260D01*
X110705000Y-115423740D01*
X110647932Y-115136842D01*
X110535990Y-114866589D01*
X110373475Y-114623368D01*
X110241620Y-114491513D01*
X110314180Y-114469502D01*
X110424494Y-114410537D01*
X110521185Y-114331185D01*
X110600537Y-114234494D01*
X110659502Y-114124180D01*
X110695812Y-114004482D01*
X110708072Y-113880000D01*
X110705000Y-113315750D01*
X110546250Y-113157000D01*
X109347000Y-113157000D01*
X109347000Y-113177000D01*
X109093000Y-113177000D01*
X109093000Y-113157000D01*
X107893750Y-113157000D01*
X107735000Y-113315750D01*
X107731928Y-113880000D01*
X106798072Y-113880000D01*
X106798072Y-113800000D01*
X106785812Y-113675518D01*
X106778071Y-113650000D01*
X106785812Y-113624482D01*
X106798072Y-113500000D01*
X106798072Y-112500000D01*
X106785812Y-112375518D01*
X106749502Y-112255820D01*
X106708975Y-112180000D01*
X107731928Y-112180000D01*
X107735000Y-112744250D01*
X107893750Y-112903000D01*
X109093000Y-112903000D01*
X109093000Y-111703750D01*
X109347000Y-111703750D01*
X109347000Y-112903000D01*
X110546250Y-112903000D01*
X110705000Y-112744250D01*
X110708072Y-112180000D01*
X110695812Y-112055518D01*
X110659502Y-111935820D01*
X110600537Y-111825506D01*
X110521185Y-111728815D01*
X110424494Y-111649463D01*
X110314180Y-111590498D01*
X110194482Y-111554188D01*
X110070000Y-111541928D01*
X109505750Y-111545000D01*
X109347000Y-111703750D01*
X109093000Y-111703750D01*
X108934250Y-111545000D01*
X108370000Y-111541928D01*
X108245518Y-111554188D01*
X108125820Y-111590498D01*
X108015506Y-111649463D01*
X107918815Y-111728815D01*
X107839463Y-111825506D01*
X107780498Y-111935820D01*
X107744188Y-112055518D01*
X107731928Y-112180000D01*
X106708975Y-112180000D01*
X106690537Y-112145506D01*
X106611185Y-112048815D01*
X106514494Y-111969463D01*
X106426000Y-111922161D01*
X106426000Y-111174893D01*
X106430914Y-111124999D01*
X106426000Y-111075105D01*
X106426000Y-111075098D01*
X106411298Y-110925829D01*
X106353202Y-110734313D01*
X106258860Y-110557810D01*
X106131896Y-110403104D01*
X106093133Y-110371292D01*
X105475000Y-109753160D01*
X105475000Y-109723514D01*
X105423696Y-109465595D01*
X105323061Y-109222641D01*
X105176962Y-109003987D01*
X104991013Y-108818038D01*
X104772359Y-108671939D01*
X104529405Y-108571304D01*
X104271486Y-108520000D01*
X104008514Y-108520000D01*
X103750595Y-108571304D01*
X103507641Y-108671939D01*
X103288987Y-108818038D01*
X103103038Y-109003987D01*
X102956939Y-109222641D01*
X102856304Y-109465595D01*
X102805000Y-109723514D01*
X102805000Y-109986486D01*
X102856304Y-110244405D01*
X102956939Y-110487359D01*
X103103038Y-110706013D01*
X103288987Y-110891962D01*
X103507641Y-111038061D01*
X103750595Y-111138696D01*
X104008514Y-111190000D01*
X104038160Y-111190000D01*
X104394001Y-111545842D01*
X104394001Y-111922161D01*
X104305506Y-111969463D01*
X104208815Y-112048815D01*
X104129463Y-112145506D01*
X104070498Y-112255820D01*
X104034188Y-112375518D01*
X104021928Y-112500000D01*
X104021928Y-113284000D01*
X103925841Y-113284000D01*
X103720000Y-113078159D01*
X103720000Y-112883740D01*
X103662932Y-112596842D01*
X103550990Y-112326589D01*
X103388475Y-112083368D01*
X103181632Y-111876525D01*
X102938411Y-111714010D01*
X102668158Y-111602068D01*
X102381260Y-111545000D01*
X102088740Y-111545000D01*
X101801842Y-111602068D01*
X101531589Y-111714010D01*
X101288368Y-111876525D01*
X101081525Y-112083368D01*
X100919010Y-112326589D01*
X100807068Y-112596842D01*
X100750000Y-112883740D01*
X100750000Y-113176260D01*
X100771431Y-113284000D01*
X100443250Y-113284000D01*
X100286250Y-113127000D01*
X99187000Y-113127000D01*
X99187000Y-113147000D01*
X98933000Y-113147000D01*
X98933000Y-113127000D01*
X98913000Y-113127000D01*
X98913000Y-112873000D01*
X98933000Y-112873000D01*
X98933000Y-112023750D01*
X99187000Y-112023750D01*
X99187000Y-112873000D01*
X100286250Y-112873000D01*
X100445000Y-112714250D01*
X100448072Y-112500000D01*
X100435812Y-112375518D01*
X100399502Y-112255820D01*
X100340537Y-112145506D01*
X100261185Y-112048815D01*
X100164494Y-111969463D01*
X100054180Y-111910498D01*
X99934482Y-111874188D01*
X99810000Y-111861928D01*
X99345750Y-111865000D01*
X99187000Y-112023750D01*
X98933000Y-112023750D01*
X98774250Y-111865000D01*
X98515424Y-111863287D01*
X98593937Y-111784774D01*
X98707205Y-111615256D01*
X98785226Y-111426898D01*
X98825000Y-111226939D01*
X98825000Y-111023061D01*
X98785226Y-110823102D01*
X98707205Y-110634744D01*
X98593937Y-110465226D01*
X98552000Y-110423289D01*
X98552000Y-105476711D01*
X98593937Y-105434774D01*
X98707205Y-105265256D01*
X98785226Y-105076898D01*
X98825000Y-104876939D01*
X98825000Y-104673061D01*
X98785226Y-104473102D01*
X98707205Y-104284744D01*
X98593937Y-104115226D01*
X98449774Y-103971063D01*
X98280256Y-103857795D01*
X98091898Y-103779774D01*
X97891939Y-103740000D01*
X97688061Y-103740000D01*
X97536000Y-103770247D01*
X97536000Y-102020000D01*
X100746928Y-102020000D01*
X100746928Y-103720000D01*
X100759188Y-103844482D01*
X100795498Y-103964180D01*
X100854463Y-104074494D01*
X100933815Y-104171185D01*
X101030506Y-104250537D01*
X101140820Y-104309502D01*
X101260518Y-104345812D01*
X101385000Y-104358072D01*
X103085000Y-104358072D01*
X103209482Y-104345812D01*
X103329180Y-104309502D01*
X103439494Y-104250537D01*
X103536185Y-104171185D01*
X103615537Y-104074494D01*
X103674502Y-103964180D01*
X103710812Y-103844482D01*
X103723072Y-103720000D01*
X104556928Y-103720000D01*
X104569188Y-103844482D01*
X104605498Y-103964180D01*
X104664463Y-104074494D01*
X104743815Y-104171185D01*
X104840506Y-104250537D01*
X104950820Y-104309502D01*
X105070518Y-104345812D01*
X105195000Y-104358072D01*
X105759250Y-104355000D01*
X105918000Y-104196250D01*
X105918000Y-102997000D01*
X106172000Y-102997000D01*
X106172000Y-104196250D01*
X106330750Y-104355000D01*
X106895000Y-104358072D01*
X107019482Y-104345812D01*
X107139180Y-104309502D01*
X107249494Y-104250537D01*
X107346185Y-104171185D01*
X107425537Y-104074494D01*
X107484502Y-103964180D01*
X107520812Y-103844482D01*
X107533072Y-103720000D01*
X107530000Y-103155750D01*
X107371250Y-102997000D01*
X106172000Y-102997000D01*
X105918000Y-102997000D01*
X104718750Y-102997000D01*
X104560000Y-103155750D01*
X104556928Y-103720000D01*
X103723072Y-103720000D01*
X103723072Y-102020000D01*
X104556928Y-102020000D01*
X104560000Y-102584250D01*
X104718750Y-102743000D01*
X105918000Y-102743000D01*
X105918000Y-102723000D01*
X106172000Y-102723000D01*
X106172000Y-102743000D01*
X107371250Y-102743000D01*
X107530000Y-102584250D01*
X107533072Y-102020000D01*
X107520812Y-101895518D01*
X107484502Y-101775820D01*
X107425537Y-101665506D01*
X107346185Y-101568815D01*
X107249494Y-101489463D01*
X107139180Y-101430498D01*
X107066620Y-101408487D01*
X107198475Y-101276632D01*
X107360990Y-101033411D01*
X107472932Y-100763158D01*
X107530000Y-100476260D01*
X107530000Y-100183740D01*
X107472932Y-99896842D01*
X107360990Y-99626589D01*
X107198475Y-99383368D01*
X106991632Y-99176525D01*
X106817240Y-99060000D01*
X106991632Y-98943475D01*
X107198475Y-98736632D01*
X107360990Y-98493411D01*
X107472932Y-98223158D01*
X107530000Y-97936260D01*
X107530000Y-97643740D01*
X107472932Y-97356842D01*
X107360990Y-97086589D01*
X107198475Y-96843368D01*
X106991632Y-96636525D01*
X106748411Y-96474010D01*
X106478158Y-96362068D01*
X106191260Y-96305000D01*
X105898740Y-96305000D01*
X105611842Y-96362068D01*
X105341589Y-96474010D01*
X105098368Y-96636525D01*
X104891525Y-96843368D01*
X104729010Y-97086589D01*
X104617068Y-97356842D01*
X104560000Y-97643740D01*
X104560000Y-97936260D01*
X104617068Y-98223158D01*
X104729010Y-98493411D01*
X104891525Y-98736632D01*
X105098368Y-98943475D01*
X105272760Y-99060000D01*
X105098368Y-99176525D01*
X104891525Y-99383368D01*
X104729010Y-99626589D01*
X104617068Y-99896842D01*
X104560000Y-100183740D01*
X104560000Y-100476260D01*
X104617068Y-100763158D01*
X104729010Y-101033411D01*
X104891525Y-101276632D01*
X105023380Y-101408487D01*
X104950820Y-101430498D01*
X104840506Y-101489463D01*
X104743815Y-101568815D01*
X104664463Y-101665506D01*
X104605498Y-101775820D01*
X104569188Y-101895518D01*
X104556928Y-102020000D01*
X103723072Y-102020000D01*
X103710812Y-101895518D01*
X103674502Y-101775820D01*
X103615537Y-101665506D01*
X103536185Y-101568815D01*
X103439494Y-101489463D01*
X103329180Y-101430498D01*
X103256620Y-101408487D01*
X103388475Y-101276632D01*
X103550990Y-101033411D01*
X103662932Y-100763158D01*
X103720000Y-100476260D01*
X103720000Y-100183740D01*
X103662932Y-99896842D01*
X103550990Y-99626589D01*
X103388475Y-99383368D01*
X103181632Y-99176525D01*
X103007240Y-99060000D01*
X103181632Y-98943475D01*
X103388475Y-98736632D01*
X103550990Y-98493411D01*
X103662932Y-98223158D01*
X103720000Y-97936260D01*
X103720000Y-97643740D01*
X103662932Y-97356842D01*
X103550990Y-97086589D01*
X103388475Y-96843368D01*
X103181632Y-96636525D01*
X102938411Y-96474010D01*
X102668158Y-96362068D01*
X102381260Y-96305000D01*
X102088740Y-96305000D01*
X101801842Y-96362068D01*
X101531589Y-96474010D01*
X101288368Y-96636525D01*
X101081525Y-96843368D01*
X100919010Y-97086589D01*
X100807068Y-97356842D01*
X100750000Y-97643740D01*
X100750000Y-97936260D01*
X100807068Y-98223158D01*
X100919010Y-98493411D01*
X101081525Y-98736632D01*
X101288368Y-98943475D01*
X101462760Y-99060000D01*
X101288368Y-99176525D01*
X101081525Y-99383368D01*
X100919010Y-99626589D01*
X100807068Y-99896842D01*
X100750000Y-100183740D01*
X100750000Y-100476260D01*
X100807068Y-100763158D01*
X100919010Y-101033411D01*
X101081525Y-101276632D01*
X101213380Y-101408487D01*
X101140820Y-101430498D01*
X101030506Y-101489463D01*
X100933815Y-101568815D01*
X100854463Y-101665506D01*
X100795498Y-101775820D01*
X100759188Y-101895518D01*
X100746928Y-102020000D01*
X97536000Y-102020000D01*
X97536000Y-96569893D01*
X97540914Y-96519999D01*
X97536000Y-96470105D01*
X97536000Y-96470098D01*
X97521298Y-96320829D01*
X97463202Y-96129313D01*
X97368860Y-95952810D01*
X97241896Y-95798104D01*
X97203133Y-95766292D01*
X96003712Y-94566872D01*
X95971896Y-94528104D01*
X95817190Y-94401140D01*
X95640687Y-94306798D01*
X95449171Y-94248702D01*
X95447631Y-94248550D01*
X95419502Y-94155820D01*
X95360537Y-94045506D01*
X95281185Y-93948815D01*
X95184494Y-93869463D01*
X95074180Y-93810498D01*
X94954482Y-93774188D01*
X94830000Y-93761928D01*
X93130000Y-93761928D01*
X93005518Y-93774188D01*
X92885820Y-93810498D01*
X92775506Y-93869463D01*
X92678815Y-93948815D01*
X92599463Y-94045506D01*
X92540498Y-94155820D01*
X92518487Y-94228380D01*
X92386632Y-94096525D01*
X92143411Y-93934010D01*
X91873158Y-93822068D01*
X91586260Y-93765000D01*
X91293740Y-93765000D01*
X91006842Y-93822068D01*
X90736589Y-93934010D01*
X90493368Y-94096525D01*
X90286525Y-94303368D01*
X90195000Y-94440345D01*
X90195000Y-93377277D01*
X90219245Y-93130000D01*
X118526928Y-93130000D01*
X118526928Y-94830000D01*
X118539188Y-94954482D01*
X118575498Y-95074180D01*
X118634463Y-95184494D01*
X118713815Y-95281185D01*
X118810506Y-95360537D01*
X118920820Y-95419502D01*
X119040518Y-95455812D01*
X119165000Y-95468072D01*
X120865000Y-95468072D01*
X120989482Y-95455812D01*
X121109180Y-95419502D01*
X121219494Y-95360537D01*
X121316185Y-95281185D01*
X121395537Y-95184494D01*
X121454502Y-95074180D01*
X121476513Y-95001620D01*
X121608368Y-95133475D01*
X121851589Y-95295990D01*
X122121842Y-95407932D01*
X122408740Y-95465000D01*
X122701260Y-95465000D01*
X122988158Y-95407932D01*
X123258411Y-95295990D01*
X123501632Y-95133475D01*
X123708475Y-94926632D01*
X123870990Y-94683411D01*
X123982932Y-94413158D01*
X124040000Y-94126260D01*
X124040000Y-93833740D01*
X123982932Y-93546842D01*
X123870990Y-93276589D01*
X123708475Y-93033368D01*
X123501632Y-92826525D01*
X123258411Y-92664010D01*
X122988158Y-92552068D01*
X122701260Y-92495000D01*
X122408740Y-92495000D01*
X122121842Y-92552068D01*
X121851589Y-92664010D01*
X121608368Y-92826525D01*
X121476513Y-92958380D01*
X121454502Y-92885820D01*
X121395537Y-92775506D01*
X121316185Y-92678815D01*
X121219494Y-92599463D01*
X121109180Y-92540498D01*
X120989482Y-92504188D01*
X120865000Y-92491928D01*
X119165000Y-92491928D01*
X119040518Y-92504188D01*
X118920820Y-92540498D01*
X118810506Y-92599463D01*
X118713815Y-92678815D01*
X118634463Y-92775506D01*
X118575498Y-92885820D01*
X118539188Y-93005518D01*
X118526928Y-93130000D01*
X90219245Y-93130000D01*
X90221815Y-93103796D01*
X90291867Y-92871774D01*
X90405650Y-92657778D01*
X90558832Y-92469959D01*
X90745577Y-92315470D01*
X90958769Y-92200199D01*
X91190300Y-92128528D01*
X91461725Y-92100000D01*
X130512650Y-92100000D01*
X130343476Y-92213039D01*
M02*
