G04 #@! TF.GenerationSoftware,KiCad,Pcbnew,5.1.5-52549c5~84~ubuntu19.04.1*
G04 #@! TF.CreationDate,2019-12-10T10:59:35+01:00*
G04 #@! TF.ProjectId,jlink-tagConnect-adapter-v2,6a6c696e-6b2d-4746-9167-436f6e6e6563,rev?*
G04 #@! TF.SameCoordinates,Original*
G04 #@! TF.FileFunction,Soldermask,Top*
G04 #@! TF.FilePolarity,Negative*
%FSLAX46Y46*%
G04 Gerber Fmt 4.6, Leading zero omitted, Abs format (unit mm)*
G04 Created by KiCad (PCBNEW 5.1.5-52549c5~84~ubuntu19.04.1) date 2019-12-10 10:59:35*
%MOMM*%
%LPD*%
G04 APERTURE LIST*
%ADD10C,0.010000*%
%ADD11C,0.100000*%
G04 APERTURE END LIST*
D10*
G36*
X132456964Y-114130018D02*
G01*
X132513812Y-114431570D01*
X132933338Y-114604512D01*
X133184984Y-114433395D01*
X133255458Y-114385750D01*
X133319163Y-114343210D01*
X133373126Y-114307715D01*
X133414373Y-114281210D01*
X133439934Y-114265636D01*
X133446895Y-114262278D01*
X133459435Y-114270914D01*
X133486231Y-114294792D01*
X133524280Y-114330859D01*
X133570579Y-114376067D01*
X133622123Y-114427364D01*
X133675909Y-114481701D01*
X133728935Y-114536028D01*
X133778195Y-114587295D01*
X133820687Y-114632451D01*
X133853407Y-114668446D01*
X133873351Y-114692230D01*
X133878119Y-114700190D01*
X133871257Y-114714865D01*
X133852020Y-114747014D01*
X133822430Y-114793492D01*
X133784510Y-114851156D01*
X133740282Y-114916860D01*
X133714654Y-114954336D01*
X133667941Y-115022768D01*
X133626432Y-115084520D01*
X133592140Y-115136519D01*
X133567080Y-115175692D01*
X133553264Y-115198965D01*
X133551188Y-115203855D01*
X133555895Y-115217755D01*
X133568723Y-115250150D01*
X133587738Y-115296485D01*
X133611003Y-115352206D01*
X133636584Y-115412758D01*
X133662545Y-115473586D01*
X133686950Y-115530136D01*
X133707863Y-115577852D01*
X133723349Y-115612181D01*
X133731472Y-115628568D01*
X133731952Y-115629212D01*
X133744707Y-115632341D01*
X133778677Y-115639321D01*
X133830340Y-115649467D01*
X133896176Y-115662092D01*
X133972664Y-115676509D01*
X134017290Y-115684823D01*
X134099021Y-115700384D01*
X134172843Y-115715192D01*
X134235021Y-115728436D01*
X134281822Y-115739305D01*
X134309509Y-115746989D01*
X134315074Y-115749427D01*
X134320526Y-115765930D01*
X134324924Y-115803200D01*
X134328272Y-115856880D01*
X134330574Y-115922612D01*
X134331832Y-115996037D01*
X134332048Y-116072796D01*
X134331227Y-116148532D01*
X134329371Y-116218886D01*
X134326482Y-116279500D01*
X134322565Y-116326016D01*
X134317622Y-116354075D01*
X134314657Y-116359916D01*
X134296934Y-116366917D01*
X134259381Y-116376927D01*
X134206964Y-116388769D01*
X134144652Y-116401267D01*
X134122900Y-116405310D01*
X134018024Y-116424520D01*
X133935180Y-116439991D01*
X133871630Y-116452337D01*
X133824637Y-116462173D01*
X133791463Y-116470114D01*
X133769371Y-116476776D01*
X133755624Y-116482773D01*
X133747484Y-116488719D01*
X133746345Y-116489894D01*
X133734977Y-116508826D01*
X133717635Y-116545669D01*
X133696050Y-116595913D01*
X133671954Y-116655046D01*
X133647079Y-116718556D01*
X133623157Y-116781932D01*
X133601919Y-116840662D01*
X133585097Y-116890235D01*
X133574422Y-116926139D01*
X133571627Y-116943862D01*
X133571860Y-116944483D01*
X133581331Y-116958970D01*
X133602818Y-116990844D01*
X133634063Y-117036789D01*
X133672807Y-117093485D01*
X133716793Y-117157617D01*
X133729319Y-117175842D01*
X133773984Y-117241914D01*
X133813288Y-117302200D01*
X133845088Y-117353235D01*
X133867245Y-117391560D01*
X133877617Y-117413711D01*
X133878119Y-117416432D01*
X133869405Y-117430736D01*
X133845325Y-117459072D01*
X133808976Y-117498396D01*
X133763453Y-117545661D01*
X133711852Y-117597823D01*
X133657267Y-117651835D01*
X133602794Y-117704653D01*
X133551529Y-117753231D01*
X133506567Y-117794523D01*
X133471004Y-117825485D01*
X133447935Y-117843070D01*
X133441554Y-117845941D01*
X133426699Y-117839178D01*
X133396286Y-117820939D01*
X133355268Y-117794297D01*
X133323709Y-117772852D01*
X133266525Y-117733503D01*
X133198806Y-117687171D01*
X133130880Y-117640913D01*
X133094361Y-117616155D01*
X132970752Y-117532547D01*
X132866991Y-117588650D01*
X132819720Y-117613228D01*
X132779523Y-117632331D01*
X132752326Y-117643227D01*
X132745402Y-117644743D01*
X132737077Y-117633549D01*
X132720654Y-117601917D01*
X132697357Y-117552765D01*
X132668414Y-117489010D01*
X132635050Y-117413571D01*
X132598491Y-117329364D01*
X132559964Y-117239308D01*
X132520694Y-117146321D01*
X132481908Y-117053320D01*
X132444830Y-116963223D01*
X132410689Y-116878948D01*
X132380708Y-116803413D01*
X132356116Y-116739534D01*
X132338136Y-116690231D01*
X132327997Y-116658421D01*
X132326366Y-116647496D01*
X132339291Y-116633561D01*
X132367589Y-116610940D01*
X132405346Y-116584333D01*
X132408515Y-116582228D01*
X132506100Y-116504114D01*
X132584786Y-116412982D01*
X132643891Y-116311745D01*
X132682732Y-116203318D01*
X132700628Y-116090614D01*
X132696897Y-115976548D01*
X132670857Y-115864034D01*
X132621825Y-115755985D01*
X132607400Y-115732345D01*
X132532369Y-115636887D01*
X132443730Y-115560232D01*
X132344549Y-115502780D01*
X132237895Y-115464929D01*
X132126836Y-115447078D01*
X132014439Y-115449625D01*
X131903773Y-115472970D01*
X131797906Y-115517510D01*
X131699905Y-115583645D01*
X131669590Y-115610487D01*
X131592438Y-115694512D01*
X131536218Y-115782966D01*
X131497653Y-115882115D01*
X131476174Y-115980303D01*
X131470872Y-116090697D01*
X131488552Y-116201640D01*
X131527419Y-116309381D01*
X131585677Y-116410169D01*
X131661531Y-116500256D01*
X131753183Y-116575892D01*
X131765228Y-116583864D01*
X131803389Y-116609974D01*
X131832399Y-116632595D01*
X131846268Y-116647039D01*
X131846469Y-116647496D01*
X131843492Y-116663121D01*
X131831689Y-116698582D01*
X131812286Y-116750962D01*
X131786512Y-116817345D01*
X131755591Y-116894814D01*
X131720751Y-116980450D01*
X131683217Y-117071337D01*
X131644217Y-117164559D01*
X131604977Y-117257197D01*
X131566724Y-117346335D01*
X131530683Y-117429055D01*
X131498083Y-117502441D01*
X131470148Y-117563575D01*
X131448105Y-117609541D01*
X131433182Y-117637421D01*
X131427172Y-117644743D01*
X131408809Y-117639041D01*
X131374448Y-117623749D01*
X131330016Y-117601599D01*
X131305583Y-117588650D01*
X131201822Y-117532547D01*
X131078213Y-117616155D01*
X131015114Y-117658987D01*
X130946030Y-117706122D01*
X130881293Y-117750503D01*
X130848866Y-117772852D01*
X130803259Y-117803477D01*
X130764640Y-117827747D01*
X130738048Y-117842587D01*
X130729410Y-117845724D01*
X130716839Y-117837261D01*
X130689016Y-117813636D01*
X130648639Y-117777302D01*
X130598405Y-117730711D01*
X130541012Y-117676317D01*
X130504714Y-117641392D01*
X130441210Y-117578996D01*
X130386327Y-117523188D01*
X130342286Y-117476354D01*
X130311305Y-117440882D01*
X130295602Y-117419161D01*
X130294095Y-117414752D01*
X130301086Y-117397985D01*
X130320406Y-117364082D01*
X130349909Y-117316476D01*
X130387455Y-117258599D01*
X130430900Y-117193884D01*
X130443255Y-117175842D01*
X130488273Y-117110267D01*
X130528660Y-117051228D01*
X130562160Y-117002042D01*
X130586514Y-116966028D01*
X130599464Y-116946502D01*
X130600715Y-116944483D01*
X130598844Y-116928922D01*
X130588913Y-116894709D01*
X130572653Y-116846355D01*
X130551795Y-116788371D01*
X130528073Y-116725270D01*
X130503216Y-116661563D01*
X130478958Y-116601761D01*
X130457029Y-116550376D01*
X130439162Y-116511919D01*
X130427087Y-116490902D01*
X130426229Y-116489894D01*
X130418846Y-116483888D01*
X130406375Y-116477948D01*
X130386080Y-116471460D01*
X130355222Y-116463809D01*
X130311066Y-116454380D01*
X130250874Y-116442559D01*
X130171907Y-116427729D01*
X130071430Y-116409277D01*
X130049675Y-116405310D01*
X129985198Y-116392853D01*
X129928989Y-116380666D01*
X129886013Y-116369926D01*
X129861240Y-116361809D01*
X129857918Y-116359916D01*
X129852444Y-116343138D01*
X129847994Y-116305645D01*
X129844572Y-116251794D01*
X129842181Y-116185944D01*
X129840823Y-116112453D01*
X129840501Y-116035680D01*
X129841219Y-115959983D01*
X129842979Y-115889720D01*
X129845784Y-115829250D01*
X129849638Y-115782930D01*
X129854543Y-115755119D01*
X129857500Y-115749427D01*
X129873963Y-115743686D01*
X129911449Y-115734345D01*
X129966225Y-115722215D01*
X130034555Y-115708107D01*
X130112706Y-115692830D01*
X130155284Y-115684823D01*
X130236071Y-115669721D01*
X130308113Y-115656040D01*
X130367889Y-115644467D01*
X130411879Y-115635687D01*
X130436561Y-115630387D01*
X130440623Y-115629212D01*
X130447489Y-115615965D01*
X130462002Y-115584057D01*
X130482229Y-115538047D01*
X130506234Y-115482492D01*
X130532082Y-115421953D01*
X130557840Y-115360986D01*
X130581573Y-115304151D01*
X130601346Y-115256006D01*
X130615224Y-115221110D01*
X130621274Y-115204021D01*
X130621386Y-115203274D01*
X130614528Y-115189793D01*
X130595302Y-115158770D01*
X130565728Y-115113289D01*
X130527827Y-115056432D01*
X130483620Y-114991283D01*
X130457921Y-114953862D01*
X130411093Y-114885247D01*
X130369501Y-114822952D01*
X130335175Y-114770129D01*
X130310143Y-114729927D01*
X130296435Y-114705500D01*
X130294456Y-114700024D01*
X130302966Y-114687278D01*
X130326493Y-114660063D01*
X130362032Y-114621428D01*
X130406577Y-114574423D01*
X130457123Y-114522095D01*
X130510664Y-114467495D01*
X130564195Y-114413670D01*
X130614711Y-114363670D01*
X130659206Y-114320543D01*
X130694675Y-114287339D01*
X130718113Y-114267106D01*
X130725954Y-114262278D01*
X130738720Y-114269067D01*
X130769256Y-114288142D01*
X130814590Y-114317561D01*
X130871756Y-114355381D01*
X130937784Y-114399661D01*
X130987590Y-114433395D01*
X131239236Y-114604512D01*
X131448999Y-114518041D01*
X131658763Y-114431570D01*
X131715611Y-114130018D01*
X131772460Y-113828466D01*
X132400115Y-113828466D01*
X132456964Y-114130018D01*
G37*
X132456964Y-114130018D02*
X132513812Y-114431570D01*
X132933338Y-114604512D01*
X133184984Y-114433395D01*
X133255458Y-114385750D01*
X133319163Y-114343210D01*
X133373126Y-114307715D01*
X133414373Y-114281210D01*
X133439934Y-114265636D01*
X133446895Y-114262278D01*
X133459435Y-114270914D01*
X133486231Y-114294792D01*
X133524280Y-114330859D01*
X133570579Y-114376067D01*
X133622123Y-114427364D01*
X133675909Y-114481701D01*
X133728935Y-114536028D01*
X133778195Y-114587295D01*
X133820687Y-114632451D01*
X133853407Y-114668446D01*
X133873351Y-114692230D01*
X133878119Y-114700190D01*
X133871257Y-114714865D01*
X133852020Y-114747014D01*
X133822430Y-114793492D01*
X133784510Y-114851156D01*
X133740282Y-114916860D01*
X133714654Y-114954336D01*
X133667941Y-115022768D01*
X133626432Y-115084520D01*
X133592140Y-115136519D01*
X133567080Y-115175692D01*
X133553264Y-115198965D01*
X133551188Y-115203855D01*
X133555895Y-115217755D01*
X133568723Y-115250150D01*
X133587738Y-115296485D01*
X133611003Y-115352206D01*
X133636584Y-115412758D01*
X133662545Y-115473586D01*
X133686950Y-115530136D01*
X133707863Y-115577852D01*
X133723349Y-115612181D01*
X133731472Y-115628568D01*
X133731952Y-115629212D01*
X133744707Y-115632341D01*
X133778677Y-115639321D01*
X133830340Y-115649467D01*
X133896176Y-115662092D01*
X133972664Y-115676509D01*
X134017290Y-115684823D01*
X134099021Y-115700384D01*
X134172843Y-115715192D01*
X134235021Y-115728436D01*
X134281822Y-115739305D01*
X134309509Y-115746989D01*
X134315074Y-115749427D01*
X134320526Y-115765930D01*
X134324924Y-115803200D01*
X134328272Y-115856880D01*
X134330574Y-115922612D01*
X134331832Y-115996037D01*
X134332048Y-116072796D01*
X134331227Y-116148532D01*
X134329371Y-116218886D01*
X134326482Y-116279500D01*
X134322565Y-116326016D01*
X134317622Y-116354075D01*
X134314657Y-116359916D01*
X134296934Y-116366917D01*
X134259381Y-116376927D01*
X134206964Y-116388769D01*
X134144652Y-116401267D01*
X134122900Y-116405310D01*
X134018024Y-116424520D01*
X133935180Y-116439991D01*
X133871630Y-116452337D01*
X133824637Y-116462173D01*
X133791463Y-116470114D01*
X133769371Y-116476776D01*
X133755624Y-116482773D01*
X133747484Y-116488719D01*
X133746345Y-116489894D01*
X133734977Y-116508826D01*
X133717635Y-116545669D01*
X133696050Y-116595913D01*
X133671954Y-116655046D01*
X133647079Y-116718556D01*
X133623157Y-116781932D01*
X133601919Y-116840662D01*
X133585097Y-116890235D01*
X133574422Y-116926139D01*
X133571627Y-116943862D01*
X133571860Y-116944483D01*
X133581331Y-116958970D01*
X133602818Y-116990844D01*
X133634063Y-117036789D01*
X133672807Y-117093485D01*
X133716793Y-117157617D01*
X133729319Y-117175842D01*
X133773984Y-117241914D01*
X133813288Y-117302200D01*
X133845088Y-117353235D01*
X133867245Y-117391560D01*
X133877617Y-117413711D01*
X133878119Y-117416432D01*
X133869405Y-117430736D01*
X133845325Y-117459072D01*
X133808976Y-117498396D01*
X133763453Y-117545661D01*
X133711852Y-117597823D01*
X133657267Y-117651835D01*
X133602794Y-117704653D01*
X133551529Y-117753231D01*
X133506567Y-117794523D01*
X133471004Y-117825485D01*
X133447935Y-117843070D01*
X133441554Y-117845941D01*
X133426699Y-117839178D01*
X133396286Y-117820939D01*
X133355268Y-117794297D01*
X133323709Y-117772852D01*
X133266525Y-117733503D01*
X133198806Y-117687171D01*
X133130880Y-117640913D01*
X133094361Y-117616155D01*
X132970752Y-117532547D01*
X132866991Y-117588650D01*
X132819720Y-117613228D01*
X132779523Y-117632331D01*
X132752326Y-117643227D01*
X132745402Y-117644743D01*
X132737077Y-117633549D01*
X132720654Y-117601917D01*
X132697357Y-117552765D01*
X132668414Y-117489010D01*
X132635050Y-117413571D01*
X132598491Y-117329364D01*
X132559964Y-117239308D01*
X132520694Y-117146321D01*
X132481908Y-117053320D01*
X132444830Y-116963223D01*
X132410689Y-116878948D01*
X132380708Y-116803413D01*
X132356116Y-116739534D01*
X132338136Y-116690231D01*
X132327997Y-116658421D01*
X132326366Y-116647496D01*
X132339291Y-116633561D01*
X132367589Y-116610940D01*
X132405346Y-116584333D01*
X132408515Y-116582228D01*
X132506100Y-116504114D01*
X132584786Y-116412982D01*
X132643891Y-116311745D01*
X132682732Y-116203318D01*
X132700628Y-116090614D01*
X132696897Y-115976548D01*
X132670857Y-115864034D01*
X132621825Y-115755985D01*
X132607400Y-115732345D01*
X132532369Y-115636887D01*
X132443730Y-115560232D01*
X132344549Y-115502780D01*
X132237895Y-115464929D01*
X132126836Y-115447078D01*
X132014439Y-115449625D01*
X131903773Y-115472970D01*
X131797906Y-115517510D01*
X131699905Y-115583645D01*
X131669590Y-115610487D01*
X131592438Y-115694512D01*
X131536218Y-115782966D01*
X131497653Y-115882115D01*
X131476174Y-115980303D01*
X131470872Y-116090697D01*
X131488552Y-116201640D01*
X131527419Y-116309381D01*
X131585677Y-116410169D01*
X131661531Y-116500256D01*
X131753183Y-116575892D01*
X131765228Y-116583864D01*
X131803389Y-116609974D01*
X131832399Y-116632595D01*
X131846268Y-116647039D01*
X131846469Y-116647496D01*
X131843492Y-116663121D01*
X131831689Y-116698582D01*
X131812286Y-116750962D01*
X131786512Y-116817345D01*
X131755591Y-116894814D01*
X131720751Y-116980450D01*
X131683217Y-117071337D01*
X131644217Y-117164559D01*
X131604977Y-117257197D01*
X131566724Y-117346335D01*
X131530683Y-117429055D01*
X131498083Y-117502441D01*
X131470148Y-117563575D01*
X131448105Y-117609541D01*
X131433182Y-117637421D01*
X131427172Y-117644743D01*
X131408809Y-117639041D01*
X131374448Y-117623749D01*
X131330016Y-117601599D01*
X131305583Y-117588650D01*
X131201822Y-117532547D01*
X131078213Y-117616155D01*
X131015114Y-117658987D01*
X130946030Y-117706122D01*
X130881293Y-117750503D01*
X130848866Y-117772852D01*
X130803259Y-117803477D01*
X130764640Y-117827747D01*
X130738048Y-117842587D01*
X130729410Y-117845724D01*
X130716839Y-117837261D01*
X130689016Y-117813636D01*
X130648639Y-117777302D01*
X130598405Y-117730711D01*
X130541012Y-117676317D01*
X130504714Y-117641392D01*
X130441210Y-117578996D01*
X130386327Y-117523188D01*
X130342286Y-117476354D01*
X130311305Y-117440882D01*
X130295602Y-117419161D01*
X130294095Y-117414752D01*
X130301086Y-117397985D01*
X130320406Y-117364082D01*
X130349909Y-117316476D01*
X130387455Y-117258599D01*
X130430900Y-117193884D01*
X130443255Y-117175842D01*
X130488273Y-117110267D01*
X130528660Y-117051228D01*
X130562160Y-117002042D01*
X130586514Y-116966028D01*
X130599464Y-116946502D01*
X130600715Y-116944483D01*
X130598844Y-116928922D01*
X130588913Y-116894709D01*
X130572653Y-116846355D01*
X130551795Y-116788371D01*
X130528073Y-116725270D01*
X130503216Y-116661563D01*
X130478958Y-116601761D01*
X130457029Y-116550376D01*
X130439162Y-116511919D01*
X130427087Y-116490902D01*
X130426229Y-116489894D01*
X130418846Y-116483888D01*
X130406375Y-116477948D01*
X130386080Y-116471460D01*
X130355222Y-116463809D01*
X130311066Y-116454380D01*
X130250874Y-116442559D01*
X130171907Y-116427729D01*
X130071430Y-116409277D01*
X130049675Y-116405310D01*
X129985198Y-116392853D01*
X129928989Y-116380666D01*
X129886013Y-116369926D01*
X129861240Y-116361809D01*
X129857918Y-116359916D01*
X129852444Y-116343138D01*
X129847994Y-116305645D01*
X129844572Y-116251794D01*
X129842181Y-116185944D01*
X129840823Y-116112453D01*
X129840501Y-116035680D01*
X129841219Y-115959983D01*
X129842979Y-115889720D01*
X129845784Y-115829250D01*
X129849638Y-115782930D01*
X129854543Y-115755119D01*
X129857500Y-115749427D01*
X129873963Y-115743686D01*
X129911449Y-115734345D01*
X129966225Y-115722215D01*
X130034555Y-115708107D01*
X130112706Y-115692830D01*
X130155284Y-115684823D01*
X130236071Y-115669721D01*
X130308113Y-115656040D01*
X130367889Y-115644467D01*
X130411879Y-115635687D01*
X130436561Y-115630387D01*
X130440623Y-115629212D01*
X130447489Y-115615965D01*
X130462002Y-115584057D01*
X130482229Y-115538047D01*
X130506234Y-115482492D01*
X130532082Y-115421953D01*
X130557840Y-115360986D01*
X130581573Y-115304151D01*
X130601346Y-115256006D01*
X130615224Y-115221110D01*
X130621274Y-115204021D01*
X130621386Y-115203274D01*
X130614528Y-115189793D01*
X130595302Y-115158770D01*
X130565728Y-115113289D01*
X130527827Y-115056432D01*
X130483620Y-114991283D01*
X130457921Y-114953862D01*
X130411093Y-114885247D01*
X130369501Y-114822952D01*
X130335175Y-114770129D01*
X130310143Y-114729927D01*
X130296435Y-114705500D01*
X130294456Y-114700024D01*
X130302966Y-114687278D01*
X130326493Y-114660063D01*
X130362032Y-114621428D01*
X130406577Y-114574423D01*
X130457123Y-114522095D01*
X130510664Y-114467495D01*
X130564195Y-114413670D01*
X130614711Y-114363670D01*
X130659206Y-114320543D01*
X130694675Y-114287339D01*
X130718113Y-114267106D01*
X130725954Y-114262278D01*
X130738720Y-114269067D01*
X130769256Y-114288142D01*
X130814590Y-114317561D01*
X130871756Y-114355381D01*
X130937784Y-114399661D01*
X130987590Y-114433395D01*
X131239236Y-114604512D01*
X131448999Y-114518041D01*
X131658763Y-114431570D01*
X131715611Y-114130018D01*
X131772460Y-113828466D01*
X132400115Y-113828466D01*
X132456964Y-114130018D01*
G36*
X133879460Y-118298030D02*
G01*
X133922711Y-118311245D01*
X133950558Y-118327941D01*
X133959629Y-118341145D01*
X133957132Y-118356797D01*
X133940931Y-118381385D01*
X133927232Y-118398800D01*
X133898992Y-118430283D01*
X133877775Y-118443529D01*
X133859688Y-118442664D01*
X133806035Y-118429010D01*
X133766630Y-118429630D01*
X133734632Y-118445104D01*
X133723890Y-118454161D01*
X133689505Y-118486027D01*
X133689505Y-118902179D01*
X133551188Y-118902179D01*
X133551188Y-118298614D01*
X133620347Y-118298614D01*
X133661869Y-118300256D01*
X133683291Y-118306087D01*
X133689502Y-118317461D01*
X133689505Y-118317798D01*
X133692439Y-118329713D01*
X133705704Y-118328159D01*
X133724084Y-118319563D01*
X133762046Y-118303568D01*
X133792872Y-118293945D01*
X133832536Y-118291478D01*
X133879460Y-118298030D01*
G37*
X133879460Y-118298030D02*
X133922711Y-118311245D01*
X133950558Y-118327941D01*
X133959629Y-118341145D01*
X133957132Y-118356797D01*
X133940931Y-118381385D01*
X133927232Y-118398800D01*
X133898992Y-118430283D01*
X133877775Y-118443529D01*
X133859688Y-118442664D01*
X133806035Y-118429010D01*
X133766630Y-118429630D01*
X133734632Y-118445104D01*
X133723890Y-118454161D01*
X133689505Y-118486027D01*
X133689505Y-118902179D01*
X133551188Y-118902179D01*
X133551188Y-118298614D01*
X133620347Y-118298614D01*
X133661869Y-118300256D01*
X133683291Y-118306087D01*
X133689502Y-118317461D01*
X133689505Y-118317798D01*
X133692439Y-118329713D01*
X133705704Y-118328159D01*
X133724084Y-118319563D01*
X133762046Y-118303568D01*
X133792872Y-118293945D01*
X133832536Y-118291478D01*
X133879460Y-118298030D01*
G36*
X131325988Y-118309002D02*
G01*
X131357283Y-118323950D01*
X131387591Y-118345541D01*
X131410682Y-118370391D01*
X131427500Y-118402087D01*
X131438994Y-118444214D01*
X131446109Y-118500358D01*
X131449793Y-118574106D01*
X131450992Y-118669044D01*
X131451011Y-118678985D01*
X131451287Y-118902179D01*
X131312970Y-118902179D01*
X131312970Y-118696418D01*
X131312872Y-118620189D01*
X131312191Y-118564939D01*
X131310349Y-118526501D01*
X131306767Y-118500706D01*
X131300868Y-118483384D01*
X131292073Y-118470368D01*
X131279820Y-118457507D01*
X131236953Y-118429873D01*
X131190157Y-118424745D01*
X131145576Y-118442217D01*
X131130072Y-118455221D01*
X131118690Y-118467447D01*
X131110519Y-118480540D01*
X131105026Y-118498615D01*
X131101680Y-118525787D01*
X131099949Y-118566170D01*
X131099303Y-118623879D01*
X131099208Y-118694132D01*
X131099208Y-118902179D01*
X130960891Y-118902179D01*
X130960891Y-118298614D01*
X131030050Y-118298614D01*
X131071572Y-118300256D01*
X131092994Y-118306087D01*
X131099205Y-118317461D01*
X131099208Y-118317798D01*
X131102090Y-118328938D01*
X131114801Y-118327674D01*
X131140074Y-118315434D01*
X131197395Y-118297424D01*
X131262963Y-118295421D01*
X131325988Y-118309002D01*
G37*
X131325988Y-118309002D02*
X131357283Y-118323950D01*
X131387591Y-118345541D01*
X131410682Y-118370391D01*
X131427500Y-118402087D01*
X131438994Y-118444214D01*
X131446109Y-118500358D01*
X131449793Y-118574106D01*
X131450992Y-118669044D01*
X131451011Y-118678985D01*
X131451287Y-118902179D01*
X131312970Y-118902179D01*
X131312970Y-118696418D01*
X131312872Y-118620189D01*
X131312191Y-118564939D01*
X131310349Y-118526501D01*
X131306767Y-118500706D01*
X131300868Y-118483384D01*
X131292073Y-118470368D01*
X131279820Y-118457507D01*
X131236953Y-118429873D01*
X131190157Y-118424745D01*
X131145576Y-118442217D01*
X131130072Y-118455221D01*
X131118690Y-118467447D01*
X131110519Y-118480540D01*
X131105026Y-118498615D01*
X131101680Y-118525787D01*
X131099949Y-118566170D01*
X131099303Y-118623879D01*
X131099208Y-118694132D01*
X131099208Y-118902179D01*
X130960891Y-118902179D01*
X130960891Y-118298614D01*
X131030050Y-118298614D01*
X131071572Y-118300256D01*
X131092994Y-118306087D01*
X131099205Y-118317461D01*
X131099208Y-118317798D01*
X131102090Y-118328938D01*
X131114801Y-118327674D01*
X131140074Y-118315434D01*
X131197395Y-118297424D01*
X131262963Y-118295421D01*
X131325988Y-118309002D01*
G36*
X134757898Y-118296457D02*
G01*
X134790096Y-118304279D01*
X134851825Y-118332921D01*
X134904610Y-118376667D01*
X134941141Y-118429117D01*
X134946160Y-118440893D01*
X134953045Y-118471740D01*
X134957864Y-118517371D01*
X134959505Y-118563492D01*
X134959505Y-118650693D01*
X134777178Y-118650693D01*
X134701979Y-118650978D01*
X134649003Y-118652704D01*
X134615325Y-118657181D01*
X134598020Y-118665720D01*
X134594163Y-118679630D01*
X134600829Y-118700222D01*
X134612770Y-118724315D01*
X134646080Y-118764525D01*
X134692368Y-118784558D01*
X134748944Y-118783905D01*
X134813031Y-118762101D01*
X134868417Y-118735193D01*
X134914375Y-118771532D01*
X134960333Y-118807872D01*
X134917096Y-118847819D01*
X134859374Y-118885563D01*
X134788386Y-118908320D01*
X134712029Y-118914688D01*
X134638199Y-118903268D01*
X134626287Y-118899393D01*
X134561399Y-118865506D01*
X134513130Y-118814986D01*
X134480465Y-118746325D01*
X134462385Y-118658014D01*
X134462175Y-118656121D01*
X134460556Y-118559878D01*
X134467100Y-118525542D01*
X134594852Y-118525542D01*
X134606584Y-118530822D01*
X134638438Y-118534867D01*
X134685397Y-118537176D01*
X134715154Y-118537525D01*
X134770648Y-118537306D01*
X134805346Y-118535916D01*
X134823601Y-118532251D01*
X134829766Y-118525210D01*
X134828195Y-118513690D01*
X134826878Y-118509233D01*
X134804382Y-118467355D01*
X134769003Y-118433604D01*
X134737780Y-118418773D01*
X134696301Y-118419668D01*
X134654269Y-118438164D01*
X134619012Y-118468786D01*
X134597854Y-118506062D01*
X134594852Y-118525542D01*
X134467100Y-118525542D01*
X134476690Y-118475229D01*
X134508698Y-118404191D01*
X134554701Y-118348779D01*
X134612821Y-118311009D01*
X134681180Y-118292896D01*
X134757898Y-118296457D01*
G37*
X134757898Y-118296457D02*
X134790096Y-118304279D01*
X134851825Y-118332921D01*
X134904610Y-118376667D01*
X134941141Y-118429117D01*
X134946160Y-118440893D01*
X134953045Y-118471740D01*
X134957864Y-118517371D01*
X134959505Y-118563492D01*
X134959505Y-118650693D01*
X134777178Y-118650693D01*
X134701979Y-118650978D01*
X134649003Y-118652704D01*
X134615325Y-118657181D01*
X134598020Y-118665720D01*
X134594163Y-118679630D01*
X134600829Y-118700222D01*
X134612770Y-118724315D01*
X134646080Y-118764525D01*
X134692368Y-118784558D01*
X134748944Y-118783905D01*
X134813031Y-118762101D01*
X134868417Y-118735193D01*
X134914375Y-118771532D01*
X134960333Y-118807872D01*
X134917096Y-118847819D01*
X134859374Y-118885563D01*
X134788386Y-118908320D01*
X134712029Y-118914688D01*
X134638199Y-118903268D01*
X134626287Y-118899393D01*
X134561399Y-118865506D01*
X134513130Y-118814986D01*
X134480465Y-118746325D01*
X134462385Y-118658014D01*
X134462175Y-118656121D01*
X134460556Y-118559878D01*
X134467100Y-118525542D01*
X134594852Y-118525542D01*
X134606584Y-118530822D01*
X134638438Y-118534867D01*
X134685397Y-118537176D01*
X134715154Y-118537525D01*
X134770648Y-118537306D01*
X134805346Y-118535916D01*
X134823601Y-118532251D01*
X134829766Y-118525210D01*
X134828195Y-118513690D01*
X134826878Y-118509233D01*
X134804382Y-118467355D01*
X134769003Y-118433604D01*
X134737780Y-118418773D01*
X134696301Y-118419668D01*
X134654269Y-118438164D01*
X134619012Y-118468786D01*
X134597854Y-118506062D01*
X134594852Y-118525542D01*
X134467100Y-118525542D01*
X134476690Y-118475229D01*
X134508698Y-118404191D01*
X134554701Y-118348779D01*
X134612821Y-118311009D01*
X134681180Y-118292896D01*
X134757898Y-118296457D01*
G36*
X134297226Y-118303880D02*
G01*
X134370080Y-118334830D01*
X134393027Y-118349895D01*
X134422354Y-118373048D01*
X134440764Y-118391253D01*
X134443961Y-118397183D01*
X134434935Y-118410340D01*
X134411837Y-118432667D01*
X134393344Y-118448250D01*
X134342728Y-118488926D01*
X134302760Y-118455295D01*
X134271874Y-118433584D01*
X134241759Y-118426090D01*
X134207292Y-118427920D01*
X134152561Y-118441528D01*
X134114886Y-118469772D01*
X134091991Y-118515433D01*
X134081597Y-118581289D01*
X134081595Y-118581331D01*
X134082494Y-118654939D01*
X134096463Y-118708946D01*
X134124328Y-118745716D01*
X134143325Y-118758168D01*
X134193776Y-118773673D01*
X134247663Y-118773683D01*
X134294546Y-118758638D01*
X134305644Y-118751287D01*
X134333476Y-118732511D01*
X134355236Y-118729434D01*
X134378704Y-118743409D01*
X134404649Y-118768510D01*
X134445716Y-118810880D01*
X134400121Y-118848464D01*
X134329674Y-118890882D01*
X134250233Y-118911785D01*
X134167215Y-118910272D01*
X134112694Y-118896411D01*
X134048970Y-118862135D01*
X133998005Y-118808212D01*
X133974851Y-118770149D01*
X133956099Y-118715536D01*
X133946715Y-118646369D01*
X133946643Y-118571407D01*
X133955824Y-118499409D01*
X133974199Y-118439137D01*
X133977093Y-118432958D01*
X134019952Y-118372351D01*
X134077979Y-118328224D01*
X134146591Y-118301493D01*
X134221201Y-118293073D01*
X134297226Y-118303880D01*
G37*
X134297226Y-118303880D02*
X134370080Y-118334830D01*
X134393027Y-118349895D01*
X134422354Y-118373048D01*
X134440764Y-118391253D01*
X134443961Y-118397183D01*
X134434935Y-118410340D01*
X134411837Y-118432667D01*
X134393344Y-118448250D01*
X134342728Y-118488926D01*
X134302760Y-118455295D01*
X134271874Y-118433584D01*
X134241759Y-118426090D01*
X134207292Y-118427920D01*
X134152561Y-118441528D01*
X134114886Y-118469772D01*
X134091991Y-118515433D01*
X134081597Y-118581289D01*
X134081595Y-118581331D01*
X134082494Y-118654939D01*
X134096463Y-118708946D01*
X134124328Y-118745716D01*
X134143325Y-118758168D01*
X134193776Y-118773673D01*
X134247663Y-118773683D01*
X134294546Y-118758638D01*
X134305644Y-118751287D01*
X134333476Y-118732511D01*
X134355236Y-118729434D01*
X134378704Y-118743409D01*
X134404649Y-118768510D01*
X134445716Y-118810880D01*
X134400121Y-118848464D01*
X134329674Y-118890882D01*
X134250233Y-118911785D01*
X134167215Y-118910272D01*
X134112694Y-118896411D01*
X134048970Y-118862135D01*
X133998005Y-118808212D01*
X133974851Y-118770149D01*
X133956099Y-118715536D01*
X133946715Y-118646369D01*
X133946643Y-118571407D01*
X133955824Y-118499409D01*
X133974199Y-118439137D01*
X133977093Y-118432958D01*
X134019952Y-118372351D01*
X134077979Y-118328224D01*
X134146591Y-118301493D01*
X134221201Y-118293073D01*
X134297226Y-118303880D01*
G36*
X133073367Y-118494342D02*
G01*
X133074555Y-118586563D01*
X133078897Y-118656610D01*
X133087558Y-118707381D01*
X133101704Y-118741772D01*
X133122500Y-118762679D01*
X133151110Y-118773000D01*
X133186535Y-118775636D01*
X133223636Y-118772682D01*
X133251818Y-118761889D01*
X133272243Y-118740360D01*
X133286079Y-118705199D01*
X133294491Y-118653510D01*
X133298643Y-118582394D01*
X133299703Y-118494342D01*
X133299703Y-118298614D01*
X133438020Y-118298614D01*
X133438020Y-118902179D01*
X133368862Y-118902179D01*
X133327170Y-118900489D01*
X133305701Y-118894556D01*
X133299703Y-118883293D01*
X133296091Y-118873261D01*
X133281714Y-118875383D01*
X133252736Y-118889580D01*
X133186319Y-118911480D01*
X133115875Y-118909928D01*
X133048377Y-118886147D01*
X133016233Y-118867362D01*
X132991715Y-118847022D01*
X132973804Y-118821573D01*
X132961479Y-118787458D01*
X132953723Y-118741121D01*
X132949516Y-118679007D01*
X132947840Y-118597561D01*
X132947624Y-118534578D01*
X132947624Y-118298614D01*
X133073367Y-118298614D01*
X133073367Y-118494342D01*
G37*
X133073367Y-118494342D02*
X133074555Y-118586563D01*
X133078897Y-118656610D01*
X133087558Y-118707381D01*
X133101704Y-118741772D01*
X133122500Y-118762679D01*
X133151110Y-118773000D01*
X133186535Y-118775636D01*
X133223636Y-118772682D01*
X133251818Y-118761889D01*
X133272243Y-118740360D01*
X133286079Y-118705199D01*
X133294491Y-118653510D01*
X133298643Y-118582394D01*
X133299703Y-118494342D01*
X133299703Y-118298614D01*
X133438020Y-118298614D01*
X133438020Y-118902179D01*
X133368862Y-118902179D01*
X133327170Y-118900489D01*
X133305701Y-118894556D01*
X133299703Y-118883293D01*
X133296091Y-118873261D01*
X133281714Y-118875383D01*
X133252736Y-118889580D01*
X133186319Y-118911480D01*
X133115875Y-118909928D01*
X133048377Y-118886147D01*
X133016233Y-118867362D01*
X132991715Y-118847022D01*
X132973804Y-118821573D01*
X132961479Y-118787458D01*
X132953723Y-118741121D01*
X132949516Y-118679007D01*
X132947840Y-118597561D01*
X132947624Y-118534578D01*
X132947624Y-118298614D01*
X133073367Y-118298614D01*
X133073367Y-118494342D01*
G36*
X132690762Y-118306055D02*
G01*
X132754363Y-118340692D01*
X132804123Y-118395372D01*
X132827568Y-118439842D01*
X132837634Y-118479121D01*
X132844156Y-118535116D01*
X132846951Y-118599621D01*
X132845836Y-118664429D01*
X132840626Y-118721334D01*
X132834541Y-118751727D01*
X132814014Y-118793306D01*
X132778463Y-118837468D01*
X132735619Y-118876087D01*
X132693211Y-118901034D01*
X132692177Y-118901430D01*
X132639553Y-118912331D01*
X132577188Y-118912601D01*
X132517924Y-118902676D01*
X132495040Y-118894722D01*
X132436102Y-118861300D01*
X132393890Y-118817511D01*
X132366156Y-118759538D01*
X132350651Y-118683565D01*
X132347143Y-118643771D01*
X132347590Y-118593766D01*
X132482376Y-118593766D01*
X132486917Y-118666732D01*
X132499986Y-118722334D01*
X132520756Y-118757861D01*
X132535552Y-118768020D01*
X132573464Y-118775104D01*
X132618527Y-118773007D01*
X132657487Y-118762812D01*
X132667704Y-118757204D01*
X132694659Y-118724538D01*
X132712451Y-118674545D01*
X132720024Y-118613705D01*
X132716325Y-118548497D01*
X132708057Y-118509253D01*
X132684320Y-118463805D01*
X132646849Y-118435396D01*
X132601720Y-118425573D01*
X132555011Y-118435887D01*
X132519132Y-118461112D01*
X132500277Y-118481925D01*
X132489272Y-118502439D01*
X132484026Y-118530203D01*
X132482449Y-118572762D01*
X132482376Y-118593766D01*
X132347590Y-118593766D01*
X132348094Y-118537580D01*
X132365388Y-118450501D01*
X132399029Y-118382530D01*
X132449018Y-118333664D01*
X132515356Y-118303899D01*
X132529601Y-118300448D01*
X132615210Y-118292345D01*
X132690762Y-118306055D01*
G37*
X132690762Y-118306055D02*
X132754363Y-118340692D01*
X132804123Y-118395372D01*
X132827568Y-118439842D01*
X132837634Y-118479121D01*
X132844156Y-118535116D01*
X132846951Y-118599621D01*
X132845836Y-118664429D01*
X132840626Y-118721334D01*
X132834541Y-118751727D01*
X132814014Y-118793306D01*
X132778463Y-118837468D01*
X132735619Y-118876087D01*
X132693211Y-118901034D01*
X132692177Y-118901430D01*
X132639553Y-118912331D01*
X132577188Y-118912601D01*
X132517924Y-118902676D01*
X132495040Y-118894722D01*
X132436102Y-118861300D01*
X132393890Y-118817511D01*
X132366156Y-118759538D01*
X132350651Y-118683565D01*
X132347143Y-118643771D01*
X132347590Y-118593766D01*
X132482376Y-118593766D01*
X132486917Y-118666732D01*
X132499986Y-118722334D01*
X132520756Y-118757861D01*
X132535552Y-118768020D01*
X132573464Y-118775104D01*
X132618527Y-118773007D01*
X132657487Y-118762812D01*
X132667704Y-118757204D01*
X132694659Y-118724538D01*
X132712451Y-118674545D01*
X132720024Y-118613705D01*
X132716325Y-118548497D01*
X132708057Y-118509253D01*
X132684320Y-118463805D01*
X132646849Y-118435396D01*
X132601720Y-118425573D01*
X132555011Y-118435887D01*
X132519132Y-118461112D01*
X132500277Y-118481925D01*
X132489272Y-118502439D01*
X132484026Y-118530203D01*
X132482449Y-118572762D01*
X132482376Y-118593766D01*
X132347590Y-118593766D01*
X132348094Y-118537580D01*
X132365388Y-118450501D01*
X132399029Y-118382530D01*
X132449018Y-118333664D01*
X132515356Y-118303899D01*
X132529601Y-118300448D01*
X132615210Y-118292345D01*
X132690762Y-118306055D01*
G36*
X132094017Y-118296452D02*
G01*
X132141634Y-118305482D01*
X132191034Y-118324370D01*
X132196312Y-118326777D01*
X132233774Y-118346476D01*
X132259717Y-118364781D01*
X132268103Y-118376508D01*
X132260117Y-118395632D01*
X132240720Y-118423850D01*
X132232110Y-118434384D01*
X132196628Y-118475847D01*
X132150885Y-118448858D01*
X132107350Y-118430878D01*
X132057050Y-118421267D01*
X132008812Y-118420660D01*
X131971467Y-118429691D01*
X131962505Y-118435327D01*
X131945437Y-118461171D01*
X131943363Y-118490941D01*
X131956134Y-118514197D01*
X131963688Y-118518708D01*
X131986325Y-118524309D01*
X132026115Y-118530892D01*
X132075166Y-118537183D01*
X132084215Y-118538170D01*
X132162996Y-118551798D01*
X132220136Y-118574946D01*
X132258030Y-118609752D01*
X132279079Y-118658354D01*
X132285635Y-118717718D01*
X132276577Y-118785198D01*
X132247164Y-118838188D01*
X132197278Y-118876783D01*
X132126800Y-118901081D01*
X132048565Y-118910667D01*
X131984766Y-118910552D01*
X131933016Y-118901845D01*
X131897673Y-118889825D01*
X131853017Y-118868880D01*
X131811747Y-118844574D01*
X131797079Y-118833876D01*
X131759357Y-118803084D01*
X131804852Y-118757049D01*
X131850347Y-118711013D01*
X131902072Y-118745243D01*
X131953952Y-118770952D01*
X132009351Y-118784399D01*
X132062605Y-118785818D01*
X132108049Y-118775443D01*
X132140016Y-118753507D01*
X132150338Y-118734998D01*
X132148789Y-118705314D01*
X132123140Y-118682615D01*
X132073460Y-118666940D01*
X132019031Y-118659695D01*
X131935264Y-118645873D01*
X131873033Y-118619796D01*
X131831507Y-118580699D01*
X131809853Y-118527820D01*
X131806853Y-118465126D01*
X131821671Y-118399642D01*
X131855454Y-118350144D01*
X131908505Y-118316408D01*
X131981126Y-118298207D01*
X132034928Y-118294639D01*
X132094017Y-118296452D01*
G37*
X132094017Y-118296452D02*
X132141634Y-118305482D01*
X132191034Y-118324370D01*
X132196312Y-118326777D01*
X132233774Y-118346476D01*
X132259717Y-118364781D01*
X132268103Y-118376508D01*
X132260117Y-118395632D01*
X132240720Y-118423850D01*
X132232110Y-118434384D01*
X132196628Y-118475847D01*
X132150885Y-118448858D01*
X132107350Y-118430878D01*
X132057050Y-118421267D01*
X132008812Y-118420660D01*
X131971467Y-118429691D01*
X131962505Y-118435327D01*
X131945437Y-118461171D01*
X131943363Y-118490941D01*
X131956134Y-118514197D01*
X131963688Y-118518708D01*
X131986325Y-118524309D01*
X132026115Y-118530892D01*
X132075166Y-118537183D01*
X132084215Y-118538170D01*
X132162996Y-118551798D01*
X132220136Y-118574946D01*
X132258030Y-118609752D01*
X132279079Y-118658354D01*
X132285635Y-118717718D01*
X132276577Y-118785198D01*
X132247164Y-118838188D01*
X132197278Y-118876783D01*
X132126800Y-118901081D01*
X132048565Y-118910667D01*
X131984766Y-118910552D01*
X131933016Y-118901845D01*
X131897673Y-118889825D01*
X131853017Y-118868880D01*
X131811747Y-118844574D01*
X131797079Y-118833876D01*
X131759357Y-118803084D01*
X131804852Y-118757049D01*
X131850347Y-118711013D01*
X131902072Y-118745243D01*
X131953952Y-118770952D01*
X132009351Y-118784399D01*
X132062605Y-118785818D01*
X132108049Y-118775443D01*
X132140016Y-118753507D01*
X132150338Y-118734998D01*
X132148789Y-118705314D01*
X132123140Y-118682615D01*
X132073460Y-118666940D01*
X132019031Y-118659695D01*
X131935264Y-118645873D01*
X131873033Y-118619796D01*
X131831507Y-118580699D01*
X131809853Y-118527820D01*
X131806853Y-118465126D01*
X131821671Y-118399642D01*
X131855454Y-118350144D01*
X131908505Y-118316408D01*
X131981126Y-118298207D01*
X132034928Y-118294639D01*
X132094017Y-118296452D01*
G36*
X130723301Y-118312614D02*
G01*
X130735832Y-118318514D01*
X130779201Y-118350283D01*
X130820210Y-118396646D01*
X130850832Y-118447696D01*
X130859541Y-118471166D01*
X130867488Y-118513091D01*
X130872226Y-118563757D01*
X130872801Y-118584679D01*
X130872871Y-118650693D01*
X130492917Y-118650693D01*
X130501017Y-118685273D01*
X130520896Y-118726170D01*
X130555653Y-118761514D01*
X130597002Y-118784282D01*
X130623351Y-118789010D01*
X130659084Y-118783273D01*
X130701718Y-118768882D01*
X130716201Y-118762262D01*
X130769760Y-118735513D01*
X130815467Y-118770376D01*
X130841842Y-118793955D01*
X130855876Y-118813417D01*
X130856586Y-118819129D01*
X130844049Y-118832973D01*
X130816572Y-118854012D01*
X130791634Y-118870425D01*
X130724336Y-118899930D01*
X130648890Y-118913284D01*
X130574112Y-118909812D01*
X130514505Y-118891663D01*
X130453059Y-118852784D01*
X130409392Y-118801595D01*
X130382074Y-118735367D01*
X130369678Y-118651371D01*
X130368579Y-118612936D01*
X130372978Y-118524861D01*
X130373518Y-118522299D01*
X130499418Y-118522299D01*
X130502885Y-118530558D01*
X130517137Y-118535113D01*
X130546530Y-118537065D01*
X130595425Y-118537517D01*
X130614252Y-118537525D01*
X130671533Y-118536843D01*
X130707859Y-118534364D01*
X130727396Y-118529443D01*
X130734310Y-118521434D01*
X130734555Y-118518862D01*
X130726664Y-118498423D01*
X130706915Y-118469789D01*
X130698425Y-118459763D01*
X130666906Y-118431408D01*
X130634051Y-118420259D01*
X130616349Y-118419327D01*
X130568461Y-118430981D01*
X130528301Y-118462285D01*
X130502827Y-118507752D01*
X130502375Y-118509233D01*
X130499418Y-118522299D01*
X130373518Y-118522299D01*
X130387608Y-118455510D01*
X130413962Y-118400025D01*
X130446193Y-118360639D01*
X130505783Y-118317931D01*
X130575832Y-118295109D01*
X130650339Y-118293046D01*
X130723301Y-118312614D01*
G37*
X130723301Y-118312614D02*
X130735832Y-118318514D01*
X130779201Y-118350283D01*
X130820210Y-118396646D01*
X130850832Y-118447696D01*
X130859541Y-118471166D01*
X130867488Y-118513091D01*
X130872226Y-118563757D01*
X130872801Y-118584679D01*
X130872871Y-118650693D01*
X130492917Y-118650693D01*
X130501017Y-118685273D01*
X130520896Y-118726170D01*
X130555653Y-118761514D01*
X130597002Y-118784282D01*
X130623351Y-118789010D01*
X130659084Y-118783273D01*
X130701718Y-118768882D01*
X130716201Y-118762262D01*
X130769760Y-118735513D01*
X130815467Y-118770376D01*
X130841842Y-118793955D01*
X130855876Y-118813417D01*
X130856586Y-118819129D01*
X130844049Y-118832973D01*
X130816572Y-118854012D01*
X130791634Y-118870425D01*
X130724336Y-118899930D01*
X130648890Y-118913284D01*
X130574112Y-118909812D01*
X130514505Y-118891663D01*
X130453059Y-118852784D01*
X130409392Y-118801595D01*
X130382074Y-118735367D01*
X130369678Y-118651371D01*
X130368579Y-118612936D01*
X130372978Y-118524861D01*
X130373518Y-118522299D01*
X130499418Y-118522299D01*
X130502885Y-118530558D01*
X130517137Y-118535113D01*
X130546530Y-118537065D01*
X130595425Y-118537517D01*
X130614252Y-118537525D01*
X130671533Y-118536843D01*
X130707859Y-118534364D01*
X130727396Y-118529443D01*
X130734310Y-118521434D01*
X130734555Y-118518862D01*
X130726664Y-118498423D01*
X130706915Y-118469789D01*
X130698425Y-118459763D01*
X130666906Y-118431408D01*
X130634051Y-118420259D01*
X130616349Y-118419327D01*
X130568461Y-118430981D01*
X130528301Y-118462285D01*
X130502827Y-118507752D01*
X130502375Y-118509233D01*
X130499418Y-118522299D01*
X130373518Y-118522299D01*
X130387608Y-118455510D01*
X130413962Y-118400025D01*
X130446193Y-118360639D01*
X130505783Y-118317931D01*
X130575832Y-118295109D01*
X130650339Y-118293046D01*
X130723301Y-118312614D01*
G36*
X129541739Y-118305148D02*
G01*
X129607521Y-118334231D01*
X129657460Y-118382793D01*
X129691626Y-118450908D01*
X129710093Y-118538651D01*
X129711417Y-118552351D01*
X129712454Y-118648939D01*
X129699007Y-118733602D01*
X129671892Y-118802221D01*
X129657373Y-118824294D01*
X129606799Y-118871011D01*
X129542391Y-118901268D01*
X129470334Y-118913824D01*
X129396815Y-118907439D01*
X129340928Y-118887772D01*
X129292868Y-118854629D01*
X129253588Y-118811175D01*
X129252908Y-118810158D01*
X129236956Y-118783338D01*
X129226590Y-118756368D01*
X129220312Y-118722332D01*
X129216627Y-118674310D01*
X129215003Y-118634931D01*
X129214328Y-118599219D01*
X129340045Y-118599219D01*
X129341274Y-118634770D01*
X129345734Y-118682094D01*
X129353603Y-118712465D01*
X129367793Y-118734072D01*
X129381083Y-118746694D01*
X129428198Y-118773122D01*
X129477495Y-118776653D01*
X129523407Y-118757639D01*
X129546362Y-118736331D01*
X129562904Y-118714859D01*
X129572579Y-118694313D01*
X129576826Y-118667574D01*
X129577080Y-118627523D01*
X129575772Y-118590638D01*
X129572957Y-118537947D01*
X129568495Y-118503772D01*
X129560452Y-118481480D01*
X129546897Y-118464442D01*
X129536155Y-118454703D01*
X129491223Y-118429123D01*
X129442751Y-118427847D01*
X129402106Y-118442999D01*
X129367433Y-118474642D01*
X129346776Y-118526620D01*
X129340045Y-118599219D01*
X129214328Y-118599219D01*
X129213521Y-118556621D01*
X129216052Y-118498056D01*
X129223638Y-118454007D01*
X129237319Y-118419248D01*
X129258135Y-118388551D01*
X129265853Y-118379436D01*
X129314111Y-118334021D01*
X129365872Y-118307493D01*
X129429172Y-118296379D01*
X129460039Y-118295471D01*
X129541739Y-118305148D01*
G37*
X129541739Y-118305148D02*
X129607521Y-118334231D01*
X129657460Y-118382793D01*
X129691626Y-118450908D01*
X129710093Y-118538651D01*
X129711417Y-118552351D01*
X129712454Y-118648939D01*
X129699007Y-118733602D01*
X129671892Y-118802221D01*
X129657373Y-118824294D01*
X129606799Y-118871011D01*
X129542391Y-118901268D01*
X129470334Y-118913824D01*
X129396815Y-118907439D01*
X129340928Y-118887772D01*
X129292868Y-118854629D01*
X129253588Y-118811175D01*
X129252908Y-118810158D01*
X129236956Y-118783338D01*
X129226590Y-118756368D01*
X129220312Y-118722332D01*
X129216627Y-118674310D01*
X129215003Y-118634931D01*
X129214328Y-118599219D01*
X129340045Y-118599219D01*
X129341274Y-118634770D01*
X129345734Y-118682094D01*
X129353603Y-118712465D01*
X129367793Y-118734072D01*
X129381083Y-118746694D01*
X129428198Y-118773122D01*
X129477495Y-118776653D01*
X129523407Y-118757639D01*
X129546362Y-118736331D01*
X129562904Y-118714859D01*
X129572579Y-118694313D01*
X129576826Y-118667574D01*
X129577080Y-118627523D01*
X129575772Y-118590638D01*
X129572957Y-118537947D01*
X129568495Y-118503772D01*
X129560452Y-118481480D01*
X129546897Y-118464442D01*
X129536155Y-118454703D01*
X129491223Y-118429123D01*
X129442751Y-118427847D01*
X129402106Y-118442999D01*
X129367433Y-118474642D01*
X129346776Y-118526620D01*
X129340045Y-118599219D01*
X129214328Y-118599219D01*
X129213521Y-118556621D01*
X129216052Y-118498056D01*
X129223638Y-118454007D01*
X129237319Y-118419248D01*
X129258135Y-118388551D01*
X129265853Y-118379436D01*
X129314111Y-118334021D01*
X129365872Y-118307493D01*
X129429172Y-118296379D01*
X129460039Y-118295471D01*
X129541739Y-118305148D01*
G36*
X134112581Y-119244970D02*
G01*
X134172685Y-119260597D01*
X134223021Y-119292848D01*
X134247393Y-119316940D01*
X134287345Y-119373895D01*
X134310242Y-119439965D01*
X134318108Y-119521182D01*
X134318148Y-119527748D01*
X134318218Y-119593763D01*
X133938264Y-119593763D01*
X133946363Y-119628342D01*
X133960987Y-119659659D01*
X133986581Y-119692291D01*
X133991935Y-119697500D01*
X134037943Y-119725694D01*
X134090410Y-119730475D01*
X134150803Y-119711926D01*
X134161040Y-119706931D01*
X134192439Y-119691745D01*
X134213470Y-119683094D01*
X134217139Y-119682293D01*
X134229948Y-119690063D01*
X134254378Y-119709072D01*
X134266779Y-119719460D01*
X134292476Y-119743321D01*
X134300915Y-119759077D01*
X134295058Y-119773571D01*
X134291928Y-119777534D01*
X134270725Y-119794879D01*
X134235738Y-119815959D01*
X134211337Y-119828265D01*
X134142072Y-119849946D01*
X134065388Y-119856971D01*
X133992765Y-119848647D01*
X133972426Y-119842686D01*
X133909476Y-119808952D01*
X133862815Y-119757045D01*
X133832173Y-119686459D01*
X133817282Y-119596692D01*
X133815647Y-119549753D01*
X133820421Y-119481413D01*
X133940990Y-119481413D01*
X133952652Y-119486465D01*
X133983998Y-119490429D01*
X134029571Y-119492768D01*
X134060446Y-119493169D01*
X134115981Y-119492783D01*
X134151033Y-119490975D01*
X134170262Y-119486773D01*
X134178330Y-119479203D01*
X134179901Y-119468218D01*
X134169121Y-119434381D01*
X134141980Y-119400940D01*
X134106277Y-119375272D01*
X134070560Y-119364772D01*
X134022048Y-119374086D01*
X133980053Y-119401013D01*
X133950936Y-119439827D01*
X133940990Y-119481413D01*
X133820421Y-119481413D01*
X133822599Y-119450236D01*
X133844055Y-119370949D01*
X133880470Y-119311263D01*
X133932297Y-119270549D01*
X133999990Y-119248179D01*
X134036662Y-119243871D01*
X134112581Y-119244970D01*
G37*
X134112581Y-119244970D02*
X134172685Y-119260597D01*
X134223021Y-119292848D01*
X134247393Y-119316940D01*
X134287345Y-119373895D01*
X134310242Y-119439965D01*
X134318108Y-119521182D01*
X134318148Y-119527748D01*
X134318218Y-119593763D01*
X133938264Y-119593763D01*
X133946363Y-119628342D01*
X133960987Y-119659659D01*
X133986581Y-119692291D01*
X133991935Y-119697500D01*
X134037943Y-119725694D01*
X134090410Y-119730475D01*
X134150803Y-119711926D01*
X134161040Y-119706931D01*
X134192439Y-119691745D01*
X134213470Y-119683094D01*
X134217139Y-119682293D01*
X134229948Y-119690063D01*
X134254378Y-119709072D01*
X134266779Y-119719460D01*
X134292476Y-119743321D01*
X134300915Y-119759077D01*
X134295058Y-119773571D01*
X134291928Y-119777534D01*
X134270725Y-119794879D01*
X134235738Y-119815959D01*
X134211337Y-119828265D01*
X134142072Y-119849946D01*
X134065388Y-119856971D01*
X133992765Y-119848647D01*
X133972426Y-119842686D01*
X133909476Y-119808952D01*
X133862815Y-119757045D01*
X133832173Y-119686459D01*
X133817282Y-119596692D01*
X133815647Y-119549753D01*
X133820421Y-119481413D01*
X133940990Y-119481413D01*
X133952652Y-119486465D01*
X133983998Y-119490429D01*
X134029571Y-119492768D01*
X134060446Y-119493169D01*
X134115981Y-119492783D01*
X134151033Y-119490975D01*
X134170262Y-119486773D01*
X134178330Y-119479203D01*
X134179901Y-119468218D01*
X134169121Y-119434381D01*
X134141980Y-119400940D01*
X134106277Y-119375272D01*
X134070560Y-119364772D01*
X134022048Y-119374086D01*
X133980053Y-119401013D01*
X133950936Y-119439827D01*
X133940990Y-119481413D01*
X133820421Y-119481413D01*
X133822599Y-119450236D01*
X133844055Y-119370949D01*
X133880470Y-119311263D01*
X133932297Y-119270549D01*
X133999990Y-119248179D01*
X134036662Y-119243871D01*
X134112581Y-119244970D01*
G36*
X133715255Y-119241486D02*
G01*
X133763595Y-119251015D01*
X133791114Y-119265125D01*
X133820064Y-119288568D01*
X133778876Y-119340571D01*
X133753482Y-119372064D01*
X133736238Y-119387428D01*
X133719102Y-119389776D01*
X133694027Y-119382217D01*
X133682257Y-119377941D01*
X133634270Y-119371631D01*
X133590324Y-119385156D01*
X133558060Y-119415710D01*
X133552819Y-119425452D01*
X133547112Y-119451258D01*
X133542706Y-119498817D01*
X133539811Y-119564758D01*
X133538631Y-119645710D01*
X133538614Y-119657226D01*
X133538614Y-119857822D01*
X133400297Y-119857822D01*
X133400297Y-119241683D01*
X133469456Y-119241683D01*
X133509333Y-119242725D01*
X133530107Y-119247358D01*
X133537789Y-119257849D01*
X133538614Y-119267745D01*
X133538614Y-119293806D01*
X133571745Y-119267745D01*
X133609735Y-119249965D01*
X133660770Y-119241174D01*
X133715255Y-119241486D01*
G37*
X133715255Y-119241486D02*
X133763595Y-119251015D01*
X133791114Y-119265125D01*
X133820064Y-119288568D01*
X133778876Y-119340571D01*
X133753482Y-119372064D01*
X133736238Y-119387428D01*
X133719102Y-119389776D01*
X133694027Y-119382217D01*
X133682257Y-119377941D01*
X133634270Y-119371631D01*
X133590324Y-119385156D01*
X133558060Y-119415710D01*
X133552819Y-119425452D01*
X133547112Y-119451258D01*
X133542706Y-119498817D01*
X133539811Y-119564758D01*
X133538631Y-119645710D01*
X133538614Y-119657226D01*
X133538614Y-119857822D01*
X133400297Y-119857822D01*
X133400297Y-119241683D01*
X133469456Y-119241683D01*
X133509333Y-119242725D01*
X133530107Y-119247358D01*
X133537789Y-119257849D01*
X133538614Y-119267745D01*
X133538614Y-119293806D01*
X133571745Y-119267745D01*
X133609735Y-119249965D01*
X133660770Y-119241174D01*
X133715255Y-119241486D01*
G36*
X133118411Y-119245417D02*
G01*
X133171411Y-119258290D01*
X133186731Y-119265110D01*
X133216428Y-119282974D01*
X133239220Y-119303093D01*
X133256083Y-119328962D01*
X133267998Y-119364073D01*
X133275942Y-119411920D01*
X133280894Y-119475996D01*
X133283831Y-119559794D01*
X133284947Y-119615768D01*
X133289052Y-119857822D01*
X133218932Y-119857822D01*
X133176393Y-119856038D01*
X133154476Y-119849942D01*
X133148812Y-119839706D01*
X133145821Y-119828637D01*
X133132451Y-119830754D01*
X133114233Y-119839629D01*
X133068624Y-119853233D01*
X133010007Y-119856899D01*
X132948354Y-119850903D01*
X132893638Y-119835521D01*
X132888730Y-119833386D01*
X132838723Y-119798255D01*
X132805756Y-119749419D01*
X132790587Y-119692333D01*
X132791746Y-119671824D01*
X132915508Y-119671824D01*
X132926413Y-119699425D01*
X132958745Y-119719204D01*
X133010910Y-119729819D01*
X133038787Y-119731228D01*
X133085247Y-119727620D01*
X133116129Y-119713597D01*
X133123664Y-119706931D01*
X133144076Y-119670666D01*
X133148812Y-119637773D01*
X133148812Y-119593763D01*
X133087513Y-119593763D01*
X133016256Y-119597395D01*
X132966276Y-119608818D01*
X132934696Y-119628824D01*
X132927626Y-119637743D01*
X132915508Y-119671824D01*
X132791746Y-119671824D01*
X132793971Y-119632456D01*
X132816663Y-119575244D01*
X132847624Y-119536580D01*
X132866376Y-119519864D01*
X132884733Y-119508878D01*
X132908619Y-119502180D01*
X132943957Y-119498326D01*
X132996669Y-119495873D01*
X133017577Y-119495168D01*
X133148812Y-119490879D01*
X133148620Y-119451158D01*
X133143537Y-119409405D01*
X133125162Y-119384158D01*
X133088039Y-119368030D01*
X133087043Y-119367742D01*
X133034410Y-119361400D01*
X132982906Y-119369684D01*
X132944630Y-119389827D01*
X132929272Y-119399773D01*
X132912730Y-119398397D01*
X132887275Y-119383987D01*
X132872328Y-119373817D01*
X132843091Y-119352088D01*
X132824980Y-119335800D01*
X132822074Y-119331137D01*
X132834040Y-119307005D01*
X132869396Y-119278185D01*
X132884753Y-119268461D01*
X132928901Y-119251714D01*
X132988398Y-119242227D01*
X133054487Y-119240095D01*
X133118411Y-119245417D01*
G37*
X133118411Y-119245417D02*
X133171411Y-119258290D01*
X133186731Y-119265110D01*
X133216428Y-119282974D01*
X133239220Y-119303093D01*
X133256083Y-119328962D01*
X133267998Y-119364073D01*
X133275942Y-119411920D01*
X133280894Y-119475996D01*
X133283831Y-119559794D01*
X133284947Y-119615768D01*
X133289052Y-119857822D01*
X133218932Y-119857822D01*
X133176393Y-119856038D01*
X133154476Y-119849942D01*
X133148812Y-119839706D01*
X133145821Y-119828637D01*
X133132451Y-119830754D01*
X133114233Y-119839629D01*
X133068624Y-119853233D01*
X133010007Y-119856899D01*
X132948354Y-119850903D01*
X132893638Y-119835521D01*
X132888730Y-119833386D01*
X132838723Y-119798255D01*
X132805756Y-119749419D01*
X132790587Y-119692333D01*
X132791746Y-119671824D01*
X132915508Y-119671824D01*
X132926413Y-119699425D01*
X132958745Y-119719204D01*
X133010910Y-119729819D01*
X133038787Y-119731228D01*
X133085247Y-119727620D01*
X133116129Y-119713597D01*
X133123664Y-119706931D01*
X133144076Y-119670666D01*
X133148812Y-119637773D01*
X133148812Y-119593763D01*
X133087513Y-119593763D01*
X133016256Y-119597395D01*
X132966276Y-119608818D01*
X132934696Y-119628824D01*
X132927626Y-119637743D01*
X132915508Y-119671824D01*
X132791746Y-119671824D01*
X132793971Y-119632456D01*
X132816663Y-119575244D01*
X132847624Y-119536580D01*
X132866376Y-119519864D01*
X132884733Y-119508878D01*
X132908619Y-119502180D01*
X132943957Y-119498326D01*
X132996669Y-119495873D01*
X133017577Y-119495168D01*
X133148812Y-119490879D01*
X133148620Y-119451158D01*
X133143537Y-119409405D01*
X133125162Y-119384158D01*
X133088039Y-119368030D01*
X133087043Y-119367742D01*
X133034410Y-119361400D01*
X132982906Y-119369684D01*
X132944630Y-119389827D01*
X132929272Y-119399773D01*
X132912730Y-119398397D01*
X132887275Y-119383987D01*
X132872328Y-119373817D01*
X132843091Y-119352088D01*
X132824980Y-119335800D01*
X132822074Y-119331137D01*
X132834040Y-119307005D01*
X132869396Y-119278185D01*
X132884753Y-119268461D01*
X132928901Y-119251714D01*
X132988398Y-119242227D01*
X133054487Y-119240095D01*
X133118411Y-119245417D01*
G36*
X132361524Y-119244237D02*
G01*
X132411255Y-119247971D01*
X132541291Y-119637773D01*
X132561678Y-119568614D01*
X132573946Y-119525874D01*
X132590085Y-119468115D01*
X132607512Y-119404625D01*
X132616726Y-119370570D01*
X132651388Y-119241683D01*
X132794391Y-119241683D01*
X132751646Y-119376857D01*
X132730596Y-119443342D01*
X132705167Y-119523539D01*
X132678610Y-119607193D01*
X132654902Y-119681782D01*
X132600902Y-119851535D01*
X132542598Y-119855328D01*
X132484295Y-119859122D01*
X132452679Y-119754734D01*
X132433182Y-119689889D01*
X132411904Y-119618400D01*
X132393308Y-119555263D01*
X132392574Y-119552750D01*
X132378684Y-119509969D01*
X132366429Y-119480779D01*
X132357846Y-119469741D01*
X132356082Y-119471018D01*
X132349891Y-119488130D01*
X132338128Y-119524787D01*
X132322225Y-119576378D01*
X132303614Y-119638294D01*
X132293543Y-119672352D01*
X132239007Y-119857822D01*
X132123264Y-119857822D01*
X132030737Y-119565471D01*
X132004744Y-119483462D01*
X131981066Y-119408987D01*
X131960820Y-119345544D01*
X131945126Y-119296632D01*
X131935102Y-119265749D01*
X131932055Y-119256726D01*
X131934467Y-119247487D01*
X131953408Y-119243441D01*
X131992823Y-119243846D01*
X131998993Y-119244152D01*
X132072086Y-119247971D01*
X132119957Y-119424010D01*
X132137553Y-119488211D01*
X132153277Y-119544649D01*
X132165746Y-119588422D01*
X132173574Y-119614630D01*
X132175020Y-119618903D01*
X132181014Y-119613990D01*
X132193101Y-119588532D01*
X132209893Y-119545997D01*
X132230003Y-119489850D01*
X132247003Y-119439130D01*
X132311794Y-119240504D01*
X132361524Y-119244237D01*
G37*
X132361524Y-119244237D02*
X132411255Y-119247971D01*
X132541291Y-119637773D01*
X132561678Y-119568614D01*
X132573946Y-119525874D01*
X132590085Y-119468115D01*
X132607512Y-119404625D01*
X132616726Y-119370570D01*
X132651388Y-119241683D01*
X132794391Y-119241683D01*
X132751646Y-119376857D01*
X132730596Y-119443342D01*
X132705167Y-119523539D01*
X132678610Y-119607193D01*
X132654902Y-119681782D01*
X132600902Y-119851535D01*
X132542598Y-119855328D01*
X132484295Y-119859122D01*
X132452679Y-119754734D01*
X132433182Y-119689889D01*
X132411904Y-119618400D01*
X132393308Y-119555263D01*
X132392574Y-119552750D01*
X132378684Y-119509969D01*
X132366429Y-119480779D01*
X132357846Y-119469741D01*
X132356082Y-119471018D01*
X132349891Y-119488130D01*
X132338128Y-119524787D01*
X132322225Y-119576378D01*
X132303614Y-119638294D01*
X132293543Y-119672352D01*
X132239007Y-119857822D01*
X132123264Y-119857822D01*
X132030737Y-119565471D01*
X132004744Y-119483462D01*
X131981066Y-119408987D01*
X131960820Y-119345544D01*
X131945126Y-119296632D01*
X131935102Y-119265749D01*
X131932055Y-119256726D01*
X131934467Y-119247487D01*
X131953408Y-119243441D01*
X131992823Y-119243846D01*
X131998993Y-119244152D01*
X132072086Y-119247971D01*
X132119957Y-119424010D01*
X132137553Y-119488211D01*
X132153277Y-119544649D01*
X132165746Y-119588422D01*
X132173574Y-119614630D01*
X132175020Y-119618903D01*
X132181014Y-119613990D01*
X132193101Y-119588532D01*
X132209893Y-119545997D01*
X132230003Y-119489850D01*
X132247003Y-119439130D01*
X132311794Y-119240504D01*
X132361524Y-119244237D01*
G36*
X131878812Y-119857822D02*
G01*
X131809654Y-119857822D01*
X131769512Y-119856645D01*
X131748606Y-119851772D01*
X131741078Y-119841186D01*
X131740495Y-119834029D01*
X131739226Y-119819676D01*
X131731221Y-119816923D01*
X131710185Y-119825771D01*
X131693827Y-119834029D01*
X131631023Y-119853597D01*
X131562752Y-119854729D01*
X131507248Y-119840135D01*
X131455562Y-119804877D01*
X131416162Y-119752835D01*
X131394587Y-119691450D01*
X131394038Y-119688018D01*
X131390833Y-119650571D01*
X131389239Y-119596813D01*
X131389367Y-119556155D01*
X131526721Y-119556155D01*
X131529903Y-119610194D01*
X131537141Y-119654735D01*
X131546940Y-119679888D01*
X131584011Y-119714260D01*
X131628026Y-119726582D01*
X131673416Y-119716618D01*
X131712203Y-119686895D01*
X131726892Y-119666905D01*
X131735481Y-119643050D01*
X131739504Y-119608230D01*
X131740495Y-119555930D01*
X131738722Y-119504139D01*
X131734037Y-119458634D01*
X131727397Y-119428181D01*
X131726290Y-119425452D01*
X131699509Y-119393000D01*
X131660421Y-119375183D01*
X131616685Y-119372306D01*
X131575962Y-119384674D01*
X131545913Y-119412593D01*
X131542796Y-119418148D01*
X131533039Y-119452022D01*
X131527723Y-119500728D01*
X131526721Y-119556155D01*
X131389367Y-119556155D01*
X131389432Y-119535540D01*
X131390336Y-119502563D01*
X131396486Y-119420981D01*
X131409267Y-119359730D01*
X131430529Y-119314449D01*
X131462122Y-119280779D01*
X131492793Y-119261014D01*
X131535646Y-119247120D01*
X131588944Y-119242354D01*
X131643520Y-119246236D01*
X131690208Y-119258282D01*
X131714876Y-119272693D01*
X131740495Y-119295878D01*
X131740495Y-119002773D01*
X131878812Y-119002773D01*
X131878812Y-119857822D01*
G37*
X131878812Y-119857822D02*
X131809654Y-119857822D01*
X131769512Y-119856645D01*
X131748606Y-119851772D01*
X131741078Y-119841186D01*
X131740495Y-119834029D01*
X131739226Y-119819676D01*
X131731221Y-119816923D01*
X131710185Y-119825771D01*
X131693827Y-119834029D01*
X131631023Y-119853597D01*
X131562752Y-119854729D01*
X131507248Y-119840135D01*
X131455562Y-119804877D01*
X131416162Y-119752835D01*
X131394587Y-119691450D01*
X131394038Y-119688018D01*
X131390833Y-119650571D01*
X131389239Y-119596813D01*
X131389367Y-119556155D01*
X131526721Y-119556155D01*
X131529903Y-119610194D01*
X131537141Y-119654735D01*
X131546940Y-119679888D01*
X131584011Y-119714260D01*
X131628026Y-119726582D01*
X131673416Y-119716618D01*
X131712203Y-119686895D01*
X131726892Y-119666905D01*
X131735481Y-119643050D01*
X131739504Y-119608230D01*
X131740495Y-119555930D01*
X131738722Y-119504139D01*
X131734037Y-119458634D01*
X131727397Y-119428181D01*
X131726290Y-119425452D01*
X131699509Y-119393000D01*
X131660421Y-119375183D01*
X131616685Y-119372306D01*
X131575962Y-119384674D01*
X131545913Y-119412593D01*
X131542796Y-119418148D01*
X131533039Y-119452022D01*
X131527723Y-119500728D01*
X131526721Y-119556155D01*
X131389367Y-119556155D01*
X131389432Y-119535540D01*
X131390336Y-119502563D01*
X131396486Y-119420981D01*
X131409267Y-119359730D01*
X131430529Y-119314449D01*
X131462122Y-119280779D01*
X131492793Y-119261014D01*
X131535646Y-119247120D01*
X131588944Y-119242354D01*
X131643520Y-119246236D01*
X131690208Y-119258282D01*
X131714876Y-119272693D01*
X131740495Y-119295878D01*
X131740495Y-119002773D01*
X131878812Y-119002773D01*
X131878812Y-119857822D01*
G36*
X131086644Y-119243020D02*
G01*
X131105461Y-119248660D01*
X131111527Y-119261053D01*
X131111782Y-119266647D01*
X131112871Y-119282230D01*
X131120368Y-119284676D01*
X131140619Y-119273993D01*
X131152649Y-119266694D01*
X131190600Y-119251063D01*
X131235928Y-119243334D01*
X131283456Y-119242740D01*
X131328005Y-119248513D01*
X131364398Y-119259884D01*
X131387457Y-119276088D01*
X131392004Y-119296355D01*
X131389709Y-119301843D01*
X131372980Y-119324626D01*
X131347037Y-119352647D01*
X131342345Y-119357177D01*
X131317617Y-119378005D01*
X131296282Y-119384735D01*
X131266445Y-119380038D01*
X131254492Y-119376917D01*
X131217295Y-119369421D01*
X131191141Y-119372792D01*
X131169054Y-119384681D01*
X131148822Y-119400635D01*
X131133921Y-119420700D01*
X131123566Y-119448702D01*
X131116971Y-119488467D01*
X131113351Y-119543823D01*
X131111922Y-119618594D01*
X131111782Y-119663740D01*
X131111782Y-119857822D01*
X130986040Y-119857822D01*
X130986040Y-119241683D01*
X131048911Y-119241683D01*
X131086644Y-119243020D01*
G37*
X131086644Y-119243020D02*
X131105461Y-119248660D01*
X131111527Y-119261053D01*
X131111782Y-119266647D01*
X131112871Y-119282230D01*
X131120368Y-119284676D01*
X131140619Y-119273993D01*
X131152649Y-119266694D01*
X131190600Y-119251063D01*
X131235928Y-119243334D01*
X131283456Y-119242740D01*
X131328005Y-119248513D01*
X131364398Y-119259884D01*
X131387457Y-119276088D01*
X131392004Y-119296355D01*
X131389709Y-119301843D01*
X131372980Y-119324626D01*
X131347037Y-119352647D01*
X131342345Y-119357177D01*
X131317617Y-119378005D01*
X131296282Y-119384735D01*
X131266445Y-119380038D01*
X131254492Y-119376917D01*
X131217295Y-119369421D01*
X131191141Y-119372792D01*
X131169054Y-119384681D01*
X131148822Y-119400635D01*
X131133921Y-119420700D01*
X131123566Y-119448702D01*
X131116971Y-119488467D01*
X131113351Y-119543823D01*
X131111922Y-119618594D01*
X131111782Y-119663740D01*
X131111782Y-119857822D01*
X130986040Y-119857822D01*
X130986040Y-119241683D01*
X131048911Y-119241683D01*
X131086644Y-119243020D01*
G36*
X130695790Y-119246555D02*
G01*
X130754945Y-119262339D01*
X130799977Y-119290948D01*
X130831754Y-119328419D01*
X130841634Y-119344411D01*
X130848927Y-119361163D01*
X130854026Y-119382592D01*
X130857321Y-119412616D01*
X130859203Y-119455154D01*
X130860063Y-119514122D01*
X130860293Y-119593440D01*
X130860297Y-119614484D01*
X130860297Y-119857822D01*
X130799941Y-119857822D01*
X130761443Y-119855126D01*
X130732977Y-119848295D01*
X130725845Y-119844083D01*
X130706348Y-119836813D01*
X130686434Y-119844083D01*
X130653647Y-119853160D01*
X130606022Y-119856813D01*
X130553236Y-119855228D01*
X130504964Y-119848589D01*
X130476782Y-119840072D01*
X130422247Y-119805063D01*
X130388165Y-119756479D01*
X130372843Y-119691882D01*
X130372701Y-119690223D01*
X130374045Y-119661566D01*
X130495644Y-119661566D01*
X130506274Y-119694161D01*
X130523590Y-119712505D01*
X130558348Y-119726379D01*
X130604227Y-119731917D01*
X130651012Y-119729191D01*
X130688486Y-119718274D01*
X130698985Y-119711269D01*
X130717332Y-119678904D01*
X130721980Y-119642111D01*
X130721980Y-119593763D01*
X130652418Y-119593763D01*
X130586333Y-119598850D01*
X130536236Y-119613263D01*
X130505071Y-119635729D01*
X130495644Y-119661566D01*
X130374045Y-119661566D01*
X130376013Y-119619647D01*
X130399290Y-119563845D01*
X130443052Y-119521647D01*
X130449101Y-119517808D01*
X130475093Y-119505309D01*
X130507265Y-119497740D01*
X130552240Y-119494061D01*
X130605669Y-119493216D01*
X130721980Y-119493169D01*
X130721980Y-119444411D01*
X130717047Y-119406581D01*
X130704457Y-119381236D01*
X130702983Y-119379887D01*
X130674966Y-119368800D01*
X130632674Y-119364503D01*
X130585936Y-119366615D01*
X130544582Y-119374756D01*
X130520043Y-119386965D01*
X130506747Y-119396746D01*
X130492706Y-119398613D01*
X130473329Y-119390600D01*
X130444024Y-119370739D01*
X130400197Y-119337063D01*
X130396175Y-119333909D01*
X130398236Y-119322236D01*
X130415432Y-119302822D01*
X130441567Y-119281248D01*
X130470448Y-119263096D01*
X130479522Y-119258809D01*
X130512620Y-119250256D01*
X130561120Y-119244155D01*
X130615305Y-119241708D01*
X130617839Y-119241703D01*
X130695790Y-119246555D01*
G37*
X130695790Y-119246555D02*
X130754945Y-119262339D01*
X130799977Y-119290948D01*
X130831754Y-119328419D01*
X130841634Y-119344411D01*
X130848927Y-119361163D01*
X130854026Y-119382592D01*
X130857321Y-119412616D01*
X130859203Y-119455154D01*
X130860063Y-119514122D01*
X130860293Y-119593440D01*
X130860297Y-119614484D01*
X130860297Y-119857822D01*
X130799941Y-119857822D01*
X130761443Y-119855126D01*
X130732977Y-119848295D01*
X130725845Y-119844083D01*
X130706348Y-119836813D01*
X130686434Y-119844083D01*
X130653647Y-119853160D01*
X130606022Y-119856813D01*
X130553236Y-119855228D01*
X130504964Y-119848589D01*
X130476782Y-119840072D01*
X130422247Y-119805063D01*
X130388165Y-119756479D01*
X130372843Y-119691882D01*
X130372701Y-119690223D01*
X130374045Y-119661566D01*
X130495644Y-119661566D01*
X130506274Y-119694161D01*
X130523590Y-119712505D01*
X130558348Y-119726379D01*
X130604227Y-119731917D01*
X130651012Y-119729191D01*
X130688486Y-119718274D01*
X130698985Y-119711269D01*
X130717332Y-119678904D01*
X130721980Y-119642111D01*
X130721980Y-119593763D01*
X130652418Y-119593763D01*
X130586333Y-119598850D01*
X130536236Y-119613263D01*
X130505071Y-119635729D01*
X130495644Y-119661566D01*
X130374045Y-119661566D01*
X130376013Y-119619647D01*
X130399290Y-119563845D01*
X130443052Y-119521647D01*
X130449101Y-119517808D01*
X130475093Y-119505309D01*
X130507265Y-119497740D01*
X130552240Y-119494061D01*
X130605669Y-119493216D01*
X130721980Y-119493169D01*
X130721980Y-119444411D01*
X130717047Y-119406581D01*
X130704457Y-119381236D01*
X130702983Y-119379887D01*
X130674966Y-119368800D01*
X130632674Y-119364503D01*
X130585936Y-119366615D01*
X130544582Y-119374756D01*
X130520043Y-119386965D01*
X130506747Y-119396746D01*
X130492706Y-119398613D01*
X130473329Y-119390600D01*
X130444024Y-119370739D01*
X130400197Y-119337063D01*
X130396175Y-119333909D01*
X130398236Y-119322236D01*
X130415432Y-119302822D01*
X130441567Y-119281248D01*
X130470448Y-119263096D01*
X130479522Y-119258809D01*
X130512620Y-119250256D01*
X130561120Y-119244155D01*
X130615305Y-119241708D01*
X130617839Y-119241703D01*
X130695790Y-119246555D01*
G36*
X130171241Y-118309184D02*
G01*
X130197753Y-118322282D01*
X130230447Y-118345106D01*
X130254275Y-118369996D01*
X130270594Y-118401249D01*
X130280760Y-118443166D01*
X130286128Y-118500044D01*
X130288056Y-118576184D01*
X130288169Y-118608917D01*
X130287839Y-118680656D01*
X130286473Y-118731927D01*
X130283500Y-118767404D01*
X130278351Y-118791763D01*
X130270457Y-118809680D01*
X130262243Y-118821902D01*
X130209813Y-118873905D01*
X130148070Y-118905184D01*
X130081464Y-118914592D01*
X130014442Y-118900980D01*
X129993208Y-118891354D01*
X129942376Y-118864859D01*
X129942376Y-119280052D01*
X129979475Y-119260868D01*
X130028357Y-119246025D01*
X130088439Y-119242222D01*
X130148436Y-119249243D01*
X130193744Y-119265013D01*
X130231325Y-119295047D01*
X130263436Y-119338024D01*
X130265850Y-119342436D01*
X130276033Y-119363221D01*
X130283470Y-119384170D01*
X130288589Y-119409548D01*
X130291819Y-119443618D01*
X130293587Y-119490641D01*
X130294323Y-119554882D01*
X130294456Y-119627176D01*
X130294456Y-119857822D01*
X130156139Y-119857822D01*
X130156139Y-119432533D01*
X130117451Y-119399979D01*
X130077262Y-119373940D01*
X130039203Y-119369205D01*
X130000934Y-119381389D01*
X129980538Y-119393320D01*
X129965358Y-119410313D01*
X129954562Y-119435995D01*
X129947317Y-119473991D01*
X129942792Y-119527926D01*
X129940156Y-119601425D01*
X129939228Y-119650347D01*
X129936089Y-119851535D01*
X129870074Y-119855336D01*
X129804060Y-119859136D01*
X129804060Y-118610650D01*
X129942376Y-118610650D01*
X129945903Y-118680254D01*
X129957785Y-118728569D01*
X129979980Y-118758631D01*
X130014441Y-118773471D01*
X130049258Y-118776436D01*
X130088671Y-118773028D01*
X130114829Y-118759617D01*
X130131186Y-118741896D01*
X130144063Y-118722835D01*
X130151728Y-118701601D01*
X130155139Y-118671849D01*
X130155251Y-118627236D01*
X130154103Y-118589880D01*
X130151468Y-118533604D01*
X130147544Y-118496658D01*
X130140937Y-118473223D01*
X130130251Y-118457480D01*
X130120167Y-118448380D01*
X130078030Y-118428537D01*
X130028160Y-118425332D01*
X129999524Y-118432168D01*
X129971172Y-118456464D01*
X129952391Y-118503728D01*
X129943288Y-118573624D01*
X129942376Y-118610650D01*
X129804060Y-118610650D01*
X129804060Y-118298614D01*
X129873218Y-118298614D01*
X129914740Y-118300256D01*
X129936162Y-118306087D01*
X129942374Y-118317461D01*
X129942376Y-118317798D01*
X129945258Y-118328938D01*
X129957970Y-118327673D01*
X129983243Y-118315433D01*
X130042131Y-118296707D01*
X130108385Y-118294739D01*
X130171241Y-118309184D01*
G37*
X130171241Y-118309184D02*
X130197753Y-118322282D01*
X130230447Y-118345106D01*
X130254275Y-118369996D01*
X130270594Y-118401249D01*
X130280760Y-118443166D01*
X130286128Y-118500044D01*
X130288056Y-118576184D01*
X130288169Y-118608917D01*
X130287839Y-118680656D01*
X130286473Y-118731927D01*
X130283500Y-118767404D01*
X130278351Y-118791763D01*
X130270457Y-118809680D01*
X130262243Y-118821902D01*
X130209813Y-118873905D01*
X130148070Y-118905184D01*
X130081464Y-118914592D01*
X130014442Y-118900980D01*
X129993208Y-118891354D01*
X129942376Y-118864859D01*
X129942376Y-119280052D01*
X129979475Y-119260868D01*
X130028357Y-119246025D01*
X130088439Y-119242222D01*
X130148436Y-119249243D01*
X130193744Y-119265013D01*
X130231325Y-119295047D01*
X130263436Y-119338024D01*
X130265850Y-119342436D01*
X130276033Y-119363221D01*
X130283470Y-119384170D01*
X130288589Y-119409548D01*
X130291819Y-119443618D01*
X130293587Y-119490641D01*
X130294323Y-119554882D01*
X130294456Y-119627176D01*
X130294456Y-119857822D01*
X130156139Y-119857822D01*
X130156139Y-119432533D01*
X130117451Y-119399979D01*
X130077262Y-119373940D01*
X130039203Y-119369205D01*
X130000934Y-119381389D01*
X129980538Y-119393320D01*
X129965358Y-119410313D01*
X129954562Y-119435995D01*
X129947317Y-119473991D01*
X129942792Y-119527926D01*
X129940156Y-119601425D01*
X129939228Y-119650347D01*
X129936089Y-119851535D01*
X129870074Y-119855336D01*
X129804060Y-119859136D01*
X129804060Y-118610650D01*
X129942376Y-118610650D01*
X129945903Y-118680254D01*
X129957785Y-118728569D01*
X129979980Y-118758631D01*
X130014441Y-118773471D01*
X130049258Y-118776436D01*
X130088671Y-118773028D01*
X130114829Y-118759617D01*
X130131186Y-118741896D01*
X130144063Y-118722835D01*
X130151728Y-118701601D01*
X130155139Y-118671849D01*
X130155251Y-118627236D01*
X130154103Y-118589880D01*
X130151468Y-118533604D01*
X130147544Y-118496658D01*
X130140937Y-118473223D01*
X130130251Y-118457480D01*
X130120167Y-118448380D01*
X130078030Y-118428537D01*
X130028160Y-118425332D01*
X129999524Y-118432168D01*
X129971172Y-118456464D01*
X129952391Y-118503728D01*
X129943288Y-118573624D01*
X129942376Y-118610650D01*
X129804060Y-118610650D01*
X129804060Y-118298614D01*
X129873218Y-118298614D01*
X129914740Y-118300256D01*
X129936162Y-118306087D01*
X129942374Y-118317461D01*
X129942376Y-118317798D01*
X129945258Y-118328938D01*
X129957970Y-118327673D01*
X129983243Y-118315433D01*
X130042131Y-118296707D01*
X130108385Y-118294739D01*
X130171241Y-118309184D01*
D11*
G36*
X122668512Y-118483927D02*
G01*
X122817812Y-118513624D01*
X122981784Y-118581544D01*
X123129354Y-118680147D01*
X123254853Y-118805646D01*
X123353456Y-118953216D01*
X123421376Y-119117188D01*
X123456000Y-119291259D01*
X123456000Y-119468741D01*
X123421376Y-119642812D01*
X123353456Y-119806784D01*
X123254853Y-119954354D01*
X123129354Y-120079853D01*
X122981784Y-120178456D01*
X122817812Y-120246376D01*
X122668512Y-120276073D01*
X122643742Y-120281000D01*
X122466258Y-120281000D01*
X122441488Y-120276073D01*
X122292188Y-120246376D01*
X122128216Y-120178456D01*
X121980646Y-120079853D01*
X121855147Y-119954354D01*
X121756544Y-119806784D01*
X121688624Y-119642812D01*
X121654000Y-119468741D01*
X121654000Y-119291259D01*
X121688624Y-119117188D01*
X121756544Y-118953216D01*
X121855147Y-118805646D01*
X121980646Y-118680147D01*
X122128216Y-118581544D01*
X122292188Y-118513624D01*
X122441488Y-118483927D01*
X122466258Y-118479000D01*
X122643742Y-118479000D01*
X122668512Y-118483927D01*
G37*
G36*
X120916000Y-120281000D02*
G01*
X119114000Y-120281000D01*
X119114000Y-118479000D01*
X120916000Y-118479000D01*
X120916000Y-120281000D01*
G37*
G36*
X94093512Y-117213927D02*
G01*
X94242812Y-117243624D01*
X94406784Y-117311544D01*
X94554354Y-117410147D01*
X94679853Y-117535646D01*
X94778456Y-117683216D01*
X94846376Y-117847188D01*
X94881000Y-118021259D01*
X94881000Y-118198741D01*
X94846376Y-118372812D01*
X94778456Y-118536784D01*
X94679853Y-118684354D01*
X94554354Y-118809853D01*
X94406784Y-118908456D01*
X94242812Y-118976376D01*
X94093512Y-119006073D01*
X94068742Y-119011000D01*
X93891258Y-119011000D01*
X93866488Y-119006073D01*
X93717188Y-118976376D01*
X93553216Y-118908456D01*
X93405646Y-118809853D01*
X93280147Y-118684354D01*
X93181544Y-118536784D01*
X93113624Y-118372812D01*
X93079000Y-118198741D01*
X93079000Y-118021259D01*
X93113624Y-117847188D01*
X93181544Y-117683216D01*
X93280147Y-117535646D01*
X93405646Y-117410147D01*
X93553216Y-117311544D01*
X93717188Y-117243624D01*
X93866488Y-117213927D01*
X93891258Y-117209000D01*
X94068742Y-117209000D01*
X94093512Y-117213927D01*
G37*
G36*
X91553512Y-117213927D02*
G01*
X91702812Y-117243624D01*
X91866784Y-117311544D01*
X92014354Y-117410147D01*
X92139853Y-117535646D01*
X92238456Y-117683216D01*
X92306376Y-117847188D01*
X92341000Y-118021259D01*
X92341000Y-118198741D01*
X92306376Y-118372812D01*
X92238456Y-118536784D01*
X92139853Y-118684354D01*
X92014354Y-118809853D01*
X91866784Y-118908456D01*
X91702812Y-118976376D01*
X91553512Y-119006073D01*
X91528742Y-119011000D01*
X91351258Y-119011000D01*
X91326488Y-119006073D01*
X91177188Y-118976376D01*
X91013216Y-118908456D01*
X90865646Y-118809853D01*
X90740147Y-118684354D01*
X90641544Y-118536784D01*
X90573624Y-118372812D01*
X90539000Y-118198741D01*
X90539000Y-118021259D01*
X90573624Y-117847188D01*
X90641544Y-117683216D01*
X90740147Y-117535646D01*
X90865646Y-117410147D01*
X91013216Y-117311544D01*
X91177188Y-117243624D01*
X91326488Y-117213927D01*
X91351258Y-117209000D01*
X91528742Y-117209000D01*
X91553512Y-117213927D01*
G37*
G36*
X109333512Y-117213927D02*
G01*
X109482812Y-117243624D01*
X109646784Y-117311544D01*
X109794354Y-117410147D01*
X109919853Y-117535646D01*
X110018456Y-117683216D01*
X110086376Y-117847188D01*
X110121000Y-118021259D01*
X110121000Y-118198741D01*
X110086376Y-118372812D01*
X110018456Y-118536784D01*
X109919853Y-118684354D01*
X109794354Y-118809853D01*
X109646784Y-118908456D01*
X109482812Y-118976376D01*
X109333512Y-119006073D01*
X109308742Y-119011000D01*
X109131258Y-119011000D01*
X109106488Y-119006073D01*
X108957188Y-118976376D01*
X108793216Y-118908456D01*
X108645646Y-118809853D01*
X108520147Y-118684354D01*
X108421544Y-118536784D01*
X108353624Y-118372812D01*
X108319000Y-118198741D01*
X108319000Y-118021259D01*
X108353624Y-117847188D01*
X108421544Y-117683216D01*
X108520147Y-117535646D01*
X108645646Y-117410147D01*
X108793216Y-117311544D01*
X108957188Y-117243624D01*
X109106488Y-117213927D01*
X109131258Y-117209000D01*
X109308742Y-117209000D01*
X109333512Y-117213927D01*
G37*
G36*
X103136000Y-119011000D02*
G01*
X101334000Y-119011000D01*
X101334000Y-117209000D01*
X103136000Y-117209000D01*
X103136000Y-119011000D01*
G37*
G36*
X91553512Y-114673927D02*
G01*
X91702812Y-114703624D01*
X91866784Y-114771544D01*
X92014354Y-114870147D01*
X92139853Y-114995646D01*
X92238456Y-115143216D01*
X92306376Y-115307188D01*
X92341000Y-115481259D01*
X92341000Y-115658741D01*
X92306376Y-115832812D01*
X92238456Y-115996784D01*
X92139853Y-116144354D01*
X92014354Y-116269853D01*
X91866784Y-116368456D01*
X91702812Y-116436376D01*
X91553512Y-116466073D01*
X91528742Y-116471000D01*
X91351258Y-116471000D01*
X91326488Y-116466073D01*
X91177188Y-116436376D01*
X91013216Y-116368456D01*
X90865646Y-116269853D01*
X90740147Y-116144354D01*
X90641544Y-115996784D01*
X90573624Y-115832812D01*
X90539000Y-115658741D01*
X90539000Y-115481259D01*
X90573624Y-115307188D01*
X90641544Y-115143216D01*
X90740147Y-114995646D01*
X90865646Y-114870147D01*
X91013216Y-114771544D01*
X91177188Y-114703624D01*
X91326488Y-114673927D01*
X91351258Y-114669000D01*
X91528742Y-114669000D01*
X91553512Y-114673927D01*
G37*
G36*
X94093512Y-114673927D02*
G01*
X94242812Y-114703624D01*
X94406784Y-114771544D01*
X94554354Y-114870147D01*
X94679853Y-114995646D01*
X94778456Y-115143216D01*
X94846376Y-115307188D01*
X94881000Y-115481259D01*
X94881000Y-115658741D01*
X94846376Y-115832812D01*
X94778456Y-115996784D01*
X94679853Y-116144354D01*
X94554354Y-116269853D01*
X94406784Y-116368456D01*
X94242812Y-116436376D01*
X94093512Y-116466073D01*
X94068742Y-116471000D01*
X93891258Y-116471000D01*
X93866488Y-116466073D01*
X93717188Y-116436376D01*
X93553216Y-116368456D01*
X93405646Y-116269853D01*
X93280147Y-116144354D01*
X93181544Y-115996784D01*
X93113624Y-115832812D01*
X93079000Y-115658741D01*
X93079000Y-115481259D01*
X93113624Y-115307188D01*
X93181544Y-115143216D01*
X93280147Y-114995646D01*
X93405646Y-114870147D01*
X93553216Y-114771544D01*
X93717188Y-114703624D01*
X93866488Y-114673927D01*
X93891258Y-114669000D01*
X94068742Y-114669000D01*
X94093512Y-114673927D01*
G37*
G36*
X102348512Y-114673927D02*
G01*
X102497812Y-114703624D01*
X102661784Y-114771544D01*
X102809354Y-114870147D01*
X102934853Y-114995646D01*
X103033456Y-115143216D01*
X103101376Y-115307188D01*
X103136000Y-115481259D01*
X103136000Y-115658741D01*
X103101376Y-115832812D01*
X103033456Y-115996784D01*
X102934853Y-116144354D01*
X102809354Y-116269853D01*
X102661784Y-116368456D01*
X102497812Y-116436376D01*
X102348512Y-116466073D01*
X102323742Y-116471000D01*
X102146258Y-116471000D01*
X102121488Y-116466073D01*
X101972188Y-116436376D01*
X101808216Y-116368456D01*
X101660646Y-116269853D01*
X101535147Y-116144354D01*
X101436544Y-115996784D01*
X101368624Y-115832812D01*
X101334000Y-115658741D01*
X101334000Y-115481259D01*
X101368624Y-115307188D01*
X101436544Y-115143216D01*
X101535147Y-114995646D01*
X101660646Y-114870147D01*
X101808216Y-114771544D01*
X101972188Y-114703624D01*
X102121488Y-114673927D01*
X102146258Y-114669000D01*
X102323742Y-114669000D01*
X102348512Y-114673927D01*
G37*
G36*
X109333512Y-114673927D02*
G01*
X109482812Y-114703624D01*
X109646784Y-114771544D01*
X109794354Y-114870147D01*
X109919853Y-114995646D01*
X110018456Y-115143216D01*
X110086376Y-115307188D01*
X110121000Y-115481259D01*
X110121000Y-115658741D01*
X110086376Y-115832812D01*
X110018456Y-115996784D01*
X109919853Y-116144354D01*
X109794354Y-116269853D01*
X109646784Y-116368456D01*
X109482812Y-116436376D01*
X109333512Y-116466073D01*
X109308742Y-116471000D01*
X109131258Y-116471000D01*
X109106488Y-116466073D01*
X108957188Y-116436376D01*
X108793216Y-116368456D01*
X108645646Y-116269853D01*
X108520147Y-116144354D01*
X108421544Y-115996784D01*
X108353624Y-115832812D01*
X108319000Y-115658741D01*
X108319000Y-115481259D01*
X108353624Y-115307188D01*
X108421544Y-115143216D01*
X108520147Y-114995646D01*
X108645646Y-114870147D01*
X108793216Y-114771544D01*
X108957188Y-114703624D01*
X109106488Y-114673927D01*
X109131258Y-114669000D01*
X109308742Y-114669000D01*
X109333512Y-114673927D01*
G37*
G36*
X94093512Y-112133927D02*
G01*
X94242812Y-112163624D01*
X94406784Y-112231544D01*
X94554354Y-112330147D01*
X94679853Y-112455646D01*
X94778456Y-112603216D01*
X94846376Y-112767188D01*
X94881000Y-112941259D01*
X94881000Y-113118741D01*
X94846376Y-113292812D01*
X94778456Y-113456784D01*
X94679853Y-113604354D01*
X94554354Y-113729853D01*
X94406784Y-113828456D01*
X94242812Y-113896376D01*
X94093512Y-113926073D01*
X94068742Y-113931000D01*
X93891258Y-113931000D01*
X93866488Y-113926073D01*
X93717188Y-113896376D01*
X93553216Y-113828456D01*
X93405646Y-113729853D01*
X93280147Y-113604354D01*
X93181544Y-113456784D01*
X93113624Y-113292812D01*
X93079000Y-113118741D01*
X93079000Y-112941259D01*
X93113624Y-112767188D01*
X93181544Y-112603216D01*
X93280147Y-112455646D01*
X93405646Y-112330147D01*
X93553216Y-112231544D01*
X93717188Y-112163624D01*
X93866488Y-112133927D01*
X93891258Y-112129000D01*
X94068742Y-112129000D01*
X94093512Y-112133927D01*
G37*
G36*
X110121000Y-113931000D02*
G01*
X108319000Y-113931000D01*
X108319000Y-112129000D01*
X110121000Y-112129000D01*
X110121000Y-113931000D01*
G37*
G36*
X102348512Y-112133927D02*
G01*
X102497812Y-112163624D01*
X102661784Y-112231544D01*
X102809354Y-112330147D01*
X102934853Y-112455646D01*
X103033456Y-112603216D01*
X103101376Y-112767188D01*
X103136000Y-112941259D01*
X103136000Y-113118741D01*
X103101376Y-113292812D01*
X103033456Y-113456784D01*
X102934853Y-113604354D01*
X102809354Y-113729853D01*
X102661784Y-113828456D01*
X102497812Y-113896376D01*
X102348512Y-113926073D01*
X102323742Y-113931000D01*
X102146258Y-113931000D01*
X102121488Y-113926073D01*
X101972188Y-113896376D01*
X101808216Y-113828456D01*
X101660646Y-113729853D01*
X101535147Y-113604354D01*
X101436544Y-113456784D01*
X101368624Y-113292812D01*
X101334000Y-113118741D01*
X101334000Y-112941259D01*
X101368624Y-112767188D01*
X101436544Y-112603216D01*
X101535147Y-112455646D01*
X101660646Y-112330147D01*
X101808216Y-112231544D01*
X101972188Y-112163624D01*
X102121488Y-112133927D01*
X102146258Y-112129000D01*
X102323742Y-112129000D01*
X102348512Y-112133927D01*
G37*
G36*
X91553512Y-112133927D02*
G01*
X91702812Y-112163624D01*
X91866784Y-112231544D01*
X92014354Y-112330147D01*
X92139853Y-112455646D01*
X92238456Y-112603216D01*
X92306376Y-112767188D01*
X92341000Y-112941259D01*
X92341000Y-113118741D01*
X92306376Y-113292812D01*
X92238456Y-113456784D01*
X92139853Y-113604354D01*
X92014354Y-113729853D01*
X91866784Y-113828456D01*
X91702812Y-113896376D01*
X91553512Y-113926073D01*
X91528742Y-113931000D01*
X91351258Y-113931000D01*
X91326488Y-113926073D01*
X91177188Y-113896376D01*
X91013216Y-113828456D01*
X90865646Y-113729853D01*
X90740147Y-113604354D01*
X90641544Y-113456784D01*
X90573624Y-113292812D01*
X90539000Y-113118741D01*
X90539000Y-112941259D01*
X90573624Y-112767188D01*
X90641544Y-112603216D01*
X90740147Y-112455646D01*
X90865646Y-112330147D01*
X91013216Y-112231544D01*
X91177188Y-112163624D01*
X91326488Y-112133927D01*
X91351258Y-112129000D01*
X91528742Y-112129000D01*
X91553512Y-112133927D01*
G37*
G36*
X123469600Y-112674600D02*
G01*
X121640400Y-112674600D01*
X121640400Y-110845400D01*
X123469600Y-110845400D01*
X123469600Y-112674600D01*
G37*
G36*
X120281778Y-110880547D02*
G01*
X120448224Y-110949491D01*
X120598022Y-111049583D01*
X120725417Y-111176978D01*
X120825509Y-111326776D01*
X120894453Y-111493222D01*
X120929600Y-111669918D01*
X120929600Y-111850082D01*
X120894453Y-112026778D01*
X120825509Y-112193224D01*
X120725417Y-112343022D01*
X120598022Y-112470417D01*
X120448224Y-112570509D01*
X120281778Y-112639453D01*
X120105082Y-112674600D01*
X119924918Y-112674600D01*
X119748222Y-112639453D01*
X119581776Y-112570509D01*
X119431978Y-112470417D01*
X119304583Y-112343022D01*
X119204491Y-112193224D01*
X119135547Y-112026778D01*
X119100400Y-111850082D01*
X119100400Y-111669918D01*
X119135547Y-111493222D01*
X119204491Y-111326776D01*
X119304583Y-111176978D01*
X119431978Y-111049583D01*
X119581776Y-110949491D01*
X119748222Y-110880547D01*
X119924918Y-110845400D01*
X120105082Y-110845400D01*
X120281778Y-110880547D01*
G37*
G36*
X94093512Y-109593927D02*
G01*
X94242812Y-109623624D01*
X94406784Y-109691544D01*
X94554354Y-109790147D01*
X94679853Y-109915646D01*
X94778456Y-110063216D01*
X94846376Y-110227188D01*
X94881000Y-110401259D01*
X94881000Y-110578741D01*
X94846376Y-110752812D01*
X94778456Y-110916784D01*
X94679853Y-111064354D01*
X94554354Y-111189853D01*
X94406784Y-111288456D01*
X94242812Y-111356376D01*
X94093512Y-111386073D01*
X94068742Y-111391000D01*
X93891258Y-111391000D01*
X93866488Y-111386073D01*
X93717188Y-111356376D01*
X93553216Y-111288456D01*
X93405646Y-111189853D01*
X93280147Y-111064354D01*
X93181544Y-110916784D01*
X93113624Y-110752812D01*
X93079000Y-110578741D01*
X93079000Y-110401259D01*
X93113624Y-110227188D01*
X93181544Y-110063216D01*
X93280147Y-109915646D01*
X93405646Y-109790147D01*
X93553216Y-109691544D01*
X93717188Y-109623624D01*
X93866488Y-109593927D01*
X93891258Y-109589000D01*
X94068742Y-109589000D01*
X94093512Y-109593927D01*
G37*
G36*
X91553512Y-109593927D02*
G01*
X91702812Y-109623624D01*
X91866784Y-109691544D01*
X92014354Y-109790147D01*
X92139853Y-109915646D01*
X92238456Y-110063216D01*
X92306376Y-110227188D01*
X92341000Y-110401259D01*
X92341000Y-110578741D01*
X92306376Y-110752812D01*
X92238456Y-110916784D01*
X92139853Y-111064354D01*
X92014354Y-111189853D01*
X91866784Y-111288456D01*
X91702812Y-111356376D01*
X91553512Y-111386073D01*
X91528742Y-111391000D01*
X91351258Y-111391000D01*
X91326488Y-111386073D01*
X91177188Y-111356376D01*
X91013216Y-111288456D01*
X90865646Y-111189853D01*
X90740147Y-111064354D01*
X90641544Y-110916784D01*
X90573624Y-110752812D01*
X90539000Y-110578741D01*
X90539000Y-110401259D01*
X90573624Y-110227188D01*
X90641544Y-110063216D01*
X90740147Y-109915646D01*
X90865646Y-109790147D01*
X91013216Y-109691544D01*
X91177188Y-109623624D01*
X91326488Y-109593927D01*
X91351258Y-109589000D01*
X91528742Y-109589000D01*
X91553512Y-109593927D01*
G37*
G36*
X120281778Y-108340547D02*
G01*
X120448224Y-108409491D01*
X120598022Y-108509583D01*
X120725417Y-108636978D01*
X120825509Y-108786776D01*
X120894453Y-108953222D01*
X120929600Y-109129918D01*
X120929600Y-109310082D01*
X120894453Y-109486778D01*
X120825509Y-109653224D01*
X120725417Y-109803022D01*
X120598022Y-109930417D01*
X120448224Y-110030509D01*
X120281778Y-110099453D01*
X120105082Y-110134600D01*
X119924918Y-110134600D01*
X119748222Y-110099453D01*
X119581776Y-110030509D01*
X119431978Y-109930417D01*
X119304583Y-109803022D01*
X119204491Y-109653224D01*
X119135547Y-109486778D01*
X119100400Y-109310082D01*
X119100400Y-109129918D01*
X119135547Y-108953222D01*
X119204491Y-108786776D01*
X119304583Y-108636978D01*
X119431978Y-108509583D01*
X119581776Y-108409491D01*
X119748222Y-108340547D01*
X119924918Y-108305400D01*
X120105082Y-108305400D01*
X120281778Y-108340547D01*
G37*
G36*
X122821778Y-108340547D02*
G01*
X122988224Y-108409491D01*
X123138022Y-108509583D01*
X123265417Y-108636978D01*
X123365509Y-108786776D01*
X123434453Y-108953222D01*
X123469600Y-109129918D01*
X123469600Y-109310082D01*
X123434453Y-109486778D01*
X123365509Y-109653224D01*
X123265417Y-109803022D01*
X123138022Y-109930417D01*
X122988224Y-110030509D01*
X122821778Y-110099453D01*
X122645082Y-110134600D01*
X122464918Y-110134600D01*
X122288222Y-110099453D01*
X122121776Y-110030509D01*
X121971978Y-109930417D01*
X121844583Y-109803022D01*
X121744491Y-109653224D01*
X121675547Y-109486778D01*
X121640400Y-109310082D01*
X121640400Y-109129918D01*
X121675547Y-108953222D01*
X121744491Y-108786776D01*
X121844583Y-108636978D01*
X121971978Y-108509583D01*
X122121776Y-108409491D01*
X122288222Y-108340547D01*
X122464918Y-108305400D01*
X122645082Y-108305400D01*
X122821778Y-108340547D01*
G37*
G36*
X131381000Y-109641000D02*
G01*
X128879000Y-109641000D01*
X128879000Y-108799000D01*
X131381000Y-108799000D01*
X131381000Y-109641000D01*
G37*
G36*
X135281000Y-109641000D02*
G01*
X132779000Y-109641000D01*
X132779000Y-108799000D01*
X135281000Y-108799000D01*
X135281000Y-109641000D01*
G37*
G36*
X91553512Y-107053927D02*
G01*
X91702812Y-107083624D01*
X91866784Y-107151544D01*
X92014354Y-107250147D01*
X92139853Y-107375646D01*
X92238456Y-107523216D01*
X92306376Y-107687188D01*
X92341000Y-107861259D01*
X92341000Y-108038741D01*
X92306376Y-108212812D01*
X92238456Y-108376784D01*
X92139853Y-108524354D01*
X92014354Y-108649853D01*
X91866784Y-108748456D01*
X91702812Y-108816376D01*
X91553512Y-108846073D01*
X91528742Y-108851000D01*
X91351258Y-108851000D01*
X91326488Y-108846073D01*
X91177188Y-108816376D01*
X91013216Y-108748456D01*
X90865646Y-108649853D01*
X90740147Y-108524354D01*
X90641544Y-108376784D01*
X90573624Y-108212812D01*
X90539000Y-108038741D01*
X90539000Y-107861259D01*
X90573624Y-107687188D01*
X90641544Y-107523216D01*
X90740147Y-107375646D01*
X90865646Y-107250147D01*
X91013216Y-107151544D01*
X91177188Y-107083624D01*
X91326488Y-107053927D01*
X91351258Y-107049000D01*
X91528742Y-107049000D01*
X91553512Y-107053927D01*
G37*
G36*
X94093512Y-107053927D02*
G01*
X94242812Y-107083624D01*
X94406784Y-107151544D01*
X94554354Y-107250147D01*
X94679853Y-107375646D01*
X94778456Y-107523216D01*
X94846376Y-107687188D01*
X94881000Y-107861259D01*
X94881000Y-108038741D01*
X94846376Y-108212812D01*
X94778456Y-108376784D01*
X94679853Y-108524354D01*
X94554354Y-108649853D01*
X94406784Y-108748456D01*
X94242812Y-108816376D01*
X94093512Y-108846073D01*
X94068742Y-108851000D01*
X93891258Y-108851000D01*
X93866488Y-108846073D01*
X93717188Y-108816376D01*
X93553216Y-108748456D01*
X93405646Y-108649853D01*
X93280147Y-108524354D01*
X93181544Y-108376784D01*
X93113624Y-108212812D01*
X93079000Y-108038741D01*
X93079000Y-107861259D01*
X93113624Y-107687188D01*
X93181544Y-107523216D01*
X93280147Y-107375646D01*
X93405646Y-107250147D01*
X93553216Y-107151544D01*
X93717188Y-107083624D01*
X93866488Y-107053927D01*
X93891258Y-107049000D01*
X94068742Y-107049000D01*
X94093512Y-107053927D01*
G37*
G36*
X135281000Y-108371000D02*
G01*
X132779000Y-108371000D01*
X132779000Y-107529000D01*
X135281000Y-107529000D01*
X135281000Y-108371000D01*
G37*
G36*
X131381000Y-108371000D02*
G01*
X128879000Y-108371000D01*
X128879000Y-107529000D01*
X131381000Y-107529000D01*
X131381000Y-108371000D01*
G37*
G36*
X120281778Y-105800547D02*
G01*
X120448224Y-105869491D01*
X120598022Y-105969583D01*
X120725417Y-106096978D01*
X120825509Y-106246776D01*
X120894453Y-106413222D01*
X120929600Y-106589918D01*
X120929600Y-106770082D01*
X120894453Y-106946778D01*
X120825509Y-107113224D01*
X120725417Y-107263022D01*
X120598022Y-107390417D01*
X120448224Y-107490509D01*
X120281778Y-107559453D01*
X120105082Y-107594600D01*
X119924918Y-107594600D01*
X119748222Y-107559453D01*
X119581776Y-107490509D01*
X119431978Y-107390417D01*
X119304583Y-107263022D01*
X119204491Y-107113224D01*
X119135547Y-106946778D01*
X119100400Y-106770082D01*
X119100400Y-106589918D01*
X119135547Y-106413222D01*
X119204491Y-106246776D01*
X119304583Y-106096978D01*
X119431978Y-105969583D01*
X119581776Y-105869491D01*
X119748222Y-105800547D01*
X119924918Y-105765400D01*
X120105082Y-105765400D01*
X120281778Y-105800547D01*
G37*
G36*
X122821778Y-105800547D02*
G01*
X122988224Y-105869491D01*
X123138022Y-105969583D01*
X123265417Y-106096978D01*
X123365509Y-106246776D01*
X123434453Y-106413222D01*
X123469600Y-106589918D01*
X123469600Y-106770082D01*
X123434453Y-106946778D01*
X123365509Y-107113224D01*
X123265417Y-107263022D01*
X123138022Y-107390417D01*
X122988224Y-107490509D01*
X122821778Y-107559453D01*
X122645082Y-107594600D01*
X122464918Y-107594600D01*
X122288222Y-107559453D01*
X122121776Y-107490509D01*
X121971978Y-107390417D01*
X121844583Y-107263022D01*
X121744491Y-107113224D01*
X121675547Y-106946778D01*
X121640400Y-106770082D01*
X121640400Y-106589918D01*
X121675547Y-106413222D01*
X121744491Y-106246776D01*
X121844583Y-106096978D01*
X121971978Y-105969583D01*
X122121776Y-105869491D01*
X122288222Y-105800547D01*
X122464918Y-105765400D01*
X122645082Y-105765400D01*
X122821778Y-105800547D01*
G37*
G36*
X131381000Y-107101000D02*
G01*
X128879000Y-107101000D01*
X128879000Y-106259000D01*
X131381000Y-106259000D01*
X131381000Y-107101000D01*
G37*
G36*
X135281000Y-107101000D02*
G01*
X132779000Y-107101000D01*
X132779000Y-106259000D01*
X135281000Y-106259000D01*
X135281000Y-107101000D01*
G37*
G36*
X91553512Y-104513927D02*
G01*
X91702812Y-104543624D01*
X91866784Y-104611544D01*
X92014354Y-104710147D01*
X92139853Y-104835646D01*
X92238456Y-104983216D01*
X92306376Y-105147188D01*
X92341000Y-105321259D01*
X92341000Y-105498741D01*
X92306376Y-105672812D01*
X92238456Y-105836784D01*
X92139853Y-105984354D01*
X92014354Y-106109853D01*
X91866784Y-106208456D01*
X91702812Y-106276376D01*
X91553512Y-106306073D01*
X91528742Y-106311000D01*
X91351258Y-106311000D01*
X91326488Y-106306073D01*
X91177188Y-106276376D01*
X91013216Y-106208456D01*
X90865646Y-106109853D01*
X90740147Y-105984354D01*
X90641544Y-105836784D01*
X90573624Y-105672812D01*
X90539000Y-105498741D01*
X90539000Y-105321259D01*
X90573624Y-105147188D01*
X90641544Y-104983216D01*
X90740147Y-104835646D01*
X90865646Y-104710147D01*
X91013216Y-104611544D01*
X91177188Y-104543624D01*
X91326488Y-104513927D01*
X91351258Y-104509000D01*
X91528742Y-104509000D01*
X91553512Y-104513927D01*
G37*
G36*
X94093512Y-104513927D02*
G01*
X94242812Y-104543624D01*
X94406784Y-104611544D01*
X94554354Y-104710147D01*
X94679853Y-104835646D01*
X94778456Y-104983216D01*
X94846376Y-105147188D01*
X94881000Y-105321259D01*
X94881000Y-105498741D01*
X94846376Y-105672812D01*
X94778456Y-105836784D01*
X94679853Y-105984354D01*
X94554354Y-106109853D01*
X94406784Y-106208456D01*
X94242812Y-106276376D01*
X94093512Y-106306073D01*
X94068742Y-106311000D01*
X93891258Y-106311000D01*
X93866488Y-106306073D01*
X93717188Y-106276376D01*
X93553216Y-106208456D01*
X93405646Y-106109853D01*
X93280147Y-105984354D01*
X93181544Y-105836784D01*
X93113624Y-105672812D01*
X93079000Y-105498741D01*
X93079000Y-105321259D01*
X93113624Y-105147188D01*
X93181544Y-104983216D01*
X93280147Y-104835646D01*
X93405646Y-104710147D01*
X93553216Y-104611544D01*
X93717188Y-104543624D01*
X93866488Y-104513927D01*
X93891258Y-104509000D01*
X94068742Y-104509000D01*
X94093512Y-104513927D01*
G37*
G36*
X135281000Y-105831000D02*
G01*
X132779000Y-105831000D01*
X132779000Y-104989000D01*
X135281000Y-104989000D01*
X135281000Y-105831000D01*
G37*
G36*
X131381000Y-105831000D02*
G01*
X128879000Y-105831000D01*
X128879000Y-104989000D01*
X131381000Y-104989000D01*
X131381000Y-105831000D01*
G37*
G36*
X122821778Y-103260547D02*
G01*
X122988224Y-103329491D01*
X123138022Y-103429583D01*
X123265417Y-103556978D01*
X123365509Y-103706776D01*
X123434453Y-103873222D01*
X123469600Y-104049918D01*
X123469600Y-104230082D01*
X123434453Y-104406778D01*
X123365509Y-104573224D01*
X123265417Y-104723022D01*
X123138022Y-104850417D01*
X122988224Y-104950509D01*
X122821778Y-105019453D01*
X122645082Y-105054600D01*
X122464918Y-105054600D01*
X122288222Y-105019453D01*
X122121776Y-104950509D01*
X121971978Y-104850417D01*
X121844583Y-104723022D01*
X121744491Y-104573224D01*
X121675547Y-104406778D01*
X121640400Y-104230082D01*
X121640400Y-104049918D01*
X121675547Y-103873222D01*
X121744491Y-103706776D01*
X121844583Y-103556978D01*
X121971978Y-103429583D01*
X122121776Y-103329491D01*
X122288222Y-103260547D01*
X122464918Y-103225400D01*
X122645082Y-103225400D01*
X122821778Y-103260547D01*
G37*
G36*
X120281778Y-103260547D02*
G01*
X120448224Y-103329491D01*
X120598022Y-103429583D01*
X120725417Y-103556978D01*
X120825509Y-103706776D01*
X120894453Y-103873222D01*
X120929600Y-104049918D01*
X120929600Y-104230082D01*
X120894453Y-104406778D01*
X120825509Y-104573224D01*
X120725417Y-104723022D01*
X120598022Y-104850417D01*
X120448224Y-104950509D01*
X120281778Y-105019453D01*
X120105082Y-105054600D01*
X119924918Y-105054600D01*
X119748222Y-105019453D01*
X119581776Y-104950509D01*
X119431978Y-104850417D01*
X119304583Y-104723022D01*
X119204491Y-104573224D01*
X119135547Y-104406778D01*
X119100400Y-104230082D01*
X119100400Y-104049918D01*
X119135547Y-103873222D01*
X119204491Y-103706776D01*
X119304583Y-103556978D01*
X119431978Y-103429583D01*
X119581776Y-103329491D01*
X119748222Y-103260547D01*
X119924918Y-103225400D01*
X120105082Y-103225400D01*
X120281778Y-103260547D01*
G37*
G36*
X135281000Y-104561000D02*
G01*
X132779000Y-104561000D01*
X132779000Y-103719000D01*
X135281000Y-103719000D01*
X135281000Y-104561000D01*
G37*
G36*
X131381000Y-104561000D02*
G01*
X128879000Y-104561000D01*
X128879000Y-103719000D01*
X131381000Y-103719000D01*
X131381000Y-104561000D01*
G37*
G36*
X91553512Y-101973927D02*
G01*
X91702812Y-102003624D01*
X91866784Y-102071544D01*
X92014354Y-102170147D01*
X92139853Y-102295646D01*
X92238456Y-102443216D01*
X92306376Y-102607188D01*
X92341000Y-102781259D01*
X92341000Y-102958741D01*
X92306376Y-103132812D01*
X92238456Y-103296784D01*
X92139853Y-103444354D01*
X92014354Y-103569853D01*
X91866784Y-103668456D01*
X91702812Y-103736376D01*
X91553512Y-103766073D01*
X91528742Y-103771000D01*
X91351258Y-103771000D01*
X91326488Y-103766073D01*
X91177188Y-103736376D01*
X91013216Y-103668456D01*
X90865646Y-103569853D01*
X90740147Y-103444354D01*
X90641544Y-103296784D01*
X90573624Y-103132812D01*
X90539000Y-102958741D01*
X90539000Y-102781259D01*
X90573624Y-102607188D01*
X90641544Y-102443216D01*
X90740147Y-102295646D01*
X90865646Y-102170147D01*
X91013216Y-102071544D01*
X91177188Y-102003624D01*
X91326488Y-101973927D01*
X91351258Y-101969000D01*
X91528742Y-101969000D01*
X91553512Y-101973927D01*
G37*
G36*
X94093512Y-101973927D02*
G01*
X94242812Y-102003624D01*
X94406784Y-102071544D01*
X94554354Y-102170147D01*
X94679853Y-102295646D01*
X94778456Y-102443216D01*
X94846376Y-102607188D01*
X94881000Y-102781259D01*
X94881000Y-102958741D01*
X94846376Y-103132812D01*
X94778456Y-103296784D01*
X94679853Y-103444354D01*
X94554354Y-103569853D01*
X94406784Y-103668456D01*
X94242812Y-103736376D01*
X94093512Y-103766073D01*
X94068742Y-103771000D01*
X93891258Y-103771000D01*
X93866488Y-103766073D01*
X93717188Y-103736376D01*
X93553216Y-103668456D01*
X93405646Y-103569853D01*
X93280147Y-103444354D01*
X93181544Y-103296784D01*
X93113624Y-103132812D01*
X93079000Y-102958741D01*
X93079000Y-102781259D01*
X93113624Y-102607188D01*
X93181544Y-102443216D01*
X93280147Y-102295646D01*
X93405646Y-102170147D01*
X93553216Y-102071544D01*
X93717188Y-102003624D01*
X93866488Y-101973927D01*
X93891258Y-101969000D01*
X94068742Y-101969000D01*
X94093512Y-101973927D01*
G37*
G36*
X106946000Y-103771000D02*
G01*
X105144000Y-103771000D01*
X105144000Y-101969000D01*
X106946000Y-101969000D01*
X106946000Y-103771000D01*
G37*
G36*
X103136000Y-103771000D02*
G01*
X101334000Y-103771000D01*
X101334000Y-101969000D01*
X103136000Y-101969000D01*
X103136000Y-103771000D01*
G37*
G36*
X120281778Y-100720547D02*
G01*
X120448224Y-100789491D01*
X120598022Y-100889583D01*
X120725417Y-101016978D01*
X120825509Y-101166776D01*
X120894453Y-101333222D01*
X120929600Y-101509918D01*
X120929600Y-101690082D01*
X120894453Y-101866778D01*
X120825509Y-102033224D01*
X120725417Y-102183022D01*
X120598022Y-102310417D01*
X120448224Y-102410509D01*
X120281778Y-102479453D01*
X120105082Y-102514600D01*
X119924918Y-102514600D01*
X119748222Y-102479453D01*
X119581776Y-102410509D01*
X119431978Y-102310417D01*
X119304583Y-102183022D01*
X119204491Y-102033224D01*
X119135547Y-101866778D01*
X119100400Y-101690082D01*
X119100400Y-101509918D01*
X119135547Y-101333222D01*
X119204491Y-101166776D01*
X119304583Y-101016978D01*
X119431978Y-100889583D01*
X119581776Y-100789491D01*
X119748222Y-100720547D01*
X119924918Y-100685400D01*
X120105082Y-100685400D01*
X120281778Y-100720547D01*
G37*
G36*
X122821778Y-100720547D02*
G01*
X122988224Y-100789491D01*
X123138022Y-100889583D01*
X123265417Y-101016978D01*
X123365509Y-101166776D01*
X123434453Y-101333222D01*
X123469600Y-101509918D01*
X123469600Y-101690082D01*
X123434453Y-101866778D01*
X123365509Y-102033224D01*
X123265417Y-102183022D01*
X123138022Y-102310417D01*
X122988224Y-102410509D01*
X122821778Y-102479453D01*
X122645082Y-102514600D01*
X122464918Y-102514600D01*
X122288222Y-102479453D01*
X122121776Y-102410509D01*
X121971978Y-102310417D01*
X121844583Y-102183022D01*
X121744491Y-102033224D01*
X121675547Y-101866778D01*
X121640400Y-101690082D01*
X121640400Y-101509918D01*
X121675547Y-101333222D01*
X121744491Y-101166776D01*
X121844583Y-101016978D01*
X121971978Y-100889583D01*
X122121776Y-100789491D01*
X122288222Y-100720547D01*
X122464918Y-100685400D01*
X122645082Y-100685400D01*
X122821778Y-100720547D01*
G37*
G36*
X132186578Y-100175197D02*
G01*
X132239350Y-100185694D01*
X132338770Y-100226875D01*
X132428246Y-100286661D01*
X132504339Y-100362754D01*
X132564125Y-100452230D01*
X132605306Y-100551650D01*
X132626300Y-100657194D01*
X132626300Y-100764806D01*
X132605306Y-100870350D01*
X132564125Y-100969770D01*
X132504339Y-101059246D01*
X132428246Y-101135339D01*
X132338770Y-101195125D01*
X132239350Y-101236306D01*
X132186578Y-101246803D01*
X132133807Y-101257300D01*
X132026193Y-101257300D01*
X131973422Y-101246803D01*
X131920650Y-101236306D01*
X131821230Y-101195125D01*
X131731754Y-101135339D01*
X131655661Y-101059246D01*
X131595875Y-100969770D01*
X131554694Y-100870350D01*
X131533700Y-100764806D01*
X131533700Y-100657194D01*
X131554694Y-100551650D01*
X131595875Y-100452230D01*
X131655661Y-100362754D01*
X131731754Y-100286661D01*
X131821230Y-100226875D01*
X131920650Y-100185694D01*
X131973422Y-100175197D01*
X132026193Y-100164700D01*
X132133807Y-100164700D01*
X132186578Y-100175197D01*
G37*
G36*
X102348512Y-99433927D02*
G01*
X102497812Y-99463624D01*
X102661784Y-99531544D01*
X102809354Y-99630147D01*
X102934853Y-99755646D01*
X103033456Y-99903216D01*
X103101376Y-100067188D01*
X103136000Y-100241259D01*
X103136000Y-100418741D01*
X103101376Y-100592812D01*
X103033456Y-100756784D01*
X102934853Y-100904354D01*
X102809354Y-101029853D01*
X102661784Y-101128456D01*
X102497812Y-101196376D01*
X102348512Y-101226073D01*
X102323742Y-101231000D01*
X102146258Y-101231000D01*
X102121488Y-101226073D01*
X101972188Y-101196376D01*
X101808216Y-101128456D01*
X101660646Y-101029853D01*
X101535147Y-100904354D01*
X101436544Y-100756784D01*
X101368624Y-100592812D01*
X101334000Y-100418741D01*
X101334000Y-100241259D01*
X101368624Y-100067188D01*
X101436544Y-99903216D01*
X101535147Y-99755646D01*
X101660646Y-99630147D01*
X101808216Y-99531544D01*
X101972188Y-99463624D01*
X102121488Y-99433927D01*
X102146258Y-99429000D01*
X102323742Y-99429000D01*
X102348512Y-99433927D01*
G37*
G36*
X106158512Y-99433927D02*
G01*
X106307812Y-99463624D01*
X106471784Y-99531544D01*
X106619354Y-99630147D01*
X106744853Y-99755646D01*
X106843456Y-99903216D01*
X106911376Y-100067188D01*
X106946000Y-100241259D01*
X106946000Y-100418741D01*
X106911376Y-100592812D01*
X106843456Y-100756784D01*
X106744853Y-100904354D01*
X106619354Y-101029853D01*
X106471784Y-101128456D01*
X106307812Y-101196376D01*
X106158512Y-101226073D01*
X106133742Y-101231000D01*
X105956258Y-101231000D01*
X105931488Y-101226073D01*
X105782188Y-101196376D01*
X105618216Y-101128456D01*
X105470646Y-101029853D01*
X105345147Y-100904354D01*
X105246544Y-100756784D01*
X105178624Y-100592812D01*
X105144000Y-100418741D01*
X105144000Y-100241259D01*
X105178624Y-100067188D01*
X105246544Y-99903216D01*
X105345147Y-99755646D01*
X105470646Y-99630147D01*
X105618216Y-99531544D01*
X105782188Y-99463624D01*
X105931488Y-99433927D01*
X105956258Y-99429000D01*
X106133742Y-99429000D01*
X106158512Y-99433927D01*
G37*
G36*
X94093512Y-99433927D02*
G01*
X94242812Y-99463624D01*
X94406784Y-99531544D01*
X94554354Y-99630147D01*
X94679853Y-99755646D01*
X94778456Y-99903216D01*
X94846376Y-100067188D01*
X94881000Y-100241259D01*
X94881000Y-100418741D01*
X94846376Y-100592812D01*
X94778456Y-100756784D01*
X94679853Y-100904354D01*
X94554354Y-101029853D01*
X94406784Y-101128456D01*
X94242812Y-101196376D01*
X94093512Y-101226073D01*
X94068742Y-101231000D01*
X93891258Y-101231000D01*
X93866488Y-101226073D01*
X93717188Y-101196376D01*
X93553216Y-101128456D01*
X93405646Y-101029853D01*
X93280147Y-100904354D01*
X93181544Y-100756784D01*
X93113624Y-100592812D01*
X93079000Y-100418741D01*
X93079000Y-100241259D01*
X93113624Y-100067188D01*
X93181544Y-99903216D01*
X93280147Y-99755646D01*
X93405646Y-99630147D01*
X93553216Y-99531544D01*
X93717188Y-99463624D01*
X93866488Y-99433927D01*
X93891258Y-99429000D01*
X94068742Y-99429000D01*
X94093512Y-99433927D01*
G37*
G36*
X91553512Y-99433927D02*
G01*
X91702812Y-99463624D01*
X91866784Y-99531544D01*
X92014354Y-99630147D01*
X92139853Y-99755646D01*
X92238456Y-99903216D01*
X92306376Y-100067188D01*
X92341000Y-100241259D01*
X92341000Y-100418741D01*
X92306376Y-100592812D01*
X92238456Y-100756784D01*
X92139853Y-100904354D01*
X92014354Y-101029853D01*
X91866784Y-101128456D01*
X91702812Y-101196376D01*
X91553512Y-101226073D01*
X91528742Y-101231000D01*
X91351258Y-101231000D01*
X91326488Y-101226073D01*
X91177188Y-101196376D01*
X91013216Y-101128456D01*
X90865646Y-101029853D01*
X90740147Y-100904354D01*
X90641544Y-100756784D01*
X90573624Y-100592812D01*
X90539000Y-100418741D01*
X90539000Y-100241259D01*
X90573624Y-100067188D01*
X90641544Y-99903216D01*
X90740147Y-99755646D01*
X90865646Y-99630147D01*
X91013216Y-99531544D01*
X91177188Y-99463624D01*
X91326488Y-99433927D01*
X91351258Y-99429000D01*
X91528742Y-99429000D01*
X91553512Y-99433927D01*
G37*
G36*
X132844714Y-99013389D02*
G01*
X132925645Y-99046912D01*
X132998480Y-99095579D01*
X133060421Y-99157520D01*
X133060422Y-99157522D01*
X133109089Y-99230357D01*
X133142611Y-99311286D01*
X133159700Y-99397199D01*
X133159700Y-99484801D01*
X133142611Y-99570714D01*
X133117993Y-99630148D01*
X133109088Y-99651645D01*
X133060421Y-99724480D01*
X132998480Y-99786421D01*
X132925645Y-99835088D01*
X132925644Y-99835089D01*
X132925643Y-99835089D01*
X132844714Y-99868611D01*
X132758801Y-99885700D01*
X132671199Y-99885700D01*
X132585286Y-99868611D01*
X132504357Y-99835089D01*
X132504356Y-99835089D01*
X132504355Y-99835088D01*
X132431520Y-99786421D01*
X132369579Y-99724480D01*
X132320912Y-99651645D01*
X132312008Y-99630148D01*
X132287389Y-99570714D01*
X132270300Y-99484801D01*
X132270300Y-99397199D01*
X132287389Y-99311286D01*
X132320911Y-99230357D01*
X132369578Y-99157522D01*
X132369579Y-99157520D01*
X132431520Y-99095579D01*
X132504355Y-99046912D01*
X132585286Y-99013389D01*
X132671199Y-98996300D01*
X132758801Y-98996300D01*
X132844714Y-99013389D01*
G37*
G36*
X131574714Y-99013389D02*
G01*
X131655645Y-99046912D01*
X131728480Y-99095579D01*
X131790421Y-99157520D01*
X131790422Y-99157522D01*
X131839089Y-99230357D01*
X131872611Y-99311286D01*
X131889700Y-99397199D01*
X131889700Y-99484801D01*
X131872611Y-99570714D01*
X131847993Y-99630148D01*
X131839088Y-99651645D01*
X131790421Y-99724480D01*
X131728480Y-99786421D01*
X131655645Y-99835088D01*
X131655644Y-99835089D01*
X131655643Y-99835089D01*
X131574714Y-99868611D01*
X131488801Y-99885700D01*
X131401199Y-99885700D01*
X131315286Y-99868611D01*
X131234357Y-99835089D01*
X131234356Y-99835089D01*
X131234355Y-99835088D01*
X131161520Y-99786421D01*
X131099579Y-99724480D01*
X131050912Y-99651645D01*
X131042008Y-99630148D01*
X131017389Y-99570714D01*
X131000300Y-99484801D01*
X131000300Y-99397199D01*
X131017389Y-99311286D01*
X131050911Y-99230357D01*
X131099578Y-99157522D01*
X131099579Y-99157520D01*
X131161520Y-99095579D01*
X131234355Y-99046912D01*
X131315286Y-99013389D01*
X131401199Y-98996300D01*
X131488801Y-98996300D01*
X131574714Y-99013389D01*
G37*
G36*
X106158512Y-96893927D02*
G01*
X106307812Y-96923624D01*
X106471784Y-96991544D01*
X106619354Y-97090147D01*
X106744853Y-97215646D01*
X106843456Y-97363216D01*
X106911376Y-97527188D01*
X106941073Y-97676488D01*
X106946000Y-97701258D01*
X106946000Y-97878742D01*
X106941073Y-97903512D01*
X106911376Y-98052812D01*
X106843456Y-98216784D01*
X106744853Y-98364354D01*
X106619354Y-98489853D01*
X106471784Y-98588456D01*
X106307812Y-98656376D01*
X106158512Y-98686073D01*
X106133742Y-98691000D01*
X105956258Y-98691000D01*
X105931488Y-98686073D01*
X105782188Y-98656376D01*
X105618216Y-98588456D01*
X105470646Y-98489853D01*
X105345147Y-98364354D01*
X105246544Y-98216784D01*
X105178624Y-98052812D01*
X105148927Y-97903512D01*
X105144000Y-97878742D01*
X105144000Y-97701258D01*
X105148927Y-97676488D01*
X105178624Y-97527188D01*
X105246544Y-97363216D01*
X105345147Y-97215646D01*
X105470646Y-97090147D01*
X105618216Y-96991544D01*
X105782188Y-96923624D01*
X105931488Y-96893927D01*
X105956258Y-96889000D01*
X106133742Y-96889000D01*
X106158512Y-96893927D01*
G37*
G36*
X102348512Y-96893927D02*
G01*
X102497812Y-96923624D01*
X102661784Y-96991544D01*
X102809354Y-97090147D01*
X102934853Y-97215646D01*
X103033456Y-97363216D01*
X103101376Y-97527188D01*
X103131073Y-97676488D01*
X103136000Y-97701258D01*
X103136000Y-97878742D01*
X103131073Y-97903512D01*
X103101376Y-98052812D01*
X103033456Y-98216784D01*
X102934853Y-98364354D01*
X102809354Y-98489853D01*
X102661784Y-98588456D01*
X102497812Y-98656376D01*
X102348512Y-98686073D01*
X102323742Y-98691000D01*
X102146258Y-98691000D01*
X102121488Y-98686073D01*
X101972188Y-98656376D01*
X101808216Y-98588456D01*
X101660646Y-98489853D01*
X101535147Y-98364354D01*
X101436544Y-98216784D01*
X101368624Y-98052812D01*
X101338927Y-97903512D01*
X101334000Y-97878742D01*
X101334000Y-97701258D01*
X101338927Y-97676488D01*
X101368624Y-97527188D01*
X101436544Y-97363216D01*
X101535147Y-97215646D01*
X101660646Y-97090147D01*
X101808216Y-96991544D01*
X101972188Y-96923624D01*
X102121488Y-96893927D01*
X102146258Y-96889000D01*
X102323742Y-96889000D01*
X102348512Y-96893927D01*
G37*
G36*
X94093512Y-96893927D02*
G01*
X94242812Y-96923624D01*
X94406784Y-96991544D01*
X94554354Y-97090147D01*
X94679853Y-97215646D01*
X94778456Y-97363216D01*
X94846376Y-97527188D01*
X94876073Y-97676488D01*
X94881000Y-97701258D01*
X94881000Y-97878742D01*
X94876073Y-97903512D01*
X94846376Y-98052812D01*
X94778456Y-98216784D01*
X94679853Y-98364354D01*
X94554354Y-98489853D01*
X94406784Y-98588456D01*
X94242812Y-98656376D01*
X94093512Y-98686073D01*
X94068742Y-98691000D01*
X93891258Y-98691000D01*
X93866488Y-98686073D01*
X93717188Y-98656376D01*
X93553216Y-98588456D01*
X93405646Y-98489853D01*
X93280147Y-98364354D01*
X93181544Y-98216784D01*
X93113624Y-98052812D01*
X93083927Y-97903512D01*
X93079000Y-97878742D01*
X93079000Y-97701258D01*
X93083927Y-97676488D01*
X93113624Y-97527188D01*
X93181544Y-97363216D01*
X93280147Y-97215646D01*
X93405646Y-97090147D01*
X93553216Y-96991544D01*
X93717188Y-96923624D01*
X93866488Y-96893927D01*
X93891258Y-96889000D01*
X94068742Y-96889000D01*
X94093512Y-96893927D01*
G37*
G36*
X91553512Y-96893927D02*
G01*
X91702812Y-96923624D01*
X91866784Y-96991544D01*
X92014354Y-97090147D01*
X92139853Y-97215646D01*
X92238456Y-97363216D01*
X92306376Y-97527188D01*
X92336073Y-97676488D01*
X92341000Y-97701258D01*
X92341000Y-97878742D01*
X92336073Y-97903512D01*
X92306376Y-98052812D01*
X92238456Y-98216784D01*
X92139853Y-98364354D01*
X92014354Y-98489853D01*
X91866784Y-98588456D01*
X91702812Y-98656376D01*
X91553512Y-98686073D01*
X91528742Y-98691000D01*
X91351258Y-98691000D01*
X91326488Y-98686073D01*
X91177188Y-98656376D01*
X91013216Y-98588456D01*
X90865646Y-98489853D01*
X90740147Y-98364354D01*
X90641544Y-98216784D01*
X90573624Y-98052812D01*
X90543927Y-97903512D01*
X90539000Y-97878742D01*
X90539000Y-97701258D01*
X90543927Y-97676488D01*
X90573624Y-97527188D01*
X90641544Y-97363216D01*
X90740147Y-97215646D01*
X90865646Y-97090147D01*
X91013216Y-96991544D01*
X91177188Y-96923624D01*
X91326488Y-96893927D01*
X91351258Y-96889000D01*
X91528742Y-96889000D01*
X91553512Y-96893927D01*
G37*
G36*
X132844714Y-97743389D02*
G01*
X132925645Y-97776912D01*
X132998480Y-97825579D01*
X133060421Y-97887520D01*
X133060422Y-97887522D01*
X133109089Y-97960357D01*
X133142611Y-98041286D01*
X133159700Y-98127199D01*
X133159700Y-98214801D01*
X133142611Y-98300714D01*
X133109088Y-98381645D01*
X133060421Y-98454480D01*
X132998480Y-98516421D01*
X132925645Y-98565088D01*
X132925644Y-98565089D01*
X132925643Y-98565089D01*
X132844714Y-98598611D01*
X132758801Y-98615700D01*
X132671199Y-98615700D01*
X132585286Y-98598611D01*
X132504357Y-98565089D01*
X132504356Y-98565089D01*
X132504355Y-98565088D01*
X132431520Y-98516421D01*
X132369579Y-98454480D01*
X132320912Y-98381645D01*
X132287389Y-98300714D01*
X132270300Y-98214801D01*
X132270300Y-98127199D01*
X132287389Y-98041286D01*
X132320911Y-97960357D01*
X132369578Y-97887522D01*
X132369579Y-97887520D01*
X132431520Y-97825579D01*
X132504355Y-97776912D01*
X132585286Y-97743389D01*
X132671199Y-97726300D01*
X132758801Y-97726300D01*
X132844714Y-97743389D01*
G37*
G36*
X131574714Y-97743389D02*
G01*
X131655645Y-97776912D01*
X131728480Y-97825579D01*
X131790421Y-97887520D01*
X131790422Y-97887522D01*
X131839089Y-97960357D01*
X131872611Y-98041286D01*
X131889700Y-98127199D01*
X131889700Y-98214801D01*
X131872611Y-98300714D01*
X131839088Y-98381645D01*
X131790421Y-98454480D01*
X131728480Y-98516421D01*
X131655645Y-98565088D01*
X131655644Y-98565089D01*
X131655643Y-98565089D01*
X131574714Y-98598611D01*
X131488801Y-98615700D01*
X131401199Y-98615700D01*
X131315286Y-98598611D01*
X131234357Y-98565089D01*
X131234356Y-98565089D01*
X131234355Y-98565088D01*
X131161520Y-98516421D01*
X131099579Y-98454480D01*
X131050912Y-98381645D01*
X131017389Y-98300714D01*
X131000300Y-98214801D01*
X131000300Y-98127199D01*
X131017389Y-98041286D01*
X131050911Y-97960357D01*
X131099578Y-97887522D01*
X131099579Y-97887520D01*
X131161520Y-97825579D01*
X131234355Y-97776912D01*
X131315286Y-97743389D01*
X131401199Y-97726300D01*
X131488801Y-97726300D01*
X131574714Y-97743389D01*
G37*
G36*
X131574714Y-96473389D02*
G01*
X131655645Y-96506912D01*
X131728480Y-96555579D01*
X131790421Y-96617520D01*
X131790422Y-96617522D01*
X131839089Y-96690357D01*
X131872611Y-96771286D01*
X131889700Y-96857199D01*
X131889700Y-96944801D01*
X131872611Y-97030714D01*
X131847993Y-97090148D01*
X131839088Y-97111645D01*
X131790421Y-97184480D01*
X131728480Y-97246421D01*
X131655645Y-97295088D01*
X131655644Y-97295089D01*
X131655643Y-97295089D01*
X131574714Y-97328611D01*
X131488801Y-97345700D01*
X131401199Y-97345700D01*
X131315286Y-97328611D01*
X131234357Y-97295089D01*
X131234356Y-97295089D01*
X131234355Y-97295088D01*
X131161520Y-97246421D01*
X131099579Y-97184480D01*
X131050912Y-97111645D01*
X131042008Y-97090148D01*
X131017389Y-97030714D01*
X131000300Y-96944801D01*
X131000300Y-96857199D01*
X131017389Y-96771286D01*
X131050911Y-96690357D01*
X131099578Y-96617522D01*
X131099579Y-96617520D01*
X131161520Y-96555579D01*
X131234355Y-96506912D01*
X131315286Y-96473389D01*
X131401199Y-96456300D01*
X131488801Y-96456300D01*
X131574714Y-96473389D01*
G37*
G36*
X132844714Y-96473389D02*
G01*
X132925645Y-96506912D01*
X132998480Y-96555579D01*
X133060421Y-96617520D01*
X133060422Y-96617522D01*
X133109089Y-96690357D01*
X133142611Y-96771286D01*
X133159700Y-96857199D01*
X133159700Y-96944801D01*
X133142611Y-97030714D01*
X133117993Y-97090148D01*
X133109088Y-97111645D01*
X133060421Y-97184480D01*
X132998480Y-97246421D01*
X132925645Y-97295088D01*
X132925644Y-97295089D01*
X132925643Y-97295089D01*
X132844714Y-97328611D01*
X132758801Y-97345700D01*
X132671199Y-97345700D01*
X132585286Y-97328611D01*
X132504357Y-97295089D01*
X132504356Y-97295089D01*
X132504355Y-97295088D01*
X132431520Y-97246421D01*
X132369579Y-97184480D01*
X132320912Y-97111645D01*
X132312008Y-97090148D01*
X132287389Y-97030714D01*
X132270300Y-96944801D01*
X132270300Y-96857199D01*
X132287389Y-96771286D01*
X132320911Y-96690357D01*
X132369578Y-96617522D01*
X132369579Y-96617520D01*
X132431520Y-96555579D01*
X132504355Y-96506912D01*
X132585286Y-96473389D01*
X132671199Y-96456300D01*
X132758801Y-96456300D01*
X132844714Y-96473389D01*
G37*
G36*
X91553512Y-94353927D02*
G01*
X91702812Y-94383624D01*
X91866784Y-94451544D01*
X92014354Y-94550147D01*
X92139853Y-94675646D01*
X92238456Y-94823216D01*
X92306376Y-94987188D01*
X92336073Y-95136488D01*
X92341000Y-95161258D01*
X92341000Y-95338742D01*
X92336073Y-95363512D01*
X92306376Y-95512812D01*
X92238456Y-95676784D01*
X92139853Y-95824354D01*
X92014354Y-95949853D01*
X91866784Y-96048456D01*
X91702812Y-96116376D01*
X91553512Y-96146073D01*
X91528742Y-96151000D01*
X91351258Y-96151000D01*
X91326488Y-96146073D01*
X91177188Y-96116376D01*
X91013216Y-96048456D01*
X90865646Y-95949853D01*
X90740147Y-95824354D01*
X90641544Y-95676784D01*
X90573624Y-95512812D01*
X90543927Y-95363512D01*
X90539000Y-95338742D01*
X90539000Y-95161258D01*
X90543927Y-95136488D01*
X90573624Y-94987188D01*
X90641544Y-94823216D01*
X90740147Y-94675646D01*
X90865646Y-94550147D01*
X91013216Y-94451544D01*
X91177188Y-94383624D01*
X91326488Y-94353927D01*
X91351258Y-94349000D01*
X91528742Y-94349000D01*
X91553512Y-94353927D01*
G37*
G36*
X94881000Y-96151000D02*
G01*
X93079000Y-96151000D01*
X93079000Y-94349000D01*
X94881000Y-94349000D01*
X94881000Y-96151000D01*
G37*
G36*
X132844714Y-95203389D02*
G01*
X132925645Y-95236912D01*
X132998480Y-95285579D01*
X133060421Y-95347520D01*
X133060422Y-95347522D01*
X133109089Y-95420357D01*
X133142611Y-95501286D01*
X133159700Y-95587199D01*
X133159700Y-95674801D01*
X133142611Y-95760714D01*
X133109088Y-95841645D01*
X133060421Y-95914480D01*
X132998480Y-95976421D01*
X132925645Y-96025088D01*
X132925644Y-96025089D01*
X132925643Y-96025089D01*
X132844714Y-96058611D01*
X132758801Y-96075700D01*
X132671199Y-96075700D01*
X132585286Y-96058611D01*
X132504357Y-96025089D01*
X132504356Y-96025089D01*
X132504355Y-96025088D01*
X132431520Y-95976421D01*
X132369579Y-95914480D01*
X132320912Y-95841645D01*
X132287389Y-95760714D01*
X132270300Y-95674801D01*
X132270300Y-95587199D01*
X132287389Y-95501286D01*
X132320911Y-95420357D01*
X132369578Y-95347522D01*
X132369579Y-95347520D01*
X132431520Y-95285579D01*
X132504355Y-95236912D01*
X132585286Y-95203389D01*
X132671199Y-95186300D01*
X132758801Y-95186300D01*
X132844714Y-95203389D01*
G37*
G36*
X131574714Y-95203389D02*
G01*
X131655645Y-95236912D01*
X131728480Y-95285579D01*
X131790421Y-95347520D01*
X131790422Y-95347522D01*
X131839089Y-95420357D01*
X131872611Y-95501286D01*
X131889700Y-95587199D01*
X131889700Y-95674801D01*
X131872611Y-95760714D01*
X131839088Y-95841645D01*
X131790421Y-95914480D01*
X131728480Y-95976421D01*
X131655645Y-96025088D01*
X131655644Y-96025089D01*
X131655643Y-96025089D01*
X131574714Y-96058611D01*
X131488801Y-96075700D01*
X131401199Y-96075700D01*
X131315286Y-96058611D01*
X131234357Y-96025089D01*
X131234356Y-96025089D01*
X131234355Y-96025088D01*
X131161520Y-95976421D01*
X131099579Y-95914480D01*
X131050912Y-95841645D01*
X131017389Y-95760714D01*
X131000300Y-95674801D01*
X131000300Y-95587199D01*
X131017389Y-95501286D01*
X131050911Y-95420357D01*
X131099578Y-95347522D01*
X131099579Y-95347520D01*
X131161520Y-95285579D01*
X131234355Y-95236912D01*
X131315286Y-95203389D01*
X131401199Y-95186300D01*
X131488801Y-95186300D01*
X131574714Y-95203389D01*
G37*
G36*
X122668512Y-93083927D02*
G01*
X122817812Y-93113624D01*
X122981784Y-93181544D01*
X123129354Y-93280147D01*
X123254853Y-93405646D01*
X123353456Y-93553216D01*
X123421376Y-93717188D01*
X123451073Y-93866488D01*
X123456000Y-93891258D01*
X123456000Y-94068742D01*
X123451073Y-94093512D01*
X123421376Y-94242812D01*
X123353456Y-94406784D01*
X123254853Y-94554354D01*
X123129354Y-94679853D01*
X122981784Y-94778456D01*
X122817812Y-94846376D01*
X122668512Y-94876073D01*
X122643742Y-94881000D01*
X122466258Y-94881000D01*
X122441488Y-94876073D01*
X122292188Y-94846376D01*
X122128216Y-94778456D01*
X121980646Y-94679853D01*
X121855147Y-94554354D01*
X121756544Y-94406784D01*
X121688624Y-94242812D01*
X121658927Y-94093512D01*
X121654000Y-94068742D01*
X121654000Y-93891258D01*
X121658927Y-93866488D01*
X121688624Y-93717188D01*
X121756544Y-93553216D01*
X121855147Y-93405646D01*
X121980646Y-93280147D01*
X122128216Y-93181544D01*
X122292188Y-93113624D01*
X122441488Y-93083927D01*
X122466258Y-93079000D01*
X122643742Y-93079000D01*
X122668512Y-93083927D01*
G37*
G36*
X120916000Y-94881000D02*
G01*
X119114000Y-94881000D01*
X119114000Y-93079000D01*
X120916000Y-93079000D01*
X120916000Y-94881000D01*
G37*
G36*
X132844714Y-93933389D02*
G01*
X132925645Y-93966912D01*
X132998480Y-94015579D01*
X133060421Y-94077520D01*
X133060422Y-94077522D01*
X133109089Y-94150357D01*
X133142611Y-94231286D01*
X133159700Y-94317199D01*
X133159700Y-94404801D01*
X133142611Y-94490714D01*
X133117993Y-94550148D01*
X133109088Y-94571645D01*
X133060421Y-94644480D01*
X132998480Y-94706421D01*
X132925645Y-94755088D01*
X132925644Y-94755089D01*
X132925643Y-94755089D01*
X132844714Y-94788611D01*
X132758801Y-94805700D01*
X132671199Y-94805700D01*
X132585286Y-94788611D01*
X132504357Y-94755089D01*
X132504356Y-94755089D01*
X132504355Y-94755088D01*
X132431520Y-94706421D01*
X132369579Y-94644480D01*
X132320912Y-94571645D01*
X132312008Y-94550148D01*
X132287389Y-94490714D01*
X132270300Y-94404801D01*
X132270300Y-94317199D01*
X132287389Y-94231286D01*
X132320911Y-94150357D01*
X132369578Y-94077522D01*
X132369579Y-94077520D01*
X132431520Y-94015579D01*
X132504355Y-93966912D01*
X132585286Y-93933389D01*
X132671199Y-93916300D01*
X132758801Y-93916300D01*
X132844714Y-93933389D01*
G37*
G36*
X131574714Y-93933389D02*
G01*
X131655645Y-93966912D01*
X131728480Y-94015579D01*
X131790421Y-94077520D01*
X131790422Y-94077522D01*
X131839089Y-94150357D01*
X131872611Y-94231286D01*
X131889700Y-94317199D01*
X131889700Y-94404801D01*
X131872611Y-94490714D01*
X131847993Y-94550148D01*
X131839088Y-94571645D01*
X131790421Y-94644480D01*
X131728480Y-94706421D01*
X131655645Y-94755088D01*
X131655644Y-94755089D01*
X131655643Y-94755089D01*
X131574714Y-94788611D01*
X131488801Y-94805700D01*
X131401199Y-94805700D01*
X131315286Y-94788611D01*
X131234357Y-94755089D01*
X131234356Y-94755089D01*
X131234355Y-94755088D01*
X131161520Y-94706421D01*
X131099579Y-94644480D01*
X131050912Y-94571645D01*
X131042008Y-94550148D01*
X131017389Y-94490714D01*
X131000300Y-94404801D01*
X131000300Y-94317199D01*
X131017389Y-94231286D01*
X131050911Y-94150357D01*
X131099578Y-94077522D01*
X131099579Y-94077520D01*
X131161520Y-94015579D01*
X131234355Y-93966912D01*
X131315286Y-93933389D01*
X131401199Y-93916300D01*
X131488801Y-93916300D01*
X131574714Y-93933389D01*
G37*
G36*
X133202578Y-92555197D02*
G01*
X133255350Y-92565694D01*
X133354770Y-92606875D01*
X133444246Y-92666661D01*
X133520339Y-92742754D01*
X133580125Y-92832230D01*
X133621306Y-92931650D01*
X133642300Y-93037194D01*
X133642300Y-93144806D01*
X133621306Y-93250350D01*
X133580125Y-93349770D01*
X133520339Y-93439246D01*
X133444246Y-93515339D01*
X133354770Y-93575125D01*
X133255350Y-93616306D01*
X133202578Y-93626803D01*
X133149807Y-93637300D01*
X133042193Y-93637300D01*
X132989422Y-93626803D01*
X132936650Y-93616306D01*
X132837230Y-93575125D01*
X132747754Y-93515339D01*
X132671661Y-93439246D01*
X132611875Y-93349770D01*
X132570694Y-93250350D01*
X132549700Y-93144806D01*
X132549700Y-93037194D01*
X132570694Y-92931650D01*
X132611875Y-92832230D01*
X132671661Y-92742754D01*
X132747754Y-92666661D01*
X132837230Y-92606875D01*
X132936650Y-92565694D01*
X132989422Y-92555197D01*
X133042193Y-92544700D01*
X133149807Y-92544700D01*
X133202578Y-92555197D01*
G37*
G36*
X131170578Y-92555197D02*
G01*
X131223350Y-92565694D01*
X131322770Y-92606875D01*
X131412246Y-92666661D01*
X131488339Y-92742754D01*
X131548125Y-92832230D01*
X131589306Y-92931650D01*
X131610300Y-93037194D01*
X131610300Y-93144806D01*
X131589306Y-93250350D01*
X131548125Y-93349770D01*
X131488339Y-93439246D01*
X131412246Y-93515339D01*
X131322770Y-93575125D01*
X131223350Y-93616306D01*
X131170578Y-93626803D01*
X131117807Y-93637300D01*
X131010193Y-93637300D01*
X130957422Y-93626803D01*
X130904650Y-93616306D01*
X130805230Y-93575125D01*
X130715754Y-93515339D01*
X130639661Y-93439246D01*
X130579875Y-93349770D01*
X130538694Y-93250350D01*
X130517700Y-93144806D01*
X130517700Y-93037194D01*
X130538694Y-92931650D01*
X130579875Y-92832230D01*
X130639661Y-92742754D01*
X130715754Y-92666661D01*
X130805230Y-92606875D01*
X130904650Y-92565694D01*
X130957422Y-92555197D01*
X131010193Y-92544700D01*
X131117807Y-92544700D01*
X131170578Y-92555197D01*
G37*
M02*
