G04 #@! TF.GenerationSoftware,KiCad,Pcbnew,5.1.5-52549c5~84~ubuntu19.04.1*
G04 #@! TF.CreationDate,2019-12-10T10:59:35+01:00*
G04 #@! TF.ProjectId,jlink-tagConnect-adapter-v2,6a6c696e-6b2d-4746-9167-436f6e6e6563,rev?*
G04 #@! TF.SameCoordinates,Original*
G04 #@! TF.FileFunction,Soldermask,Bot*
G04 #@! TF.FilePolarity,Negative*
%FSLAX46Y46*%
G04 Gerber Fmt 4.6, Leading zero omitted, Abs format (unit mm)*
G04 Created by KiCad (PCBNEW 5.1.5-52549c5~84~ubuntu19.04.1) date 2019-12-10 10:59:35*
%MOMM*%
%LPD*%
G04 APERTURE LIST*
%ADD10C,0.100000*%
G04 APERTURE END LIST*
D10*
G36*
X122668512Y-118483927D02*
G01*
X122817812Y-118513624D01*
X122981784Y-118581544D01*
X123129354Y-118680147D01*
X123254853Y-118805646D01*
X123353456Y-118953216D01*
X123421376Y-119117188D01*
X123456000Y-119291259D01*
X123456000Y-119468741D01*
X123421376Y-119642812D01*
X123353456Y-119806784D01*
X123254853Y-119954354D01*
X123129354Y-120079853D01*
X122981784Y-120178456D01*
X122817812Y-120246376D01*
X122668512Y-120276073D01*
X122643742Y-120281000D01*
X122466258Y-120281000D01*
X122441488Y-120276073D01*
X122292188Y-120246376D01*
X122128216Y-120178456D01*
X121980646Y-120079853D01*
X121855147Y-119954354D01*
X121756544Y-119806784D01*
X121688624Y-119642812D01*
X121654000Y-119468741D01*
X121654000Y-119291259D01*
X121688624Y-119117188D01*
X121756544Y-118953216D01*
X121855147Y-118805646D01*
X121980646Y-118680147D01*
X122128216Y-118581544D01*
X122292188Y-118513624D01*
X122441488Y-118483927D01*
X122466258Y-118479000D01*
X122643742Y-118479000D01*
X122668512Y-118483927D01*
G37*
G36*
X120916000Y-120281000D02*
G01*
X119114000Y-120281000D01*
X119114000Y-118479000D01*
X120916000Y-118479000D01*
X120916000Y-120281000D01*
G37*
G36*
X94093512Y-117213927D02*
G01*
X94242812Y-117243624D01*
X94406784Y-117311544D01*
X94554354Y-117410147D01*
X94679853Y-117535646D01*
X94778456Y-117683216D01*
X94846376Y-117847188D01*
X94881000Y-118021259D01*
X94881000Y-118198741D01*
X94846376Y-118372812D01*
X94778456Y-118536784D01*
X94679853Y-118684354D01*
X94554354Y-118809853D01*
X94406784Y-118908456D01*
X94242812Y-118976376D01*
X94093512Y-119006073D01*
X94068742Y-119011000D01*
X93891258Y-119011000D01*
X93866488Y-119006073D01*
X93717188Y-118976376D01*
X93553216Y-118908456D01*
X93405646Y-118809853D01*
X93280147Y-118684354D01*
X93181544Y-118536784D01*
X93113624Y-118372812D01*
X93079000Y-118198741D01*
X93079000Y-118021259D01*
X93113624Y-117847188D01*
X93181544Y-117683216D01*
X93280147Y-117535646D01*
X93405646Y-117410147D01*
X93553216Y-117311544D01*
X93717188Y-117243624D01*
X93866488Y-117213927D01*
X93891258Y-117209000D01*
X94068742Y-117209000D01*
X94093512Y-117213927D01*
G37*
G36*
X91553512Y-117213927D02*
G01*
X91702812Y-117243624D01*
X91866784Y-117311544D01*
X92014354Y-117410147D01*
X92139853Y-117535646D01*
X92238456Y-117683216D01*
X92306376Y-117847188D01*
X92341000Y-118021259D01*
X92341000Y-118198741D01*
X92306376Y-118372812D01*
X92238456Y-118536784D01*
X92139853Y-118684354D01*
X92014354Y-118809853D01*
X91866784Y-118908456D01*
X91702812Y-118976376D01*
X91553512Y-119006073D01*
X91528742Y-119011000D01*
X91351258Y-119011000D01*
X91326488Y-119006073D01*
X91177188Y-118976376D01*
X91013216Y-118908456D01*
X90865646Y-118809853D01*
X90740147Y-118684354D01*
X90641544Y-118536784D01*
X90573624Y-118372812D01*
X90539000Y-118198741D01*
X90539000Y-118021259D01*
X90573624Y-117847188D01*
X90641544Y-117683216D01*
X90740147Y-117535646D01*
X90865646Y-117410147D01*
X91013216Y-117311544D01*
X91177188Y-117243624D01*
X91326488Y-117213927D01*
X91351258Y-117209000D01*
X91528742Y-117209000D01*
X91553512Y-117213927D01*
G37*
G36*
X103136000Y-119011000D02*
G01*
X101334000Y-119011000D01*
X101334000Y-117209000D01*
X103136000Y-117209000D01*
X103136000Y-119011000D01*
G37*
G36*
X109333512Y-117213927D02*
G01*
X109482812Y-117243624D01*
X109646784Y-117311544D01*
X109794354Y-117410147D01*
X109919853Y-117535646D01*
X110018456Y-117683216D01*
X110086376Y-117847188D01*
X110121000Y-118021259D01*
X110121000Y-118198741D01*
X110086376Y-118372812D01*
X110018456Y-118536784D01*
X109919853Y-118684354D01*
X109794354Y-118809853D01*
X109646784Y-118908456D01*
X109482812Y-118976376D01*
X109333512Y-119006073D01*
X109308742Y-119011000D01*
X109131258Y-119011000D01*
X109106488Y-119006073D01*
X108957188Y-118976376D01*
X108793216Y-118908456D01*
X108645646Y-118809853D01*
X108520147Y-118684354D01*
X108421544Y-118536784D01*
X108353624Y-118372812D01*
X108319000Y-118198741D01*
X108319000Y-118021259D01*
X108353624Y-117847188D01*
X108421544Y-117683216D01*
X108520147Y-117535646D01*
X108645646Y-117410147D01*
X108793216Y-117311544D01*
X108957188Y-117243624D01*
X109106488Y-117213927D01*
X109131258Y-117209000D01*
X109308742Y-117209000D01*
X109333512Y-117213927D01*
G37*
G36*
X91553512Y-114673927D02*
G01*
X91702812Y-114703624D01*
X91866784Y-114771544D01*
X92014354Y-114870147D01*
X92139853Y-114995646D01*
X92238456Y-115143216D01*
X92306376Y-115307188D01*
X92341000Y-115481259D01*
X92341000Y-115658741D01*
X92306376Y-115832812D01*
X92238456Y-115996784D01*
X92139853Y-116144354D01*
X92014354Y-116269853D01*
X91866784Y-116368456D01*
X91702812Y-116436376D01*
X91553512Y-116466073D01*
X91528742Y-116471000D01*
X91351258Y-116471000D01*
X91326488Y-116466073D01*
X91177188Y-116436376D01*
X91013216Y-116368456D01*
X90865646Y-116269853D01*
X90740147Y-116144354D01*
X90641544Y-115996784D01*
X90573624Y-115832812D01*
X90539000Y-115658741D01*
X90539000Y-115481259D01*
X90573624Y-115307188D01*
X90641544Y-115143216D01*
X90740147Y-114995646D01*
X90865646Y-114870147D01*
X91013216Y-114771544D01*
X91177188Y-114703624D01*
X91326488Y-114673927D01*
X91351258Y-114669000D01*
X91528742Y-114669000D01*
X91553512Y-114673927D01*
G37*
G36*
X94093512Y-114673927D02*
G01*
X94242812Y-114703624D01*
X94406784Y-114771544D01*
X94554354Y-114870147D01*
X94679853Y-114995646D01*
X94778456Y-115143216D01*
X94846376Y-115307188D01*
X94881000Y-115481259D01*
X94881000Y-115658741D01*
X94846376Y-115832812D01*
X94778456Y-115996784D01*
X94679853Y-116144354D01*
X94554354Y-116269853D01*
X94406784Y-116368456D01*
X94242812Y-116436376D01*
X94093512Y-116466073D01*
X94068742Y-116471000D01*
X93891258Y-116471000D01*
X93866488Y-116466073D01*
X93717188Y-116436376D01*
X93553216Y-116368456D01*
X93405646Y-116269853D01*
X93280147Y-116144354D01*
X93181544Y-115996784D01*
X93113624Y-115832812D01*
X93079000Y-115658741D01*
X93079000Y-115481259D01*
X93113624Y-115307188D01*
X93181544Y-115143216D01*
X93280147Y-114995646D01*
X93405646Y-114870147D01*
X93553216Y-114771544D01*
X93717188Y-114703624D01*
X93866488Y-114673927D01*
X93891258Y-114669000D01*
X94068742Y-114669000D01*
X94093512Y-114673927D01*
G37*
G36*
X102348512Y-114673927D02*
G01*
X102497812Y-114703624D01*
X102661784Y-114771544D01*
X102809354Y-114870147D01*
X102934853Y-114995646D01*
X103033456Y-115143216D01*
X103101376Y-115307188D01*
X103136000Y-115481259D01*
X103136000Y-115658741D01*
X103101376Y-115832812D01*
X103033456Y-115996784D01*
X102934853Y-116144354D01*
X102809354Y-116269853D01*
X102661784Y-116368456D01*
X102497812Y-116436376D01*
X102348512Y-116466073D01*
X102323742Y-116471000D01*
X102146258Y-116471000D01*
X102121488Y-116466073D01*
X101972188Y-116436376D01*
X101808216Y-116368456D01*
X101660646Y-116269853D01*
X101535147Y-116144354D01*
X101436544Y-115996784D01*
X101368624Y-115832812D01*
X101334000Y-115658741D01*
X101334000Y-115481259D01*
X101368624Y-115307188D01*
X101436544Y-115143216D01*
X101535147Y-114995646D01*
X101660646Y-114870147D01*
X101808216Y-114771544D01*
X101972188Y-114703624D01*
X102121488Y-114673927D01*
X102146258Y-114669000D01*
X102323742Y-114669000D01*
X102348512Y-114673927D01*
G37*
G36*
X109333512Y-114673927D02*
G01*
X109482812Y-114703624D01*
X109646784Y-114771544D01*
X109794354Y-114870147D01*
X109919853Y-114995646D01*
X110018456Y-115143216D01*
X110086376Y-115307188D01*
X110121000Y-115481259D01*
X110121000Y-115658741D01*
X110086376Y-115832812D01*
X110018456Y-115996784D01*
X109919853Y-116144354D01*
X109794354Y-116269853D01*
X109646784Y-116368456D01*
X109482812Y-116436376D01*
X109333512Y-116466073D01*
X109308742Y-116471000D01*
X109131258Y-116471000D01*
X109106488Y-116466073D01*
X108957188Y-116436376D01*
X108793216Y-116368456D01*
X108645646Y-116269853D01*
X108520147Y-116144354D01*
X108421544Y-115996784D01*
X108353624Y-115832812D01*
X108319000Y-115658741D01*
X108319000Y-115481259D01*
X108353624Y-115307188D01*
X108421544Y-115143216D01*
X108520147Y-114995646D01*
X108645646Y-114870147D01*
X108793216Y-114771544D01*
X108957188Y-114703624D01*
X109106488Y-114673927D01*
X109131258Y-114669000D01*
X109308742Y-114669000D01*
X109333512Y-114673927D01*
G37*
G36*
X106211000Y-116151000D02*
G01*
X104609000Y-116151000D01*
X104609000Y-112449000D01*
X106211000Y-112449000D01*
X106211000Y-116151000D01*
G37*
G36*
X99861000Y-116151000D02*
G01*
X98259000Y-116151000D01*
X98259000Y-112449000D01*
X99861000Y-112449000D01*
X99861000Y-116151000D01*
G37*
G36*
X110121000Y-113931000D02*
G01*
X108319000Y-113931000D01*
X108319000Y-112129000D01*
X110121000Y-112129000D01*
X110121000Y-113931000D01*
G37*
G36*
X102348512Y-112133927D02*
G01*
X102497812Y-112163624D01*
X102661784Y-112231544D01*
X102809354Y-112330147D01*
X102934853Y-112455646D01*
X103033456Y-112603216D01*
X103101376Y-112767188D01*
X103136000Y-112941259D01*
X103136000Y-113118741D01*
X103101376Y-113292812D01*
X103033456Y-113456784D01*
X102934853Y-113604354D01*
X102809354Y-113729853D01*
X102661784Y-113828456D01*
X102497812Y-113896376D01*
X102348512Y-113926073D01*
X102323742Y-113931000D01*
X102146258Y-113931000D01*
X102121488Y-113926073D01*
X101972188Y-113896376D01*
X101808216Y-113828456D01*
X101660646Y-113729853D01*
X101535147Y-113604354D01*
X101436544Y-113456784D01*
X101368624Y-113292812D01*
X101334000Y-113118741D01*
X101334000Y-112941259D01*
X101368624Y-112767188D01*
X101436544Y-112603216D01*
X101535147Y-112455646D01*
X101660646Y-112330147D01*
X101808216Y-112231544D01*
X101972188Y-112163624D01*
X102121488Y-112133927D01*
X102146258Y-112129000D01*
X102323742Y-112129000D01*
X102348512Y-112133927D01*
G37*
G36*
X91553512Y-112133927D02*
G01*
X91702812Y-112163624D01*
X91866784Y-112231544D01*
X92014354Y-112330147D01*
X92139853Y-112455646D01*
X92238456Y-112603216D01*
X92306376Y-112767188D01*
X92341000Y-112941259D01*
X92341000Y-113118741D01*
X92306376Y-113292812D01*
X92238456Y-113456784D01*
X92139853Y-113604354D01*
X92014354Y-113729853D01*
X91866784Y-113828456D01*
X91702812Y-113896376D01*
X91553512Y-113926073D01*
X91528742Y-113931000D01*
X91351258Y-113931000D01*
X91326488Y-113926073D01*
X91177188Y-113896376D01*
X91013216Y-113828456D01*
X90865646Y-113729853D01*
X90740147Y-113604354D01*
X90641544Y-113456784D01*
X90573624Y-113292812D01*
X90539000Y-113118741D01*
X90539000Y-112941259D01*
X90573624Y-112767188D01*
X90641544Y-112603216D01*
X90740147Y-112455646D01*
X90865646Y-112330147D01*
X91013216Y-112231544D01*
X91177188Y-112163624D01*
X91326488Y-112133927D01*
X91351258Y-112129000D01*
X91528742Y-112129000D01*
X91553512Y-112133927D01*
G37*
G36*
X94093512Y-112133927D02*
G01*
X94242812Y-112163624D01*
X94406784Y-112231544D01*
X94554354Y-112330147D01*
X94679853Y-112455646D01*
X94778456Y-112603216D01*
X94846376Y-112767188D01*
X94881000Y-112941259D01*
X94881000Y-113118741D01*
X94846376Y-113292812D01*
X94778456Y-113456784D01*
X94679853Y-113604354D01*
X94554354Y-113729853D01*
X94406784Y-113828456D01*
X94242812Y-113896376D01*
X94093512Y-113926073D01*
X94068742Y-113931000D01*
X93891258Y-113931000D01*
X93866488Y-113926073D01*
X93717188Y-113896376D01*
X93553216Y-113828456D01*
X93405646Y-113729853D01*
X93280147Y-113604354D01*
X93181544Y-113456784D01*
X93113624Y-113292812D01*
X93079000Y-113118741D01*
X93079000Y-112941259D01*
X93113624Y-112767188D01*
X93181544Y-112603216D01*
X93280147Y-112455646D01*
X93405646Y-112330147D01*
X93553216Y-112231544D01*
X93717188Y-112163624D01*
X93866488Y-112133927D01*
X93891258Y-112129000D01*
X94068742Y-112129000D01*
X94093512Y-112133927D01*
G37*
G36*
X120281778Y-110880547D02*
G01*
X120448224Y-110949491D01*
X120598022Y-111049583D01*
X120725417Y-111176978D01*
X120825509Y-111326776D01*
X120894453Y-111493222D01*
X120929600Y-111669918D01*
X120929600Y-111850082D01*
X120894453Y-112026778D01*
X120825509Y-112193224D01*
X120725417Y-112343022D01*
X120598022Y-112470417D01*
X120448224Y-112570509D01*
X120281778Y-112639453D01*
X120105082Y-112674600D01*
X119924918Y-112674600D01*
X119748222Y-112639453D01*
X119581776Y-112570509D01*
X119431978Y-112470417D01*
X119304583Y-112343022D01*
X119204491Y-112193224D01*
X119135547Y-112026778D01*
X119100400Y-111850082D01*
X119100400Y-111669918D01*
X119135547Y-111493222D01*
X119204491Y-111326776D01*
X119304583Y-111176978D01*
X119431978Y-111049583D01*
X119581776Y-110949491D01*
X119748222Y-110880547D01*
X119924918Y-110845400D01*
X120105082Y-110845400D01*
X120281778Y-110880547D01*
G37*
G36*
X123469600Y-112674600D02*
G01*
X121640400Y-112674600D01*
X121640400Y-110845400D01*
X123469600Y-110845400D01*
X123469600Y-112674600D01*
G37*
G36*
X94093512Y-109593927D02*
G01*
X94242812Y-109623624D01*
X94406784Y-109691544D01*
X94554354Y-109790147D01*
X94679853Y-109915646D01*
X94778456Y-110063216D01*
X94846376Y-110227188D01*
X94881000Y-110401259D01*
X94881000Y-110578741D01*
X94846376Y-110752812D01*
X94778456Y-110916784D01*
X94679853Y-111064354D01*
X94554354Y-111189853D01*
X94406784Y-111288456D01*
X94242812Y-111356376D01*
X94093512Y-111386073D01*
X94068742Y-111391000D01*
X93891258Y-111391000D01*
X93866488Y-111386073D01*
X93717188Y-111356376D01*
X93553216Y-111288456D01*
X93405646Y-111189853D01*
X93280147Y-111064354D01*
X93181544Y-110916784D01*
X93113624Y-110752812D01*
X93079000Y-110578741D01*
X93079000Y-110401259D01*
X93113624Y-110227188D01*
X93181544Y-110063216D01*
X93280147Y-109915646D01*
X93405646Y-109790147D01*
X93553216Y-109691544D01*
X93717188Y-109623624D01*
X93866488Y-109593927D01*
X93891258Y-109589000D01*
X94068742Y-109589000D01*
X94093512Y-109593927D01*
G37*
G36*
X91553512Y-109593927D02*
G01*
X91702812Y-109623624D01*
X91866784Y-109691544D01*
X92014354Y-109790147D01*
X92139853Y-109915646D01*
X92238456Y-110063216D01*
X92306376Y-110227188D01*
X92341000Y-110401259D01*
X92341000Y-110578741D01*
X92306376Y-110752812D01*
X92238456Y-110916784D01*
X92139853Y-111064354D01*
X92014354Y-111189853D01*
X91866784Y-111288456D01*
X91702812Y-111356376D01*
X91553512Y-111386073D01*
X91528742Y-111391000D01*
X91351258Y-111391000D01*
X91326488Y-111386073D01*
X91177188Y-111356376D01*
X91013216Y-111288456D01*
X90865646Y-111189853D01*
X90740147Y-111064354D01*
X90641544Y-110916784D01*
X90573624Y-110752812D01*
X90539000Y-110578741D01*
X90539000Y-110401259D01*
X90573624Y-110227188D01*
X90641544Y-110063216D01*
X90740147Y-109915646D01*
X90865646Y-109790147D01*
X91013216Y-109691544D01*
X91177188Y-109623624D01*
X91326488Y-109593927D01*
X91351258Y-109589000D01*
X91528742Y-109589000D01*
X91553512Y-109593927D01*
G37*
G36*
X122821778Y-108340547D02*
G01*
X122988224Y-108409491D01*
X123138022Y-108509583D01*
X123265417Y-108636978D01*
X123365509Y-108786776D01*
X123434453Y-108953222D01*
X123469600Y-109129918D01*
X123469600Y-109310082D01*
X123434453Y-109486778D01*
X123365509Y-109653224D01*
X123265417Y-109803022D01*
X123138022Y-109930417D01*
X122988224Y-110030509D01*
X122821778Y-110099453D01*
X122645082Y-110134600D01*
X122464918Y-110134600D01*
X122288222Y-110099453D01*
X122121776Y-110030509D01*
X121971978Y-109930417D01*
X121844583Y-109803022D01*
X121744491Y-109653224D01*
X121675547Y-109486778D01*
X121640400Y-109310082D01*
X121640400Y-109129918D01*
X121675547Y-108953222D01*
X121744491Y-108786776D01*
X121844583Y-108636978D01*
X121971978Y-108509583D01*
X122121776Y-108409491D01*
X122288222Y-108340547D01*
X122464918Y-108305400D01*
X122645082Y-108305400D01*
X122821778Y-108340547D01*
G37*
G36*
X120281778Y-108340547D02*
G01*
X120448224Y-108409491D01*
X120598022Y-108509583D01*
X120725417Y-108636978D01*
X120825509Y-108786776D01*
X120894453Y-108953222D01*
X120929600Y-109129918D01*
X120929600Y-109310082D01*
X120894453Y-109486778D01*
X120825509Y-109653224D01*
X120725417Y-109803022D01*
X120598022Y-109930417D01*
X120448224Y-110030509D01*
X120281778Y-110099453D01*
X120105082Y-110134600D01*
X119924918Y-110134600D01*
X119748222Y-110099453D01*
X119581776Y-110030509D01*
X119431978Y-109930417D01*
X119304583Y-109803022D01*
X119204491Y-109653224D01*
X119135547Y-109486778D01*
X119100400Y-109310082D01*
X119100400Y-109129918D01*
X119135547Y-108953222D01*
X119204491Y-108786776D01*
X119304583Y-108636978D01*
X119431978Y-108509583D01*
X119581776Y-108409491D01*
X119748222Y-108340547D01*
X119924918Y-108305400D01*
X120105082Y-108305400D01*
X120281778Y-108340547D01*
G37*
G36*
X91553512Y-107053927D02*
G01*
X91702812Y-107083624D01*
X91866784Y-107151544D01*
X92014354Y-107250147D01*
X92139853Y-107375646D01*
X92238456Y-107523216D01*
X92306376Y-107687188D01*
X92341000Y-107861259D01*
X92341000Y-108038741D01*
X92306376Y-108212812D01*
X92238456Y-108376784D01*
X92139853Y-108524354D01*
X92014354Y-108649853D01*
X91866784Y-108748456D01*
X91702812Y-108816376D01*
X91553512Y-108846073D01*
X91528742Y-108851000D01*
X91351258Y-108851000D01*
X91326488Y-108846073D01*
X91177188Y-108816376D01*
X91013216Y-108748456D01*
X90865646Y-108649853D01*
X90740147Y-108524354D01*
X90641544Y-108376784D01*
X90573624Y-108212812D01*
X90539000Y-108038741D01*
X90539000Y-107861259D01*
X90573624Y-107687188D01*
X90641544Y-107523216D01*
X90740147Y-107375646D01*
X90865646Y-107250147D01*
X91013216Y-107151544D01*
X91177188Y-107083624D01*
X91326488Y-107053927D01*
X91351258Y-107049000D01*
X91528742Y-107049000D01*
X91553512Y-107053927D01*
G37*
G36*
X94093512Y-107053927D02*
G01*
X94242812Y-107083624D01*
X94406784Y-107151544D01*
X94554354Y-107250147D01*
X94679853Y-107375646D01*
X94778456Y-107523216D01*
X94846376Y-107687188D01*
X94881000Y-107861259D01*
X94881000Y-108038741D01*
X94846376Y-108212812D01*
X94778456Y-108376784D01*
X94679853Y-108524354D01*
X94554354Y-108649853D01*
X94406784Y-108748456D01*
X94242812Y-108816376D01*
X94093512Y-108846073D01*
X94068742Y-108851000D01*
X93891258Y-108851000D01*
X93866488Y-108846073D01*
X93717188Y-108816376D01*
X93553216Y-108748456D01*
X93405646Y-108649853D01*
X93280147Y-108524354D01*
X93181544Y-108376784D01*
X93113624Y-108212812D01*
X93079000Y-108038741D01*
X93079000Y-107861259D01*
X93113624Y-107687188D01*
X93181544Y-107523216D01*
X93280147Y-107375646D01*
X93405646Y-107250147D01*
X93553216Y-107151544D01*
X93717188Y-107083624D01*
X93866488Y-107053927D01*
X93891258Y-107049000D01*
X94068742Y-107049000D01*
X94093512Y-107053927D01*
G37*
G36*
X122821778Y-105800547D02*
G01*
X122988224Y-105869491D01*
X123138022Y-105969583D01*
X123265417Y-106096978D01*
X123365509Y-106246776D01*
X123434453Y-106413222D01*
X123469600Y-106589918D01*
X123469600Y-106770082D01*
X123434453Y-106946778D01*
X123365509Y-107113224D01*
X123265417Y-107263022D01*
X123138022Y-107390417D01*
X122988224Y-107490509D01*
X122821778Y-107559453D01*
X122645082Y-107594600D01*
X122464918Y-107594600D01*
X122288222Y-107559453D01*
X122121776Y-107490509D01*
X121971978Y-107390417D01*
X121844583Y-107263022D01*
X121744491Y-107113224D01*
X121675547Y-106946778D01*
X121640400Y-106770082D01*
X121640400Y-106589918D01*
X121675547Y-106413222D01*
X121744491Y-106246776D01*
X121844583Y-106096978D01*
X121971978Y-105969583D01*
X122121776Y-105869491D01*
X122288222Y-105800547D01*
X122464918Y-105765400D01*
X122645082Y-105765400D01*
X122821778Y-105800547D01*
G37*
G36*
X120281778Y-105800547D02*
G01*
X120448224Y-105869491D01*
X120598022Y-105969583D01*
X120725417Y-106096978D01*
X120825509Y-106246776D01*
X120894453Y-106413222D01*
X120929600Y-106589918D01*
X120929600Y-106770082D01*
X120894453Y-106946778D01*
X120825509Y-107113224D01*
X120725417Y-107263022D01*
X120598022Y-107390417D01*
X120448224Y-107490509D01*
X120281778Y-107559453D01*
X120105082Y-107594600D01*
X119924918Y-107594600D01*
X119748222Y-107559453D01*
X119581776Y-107490509D01*
X119431978Y-107390417D01*
X119304583Y-107263022D01*
X119204491Y-107113224D01*
X119135547Y-106946778D01*
X119100400Y-106770082D01*
X119100400Y-106589918D01*
X119135547Y-106413222D01*
X119204491Y-106246776D01*
X119304583Y-106096978D01*
X119431978Y-105969583D01*
X119581776Y-105869491D01*
X119748222Y-105800547D01*
X119924918Y-105765400D01*
X120105082Y-105765400D01*
X120281778Y-105800547D01*
G37*
G36*
X91553512Y-104513927D02*
G01*
X91702812Y-104543624D01*
X91866784Y-104611544D01*
X92014354Y-104710147D01*
X92139853Y-104835646D01*
X92238456Y-104983216D01*
X92306376Y-105147188D01*
X92341000Y-105321259D01*
X92341000Y-105498741D01*
X92306376Y-105672812D01*
X92238456Y-105836784D01*
X92139853Y-105984354D01*
X92014354Y-106109853D01*
X91866784Y-106208456D01*
X91702812Y-106276376D01*
X91553512Y-106306073D01*
X91528742Y-106311000D01*
X91351258Y-106311000D01*
X91326488Y-106306073D01*
X91177188Y-106276376D01*
X91013216Y-106208456D01*
X90865646Y-106109853D01*
X90740147Y-105984354D01*
X90641544Y-105836784D01*
X90573624Y-105672812D01*
X90539000Y-105498741D01*
X90539000Y-105321259D01*
X90573624Y-105147188D01*
X90641544Y-104983216D01*
X90740147Y-104835646D01*
X90865646Y-104710147D01*
X91013216Y-104611544D01*
X91177188Y-104543624D01*
X91326488Y-104513927D01*
X91351258Y-104509000D01*
X91528742Y-104509000D01*
X91553512Y-104513927D01*
G37*
G36*
X94093512Y-104513927D02*
G01*
X94242812Y-104543624D01*
X94406784Y-104611544D01*
X94554354Y-104710147D01*
X94679853Y-104835646D01*
X94778456Y-104983216D01*
X94846376Y-105147188D01*
X94881000Y-105321259D01*
X94881000Y-105498741D01*
X94846376Y-105672812D01*
X94778456Y-105836784D01*
X94679853Y-105984354D01*
X94554354Y-106109853D01*
X94406784Y-106208456D01*
X94242812Y-106276376D01*
X94093512Y-106306073D01*
X94068742Y-106311000D01*
X93891258Y-106311000D01*
X93866488Y-106306073D01*
X93717188Y-106276376D01*
X93553216Y-106208456D01*
X93405646Y-106109853D01*
X93280147Y-105984354D01*
X93181544Y-105836784D01*
X93113624Y-105672812D01*
X93079000Y-105498741D01*
X93079000Y-105321259D01*
X93113624Y-105147188D01*
X93181544Y-104983216D01*
X93280147Y-104835646D01*
X93405646Y-104710147D01*
X93553216Y-104611544D01*
X93717188Y-104543624D01*
X93866488Y-104513927D01*
X93891258Y-104509000D01*
X94068742Y-104509000D01*
X94093512Y-104513927D01*
G37*
G36*
X122821778Y-103260547D02*
G01*
X122988224Y-103329491D01*
X123138022Y-103429583D01*
X123265417Y-103556978D01*
X123365509Y-103706776D01*
X123434453Y-103873222D01*
X123469600Y-104049918D01*
X123469600Y-104230082D01*
X123434453Y-104406778D01*
X123365509Y-104573224D01*
X123265417Y-104723022D01*
X123138022Y-104850417D01*
X122988224Y-104950509D01*
X122821778Y-105019453D01*
X122645082Y-105054600D01*
X122464918Y-105054600D01*
X122288222Y-105019453D01*
X122121776Y-104950509D01*
X121971978Y-104850417D01*
X121844583Y-104723022D01*
X121744491Y-104573224D01*
X121675547Y-104406778D01*
X121640400Y-104230082D01*
X121640400Y-104049918D01*
X121675547Y-103873222D01*
X121744491Y-103706776D01*
X121844583Y-103556978D01*
X121971978Y-103429583D01*
X122121776Y-103329491D01*
X122288222Y-103260547D01*
X122464918Y-103225400D01*
X122645082Y-103225400D01*
X122821778Y-103260547D01*
G37*
G36*
X120281778Y-103260547D02*
G01*
X120448224Y-103329491D01*
X120598022Y-103429583D01*
X120725417Y-103556978D01*
X120825509Y-103706776D01*
X120894453Y-103873222D01*
X120929600Y-104049918D01*
X120929600Y-104230082D01*
X120894453Y-104406778D01*
X120825509Y-104573224D01*
X120725417Y-104723022D01*
X120598022Y-104850417D01*
X120448224Y-104950509D01*
X120281778Y-105019453D01*
X120105082Y-105054600D01*
X119924918Y-105054600D01*
X119748222Y-105019453D01*
X119581776Y-104950509D01*
X119431978Y-104850417D01*
X119304583Y-104723022D01*
X119204491Y-104573224D01*
X119135547Y-104406778D01*
X119100400Y-104230082D01*
X119100400Y-104049918D01*
X119135547Y-103873222D01*
X119204491Y-103706776D01*
X119304583Y-103556978D01*
X119431978Y-103429583D01*
X119581776Y-103329491D01*
X119748222Y-103260547D01*
X119924918Y-103225400D01*
X120105082Y-103225400D01*
X120281778Y-103260547D01*
G37*
G36*
X91553512Y-101973927D02*
G01*
X91702812Y-102003624D01*
X91866784Y-102071544D01*
X92014354Y-102170147D01*
X92139853Y-102295646D01*
X92238456Y-102443216D01*
X92306376Y-102607188D01*
X92341000Y-102781259D01*
X92341000Y-102958741D01*
X92306376Y-103132812D01*
X92238456Y-103296784D01*
X92139853Y-103444354D01*
X92014354Y-103569853D01*
X91866784Y-103668456D01*
X91702812Y-103736376D01*
X91553512Y-103766073D01*
X91528742Y-103771000D01*
X91351258Y-103771000D01*
X91326488Y-103766073D01*
X91177188Y-103736376D01*
X91013216Y-103668456D01*
X90865646Y-103569853D01*
X90740147Y-103444354D01*
X90641544Y-103296784D01*
X90573624Y-103132812D01*
X90539000Y-102958741D01*
X90539000Y-102781259D01*
X90573624Y-102607188D01*
X90641544Y-102443216D01*
X90740147Y-102295646D01*
X90865646Y-102170147D01*
X91013216Y-102071544D01*
X91177188Y-102003624D01*
X91326488Y-101973927D01*
X91351258Y-101969000D01*
X91528742Y-101969000D01*
X91553512Y-101973927D01*
G37*
G36*
X94093512Y-101973927D02*
G01*
X94242812Y-102003624D01*
X94406784Y-102071544D01*
X94554354Y-102170147D01*
X94679853Y-102295646D01*
X94778456Y-102443216D01*
X94846376Y-102607188D01*
X94881000Y-102781259D01*
X94881000Y-102958741D01*
X94846376Y-103132812D01*
X94778456Y-103296784D01*
X94679853Y-103444354D01*
X94554354Y-103569853D01*
X94406784Y-103668456D01*
X94242812Y-103736376D01*
X94093512Y-103766073D01*
X94068742Y-103771000D01*
X93891258Y-103771000D01*
X93866488Y-103766073D01*
X93717188Y-103736376D01*
X93553216Y-103668456D01*
X93405646Y-103569853D01*
X93280147Y-103444354D01*
X93181544Y-103296784D01*
X93113624Y-103132812D01*
X93079000Y-102958741D01*
X93079000Y-102781259D01*
X93113624Y-102607188D01*
X93181544Y-102443216D01*
X93280147Y-102295646D01*
X93405646Y-102170147D01*
X93553216Y-102071544D01*
X93717188Y-102003624D01*
X93866488Y-101973927D01*
X93891258Y-101969000D01*
X94068742Y-101969000D01*
X94093512Y-101973927D01*
G37*
G36*
X106946000Y-103771000D02*
G01*
X105144000Y-103771000D01*
X105144000Y-101969000D01*
X106946000Y-101969000D01*
X106946000Y-103771000D01*
G37*
G36*
X103136000Y-103771000D02*
G01*
X101334000Y-103771000D01*
X101334000Y-101969000D01*
X103136000Y-101969000D01*
X103136000Y-103771000D01*
G37*
G36*
X120281778Y-100720547D02*
G01*
X120448224Y-100789491D01*
X120598022Y-100889583D01*
X120725417Y-101016978D01*
X120825509Y-101166776D01*
X120894453Y-101333222D01*
X120929600Y-101509918D01*
X120929600Y-101690082D01*
X120894453Y-101866778D01*
X120825509Y-102033224D01*
X120725417Y-102183022D01*
X120598022Y-102310417D01*
X120448224Y-102410509D01*
X120281778Y-102479453D01*
X120105082Y-102514600D01*
X119924918Y-102514600D01*
X119748222Y-102479453D01*
X119581776Y-102410509D01*
X119431978Y-102310417D01*
X119304583Y-102183022D01*
X119204491Y-102033224D01*
X119135547Y-101866778D01*
X119100400Y-101690082D01*
X119100400Y-101509918D01*
X119135547Y-101333222D01*
X119204491Y-101166776D01*
X119304583Y-101016978D01*
X119431978Y-100889583D01*
X119581776Y-100789491D01*
X119748222Y-100720547D01*
X119924918Y-100685400D01*
X120105082Y-100685400D01*
X120281778Y-100720547D01*
G37*
G36*
X122821778Y-100720547D02*
G01*
X122988224Y-100789491D01*
X123138022Y-100889583D01*
X123265417Y-101016978D01*
X123365509Y-101166776D01*
X123434453Y-101333222D01*
X123469600Y-101509918D01*
X123469600Y-101690082D01*
X123434453Y-101866778D01*
X123365509Y-102033224D01*
X123265417Y-102183022D01*
X123138022Y-102310417D01*
X122988224Y-102410509D01*
X122821778Y-102479453D01*
X122645082Y-102514600D01*
X122464918Y-102514600D01*
X122288222Y-102479453D01*
X122121776Y-102410509D01*
X121971978Y-102310417D01*
X121844583Y-102183022D01*
X121744491Y-102033224D01*
X121675547Y-101866778D01*
X121640400Y-101690082D01*
X121640400Y-101509918D01*
X121675547Y-101333222D01*
X121744491Y-101166776D01*
X121844583Y-101016978D01*
X121971978Y-100889583D01*
X122121776Y-100789491D01*
X122288222Y-100720547D01*
X122464918Y-100685400D01*
X122645082Y-100685400D01*
X122821778Y-100720547D01*
G37*
G36*
X132186578Y-100175197D02*
G01*
X132239350Y-100185694D01*
X132338770Y-100226875D01*
X132428246Y-100286661D01*
X132504339Y-100362754D01*
X132564125Y-100452230D01*
X132605306Y-100551650D01*
X132626300Y-100657194D01*
X132626300Y-100764806D01*
X132605306Y-100870350D01*
X132564125Y-100969770D01*
X132504339Y-101059246D01*
X132428246Y-101135339D01*
X132338770Y-101195125D01*
X132239350Y-101236306D01*
X132186578Y-101246803D01*
X132133807Y-101257300D01*
X132026193Y-101257300D01*
X131973422Y-101246803D01*
X131920650Y-101236306D01*
X131821230Y-101195125D01*
X131731754Y-101135339D01*
X131655661Y-101059246D01*
X131595875Y-100969770D01*
X131554694Y-100870350D01*
X131533700Y-100764806D01*
X131533700Y-100657194D01*
X131554694Y-100551650D01*
X131595875Y-100452230D01*
X131655661Y-100362754D01*
X131731754Y-100286661D01*
X131821230Y-100226875D01*
X131920650Y-100185694D01*
X131973422Y-100175197D01*
X132026193Y-100164700D01*
X132133807Y-100164700D01*
X132186578Y-100175197D01*
G37*
G36*
X102348512Y-99433927D02*
G01*
X102497812Y-99463624D01*
X102661784Y-99531544D01*
X102809354Y-99630147D01*
X102934853Y-99755646D01*
X103033456Y-99903216D01*
X103101376Y-100067188D01*
X103136000Y-100241259D01*
X103136000Y-100418741D01*
X103101376Y-100592812D01*
X103033456Y-100756784D01*
X102934853Y-100904354D01*
X102809354Y-101029853D01*
X102661784Y-101128456D01*
X102497812Y-101196376D01*
X102348512Y-101226073D01*
X102323742Y-101231000D01*
X102146258Y-101231000D01*
X102121488Y-101226073D01*
X101972188Y-101196376D01*
X101808216Y-101128456D01*
X101660646Y-101029853D01*
X101535147Y-100904354D01*
X101436544Y-100756784D01*
X101368624Y-100592812D01*
X101334000Y-100418741D01*
X101334000Y-100241259D01*
X101368624Y-100067188D01*
X101436544Y-99903216D01*
X101535147Y-99755646D01*
X101660646Y-99630147D01*
X101808216Y-99531544D01*
X101972188Y-99463624D01*
X102121488Y-99433927D01*
X102146258Y-99429000D01*
X102323742Y-99429000D01*
X102348512Y-99433927D01*
G37*
G36*
X91553512Y-99433927D02*
G01*
X91702812Y-99463624D01*
X91866784Y-99531544D01*
X92014354Y-99630147D01*
X92139853Y-99755646D01*
X92238456Y-99903216D01*
X92306376Y-100067188D01*
X92341000Y-100241259D01*
X92341000Y-100418741D01*
X92306376Y-100592812D01*
X92238456Y-100756784D01*
X92139853Y-100904354D01*
X92014354Y-101029853D01*
X91866784Y-101128456D01*
X91702812Y-101196376D01*
X91553512Y-101226073D01*
X91528742Y-101231000D01*
X91351258Y-101231000D01*
X91326488Y-101226073D01*
X91177188Y-101196376D01*
X91013216Y-101128456D01*
X90865646Y-101029853D01*
X90740147Y-100904354D01*
X90641544Y-100756784D01*
X90573624Y-100592812D01*
X90539000Y-100418741D01*
X90539000Y-100241259D01*
X90573624Y-100067188D01*
X90641544Y-99903216D01*
X90740147Y-99755646D01*
X90865646Y-99630147D01*
X91013216Y-99531544D01*
X91177188Y-99463624D01*
X91326488Y-99433927D01*
X91351258Y-99429000D01*
X91528742Y-99429000D01*
X91553512Y-99433927D01*
G37*
G36*
X106158512Y-99433927D02*
G01*
X106307812Y-99463624D01*
X106471784Y-99531544D01*
X106619354Y-99630147D01*
X106744853Y-99755646D01*
X106843456Y-99903216D01*
X106911376Y-100067188D01*
X106946000Y-100241259D01*
X106946000Y-100418741D01*
X106911376Y-100592812D01*
X106843456Y-100756784D01*
X106744853Y-100904354D01*
X106619354Y-101029853D01*
X106471784Y-101128456D01*
X106307812Y-101196376D01*
X106158512Y-101226073D01*
X106133742Y-101231000D01*
X105956258Y-101231000D01*
X105931488Y-101226073D01*
X105782188Y-101196376D01*
X105618216Y-101128456D01*
X105470646Y-101029853D01*
X105345147Y-100904354D01*
X105246544Y-100756784D01*
X105178624Y-100592812D01*
X105144000Y-100418741D01*
X105144000Y-100241259D01*
X105178624Y-100067188D01*
X105246544Y-99903216D01*
X105345147Y-99755646D01*
X105470646Y-99630147D01*
X105618216Y-99531544D01*
X105782188Y-99463624D01*
X105931488Y-99433927D01*
X105956258Y-99429000D01*
X106133742Y-99429000D01*
X106158512Y-99433927D01*
G37*
G36*
X94093512Y-99433927D02*
G01*
X94242812Y-99463624D01*
X94406784Y-99531544D01*
X94554354Y-99630147D01*
X94679853Y-99755646D01*
X94778456Y-99903216D01*
X94846376Y-100067188D01*
X94881000Y-100241259D01*
X94881000Y-100418741D01*
X94846376Y-100592812D01*
X94778456Y-100756784D01*
X94679853Y-100904354D01*
X94554354Y-101029853D01*
X94406784Y-101128456D01*
X94242812Y-101196376D01*
X94093512Y-101226073D01*
X94068742Y-101231000D01*
X93891258Y-101231000D01*
X93866488Y-101226073D01*
X93717188Y-101196376D01*
X93553216Y-101128456D01*
X93405646Y-101029853D01*
X93280147Y-100904354D01*
X93181544Y-100756784D01*
X93113624Y-100592812D01*
X93079000Y-100418741D01*
X93079000Y-100241259D01*
X93113624Y-100067188D01*
X93181544Y-99903216D01*
X93280147Y-99755646D01*
X93405646Y-99630147D01*
X93553216Y-99531544D01*
X93717188Y-99463624D01*
X93866488Y-99433927D01*
X93891258Y-99429000D01*
X94068742Y-99429000D01*
X94093512Y-99433927D01*
G37*
G36*
X91553512Y-96893927D02*
G01*
X91702812Y-96923624D01*
X91866784Y-96991544D01*
X92014354Y-97090147D01*
X92139853Y-97215646D01*
X92238456Y-97363216D01*
X92306376Y-97527188D01*
X92341000Y-97701259D01*
X92341000Y-97878741D01*
X92306376Y-98052812D01*
X92238456Y-98216784D01*
X92139853Y-98364354D01*
X92014354Y-98489853D01*
X91866784Y-98588456D01*
X91702812Y-98656376D01*
X91553512Y-98686073D01*
X91528742Y-98691000D01*
X91351258Y-98691000D01*
X91326488Y-98686073D01*
X91177188Y-98656376D01*
X91013216Y-98588456D01*
X90865646Y-98489853D01*
X90740147Y-98364354D01*
X90641544Y-98216784D01*
X90573624Y-98052812D01*
X90539000Y-97878741D01*
X90539000Y-97701259D01*
X90573624Y-97527188D01*
X90641544Y-97363216D01*
X90740147Y-97215646D01*
X90865646Y-97090147D01*
X91013216Y-96991544D01*
X91177188Y-96923624D01*
X91326488Y-96893927D01*
X91351258Y-96889000D01*
X91528742Y-96889000D01*
X91553512Y-96893927D01*
G37*
G36*
X94093512Y-96893927D02*
G01*
X94242812Y-96923624D01*
X94406784Y-96991544D01*
X94554354Y-97090147D01*
X94679853Y-97215646D01*
X94778456Y-97363216D01*
X94846376Y-97527188D01*
X94881000Y-97701259D01*
X94881000Y-97878741D01*
X94846376Y-98052812D01*
X94778456Y-98216784D01*
X94679853Y-98364354D01*
X94554354Y-98489853D01*
X94406784Y-98588456D01*
X94242812Y-98656376D01*
X94093512Y-98686073D01*
X94068742Y-98691000D01*
X93891258Y-98691000D01*
X93866488Y-98686073D01*
X93717188Y-98656376D01*
X93553216Y-98588456D01*
X93405646Y-98489853D01*
X93280147Y-98364354D01*
X93181544Y-98216784D01*
X93113624Y-98052812D01*
X93079000Y-97878741D01*
X93079000Y-97701259D01*
X93113624Y-97527188D01*
X93181544Y-97363216D01*
X93280147Y-97215646D01*
X93405646Y-97090147D01*
X93553216Y-96991544D01*
X93717188Y-96923624D01*
X93866488Y-96893927D01*
X93891258Y-96889000D01*
X94068742Y-96889000D01*
X94093512Y-96893927D01*
G37*
G36*
X102348512Y-96893927D02*
G01*
X102497812Y-96923624D01*
X102661784Y-96991544D01*
X102809354Y-97090147D01*
X102934853Y-97215646D01*
X103033456Y-97363216D01*
X103101376Y-97527188D01*
X103136000Y-97701259D01*
X103136000Y-97878741D01*
X103101376Y-98052812D01*
X103033456Y-98216784D01*
X102934853Y-98364354D01*
X102809354Y-98489853D01*
X102661784Y-98588456D01*
X102497812Y-98656376D01*
X102348512Y-98686073D01*
X102323742Y-98691000D01*
X102146258Y-98691000D01*
X102121488Y-98686073D01*
X101972188Y-98656376D01*
X101808216Y-98588456D01*
X101660646Y-98489853D01*
X101535147Y-98364354D01*
X101436544Y-98216784D01*
X101368624Y-98052812D01*
X101334000Y-97878741D01*
X101334000Y-97701259D01*
X101368624Y-97527188D01*
X101436544Y-97363216D01*
X101535147Y-97215646D01*
X101660646Y-97090147D01*
X101808216Y-96991544D01*
X101972188Y-96923624D01*
X102121488Y-96893927D01*
X102146258Y-96889000D01*
X102323742Y-96889000D01*
X102348512Y-96893927D01*
G37*
G36*
X106158512Y-96893927D02*
G01*
X106307812Y-96923624D01*
X106471784Y-96991544D01*
X106619354Y-97090147D01*
X106744853Y-97215646D01*
X106843456Y-97363216D01*
X106911376Y-97527188D01*
X106946000Y-97701259D01*
X106946000Y-97878741D01*
X106911376Y-98052812D01*
X106843456Y-98216784D01*
X106744853Y-98364354D01*
X106619354Y-98489853D01*
X106471784Y-98588456D01*
X106307812Y-98656376D01*
X106158512Y-98686073D01*
X106133742Y-98691000D01*
X105956258Y-98691000D01*
X105931488Y-98686073D01*
X105782188Y-98656376D01*
X105618216Y-98588456D01*
X105470646Y-98489853D01*
X105345147Y-98364354D01*
X105246544Y-98216784D01*
X105178624Y-98052812D01*
X105144000Y-97878741D01*
X105144000Y-97701259D01*
X105178624Y-97527188D01*
X105246544Y-97363216D01*
X105345147Y-97215646D01*
X105470646Y-97090147D01*
X105618216Y-96991544D01*
X105782188Y-96923624D01*
X105931488Y-96893927D01*
X105956258Y-96889000D01*
X106133742Y-96889000D01*
X106158512Y-96893927D01*
G37*
G36*
X94881000Y-96151000D02*
G01*
X93079000Y-96151000D01*
X93079000Y-94349000D01*
X94881000Y-94349000D01*
X94881000Y-96151000D01*
G37*
G36*
X91553512Y-94353927D02*
G01*
X91702812Y-94383624D01*
X91866784Y-94451544D01*
X92014354Y-94550147D01*
X92139853Y-94675646D01*
X92238456Y-94823216D01*
X92306376Y-94987188D01*
X92341000Y-95161259D01*
X92341000Y-95338741D01*
X92306376Y-95512812D01*
X92238456Y-95676784D01*
X92139853Y-95824354D01*
X92014354Y-95949853D01*
X91866784Y-96048456D01*
X91702812Y-96116376D01*
X91553512Y-96146073D01*
X91528742Y-96151000D01*
X91351258Y-96151000D01*
X91326488Y-96146073D01*
X91177188Y-96116376D01*
X91013216Y-96048456D01*
X90865646Y-95949853D01*
X90740147Y-95824354D01*
X90641544Y-95676784D01*
X90573624Y-95512812D01*
X90539000Y-95338741D01*
X90539000Y-95161259D01*
X90573624Y-94987188D01*
X90641544Y-94823216D01*
X90740147Y-94675646D01*
X90865646Y-94550147D01*
X91013216Y-94451544D01*
X91177188Y-94383624D01*
X91326488Y-94353927D01*
X91351258Y-94349000D01*
X91528742Y-94349000D01*
X91553512Y-94353927D01*
G37*
G36*
X122668512Y-93083927D02*
G01*
X122817812Y-93113624D01*
X122981784Y-93181544D01*
X123129354Y-93280147D01*
X123254853Y-93405646D01*
X123353456Y-93553216D01*
X123421376Y-93717188D01*
X123456000Y-93891259D01*
X123456000Y-94068741D01*
X123421376Y-94242812D01*
X123353456Y-94406784D01*
X123254853Y-94554354D01*
X123129354Y-94679853D01*
X122981784Y-94778456D01*
X122817812Y-94846376D01*
X122668512Y-94876073D01*
X122643742Y-94881000D01*
X122466258Y-94881000D01*
X122441488Y-94876073D01*
X122292188Y-94846376D01*
X122128216Y-94778456D01*
X121980646Y-94679853D01*
X121855147Y-94554354D01*
X121756544Y-94406784D01*
X121688624Y-94242812D01*
X121654000Y-94068741D01*
X121654000Y-93891259D01*
X121688624Y-93717188D01*
X121756544Y-93553216D01*
X121855147Y-93405646D01*
X121980646Y-93280147D01*
X122128216Y-93181544D01*
X122292188Y-93113624D01*
X122441488Y-93083927D01*
X122466258Y-93079000D01*
X122643742Y-93079000D01*
X122668512Y-93083927D01*
G37*
G36*
X120916000Y-94881000D02*
G01*
X119114000Y-94881000D01*
X119114000Y-93079000D01*
X120916000Y-93079000D01*
X120916000Y-94881000D01*
G37*
G36*
X133202578Y-92555197D02*
G01*
X133255350Y-92565694D01*
X133354770Y-92606875D01*
X133444246Y-92666661D01*
X133520339Y-92742754D01*
X133580125Y-92832230D01*
X133621306Y-92931650D01*
X133642300Y-93037194D01*
X133642300Y-93144806D01*
X133621306Y-93250350D01*
X133580125Y-93349770D01*
X133520339Y-93439246D01*
X133444246Y-93515339D01*
X133354770Y-93575125D01*
X133255350Y-93616306D01*
X133202578Y-93626803D01*
X133149807Y-93637300D01*
X133042193Y-93637300D01*
X132989422Y-93626803D01*
X132936650Y-93616306D01*
X132837230Y-93575125D01*
X132747754Y-93515339D01*
X132671661Y-93439246D01*
X132611875Y-93349770D01*
X132570694Y-93250350D01*
X132549700Y-93144806D01*
X132549700Y-93037194D01*
X132570694Y-92931650D01*
X132611875Y-92832230D01*
X132671661Y-92742754D01*
X132747754Y-92666661D01*
X132837230Y-92606875D01*
X132936650Y-92565694D01*
X132989422Y-92555197D01*
X133042193Y-92544700D01*
X133149807Y-92544700D01*
X133202578Y-92555197D01*
G37*
G36*
X131170578Y-92555197D02*
G01*
X131223350Y-92565694D01*
X131322770Y-92606875D01*
X131412246Y-92666661D01*
X131488339Y-92742754D01*
X131548125Y-92832230D01*
X131589306Y-92931650D01*
X131610300Y-93037194D01*
X131610300Y-93144806D01*
X131589306Y-93250350D01*
X131548125Y-93349770D01*
X131488339Y-93439246D01*
X131412246Y-93515339D01*
X131322770Y-93575125D01*
X131223350Y-93616306D01*
X131170578Y-93626803D01*
X131117807Y-93637300D01*
X131010193Y-93637300D01*
X130957422Y-93626803D01*
X130904650Y-93616306D01*
X130805230Y-93575125D01*
X130715754Y-93515339D01*
X130639661Y-93439246D01*
X130579875Y-93349770D01*
X130538694Y-93250350D01*
X130517700Y-93144806D01*
X130517700Y-93037194D01*
X130538694Y-92931650D01*
X130579875Y-92832230D01*
X130639661Y-92742754D01*
X130715754Y-92666661D01*
X130805230Y-92606875D01*
X130904650Y-92565694D01*
X130957422Y-92555197D01*
X131010193Y-92544700D01*
X131117807Y-92544700D01*
X131170578Y-92555197D01*
G37*
M02*
