G04 #@! TF.GenerationSoftware,KiCad,Pcbnew,5.1.5-52549c5~84~ubuntu19.04.1*
G04 #@! TF.CreationDate,2019-12-10T10:59:35+01:00*
G04 #@! TF.ProjectId,jlink-tagConnect-adapter-v2,6a6c696e-6b2d-4746-9167-436f6e6e6563,rev?*
G04 #@! TF.SameCoordinates,Original*
G04 #@! TF.FileFunction,Copper,L1,Top*
G04 #@! TF.FilePolarity,Positive*
%FSLAX46Y46*%
G04 Gerber Fmt 4.6, Leading zero omitted, Abs format (unit mm)*
G04 Created by KiCad (PCBNEW 5.1.5-52549c5~84~ubuntu19.04.1) date 2019-12-10 10:59:35*
%MOMM*%
%LPD*%
G04 APERTURE LIST*
%ADD10C,0.787400*%
%ADD11O,1.727200X1.727200*%
%ADD12R,1.727200X1.727200*%
%ADD13O,1.700000X1.700000*%
%ADD14R,1.700000X1.700000*%
%ADD15R,2.400000X0.740000*%
%ADD16C,1.400000*%
%ADD17C,0.800000*%
%ADD18C,0.762000*%
%ADD19C,0.254000*%
G04 APERTURE END LIST*
D10*
X131445000Y-99441000D03*
X131445000Y-98171000D03*
X131445000Y-96901000D03*
X131445000Y-95631000D03*
X131445000Y-94361000D03*
X132715000Y-94361000D03*
X132715000Y-95631000D03*
X132715000Y-96901000D03*
X132715000Y-98171000D03*
X132715000Y-99441000D03*
D11*
X120015000Y-101600000D03*
X122555000Y-101600000D03*
X120015000Y-104140000D03*
X122555000Y-104140000D03*
X120015000Y-106680000D03*
X122555000Y-106680000D03*
X120015000Y-109220000D03*
X122555000Y-109220000D03*
X120015000Y-111760000D03*
D12*
X122555000Y-111760000D03*
D13*
X91440000Y-118110000D03*
X93980000Y-118110000D03*
X91440000Y-115570000D03*
X93980000Y-115570000D03*
X91440000Y-113030000D03*
X93980000Y-113030000D03*
X91440000Y-110490000D03*
X93980000Y-110490000D03*
X91440000Y-107950000D03*
X93980000Y-107950000D03*
X91440000Y-105410000D03*
X93980000Y-105410000D03*
X91440000Y-102870000D03*
X93980000Y-102870000D03*
X91440000Y-100330000D03*
X93980000Y-100330000D03*
X91440000Y-97790000D03*
X93980000Y-97790000D03*
X91440000Y-95250000D03*
D14*
X93980000Y-95250000D03*
D13*
X102235000Y-113030000D03*
X102235000Y-115570000D03*
D14*
X102235000Y-118110000D03*
D13*
X122555000Y-119380000D03*
D14*
X120015000Y-119380000D03*
D13*
X122555000Y-93980000D03*
D14*
X120015000Y-93980000D03*
D13*
X109220000Y-118110000D03*
X109220000Y-115570000D03*
D14*
X109220000Y-113030000D03*
D13*
X106045000Y-97790000D03*
X106045000Y-100330000D03*
D14*
X106045000Y-102870000D03*
D13*
X102235000Y-97790000D03*
X102235000Y-100330000D03*
D14*
X102235000Y-102870000D03*
D15*
X130130000Y-104140000D03*
X134030000Y-104140000D03*
X130130000Y-105410000D03*
X134030000Y-105410000D03*
X130130000Y-106680000D03*
X134030000Y-106680000D03*
X130130000Y-107950000D03*
X134030000Y-107950000D03*
X130130000Y-109220000D03*
X134030000Y-109220000D03*
D16*
X127000000Y-109855000D03*
X136525000Y-108585000D03*
X127000000Y-115570000D03*
D17*
X97790000Y-104775000D03*
X97790000Y-111125000D03*
X127000000Y-102870000D03*
X125095000Y-105410000D03*
X95250000Y-101600000D03*
X127000000Y-107950000D03*
X128905000Y-111125000D03*
X95250000Y-106680000D03*
D16*
X104140000Y-109855000D03*
X96520000Y-109855000D03*
D17*
X133985000Y-101600000D03*
X136525000Y-104140000D03*
D16*
X136525000Y-106045000D03*
X133985000Y-112395000D03*
D18*
X135890000Y-107950000D02*
X136525000Y-108585000D01*
X134030000Y-107950000D02*
X135890000Y-107950000D01*
X93980000Y-118110000D02*
X102870000Y-118110000D01*
X102235000Y-118110000D02*
X109220000Y-118110000D01*
D19*
X93980000Y-115570000D02*
X97155000Y-115570000D01*
X97155000Y-115570000D02*
X97790000Y-114935000D01*
X97790000Y-114935000D02*
X97790000Y-111125000D01*
X97790000Y-111125000D02*
X97790000Y-111125000D01*
X97790000Y-104775000D02*
X97790000Y-103505000D01*
X98425000Y-102870000D02*
X102235000Y-102870000D01*
X97790000Y-103505000D02*
X98425000Y-102870000D01*
X95885000Y-102235000D02*
X96520000Y-101600000D01*
X95885000Y-103505000D02*
X95885000Y-102235000D01*
X92710000Y-111760000D02*
X92710000Y-104775000D01*
X93345000Y-104140000D02*
X95250000Y-104140000D01*
X96520000Y-101600000D02*
X120015000Y-101600000D01*
X95250000Y-104140000D02*
X95885000Y-103505000D01*
X93980000Y-113030000D02*
X92710000Y-111760000D01*
X92710000Y-104775000D02*
X93345000Y-104140000D01*
X130130000Y-104140000D02*
X127635000Y-104140000D01*
X127000000Y-103505000D02*
X127000000Y-102870000D01*
X127635000Y-104140000D02*
X127000000Y-103505000D01*
X121285000Y-107950000D02*
X120015000Y-106680000D01*
X116205000Y-113030000D02*
X120650000Y-113030000D01*
X115570000Y-112395000D02*
X116205000Y-113030000D01*
X115570000Y-107950000D02*
X115570000Y-112395000D01*
X121285000Y-112395000D02*
X121285000Y-107950000D01*
X95250000Y-109220000D02*
X95250000Y-107950000D01*
X95250000Y-107950000D02*
X95885000Y-107315000D01*
X93980000Y-110490000D02*
X95250000Y-109220000D01*
X95885000Y-107315000D02*
X114935000Y-107315000D01*
X120650000Y-113030000D02*
X121285000Y-112395000D01*
X114935000Y-107315000D02*
X115570000Y-107950000D01*
X126365000Y-106680000D02*
X125095000Y-105410000D01*
X130130000Y-106680000D02*
X126365000Y-106680000D01*
X96520000Y-97790000D02*
X102235000Y-97790000D01*
X95885000Y-98425000D02*
X96520000Y-97790000D01*
X95885000Y-100965000D02*
X95885000Y-98425000D01*
X95250000Y-101600000D02*
X95885000Y-100965000D01*
X117475000Y-109220000D02*
X120015000Y-109220000D01*
X116840000Y-108585000D02*
X117475000Y-109220000D01*
X95250000Y-105410000D02*
X95885000Y-106045000D01*
X93980000Y-105410000D02*
X95250000Y-105410000D01*
X95885000Y-106045000D02*
X116205000Y-106045000D01*
X116205000Y-106045000D02*
X116840000Y-106680000D01*
X116840000Y-106680000D02*
X116840000Y-108585000D01*
X127000000Y-107950000D02*
X130130000Y-107950000D01*
X95250000Y-106680000D02*
X115570000Y-106680000D01*
X115570000Y-106680000D02*
X116205000Y-107315000D01*
X116205000Y-107315000D02*
X116205000Y-111125000D01*
X116840000Y-111760000D02*
X120015000Y-111760000D01*
X116205000Y-111125000D02*
X116840000Y-111760000D01*
X130130000Y-109220000D02*
X130130000Y-110535000D01*
X129540000Y-111125000D02*
X128905000Y-111125000D01*
X130130000Y-110535000D02*
X129540000Y-111125000D01*
X96520000Y-93980000D02*
X120015000Y-93980000D01*
X95885000Y-94615000D02*
X96520000Y-93980000D01*
X95885000Y-95885000D02*
X95885000Y-94615000D01*
X92710000Y-97155000D02*
X93345000Y-96520000D01*
X92710000Y-99060000D02*
X92710000Y-97155000D01*
X93345000Y-96520000D02*
X95250000Y-96520000D01*
X95250000Y-96520000D02*
X95885000Y-95885000D01*
X93980000Y-100330000D02*
X92710000Y-99060000D01*
X104140000Y-95885000D02*
X106045000Y-97790000D01*
X97155000Y-95885000D02*
X104140000Y-95885000D01*
X93980000Y-97790000D02*
X95250000Y-97790000D01*
X95250000Y-97790000D02*
X97155000Y-95885000D01*
D18*
X104140000Y-109855000D02*
X104140000Y-109855000D01*
X114935000Y-119380000D02*
X120015000Y-119380000D01*
X113665000Y-118110000D02*
X114935000Y-119380000D01*
X113665000Y-111125000D02*
X113665000Y-118110000D01*
X104140000Y-109855000D02*
X112395000Y-109855000D01*
X112395000Y-109855000D02*
X113665000Y-111125000D01*
X97790000Y-109855000D02*
X96593009Y-109855000D01*
X104140000Y-109855000D02*
X97790000Y-109855000D01*
D19*
X121285000Y-100330000D02*
X122555000Y-101600000D01*
X106045000Y-100330000D02*
X121285000Y-100330000D01*
X133985000Y-104095000D02*
X134030000Y-104140000D01*
X133985000Y-101600000D02*
X133985000Y-104095000D01*
X121285000Y-105410000D02*
X123825000Y-105410000D01*
X123825000Y-105410000D02*
X125095000Y-104140000D01*
X124460000Y-93980000D02*
X122555000Y-93980000D01*
X120015000Y-104140000D02*
X121285000Y-105410000D01*
X125095000Y-104140000D02*
X125095000Y-94615000D01*
X125095000Y-94615000D02*
X124460000Y-93980000D01*
X125095000Y-104140000D02*
X126365000Y-105410000D01*
X126365000Y-105410000D02*
X127000000Y-105410000D01*
X130130000Y-105410000D02*
X127000000Y-105410000D01*
X127000000Y-105410000D02*
X126682500Y-105410000D01*
X102235000Y-100330000D02*
X102870000Y-100330000D01*
X122555000Y-104140000D02*
X123190000Y-104140000D01*
X103505000Y-99060000D02*
X102235000Y-100330000D01*
X123825000Y-104140000D02*
X124460000Y-103505000D01*
X122555000Y-104140000D02*
X123825000Y-104140000D01*
X124460000Y-103505000D02*
X124460000Y-100330000D01*
X124460000Y-100330000D02*
X123190000Y-99060000D01*
X123190000Y-99060000D02*
X103505000Y-99060000D01*
X135255000Y-105410000D02*
X136525000Y-104140000D01*
X134030000Y-105410000D02*
X135255000Y-105410000D01*
D18*
X124142500Y-106680000D02*
X122555000Y-106680000D01*
X125095000Y-107632500D02*
X124142500Y-106680000D01*
X125095000Y-120015000D02*
X125095000Y-107632500D01*
X123825000Y-121285000D02*
X125095000Y-120015000D01*
X109220000Y-115570000D02*
X110490000Y-115570000D01*
X110490000Y-115570000D02*
X111760000Y-116840000D01*
X111760000Y-120015000D02*
X113030000Y-121285000D01*
X113030000Y-121285000D02*
X123825000Y-121285000D01*
X111760000Y-116840000D02*
X111760000Y-120015000D01*
X135890000Y-106680000D02*
X136525000Y-106045000D01*
X134030000Y-106680000D02*
X135890000Y-106680000D01*
X122555000Y-119380000D02*
X122555000Y-111760000D01*
X133985000Y-109265000D02*
X134030000Y-109220000D01*
X134030000Y-109220000D02*
X134030000Y-112350000D01*
X134030000Y-112350000D02*
X133985000Y-112395000D01*
D19*
G36*
X137135000Y-119982723D02*
G01*
X137108185Y-120256205D01*
X137038133Y-120488226D01*
X136924350Y-120702222D01*
X136771169Y-120890039D01*
X136584424Y-121044529D01*
X136371231Y-121159802D01*
X136139701Y-121231472D01*
X135868276Y-121260000D01*
X125286841Y-121260000D01*
X125778133Y-120768708D01*
X125816896Y-120736896D01*
X125943860Y-120582190D01*
X126038202Y-120405687D01*
X126096298Y-120214171D01*
X126111000Y-120064902D01*
X126111000Y-120064895D01*
X126115914Y-120015001D01*
X126111000Y-119965107D01*
X126111000Y-108482468D01*
X126196063Y-108609774D01*
X126340226Y-108753937D01*
X126509744Y-108867205D01*
X126698102Y-108945226D01*
X126898061Y-108985000D01*
X127101939Y-108985000D01*
X127301898Y-108945226D01*
X127490256Y-108867205D01*
X127659774Y-108753937D01*
X127701711Y-108712000D01*
X128308289Y-108712000D01*
X128304188Y-108725518D01*
X128291928Y-108850000D01*
X128291928Y-109590000D01*
X128304188Y-109714482D01*
X128340498Y-109834180D01*
X128399463Y-109944494D01*
X128478815Y-110041185D01*
X128575506Y-110120537D01*
X128597290Y-110132181D01*
X128414744Y-110207795D01*
X128245226Y-110321063D01*
X128101063Y-110465226D01*
X127987795Y-110634744D01*
X127909774Y-110823102D01*
X127870000Y-111023061D01*
X127870000Y-111226939D01*
X127909774Y-111426898D01*
X127987795Y-111615256D01*
X128101063Y-111784774D01*
X128245226Y-111928937D01*
X128414744Y-112042205D01*
X128603102Y-112120226D01*
X128803061Y-112160000D01*
X129006939Y-112160000D01*
X129206898Y-112120226D01*
X129395256Y-112042205D01*
X129564774Y-111928937D01*
X129609910Y-111883801D01*
X129689378Y-111875974D01*
X129833015Y-111832402D01*
X129965392Y-111761645D01*
X130081422Y-111666422D01*
X130105283Y-111637347D01*
X130642351Y-111100280D01*
X130671422Y-111076422D01*
X130715214Y-111023061D01*
X130766645Y-110960393D01*
X130837401Y-110828016D01*
X130837402Y-110828015D01*
X130880974Y-110684378D01*
X130892000Y-110572426D01*
X130892000Y-110572424D01*
X130895686Y-110535001D01*
X130892000Y-110497578D01*
X130892000Y-110228072D01*
X131330000Y-110228072D01*
X131454482Y-110215812D01*
X131574180Y-110179502D01*
X131684494Y-110120537D01*
X131781185Y-110041185D01*
X131860537Y-109944494D01*
X131919502Y-109834180D01*
X131955812Y-109714482D01*
X131968072Y-109590000D01*
X131968072Y-108850000D01*
X131955812Y-108725518D01*
X131919502Y-108605820D01*
X131908373Y-108585000D01*
X131919502Y-108564180D01*
X131955812Y-108444482D01*
X131968072Y-108320000D01*
X132191928Y-108320000D01*
X132204188Y-108444482D01*
X132240498Y-108564180D01*
X132251627Y-108585000D01*
X132240498Y-108605820D01*
X132204188Y-108725518D01*
X132191928Y-108850000D01*
X132191928Y-109590000D01*
X132204188Y-109714482D01*
X132240498Y-109834180D01*
X132299463Y-109944494D01*
X132378815Y-110041185D01*
X132475506Y-110120537D01*
X132585820Y-110179502D01*
X132705518Y-110215812D01*
X132830000Y-110228072D01*
X133014000Y-110228072D01*
X133014001Y-111478024D01*
X132948038Y-111543987D01*
X132801939Y-111762641D01*
X132701304Y-112005595D01*
X132650000Y-112263514D01*
X132650000Y-112526486D01*
X132701304Y-112784405D01*
X132801939Y-113027359D01*
X132948038Y-113246013D01*
X133133987Y-113431962D01*
X133352641Y-113578061D01*
X133595595Y-113678696D01*
X133853514Y-113730000D01*
X134116486Y-113730000D01*
X134374405Y-113678696D01*
X134617359Y-113578061D01*
X134836013Y-113431962D01*
X135021962Y-113246013D01*
X135168061Y-113027359D01*
X135268696Y-112784405D01*
X135320000Y-112526486D01*
X135320000Y-112263514D01*
X135268696Y-112005595D01*
X135168061Y-111762641D01*
X135046000Y-111579963D01*
X135046000Y-110228072D01*
X135230000Y-110228072D01*
X135354482Y-110215812D01*
X135474180Y-110179502D01*
X135584494Y-110120537D01*
X135681185Y-110041185D01*
X135760537Y-109944494D01*
X135819502Y-109834180D01*
X135855812Y-109714482D01*
X135868072Y-109590000D01*
X135868072Y-108850000D01*
X135855812Y-108725518D01*
X135819502Y-108605820D01*
X135808373Y-108585000D01*
X135819502Y-108564180D01*
X135855812Y-108444482D01*
X135868072Y-108320000D01*
X135865000Y-108235750D01*
X135706250Y-108077000D01*
X134157000Y-108077000D01*
X134157000Y-108097000D01*
X133903000Y-108097000D01*
X133903000Y-108077000D01*
X132353750Y-108077000D01*
X132195000Y-108235750D01*
X132191928Y-108320000D01*
X131968072Y-108320000D01*
X131968072Y-107696000D01*
X132226750Y-107696000D01*
X132353750Y-107823000D01*
X133903000Y-107823000D01*
X133903000Y-107803000D01*
X134157000Y-107803000D01*
X134157000Y-107823000D01*
X135706250Y-107823000D01*
X135833250Y-107696000D01*
X135840098Y-107696000D01*
X135890000Y-107700915D01*
X135939902Y-107696000D01*
X136089171Y-107681298D01*
X136280687Y-107623202D01*
X136457190Y-107528860D01*
X136611896Y-107401896D01*
X136629866Y-107380000D01*
X136656486Y-107380000D01*
X136914405Y-107328696D01*
X137135000Y-107237322D01*
X137135000Y-119982723D01*
G37*
X137135000Y-119982723D02*
X137108185Y-120256205D01*
X137038133Y-120488226D01*
X136924350Y-120702222D01*
X136771169Y-120890039D01*
X136584424Y-121044529D01*
X136371231Y-121159802D01*
X136139701Y-121231472D01*
X135868276Y-121260000D01*
X125286841Y-121260000D01*
X125778133Y-120768708D01*
X125816896Y-120736896D01*
X125943860Y-120582190D01*
X126038202Y-120405687D01*
X126096298Y-120214171D01*
X126111000Y-120064902D01*
X126111000Y-120064895D01*
X126115914Y-120015001D01*
X126111000Y-119965107D01*
X126111000Y-108482468D01*
X126196063Y-108609774D01*
X126340226Y-108753937D01*
X126509744Y-108867205D01*
X126698102Y-108945226D01*
X126898061Y-108985000D01*
X127101939Y-108985000D01*
X127301898Y-108945226D01*
X127490256Y-108867205D01*
X127659774Y-108753937D01*
X127701711Y-108712000D01*
X128308289Y-108712000D01*
X128304188Y-108725518D01*
X128291928Y-108850000D01*
X128291928Y-109590000D01*
X128304188Y-109714482D01*
X128340498Y-109834180D01*
X128399463Y-109944494D01*
X128478815Y-110041185D01*
X128575506Y-110120537D01*
X128597290Y-110132181D01*
X128414744Y-110207795D01*
X128245226Y-110321063D01*
X128101063Y-110465226D01*
X127987795Y-110634744D01*
X127909774Y-110823102D01*
X127870000Y-111023061D01*
X127870000Y-111226939D01*
X127909774Y-111426898D01*
X127987795Y-111615256D01*
X128101063Y-111784774D01*
X128245226Y-111928937D01*
X128414744Y-112042205D01*
X128603102Y-112120226D01*
X128803061Y-112160000D01*
X129006939Y-112160000D01*
X129206898Y-112120226D01*
X129395256Y-112042205D01*
X129564774Y-111928937D01*
X129609910Y-111883801D01*
X129689378Y-111875974D01*
X129833015Y-111832402D01*
X129965392Y-111761645D01*
X130081422Y-111666422D01*
X130105283Y-111637347D01*
X130642351Y-111100280D01*
X130671422Y-111076422D01*
X130715214Y-111023061D01*
X130766645Y-110960393D01*
X130837401Y-110828016D01*
X130837402Y-110828015D01*
X130880974Y-110684378D01*
X130892000Y-110572426D01*
X130892000Y-110572424D01*
X130895686Y-110535001D01*
X130892000Y-110497578D01*
X130892000Y-110228072D01*
X131330000Y-110228072D01*
X131454482Y-110215812D01*
X131574180Y-110179502D01*
X131684494Y-110120537D01*
X131781185Y-110041185D01*
X131860537Y-109944494D01*
X131919502Y-109834180D01*
X131955812Y-109714482D01*
X131968072Y-109590000D01*
X131968072Y-108850000D01*
X131955812Y-108725518D01*
X131919502Y-108605820D01*
X131908373Y-108585000D01*
X131919502Y-108564180D01*
X131955812Y-108444482D01*
X131968072Y-108320000D01*
X132191928Y-108320000D01*
X132204188Y-108444482D01*
X132240498Y-108564180D01*
X132251627Y-108585000D01*
X132240498Y-108605820D01*
X132204188Y-108725518D01*
X132191928Y-108850000D01*
X132191928Y-109590000D01*
X132204188Y-109714482D01*
X132240498Y-109834180D01*
X132299463Y-109944494D01*
X132378815Y-110041185D01*
X132475506Y-110120537D01*
X132585820Y-110179502D01*
X132705518Y-110215812D01*
X132830000Y-110228072D01*
X133014000Y-110228072D01*
X133014001Y-111478024D01*
X132948038Y-111543987D01*
X132801939Y-111762641D01*
X132701304Y-112005595D01*
X132650000Y-112263514D01*
X132650000Y-112526486D01*
X132701304Y-112784405D01*
X132801939Y-113027359D01*
X132948038Y-113246013D01*
X133133987Y-113431962D01*
X133352641Y-113578061D01*
X133595595Y-113678696D01*
X133853514Y-113730000D01*
X134116486Y-113730000D01*
X134374405Y-113678696D01*
X134617359Y-113578061D01*
X134836013Y-113431962D01*
X135021962Y-113246013D01*
X135168061Y-113027359D01*
X135268696Y-112784405D01*
X135320000Y-112526486D01*
X135320000Y-112263514D01*
X135268696Y-112005595D01*
X135168061Y-111762641D01*
X135046000Y-111579963D01*
X135046000Y-110228072D01*
X135230000Y-110228072D01*
X135354482Y-110215812D01*
X135474180Y-110179502D01*
X135584494Y-110120537D01*
X135681185Y-110041185D01*
X135760537Y-109944494D01*
X135819502Y-109834180D01*
X135855812Y-109714482D01*
X135868072Y-109590000D01*
X135868072Y-108850000D01*
X135855812Y-108725518D01*
X135819502Y-108605820D01*
X135808373Y-108585000D01*
X135819502Y-108564180D01*
X135855812Y-108444482D01*
X135868072Y-108320000D01*
X135865000Y-108235750D01*
X135706250Y-108077000D01*
X134157000Y-108077000D01*
X134157000Y-108097000D01*
X133903000Y-108097000D01*
X133903000Y-108077000D01*
X132353750Y-108077000D01*
X132195000Y-108235750D01*
X132191928Y-108320000D01*
X131968072Y-108320000D01*
X131968072Y-107696000D01*
X132226750Y-107696000D01*
X132353750Y-107823000D01*
X133903000Y-107823000D01*
X133903000Y-107803000D01*
X134157000Y-107803000D01*
X134157000Y-107823000D01*
X135706250Y-107823000D01*
X135833250Y-107696000D01*
X135840098Y-107696000D01*
X135890000Y-107700915D01*
X135939902Y-107696000D01*
X136089171Y-107681298D01*
X136280687Y-107623202D01*
X136457190Y-107528860D01*
X136611896Y-107401896D01*
X136629866Y-107380000D01*
X136656486Y-107380000D01*
X136914405Y-107328696D01*
X137135000Y-107237322D01*
X137135000Y-119982723D01*
M02*
