M48
INCH,TZ
T1C0.0157
T2C0.0276
T3C0.0394
T4C0.0400
%
G90
G05
T1
X37500Y-40000
X37500Y-42000
X38500Y-41250
X38500Y-43750
X49250Y-41500
X50000Y-40500
X50000Y-42500
X50750Y-43750
X52750Y-40000
X53750Y-41000
T2
X38000Y-43250
X41000Y-43250
X50000Y-43250
X50000Y-45500
X52750Y-44250
X53750Y-41750
X53750Y-42750
T3
X40250Y-44500
X40250Y-45500
X40250Y-46500
X43000Y-44500
X43000Y-45500
X43000Y-46500
X47250Y-37000
X48250Y-37000
X40250Y-38500
X40250Y-39500
X40250Y-40500
X41750Y-38500
X41750Y-39500
X41750Y-40500
X36000Y-37500
X36000Y-38500
X36000Y-39500
X36000Y-40500
X36000Y-41500
X36000Y-42500
X36000Y-43500
X36000Y-44500
X36000Y-45500
X36000Y-46500
X37000Y-37500
X37000Y-38500
X37000Y-39500
X37000Y-40500
X37000Y-41500
X37000Y-42500
X37000Y-43500
X37000Y-44500
X37000Y-45500
X37000Y-46500
X47250Y-47000
X48250Y-47000
T4
X47250Y-40000
X47250Y-41000
X47250Y-42000
X47250Y-43000
X47250Y-44000
X48250Y-40000
X48250Y-41000
X48250Y-42000
X48250Y-43000
X48250Y-44000
T0
M30
