G04 #@! TF.GenerationSoftware,KiCad,Pcbnew,5.1.5-52549c5~84~ubuntu19.04.1*
G04 #@! TF.CreationDate,2019-12-10T10:59:35+01:00*
G04 #@! TF.ProjectId,jlink-tagConnect-adapter-v2,6a6c696e-6b2d-4746-9167-436f6e6e6563,rev?*
G04 #@! TF.SameCoordinates,Original*
G04 #@! TF.FileFunction,Legend,Top*
G04 #@! TF.FilePolarity,Positive*
%FSLAX46Y46*%
G04 Gerber Fmt 4.6, Leading zero omitted, Abs format (unit mm)*
G04 Created by KiCad (PCBNEW 5.1.5-52549c5~84~ubuntu19.04.1) date 2019-12-10 10:59:35*
%MOMM*%
%LPD*%
G04 APERTURE LIST*
%ADD10C,0.150000*%
%ADD11C,0.120000*%
G04 APERTURE END LIST*
D10*
X134524714Y-99893380D02*
X133953285Y-99893380D01*
X134239000Y-99893380D02*
X134239000Y-98893380D01*
X134143761Y-99036238D01*
X134048523Y-99131476D01*
X133953285Y-99179095D01*
X134096095Y-93813380D02*
X133619904Y-93813380D01*
X133572285Y-94289571D01*
X133619904Y-94241952D01*
X133715142Y-94194333D01*
X133953238Y-94194333D01*
X134048476Y-94241952D01*
X134096095Y-94289571D01*
X134143714Y-94384809D01*
X134143714Y-94622904D01*
X134096095Y-94718142D01*
X134048476Y-94765761D01*
X133953238Y-94813380D01*
X133715142Y-94813380D01*
X133619904Y-94765761D01*
X133572285Y-94718142D01*
X130492476Y-93813380D02*
X130302000Y-93813380D01*
X130206761Y-93861000D01*
X130159142Y-93908619D01*
X130063904Y-94051476D01*
X130016285Y-94241952D01*
X130016285Y-94622904D01*
X130063904Y-94718142D01*
X130111523Y-94765761D01*
X130206761Y-94813380D01*
X130397238Y-94813380D01*
X130492476Y-94765761D01*
X130540095Y-94718142D01*
X130587714Y-94622904D01*
X130587714Y-94384809D01*
X130540095Y-94289571D01*
X130492476Y-94241952D01*
X130397238Y-94194333D01*
X130206761Y-94194333D01*
X130111523Y-94241952D01*
X130063904Y-94289571D01*
X130016285Y-94384809D01*
X129603523Y-99893380D02*
X129032095Y-99893380D01*
X129317809Y-99893380D02*
X129317809Y-98893380D01*
X129222571Y-99036238D01*
X129127333Y-99131476D01*
X129032095Y-99179095D01*
X130222571Y-98893380D02*
X130317809Y-98893380D01*
X130413047Y-98941000D01*
X130460666Y-98988619D01*
X130508285Y-99083857D01*
X130555904Y-99274333D01*
X130555904Y-99512428D01*
X130508285Y-99702904D01*
X130460666Y-99798142D01*
X130413047Y-99845761D01*
X130317809Y-99893380D01*
X130222571Y-99893380D01*
X130127333Y-99845761D01*
X130079714Y-99798142D01*
X130032095Y-99702904D01*
X129984476Y-99512428D01*
X129984476Y-99274333D01*
X130032095Y-99083857D01*
X130079714Y-98988619D01*
X130127333Y-98941000D01*
X130222571Y-98893380D01*
X114998523Y-102052380D02*
X114427095Y-102052380D01*
X114712809Y-102052380D02*
X114712809Y-101052380D01*
X114617571Y-101195238D01*
X114522333Y-101290476D01*
X114427095Y-101338095D01*
X115617571Y-101052380D02*
X115712809Y-101052380D01*
X115808047Y-101100000D01*
X115855666Y-101147619D01*
X115903285Y-101242857D01*
X115950904Y-101433333D01*
X115950904Y-101671428D01*
X115903285Y-101861904D01*
X115855666Y-101957142D01*
X115808047Y-102004761D01*
X115712809Y-102052380D01*
X115617571Y-102052380D01*
X115522333Y-102004761D01*
X115474714Y-101957142D01*
X115427095Y-101861904D01*
X115379476Y-101671428D01*
X115379476Y-101433333D01*
X115427095Y-101242857D01*
X115474714Y-101147619D01*
X115522333Y-101100000D01*
X115617571Y-101052380D01*
X115411285Y-111307619D02*
X115458904Y-111260000D01*
X115554142Y-111212380D01*
X115792238Y-111212380D01*
X115887476Y-111260000D01*
X115935095Y-111307619D01*
X115982714Y-111402857D01*
X115982714Y-111498095D01*
X115935095Y-111640952D01*
X115363666Y-112212380D01*
X115982714Y-112212380D01*
X126682523Y-102052380D02*
X126873000Y-102052380D01*
X126968238Y-102004761D01*
X127015857Y-101957142D01*
X127111095Y-101814285D01*
X127158714Y-101623809D01*
X127158714Y-101242857D01*
X127111095Y-101147619D01*
X127063476Y-101100000D01*
X126968238Y-101052380D01*
X126777761Y-101052380D01*
X126682523Y-101100000D01*
X126634904Y-101147619D01*
X126587285Y-101242857D01*
X126587285Y-101480952D01*
X126634904Y-101576190D01*
X126682523Y-101623809D01*
X126777761Y-101671428D01*
X126968238Y-101671428D01*
X127063476Y-101623809D01*
X127111095Y-101576190D01*
X127158714Y-101480952D01*
X127158714Y-112212380D02*
X126587285Y-112212380D01*
X126873000Y-112212380D02*
X126873000Y-111212380D01*
X126777761Y-111355238D01*
X126682523Y-111450476D01*
X126587285Y-111498095D01*
D11*
X111760000Y-95250000D02*
X96520000Y-95250000D01*
X111760000Y-92710000D02*
X111760000Y-95250000D01*
X96520000Y-92710000D02*
X111760000Y-92710000D01*
X96520000Y-95250000D02*
X96520000Y-92710000D01*
D10*
X97449523Y-94432380D02*
X97449523Y-93908571D01*
X97401904Y-93813333D01*
X97306666Y-93765714D01*
X97116190Y-93765714D01*
X97020952Y-93813333D01*
X97449523Y-94384761D02*
X97354285Y-94432380D01*
X97116190Y-94432380D01*
X97020952Y-94384761D01*
X96973333Y-94289523D01*
X96973333Y-94194285D01*
X97020952Y-94099047D01*
X97116190Y-94051428D01*
X97354285Y-94051428D01*
X97449523Y-94003809D01*
X98354285Y-94432380D02*
X98354285Y-93432380D01*
X98354285Y-94384761D02*
X98259047Y-94432380D01*
X98068571Y-94432380D01*
X97973333Y-94384761D01*
X97925714Y-94337142D01*
X97878095Y-94241904D01*
X97878095Y-93956190D01*
X97925714Y-93860952D01*
X97973333Y-93813333D01*
X98068571Y-93765714D01*
X98259047Y-93765714D01*
X98354285Y-93813333D01*
X99259047Y-94432380D02*
X99259047Y-93908571D01*
X99211428Y-93813333D01*
X99116190Y-93765714D01*
X98925714Y-93765714D01*
X98830476Y-93813333D01*
X99259047Y-94384761D02*
X99163809Y-94432380D01*
X98925714Y-94432380D01*
X98830476Y-94384761D01*
X98782857Y-94289523D01*
X98782857Y-94194285D01*
X98830476Y-94099047D01*
X98925714Y-94051428D01*
X99163809Y-94051428D01*
X99259047Y-94003809D01*
X99735238Y-93765714D02*
X99735238Y-94765714D01*
X99735238Y-93813333D02*
X99830476Y-93765714D01*
X100020952Y-93765714D01*
X100116190Y-93813333D01*
X100163809Y-93860952D01*
X100211428Y-93956190D01*
X100211428Y-94241904D01*
X100163809Y-94337142D01*
X100116190Y-94384761D01*
X100020952Y-94432380D01*
X99830476Y-94432380D01*
X99735238Y-94384761D01*
X100497142Y-93765714D02*
X100878095Y-93765714D01*
X100639999Y-93432380D02*
X100639999Y-94289523D01*
X100687619Y-94384761D01*
X100782857Y-94432380D01*
X100878095Y-94432380D01*
X101592380Y-94384761D02*
X101497142Y-94432380D01*
X101306666Y-94432380D01*
X101211428Y-94384761D01*
X101163809Y-94289523D01*
X101163809Y-93908571D01*
X101211428Y-93813333D01*
X101306666Y-93765714D01*
X101497142Y-93765714D01*
X101592380Y-93813333D01*
X101639999Y-93908571D01*
X101639999Y-94003809D01*
X101163809Y-94099047D01*
X102068571Y-94432380D02*
X102068571Y-93765714D01*
X102068571Y-93956190D02*
X102116190Y-93860952D01*
X102163809Y-93813333D01*
X102259047Y-93765714D01*
X102354285Y-93765714D01*
X102687619Y-94337142D02*
X102735238Y-94384761D01*
X102687619Y-94432380D01*
X102639999Y-94384761D01*
X102687619Y-94337142D01*
X102687619Y-94432380D01*
X103163809Y-94432380D02*
X103163809Y-93432380D01*
X103163809Y-93813333D02*
X103259047Y-93765714D01*
X103449523Y-93765714D01*
X103544761Y-93813333D01*
X103592380Y-93860952D01*
X103639999Y-93956190D01*
X103639999Y-94241904D01*
X103592380Y-94337142D01*
X103544761Y-94384761D01*
X103449523Y-94432380D01*
X103259047Y-94432380D01*
X103163809Y-94384761D01*
X104068571Y-94432380D02*
X104068571Y-93765714D01*
X104068571Y-93956190D02*
X104116190Y-93860952D01*
X104163809Y-93813333D01*
X104259047Y-93765714D01*
X104354285Y-93765714D01*
X105068571Y-94384761D02*
X104973333Y-94432380D01*
X104782857Y-94432380D01*
X104687619Y-94384761D01*
X104639999Y-94289523D01*
X104639999Y-93908571D01*
X104687619Y-93813333D01*
X104782857Y-93765714D01*
X104973333Y-93765714D01*
X105068571Y-93813333D01*
X105116190Y-93908571D01*
X105116190Y-94003809D01*
X104639999Y-94099047D01*
X105973333Y-94384761D02*
X105878095Y-94432380D01*
X105687619Y-94432380D01*
X105592380Y-94384761D01*
X105544761Y-94337142D01*
X105497142Y-94241904D01*
X105497142Y-93956190D01*
X105544761Y-93860952D01*
X105592380Y-93813333D01*
X105687619Y-93765714D01*
X105878095Y-93765714D01*
X105973333Y-93813333D01*
X106401904Y-94432380D02*
X106401904Y-93432380D01*
X106830476Y-94432380D02*
X106830476Y-93908571D01*
X106782857Y-93813333D01*
X106687619Y-93765714D01*
X106544761Y-93765714D01*
X106449523Y-93813333D01*
X106401904Y-93860952D01*
X107163809Y-93765714D02*
X107544761Y-93765714D01*
X107306666Y-93432380D02*
X107306666Y-94289523D01*
X107354285Y-94384761D01*
X107449523Y-94432380D01*
X107544761Y-94432380D01*
X107782857Y-93765714D02*
X108020952Y-94432380D01*
X108259047Y-93765714D01*
X109020952Y-94384761D02*
X108925714Y-94432380D01*
X108735238Y-94432380D01*
X108639999Y-94384761D01*
X108592380Y-94289523D01*
X108592380Y-93908571D01*
X108639999Y-93813333D01*
X108735238Y-93765714D01*
X108925714Y-93765714D01*
X109020952Y-93813333D01*
X109068571Y-93908571D01*
X109068571Y-94003809D01*
X108592380Y-94099047D01*
X109497142Y-94337142D02*
X109544761Y-94384761D01*
X109497142Y-94432380D01*
X109449523Y-94384761D01*
X109497142Y-94337142D01*
X109497142Y-94432380D01*
X109973333Y-94432380D02*
X109973333Y-93432380D01*
X109973333Y-93813333D02*
X110068571Y-93765714D01*
X110259047Y-93765714D01*
X110354285Y-93813333D01*
X110401904Y-93860952D01*
X110449523Y-93956190D01*
X110449523Y-94241904D01*
X110401904Y-94337142D01*
X110354285Y-94384761D01*
X110259047Y-94432380D01*
X110068571Y-94432380D01*
X109973333Y-94384761D01*
X111259047Y-94384761D02*
X111163809Y-94432380D01*
X110973333Y-94432380D01*
X110878095Y-94384761D01*
X110830476Y-94289523D01*
X110830476Y-93908571D01*
X110878095Y-93813333D01*
X110973333Y-93765714D01*
X111163809Y-93765714D01*
X111259047Y-93813333D01*
X111306666Y-93908571D01*
X111306666Y-94003809D01*
X110830476Y-94099047D01*
X113726785Y-118832380D02*
X114060119Y-119832380D01*
X114393452Y-118832380D01*
X114583928Y-118832380D02*
X115155357Y-118832380D01*
X114869642Y-119832380D02*
X114869642Y-118832380D01*
X116060119Y-119832380D02*
X115726785Y-119356190D01*
X115488690Y-119832380D02*
X115488690Y-118832380D01*
X115869642Y-118832380D01*
X115964880Y-118880000D01*
X116012500Y-118927619D01*
X116060119Y-119022857D01*
X116060119Y-119165714D01*
X116012500Y-119260952D01*
X115964880Y-119308571D01*
X115869642Y-119356190D01*
X115488690Y-119356190D01*
X116488690Y-119308571D02*
X116822023Y-119308571D01*
X116964880Y-119832380D02*
X116488690Y-119832380D01*
X116488690Y-118832380D01*
X116964880Y-118832380D01*
X117726785Y-119308571D02*
X117393452Y-119308571D01*
X117393452Y-119832380D02*
X117393452Y-118832380D01*
X117869642Y-118832380D01*
X99790952Y-106577380D02*
X99314761Y-106577380D01*
X99267142Y-107053571D01*
X99314761Y-107005952D01*
X99410000Y-106958333D01*
X99648095Y-106958333D01*
X99743333Y-107005952D01*
X99790952Y-107053571D01*
X99838571Y-107148809D01*
X99838571Y-107386904D01*
X99790952Y-107482142D01*
X99743333Y-107529761D01*
X99648095Y-107577380D01*
X99410000Y-107577380D01*
X99314761Y-107529761D01*
X99267142Y-107482142D01*
X100124285Y-106577380D02*
X100457619Y-107577380D01*
X100790952Y-106577380D01*
X101124285Y-107482142D02*
X101171904Y-107529761D01*
X101124285Y-107577380D01*
X101076666Y-107529761D01*
X101124285Y-107482142D01*
X101124285Y-107577380D01*
X101124285Y-106958333D02*
X101171904Y-107005952D01*
X101124285Y-107053571D01*
X101076666Y-107005952D01*
X101124285Y-106958333D01*
X101124285Y-107053571D01*
X102267142Y-106577380D02*
X102886190Y-106577380D01*
X102552857Y-106958333D01*
X102695714Y-106958333D01*
X102790952Y-107005952D01*
X102838571Y-107053571D01*
X102886190Y-107148809D01*
X102886190Y-107386904D01*
X102838571Y-107482142D01*
X102790952Y-107529761D01*
X102695714Y-107577380D01*
X102410000Y-107577380D01*
X102314761Y-107529761D01*
X102267142Y-107482142D01*
X103505238Y-106577380D02*
X103600476Y-106577380D01*
X103695714Y-106625000D01*
X103743333Y-106672619D01*
X103790952Y-106767857D01*
X103838571Y-106958333D01*
X103838571Y-107196428D01*
X103790952Y-107386904D01*
X103743333Y-107482142D01*
X103695714Y-107529761D01*
X103600476Y-107577380D01*
X103505238Y-107577380D01*
X103410000Y-107529761D01*
X103362380Y-107482142D01*
X103314761Y-107386904D01*
X103267142Y-107196428D01*
X103267142Y-106958333D01*
X103314761Y-106767857D01*
X103362380Y-106672619D01*
X103410000Y-106625000D01*
X103505238Y-106577380D01*
X104457619Y-106577380D02*
X104552857Y-106577380D01*
X104648095Y-106625000D01*
X104695714Y-106672619D01*
X104743333Y-106767857D01*
X104790952Y-106958333D01*
X104790952Y-107196428D01*
X104743333Y-107386904D01*
X104695714Y-107482142D01*
X104648095Y-107529761D01*
X104552857Y-107577380D01*
X104457619Y-107577380D01*
X104362380Y-107529761D01*
X104314761Y-107482142D01*
X104267142Y-107386904D01*
X104219523Y-107196428D01*
X104219523Y-106958333D01*
X104267142Y-106767857D01*
X104314761Y-106672619D01*
X104362380Y-106625000D01*
X104457619Y-106577380D01*
X105981428Y-107577380D02*
X105981428Y-106910714D01*
X105981428Y-107005952D02*
X106029047Y-106958333D01*
X106124285Y-106910714D01*
X106267142Y-106910714D01*
X106362380Y-106958333D01*
X106410000Y-107053571D01*
X106410000Y-107577380D01*
X106410000Y-107053571D02*
X106457619Y-106958333D01*
X106552857Y-106910714D01*
X106695714Y-106910714D01*
X106790952Y-106958333D01*
X106838571Y-107053571D01*
X106838571Y-107577380D01*
X107267142Y-107291666D02*
X107743333Y-107291666D01*
X107171904Y-107577380D02*
X107505238Y-106577380D01*
X107838571Y-107577380D01*
X108933809Y-107577380D02*
X108933809Y-106910714D01*
X108933809Y-107005952D02*
X108981428Y-106958333D01*
X109076666Y-106910714D01*
X109219523Y-106910714D01*
X109314761Y-106958333D01*
X109362380Y-107053571D01*
X109362380Y-107577380D01*
X109362380Y-107053571D02*
X109410000Y-106958333D01*
X109505238Y-106910714D01*
X109648095Y-106910714D01*
X109743333Y-106958333D01*
X109790952Y-107053571D01*
X109790952Y-107577380D01*
X110695714Y-107577380D02*
X110695714Y-107053571D01*
X110648095Y-106958333D01*
X110552857Y-106910714D01*
X110362380Y-106910714D01*
X110267142Y-106958333D01*
X110695714Y-107529761D02*
X110600476Y-107577380D01*
X110362380Y-107577380D01*
X110267142Y-107529761D01*
X110219523Y-107434523D01*
X110219523Y-107339285D01*
X110267142Y-107244047D01*
X110362380Y-107196428D01*
X110600476Y-107196428D01*
X110695714Y-107148809D01*
X111076666Y-107577380D02*
X111600476Y-106910714D01*
X111076666Y-106910714D02*
X111600476Y-107577380D01*
X96624285Y-109608333D02*
X96576666Y-109560714D01*
X96481428Y-109417857D01*
X96433809Y-109322619D01*
X96386190Y-109179761D01*
X96338571Y-108941666D01*
X96338571Y-108751190D01*
X96386190Y-108513095D01*
X96433809Y-108370238D01*
X96481428Y-108275000D01*
X96576666Y-108132142D01*
X96624285Y-108084523D01*
X97005238Y-109227380D02*
X97005238Y-108560714D01*
X97005238Y-108655952D02*
X97052857Y-108608333D01*
X97148095Y-108560714D01*
X97290952Y-108560714D01*
X97386190Y-108608333D01*
X97433809Y-108703571D01*
X97433809Y-109227380D01*
X97433809Y-108703571D02*
X97481428Y-108608333D01*
X97576666Y-108560714D01*
X97719523Y-108560714D01*
X97814761Y-108608333D01*
X97862380Y-108703571D01*
X97862380Y-109227380D01*
X98481428Y-109227380D02*
X98386190Y-109179761D01*
X98338571Y-109132142D01*
X98290952Y-109036904D01*
X98290952Y-108751190D01*
X98338571Y-108655952D01*
X98386190Y-108608333D01*
X98481428Y-108560714D01*
X98624285Y-108560714D01*
X98719523Y-108608333D01*
X98767142Y-108655952D01*
X98814761Y-108751190D01*
X98814761Y-109036904D01*
X98767142Y-109132142D01*
X98719523Y-109179761D01*
X98624285Y-109227380D01*
X98481428Y-109227380D01*
X99243333Y-108560714D02*
X99243333Y-109227380D01*
X99243333Y-108655952D02*
X99290952Y-108608333D01*
X99386190Y-108560714D01*
X99529047Y-108560714D01*
X99624285Y-108608333D01*
X99671904Y-108703571D01*
X99671904Y-109227380D01*
X100148095Y-109227380D02*
X100148095Y-108560714D01*
X100148095Y-108227380D02*
X100100476Y-108275000D01*
X100148095Y-108322619D01*
X100195714Y-108275000D01*
X100148095Y-108227380D01*
X100148095Y-108322619D01*
X100481428Y-108560714D02*
X100862380Y-108560714D01*
X100624285Y-108227380D02*
X100624285Y-109084523D01*
X100671904Y-109179761D01*
X100767142Y-109227380D01*
X100862380Y-109227380D01*
X101338571Y-109227380D02*
X101243333Y-109179761D01*
X101195714Y-109132142D01*
X101148095Y-109036904D01*
X101148095Y-108751190D01*
X101195714Y-108655952D01*
X101243333Y-108608333D01*
X101338571Y-108560714D01*
X101481428Y-108560714D01*
X101576666Y-108608333D01*
X101624285Y-108655952D01*
X101671904Y-108751190D01*
X101671904Y-109036904D01*
X101624285Y-109132142D01*
X101576666Y-109179761D01*
X101481428Y-109227380D01*
X101338571Y-109227380D01*
X102100476Y-109227380D02*
X102100476Y-108560714D01*
X102100476Y-108751190D02*
X102148095Y-108655952D01*
X102195714Y-108608333D01*
X102290952Y-108560714D01*
X102386190Y-108560714D01*
X103100476Y-109179761D02*
X103005238Y-109227380D01*
X102814761Y-109227380D01*
X102719523Y-109179761D01*
X102671904Y-109084523D01*
X102671904Y-108703571D01*
X102719523Y-108608333D01*
X102814761Y-108560714D01*
X103005238Y-108560714D01*
X103100476Y-108608333D01*
X103148095Y-108703571D01*
X103148095Y-108798809D01*
X102671904Y-108894047D01*
X104005238Y-109227380D02*
X104005238Y-108227380D01*
X104005238Y-109179761D02*
X103910000Y-109227380D01*
X103719523Y-109227380D01*
X103624285Y-109179761D01*
X103576666Y-109132142D01*
X103529047Y-109036904D01*
X103529047Y-108751190D01*
X103576666Y-108655952D01*
X103624285Y-108608333D01*
X103719523Y-108560714D01*
X103910000Y-108560714D01*
X104005238Y-108608333D01*
X106052857Y-109227380D02*
X106005238Y-109227380D01*
X105910000Y-109179761D01*
X105767142Y-109036904D01*
X105529047Y-108751190D01*
X105433809Y-108608333D01*
X105386190Y-108465476D01*
X105386190Y-108370238D01*
X105433809Y-108275000D01*
X105529047Y-108227380D01*
X105576666Y-108227380D01*
X105671904Y-108275000D01*
X105719523Y-108370238D01*
X105719523Y-108417857D01*
X105671904Y-108513095D01*
X105624285Y-108560714D01*
X105338571Y-108751190D01*
X105290952Y-108798809D01*
X105243333Y-108894047D01*
X105243333Y-109036904D01*
X105290952Y-109132142D01*
X105338571Y-109179761D01*
X105433809Y-109227380D01*
X105576666Y-109227380D01*
X105671904Y-109179761D01*
X105719523Y-109132142D01*
X105862380Y-108941666D01*
X105910000Y-108798809D01*
X105910000Y-108703571D01*
X107243333Y-108560714D02*
X107243333Y-109560714D01*
X107243333Y-108608333D02*
X107338571Y-108560714D01*
X107529047Y-108560714D01*
X107624285Y-108608333D01*
X107671904Y-108655952D01*
X107719523Y-108751190D01*
X107719523Y-109036904D01*
X107671904Y-109132142D01*
X107624285Y-109179761D01*
X107529047Y-109227380D01*
X107338571Y-109227380D01*
X107243333Y-109179761D01*
X108148095Y-109227380D02*
X108148095Y-108560714D01*
X108148095Y-108751190D02*
X108195714Y-108655952D01*
X108243333Y-108608333D01*
X108338571Y-108560714D01*
X108433809Y-108560714D01*
X108910000Y-109227380D02*
X108814761Y-109179761D01*
X108767142Y-109132142D01*
X108719523Y-109036904D01*
X108719523Y-108751190D01*
X108767142Y-108655952D01*
X108814761Y-108608333D01*
X108910000Y-108560714D01*
X109052857Y-108560714D01*
X109148095Y-108608333D01*
X109195714Y-108655952D01*
X109243333Y-108751190D01*
X109243333Y-109036904D01*
X109195714Y-109132142D01*
X109148095Y-109179761D01*
X109052857Y-109227380D01*
X108910000Y-109227380D01*
X109529047Y-108560714D02*
X109910000Y-108560714D01*
X109671904Y-108227380D02*
X109671904Y-109084523D01*
X109719523Y-109179761D01*
X109814761Y-109227380D01*
X109910000Y-109227380D01*
X110624285Y-109179761D02*
X110529047Y-109227380D01*
X110338571Y-109227380D01*
X110243333Y-109179761D01*
X110195714Y-109084523D01*
X110195714Y-108703571D01*
X110243333Y-108608333D01*
X110338571Y-108560714D01*
X110529047Y-108560714D01*
X110624285Y-108608333D01*
X110671904Y-108703571D01*
X110671904Y-108798809D01*
X110195714Y-108894047D01*
X111529047Y-109179761D02*
X111433809Y-109227380D01*
X111243333Y-109227380D01*
X111148095Y-109179761D01*
X111100476Y-109132142D01*
X111052857Y-109036904D01*
X111052857Y-108751190D01*
X111100476Y-108655952D01*
X111148095Y-108608333D01*
X111243333Y-108560714D01*
X111433809Y-108560714D01*
X111529047Y-108608333D01*
X111814761Y-108560714D02*
X112195714Y-108560714D01*
X111957619Y-108227380D02*
X111957619Y-109084523D01*
X112005238Y-109179761D01*
X112100476Y-109227380D01*
X112195714Y-109227380D01*
X112910000Y-109179761D02*
X112814761Y-109227380D01*
X112624285Y-109227380D01*
X112529047Y-109179761D01*
X112481428Y-109084523D01*
X112481428Y-108703571D01*
X112529047Y-108608333D01*
X112624285Y-108560714D01*
X112814761Y-108560714D01*
X112910000Y-108608333D01*
X112957619Y-108703571D01*
X112957619Y-108798809D01*
X112481428Y-108894047D01*
X113814761Y-109227380D02*
X113814761Y-108227380D01*
X113814761Y-109179761D02*
X113719523Y-109227380D01*
X113529047Y-109227380D01*
X113433809Y-109179761D01*
X113386190Y-109132142D01*
X113338571Y-109036904D01*
X113338571Y-108751190D01*
X113386190Y-108655952D01*
X113433809Y-108608333D01*
X113529047Y-108560714D01*
X113719523Y-108560714D01*
X113814761Y-108608333D01*
X114195714Y-109608333D02*
X114243333Y-109560714D01*
X114338571Y-109417857D01*
X114386190Y-109322619D01*
X114433809Y-109179761D01*
X114481428Y-108941666D01*
X114481428Y-108751190D01*
X114433809Y-108513095D01*
X114386190Y-108370238D01*
X114338571Y-108275000D01*
X114243333Y-108132142D01*
X114195714Y-108084523D01*
X98042023Y-112482380D02*
X98042023Y-113196666D01*
X97994404Y-113339523D01*
X97899166Y-113434761D01*
X97756309Y-113482380D01*
X97661071Y-113482380D01*
X98518214Y-113482380D02*
X98518214Y-112482380D01*
X98899166Y-112482380D01*
X98994404Y-112530000D01*
X99042023Y-112577619D01*
X99089642Y-112672857D01*
X99089642Y-112815714D01*
X99042023Y-112910952D01*
X98994404Y-112958571D01*
X98899166Y-113006190D01*
X98518214Y-113006190D01*
X99422976Y-112482380D02*
X100089642Y-112482380D01*
X99661071Y-113482380D01*
X98042023Y-115022380D02*
X98042023Y-115736666D01*
X97994404Y-115879523D01*
X97899166Y-115974761D01*
X97756309Y-116022380D01*
X97661071Y-116022380D01*
X98518214Y-116022380D02*
X98518214Y-115022380D01*
X98899166Y-115022380D01*
X98994404Y-115070000D01*
X99042023Y-115117619D01*
X99089642Y-115212857D01*
X99089642Y-115355714D01*
X99042023Y-115450952D01*
X98994404Y-115498571D01*
X98899166Y-115546190D01*
X98518214Y-115546190D01*
X99946785Y-115022380D02*
X99756309Y-115022380D01*
X99661071Y-115070000D01*
X99613452Y-115117619D01*
X99518214Y-115260476D01*
X99470595Y-115450952D01*
X99470595Y-115831904D01*
X99518214Y-115927142D01*
X99565833Y-115974761D01*
X99661071Y-116022380D01*
X99851547Y-116022380D01*
X99946785Y-115974761D01*
X99994404Y-115927142D01*
X100042023Y-115831904D01*
X100042023Y-115593809D01*
X99994404Y-115498571D01*
X99946785Y-115450952D01*
X99851547Y-115403333D01*
X99661071Y-115403333D01*
X99565833Y-115450952D01*
X99518214Y-115498571D01*
X99470595Y-115593809D01*
X129984523Y-102687380D02*
X129413095Y-102687380D01*
X129698809Y-102687380D02*
X129698809Y-101687380D01*
X129603571Y-101830238D01*
X129508333Y-101925476D01*
X129413095Y-101973095D01*
X130603571Y-101687380D02*
X130698809Y-101687380D01*
X130794047Y-101735000D01*
X130841666Y-101782619D01*
X130889285Y-101877857D01*
X130936904Y-102068333D01*
X130936904Y-102306428D01*
X130889285Y-102496904D01*
X130841666Y-102592142D01*
X130794047Y-102639761D01*
X130698809Y-102687380D01*
X130603571Y-102687380D01*
X130508333Y-102639761D01*
X130460714Y-102592142D01*
X130413095Y-102496904D01*
X130365476Y-102306428D01*
X130365476Y-102068333D01*
X130413095Y-101877857D01*
X130460714Y-101782619D01*
X130508333Y-101735000D01*
X130603571Y-101687380D01*
X133794523Y-102687380D02*
X133985000Y-102687380D01*
X134080238Y-102639761D01*
X134127857Y-102592142D01*
X134223095Y-102449285D01*
X134270714Y-102258809D01*
X134270714Y-101877857D01*
X134223095Y-101782619D01*
X134175476Y-101735000D01*
X134080238Y-101687380D01*
X133889761Y-101687380D01*
X133794523Y-101735000D01*
X133746904Y-101782619D01*
X133699285Y-101877857D01*
X133699285Y-102115952D01*
X133746904Y-102211190D01*
X133794523Y-102258809D01*
X133889761Y-102306428D01*
X134080238Y-102306428D01*
X134175476Y-102258809D01*
X134223095Y-102211190D01*
X134270714Y-102115952D01*
X129889285Y-110672619D02*
X129936904Y-110625000D01*
X130032142Y-110577380D01*
X130270238Y-110577380D01*
X130365476Y-110625000D01*
X130413095Y-110672619D01*
X130460714Y-110767857D01*
X130460714Y-110863095D01*
X130413095Y-111005952D01*
X129841666Y-111577380D01*
X130460714Y-111577380D01*
X134270714Y-111577380D02*
X133699285Y-111577380D01*
X133985000Y-111577380D02*
X133985000Y-110577380D01*
X133889761Y-110720238D01*
X133794523Y-110815476D01*
X133699285Y-110863095D01*
X124795595Y-119832380D02*
X124795595Y-118832380D01*
X125176547Y-118832380D01*
X125271785Y-118880000D01*
X125319404Y-118927619D01*
X125367023Y-119022857D01*
X125367023Y-119165714D01*
X125319404Y-119260952D01*
X125271785Y-119308571D01*
X125176547Y-119356190D01*
X124795595Y-119356190D01*
X125795595Y-119832380D02*
X125795595Y-118832380D01*
X126271785Y-119832380D02*
X126271785Y-118832380D01*
X126843214Y-119832380D01*
X126843214Y-118832380D01*
X127843214Y-119832380D02*
X127271785Y-119832380D01*
X127557500Y-119832380D02*
X127557500Y-118832380D01*
X127462261Y-118975238D01*
X127367023Y-119070476D01*
X127271785Y-119118095D01*
X115869642Y-94194380D02*
X116441071Y-94194380D01*
X116155357Y-95194380D02*
X116155357Y-94194380D01*
X116774404Y-95194380D02*
X116774404Y-94194380D01*
X117012500Y-94194380D01*
X117155357Y-94242000D01*
X117250595Y-94337238D01*
X117298214Y-94432476D01*
X117345833Y-94622952D01*
X117345833Y-94765809D01*
X117298214Y-94956285D01*
X117250595Y-95051523D01*
X117155357Y-95146761D01*
X117012500Y-95194380D01*
X116774404Y-95194380D01*
X117774404Y-95194380D02*
X117774404Y-94194380D01*
X114774404Y-92797380D02*
X114774404Y-93511666D01*
X114726785Y-93654523D01*
X114631547Y-93749761D01*
X114488690Y-93797380D01*
X114393452Y-93797380D01*
X115726785Y-93797380D02*
X115250595Y-93797380D01*
X115250595Y-92797380D01*
X116060119Y-93702142D02*
X116107738Y-93749761D01*
X116060119Y-93797380D01*
X116012500Y-93749761D01*
X116060119Y-93702142D01*
X116060119Y-93797380D01*
X116393452Y-92797380D02*
X116964880Y-92797380D01*
X116679166Y-93797380D02*
X116679166Y-92797380D01*
X117202976Y-92797380D02*
X117869642Y-93797380D01*
X117869642Y-92797380D02*
X117202976Y-93797380D01*
X124795595Y-94432380D02*
X124795595Y-93432380D01*
X125176547Y-93432380D01*
X125271785Y-93480000D01*
X125319404Y-93527619D01*
X125367023Y-93622857D01*
X125367023Y-93765714D01*
X125319404Y-93860952D01*
X125271785Y-93908571D01*
X125176547Y-93956190D01*
X124795595Y-93956190D01*
X125795595Y-94432380D02*
X125795595Y-93432380D01*
X126271785Y-94432380D02*
X126271785Y-93432380D01*
X126843214Y-94432380D01*
X126843214Y-93432380D01*
X127462261Y-93860952D02*
X127367023Y-93813333D01*
X127319404Y-93765714D01*
X127271785Y-93670476D01*
X127271785Y-93622857D01*
X127319404Y-93527619D01*
X127367023Y-93480000D01*
X127462261Y-93432380D01*
X127652738Y-93432380D01*
X127747976Y-93480000D01*
X127795595Y-93527619D01*
X127843214Y-93622857D01*
X127843214Y-93670476D01*
X127795595Y-93765714D01*
X127747976Y-93813333D01*
X127652738Y-93860952D01*
X127462261Y-93860952D01*
X127367023Y-93908571D01*
X127319404Y-93956190D01*
X127271785Y-94051428D01*
X127271785Y-94241904D01*
X127319404Y-94337142D01*
X127367023Y-94384761D01*
X127462261Y-94432380D01*
X127652738Y-94432380D01*
X127747976Y-94384761D01*
X127795595Y-94337142D01*
X127843214Y-94241904D01*
X127843214Y-94051428D01*
X127795595Y-93956190D01*
X127747976Y-93908571D01*
X127652738Y-93860952D01*
X111984404Y-112530000D02*
X111889166Y-112482380D01*
X111746309Y-112482380D01*
X111603452Y-112530000D01*
X111508214Y-112625238D01*
X111460595Y-112720476D01*
X111412976Y-112910952D01*
X111412976Y-113053809D01*
X111460595Y-113244285D01*
X111508214Y-113339523D01*
X111603452Y-113434761D01*
X111746309Y-113482380D01*
X111841547Y-113482380D01*
X111984404Y-113434761D01*
X112032023Y-113387142D01*
X112032023Y-113053809D01*
X111841547Y-113053809D01*
X112460595Y-113482380D02*
X112460595Y-112482380D01*
X113032023Y-113482380D01*
X113032023Y-112482380D01*
X113508214Y-113482380D02*
X113508214Y-112482380D01*
X113746309Y-112482380D01*
X113889166Y-112530000D01*
X113984404Y-112625238D01*
X114032023Y-112720476D01*
X114079642Y-112910952D01*
X114079642Y-113053809D01*
X114032023Y-113244285D01*
X113984404Y-113339523D01*
X113889166Y-113434761D01*
X113746309Y-113482380D01*
X113508214Y-113482380D01*
X111936785Y-117562380D02*
X111460595Y-117562380D01*
X111412976Y-118038571D01*
X111460595Y-117990952D01*
X111555833Y-117943333D01*
X111793928Y-117943333D01*
X111889166Y-117990952D01*
X111936785Y-118038571D01*
X111984404Y-118133809D01*
X111984404Y-118371904D01*
X111936785Y-118467142D01*
X111889166Y-118514761D01*
X111793928Y-118562380D01*
X111555833Y-118562380D01*
X111460595Y-118514761D01*
X111412976Y-118467142D01*
X112270119Y-117562380D02*
X112603452Y-118562380D01*
X112936785Y-117562380D01*
X111460595Y-116022380D02*
X111460595Y-115022380D01*
X111841547Y-115022380D01*
X111936785Y-115070000D01*
X111984404Y-115117619D01*
X112032023Y-115212857D01*
X112032023Y-115355714D01*
X111984404Y-115450952D01*
X111936785Y-115498571D01*
X111841547Y-115546190D01*
X111460595Y-115546190D01*
X112460595Y-116022380D02*
X112460595Y-115022380D01*
X112936785Y-116022380D02*
X112936785Y-115022380D01*
X113508214Y-116022380D01*
X113508214Y-115022380D01*
X114460595Y-115022380D02*
X113984404Y-115022380D01*
X113936785Y-115498571D01*
X113984404Y-115450952D01*
X114079642Y-115403333D01*
X114317738Y-115403333D01*
X114412976Y-115450952D01*
X114460595Y-115498571D01*
X114508214Y-115593809D01*
X114508214Y-115831904D01*
X114460595Y-115927142D01*
X114412976Y-115974761D01*
X114317738Y-116022380D01*
X114079642Y-116022380D01*
X113984404Y-115974761D01*
X113936785Y-115927142D01*
X99137261Y-117562380D02*
X98661071Y-117562380D01*
X98613452Y-118038571D01*
X98661071Y-117990952D01*
X98756309Y-117943333D01*
X98994404Y-117943333D01*
X99089642Y-117990952D01*
X99137261Y-118038571D01*
X99184880Y-118133809D01*
X99184880Y-118371904D01*
X99137261Y-118467142D01*
X99089642Y-118514761D01*
X98994404Y-118562380D01*
X98756309Y-118562380D01*
X98661071Y-118514761D01*
X98613452Y-118467142D01*
X99470595Y-117562380D02*
X99803928Y-118562380D01*
X100137261Y-117562380D01*
X108809404Y-102370000D02*
X108714166Y-102322380D01*
X108571309Y-102322380D01*
X108428452Y-102370000D01*
X108333214Y-102465238D01*
X108285595Y-102560476D01*
X108237976Y-102750952D01*
X108237976Y-102893809D01*
X108285595Y-103084285D01*
X108333214Y-103179523D01*
X108428452Y-103274761D01*
X108571309Y-103322380D01*
X108666547Y-103322380D01*
X108809404Y-103274761D01*
X108857023Y-103227142D01*
X108857023Y-102893809D01*
X108666547Y-102893809D01*
X109285595Y-103322380D02*
X109285595Y-102322380D01*
X109857023Y-103322380D01*
X109857023Y-102322380D01*
X110333214Y-103322380D02*
X110333214Y-102322380D01*
X110571309Y-102322380D01*
X110714166Y-102370000D01*
X110809404Y-102465238D01*
X110857023Y-102560476D01*
X110904642Y-102750952D01*
X110904642Y-102893809D01*
X110857023Y-103084285D01*
X110809404Y-103179523D01*
X110714166Y-103274761D01*
X110571309Y-103322380D01*
X110333214Y-103322380D01*
X108285595Y-100782380D02*
X108285595Y-99782380D01*
X108666547Y-99782380D01*
X108761785Y-99830000D01*
X108809404Y-99877619D01*
X108857023Y-99972857D01*
X108857023Y-100115714D01*
X108809404Y-100210952D01*
X108761785Y-100258571D01*
X108666547Y-100306190D01*
X108285595Y-100306190D01*
X109285595Y-100782380D02*
X109285595Y-99782380D01*
X109761785Y-100782380D02*
X109761785Y-99782380D01*
X110333214Y-100782380D01*
X110333214Y-99782380D01*
X110857023Y-100782380D02*
X111047500Y-100782380D01*
X111142738Y-100734761D01*
X111190357Y-100687142D01*
X111285595Y-100544285D01*
X111333214Y-100353809D01*
X111333214Y-99972857D01*
X111285595Y-99877619D01*
X111237976Y-99830000D01*
X111142738Y-99782380D01*
X110952261Y-99782380D01*
X110857023Y-99830000D01*
X110809404Y-99877619D01*
X110761785Y-99972857D01*
X110761785Y-100210952D01*
X110809404Y-100306190D01*
X110857023Y-100353809D01*
X110952261Y-100401428D01*
X111142738Y-100401428D01*
X111237976Y-100353809D01*
X111285595Y-100306190D01*
X111333214Y-100210952D01*
X108047500Y-96875000D02*
X108809404Y-96875000D01*
X108142738Y-97242380D02*
X108714166Y-97242380D01*
X108428452Y-98242380D02*
X108428452Y-97242380D01*
X108809404Y-96875000D02*
X109809404Y-96875000D01*
X109618928Y-98242380D02*
X109285595Y-97766190D01*
X109047500Y-98242380D02*
X109047500Y-97242380D01*
X109428452Y-97242380D01*
X109523690Y-97290000D01*
X109571309Y-97337619D01*
X109618928Y-97432857D01*
X109618928Y-97575714D01*
X109571309Y-97670952D01*
X109523690Y-97718571D01*
X109428452Y-97766190D01*
X109047500Y-97766190D01*
X109809404Y-96875000D02*
X110761785Y-96875000D01*
X109999880Y-98194761D02*
X110142738Y-98242380D01*
X110380833Y-98242380D01*
X110476071Y-98194761D01*
X110523690Y-98147142D01*
X110571309Y-98051904D01*
X110571309Y-97956666D01*
X110523690Y-97861428D01*
X110476071Y-97813809D01*
X110380833Y-97766190D01*
X110190357Y-97718571D01*
X110095119Y-97670952D01*
X110047500Y-97623333D01*
X109999880Y-97528095D01*
X109999880Y-97432857D01*
X110047500Y-97337619D01*
X110095119Y-97290000D01*
X110190357Y-97242380D01*
X110428452Y-97242380D01*
X110571309Y-97290000D01*
X110761785Y-96875000D02*
X111523690Y-96875000D01*
X110857023Y-97242380D02*
X111428452Y-97242380D01*
X111142738Y-98242380D02*
X111142738Y-97242380D01*
X96756309Y-102322380D02*
X96756309Y-103036666D01*
X96708690Y-103179523D01*
X96613452Y-103274761D01*
X96470595Y-103322380D01*
X96375357Y-103322380D01*
X97708690Y-103322380D02*
X97232500Y-103322380D01*
X97232500Y-102322380D01*
X98042023Y-103227142D02*
X98089642Y-103274761D01*
X98042023Y-103322380D01*
X97994404Y-103274761D01*
X98042023Y-103227142D01*
X98042023Y-103322380D01*
X99089642Y-103322380D02*
X98756309Y-102846190D01*
X98518214Y-103322380D02*
X98518214Y-102322380D01*
X98899166Y-102322380D01*
X98994404Y-102370000D01*
X99042023Y-102417619D01*
X99089642Y-102512857D01*
X99089642Y-102655714D01*
X99042023Y-102750952D01*
X98994404Y-102798571D01*
X98899166Y-102846190D01*
X98518214Y-102846190D01*
X99422976Y-102322380D02*
X100089642Y-103322380D01*
X100089642Y-102322380D02*
X99422976Y-103322380D01*
X96994404Y-100782380D02*
X96994404Y-99782380D01*
X97375357Y-99782380D01*
X97470595Y-99830000D01*
X97518214Y-99877619D01*
X97565833Y-99972857D01*
X97565833Y-100115714D01*
X97518214Y-100210952D01*
X97470595Y-100258571D01*
X97375357Y-100306190D01*
X96994404Y-100306190D01*
X97994404Y-100782380D02*
X97994404Y-99782380D01*
X98470595Y-100782380D02*
X98470595Y-99782380D01*
X99042023Y-100782380D01*
X99042023Y-99782380D01*
X99422976Y-99782380D02*
X100089642Y-99782380D01*
X99661071Y-100782380D01*
X97280119Y-98242380D02*
X96946785Y-97766190D01*
X96708690Y-98242380D02*
X96708690Y-97242380D01*
X97089642Y-97242380D01*
X97184880Y-97290000D01*
X97232500Y-97337619D01*
X97280119Y-97432857D01*
X97280119Y-97575714D01*
X97232500Y-97670952D01*
X97184880Y-97718571D01*
X97089642Y-97766190D01*
X96708690Y-97766190D01*
X97565833Y-97242380D02*
X98137261Y-97242380D01*
X97851547Y-98242380D02*
X97851547Y-97242380D01*
X99042023Y-98147142D02*
X98994404Y-98194761D01*
X98851547Y-98242380D01*
X98756309Y-98242380D01*
X98613452Y-98194761D01*
X98518214Y-98099523D01*
X98470595Y-98004285D01*
X98422976Y-97813809D01*
X98422976Y-97670952D01*
X98470595Y-97480476D01*
X98518214Y-97385238D01*
X98613452Y-97290000D01*
X98756309Y-97242380D01*
X98851547Y-97242380D01*
X98994404Y-97290000D01*
X99042023Y-97337619D01*
X99470595Y-98242380D02*
X99470595Y-97242380D01*
X100042023Y-98242380D02*
X99613452Y-97670952D01*
X100042023Y-97242380D02*
X99470595Y-97813809D01*
D11*
X133350000Y-99441000D02*
X133350000Y-100076000D01*
X133350000Y-100076000D02*
X132715000Y-100076000D01*
X126210000Y-117360000D02*
X123670000Y-117360000D01*
X126210000Y-117360000D02*
X126210000Y-114820000D01*
X125960000Y-117110000D02*
X116610000Y-117110000D01*
X125960000Y-96250000D02*
X125960000Y-117110000D01*
X116610000Y-96250000D02*
X125960000Y-96250000D01*
X116610000Y-117110000D02*
X116610000Y-96250000D01*
X93980000Y-93920000D02*
X95090000Y-93920000D01*
X95090000Y-93920000D02*
X95090000Y-95250000D01*
X102235000Y-119440000D02*
X100905000Y-119440000D01*
X100905000Y-119440000D02*
X100905000Y-118110000D01*
X100905000Y-116840000D02*
X100905000Y-111700000D01*
X103565000Y-111700000D02*
X100905000Y-111700000D01*
X103565000Y-116840000D02*
X103565000Y-111700000D01*
X103565000Y-116840000D02*
X100905000Y-116840000D01*
X118685000Y-120710000D02*
X118685000Y-119380000D01*
X120015000Y-120710000D02*
X118685000Y-120710000D01*
X121285000Y-120710000D02*
X121285000Y-118050000D01*
X121285000Y-118050000D02*
X123885000Y-118050000D01*
X121285000Y-120710000D02*
X123885000Y-120710000D01*
X123885000Y-120710000D02*
X123885000Y-118050000D01*
X118685000Y-95310000D02*
X118685000Y-93980000D01*
X120015000Y-95310000D02*
X118685000Y-95310000D01*
X121285000Y-95310000D02*
X121285000Y-92650000D01*
X121285000Y-92650000D02*
X123885000Y-92650000D01*
X121285000Y-95310000D02*
X123885000Y-95310000D01*
X123885000Y-95310000D02*
X123885000Y-92650000D01*
X107890000Y-111700000D02*
X109220000Y-111700000D01*
X107890000Y-113030000D02*
X107890000Y-111700000D01*
X107890000Y-114300000D02*
X110550000Y-114300000D01*
X110550000Y-114300000D02*
X110550000Y-119440000D01*
X107890000Y-114300000D02*
X107890000Y-119440000D01*
X107890000Y-119440000D02*
X110550000Y-119440000D01*
X107375000Y-104200000D02*
X106045000Y-104200000D01*
X107375000Y-102870000D02*
X107375000Y-104200000D01*
X107375000Y-101600000D02*
X104715000Y-101600000D01*
X104715000Y-101600000D02*
X104715000Y-96460000D01*
X107375000Y-101600000D02*
X107375000Y-96460000D01*
X107375000Y-96460000D02*
X104715000Y-96460000D01*
X103565000Y-104200000D02*
X102235000Y-104200000D01*
X103565000Y-102870000D02*
X103565000Y-104200000D01*
X103565000Y-101600000D02*
X100905000Y-101600000D01*
X100905000Y-101600000D02*
X100905000Y-96460000D01*
X103565000Y-101600000D02*
X103565000Y-96460000D01*
X103565000Y-96460000D02*
X100905000Y-96460000D01*
X130315000Y-103510000D02*
X130315000Y-103445000D01*
X133845000Y-103510000D02*
X133845000Y-103445000D01*
X130315000Y-109915000D02*
X130315000Y-109850000D01*
X133845000Y-109915000D02*
X133845000Y-109850000D01*
X135170000Y-109850000D02*
X133845000Y-109850000D01*
X133845000Y-103445000D02*
X130315000Y-103445000D01*
X133845000Y-109915000D02*
X130315000Y-109915000D01*
M02*
