G04 #@! TF.GenerationSoftware,KiCad,Pcbnew,5.1.5-52549c5~84~ubuntu19.04.1*
G04 #@! TF.CreationDate,2019-12-10T10:59:35+01:00*
G04 #@! TF.ProjectId,jlink-tagConnect-adapter-v2,6a6c696e-6b2d-4746-9167-436f6e6e6563,rev?*
G04 #@! TF.SameCoordinates,Original*
G04 #@! TF.FileFunction,Legend,Bot*
G04 #@! TF.FilePolarity,Positive*
%FSLAX46Y46*%
G04 Gerber Fmt 4.6, Leading zero omitted, Abs format (unit mm)*
G04 Created by KiCad (PCBNEW 5.1.5-52549c5~84~ubuntu19.04.1) date 2019-12-10 10:59:35*
%MOMM*%
%LPD*%
G04 APERTURE LIST*
%ADD10C,0.150000*%
%ADD11C,0.120000*%
%ADD12C,0.010000*%
G04 APERTURE END LIST*
D10*
X102687380Y-105330952D02*
X102687380Y-104759523D01*
X102687380Y-105045238D02*
X101687380Y-105045238D01*
X101830238Y-104950000D01*
X101925476Y-104854761D01*
X101973095Y-104759523D01*
X102687380Y-106283333D02*
X102687380Y-105711904D01*
X102687380Y-105997619D02*
X101687380Y-105997619D01*
X101830238Y-105902380D01*
X101925476Y-105807142D01*
X101973095Y-105711904D01*
X101639761Y-107426190D02*
X102925476Y-106569047D01*
X101782619Y-107711904D02*
X101735000Y-107759523D01*
X101687380Y-107854761D01*
X101687380Y-108092857D01*
X101735000Y-108188095D01*
X101782619Y-108235714D01*
X101877857Y-108283333D01*
X101973095Y-108283333D01*
X102115952Y-108235714D01*
X102687380Y-107664285D01*
X102687380Y-108283333D01*
X101687380Y-108902380D02*
X101687380Y-108997619D01*
X101735000Y-109092857D01*
X101782619Y-109140476D01*
X101877857Y-109188095D01*
X102068333Y-109235714D01*
X102306428Y-109235714D01*
X102496904Y-109188095D01*
X102592142Y-109140476D01*
X102639761Y-109092857D01*
X102687380Y-108997619D01*
X102687380Y-108902380D01*
X102639761Y-108807142D01*
X102592142Y-108759523D01*
X102496904Y-108711904D01*
X102306428Y-108664285D01*
X102068333Y-108664285D01*
X101877857Y-108711904D01*
X101782619Y-108759523D01*
X101735000Y-108807142D01*
X101687380Y-108902380D01*
X102687380Y-110188095D02*
X102687380Y-109616666D01*
X102687380Y-109902380D02*
X101687380Y-109902380D01*
X101830238Y-109807142D01*
X101925476Y-109711904D01*
X101973095Y-109616666D01*
X102687380Y-110664285D02*
X102687380Y-110854761D01*
X102639761Y-110950000D01*
X102592142Y-110997619D01*
X102449285Y-111092857D01*
X102258809Y-111140476D01*
X101877857Y-111140476D01*
X101782619Y-111092857D01*
X101735000Y-111045238D01*
X101687380Y-110950000D01*
X101687380Y-110759523D01*
X101735000Y-110664285D01*
X101782619Y-110616666D01*
X101877857Y-110569047D01*
X102115952Y-110569047D01*
X102211190Y-110616666D01*
X102258809Y-110664285D01*
X102306428Y-110759523D01*
X102306428Y-110950000D01*
X102258809Y-111045238D01*
X102211190Y-111092857D01*
X102115952Y-111140476D01*
X110046904Y-116752619D02*
X110046904Y-115943095D01*
X110094523Y-115847857D01*
X110142142Y-115800238D01*
X110237380Y-115752619D01*
X110427857Y-115752619D01*
X110523095Y-115800238D01*
X110570714Y-115847857D01*
X110618333Y-115943095D01*
X110618333Y-116752619D01*
X111094523Y-116419285D02*
X111094523Y-115752619D01*
X111094523Y-116324047D02*
X111142142Y-116371666D01*
X111237380Y-116419285D01*
X111380238Y-116419285D01*
X111475476Y-116371666D01*
X111523095Y-116276428D01*
X111523095Y-115752619D01*
X111999285Y-115752619D02*
X111999285Y-116419285D01*
X111999285Y-116752619D02*
X111951666Y-116705000D01*
X111999285Y-116657380D01*
X112046904Y-116705000D01*
X111999285Y-116752619D01*
X111999285Y-116657380D01*
X112380238Y-116419285D02*
X112618333Y-115752619D01*
X112856428Y-116419285D01*
X113618333Y-115800238D02*
X113523095Y-115752619D01*
X113332619Y-115752619D01*
X113237380Y-115800238D01*
X113189761Y-115895476D01*
X113189761Y-116276428D01*
X113237380Y-116371666D01*
X113332619Y-116419285D01*
X113523095Y-116419285D01*
X113618333Y-116371666D01*
X113665952Y-116276428D01*
X113665952Y-116181190D01*
X113189761Y-116085952D01*
X114094523Y-115752619D02*
X114094523Y-116419285D01*
X114094523Y-116228809D02*
X114142142Y-116324047D01*
X114189761Y-116371666D01*
X114285000Y-116419285D01*
X114380238Y-116419285D01*
X114665952Y-115800238D02*
X114761190Y-115752619D01*
X114951666Y-115752619D01*
X115046904Y-115800238D01*
X115094523Y-115895476D01*
X115094523Y-115943095D01*
X115046904Y-116038333D01*
X114951666Y-116085952D01*
X114808809Y-116085952D01*
X114713571Y-116133571D01*
X114665952Y-116228809D01*
X114665952Y-116276428D01*
X114713571Y-116371666D01*
X114808809Y-116419285D01*
X114951666Y-116419285D01*
X115046904Y-116371666D01*
X115951666Y-115752619D02*
X115951666Y-116276428D01*
X115904047Y-116371666D01*
X115808809Y-116419285D01*
X115618333Y-116419285D01*
X115523095Y-116371666D01*
X115951666Y-115800238D02*
X115856428Y-115752619D01*
X115618333Y-115752619D01*
X115523095Y-115800238D01*
X115475476Y-115895476D01*
X115475476Y-115990714D01*
X115523095Y-116085952D01*
X115618333Y-116133571D01*
X115856428Y-116133571D01*
X115951666Y-116181190D01*
X116570714Y-115752619D02*
X116475476Y-115800238D01*
X116427857Y-115895476D01*
X116427857Y-116752619D01*
X117999285Y-116752619D02*
X117999285Y-116038333D01*
X117951666Y-115895476D01*
X117856428Y-115800238D01*
X117713571Y-115752619D01*
X117618333Y-115752619D01*
X118475476Y-116133571D02*
X119237380Y-116133571D01*
X120189761Y-115752619D02*
X119713571Y-115752619D01*
X119713571Y-116752619D01*
X120523095Y-115752619D02*
X120523095Y-116419285D01*
X120523095Y-116752619D02*
X120475476Y-116705000D01*
X120523095Y-116657380D01*
X120570714Y-116705000D01*
X120523095Y-116752619D01*
X120523095Y-116657380D01*
X120999285Y-116419285D02*
X120999285Y-115752619D01*
X120999285Y-116324047D02*
X121046904Y-116371666D01*
X121142142Y-116419285D01*
X121285000Y-116419285D01*
X121380238Y-116371666D01*
X121427857Y-116276428D01*
X121427857Y-115752619D01*
X121904047Y-115752619D02*
X121904047Y-116752619D01*
X121999285Y-116133571D02*
X122285000Y-115752619D01*
X122285000Y-116419285D02*
X121904047Y-116038333D01*
X123427857Y-116038333D02*
X123904047Y-116038333D01*
X123332619Y-115752619D02*
X123665952Y-116752619D01*
X123999285Y-115752619D01*
X124761190Y-115752619D02*
X124761190Y-116752619D01*
X124761190Y-115800238D02*
X124665952Y-115752619D01*
X124475476Y-115752619D01*
X124380238Y-115800238D01*
X124332619Y-115847857D01*
X124285000Y-115943095D01*
X124285000Y-116228809D01*
X124332619Y-116324047D01*
X124380238Y-116371666D01*
X124475476Y-116419285D01*
X124665952Y-116419285D01*
X124761190Y-116371666D01*
X125665952Y-115752619D02*
X125665952Y-116276428D01*
X125618333Y-116371666D01*
X125523095Y-116419285D01*
X125332619Y-116419285D01*
X125237380Y-116371666D01*
X125665952Y-115800238D02*
X125570714Y-115752619D01*
X125332619Y-115752619D01*
X125237380Y-115800238D01*
X125189761Y-115895476D01*
X125189761Y-115990714D01*
X125237380Y-116085952D01*
X125332619Y-116133571D01*
X125570714Y-116133571D01*
X125665952Y-116181190D01*
X126142142Y-116419285D02*
X126142142Y-115419285D01*
X126142142Y-116371666D02*
X126237380Y-116419285D01*
X126427857Y-116419285D01*
X126523095Y-116371666D01*
X126570714Y-116324047D01*
X126618333Y-116228809D01*
X126618333Y-115943095D01*
X126570714Y-115847857D01*
X126523095Y-115800238D01*
X126427857Y-115752619D01*
X126237380Y-115752619D01*
X126142142Y-115800238D01*
X126904047Y-116419285D02*
X127285000Y-116419285D01*
X127046904Y-116752619D02*
X127046904Y-115895476D01*
X127094523Y-115800238D01*
X127189761Y-115752619D01*
X127285000Y-115752619D01*
X127999285Y-115800238D02*
X127904047Y-115752619D01*
X127713571Y-115752619D01*
X127618333Y-115800238D01*
X127570714Y-115895476D01*
X127570714Y-116276428D01*
X127618333Y-116371666D01*
X127713571Y-116419285D01*
X127904047Y-116419285D01*
X127999285Y-116371666D01*
X128046904Y-116276428D01*
X128046904Y-116181190D01*
X127570714Y-116085952D01*
X128475476Y-115752619D02*
X128475476Y-116419285D01*
X128475476Y-116228809D02*
X128523095Y-116324047D01*
X128570714Y-116371666D01*
X128665952Y-116419285D01*
X128761190Y-116419285D01*
X129761190Y-116419285D02*
X129999285Y-115752619D01*
X130237380Y-116419285D01*
X130570714Y-116657380D02*
X130618333Y-116705000D01*
X130713571Y-116752619D01*
X130951666Y-116752619D01*
X131046904Y-116705000D01*
X131094523Y-116657380D01*
X131142142Y-116562142D01*
X131142142Y-116466904D01*
X131094523Y-116324047D01*
X130523095Y-115752619D01*
X131142142Y-115752619D01*
X131570714Y-115847857D02*
X131618333Y-115800238D01*
X131570714Y-115752619D01*
X131523095Y-115800238D01*
X131570714Y-115847857D01*
X131570714Y-115752619D01*
X132237380Y-116752619D02*
X132332619Y-116752619D01*
X132427857Y-116705000D01*
X132475476Y-116657380D01*
X132523095Y-116562142D01*
X132570714Y-116371666D01*
X132570714Y-116133571D01*
X132523095Y-115943095D01*
X132475476Y-115847857D01*
X132427857Y-115800238D01*
X132332619Y-115752619D01*
X132237380Y-115752619D01*
X132142142Y-115800238D01*
X132094523Y-115847857D01*
X132046904Y-115943095D01*
X131999285Y-116133571D01*
X131999285Y-116371666D01*
X132046904Y-116562142D01*
X132094523Y-116657380D01*
X132142142Y-116705000D01*
X132237380Y-116752619D01*
X109904047Y-96702619D02*
X109427857Y-96702619D01*
X109427857Y-97702619D01*
X110237380Y-96702619D02*
X110237380Y-97369285D01*
X110237380Y-97702619D02*
X110189761Y-97655000D01*
X110237380Y-97607380D01*
X110285000Y-97655000D01*
X110237380Y-97702619D01*
X110237380Y-97607380D01*
X111142142Y-96750238D02*
X111046904Y-96702619D01*
X110856428Y-96702619D01*
X110761190Y-96750238D01*
X110713571Y-96797857D01*
X110665952Y-96893095D01*
X110665952Y-97178809D01*
X110713571Y-97274047D01*
X110761190Y-97321666D01*
X110856428Y-97369285D01*
X111046904Y-97369285D01*
X111142142Y-97321666D01*
X111951666Y-96750238D02*
X111856428Y-96702619D01*
X111665952Y-96702619D01*
X111570714Y-96750238D01*
X111523095Y-96845476D01*
X111523095Y-97226428D01*
X111570714Y-97321666D01*
X111665952Y-97369285D01*
X111856428Y-97369285D01*
X111951666Y-97321666D01*
X111999285Y-97226428D01*
X111999285Y-97131190D01*
X111523095Y-97035952D01*
X112427857Y-97369285D02*
X112427857Y-96702619D01*
X112427857Y-97274047D02*
X112475476Y-97321666D01*
X112570714Y-97369285D01*
X112713571Y-97369285D01*
X112808809Y-97321666D01*
X112856428Y-97226428D01*
X112856428Y-96702619D01*
X113285000Y-96750238D02*
X113380238Y-96702619D01*
X113570714Y-96702619D01*
X113665952Y-96750238D01*
X113713571Y-96845476D01*
X113713571Y-96893095D01*
X113665952Y-96988333D01*
X113570714Y-97035952D01*
X113427857Y-97035952D01*
X113332619Y-97083571D01*
X113285000Y-97178809D01*
X113285000Y-97226428D01*
X113332619Y-97321666D01*
X113427857Y-97369285D01*
X113570714Y-97369285D01*
X113665952Y-97321666D01*
X114523095Y-96750238D02*
X114427857Y-96702619D01*
X114237380Y-96702619D01*
X114142142Y-96750238D01*
X114094523Y-96845476D01*
X114094523Y-97226428D01*
X114142142Y-97321666D01*
X114237380Y-97369285D01*
X114427857Y-97369285D01*
X114523095Y-97321666D01*
X114570714Y-97226428D01*
X114570714Y-97131190D01*
X114094523Y-97035952D01*
X115427857Y-96702619D02*
X115427857Y-97702619D01*
X115427857Y-96750238D02*
X115332619Y-96702619D01*
X115142142Y-96702619D01*
X115046904Y-96750238D01*
X114999285Y-96797857D01*
X114951666Y-96893095D01*
X114951666Y-97178809D01*
X114999285Y-97274047D01*
X115046904Y-97321666D01*
X115142142Y-97369285D01*
X115332619Y-97369285D01*
X115427857Y-97321666D01*
X117094523Y-97369285D02*
X117094523Y-96702619D01*
X116665952Y-97369285D02*
X116665952Y-96845476D01*
X116713571Y-96750238D01*
X116808809Y-96702619D01*
X116951666Y-96702619D01*
X117046904Y-96750238D01*
X117094523Y-96797857D01*
X117570714Y-97369285D02*
X117570714Y-96702619D01*
X117570714Y-97274047D02*
X117618333Y-97321666D01*
X117713571Y-97369285D01*
X117856428Y-97369285D01*
X117951666Y-97321666D01*
X117999285Y-97226428D01*
X117999285Y-96702619D01*
X118904047Y-96702619D02*
X118904047Y-97702619D01*
X118904047Y-96750238D02*
X118808809Y-96702619D01*
X118618333Y-96702619D01*
X118523095Y-96750238D01*
X118475476Y-96797857D01*
X118427857Y-96893095D01*
X118427857Y-97178809D01*
X118475476Y-97274047D01*
X118523095Y-97321666D01*
X118618333Y-97369285D01*
X118808809Y-97369285D01*
X118904047Y-97321666D01*
X119761190Y-96750238D02*
X119665952Y-96702619D01*
X119475476Y-96702619D01*
X119380238Y-96750238D01*
X119332619Y-96845476D01*
X119332619Y-97226428D01*
X119380238Y-97321666D01*
X119475476Y-97369285D01*
X119665952Y-97369285D01*
X119761190Y-97321666D01*
X119808809Y-97226428D01*
X119808809Y-97131190D01*
X119332619Y-97035952D01*
X120237380Y-96702619D02*
X120237380Y-97369285D01*
X120237380Y-97178809D02*
X120285000Y-97274047D01*
X120332619Y-97321666D01*
X120427857Y-97369285D01*
X120523095Y-97369285D01*
X122189761Y-96797857D02*
X122142142Y-96750238D01*
X121999285Y-96702619D01*
X121904047Y-96702619D01*
X121761190Y-96750238D01*
X121665952Y-96845476D01*
X121618333Y-96940714D01*
X121570714Y-97131190D01*
X121570714Y-97274047D01*
X121618333Y-97464523D01*
X121665952Y-97559761D01*
X121761190Y-97655000D01*
X121904047Y-97702619D01*
X121999285Y-97702619D01*
X122142142Y-97655000D01*
X122189761Y-97607380D01*
X122618333Y-97226428D02*
X122951666Y-97226428D01*
X123094523Y-96702619D02*
X122618333Y-96702619D01*
X122618333Y-97702619D01*
X123094523Y-97702619D01*
X124094523Y-96702619D02*
X123761190Y-97178809D01*
X123523095Y-96702619D02*
X123523095Y-97702619D01*
X123904047Y-97702619D01*
X123999285Y-97655000D01*
X124046904Y-97607380D01*
X124094523Y-97512142D01*
X124094523Y-97369285D01*
X124046904Y-97274047D01*
X123999285Y-97226428D01*
X123904047Y-97178809D01*
X123523095Y-97178809D01*
X124523095Y-96702619D02*
X124523095Y-97702619D01*
X125094523Y-96702619D01*
X125094523Y-97702619D01*
X126523095Y-97702619D02*
X126713571Y-97702619D01*
X126808809Y-97655000D01*
X126904047Y-97559761D01*
X126951666Y-97369285D01*
X126951666Y-97035952D01*
X126904047Y-96845476D01*
X126808809Y-96750238D01*
X126713571Y-96702619D01*
X126523095Y-96702619D01*
X126427857Y-96750238D01*
X126332619Y-96845476D01*
X126285000Y-97035952D01*
X126285000Y-97369285D01*
X126332619Y-97559761D01*
X126427857Y-97655000D01*
X126523095Y-97702619D01*
X127380238Y-96702619D02*
X127380238Y-97702619D01*
X127380238Y-97226428D02*
X127951666Y-97226428D01*
X127951666Y-96702619D02*
X127951666Y-97702619D01*
X128904047Y-96702619D02*
X128427857Y-96702619D01*
X128427857Y-97702619D01*
X129904047Y-97369285D02*
X130142142Y-96702619D01*
X130380238Y-97369285D01*
X130761190Y-96797857D02*
X130808809Y-96750238D01*
X130761190Y-96702619D01*
X130713571Y-96750238D01*
X130761190Y-96797857D01*
X130761190Y-96702619D01*
X131761190Y-96702619D02*
X131189761Y-96702619D01*
X131475476Y-96702619D02*
X131475476Y-97702619D01*
X131380238Y-97559761D01*
X131285000Y-97464523D01*
X131189761Y-97416904D01*
X132189761Y-96797857D02*
X132237380Y-96750238D01*
X132189761Y-96702619D01*
X132142142Y-96750238D01*
X132189761Y-96797857D01*
X132189761Y-96702619D01*
X132618333Y-97607380D02*
X132665952Y-97655000D01*
X132761190Y-97702619D01*
X132999285Y-97702619D01*
X133094523Y-97655000D01*
X133142142Y-97607380D01*
X133189761Y-97512142D01*
X133189761Y-97416904D01*
X133142142Y-97274047D01*
X132570714Y-96702619D01*
X133189761Y-96702619D01*
D11*
X132715000Y-114935000D02*
X110490000Y-114935000D01*
X132715000Y-98425000D02*
X132715000Y-114935000D01*
X109855000Y-98425000D02*
X109855000Y-111760000D01*
X132715000Y-98425000D02*
X109855000Y-98425000D01*
D10*
X124422380Y-99824166D02*
X124422380Y-99633690D01*
X124470000Y-99538452D01*
X124517619Y-99490833D01*
X124660476Y-99395595D01*
X124850952Y-99347976D01*
X125231904Y-99347976D01*
X125327142Y-99395595D01*
X125374761Y-99443214D01*
X125422380Y-99538452D01*
X125422380Y-99728928D01*
X125374761Y-99824166D01*
X125327142Y-99871785D01*
X125231904Y-99919404D01*
X124993809Y-99919404D01*
X124898571Y-99871785D01*
X124850952Y-99824166D01*
X124803333Y-99728928D01*
X124803333Y-99538452D01*
X124850952Y-99443214D01*
X124898571Y-99395595D01*
X124993809Y-99347976D01*
X125327142Y-100347976D02*
X125374761Y-100395595D01*
X125422380Y-100347976D01*
X125374761Y-100300357D01*
X125327142Y-100347976D01*
X125422380Y-100347976D01*
X124803333Y-100347976D02*
X124850952Y-100395595D01*
X124898571Y-100347976D01*
X124850952Y-100300357D01*
X124803333Y-100347976D01*
X124898571Y-100347976D01*
X125374761Y-101538452D02*
X125422380Y-101681309D01*
X125422380Y-101919404D01*
X125374761Y-102014642D01*
X125327142Y-102062261D01*
X125231904Y-102109880D01*
X125136666Y-102109880D01*
X125041428Y-102062261D01*
X124993809Y-102014642D01*
X124946190Y-101919404D01*
X124898571Y-101728928D01*
X124850952Y-101633690D01*
X124803333Y-101586071D01*
X124708095Y-101538452D01*
X124612857Y-101538452D01*
X124517619Y-101586071D01*
X124470000Y-101633690D01*
X124422380Y-101728928D01*
X124422380Y-101967023D01*
X124470000Y-102109880D01*
X124422380Y-102443214D02*
X125422380Y-102681309D01*
X124708095Y-102871785D01*
X125422380Y-103062261D01*
X124422380Y-103300357D01*
X124422380Y-103871785D02*
X124422380Y-104062261D01*
X124470000Y-104157500D01*
X124565238Y-104252738D01*
X124755714Y-104300357D01*
X125089047Y-104300357D01*
X125279523Y-104252738D01*
X125374761Y-104157500D01*
X125422380Y-104062261D01*
X125422380Y-103871785D01*
X125374761Y-103776547D01*
X125279523Y-103681309D01*
X125089047Y-103633690D01*
X124755714Y-103633690D01*
X124565238Y-103681309D01*
X124470000Y-103776547D01*
X124422380Y-103871785D01*
X124374761Y-105443214D02*
X125660476Y-104586071D01*
X124422380Y-105633690D02*
X124422380Y-106205119D01*
X125422380Y-105919404D02*
X124422380Y-105919404D01*
X125422380Y-106538452D02*
X124422380Y-106538452D01*
X124422380Y-106776547D01*
X124470000Y-106919404D01*
X124565238Y-107014642D01*
X124660476Y-107062261D01*
X124850952Y-107109880D01*
X124993809Y-107109880D01*
X125184285Y-107062261D01*
X125279523Y-107014642D01*
X125374761Y-106919404D01*
X125422380Y-106776547D01*
X125422380Y-106538452D01*
X124422380Y-107728928D02*
X124422380Y-107919404D01*
X124470000Y-108014642D01*
X124565238Y-108109880D01*
X124755714Y-108157500D01*
X125089047Y-108157500D01*
X125279523Y-108109880D01*
X125374761Y-108014642D01*
X125422380Y-107919404D01*
X125422380Y-107728928D01*
X125374761Y-107633690D01*
X125279523Y-107538452D01*
X125089047Y-107490833D01*
X124755714Y-107490833D01*
X124565238Y-107538452D01*
X124470000Y-107633690D01*
X124422380Y-107728928D01*
X126072380Y-99300357D02*
X126072380Y-99967023D01*
X127072380Y-99538452D01*
X126977142Y-100347976D02*
X127024761Y-100395595D01*
X127072380Y-100347976D01*
X127024761Y-100300357D01*
X126977142Y-100347976D01*
X127072380Y-100347976D01*
X126453333Y-100347976D02*
X126500952Y-100395595D01*
X126548571Y-100347976D01*
X126500952Y-100300357D01*
X126453333Y-100347976D01*
X126548571Y-100347976D01*
X127453333Y-101871785D02*
X127405714Y-101824166D01*
X127262857Y-101728928D01*
X127167619Y-101681309D01*
X127024761Y-101633690D01*
X126786666Y-101586071D01*
X126596190Y-101586071D01*
X126358095Y-101633690D01*
X126215238Y-101681309D01*
X126120000Y-101728928D01*
X125977142Y-101824166D01*
X125929523Y-101871785D01*
X127072380Y-102252738D02*
X126072380Y-102252738D01*
X126691428Y-102347976D02*
X127072380Y-102633690D01*
X126405714Y-102633690D02*
X126786666Y-102252738D01*
X127024761Y-103443214D02*
X127072380Y-103347976D01*
X127072380Y-103157500D01*
X127024761Y-103062261D01*
X126929523Y-103014642D01*
X126548571Y-103014642D01*
X126453333Y-103062261D01*
X126405714Y-103157500D01*
X126405714Y-103347976D01*
X126453333Y-103443214D01*
X126548571Y-103490833D01*
X126643809Y-103490833D01*
X126739047Y-103014642D01*
X126405714Y-103824166D02*
X127072380Y-104062261D01*
X126405714Y-104300357D02*
X127072380Y-104062261D01*
X127310476Y-103967023D01*
X127358095Y-103919404D01*
X127405714Y-103824166D01*
X127453333Y-104586071D02*
X127405714Y-104633690D01*
X127262857Y-104728928D01*
X127167619Y-104776547D01*
X127024761Y-104824166D01*
X126786666Y-104871785D01*
X126596190Y-104871785D01*
X126358095Y-104824166D01*
X126215238Y-104776547D01*
X126120000Y-104728928D01*
X125977142Y-104633690D01*
X125929523Y-104586071D01*
X126024761Y-106062261D02*
X127310476Y-105205119D01*
X126405714Y-106395595D02*
X127262857Y-106395595D01*
X127358095Y-106347976D01*
X127405714Y-106252738D01*
X127405714Y-106205119D01*
X126072380Y-106395595D02*
X126120000Y-106347976D01*
X126167619Y-106395595D01*
X126120000Y-106443214D01*
X126072380Y-106395595D01*
X126167619Y-106395595D01*
X127072380Y-107014642D02*
X127024761Y-106919404D01*
X126929523Y-106871785D01*
X126072380Y-106871785D01*
X126977142Y-107395595D02*
X127024761Y-107443214D01*
X127072380Y-107395595D01*
X127024761Y-107347976D01*
X126977142Y-107395595D01*
X127072380Y-107395595D01*
X127072380Y-108443214D02*
X126596190Y-108109880D01*
X127072380Y-107871785D02*
X126072380Y-107871785D01*
X126072380Y-108252738D01*
X126120000Y-108347976D01*
X126167619Y-108395595D01*
X126262857Y-108443214D01*
X126405714Y-108443214D01*
X126500952Y-108395595D01*
X126548571Y-108347976D01*
X126596190Y-108252738D01*
X126596190Y-107871785D01*
X126072380Y-108776547D02*
X127072380Y-109443214D01*
X126072380Y-109443214D02*
X127072380Y-108776547D01*
X126024761Y-110538452D02*
X127310476Y-109681309D01*
X127072380Y-111443214D02*
X126596190Y-111109880D01*
X127072380Y-110871785D02*
X126072380Y-110871785D01*
X126072380Y-111252738D01*
X126120000Y-111347976D01*
X126167619Y-111395595D01*
X126262857Y-111443214D01*
X126405714Y-111443214D01*
X126500952Y-111395595D01*
X126548571Y-111347976D01*
X126596190Y-111252738D01*
X126596190Y-110871785D01*
X126072380Y-111728928D02*
X126072380Y-112300357D01*
X127072380Y-112014642D02*
X126072380Y-112014642D01*
X126977142Y-113205119D02*
X127024761Y-113157500D01*
X127072380Y-113014642D01*
X127072380Y-112919404D01*
X127024761Y-112776547D01*
X126929523Y-112681309D01*
X126834285Y-112633690D01*
X126643809Y-112586071D01*
X126500952Y-112586071D01*
X126310476Y-112633690D01*
X126215238Y-112681309D01*
X126120000Y-112776547D01*
X126072380Y-112919404D01*
X126072380Y-113014642D01*
X126120000Y-113157500D01*
X126167619Y-113205119D01*
X127072380Y-113633690D02*
X126072380Y-113633690D01*
X127072380Y-114205119D02*
X126500952Y-113776547D01*
X126072380Y-114205119D02*
X126643809Y-113633690D01*
X128150952Y-99538452D02*
X128103333Y-99443214D01*
X128055714Y-99395595D01*
X127960476Y-99347976D01*
X127912857Y-99347976D01*
X127817619Y-99395595D01*
X127770000Y-99443214D01*
X127722380Y-99538452D01*
X127722380Y-99728928D01*
X127770000Y-99824166D01*
X127817619Y-99871785D01*
X127912857Y-99919404D01*
X127960476Y-99919404D01*
X128055714Y-99871785D01*
X128103333Y-99824166D01*
X128150952Y-99728928D01*
X128150952Y-99538452D01*
X128198571Y-99443214D01*
X128246190Y-99395595D01*
X128341428Y-99347976D01*
X128531904Y-99347976D01*
X128627142Y-99395595D01*
X128674761Y-99443214D01*
X128722380Y-99538452D01*
X128722380Y-99728928D01*
X128674761Y-99824166D01*
X128627142Y-99871785D01*
X128531904Y-99919404D01*
X128341428Y-99919404D01*
X128246190Y-99871785D01*
X128198571Y-99824166D01*
X128150952Y-99728928D01*
X128627142Y-100347976D02*
X128674761Y-100395595D01*
X128722380Y-100347976D01*
X128674761Y-100300357D01*
X128627142Y-100347976D01*
X128722380Y-100347976D01*
X128103333Y-100347976D02*
X128150952Y-100395595D01*
X128198571Y-100347976D01*
X128150952Y-100300357D01*
X128103333Y-100347976D01*
X128198571Y-100347976D01*
X129103333Y-101871785D02*
X129055714Y-101824166D01*
X128912857Y-101728928D01*
X128817619Y-101681309D01*
X128674761Y-101633690D01*
X128436666Y-101586071D01*
X128246190Y-101586071D01*
X128008095Y-101633690D01*
X127865238Y-101681309D01*
X127770000Y-101728928D01*
X127627142Y-101824166D01*
X127579523Y-101871785D01*
X128055714Y-102252738D02*
X128722380Y-102252738D01*
X128150952Y-102252738D02*
X128103333Y-102300357D01*
X128055714Y-102395595D01*
X128055714Y-102538452D01*
X128103333Y-102633690D01*
X128198571Y-102681309D01*
X128722380Y-102681309D01*
X128674761Y-103586071D02*
X128722380Y-103490833D01*
X128722380Y-103300357D01*
X128674761Y-103205119D01*
X128627142Y-103157500D01*
X128531904Y-103109880D01*
X128246190Y-103109880D01*
X128150952Y-103157500D01*
X128103333Y-103205119D01*
X128055714Y-103300357D01*
X128055714Y-103490833D01*
X128103333Y-103586071D01*
X129103333Y-103919404D02*
X129055714Y-103967023D01*
X128912857Y-104062261D01*
X128817619Y-104109880D01*
X128674761Y-104157500D01*
X128436666Y-104205119D01*
X128246190Y-104205119D01*
X128008095Y-104157500D01*
X127865238Y-104109880D01*
X127770000Y-104062261D01*
X127627142Y-103967023D01*
X127579523Y-103919404D01*
X128055714Y-104681309D02*
X128912857Y-104681309D01*
X129008095Y-104633690D01*
X129055714Y-104538452D01*
X129055714Y-104490833D01*
X127722380Y-104681309D02*
X127770000Y-104633690D01*
X127817619Y-104681309D01*
X127770000Y-104728928D01*
X127722380Y-104681309D01*
X127817619Y-104681309D01*
X128722380Y-105300357D02*
X128674761Y-105205119D01*
X128579523Y-105157500D01*
X127722380Y-105157500D01*
X128627142Y-105681309D02*
X128674761Y-105728928D01*
X128722380Y-105681309D01*
X128674761Y-105633690D01*
X128627142Y-105681309D01*
X128722380Y-105681309D01*
X127722380Y-106014642D02*
X127722380Y-106586071D01*
X128722380Y-106300357D02*
X127722380Y-106300357D01*
X127722380Y-106824166D02*
X128722380Y-107490833D01*
X127722380Y-107490833D02*
X128722380Y-106824166D01*
X127674761Y-108586071D02*
X128960476Y-107728928D01*
X127722380Y-108776547D02*
X127722380Y-109347976D01*
X128722380Y-109062261D02*
X127722380Y-109062261D01*
X128722380Y-109681309D02*
X127722380Y-109681309D01*
X127722380Y-109919404D01*
X127770000Y-110062261D01*
X127865238Y-110157500D01*
X127960476Y-110205119D01*
X128150952Y-110252738D01*
X128293809Y-110252738D01*
X128484285Y-110205119D01*
X128579523Y-110157500D01*
X128674761Y-110062261D01*
X128722380Y-109919404D01*
X128722380Y-109681309D01*
X128722380Y-110681309D02*
X127722380Y-110681309D01*
X130372380Y-99443214D02*
X130372380Y-99633690D01*
X130324761Y-99728928D01*
X130277142Y-99776547D01*
X130134285Y-99871785D01*
X129943809Y-99919404D01*
X129562857Y-99919404D01*
X129467619Y-99871785D01*
X129420000Y-99824166D01*
X129372380Y-99728928D01*
X129372380Y-99538452D01*
X129420000Y-99443214D01*
X129467619Y-99395595D01*
X129562857Y-99347976D01*
X129800952Y-99347976D01*
X129896190Y-99395595D01*
X129943809Y-99443214D01*
X129991428Y-99538452D01*
X129991428Y-99728928D01*
X129943809Y-99824166D01*
X129896190Y-99871785D01*
X129800952Y-99919404D01*
X130277142Y-100347976D02*
X130324761Y-100395595D01*
X130372380Y-100347976D01*
X130324761Y-100300357D01*
X130277142Y-100347976D01*
X130372380Y-100347976D01*
X129753333Y-100347976D02*
X129800952Y-100395595D01*
X129848571Y-100347976D01*
X129800952Y-100300357D01*
X129753333Y-100347976D01*
X129848571Y-100347976D01*
X130753333Y-101871785D02*
X130705714Y-101824166D01*
X130562857Y-101728928D01*
X130467619Y-101681309D01*
X130324761Y-101633690D01*
X130086666Y-101586071D01*
X129896190Y-101586071D01*
X129658095Y-101633690D01*
X129515238Y-101681309D01*
X129420000Y-101728928D01*
X129277142Y-101824166D01*
X129229523Y-101871785D01*
X129705714Y-102252738D02*
X130372380Y-102252738D01*
X129800952Y-102252738D02*
X129753333Y-102300357D01*
X129705714Y-102395595D01*
X129705714Y-102538452D01*
X129753333Y-102633690D01*
X129848571Y-102681309D01*
X130372380Y-102681309D01*
X130324761Y-103586071D02*
X130372380Y-103490833D01*
X130372380Y-103300357D01*
X130324761Y-103205119D01*
X130277142Y-103157500D01*
X130181904Y-103109880D01*
X129896190Y-103109880D01*
X129800952Y-103157500D01*
X129753333Y-103205119D01*
X129705714Y-103300357D01*
X129705714Y-103490833D01*
X129753333Y-103586071D01*
X130753333Y-103919404D02*
X130705714Y-103967023D01*
X130562857Y-104062261D01*
X130467619Y-104109880D01*
X130324761Y-104157500D01*
X130086666Y-104205119D01*
X129896190Y-104205119D01*
X129658095Y-104157500D01*
X129515238Y-104109880D01*
X129420000Y-104062261D01*
X129277142Y-103967023D01*
X129229523Y-103919404D01*
X129420000Y-105205119D02*
X129372380Y-105109880D01*
X129372380Y-104967023D01*
X129420000Y-104824166D01*
X129515238Y-104728928D01*
X129610476Y-104681309D01*
X129800952Y-104633690D01*
X129943809Y-104633690D01*
X130134285Y-104681309D01*
X130229523Y-104728928D01*
X130324761Y-104824166D01*
X130372380Y-104967023D01*
X130372380Y-105062261D01*
X130324761Y-105205119D01*
X130277142Y-105252738D01*
X129943809Y-105252738D01*
X129943809Y-105062261D01*
X130372380Y-105681309D02*
X129372380Y-105681309D01*
X130372380Y-106252738D01*
X129372380Y-106252738D01*
X130372380Y-106728928D02*
X129372380Y-106728928D01*
X129372380Y-106967023D01*
X129420000Y-107109880D01*
X129515238Y-107205119D01*
X129610476Y-107252738D01*
X129800952Y-107300357D01*
X129943809Y-107300357D01*
X130134285Y-107252738D01*
X130229523Y-107205119D01*
X130324761Y-107109880D01*
X130372380Y-106967023D01*
X130372380Y-106728928D01*
X130372380Y-108157500D02*
X129372380Y-108157500D01*
X130324761Y-108157500D02*
X130372380Y-108062261D01*
X130372380Y-107871785D01*
X130324761Y-107776547D01*
X130277142Y-107728928D01*
X130181904Y-107681309D01*
X129896190Y-107681309D01*
X129800952Y-107728928D01*
X129753333Y-107776547D01*
X129705714Y-107871785D01*
X129705714Y-108062261D01*
X129753333Y-108157500D01*
X129324761Y-109347976D02*
X130610476Y-108490833D01*
X129005000Y-109443214D02*
X129005000Y-110205119D01*
X129372380Y-109538452D02*
X129372380Y-110109880D01*
X130372380Y-109824166D02*
X129372380Y-109824166D01*
X129005000Y-110205119D02*
X129005000Y-111205119D01*
X130372380Y-111014642D02*
X129896190Y-110681309D01*
X130372380Y-110443214D02*
X129372380Y-110443214D01*
X129372380Y-110824166D01*
X129420000Y-110919404D01*
X129467619Y-110967023D01*
X129562857Y-111014642D01*
X129705714Y-111014642D01*
X129800952Y-110967023D01*
X129848571Y-110919404D01*
X129896190Y-110824166D01*
X129896190Y-110443214D01*
X129005000Y-111205119D02*
X129005000Y-112157500D01*
X130324761Y-111395595D02*
X130372380Y-111538452D01*
X130372380Y-111776547D01*
X130324761Y-111871785D01*
X130277142Y-111919404D01*
X130181904Y-111967023D01*
X130086666Y-111967023D01*
X129991428Y-111919404D01*
X129943809Y-111871785D01*
X129896190Y-111776547D01*
X129848571Y-111586071D01*
X129800952Y-111490833D01*
X129753333Y-111443214D01*
X129658095Y-111395595D01*
X129562857Y-111395595D01*
X129467619Y-111443214D01*
X129420000Y-111490833D01*
X129372380Y-111586071D01*
X129372380Y-111824166D01*
X129420000Y-111967023D01*
X129005000Y-112157500D02*
X129005000Y-112919404D01*
X129372380Y-112252738D02*
X129372380Y-112824166D01*
X130372380Y-112538452D02*
X129372380Y-112538452D01*
X132022380Y-99919404D02*
X132022380Y-99347976D01*
X132022380Y-99633690D02*
X131022380Y-99633690D01*
X131165238Y-99538452D01*
X131260476Y-99443214D01*
X131308095Y-99347976D01*
X131022380Y-100538452D02*
X131022380Y-100633690D01*
X131070000Y-100728928D01*
X131117619Y-100776547D01*
X131212857Y-100824166D01*
X131403333Y-100871785D01*
X131641428Y-100871785D01*
X131831904Y-100824166D01*
X131927142Y-100776547D01*
X131974761Y-100728928D01*
X132022380Y-100633690D01*
X132022380Y-100538452D01*
X131974761Y-100443214D01*
X131927142Y-100395595D01*
X131831904Y-100347976D01*
X131641428Y-100300357D01*
X131403333Y-100300357D01*
X131212857Y-100347976D01*
X131117619Y-100395595D01*
X131070000Y-100443214D01*
X131022380Y-100538452D01*
X131927142Y-101300357D02*
X131974761Y-101347976D01*
X132022380Y-101300357D01*
X131974761Y-101252738D01*
X131927142Y-101300357D01*
X132022380Y-101300357D01*
X131403333Y-101300357D02*
X131450952Y-101347976D01*
X131498571Y-101300357D01*
X131450952Y-101252738D01*
X131403333Y-101300357D01*
X131498571Y-101300357D01*
X130655000Y-102300357D02*
X130655000Y-103300357D01*
X132022380Y-103109880D02*
X131546190Y-102776547D01*
X132022380Y-102538452D02*
X131022380Y-102538452D01*
X131022380Y-102919404D01*
X131070000Y-103014642D01*
X131117619Y-103062261D01*
X131212857Y-103109880D01*
X131355714Y-103109880D01*
X131450952Y-103062261D01*
X131498571Y-103014642D01*
X131546190Y-102919404D01*
X131546190Y-102538452D01*
X130655000Y-103300357D02*
X130655000Y-104205119D01*
X131498571Y-103538452D02*
X131498571Y-103871785D01*
X132022380Y-104014642D02*
X132022380Y-103538452D01*
X131022380Y-103538452D01*
X131022380Y-104014642D01*
X130655000Y-104205119D02*
X130655000Y-105157500D01*
X131974761Y-104395595D02*
X132022380Y-104538452D01*
X132022380Y-104776547D01*
X131974761Y-104871785D01*
X131927142Y-104919404D01*
X131831904Y-104967023D01*
X131736666Y-104967023D01*
X131641428Y-104919404D01*
X131593809Y-104871785D01*
X131546190Y-104776547D01*
X131498571Y-104586071D01*
X131450952Y-104490833D01*
X131403333Y-104443214D01*
X131308095Y-104395595D01*
X131212857Y-104395595D01*
X131117619Y-104443214D01*
X131070000Y-104490833D01*
X131022380Y-104586071D01*
X131022380Y-104824166D01*
X131070000Y-104967023D01*
X130655000Y-105157500D02*
X130655000Y-106062261D01*
X131498571Y-105395595D02*
X131498571Y-105728928D01*
X132022380Y-105871785D02*
X132022380Y-105395595D01*
X131022380Y-105395595D01*
X131022380Y-105871785D01*
X130655000Y-106062261D02*
X130655000Y-106824166D01*
X131022380Y-106157500D02*
X131022380Y-106728928D01*
X132022380Y-106443214D02*
X131022380Y-106443214D01*
X111452380Y-99919404D02*
X111452380Y-99347976D01*
X111452380Y-99633690D02*
X110452380Y-99633690D01*
X110595238Y-99538452D01*
X110690476Y-99443214D01*
X110738095Y-99347976D01*
X111357142Y-100347976D02*
X111404761Y-100395595D01*
X111452380Y-100347976D01*
X111404761Y-100300357D01*
X111357142Y-100347976D01*
X111452380Y-100347976D01*
X110833333Y-100347976D02*
X110880952Y-100395595D01*
X110928571Y-100347976D01*
X110880952Y-100300357D01*
X110833333Y-100347976D01*
X110928571Y-100347976D01*
X110452380Y-101443214D02*
X111452380Y-101776547D01*
X110452380Y-102109880D01*
X110452380Y-102300357D02*
X110452380Y-102871785D01*
X111452380Y-102586071D02*
X110452380Y-102586071D01*
X111452380Y-103776547D02*
X110976190Y-103443214D01*
X111452380Y-103205119D02*
X110452380Y-103205119D01*
X110452380Y-103586071D01*
X110500000Y-103681309D01*
X110547619Y-103728928D01*
X110642857Y-103776547D01*
X110785714Y-103776547D01*
X110880952Y-103728928D01*
X110928571Y-103681309D01*
X110976190Y-103586071D01*
X110976190Y-103205119D01*
X110928571Y-104205119D02*
X110928571Y-104538452D01*
X111452380Y-104681309D02*
X111452380Y-104205119D01*
X110452380Y-104205119D01*
X110452380Y-104681309D01*
X110928571Y-105443214D02*
X110928571Y-105109880D01*
X111452380Y-105109880D02*
X110452380Y-105109880D01*
X110452380Y-105586071D01*
X112197619Y-99347976D02*
X112150000Y-99395595D01*
X112102380Y-99490833D01*
X112102380Y-99728928D01*
X112150000Y-99824166D01*
X112197619Y-99871785D01*
X112292857Y-99919404D01*
X112388095Y-99919404D01*
X112530952Y-99871785D01*
X113102380Y-99300357D01*
X113102380Y-99919404D01*
X113007142Y-100347976D02*
X113054761Y-100395595D01*
X113102380Y-100347976D01*
X113054761Y-100300357D01*
X113007142Y-100347976D01*
X113102380Y-100347976D01*
X112483333Y-100347976D02*
X112530952Y-100395595D01*
X112578571Y-100347976D01*
X112530952Y-100300357D01*
X112483333Y-100347976D01*
X112578571Y-100347976D01*
X113054761Y-101538452D02*
X113102380Y-101681309D01*
X113102380Y-101919404D01*
X113054761Y-102014642D01*
X113007142Y-102062261D01*
X112911904Y-102109880D01*
X112816666Y-102109880D01*
X112721428Y-102062261D01*
X112673809Y-102014642D01*
X112626190Y-101919404D01*
X112578571Y-101728928D01*
X112530952Y-101633690D01*
X112483333Y-101586071D01*
X112388095Y-101538452D01*
X112292857Y-101538452D01*
X112197619Y-101586071D01*
X112150000Y-101633690D01*
X112102380Y-101728928D01*
X112102380Y-101967023D01*
X112150000Y-102109880D01*
X112102380Y-102443214D02*
X113102380Y-102681309D01*
X112388095Y-102871785D01*
X113102380Y-103062261D01*
X112102380Y-103300357D01*
X113102380Y-103681309D02*
X112102380Y-103681309D01*
X112102380Y-103919404D01*
X112150000Y-104062261D01*
X112245238Y-104157500D01*
X112340476Y-104205119D01*
X112530952Y-104252738D01*
X112673809Y-104252738D01*
X112864285Y-104205119D01*
X112959523Y-104157500D01*
X113054761Y-104062261D01*
X113102380Y-103919404D01*
X113102380Y-103681309D01*
X113102380Y-104681309D02*
X112102380Y-104681309D01*
X112102380Y-105347976D02*
X112102380Y-105538452D01*
X112150000Y-105633690D01*
X112245238Y-105728928D01*
X112435714Y-105776547D01*
X112769047Y-105776547D01*
X112959523Y-105728928D01*
X113054761Y-105633690D01*
X113102380Y-105538452D01*
X113102380Y-105347976D01*
X113054761Y-105252738D01*
X112959523Y-105157500D01*
X112769047Y-105109880D01*
X112435714Y-105109880D01*
X112245238Y-105157500D01*
X112150000Y-105252738D01*
X112102380Y-105347976D01*
X112054761Y-106919404D02*
X113340476Y-106062261D01*
X112102380Y-107109880D02*
X112102380Y-107681309D01*
X113102380Y-107395595D02*
X112102380Y-107395595D01*
X113102380Y-108014642D02*
X112102380Y-108014642D01*
X112816666Y-108347976D01*
X112102380Y-108681309D01*
X113102380Y-108681309D01*
X113054761Y-109109880D02*
X113102380Y-109252738D01*
X113102380Y-109490833D01*
X113054761Y-109586071D01*
X113007142Y-109633690D01*
X112911904Y-109681309D01*
X112816666Y-109681309D01*
X112721428Y-109633690D01*
X112673809Y-109586071D01*
X112626190Y-109490833D01*
X112578571Y-109300357D01*
X112530952Y-109205119D01*
X112483333Y-109157500D01*
X112388095Y-109109880D01*
X112292857Y-109109880D01*
X112197619Y-109157500D01*
X112150000Y-109205119D01*
X112102380Y-109300357D01*
X112102380Y-109538452D01*
X112150000Y-109681309D01*
X113752380Y-99300357D02*
X113752380Y-99919404D01*
X114133333Y-99586071D01*
X114133333Y-99728928D01*
X114180952Y-99824166D01*
X114228571Y-99871785D01*
X114323809Y-99919404D01*
X114561904Y-99919404D01*
X114657142Y-99871785D01*
X114704761Y-99824166D01*
X114752380Y-99728928D01*
X114752380Y-99443214D01*
X114704761Y-99347976D01*
X114657142Y-99300357D01*
X114657142Y-100347976D02*
X114704761Y-100395595D01*
X114752380Y-100347976D01*
X114704761Y-100300357D01*
X114657142Y-100347976D01*
X114752380Y-100347976D01*
X114133333Y-100347976D02*
X114180952Y-100395595D01*
X114228571Y-100347976D01*
X114180952Y-100300357D01*
X114133333Y-100347976D01*
X114228571Y-100347976D01*
X113800000Y-102109880D02*
X113752380Y-102014642D01*
X113752380Y-101871785D01*
X113800000Y-101728928D01*
X113895238Y-101633690D01*
X113990476Y-101586071D01*
X114180952Y-101538452D01*
X114323809Y-101538452D01*
X114514285Y-101586071D01*
X114609523Y-101633690D01*
X114704761Y-101728928D01*
X114752380Y-101871785D01*
X114752380Y-101967023D01*
X114704761Y-102109880D01*
X114657142Y-102157500D01*
X114323809Y-102157500D01*
X114323809Y-101967023D01*
X114752380Y-102586071D02*
X113752380Y-102586071D01*
X114752380Y-103157500D01*
X113752380Y-103157500D01*
X114752380Y-103633690D02*
X113752380Y-103633690D01*
X113752380Y-103871785D01*
X113800000Y-104014642D01*
X113895238Y-104109880D01*
X113990476Y-104157500D01*
X114180952Y-104205119D01*
X114323809Y-104205119D01*
X114514285Y-104157500D01*
X114609523Y-104109880D01*
X114704761Y-104014642D01*
X114752380Y-103871785D01*
X114752380Y-103633690D01*
X115735714Y-99824166D02*
X116402380Y-99824166D01*
X115354761Y-99586071D02*
X116069047Y-99347976D01*
X116069047Y-99967023D01*
X116307142Y-100347976D02*
X116354761Y-100395595D01*
X116402380Y-100347976D01*
X116354761Y-100300357D01*
X116307142Y-100347976D01*
X116402380Y-100347976D01*
X115783333Y-100347976D02*
X115830952Y-100395595D01*
X115878571Y-100347976D01*
X115830952Y-100300357D01*
X115783333Y-100347976D01*
X115878571Y-100347976D01*
X116354761Y-101538452D02*
X116402380Y-101681309D01*
X116402380Y-101919404D01*
X116354761Y-102014642D01*
X116307142Y-102062261D01*
X116211904Y-102109880D01*
X116116666Y-102109880D01*
X116021428Y-102062261D01*
X115973809Y-102014642D01*
X115926190Y-101919404D01*
X115878571Y-101728928D01*
X115830952Y-101633690D01*
X115783333Y-101586071D01*
X115688095Y-101538452D01*
X115592857Y-101538452D01*
X115497619Y-101586071D01*
X115450000Y-101633690D01*
X115402380Y-101728928D01*
X115402380Y-101967023D01*
X115450000Y-102109880D01*
X115402380Y-102443214D02*
X116402380Y-102681309D01*
X115688095Y-102871785D01*
X116402380Y-103062261D01*
X115402380Y-103300357D01*
X116307142Y-104252738D02*
X116354761Y-104205119D01*
X116402380Y-104062261D01*
X116402380Y-103967023D01*
X116354761Y-103824166D01*
X116259523Y-103728928D01*
X116164285Y-103681309D01*
X115973809Y-103633690D01*
X115830952Y-103633690D01*
X115640476Y-103681309D01*
X115545238Y-103728928D01*
X115450000Y-103824166D01*
X115402380Y-103967023D01*
X115402380Y-104062261D01*
X115450000Y-104205119D01*
X115497619Y-104252738D01*
X116402380Y-105157500D02*
X116402380Y-104681309D01*
X115402380Y-104681309D01*
X116402380Y-105490833D02*
X115402380Y-105490833D01*
X116402380Y-106062261D02*
X115830952Y-105633690D01*
X115402380Y-106062261D02*
X115973809Y-105490833D01*
X115354761Y-107205119D02*
X116640476Y-106347976D01*
X115402380Y-107395595D02*
X115402380Y-107967023D01*
X116402380Y-107681309D02*
X115402380Y-107681309D01*
X116307142Y-108871785D02*
X116354761Y-108824166D01*
X116402380Y-108681309D01*
X116402380Y-108586071D01*
X116354761Y-108443214D01*
X116259523Y-108347976D01*
X116164285Y-108300357D01*
X115973809Y-108252738D01*
X115830952Y-108252738D01*
X115640476Y-108300357D01*
X115545238Y-108347976D01*
X115450000Y-108443214D01*
X115402380Y-108586071D01*
X115402380Y-108681309D01*
X115450000Y-108824166D01*
X115497619Y-108871785D01*
X116402380Y-109300357D02*
X115402380Y-109300357D01*
X116402380Y-109871785D02*
X115830952Y-109443214D01*
X115402380Y-109871785D02*
X115973809Y-109300357D01*
X117052380Y-99871785D02*
X117052380Y-99395595D01*
X117528571Y-99347976D01*
X117480952Y-99395595D01*
X117433333Y-99490833D01*
X117433333Y-99728928D01*
X117480952Y-99824166D01*
X117528571Y-99871785D01*
X117623809Y-99919404D01*
X117861904Y-99919404D01*
X117957142Y-99871785D01*
X118004761Y-99824166D01*
X118052380Y-99728928D01*
X118052380Y-99490833D01*
X118004761Y-99395595D01*
X117957142Y-99347976D01*
X117957142Y-100347976D02*
X118004761Y-100395595D01*
X118052380Y-100347976D01*
X118004761Y-100300357D01*
X117957142Y-100347976D01*
X118052380Y-100347976D01*
X117433333Y-100347976D02*
X117480952Y-100395595D01*
X117528571Y-100347976D01*
X117480952Y-100300357D01*
X117433333Y-100347976D01*
X117528571Y-100347976D01*
X117100000Y-102109880D02*
X117052380Y-102014642D01*
X117052380Y-101871785D01*
X117100000Y-101728928D01*
X117195238Y-101633690D01*
X117290476Y-101586071D01*
X117480952Y-101538452D01*
X117623809Y-101538452D01*
X117814285Y-101586071D01*
X117909523Y-101633690D01*
X118004761Y-101728928D01*
X118052380Y-101871785D01*
X118052380Y-101967023D01*
X118004761Y-102109880D01*
X117957142Y-102157500D01*
X117623809Y-102157500D01*
X117623809Y-101967023D01*
X118052380Y-102586071D02*
X117052380Y-102586071D01*
X118052380Y-103157500D01*
X117052380Y-103157500D01*
X118052380Y-103633690D02*
X117052380Y-103633690D01*
X117052380Y-103871785D01*
X117100000Y-104014642D01*
X117195238Y-104109880D01*
X117290476Y-104157500D01*
X117480952Y-104205119D01*
X117623809Y-104205119D01*
X117814285Y-104157500D01*
X117909523Y-104109880D01*
X118004761Y-104014642D01*
X118052380Y-103871785D01*
X118052380Y-103633690D01*
X117004761Y-105347976D02*
X118290476Y-104490833D01*
X118433333Y-105967023D02*
X118385714Y-105919404D01*
X118242857Y-105824166D01*
X118147619Y-105776547D01*
X118004761Y-105728928D01*
X117766666Y-105681309D01*
X117576190Y-105681309D01*
X117338095Y-105728928D01*
X117195238Y-105776547D01*
X117100000Y-105824166D01*
X116957142Y-105919404D01*
X116909523Y-105967023D01*
X117052380Y-106824166D02*
X117052380Y-106347976D01*
X117528571Y-106300357D01*
X117480952Y-106347976D01*
X117433333Y-106443214D01*
X117433333Y-106681309D01*
X117480952Y-106776547D01*
X117528571Y-106824166D01*
X117623809Y-106871785D01*
X117861904Y-106871785D01*
X117957142Y-106824166D01*
X118004761Y-106776547D01*
X118052380Y-106681309D01*
X118052380Y-106443214D01*
X118004761Y-106347976D01*
X117957142Y-106300357D01*
X117052380Y-107157500D02*
X118052380Y-107490833D01*
X117052380Y-107824166D01*
X118433333Y-108062261D02*
X118385714Y-108109880D01*
X118242857Y-108205119D01*
X118147619Y-108252738D01*
X118004761Y-108300357D01*
X117766666Y-108347976D01*
X117576190Y-108347976D01*
X117338095Y-108300357D01*
X117195238Y-108252738D01*
X117100000Y-108205119D01*
X116957142Y-108109880D01*
X116909523Y-108062261D01*
D12*
G36*
X95451571Y-99326957D02*
G01*
X95475809Y-99423232D01*
X95518641Y-99509816D01*
X95578419Y-99584627D01*
X95653494Y-99645582D01*
X95742220Y-99690601D01*
X95838530Y-99716864D01*
X95935795Y-99722714D01*
X96029654Y-99707860D01*
X96117511Y-99674160D01*
X96196770Y-99623472D01*
X96264836Y-99557655D01*
X96319112Y-99478566D01*
X96357002Y-99388066D01*
X96369426Y-99336800D01*
X96376947Y-99292302D01*
X96379919Y-99258001D01*
X96378094Y-99225040D01*
X96371225Y-99184566D01*
X96364250Y-99151469D01*
X96332741Y-99058053D01*
X96281617Y-98974381D01*
X96212429Y-98902335D01*
X96126728Y-98843800D01*
X96099489Y-98829852D01*
X96063122Y-98813414D01*
X96032582Y-98803106D01*
X96000450Y-98797540D01*
X95959307Y-98795331D01*
X95913222Y-98795052D01*
X95828865Y-98799139D01*
X95759586Y-98812554D01*
X95698961Y-98837744D01*
X95640567Y-98877154D01*
X95596302Y-98915702D01*
X95530484Y-98987594D01*
X95485053Y-99062687D01*
X95457850Y-99145438D01*
X95447576Y-99223072D01*
X95451571Y-99326957D01*
G37*
X95451571Y-99326957D02*
X95475809Y-99423232D01*
X95518641Y-99509816D01*
X95578419Y-99584627D01*
X95653494Y-99645582D01*
X95742220Y-99690601D01*
X95838530Y-99716864D01*
X95935795Y-99722714D01*
X96029654Y-99707860D01*
X96117511Y-99674160D01*
X96196770Y-99623472D01*
X96264836Y-99557655D01*
X96319112Y-99478566D01*
X96357002Y-99388066D01*
X96369426Y-99336800D01*
X96376947Y-99292302D01*
X96379919Y-99258001D01*
X96378094Y-99225040D01*
X96371225Y-99184566D01*
X96364250Y-99151469D01*
X96332741Y-99058053D01*
X96281617Y-98974381D01*
X96212429Y-98902335D01*
X96126728Y-98843800D01*
X96099489Y-98829852D01*
X96063122Y-98813414D01*
X96032582Y-98803106D01*
X96000450Y-98797540D01*
X95959307Y-98795331D01*
X95913222Y-98795052D01*
X95828865Y-98799139D01*
X95759586Y-98812554D01*
X95698961Y-98837744D01*
X95640567Y-98877154D01*
X95596302Y-98915702D01*
X95530484Y-98987594D01*
X95485053Y-99062687D01*
X95457850Y-99145438D01*
X95447576Y-99223072D01*
X95451571Y-99326957D01*
G36*
X97897245Y-107786507D02*
G01*
X98131662Y-107786526D01*
X98344603Y-107786552D01*
X98537168Y-107786625D01*
X98710459Y-107786782D01*
X98865576Y-107787064D01*
X99003620Y-107787509D01*
X99125692Y-107788156D01*
X99232894Y-107789045D01*
X99326326Y-107790213D01*
X99407090Y-107791701D01*
X99476286Y-107793546D01*
X99535015Y-107795789D01*
X99584379Y-107798469D01*
X99625478Y-107801623D01*
X99659413Y-107805292D01*
X99687286Y-107809513D01*
X99710198Y-107814327D01*
X99729249Y-107819773D01*
X99745540Y-107825888D01*
X99760173Y-107832712D01*
X99774249Y-107840285D01*
X99788868Y-107848645D01*
X99797974Y-107853839D01*
X99858689Y-107888104D01*
X99858689Y-107029955D01*
X99762733Y-107029955D01*
X99719370Y-107029224D01*
X99686205Y-107027272D01*
X99668424Y-107024463D01*
X99666778Y-107023221D01*
X99673662Y-107011799D01*
X99691505Y-106989084D01*
X99710879Y-106966385D01*
X99751614Y-106911800D01*
X99792617Y-106842321D01*
X99830123Y-106765270D01*
X99860364Y-106687965D01*
X99870012Y-106657113D01*
X99884578Y-106588616D01*
X99894539Y-106505764D01*
X99899583Y-106416371D01*
X99899396Y-106328248D01*
X99893666Y-106249207D01*
X99887858Y-106211511D01*
X99849797Y-106073414D01*
X99792073Y-105946113D01*
X99715211Y-105830292D01*
X99619739Y-105726637D01*
X99506179Y-105635833D01*
X99395381Y-105569031D01*
X99278625Y-105514164D01*
X99159276Y-105472163D01*
X99033283Y-105442167D01*
X98896594Y-105423311D01*
X98745158Y-105414732D01*
X98667711Y-105414006D01*
X98610934Y-105416100D01*
X98610934Y-106245217D01*
X98704002Y-106245424D01*
X98791692Y-106248337D01*
X98868772Y-106254000D01*
X98930009Y-106262455D01*
X98942350Y-106265038D01*
X99049633Y-106296840D01*
X99136658Y-106338498D01*
X99203642Y-106390363D01*
X99250805Y-106452781D01*
X99278365Y-106526100D01*
X99286541Y-106610669D01*
X99275551Y-106706835D01*
X99259829Y-106770311D01*
X99241639Y-106819454D01*
X99215791Y-106873583D01*
X99192089Y-106914244D01*
X99145721Y-106984800D01*
X97995530Y-106984800D01*
X97951962Y-106917392D01*
X97911040Y-106838867D01*
X97884389Y-106754681D01*
X97872465Y-106669557D01*
X97875722Y-106588216D01*
X97894615Y-106515380D01*
X97910184Y-106483426D01*
X97953181Y-106425501D01*
X98009953Y-106376544D01*
X98082575Y-106335390D01*
X98173121Y-106300874D01*
X98283666Y-106271833D01*
X98289533Y-106270552D01*
X98351788Y-106260381D01*
X98429594Y-106252739D01*
X98517720Y-106247670D01*
X98610934Y-106245217D01*
X98610934Y-105416100D01*
X98454895Y-105421857D01*
X98259059Y-105443802D01*
X98080332Y-105479786D01*
X97918845Y-105529759D01*
X97774726Y-105593668D01*
X97648106Y-105671462D01*
X97539115Y-105763089D01*
X97447883Y-105868497D01*
X97416932Y-105913662D01*
X97360785Y-106014611D01*
X97321174Y-106117901D01*
X97297014Y-106227989D01*
X97287219Y-106349330D01*
X97288265Y-106441836D01*
X97299231Y-106571490D01*
X97321046Y-106684084D01*
X97354714Y-106782875D01*
X97401236Y-106871121D01*
X97435448Y-106919986D01*
X97457362Y-106949353D01*
X97472333Y-106971043D01*
X97476733Y-106979253D01*
X97465904Y-106980868D01*
X97435251Y-106982159D01*
X97387526Y-106983138D01*
X97325479Y-106983817D01*
X97251862Y-106984210D01*
X97169427Y-106984330D01*
X97080925Y-106984188D01*
X96989107Y-106983797D01*
X96896724Y-106983171D01*
X96806528Y-106982320D01*
X96721271Y-106981260D01*
X96643703Y-106980001D01*
X96576576Y-106978556D01*
X96522641Y-106976938D01*
X96484650Y-106975161D01*
X96477667Y-106974669D01*
X96407251Y-106967092D01*
X96352102Y-106955531D01*
X96304981Y-106937792D01*
X96258647Y-106911682D01*
X96249067Y-106905415D01*
X96212378Y-106880983D01*
X96212378Y-107786311D01*
X97897245Y-107786507D01*
G37*
X97897245Y-107786507D02*
X98131662Y-107786526D01*
X98344603Y-107786552D01*
X98537168Y-107786625D01*
X98710459Y-107786782D01*
X98865576Y-107787064D01*
X99003620Y-107787509D01*
X99125692Y-107788156D01*
X99232894Y-107789045D01*
X99326326Y-107790213D01*
X99407090Y-107791701D01*
X99476286Y-107793546D01*
X99535015Y-107795789D01*
X99584379Y-107798469D01*
X99625478Y-107801623D01*
X99659413Y-107805292D01*
X99687286Y-107809513D01*
X99710198Y-107814327D01*
X99729249Y-107819773D01*
X99745540Y-107825888D01*
X99760173Y-107832712D01*
X99774249Y-107840285D01*
X99788868Y-107848645D01*
X99797974Y-107853839D01*
X99858689Y-107888104D01*
X99858689Y-107029955D01*
X99762733Y-107029955D01*
X99719370Y-107029224D01*
X99686205Y-107027272D01*
X99668424Y-107024463D01*
X99666778Y-107023221D01*
X99673662Y-107011799D01*
X99691505Y-106989084D01*
X99710879Y-106966385D01*
X99751614Y-106911800D01*
X99792617Y-106842321D01*
X99830123Y-106765270D01*
X99860364Y-106687965D01*
X99870012Y-106657113D01*
X99884578Y-106588616D01*
X99894539Y-106505764D01*
X99899583Y-106416371D01*
X99899396Y-106328248D01*
X99893666Y-106249207D01*
X99887858Y-106211511D01*
X99849797Y-106073414D01*
X99792073Y-105946113D01*
X99715211Y-105830292D01*
X99619739Y-105726637D01*
X99506179Y-105635833D01*
X99395381Y-105569031D01*
X99278625Y-105514164D01*
X99159276Y-105472163D01*
X99033283Y-105442167D01*
X98896594Y-105423311D01*
X98745158Y-105414732D01*
X98667711Y-105414006D01*
X98610934Y-105416100D01*
X98610934Y-106245217D01*
X98704002Y-106245424D01*
X98791692Y-106248337D01*
X98868772Y-106254000D01*
X98930009Y-106262455D01*
X98942350Y-106265038D01*
X99049633Y-106296840D01*
X99136658Y-106338498D01*
X99203642Y-106390363D01*
X99250805Y-106452781D01*
X99278365Y-106526100D01*
X99286541Y-106610669D01*
X99275551Y-106706835D01*
X99259829Y-106770311D01*
X99241639Y-106819454D01*
X99215791Y-106873583D01*
X99192089Y-106914244D01*
X99145721Y-106984800D01*
X97995530Y-106984800D01*
X97951962Y-106917392D01*
X97911040Y-106838867D01*
X97884389Y-106754681D01*
X97872465Y-106669557D01*
X97875722Y-106588216D01*
X97894615Y-106515380D01*
X97910184Y-106483426D01*
X97953181Y-106425501D01*
X98009953Y-106376544D01*
X98082575Y-106335390D01*
X98173121Y-106300874D01*
X98283666Y-106271833D01*
X98289533Y-106270552D01*
X98351788Y-106260381D01*
X98429594Y-106252739D01*
X98517720Y-106247670D01*
X98610934Y-106245217D01*
X98610934Y-105416100D01*
X98454895Y-105421857D01*
X98259059Y-105443802D01*
X98080332Y-105479786D01*
X97918845Y-105529759D01*
X97774726Y-105593668D01*
X97648106Y-105671462D01*
X97539115Y-105763089D01*
X97447883Y-105868497D01*
X97416932Y-105913662D01*
X97360785Y-106014611D01*
X97321174Y-106117901D01*
X97297014Y-106227989D01*
X97287219Y-106349330D01*
X97288265Y-106441836D01*
X97299231Y-106571490D01*
X97321046Y-106684084D01*
X97354714Y-106782875D01*
X97401236Y-106871121D01*
X97435448Y-106919986D01*
X97457362Y-106949353D01*
X97472333Y-106971043D01*
X97476733Y-106979253D01*
X97465904Y-106980868D01*
X97435251Y-106982159D01*
X97387526Y-106983138D01*
X97325479Y-106983817D01*
X97251862Y-106984210D01*
X97169427Y-106984330D01*
X97080925Y-106984188D01*
X96989107Y-106983797D01*
X96896724Y-106983171D01*
X96806528Y-106982320D01*
X96721271Y-106981260D01*
X96643703Y-106980001D01*
X96576576Y-106978556D01*
X96522641Y-106976938D01*
X96484650Y-106975161D01*
X96477667Y-106974669D01*
X96407251Y-106967092D01*
X96352102Y-106955531D01*
X96304981Y-106937792D01*
X96258647Y-106911682D01*
X96249067Y-106905415D01*
X96212378Y-106880983D01*
X96212378Y-107786311D01*
X97897245Y-107786507D01*
G36*
X97291552Y-104273574D02*
G01*
X97311567Y-104425492D01*
X97345202Y-104560756D01*
X97392725Y-104680239D01*
X97454405Y-104784815D01*
X97517965Y-104862424D01*
X97592099Y-104931265D01*
X97671871Y-104985006D01*
X97764091Y-105027910D01*
X97807161Y-105043384D01*
X97846142Y-105056244D01*
X97882289Y-105067446D01*
X97917434Y-105077120D01*
X97953410Y-105085396D01*
X97992050Y-105092403D01*
X98035185Y-105098272D01*
X98084649Y-105103131D01*
X98142273Y-105107110D01*
X98209891Y-105110340D01*
X98289334Y-105112949D01*
X98382436Y-105115067D01*
X98491027Y-105116824D01*
X98616942Y-105118349D01*
X98762012Y-105119772D01*
X98904778Y-105121025D01*
X99060968Y-105122351D01*
X99196239Y-105123556D01*
X99312246Y-105124766D01*
X99410645Y-105126106D01*
X99493093Y-105127700D01*
X99561246Y-105129675D01*
X99616760Y-105132156D01*
X99661292Y-105135269D01*
X99696498Y-105139138D01*
X99724034Y-105143889D01*
X99745556Y-105149648D01*
X99762722Y-105156539D01*
X99777186Y-105164689D01*
X99790606Y-105174223D01*
X99804638Y-105185266D01*
X99810071Y-105189566D01*
X99832910Y-105205386D01*
X99848463Y-105212422D01*
X99848922Y-105212444D01*
X99851121Y-105201567D01*
X99853147Y-105170582D01*
X99854942Y-105121957D01*
X99856451Y-105058163D01*
X99857616Y-104981669D01*
X99858380Y-104894944D01*
X99858686Y-104800457D01*
X99858689Y-104789550D01*
X99858689Y-104366657D01*
X99762622Y-104363395D01*
X99666556Y-104360133D01*
X99717543Y-104298044D01*
X99785057Y-104200714D01*
X99839749Y-104090813D01*
X99869978Y-104004349D01*
X99884666Y-103935278D01*
X99894659Y-103851925D01*
X99899646Y-103762159D01*
X99899313Y-103673845D01*
X99893351Y-103594851D01*
X99887638Y-103558622D01*
X99849776Y-103418603D01*
X99794932Y-103292178D01*
X99723924Y-103180260D01*
X99637568Y-103083762D01*
X99536679Y-103003600D01*
X99422076Y-102940687D01*
X99295984Y-102896312D01*
X99239401Y-102883978D01*
X99177202Y-102876368D01*
X99102363Y-102872739D01*
X99068467Y-102872245D01*
X99065282Y-102872310D01*
X99065282Y-103632248D01*
X99140333Y-103641541D01*
X99204160Y-103669728D01*
X99259798Y-103718197D01*
X99264211Y-103723254D01*
X99299037Y-103771548D01*
X99321620Y-103823257D01*
X99333540Y-103883989D01*
X99336383Y-103959352D01*
X99335978Y-103977459D01*
X99333325Y-104031278D01*
X99327909Y-104071308D01*
X99317745Y-104106324D01*
X99300850Y-104145103D01*
X99295672Y-104155745D01*
X99259844Y-104216396D01*
X99217212Y-104263215D01*
X99201973Y-104275952D01*
X99145462Y-104320622D01*
X98949586Y-104320622D01*
X98870939Y-104320086D01*
X98812988Y-104318396D01*
X98773875Y-104315428D01*
X98751741Y-104311057D01*
X98745274Y-104306972D01*
X98742111Y-104291047D01*
X98739488Y-104257264D01*
X98737655Y-104210340D01*
X98736857Y-104154993D01*
X98736842Y-104146106D01*
X98742096Y-104025330D01*
X98758263Y-103922660D01*
X98785961Y-103836106D01*
X98825808Y-103763681D01*
X98872758Y-103708751D01*
X98930645Y-103664204D01*
X98993693Y-103639480D01*
X99065282Y-103632248D01*
X99065282Y-102872310D01*
X98974712Y-102874178D01*
X98895812Y-102882522D01*
X98824590Y-102898768D01*
X98753864Y-102924405D01*
X98701493Y-102948401D01*
X98606196Y-103007020D01*
X98518170Y-103085117D01*
X98439017Y-103180315D01*
X98370340Y-103290238D01*
X98313741Y-103412510D01*
X98270821Y-103544755D01*
X98255882Y-103609422D01*
X98233777Y-103745604D01*
X98219194Y-103894049D01*
X98212813Y-104045505D01*
X98214445Y-104172064D01*
X98221224Y-104333950D01*
X98162245Y-104326530D01*
X98063092Y-104307238D01*
X97982372Y-104276104D01*
X97919466Y-104232269D01*
X97873756Y-104174871D01*
X97844622Y-104103048D01*
X97831447Y-104015941D01*
X97833611Y-103912686D01*
X97837612Y-103874711D01*
X97862780Y-103733520D01*
X97903814Y-103596707D01*
X97941815Y-103502178D01*
X97961190Y-103457018D01*
X97976760Y-103418585D01*
X97986405Y-103392234D01*
X97988452Y-103384546D01*
X97979374Y-103374802D01*
X97950405Y-103358083D01*
X97901217Y-103334232D01*
X97831484Y-103303093D01*
X97740879Y-103264507D01*
X97725089Y-103257910D01*
X97652772Y-103227853D01*
X97587425Y-103200874D01*
X97531906Y-103178136D01*
X97489072Y-103160806D01*
X97461781Y-103150048D01*
X97452942Y-103146941D01*
X97448187Y-103156940D01*
X97442910Y-103183217D01*
X97439231Y-103211489D01*
X97434474Y-103241646D01*
X97425028Y-103289433D01*
X97411820Y-103350612D01*
X97395776Y-103420946D01*
X97377820Y-103496194D01*
X97370797Y-103524755D01*
X97345209Y-103629816D01*
X97325147Y-103717480D01*
X97309969Y-103792068D01*
X97299035Y-103857903D01*
X97291704Y-103919307D01*
X97287335Y-103980602D01*
X97285287Y-104046110D01*
X97284889Y-104104128D01*
X97291552Y-104273574D01*
G37*
X97291552Y-104273574D02*
X97311567Y-104425492D01*
X97345202Y-104560756D01*
X97392725Y-104680239D01*
X97454405Y-104784815D01*
X97517965Y-104862424D01*
X97592099Y-104931265D01*
X97671871Y-104985006D01*
X97764091Y-105027910D01*
X97807161Y-105043384D01*
X97846142Y-105056244D01*
X97882289Y-105067446D01*
X97917434Y-105077120D01*
X97953410Y-105085396D01*
X97992050Y-105092403D01*
X98035185Y-105098272D01*
X98084649Y-105103131D01*
X98142273Y-105107110D01*
X98209891Y-105110340D01*
X98289334Y-105112949D01*
X98382436Y-105115067D01*
X98491027Y-105116824D01*
X98616942Y-105118349D01*
X98762012Y-105119772D01*
X98904778Y-105121025D01*
X99060968Y-105122351D01*
X99196239Y-105123556D01*
X99312246Y-105124766D01*
X99410645Y-105126106D01*
X99493093Y-105127700D01*
X99561246Y-105129675D01*
X99616760Y-105132156D01*
X99661292Y-105135269D01*
X99696498Y-105139138D01*
X99724034Y-105143889D01*
X99745556Y-105149648D01*
X99762722Y-105156539D01*
X99777186Y-105164689D01*
X99790606Y-105174223D01*
X99804638Y-105185266D01*
X99810071Y-105189566D01*
X99832910Y-105205386D01*
X99848463Y-105212422D01*
X99848922Y-105212444D01*
X99851121Y-105201567D01*
X99853147Y-105170582D01*
X99854942Y-105121957D01*
X99856451Y-105058163D01*
X99857616Y-104981669D01*
X99858380Y-104894944D01*
X99858686Y-104800457D01*
X99858689Y-104789550D01*
X99858689Y-104366657D01*
X99762622Y-104363395D01*
X99666556Y-104360133D01*
X99717543Y-104298044D01*
X99785057Y-104200714D01*
X99839749Y-104090813D01*
X99869978Y-104004349D01*
X99884666Y-103935278D01*
X99894659Y-103851925D01*
X99899646Y-103762159D01*
X99899313Y-103673845D01*
X99893351Y-103594851D01*
X99887638Y-103558622D01*
X99849776Y-103418603D01*
X99794932Y-103292178D01*
X99723924Y-103180260D01*
X99637568Y-103083762D01*
X99536679Y-103003600D01*
X99422076Y-102940687D01*
X99295984Y-102896312D01*
X99239401Y-102883978D01*
X99177202Y-102876368D01*
X99102363Y-102872739D01*
X99068467Y-102872245D01*
X99065282Y-102872310D01*
X99065282Y-103632248D01*
X99140333Y-103641541D01*
X99204160Y-103669728D01*
X99259798Y-103718197D01*
X99264211Y-103723254D01*
X99299037Y-103771548D01*
X99321620Y-103823257D01*
X99333540Y-103883989D01*
X99336383Y-103959352D01*
X99335978Y-103977459D01*
X99333325Y-104031278D01*
X99327909Y-104071308D01*
X99317745Y-104106324D01*
X99300850Y-104145103D01*
X99295672Y-104155745D01*
X99259844Y-104216396D01*
X99217212Y-104263215D01*
X99201973Y-104275952D01*
X99145462Y-104320622D01*
X98949586Y-104320622D01*
X98870939Y-104320086D01*
X98812988Y-104318396D01*
X98773875Y-104315428D01*
X98751741Y-104311057D01*
X98745274Y-104306972D01*
X98742111Y-104291047D01*
X98739488Y-104257264D01*
X98737655Y-104210340D01*
X98736857Y-104154993D01*
X98736842Y-104146106D01*
X98742096Y-104025330D01*
X98758263Y-103922660D01*
X98785961Y-103836106D01*
X98825808Y-103763681D01*
X98872758Y-103708751D01*
X98930645Y-103664204D01*
X98993693Y-103639480D01*
X99065282Y-103632248D01*
X99065282Y-102872310D01*
X98974712Y-102874178D01*
X98895812Y-102882522D01*
X98824590Y-102898768D01*
X98753864Y-102924405D01*
X98701493Y-102948401D01*
X98606196Y-103007020D01*
X98518170Y-103085117D01*
X98439017Y-103180315D01*
X98370340Y-103290238D01*
X98313741Y-103412510D01*
X98270821Y-103544755D01*
X98255882Y-103609422D01*
X98233777Y-103745604D01*
X98219194Y-103894049D01*
X98212813Y-104045505D01*
X98214445Y-104172064D01*
X98221224Y-104333950D01*
X98162245Y-104326530D01*
X98063092Y-104307238D01*
X97982372Y-104276104D01*
X97919466Y-104232269D01*
X97873756Y-104174871D01*
X97844622Y-104103048D01*
X97831447Y-104015941D01*
X97833611Y-103912686D01*
X97837612Y-103874711D01*
X97862780Y-103733520D01*
X97903814Y-103596707D01*
X97941815Y-103502178D01*
X97961190Y-103457018D01*
X97976760Y-103418585D01*
X97986405Y-103392234D01*
X97988452Y-103384546D01*
X97979374Y-103374802D01*
X97950405Y-103358083D01*
X97901217Y-103334232D01*
X97831484Y-103303093D01*
X97740879Y-103264507D01*
X97725089Y-103257910D01*
X97652772Y-103227853D01*
X97587425Y-103200874D01*
X97531906Y-103178136D01*
X97489072Y-103160806D01*
X97461781Y-103150048D01*
X97452942Y-103146941D01*
X97448187Y-103156940D01*
X97442910Y-103183217D01*
X97439231Y-103211489D01*
X97434474Y-103241646D01*
X97425028Y-103289433D01*
X97411820Y-103350612D01*
X97395776Y-103420946D01*
X97377820Y-103496194D01*
X97370797Y-103524755D01*
X97345209Y-103629816D01*
X97325147Y-103717480D01*
X97309969Y-103792068D01*
X97299035Y-103857903D01*
X97291704Y-103919307D01*
X97287335Y-103980602D01*
X97285287Y-104046110D01*
X97284889Y-104104128D01*
X97291552Y-104273574D01*
G36*
X96374071Y-101928429D02*
G01*
X96395245Y-102088570D01*
X96435385Y-102252510D01*
X96494889Y-102422313D01*
X96574154Y-102600043D01*
X96579699Y-102611310D01*
X96607725Y-102669005D01*
X96631802Y-102720552D01*
X96650249Y-102762191D01*
X96661386Y-102790162D01*
X96663933Y-102799733D01*
X96668941Y-102818950D01*
X96673147Y-102823561D01*
X96683580Y-102818458D01*
X96709868Y-102802418D01*
X96749257Y-102777288D01*
X96798991Y-102744914D01*
X96856315Y-102707143D01*
X96918476Y-102665822D01*
X96982718Y-102622798D01*
X97046285Y-102579917D01*
X97106425Y-102539026D01*
X97160380Y-102501971D01*
X97205397Y-102470600D01*
X97238721Y-102446759D01*
X97257597Y-102432294D01*
X97259787Y-102430309D01*
X97255138Y-102420191D01*
X97237962Y-102397850D01*
X97211440Y-102367280D01*
X97196964Y-102351536D01*
X97121682Y-102255047D01*
X97066241Y-102148336D01*
X97031141Y-102032832D01*
X97016880Y-101909962D01*
X97018051Y-101840561D01*
X97035212Y-101719423D01*
X97071094Y-101610205D01*
X97125959Y-101512582D01*
X97200070Y-101426228D01*
X97293688Y-101350815D01*
X97407076Y-101286018D01*
X97493667Y-101248601D01*
X97629366Y-101204748D01*
X97776850Y-101172428D01*
X97932314Y-101151557D01*
X98091956Y-101142051D01*
X98251973Y-101143827D01*
X98408561Y-101156803D01*
X98557918Y-101180894D01*
X98696240Y-101216018D01*
X98819724Y-101262092D01*
X98853978Y-101278373D01*
X98968064Y-101346620D01*
X99064557Y-101427079D01*
X99142670Y-101518570D01*
X99201617Y-101619911D01*
X99240612Y-101729920D01*
X99258868Y-101847415D01*
X99260211Y-101888883D01*
X99249290Y-102010441D01*
X99216474Y-102130878D01*
X99162439Y-102248666D01*
X99087865Y-102362277D01*
X99009539Y-102453685D01*
X98965008Y-102500215D01*
X99262271Y-102681483D01*
X99336433Y-102726580D01*
X99404646Y-102767819D01*
X99464459Y-102803735D01*
X99513420Y-102832866D01*
X99549079Y-102853750D01*
X99568984Y-102864924D01*
X99572079Y-102866375D01*
X99581718Y-102858146D01*
X99598999Y-102832567D01*
X99622283Y-102792873D01*
X99649934Y-102742297D01*
X99680315Y-102684074D01*
X99711790Y-102621437D01*
X99742722Y-102557621D01*
X99771473Y-102495860D01*
X99796408Y-102439388D01*
X99815889Y-102391438D01*
X99824318Y-102367986D01*
X99862133Y-102234221D01*
X99887136Y-102096327D01*
X99900140Y-101948622D01*
X99902468Y-101821833D01*
X99901373Y-101753878D01*
X99899275Y-101688277D01*
X99896434Y-101630847D01*
X99893106Y-101587403D01*
X99891422Y-101573298D01*
X99862587Y-101434284D01*
X99817468Y-101292757D01*
X99758750Y-101155275D01*
X99689120Y-101028394D01*
X99636441Y-100950889D01*
X99528239Y-100823481D01*
X99401671Y-100705178D01*
X99259866Y-100598172D01*
X99105951Y-100504652D01*
X98943053Y-100426810D01*
X98825756Y-100382956D01*
X98642128Y-100332708D01*
X98447581Y-100299209D01*
X98246325Y-100282449D01*
X98042568Y-100282416D01*
X97840521Y-100299101D01*
X97644392Y-100332493D01*
X97458391Y-100382580D01*
X97446803Y-100386397D01*
X97284750Y-100449281D01*
X97136832Y-100526028D01*
X96998865Y-100619242D01*
X96866661Y-100731527D01*
X96821399Y-100775392D01*
X96697457Y-100911534D01*
X96594915Y-101051491D01*
X96512656Y-101197411D01*
X96449564Y-101351442D01*
X96404523Y-101515732D01*
X96387033Y-101611289D01*
X96371466Y-101770023D01*
X96374071Y-101928429D01*
G37*
X96374071Y-101928429D02*
X96395245Y-102088570D01*
X96435385Y-102252510D01*
X96494889Y-102422313D01*
X96574154Y-102600043D01*
X96579699Y-102611310D01*
X96607725Y-102669005D01*
X96631802Y-102720552D01*
X96650249Y-102762191D01*
X96661386Y-102790162D01*
X96663933Y-102799733D01*
X96668941Y-102818950D01*
X96673147Y-102823561D01*
X96683580Y-102818458D01*
X96709868Y-102802418D01*
X96749257Y-102777288D01*
X96798991Y-102744914D01*
X96856315Y-102707143D01*
X96918476Y-102665822D01*
X96982718Y-102622798D01*
X97046285Y-102579917D01*
X97106425Y-102539026D01*
X97160380Y-102501971D01*
X97205397Y-102470600D01*
X97238721Y-102446759D01*
X97257597Y-102432294D01*
X97259787Y-102430309D01*
X97255138Y-102420191D01*
X97237962Y-102397850D01*
X97211440Y-102367280D01*
X97196964Y-102351536D01*
X97121682Y-102255047D01*
X97066241Y-102148336D01*
X97031141Y-102032832D01*
X97016880Y-101909962D01*
X97018051Y-101840561D01*
X97035212Y-101719423D01*
X97071094Y-101610205D01*
X97125959Y-101512582D01*
X97200070Y-101426228D01*
X97293688Y-101350815D01*
X97407076Y-101286018D01*
X97493667Y-101248601D01*
X97629366Y-101204748D01*
X97776850Y-101172428D01*
X97932314Y-101151557D01*
X98091956Y-101142051D01*
X98251973Y-101143827D01*
X98408561Y-101156803D01*
X98557918Y-101180894D01*
X98696240Y-101216018D01*
X98819724Y-101262092D01*
X98853978Y-101278373D01*
X98968064Y-101346620D01*
X99064557Y-101427079D01*
X99142670Y-101518570D01*
X99201617Y-101619911D01*
X99240612Y-101729920D01*
X99258868Y-101847415D01*
X99260211Y-101888883D01*
X99249290Y-102010441D01*
X99216474Y-102130878D01*
X99162439Y-102248666D01*
X99087865Y-102362277D01*
X99009539Y-102453685D01*
X98965008Y-102500215D01*
X99262271Y-102681483D01*
X99336433Y-102726580D01*
X99404646Y-102767819D01*
X99464459Y-102803735D01*
X99513420Y-102832866D01*
X99549079Y-102853750D01*
X99568984Y-102864924D01*
X99572079Y-102866375D01*
X99581718Y-102858146D01*
X99598999Y-102832567D01*
X99622283Y-102792873D01*
X99649934Y-102742297D01*
X99680315Y-102684074D01*
X99711790Y-102621437D01*
X99742722Y-102557621D01*
X99771473Y-102495860D01*
X99796408Y-102439388D01*
X99815889Y-102391438D01*
X99824318Y-102367986D01*
X99862133Y-102234221D01*
X99887136Y-102096327D01*
X99900140Y-101948622D01*
X99902468Y-101821833D01*
X99901373Y-101753878D01*
X99899275Y-101688277D01*
X99896434Y-101630847D01*
X99893106Y-101587403D01*
X99891422Y-101573298D01*
X99862587Y-101434284D01*
X99817468Y-101292757D01*
X99758750Y-101155275D01*
X99689120Y-101028394D01*
X99636441Y-100950889D01*
X99528239Y-100823481D01*
X99401671Y-100705178D01*
X99259866Y-100598172D01*
X99105951Y-100504652D01*
X98943053Y-100426810D01*
X98825756Y-100382956D01*
X98642128Y-100332708D01*
X98447581Y-100299209D01*
X98246325Y-100282449D01*
X98042568Y-100282416D01*
X97840521Y-100299101D01*
X97644392Y-100332493D01*
X97458391Y-100382580D01*
X97446803Y-100386397D01*
X97284750Y-100449281D01*
X97136832Y-100526028D01*
X96998865Y-100619242D01*
X96866661Y-100731527D01*
X96821399Y-100775392D01*
X96697457Y-100911534D01*
X96594915Y-101051491D01*
X96512656Y-101197411D01*
X96449564Y-101351442D01*
X96404523Y-101515732D01*
X96387033Y-101611289D01*
X96371466Y-101770023D01*
X96374071Y-101928429D01*
G36*
X95914054Y-98653600D02*
G01*
X96027993Y-98664465D01*
X96135616Y-98696082D01*
X96234615Y-98746985D01*
X96322684Y-98815707D01*
X96397516Y-98900781D01*
X96455384Y-98997768D01*
X96495005Y-99104036D01*
X96513573Y-99211050D01*
X96512434Y-99316700D01*
X96492930Y-99418875D01*
X96456406Y-99515466D01*
X96404205Y-99604362D01*
X96337673Y-99683454D01*
X96258152Y-99750631D01*
X96166987Y-99803783D01*
X96065523Y-99840801D01*
X95955102Y-99859573D01*
X95905206Y-99861511D01*
X95817267Y-99861511D01*
X95817267Y-99913440D01*
X95820111Y-99949747D01*
X95831911Y-99976645D01*
X95855649Y-100003751D01*
X95894031Y-100042133D01*
X98085602Y-100042133D01*
X98347739Y-100042124D01*
X98588241Y-100042092D01*
X98808048Y-100042028D01*
X99008101Y-100041924D01*
X99189344Y-100041773D01*
X99352716Y-100041566D01*
X99499160Y-100041294D01*
X99629617Y-100040950D01*
X99745029Y-100040526D01*
X99846338Y-100040013D01*
X99934484Y-100039403D01*
X100010410Y-100038688D01*
X100075057Y-100037860D01*
X100129367Y-100036911D01*
X100174280Y-100035833D01*
X100210740Y-100034617D01*
X100239687Y-100033255D01*
X100262063Y-100031739D01*
X100278809Y-100030062D01*
X100290868Y-100028214D01*
X100299180Y-100026187D01*
X100304687Y-100023975D01*
X100306537Y-100022892D01*
X100313549Y-100018729D01*
X100319996Y-100015195D01*
X100325900Y-100011365D01*
X100331286Y-100006318D01*
X100336178Y-99999129D01*
X100340598Y-99988877D01*
X100344572Y-99974636D01*
X100348121Y-99955486D01*
X100351270Y-99930501D01*
X100354042Y-99898760D01*
X100356461Y-99859338D01*
X100358551Y-99811314D01*
X100360335Y-99753763D01*
X100361837Y-99685763D01*
X100363080Y-99606390D01*
X100364089Y-99514721D01*
X100364885Y-99409834D01*
X100365494Y-99290804D01*
X100365939Y-99156710D01*
X100366243Y-99006627D01*
X100366430Y-98839633D01*
X100366524Y-98654804D01*
X100366548Y-98451217D01*
X100366525Y-98227950D01*
X100366480Y-97984078D01*
X100366437Y-97718679D01*
X100366432Y-97680296D01*
X100366389Y-97413318D01*
X100366318Y-97167998D01*
X100366213Y-96943417D01*
X100366066Y-96738655D01*
X100365869Y-96552794D01*
X100365616Y-96384912D01*
X100365300Y-96234092D01*
X100364913Y-96099413D01*
X100364447Y-95979956D01*
X100363897Y-95874801D01*
X100363253Y-95783029D01*
X100362511Y-95703721D01*
X100361661Y-95635957D01*
X100360697Y-95578818D01*
X100359611Y-95531383D01*
X100358397Y-95492734D01*
X100357047Y-95461951D01*
X100355555Y-95438115D01*
X100353911Y-95420306D01*
X100352111Y-95407605D01*
X100350145Y-95399092D01*
X100348477Y-95394734D01*
X100344906Y-95386272D01*
X100342270Y-95378503D01*
X100339634Y-95371398D01*
X100336062Y-95364927D01*
X100330621Y-95359061D01*
X100322375Y-95353771D01*
X100310390Y-95349026D01*
X100293731Y-95344798D01*
X100271463Y-95341057D01*
X100242652Y-95337773D01*
X100206363Y-95334917D01*
X100161661Y-95332460D01*
X100107611Y-95330371D01*
X100043279Y-95328622D01*
X99967730Y-95327183D01*
X99880030Y-95326024D01*
X99779243Y-95325117D01*
X99664434Y-95324431D01*
X99534670Y-95323937D01*
X99389015Y-95323605D01*
X99226535Y-95323407D01*
X99046295Y-95323313D01*
X98847360Y-95323292D01*
X98628796Y-95323315D01*
X98389668Y-95323354D01*
X98129040Y-95323378D01*
X98086889Y-95323378D01*
X97823992Y-95323364D01*
X97582732Y-95323339D01*
X97362165Y-95323329D01*
X97161352Y-95323358D01*
X96979349Y-95323452D01*
X96815216Y-95323638D01*
X96668011Y-95323941D01*
X96536792Y-95324386D01*
X96426867Y-95324966D01*
X96426867Y-95627803D01*
X96484711Y-95667593D01*
X96500479Y-95678764D01*
X96514441Y-95688834D01*
X96527784Y-95697862D01*
X96541693Y-95705903D01*
X96557356Y-95713014D01*
X96575958Y-95719253D01*
X96598686Y-95724675D01*
X96626727Y-95729338D01*
X96661267Y-95733299D01*
X96703492Y-95736615D01*
X96754589Y-95739341D01*
X96815744Y-95741536D01*
X96888144Y-95743255D01*
X96972975Y-95744556D01*
X97071422Y-95745495D01*
X97184674Y-95746130D01*
X97313916Y-95746516D01*
X97460334Y-95746712D01*
X97625116Y-95746773D01*
X97809447Y-95746757D01*
X98014513Y-95746720D01*
X98137133Y-95746711D01*
X98354082Y-95746735D01*
X98549642Y-95746769D01*
X98724999Y-95746757D01*
X98881341Y-95746642D01*
X99019857Y-95746370D01*
X99141734Y-95745882D01*
X99248160Y-95745124D01*
X99340322Y-95744038D01*
X99419409Y-95742569D01*
X99486608Y-95740660D01*
X99543107Y-95738256D01*
X99590093Y-95735299D01*
X99628755Y-95731734D01*
X99660280Y-95727505D01*
X99685855Y-95722554D01*
X99706670Y-95716827D01*
X99723911Y-95710267D01*
X99738765Y-95702817D01*
X99752422Y-95694421D01*
X99766069Y-95685024D01*
X99780893Y-95674568D01*
X99789783Y-95668477D01*
X99847400Y-95629704D01*
X99847400Y-96161268D01*
X99847365Y-96284517D01*
X99847215Y-96387013D01*
X99846878Y-96470580D01*
X99846286Y-96537044D01*
X99845367Y-96588229D01*
X99844051Y-96625959D01*
X99842269Y-96652060D01*
X99839951Y-96668356D01*
X99837026Y-96676672D01*
X99833424Y-96678832D01*
X99829075Y-96676661D01*
X99827645Y-96675465D01*
X99790573Y-96650315D01*
X99737772Y-96624417D01*
X99675770Y-96600808D01*
X99649357Y-96592539D01*
X99631416Y-96587922D01*
X99610355Y-96584021D01*
X99584089Y-96580752D01*
X99550532Y-96578034D01*
X99507599Y-96575785D01*
X99453204Y-96573923D01*
X99385262Y-96572364D01*
X99301688Y-96571028D01*
X99200395Y-96569831D01*
X99079300Y-96568692D01*
X99034600Y-96568315D01*
X98909449Y-96567298D01*
X98805082Y-96566540D01*
X98719707Y-96566097D01*
X98651533Y-96566030D01*
X98598765Y-96566395D01*
X98559614Y-96567252D01*
X98532285Y-96568659D01*
X98514986Y-96570675D01*
X98505926Y-96573357D01*
X98503312Y-96576764D01*
X98505351Y-96580956D01*
X98509667Y-96585429D01*
X98522602Y-96595784D01*
X98551676Y-96617842D01*
X98594759Y-96650043D01*
X98649718Y-96690826D01*
X98714423Y-96738630D01*
X98786742Y-96791895D01*
X98864544Y-96849060D01*
X98945698Y-96908563D01*
X99028072Y-96968845D01*
X99109536Y-97028345D01*
X99187957Y-97085502D01*
X99261204Y-97138755D01*
X99327147Y-97186543D01*
X99383654Y-97227307D01*
X99428593Y-97259484D01*
X99459834Y-97281515D01*
X99466466Y-97286083D01*
X99503369Y-97309004D01*
X99551359Y-97335812D01*
X99600897Y-97361211D01*
X99607577Y-97364432D01*
X99655772Y-97386110D01*
X99693334Y-97398696D01*
X99729160Y-97404426D01*
X99771200Y-97405544D01*
X99847400Y-97404910D01*
X99847400Y-98559349D01*
X99753669Y-98468185D01*
X99703775Y-98421388D01*
X99647295Y-98371101D01*
X99593026Y-98325056D01*
X99567673Y-98304631D01*
X99528128Y-98274193D01*
X99474916Y-98234138D01*
X99409667Y-98185639D01*
X99334011Y-98129865D01*
X99249577Y-98067989D01*
X99157994Y-98001181D01*
X99060892Y-97930613D01*
X98959901Y-97857455D01*
X98856650Y-97782879D01*
X98752768Y-97708056D01*
X98649885Y-97634157D01*
X98549631Y-97562354D01*
X98453636Y-97493816D01*
X98363527Y-97429716D01*
X98280936Y-97371225D01*
X98207492Y-97319514D01*
X98144824Y-97275753D01*
X98094561Y-97241115D01*
X98058334Y-97216770D01*
X98037771Y-97203889D01*
X98033668Y-97202131D01*
X98022342Y-97210090D01*
X97995162Y-97230885D01*
X97953829Y-97263153D01*
X97900044Y-97305530D01*
X97835506Y-97356653D01*
X97761918Y-97415159D01*
X97680978Y-97479686D01*
X97594388Y-97548869D01*
X97503848Y-97621347D01*
X97411060Y-97695754D01*
X97336702Y-97755483D01*
X97336702Y-98766489D01*
X97349659Y-98772398D01*
X97371908Y-98786728D01*
X97373391Y-98787775D01*
X97403544Y-98806562D01*
X97440375Y-98826209D01*
X97448511Y-98830108D01*
X97456940Y-98833644D01*
X97467059Y-98836770D01*
X97480260Y-98839514D01*
X97497938Y-98841908D01*
X97521484Y-98843981D01*
X97552293Y-98845765D01*
X97591757Y-98847288D01*
X97641269Y-98848581D01*
X97702223Y-98849674D01*
X97776011Y-98850597D01*
X97864028Y-98851381D01*
X97967665Y-98852055D01*
X98088316Y-98852650D01*
X98227374Y-98853195D01*
X98386232Y-98853721D01*
X98565089Y-98854255D01*
X98750207Y-98854794D01*
X98914145Y-98855228D01*
X99058303Y-98855491D01*
X99184079Y-98855516D01*
X99292871Y-98855235D01*
X99386077Y-98854581D01*
X99465097Y-98853486D01*
X99531328Y-98851882D01*
X99586170Y-98849703D01*
X99631021Y-98846881D01*
X99667278Y-98843349D01*
X99696341Y-98839039D01*
X99719609Y-98833883D01*
X99738479Y-98827815D01*
X99754351Y-98820767D01*
X99768622Y-98812671D01*
X99782691Y-98803460D01*
X99795158Y-98794960D01*
X99821452Y-98777824D01*
X99839037Y-98767678D01*
X99842257Y-98766489D01*
X99843334Y-98777396D01*
X99844335Y-98808589D01*
X99845235Y-98857777D01*
X99846010Y-98922667D01*
X99846637Y-99000970D01*
X99847091Y-99090393D01*
X99847349Y-99188644D01*
X99847400Y-99257555D01*
X99847180Y-99362548D01*
X99846548Y-99459390D01*
X99845549Y-99545893D01*
X99844227Y-99619868D01*
X99842626Y-99679126D01*
X99840791Y-99721480D01*
X99838765Y-99744740D01*
X99837493Y-99748622D01*
X99822591Y-99740924D01*
X99814560Y-99732926D01*
X99797434Y-99719754D01*
X99767183Y-99702515D01*
X99742622Y-99690593D01*
X99683711Y-99663955D01*
X98506845Y-99660880D01*
X97329978Y-99657805D01*
X97329978Y-99212147D01*
X97330142Y-99114330D01*
X97330611Y-99023936D01*
X97331347Y-98943370D01*
X97332316Y-98875038D01*
X97333480Y-98821344D01*
X97334803Y-98784695D01*
X97336249Y-98767496D01*
X97336702Y-98766489D01*
X97336702Y-97755483D01*
X97317722Y-97770730D01*
X97225537Y-97844910D01*
X97136204Y-97916931D01*
X97051424Y-97985431D01*
X96972898Y-98049045D01*
X96902326Y-98106412D01*
X96841409Y-98156167D01*
X96791847Y-98196948D01*
X96771178Y-98214112D01*
X96670516Y-98300404D01*
X96587259Y-98377003D01*
X96519438Y-98445817D01*
X96465089Y-98508752D01*
X96457722Y-98518133D01*
X96427117Y-98557644D01*
X96426867Y-97425884D01*
X96474844Y-97431173D01*
X96532188Y-97427870D01*
X96600463Y-97406339D01*
X96680212Y-97366365D01*
X96752495Y-97321057D01*
X96775140Y-97304839D01*
X96812696Y-97276786D01*
X96863021Y-97238570D01*
X96923973Y-97191863D01*
X96993411Y-97138339D01*
X97069194Y-97079669D01*
X97149180Y-97017525D01*
X97231228Y-96953579D01*
X97313196Y-96889505D01*
X97392943Y-96826973D01*
X97468327Y-96767657D01*
X97537207Y-96713229D01*
X97597442Y-96665361D01*
X97646889Y-96625725D01*
X97683408Y-96595994D01*
X97704858Y-96577839D01*
X97708156Y-96574780D01*
X97700149Y-96571921D01*
X97669855Y-96569707D01*
X97617556Y-96568143D01*
X97543531Y-96567233D01*
X97448063Y-96566980D01*
X97331434Y-96567387D01*
X97211445Y-96568296D01*
X97079333Y-96569618D01*
X96967594Y-96571143D01*
X96874025Y-96573119D01*
X96796419Y-96575794D01*
X96732574Y-96579418D01*
X96680283Y-96584239D01*
X96637344Y-96590506D01*
X96601551Y-96598468D01*
X96570700Y-96608373D01*
X96542586Y-96620469D01*
X96515005Y-96635007D01*
X96489966Y-96649689D01*
X96426867Y-96687686D01*
X96426867Y-95627803D01*
X96426867Y-95324966D01*
X96420617Y-95324999D01*
X96318544Y-95325805D01*
X96229633Y-95326830D01*
X96152941Y-95328100D01*
X96087527Y-95329640D01*
X96032449Y-95331476D01*
X95986765Y-95333633D01*
X95949534Y-95336137D01*
X95919813Y-95339013D01*
X95896662Y-95342287D01*
X95879139Y-95345985D01*
X95866301Y-95350131D01*
X95857208Y-95354753D01*
X95850918Y-95359874D01*
X95846488Y-95365522D01*
X95842978Y-95371721D01*
X95839445Y-95378496D01*
X95835876Y-95384492D01*
X95833300Y-95389725D01*
X95830972Y-95397901D01*
X95828878Y-95410114D01*
X95827007Y-95427459D01*
X95825347Y-95451031D01*
X95823884Y-95481923D01*
X95822608Y-95521232D01*
X95821504Y-95570050D01*
X95820561Y-95629473D01*
X95819767Y-95700596D01*
X95819109Y-95784512D01*
X95818575Y-95882317D01*
X95818153Y-95995106D01*
X95817829Y-96123971D01*
X95817592Y-96270009D01*
X95817430Y-96434314D01*
X95817330Y-96617980D01*
X95817280Y-96822103D01*
X95817267Y-97033247D01*
X95817267Y-98653600D01*
X95914054Y-98653600D01*
G37*
X95914054Y-98653600D02*
X96027993Y-98664465D01*
X96135616Y-98696082D01*
X96234615Y-98746985D01*
X96322684Y-98815707D01*
X96397516Y-98900781D01*
X96455384Y-98997768D01*
X96495005Y-99104036D01*
X96513573Y-99211050D01*
X96512434Y-99316700D01*
X96492930Y-99418875D01*
X96456406Y-99515466D01*
X96404205Y-99604362D01*
X96337673Y-99683454D01*
X96258152Y-99750631D01*
X96166987Y-99803783D01*
X96065523Y-99840801D01*
X95955102Y-99859573D01*
X95905206Y-99861511D01*
X95817267Y-99861511D01*
X95817267Y-99913440D01*
X95820111Y-99949747D01*
X95831911Y-99976645D01*
X95855649Y-100003751D01*
X95894031Y-100042133D01*
X98085602Y-100042133D01*
X98347739Y-100042124D01*
X98588241Y-100042092D01*
X98808048Y-100042028D01*
X99008101Y-100041924D01*
X99189344Y-100041773D01*
X99352716Y-100041566D01*
X99499160Y-100041294D01*
X99629617Y-100040950D01*
X99745029Y-100040526D01*
X99846338Y-100040013D01*
X99934484Y-100039403D01*
X100010410Y-100038688D01*
X100075057Y-100037860D01*
X100129367Y-100036911D01*
X100174280Y-100035833D01*
X100210740Y-100034617D01*
X100239687Y-100033255D01*
X100262063Y-100031739D01*
X100278809Y-100030062D01*
X100290868Y-100028214D01*
X100299180Y-100026187D01*
X100304687Y-100023975D01*
X100306537Y-100022892D01*
X100313549Y-100018729D01*
X100319996Y-100015195D01*
X100325900Y-100011365D01*
X100331286Y-100006318D01*
X100336178Y-99999129D01*
X100340598Y-99988877D01*
X100344572Y-99974636D01*
X100348121Y-99955486D01*
X100351270Y-99930501D01*
X100354042Y-99898760D01*
X100356461Y-99859338D01*
X100358551Y-99811314D01*
X100360335Y-99753763D01*
X100361837Y-99685763D01*
X100363080Y-99606390D01*
X100364089Y-99514721D01*
X100364885Y-99409834D01*
X100365494Y-99290804D01*
X100365939Y-99156710D01*
X100366243Y-99006627D01*
X100366430Y-98839633D01*
X100366524Y-98654804D01*
X100366548Y-98451217D01*
X100366525Y-98227950D01*
X100366480Y-97984078D01*
X100366437Y-97718679D01*
X100366432Y-97680296D01*
X100366389Y-97413318D01*
X100366318Y-97167998D01*
X100366213Y-96943417D01*
X100366066Y-96738655D01*
X100365869Y-96552794D01*
X100365616Y-96384912D01*
X100365300Y-96234092D01*
X100364913Y-96099413D01*
X100364447Y-95979956D01*
X100363897Y-95874801D01*
X100363253Y-95783029D01*
X100362511Y-95703721D01*
X100361661Y-95635957D01*
X100360697Y-95578818D01*
X100359611Y-95531383D01*
X100358397Y-95492734D01*
X100357047Y-95461951D01*
X100355555Y-95438115D01*
X100353911Y-95420306D01*
X100352111Y-95407605D01*
X100350145Y-95399092D01*
X100348477Y-95394734D01*
X100344906Y-95386272D01*
X100342270Y-95378503D01*
X100339634Y-95371398D01*
X100336062Y-95364927D01*
X100330621Y-95359061D01*
X100322375Y-95353771D01*
X100310390Y-95349026D01*
X100293731Y-95344798D01*
X100271463Y-95341057D01*
X100242652Y-95337773D01*
X100206363Y-95334917D01*
X100161661Y-95332460D01*
X100107611Y-95330371D01*
X100043279Y-95328622D01*
X99967730Y-95327183D01*
X99880030Y-95326024D01*
X99779243Y-95325117D01*
X99664434Y-95324431D01*
X99534670Y-95323937D01*
X99389015Y-95323605D01*
X99226535Y-95323407D01*
X99046295Y-95323313D01*
X98847360Y-95323292D01*
X98628796Y-95323315D01*
X98389668Y-95323354D01*
X98129040Y-95323378D01*
X98086889Y-95323378D01*
X97823992Y-95323364D01*
X97582732Y-95323339D01*
X97362165Y-95323329D01*
X97161352Y-95323358D01*
X96979349Y-95323452D01*
X96815216Y-95323638D01*
X96668011Y-95323941D01*
X96536792Y-95324386D01*
X96426867Y-95324966D01*
X96426867Y-95627803D01*
X96484711Y-95667593D01*
X96500479Y-95678764D01*
X96514441Y-95688834D01*
X96527784Y-95697862D01*
X96541693Y-95705903D01*
X96557356Y-95713014D01*
X96575958Y-95719253D01*
X96598686Y-95724675D01*
X96626727Y-95729338D01*
X96661267Y-95733299D01*
X96703492Y-95736615D01*
X96754589Y-95739341D01*
X96815744Y-95741536D01*
X96888144Y-95743255D01*
X96972975Y-95744556D01*
X97071422Y-95745495D01*
X97184674Y-95746130D01*
X97313916Y-95746516D01*
X97460334Y-95746712D01*
X97625116Y-95746773D01*
X97809447Y-95746757D01*
X98014513Y-95746720D01*
X98137133Y-95746711D01*
X98354082Y-95746735D01*
X98549642Y-95746769D01*
X98724999Y-95746757D01*
X98881341Y-95746642D01*
X99019857Y-95746370D01*
X99141734Y-95745882D01*
X99248160Y-95745124D01*
X99340322Y-95744038D01*
X99419409Y-95742569D01*
X99486608Y-95740660D01*
X99543107Y-95738256D01*
X99590093Y-95735299D01*
X99628755Y-95731734D01*
X99660280Y-95727505D01*
X99685855Y-95722554D01*
X99706670Y-95716827D01*
X99723911Y-95710267D01*
X99738765Y-95702817D01*
X99752422Y-95694421D01*
X99766069Y-95685024D01*
X99780893Y-95674568D01*
X99789783Y-95668477D01*
X99847400Y-95629704D01*
X99847400Y-96161268D01*
X99847365Y-96284517D01*
X99847215Y-96387013D01*
X99846878Y-96470580D01*
X99846286Y-96537044D01*
X99845367Y-96588229D01*
X99844051Y-96625959D01*
X99842269Y-96652060D01*
X99839951Y-96668356D01*
X99837026Y-96676672D01*
X99833424Y-96678832D01*
X99829075Y-96676661D01*
X99827645Y-96675465D01*
X99790573Y-96650315D01*
X99737772Y-96624417D01*
X99675770Y-96600808D01*
X99649357Y-96592539D01*
X99631416Y-96587922D01*
X99610355Y-96584021D01*
X99584089Y-96580752D01*
X99550532Y-96578034D01*
X99507599Y-96575785D01*
X99453204Y-96573923D01*
X99385262Y-96572364D01*
X99301688Y-96571028D01*
X99200395Y-96569831D01*
X99079300Y-96568692D01*
X99034600Y-96568315D01*
X98909449Y-96567298D01*
X98805082Y-96566540D01*
X98719707Y-96566097D01*
X98651533Y-96566030D01*
X98598765Y-96566395D01*
X98559614Y-96567252D01*
X98532285Y-96568659D01*
X98514986Y-96570675D01*
X98505926Y-96573357D01*
X98503312Y-96576764D01*
X98505351Y-96580956D01*
X98509667Y-96585429D01*
X98522602Y-96595784D01*
X98551676Y-96617842D01*
X98594759Y-96650043D01*
X98649718Y-96690826D01*
X98714423Y-96738630D01*
X98786742Y-96791895D01*
X98864544Y-96849060D01*
X98945698Y-96908563D01*
X99028072Y-96968845D01*
X99109536Y-97028345D01*
X99187957Y-97085502D01*
X99261204Y-97138755D01*
X99327147Y-97186543D01*
X99383654Y-97227307D01*
X99428593Y-97259484D01*
X99459834Y-97281515D01*
X99466466Y-97286083D01*
X99503369Y-97309004D01*
X99551359Y-97335812D01*
X99600897Y-97361211D01*
X99607577Y-97364432D01*
X99655772Y-97386110D01*
X99693334Y-97398696D01*
X99729160Y-97404426D01*
X99771200Y-97405544D01*
X99847400Y-97404910D01*
X99847400Y-98559349D01*
X99753669Y-98468185D01*
X99703775Y-98421388D01*
X99647295Y-98371101D01*
X99593026Y-98325056D01*
X99567673Y-98304631D01*
X99528128Y-98274193D01*
X99474916Y-98234138D01*
X99409667Y-98185639D01*
X99334011Y-98129865D01*
X99249577Y-98067989D01*
X99157994Y-98001181D01*
X99060892Y-97930613D01*
X98959901Y-97857455D01*
X98856650Y-97782879D01*
X98752768Y-97708056D01*
X98649885Y-97634157D01*
X98549631Y-97562354D01*
X98453636Y-97493816D01*
X98363527Y-97429716D01*
X98280936Y-97371225D01*
X98207492Y-97319514D01*
X98144824Y-97275753D01*
X98094561Y-97241115D01*
X98058334Y-97216770D01*
X98037771Y-97203889D01*
X98033668Y-97202131D01*
X98022342Y-97210090D01*
X97995162Y-97230885D01*
X97953829Y-97263153D01*
X97900044Y-97305530D01*
X97835506Y-97356653D01*
X97761918Y-97415159D01*
X97680978Y-97479686D01*
X97594388Y-97548869D01*
X97503848Y-97621347D01*
X97411060Y-97695754D01*
X97336702Y-97755483D01*
X97336702Y-98766489D01*
X97349659Y-98772398D01*
X97371908Y-98786728D01*
X97373391Y-98787775D01*
X97403544Y-98806562D01*
X97440375Y-98826209D01*
X97448511Y-98830108D01*
X97456940Y-98833644D01*
X97467059Y-98836770D01*
X97480260Y-98839514D01*
X97497938Y-98841908D01*
X97521484Y-98843981D01*
X97552293Y-98845765D01*
X97591757Y-98847288D01*
X97641269Y-98848581D01*
X97702223Y-98849674D01*
X97776011Y-98850597D01*
X97864028Y-98851381D01*
X97967665Y-98852055D01*
X98088316Y-98852650D01*
X98227374Y-98853195D01*
X98386232Y-98853721D01*
X98565089Y-98854255D01*
X98750207Y-98854794D01*
X98914145Y-98855228D01*
X99058303Y-98855491D01*
X99184079Y-98855516D01*
X99292871Y-98855235D01*
X99386077Y-98854581D01*
X99465097Y-98853486D01*
X99531328Y-98851882D01*
X99586170Y-98849703D01*
X99631021Y-98846881D01*
X99667278Y-98843349D01*
X99696341Y-98839039D01*
X99719609Y-98833883D01*
X99738479Y-98827815D01*
X99754351Y-98820767D01*
X99768622Y-98812671D01*
X99782691Y-98803460D01*
X99795158Y-98794960D01*
X99821452Y-98777824D01*
X99839037Y-98767678D01*
X99842257Y-98766489D01*
X99843334Y-98777396D01*
X99844335Y-98808589D01*
X99845235Y-98857777D01*
X99846010Y-98922667D01*
X99846637Y-99000970D01*
X99847091Y-99090393D01*
X99847349Y-99188644D01*
X99847400Y-99257555D01*
X99847180Y-99362548D01*
X99846548Y-99459390D01*
X99845549Y-99545893D01*
X99844227Y-99619868D01*
X99842626Y-99679126D01*
X99840791Y-99721480D01*
X99838765Y-99744740D01*
X99837493Y-99748622D01*
X99822591Y-99740924D01*
X99814560Y-99732926D01*
X99797434Y-99719754D01*
X99767183Y-99702515D01*
X99742622Y-99690593D01*
X99683711Y-99663955D01*
X98506845Y-99660880D01*
X97329978Y-99657805D01*
X97329978Y-99212147D01*
X97330142Y-99114330D01*
X97330611Y-99023936D01*
X97331347Y-98943370D01*
X97332316Y-98875038D01*
X97333480Y-98821344D01*
X97334803Y-98784695D01*
X97336249Y-98767496D01*
X97336702Y-98766489D01*
X97336702Y-97755483D01*
X97317722Y-97770730D01*
X97225537Y-97844910D01*
X97136204Y-97916931D01*
X97051424Y-97985431D01*
X96972898Y-98049045D01*
X96902326Y-98106412D01*
X96841409Y-98156167D01*
X96791847Y-98196948D01*
X96771178Y-98214112D01*
X96670516Y-98300404D01*
X96587259Y-98377003D01*
X96519438Y-98445817D01*
X96465089Y-98508752D01*
X96457722Y-98518133D01*
X96427117Y-98557644D01*
X96426867Y-97425884D01*
X96474844Y-97431173D01*
X96532188Y-97427870D01*
X96600463Y-97406339D01*
X96680212Y-97366365D01*
X96752495Y-97321057D01*
X96775140Y-97304839D01*
X96812696Y-97276786D01*
X96863021Y-97238570D01*
X96923973Y-97191863D01*
X96993411Y-97138339D01*
X97069194Y-97079669D01*
X97149180Y-97017525D01*
X97231228Y-96953579D01*
X97313196Y-96889505D01*
X97392943Y-96826973D01*
X97468327Y-96767657D01*
X97537207Y-96713229D01*
X97597442Y-96665361D01*
X97646889Y-96625725D01*
X97683408Y-96595994D01*
X97704858Y-96577839D01*
X97708156Y-96574780D01*
X97700149Y-96571921D01*
X97669855Y-96569707D01*
X97617556Y-96568143D01*
X97543531Y-96567233D01*
X97448063Y-96566980D01*
X97331434Y-96567387D01*
X97211445Y-96568296D01*
X97079333Y-96569618D01*
X96967594Y-96571143D01*
X96874025Y-96573119D01*
X96796419Y-96575794D01*
X96732574Y-96579418D01*
X96680283Y-96584239D01*
X96637344Y-96590506D01*
X96601551Y-96598468D01*
X96570700Y-96608373D01*
X96542586Y-96620469D01*
X96515005Y-96635007D01*
X96489966Y-96649689D01*
X96426867Y-96687686D01*
X96426867Y-95627803D01*
X96426867Y-95324966D01*
X96420617Y-95324999D01*
X96318544Y-95325805D01*
X96229633Y-95326830D01*
X96152941Y-95328100D01*
X96087527Y-95329640D01*
X96032449Y-95331476D01*
X95986765Y-95333633D01*
X95949534Y-95336137D01*
X95919813Y-95339013D01*
X95896662Y-95342287D01*
X95879139Y-95345985D01*
X95866301Y-95350131D01*
X95857208Y-95354753D01*
X95850918Y-95359874D01*
X95846488Y-95365522D01*
X95842978Y-95371721D01*
X95839445Y-95378496D01*
X95835876Y-95384492D01*
X95833300Y-95389725D01*
X95830972Y-95397901D01*
X95828878Y-95410114D01*
X95827007Y-95427459D01*
X95825347Y-95451031D01*
X95823884Y-95481923D01*
X95822608Y-95521232D01*
X95821504Y-95570050D01*
X95820561Y-95629473D01*
X95819767Y-95700596D01*
X95819109Y-95784512D01*
X95818575Y-95882317D01*
X95818153Y-95995106D01*
X95817829Y-96123971D01*
X95817592Y-96270009D01*
X95817430Y-96434314D01*
X95817330Y-96617980D01*
X95817280Y-96822103D01*
X95817267Y-97033247D01*
X95817267Y-98653600D01*
X95914054Y-98653600D01*
D11*
X106410000Y-116350000D02*
X106410000Y-112250000D01*
X106410000Y-112250000D02*
X104410000Y-112250000D01*
X104410000Y-112250000D02*
X104410000Y-116350000D01*
X104410000Y-116350000D02*
X106410000Y-116350000D01*
X100060000Y-116350000D02*
X100060000Y-112250000D01*
X100060000Y-112250000D02*
X98060000Y-112250000D01*
X98060000Y-112250000D02*
X98060000Y-116350000D01*
X98060000Y-116350000D02*
X100060000Y-116350000D01*
D10*
X106662380Y-113466666D02*
X107376666Y-113466666D01*
X107519523Y-113419047D01*
X107614761Y-113323809D01*
X107662380Y-113180952D01*
X107662380Y-113085714D01*
X107662380Y-113942857D02*
X106662380Y-113942857D01*
X106662380Y-114323809D01*
X106710000Y-114419047D01*
X106757619Y-114466666D01*
X106852857Y-114514285D01*
X106995714Y-114514285D01*
X107090952Y-114466666D01*
X107138571Y-114419047D01*
X107186190Y-114323809D01*
X107186190Y-113942857D01*
X106662380Y-114847619D02*
X106662380Y-115514285D01*
X107662380Y-115085714D01*
X104910000Y-117191404D02*
X104862380Y-117096166D01*
X104862380Y-116953309D01*
X104910000Y-116810452D01*
X105005238Y-116715214D01*
X105100476Y-116667595D01*
X105290952Y-116619976D01*
X105433809Y-116619976D01*
X105624285Y-116667595D01*
X105719523Y-116715214D01*
X105814761Y-116810452D01*
X105862380Y-116953309D01*
X105862380Y-117048547D01*
X105814761Y-117191404D01*
X105767142Y-117239023D01*
X105433809Y-117239023D01*
X105433809Y-117048547D01*
X105862380Y-117667595D02*
X104862380Y-117667595D01*
X105862380Y-118239023D01*
X104862380Y-118239023D01*
X105862380Y-118715214D02*
X104862380Y-118715214D01*
X104862380Y-118953309D01*
X104910000Y-119096166D01*
X105005238Y-119191404D01*
X105100476Y-119239023D01*
X105290952Y-119286642D01*
X105433809Y-119286642D01*
X105624285Y-119239023D01*
X105719523Y-119191404D01*
X105814761Y-119096166D01*
X105862380Y-118953309D01*
X105862380Y-118715214D01*
X104862380Y-107757785D02*
X105862380Y-108091119D01*
X104862380Y-108424452D01*
X104862380Y-108614928D02*
X104862380Y-109186357D01*
X105862380Y-108900642D02*
X104862380Y-108900642D01*
X105862380Y-110091119D02*
X105386190Y-109757785D01*
X105862380Y-109519690D02*
X104862380Y-109519690D01*
X104862380Y-109900642D01*
X104910000Y-109995880D01*
X104957619Y-110043500D01*
X105052857Y-110091119D01*
X105195714Y-110091119D01*
X105290952Y-110043500D01*
X105338571Y-109995880D01*
X105386190Y-109900642D01*
X105386190Y-109519690D01*
X105338571Y-110519690D02*
X105338571Y-110853023D01*
X105862380Y-110995880D02*
X105862380Y-110519690D01*
X104862380Y-110519690D01*
X104862380Y-110995880D01*
X105338571Y-111757785D02*
X105338571Y-111424452D01*
X105862380Y-111424452D02*
X104862380Y-111424452D01*
X104862380Y-111900642D01*
X96734380Y-113466666D02*
X97448666Y-113466666D01*
X97591523Y-113419047D01*
X97686761Y-113323809D01*
X97734380Y-113180952D01*
X97734380Y-113085714D01*
X97734380Y-113942857D02*
X96734380Y-113942857D01*
X96734380Y-114323809D01*
X96782000Y-114419047D01*
X96829619Y-114466666D01*
X96924857Y-114514285D01*
X97067714Y-114514285D01*
X97162952Y-114466666D01*
X97210571Y-114419047D01*
X97258190Y-114323809D01*
X97258190Y-113942857D01*
X96734380Y-115371428D02*
X96734380Y-115180952D01*
X96782000Y-115085714D01*
X96829619Y-115038095D01*
X96972476Y-114942857D01*
X97162952Y-114895238D01*
X97543904Y-114895238D01*
X97639142Y-114942857D01*
X97686761Y-114990476D01*
X97734380Y-115085714D01*
X97734380Y-115276190D01*
X97686761Y-115371428D01*
X97639142Y-115419047D01*
X97543904Y-115466666D01*
X97305809Y-115466666D01*
X97210571Y-115419047D01*
X97162952Y-115371428D01*
X97115333Y-115276190D01*
X97115333Y-115085714D01*
X97162952Y-114990476D01*
X97210571Y-114942857D01*
X97305809Y-114895238D01*
X98512380Y-116651738D02*
X99512380Y-116985071D01*
X98512380Y-117318404D01*
X98512380Y-117508880D02*
X98512380Y-118080309D01*
X99512380Y-117794595D02*
X98512380Y-117794595D01*
X99512380Y-118985071D02*
X99036190Y-118651738D01*
X99512380Y-118413642D02*
X98512380Y-118413642D01*
X98512380Y-118794595D01*
X98560000Y-118889833D01*
X98607619Y-118937452D01*
X98702857Y-118985071D01*
X98845714Y-118985071D01*
X98940952Y-118937452D01*
X98988571Y-118889833D01*
X99036190Y-118794595D01*
X99036190Y-118413642D01*
X98988571Y-119413642D02*
X98988571Y-119746976D01*
X99512380Y-119889833D02*
X99512380Y-119413642D01*
X98512380Y-119413642D01*
X98512380Y-119889833D01*
X98988571Y-120651738D02*
X98988571Y-120318404D01*
X99512380Y-120318404D02*
X98512380Y-120318404D01*
X98512380Y-120794595D01*
X98560000Y-109757785D02*
X98512380Y-109662547D01*
X98512380Y-109519690D01*
X98560000Y-109376833D01*
X98655238Y-109281595D01*
X98750476Y-109233976D01*
X98940952Y-109186357D01*
X99083809Y-109186357D01*
X99274285Y-109233976D01*
X99369523Y-109281595D01*
X99464761Y-109376833D01*
X99512380Y-109519690D01*
X99512380Y-109614928D01*
X99464761Y-109757785D01*
X99417142Y-109805404D01*
X99083809Y-109805404D01*
X99083809Y-109614928D01*
X99512380Y-110233976D02*
X98512380Y-110233976D01*
X99512380Y-110805404D01*
X98512380Y-110805404D01*
X99512380Y-111281595D02*
X98512380Y-111281595D01*
X98512380Y-111519690D01*
X98560000Y-111662547D01*
X98655238Y-111757785D01*
X98750476Y-111805404D01*
X98940952Y-111853023D01*
X99083809Y-111853023D01*
X99274285Y-111805404D01*
X99369523Y-111757785D01*
X99464761Y-111662547D01*
X99512380Y-111519690D01*
X99512380Y-111281595D01*
M02*
