M48
; DRILL file {KiCad 7.0.10-7.0.10~ubuntu22.04.1} date do 20 mrt 2025 21:46:38
; FORMAT={-:-/ absolute / inch / decimal}
; #@! TF.CreationDate,2025-03-20T21:46:38+01:00
; #@! TF.GenerationSoftware,Kicad,Pcbnew,7.0.10-7.0.10~ubuntu22.04.1
; #@! TF.FileFunction,Plated,1,2,PTH
FMAT,2
INCH
; #@! TA.AperFunction,Plated,PTH,ViaDrill
T1C0.0157
; #@! TA.AperFunction,Plated,PTH,ComponentDrill
T2C0.0256
; #@! TA.AperFunction,Plated,PTH,ViaDrill
T3C0.0276
; #@! TA.AperFunction,Plated,PTH,ComponentDrill
T4C0.0394
; #@! TA.AperFunction,Plated,PTH,ComponentDrill
T5C0.0400
; #@! TA.AperFunction,Plated,PTH,ComponentDrill
T6C0.0512
%
G90
G05
T1
X3.75Y-3.9
X3.75Y-4.1
X3.78Y-3.95
X3.81Y-4.2
X3.85Y-4.15
X5.0Y-4.1
T2
X5.175Y-4.1
X5.175Y-4.15
X5.175Y-4.2
X5.175Y-4.25
X5.175Y-4.3
X5.225Y-4.1
X5.225Y-4.15
X5.225Y-4.2
X5.225Y-4.25
X5.225Y-4.3
T3
X3.9Y-4.38
X4.15Y-4.38
X4.925Y-4.475
X5.02Y-4.3
X5.0525Y-4.57
X5.375Y-4.25
T4
X3.6Y-3.75
X3.6Y-3.85
X3.6Y-3.95
X3.6Y-4.05
X3.6Y-4.15
X3.6Y-4.25
X3.6Y-4.35
X3.6Y-4.45
X3.6Y-4.55
X3.6Y-4.65
X3.7Y-3.75
X3.7Y-3.85
X3.7Y-3.95
X3.7Y-4.05
X3.7Y-4.15
X3.7Y-4.25
X3.7Y-4.35
X3.7Y-4.45
X3.7Y-4.55
X3.7Y-4.65
X4.0Y-3.75
X4.0Y-3.85
X4.0Y-3.95
X4.0Y-4.15
X4.0Y-4.25
X4.0Y-4.45
X4.0Y-4.55
X4.0Y-4.65
X4.2Y-3.75
X4.2Y-3.85
X4.2Y-3.95
X4.2Y-4.15
X4.2Y-4.25
X4.3Y-4.45
X4.3Y-4.55
X4.3Y-4.65
X4.5Y-3.75
X4.5Y-3.85
X4.5Y-4.15
X4.5Y-4.25
X4.725Y-4.7
X4.825Y-4.7
T5
X4.725Y-4.0
X4.725Y-4.1
X4.725Y-4.2
X4.725Y-4.3
X4.725Y-4.4
X4.825Y-4.0
X4.825Y-4.1
X4.825Y-4.2
X4.825Y-4.3
X4.825Y-4.4
T6
X4.647Y-3.69
X4.903Y-3.69
M30
