G04 #@! TF.GenerationSoftware,KiCad,Pcbnew,5.1.5-52549c5~86~ubuntu19.04.1*
G04 #@! TF.CreationDate,2020-12-26T14:34:18+01:00*
G04 #@! TF.ProjectId,jlink-tagConnect-adapter-v3,6a6c696e-6b2d-4746-9167-436f6e6e6563,rev?*
G04 #@! TF.SameCoordinates,Original*
G04 #@! TF.FileFunction,Legend,Bot*
G04 #@! TF.FilePolarity,Positive*
%FSLAX46Y46*%
G04 Gerber Fmt 4.6, Leading zero omitted, Abs format (unit mm)*
G04 Created by KiCad (PCBNEW 5.1.5-52549c5~86~ubuntu19.04.1) date 2020-12-26 14:34:18*
%MOMM*%
%LPD*%
G04 APERTURE LIST*
%ADD10C,0.150000*%
%ADD11C,0.120000*%
%ADD12C,0.010000*%
G04 APERTURE END LIST*
D10*
X111847380Y-95585595D02*
X112656904Y-95585595D01*
X112752142Y-95633214D01*
X112799761Y-95680833D01*
X112847380Y-95776071D01*
X112847380Y-95966547D01*
X112799761Y-96061785D01*
X112752142Y-96109404D01*
X112656904Y-96157023D01*
X111847380Y-96157023D01*
X112180714Y-96633214D02*
X112847380Y-96633214D01*
X112275952Y-96633214D02*
X112228333Y-96680833D01*
X112180714Y-96776071D01*
X112180714Y-96918928D01*
X112228333Y-97014166D01*
X112323571Y-97061785D01*
X112847380Y-97061785D01*
X112847380Y-97537976D02*
X112180714Y-97537976D01*
X111847380Y-97537976D02*
X111895000Y-97490357D01*
X111942619Y-97537976D01*
X111895000Y-97585595D01*
X111847380Y-97537976D01*
X111942619Y-97537976D01*
X112180714Y-97918928D02*
X112847380Y-98157023D01*
X112180714Y-98395119D01*
X112799761Y-99157023D02*
X112847380Y-99061785D01*
X112847380Y-98871309D01*
X112799761Y-98776071D01*
X112704523Y-98728452D01*
X112323571Y-98728452D01*
X112228333Y-98776071D01*
X112180714Y-98871309D01*
X112180714Y-99061785D01*
X112228333Y-99157023D01*
X112323571Y-99204642D01*
X112418809Y-99204642D01*
X112514047Y-98728452D01*
X112847380Y-99633214D02*
X112180714Y-99633214D01*
X112371190Y-99633214D02*
X112275952Y-99680833D01*
X112228333Y-99728452D01*
X112180714Y-99823690D01*
X112180714Y-99918928D01*
X112799761Y-100204642D02*
X112847380Y-100299880D01*
X112847380Y-100490357D01*
X112799761Y-100585595D01*
X112704523Y-100633214D01*
X112656904Y-100633214D01*
X112561666Y-100585595D01*
X112514047Y-100490357D01*
X112514047Y-100347499D01*
X112466428Y-100252261D01*
X112371190Y-100204642D01*
X112323571Y-100204642D01*
X112228333Y-100252261D01*
X112180714Y-100347499D01*
X112180714Y-100490357D01*
X112228333Y-100585595D01*
X112847380Y-101490357D02*
X112323571Y-101490357D01*
X112228333Y-101442738D01*
X112180714Y-101347499D01*
X112180714Y-101157023D01*
X112228333Y-101061785D01*
X112799761Y-101490357D02*
X112847380Y-101395119D01*
X112847380Y-101157023D01*
X112799761Y-101061785D01*
X112704523Y-101014166D01*
X112609285Y-101014166D01*
X112514047Y-101061785D01*
X112466428Y-101157023D01*
X112466428Y-101395119D01*
X112418809Y-101490357D01*
X112847380Y-102109404D02*
X112799761Y-102014166D01*
X112704523Y-101966547D01*
X111847380Y-101966547D01*
X111847380Y-103537976D02*
X112561666Y-103537976D01*
X112704523Y-103490357D01*
X112799761Y-103395119D01*
X112847380Y-103252261D01*
X112847380Y-103157023D01*
X112466428Y-104014166D02*
X112466428Y-104776071D01*
X112847380Y-105728452D02*
X112847380Y-105252261D01*
X111847380Y-105252261D01*
X112847380Y-106061785D02*
X112180714Y-106061785D01*
X111847380Y-106061785D02*
X111895000Y-106014166D01*
X111942619Y-106061785D01*
X111895000Y-106109404D01*
X111847380Y-106061785D01*
X111942619Y-106061785D01*
X112180714Y-106537976D02*
X112847380Y-106537976D01*
X112275952Y-106537976D02*
X112228333Y-106585595D01*
X112180714Y-106680833D01*
X112180714Y-106823690D01*
X112228333Y-106918928D01*
X112323571Y-106966547D01*
X112847380Y-106966547D01*
X112847380Y-107442738D02*
X111847380Y-107442738D01*
X112466428Y-107537976D02*
X112847380Y-107823690D01*
X112180714Y-107823690D02*
X112561666Y-107442738D01*
X112561666Y-108966547D02*
X112561666Y-109442738D01*
X112847380Y-108871309D02*
X111847380Y-109204642D01*
X112847380Y-109537976D01*
X112847380Y-110299880D02*
X111847380Y-110299880D01*
X112799761Y-110299880D02*
X112847380Y-110204642D01*
X112847380Y-110014166D01*
X112799761Y-109918928D01*
X112752142Y-109871309D01*
X112656904Y-109823690D01*
X112371190Y-109823690D01*
X112275952Y-109871309D01*
X112228333Y-109918928D01*
X112180714Y-110014166D01*
X112180714Y-110204642D01*
X112228333Y-110299880D01*
X112847380Y-111204642D02*
X112323571Y-111204642D01*
X112228333Y-111157023D01*
X112180714Y-111061785D01*
X112180714Y-110871309D01*
X112228333Y-110776071D01*
X112799761Y-111204642D02*
X112847380Y-111109404D01*
X112847380Y-110871309D01*
X112799761Y-110776071D01*
X112704523Y-110728452D01*
X112609285Y-110728452D01*
X112514047Y-110776071D01*
X112466428Y-110871309D01*
X112466428Y-111109404D01*
X112418809Y-111204642D01*
X112180714Y-111680833D02*
X113180714Y-111680833D01*
X112228333Y-111680833D02*
X112180714Y-111776071D01*
X112180714Y-111966547D01*
X112228333Y-112061785D01*
X112275952Y-112109404D01*
X112371190Y-112157023D01*
X112656904Y-112157023D01*
X112752142Y-112109404D01*
X112799761Y-112061785D01*
X112847380Y-111966547D01*
X112847380Y-111776071D01*
X112799761Y-111680833D01*
X112180714Y-112442738D02*
X112180714Y-112823690D01*
X111847380Y-112585595D02*
X112704523Y-112585595D01*
X112799761Y-112633214D01*
X112847380Y-112728452D01*
X112847380Y-112823690D01*
X112799761Y-113537976D02*
X112847380Y-113442738D01*
X112847380Y-113252261D01*
X112799761Y-113157023D01*
X112704523Y-113109404D01*
X112323571Y-113109404D01*
X112228333Y-113157023D01*
X112180714Y-113252261D01*
X112180714Y-113442738D01*
X112228333Y-113537976D01*
X112323571Y-113585595D01*
X112418809Y-113585595D01*
X112514047Y-113109404D01*
X112847380Y-114014166D02*
X112180714Y-114014166D01*
X112371190Y-114014166D02*
X112275952Y-114061785D01*
X112228333Y-114109404D01*
X112180714Y-114204642D01*
X112180714Y-114299880D01*
D11*
X125095000Y-114935000D02*
X125095000Y-98425000D01*
X128905000Y-114935000D02*
X125095000Y-114935000D01*
X128905000Y-98425000D02*
X128905000Y-114935000D01*
X125095000Y-98425000D02*
X128905000Y-98425000D01*
X111125000Y-119380000D02*
X111125000Y-93980000D01*
X117475000Y-119380000D02*
X111125000Y-119380000D01*
X117475000Y-93980000D02*
X117475000Y-119380000D01*
X111125000Y-93980000D02*
X117475000Y-93980000D01*
X127958904Y-94308428D02*
X127958904Y-94156047D01*
X127997000Y-94079857D01*
X128035095Y-94041761D01*
X128149380Y-93965571D01*
X128301761Y-93927476D01*
X128606523Y-93927476D01*
X128682714Y-93965571D01*
X128720809Y-94003666D01*
X128758904Y-94079857D01*
X128758904Y-94232238D01*
X128720809Y-94308428D01*
X128682714Y-94346523D01*
X128606523Y-94384619D01*
X128416047Y-94384619D01*
X128339857Y-94346523D01*
X128301761Y-94308428D01*
X128263666Y-94232238D01*
X128263666Y-94079857D01*
X128301761Y-94003666D01*
X128339857Y-93965571D01*
X128416047Y-93927476D01*
X127958904Y-97804428D02*
X127958904Y-97423476D01*
X128339857Y-97385380D01*
X128301761Y-97423476D01*
X128263666Y-97499666D01*
X128263666Y-97690142D01*
X128301761Y-97766333D01*
X128339857Y-97804428D01*
X128416047Y-97842523D01*
X128606523Y-97842523D01*
X128682714Y-97804428D01*
X128720809Y-97766333D01*
X128758904Y-97690142D01*
X128758904Y-97499666D01*
X128720809Y-97423476D01*
X128682714Y-97385380D01*
X133838904Y-93622714D02*
X133838904Y-93165571D01*
X133838904Y-93394142D02*
X133038904Y-93394142D01*
X133153190Y-93317952D01*
X133229380Y-93241761D01*
X133267476Y-93165571D01*
X133038904Y-94117952D02*
X133038904Y-94194142D01*
X133077000Y-94270333D01*
X133115095Y-94308428D01*
X133191285Y-94346523D01*
X133343666Y-94384619D01*
X133534142Y-94384619D01*
X133686523Y-94346523D01*
X133762714Y-94308428D01*
X133800809Y-94270333D01*
X133838904Y-94194142D01*
X133838904Y-94117952D01*
X133800809Y-94041761D01*
X133762714Y-94003666D01*
X133686523Y-93965571D01*
X133534142Y-93927476D01*
X133343666Y-93927476D01*
X133191285Y-93965571D01*
X133115095Y-94003666D01*
X133077000Y-94041761D01*
X133038904Y-94117952D01*
X133838904Y-97842523D02*
X133838904Y-97385380D01*
X133838904Y-97613952D02*
X133038904Y-97613952D01*
X133153190Y-97537761D01*
X133229380Y-97461571D01*
X133267476Y-97385380D01*
D10*
X114752380Y-104060952D02*
X114752380Y-103489523D01*
X114752380Y-103775238D02*
X113752380Y-103775238D01*
X113895238Y-103680000D01*
X113990476Y-103584761D01*
X114038095Y-103489523D01*
X114752380Y-105013333D02*
X114752380Y-104441904D01*
X114752380Y-104727619D02*
X113752380Y-104727619D01*
X113895238Y-104632380D01*
X113990476Y-104537142D01*
X114038095Y-104441904D01*
X113704761Y-106156190D02*
X114990476Y-105299047D01*
X113847619Y-106441904D02*
X113800000Y-106489523D01*
X113752380Y-106584761D01*
X113752380Y-106822857D01*
X113800000Y-106918095D01*
X113847619Y-106965714D01*
X113942857Y-107013333D01*
X114038095Y-107013333D01*
X114180952Y-106965714D01*
X114752380Y-106394285D01*
X114752380Y-107013333D01*
X113752380Y-107632380D02*
X113752380Y-107727619D01*
X113800000Y-107822857D01*
X113847619Y-107870476D01*
X113942857Y-107918095D01*
X114133333Y-107965714D01*
X114371428Y-107965714D01*
X114561904Y-107918095D01*
X114657142Y-107870476D01*
X114704761Y-107822857D01*
X114752380Y-107727619D01*
X114752380Y-107632380D01*
X114704761Y-107537142D01*
X114657142Y-107489523D01*
X114561904Y-107441904D01*
X114371428Y-107394285D01*
X114133333Y-107394285D01*
X113942857Y-107441904D01*
X113847619Y-107489523D01*
X113800000Y-107537142D01*
X113752380Y-107632380D01*
X113847619Y-108346666D02*
X113800000Y-108394285D01*
X113752380Y-108489523D01*
X113752380Y-108727619D01*
X113800000Y-108822857D01*
X113847619Y-108870476D01*
X113942857Y-108918095D01*
X114038095Y-108918095D01*
X114180952Y-108870476D01*
X114752380Y-108299047D01*
X114752380Y-108918095D01*
X113752380Y-109537142D02*
X113752380Y-109632380D01*
X113800000Y-109727619D01*
X113847619Y-109775238D01*
X113942857Y-109822857D01*
X114133333Y-109870476D01*
X114371428Y-109870476D01*
X114561904Y-109822857D01*
X114657142Y-109775238D01*
X114704761Y-109727619D01*
X114752380Y-109632380D01*
X114752380Y-109537142D01*
X114704761Y-109441904D01*
X114657142Y-109394285D01*
X114561904Y-109346666D01*
X114371428Y-109299047D01*
X114133333Y-109299047D01*
X113942857Y-109346666D01*
X113847619Y-109394285D01*
X113800000Y-109441904D01*
X113752380Y-109537142D01*
X116657380Y-95299047D02*
X116657380Y-94822857D01*
X115657380Y-94822857D01*
X116657380Y-95632380D02*
X115990714Y-95632380D01*
X115657380Y-95632380D02*
X115705000Y-95584761D01*
X115752619Y-95632380D01*
X115705000Y-95680000D01*
X115657380Y-95632380D01*
X115752619Y-95632380D01*
X116609761Y-96537142D02*
X116657380Y-96441904D01*
X116657380Y-96251428D01*
X116609761Y-96156190D01*
X116562142Y-96108571D01*
X116466904Y-96060952D01*
X116181190Y-96060952D01*
X116085952Y-96108571D01*
X116038333Y-96156190D01*
X115990714Y-96251428D01*
X115990714Y-96441904D01*
X116038333Y-96537142D01*
X116609761Y-97346666D02*
X116657380Y-97251428D01*
X116657380Y-97060952D01*
X116609761Y-96965714D01*
X116514523Y-96918095D01*
X116133571Y-96918095D01*
X116038333Y-96965714D01*
X115990714Y-97060952D01*
X115990714Y-97251428D01*
X116038333Y-97346666D01*
X116133571Y-97394285D01*
X116228809Y-97394285D01*
X116324047Y-96918095D01*
X115990714Y-97822857D02*
X116657380Y-97822857D01*
X116085952Y-97822857D02*
X116038333Y-97870476D01*
X115990714Y-97965714D01*
X115990714Y-98108571D01*
X116038333Y-98203809D01*
X116133571Y-98251428D01*
X116657380Y-98251428D01*
X116609761Y-98680000D02*
X116657380Y-98775238D01*
X116657380Y-98965714D01*
X116609761Y-99060952D01*
X116514523Y-99108571D01*
X116466904Y-99108571D01*
X116371666Y-99060952D01*
X116324047Y-98965714D01*
X116324047Y-98822857D01*
X116276428Y-98727619D01*
X116181190Y-98680000D01*
X116133571Y-98680000D01*
X116038333Y-98727619D01*
X115990714Y-98822857D01*
X115990714Y-98965714D01*
X116038333Y-99060952D01*
X116609761Y-99918095D02*
X116657380Y-99822857D01*
X116657380Y-99632380D01*
X116609761Y-99537142D01*
X116514523Y-99489523D01*
X116133571Y-99489523D01*
X116038333Y-99537142D01*
X115990714Y-99632380D01*
X115990714Y-99822857D01*
X116038333Y-99918095D01*
X116133571Y-99965714D01*
X116228809Y-99965714D01*
X116324047Y-99489523D01*
X116657380Y-100822857D02*
X115657380Y-100822857D01*
X116609761Y-100822857D02*
X116657380Y-100727619D01*
X116657380Y-100537142D01*
X116609761Y-100441904D01*
X116562142Y-100394285D01*
X116466904Y-100346666D01*
X116181190Y-100346666D01*
X116085952Y-100394285D01*
X116038333Y-100441904D01*
X115990714Y-100537142D01*
X115990714Y-100727619D01*
X116038333Y-100822857D01*
X115990714Y-102489523D02*
X116657380Y-102489523D01*
X115990714Y-102060952D02*
X116514523Y-102060952D01*
X116609761Y-102108571D01*
X116657380Y-102203809D01*
X116657380Y-102346666D01*
X116609761Y-102441904D01*
X116562142Y-102489523D01*
X115990714Y-102965714D02*
X116657380Y-102965714D01*
X116085952Y-102965714D02*
X116038333Y-103013333D01*
X115990714Y-103108571D01*
X115990714Y-103251428D01*
X116038333Y-103346666D01*
X116133571Y-103394285D01*
X116657380Y-103394285D01*
X116657380Y-104299047D02*
X115657380Y-104299047D01*
X116609761Y-104299047D02*
X116657380Y-104203809D01*
X116657380Y-104013333D01*
X116609761Y-103918095D01*
X116562142Y-103870476D01*
X116466904Y-103822857D01*
X116181190Y-103822857D01*
X116085952Y-103870476D01*
X116038333Y-103918095D01*
X115990714Y-104013333D01*
X115990714Y-104203809D01*
X116038333Y-104299047D01*
X116609761Y-105156190D02*
X116657380Y-105060952D01*
X116657380Y-104870476D01*
X116609761Y-104775238D01*
X116514523Y-104727619D01*
X116133571Y-104727619D01*
X116038333Y-104775238D01*
X115990714Y-104870476D01*
X115990714Y-105060952D01*
X116038333Y-105156190D01*
X116133571Y-105203809D01*
X116228809Y-105203809D01*
X116324047Y-104727619D01*
X116657380Y-105632380D02*
X115990714Y-105632380D01*
X116181190Y-105632380D02*
X116085952Y-105680000D01*
X116038333Y-105727619D01*
X115990714Y-105822857D01*
X115990714Y-105918095D01*
X116562142Y-107584761D02*
X116609761Y-107537142D01*
X116657380Y-107394285D01*
X116657380Y-107299047D01*
X116609761Y-107156190D01*
X116514523Y-107060952D01*
X116419285Y-107013333D01*
X116228809Y-106965714D01*
X116085952Y-106965714D01*
X115895476Y-107013333D01*
X115800238Y-107060952D01*
X115705000Y-107156190D01*
X115657380Y-107299047D01*
X115657380Y-107394285D01*
X115705000Y-107537142D01*
X115752619Y-107584761D01*
X116133571Y-108013333D02*
X116133571Y-108346666D01*
X116657380Y-108489523D02*
X116657380Y-108013333D01*
X115657380Y-108013333D01*
X115657380Y-108489523D01*
X116657380Y-109489523D02*
X116181190Y-109156190D01*
X116657380Y-108918095D02*
X115657380Y-108918095D01*
X115657380Y-109299047D01*
X115705000Y-109394285D01*
X115752619Y-109441904D01*
X115847857Y-109489523D01*
X115990714Y-109489523D01*
X116085952Y-109441904D01*
X116133571Y-109394285D01*
X116181190Y-109299047D01*
X116181190Y-108918095D01*
X116657380Y-109918095D02*
X115657380Y-109918095D01*
X116657380Y-110489523D01*
X115657380Y-110489523D01*
X115657380Y-111918095D02*
X115657380Y-112108571D01*
X115705000Y-112203809D01*
X115800238Y-112299047D01*
X115990714Y-112346666D01*
X116324047Y-112346666D01*
X116514523Y-112299047D01*
X116609761Y-112203809D01*
X116657380Y-112108571D01*
X116657380Y-111918095D01*
X116609761Y-111822857D01*
X116514523Y-111727619D01*
X116324047Y-111680000D01*
X115990714Y-111680000D01*
X115800238Y-111727619D01*
X115705000Y-111822857D01*
X115657380Y-111918095D01*
X116657380Y-112775238D02*
X115657380Y-112775238D01*
X116133571Y-112775238D02*
X116133571Y-113346666D01*
X116657380Y-113346666D02*
X115657380Y-113346666D01*
X116657380Y-114299047D02*
X116657380Y-113822857D01*
X115657380Y-113822857D01*
X115990714Y-115299047D02*
X116657380Y-115537142D01*
X115990714Y-115775238D01*
X116562142Y-116156190D02*
X116609761Y-116203809D01*
X116657380Y-116156190D01*
X116609761Y-116108571D01*
X116562142Y-116156190D01*
X116657380Y-116156190D01*
X116657380Y-117156190D02*
X116657380Y-116584761D01*
X116657380Y-116870476D02*
X115657380Y-116870476D01*
X115800238Y-116775238D01*
X115895476Y-116680000D01*
X115943095Y-116584761D01*
X116562142Y-117584761D02*
X116609761Y-117632380D01*
X116657380Y-117584761D01*
X116609761Y-117537142D01*
X116562142Y-117584761D01*
X116657380Y-117584761D01*
X115752619Y-118013333D02*
X115705000Y-118060952D01*
X115657380Y-118156190D01*
X115657380Y-118394285D01*
X115705000Y-118489523D01*
X115752619Y-118537142D01*
X115847857Y-118584761D01*
X115943095Y-118584761D01*
X116085952Y-118537142D01*
X116657380Y-117965714D01*
X116657380Y-118584761D01*
X126627380Y-99180000D02*
X125627380Y-99180000D01*
X125627380Y-99418095D01*
X125675000Y-99560952D01*
X125770238Y-99656190D01*
X125865476Y-99703809D01*
X126055952Y-99751428D01*
X126198809Y-99751428D01*
X126389285Y-99703809D01*
X126484523Y-99656190D01*
X126579761Y-99560952D01*
X126627380Y-99418095D01*
X126627380Y-99180000D01*
X126579761Y-100560952D02*
X126627380Y-100465714D01*
X126627380Y-100275238D01*
X126579761Y-100180000D01*
X126484523Y-100132380D01*
X126103571Y-100132380D01*
X126008333Y-100180000D01*
X125960714Y-100275238D01*
X125960714Y-100465714D01*
X126008333Y-100560952D01*
X126103571Y-100608571D01*
X126198809Y-100608571D01*
X126294047Y-100132380D01*
X125960714Y-100894285D02*
X125960714Y-101275238D01*
X126627380Y-101037142D02*
X125770238Y-101037142D01*
X125675000Y-101084761D01*
X125627380Y-101180000D01*
X125627380Y-101275238D01*
X126627380Y-102037142D02*
X126103571Y-102037142D01*
X126008333Y-101989523D01*
X125960714Y-101894285D01*
X125960714Y-101703809D01*
X126008333Y-101608571D01*
X126579761Y-102037142D02*
X126627380Y-101941904D01*
X126627380Y-101703809D01*
X126579761Y-101608571D01*
X126484523Y-101560952D01*
X126389285Y-101560952D01*
X126294047Y-101608571D01*
X126246428Y-101703809D01*
X126246428Y-101941904D01*
X126198809Y-102037142D01*
X125960714Y-102941904D02*
X126627380Y-102941904D01*
X125960714Y-102513333D02*
X126484523Y-102513333D01*
X126579761Y-102560952D01*
X126627380Y-102656190D01*
X126627380Y-102799047D01*
X126579761Y-102894285D01*
X126532142Y-102941904D01*
X126627380Y-103560952D02*
X126579761Y-103465714D01*
X126484523Y-103418095D01*
X125627380Y-103418095D01*
X125960714Y-103799047D02*
X125960714Y-104180000D01*
X125627380Y-103941904D02*
X126484523Y-103941904D01*
X126579761Y-103989523D01*
X126627380Y-104084761D01*
X126627380Y-104180000D01*
X126579761Y-105227619D02*
X126627380Y-105370476D01*
X126627380Y-105608571D01*
X126579761Y-105703809D01*
X126532142Y-105751428D01*
X126436904Y-105799047D01*
X126341666Y-105799047D01*
X126246428Y-105751428D01*
X126198809Y-105703809D01*
X126151190Y-105608571D01*
X126103571Y-105418095D01*
X126055952Y-105322857D01*
X126008333Y-105275238D01*
X125913095Y-105227619D01*
X125817857Y-105227619D01*
X125722619Y-105275238D01*
X125675000Y-105322857D01*
X125627380Y-105418095D01*
X125627380Y-105656190D01*
X125675000Y-105799047D01*
X125627380Y-106132380D02*
X126627380Y-106370476D01*
X125913095Y-106560952D01*
X126627380Y-106751428D01*
X125627380Y-106989523D01*
X126627380Y-107370476D02*
X125627380Y-107370476D01*
X125627380Y-107608571D01*
X125675000Y-107751428D01*
X125770238Y-107846666D01*
X125865476Y-107894285D01*
X126055952Y-107941904D01*
X126198809Y-107941904D01*
X126389285Y-107894285D01*
X126484523Y-107846666D01*
X126579761Y-107751428D01*
X126627380Y-107608571D01*
X126627380Y-107370476D01*
X126627380Y-109132380D02*
X125627380Y-109132380D01*
X126627380Y-109560952D02*
X126103571Y-109560952D01*
X126008333Y-109513333D01*
X125960714Y-109418095D01*
X125960714Y-109275238D01*
X126008333Y-109180000D01*
X126055952Y-109132380D01*
X126579761Y-110418095D02*
X126627380Y-110322857D01*
X126627380Y-110132380D01*
X126579761Y-110037142D01*
X126484523Y-109989523D01*
X126103571Y-109989523D01*
X126008333Y-110037142D01*
X125960714Y-110132380D01*
X125960714Y-110322857D01*
X126008333Y-110418095D01*
X126103571Y-110465714D01*
X126198809Y-110465714D01*
X126294047Y-109989523D01*
X126627380Y-111322857D02*
X126103571Y-111322857D01*
X126008333Y-111275238D01*
X125960714Y-111180000D01*
X125960714Y-110989523D01*
X126008333Y-110894285D01*
X126579761Y-111322857D02*
X126627380Y-111227619D01*
X126627380Y-110989523D01*
X126579761Y-110894285D01*
X126484523Y-110846666D01*
X126389285Y-110846666D01*
X126294047Y-110894285D01*
X126246428Y-110989523D01*
X126246428Y-111227619D01*
X126198809Y-111322857D01*
X126627380Y-112227619D02*
X125627380Y-112227619D01*
X126579761Y-112227619D02*
X126627380Y-112132380D01*
X126627380Y-111941904D01*
X126579761Y-111846666D01*
X126532142Y-111799047D01*
X126436904Y-111751428D01*
X126151190Y-111751428D01*
X126055952Y-111799047D01*
X126008333Y-111846666D01*
X125960714Y-111941904D01*
X125960714Y-112132380D01*
X126008333Y-112227619D01*
X126579761Y-113084761D02*
X126627380Y-112989523D01*
X126627380Y-112799047D01*
X126579761Y-112703809D01*
X126484523Y-112656190D01*
X126103571Y-112656190D01*
X126008333Y-112703809D01*
X125960714Y-112799047D01*
X125960714Y-112989523D01*
X126008333Y-113084761D01*
X126103571Y-113132380D01*
X126198809Y-113132380D01*
X126294047Y-112656190D01*
X126627380Y-113560952D02*
X125960714Y-113560952D01*
X126151190Y-113560952D02*
X126055952Y-113608571D01*
X126008333Y-113656190D01*
X125960714Y-113751428D01*
X125960714Y-113846666D01*
X126532142Y-114180000D02*
X126579761Y-114227619D01*
X126627380Y-114180000D01*
X126579761Y-114132380D01*
X126532142Y-114180000D01*
X126627380Y-114180000D01*
X126008333Y-114180000D02*
X126055952Y-114227619D01*
X126103571Y-114180000D01*
X126055952Y-114132380D01*
X126008333Y-114180000D01*
X126103571Y-114180000D01*
X127277380Y-99037142D02*
X127277380Y-99703809D01*
X128277380Y-99275238D01*
X128182142Y-100084761D02*
X128229761Y-100132380D01*
X128277380Y-100084761D01*
X128229761Y-100037142D01*
X128182142Y-100084761D01*
X128277380Y-100084761D01*
X127658333Y-100084761D02*
X127705952Y-100132380D01*
X127753571Y-100084761D01*
X127705952Y-100037142D01*
X127658333Y-100084761D01*
X127753571Y-100084761D01*
X128277380Y-101322857D02*
X127277380Y-101322857D01*
X127896428Y-101418095D02*
X128277380Y-101703809D01*
X127610714Y-101703809D02*
X127991666Y-101322857D01*
X128229761Y-102513333D02*
X128277380Y-102418095D01*
X128277380Y-102227619D01*
X128229761Y-102132380D01*
X128134523Y-102084761D01*
X127753571Y-102084761D01*
X127658333Y-102132380D01*
X127610714Y-102227619D01*
X127610714Y-102418095D01*
X127658333Y-102513333D01*
X127753571Y-102560952D01*
X127848809Y-102560952D01*
X127944047Y-102084761D01*
X127610714Y-102894285D02*
X128277380Y-103132380D01*
X127610714Y-103370476D02*
X128277380Y-103132380D01*
X128515476Y-103037142D01*
X128563095Y-102989523D01*
X128610714Y-102894285D01*
X127705952Y-105418095D02*
X127658333Y-105322857D01*
X127610714Y-105275238D01*
X127515476Y-105227619D01*
X127467857Y-105227619D01*
X127372619Y-105275238D01*
X127325000Y-105322857D01*
X127277380Y-105418095D01*
X127277380Y-105608571D01*
X127325000Y-105703809D01*
X127372619Y-105751428D01*
X127467857Y-105799047D01*
X127515476Y-105799047D01*
X127610714Y-105751428D01*
X127658333Y-105703809D01*
X127705952Y-105608571D01*
X127705952Y-105418095D01*
X127753571Y-105322857D01*
X127801190Y-105275238D01*
X127896428Y-105227619D01*
X128086904Y-105227619D01*
X128182142Y-105275238D01*
X128229761Y-105322857D01*
X128277380Y-105418095D01*
X128277380Y-105608571D01*
X128229761Y-105703809D01*
X128182142Y-105751428D01*
X128086904Y-105799047D01*
X127896428Y-105799047D01*
X127801190Y-105751428D01*
X127753571Y-105703809D01*
X127705952Y-105608571D01*
X128182142Y-106227619D02*
X128229761Y-106275238D01*
X128277380Y-106227619D01*
X128229761Y-106179999D01*
X128182142Y-106227619D01*
X128277380Y-106227619D01*
X127658333Y-106227619D02*
X127705952Y-106275238D01*
X127753571Y-106227619D01*
X127705952Y-106179999D01*
X127658333Y-106227619D01*
X127753571Y-106227619D01*
X127610714Y-107465714D02*
X128277380Y-107465714D01*
X127705952Y-107465714D02*
X127658333Y-107513333D01*
X127610714Y-107608571D01*
X127610714Y-107751428D01*
X127658333Y-107846666D01*
X127753571Y-107894285D01*
X128277380Y-107894285D01*
X128229761Y-108799047D02*
X128277380Y-108703809D01*
X128277380Y-108513333D01*
X128229761Y-108418095D01*
X128182142Y-108370476D01*
X128086904Y-108322857D01*
X127801190Y-108322857D01*
X127705952Y-108370476D01*
X127658333Y-108418095D01*
X127610714Y-108513333D01*
X127610714Y-108703809D01*
X127658333Y-108799047D01*
X128277380Y-110799047D02*
X128277380Y-110989523D01*
X128229761Y-111084761D01*
X128182142Y-111132380D01*
X128039285Y-111227619D01*
X127848809Y-111275238D01*
X127467857Y-111275238D01*
X127372619Y-111227619D01*
X127325000Y-111179999D01*
X127277380Y-111084761D01*
X127277380Y-110894285D01*
X127325000Y-110799047D01*
X127372619Y-110751428D01*
X127467857Y-110703809D01*
X127705952Y-110703809D01*
X127801190Y-110751428D01*
X127848809Y-110799047D01*
X127896428Y-110894285D01*
X127896428Y-111084761D01*
X127848809Y-111179999D01*
X127801190Y-111227619D01*
X127705952Y-111275238D01*
X128182142Y-111703809D02*
X128229761Y-111751428D01*
X128277380Y-111703809D01*
X128229761Y-111656190D01*
X128182142Y-111703809D01*
X128277380Y-111703809D01*
X127658333Y-111703809D02*
X127705952Y-111751428D01*
X127753571Y-111703809D01*
X127705952Y-111656190D01*
X127658333Y-111703809D01*
X127753571Y-111703809D01*
X127610714Y-112941904D02*
X128277380Y-112941904D01*
X127705952Y-112941904D02*
X127658333Y-112989523D01*
X127610714Y-113084761D01*
X127610714Y-113227619D01*
X127658333Y-113322857D01*
X127753571Y-113370476D01*
X128277380Y-113370476D01*
X128229761Y-114275238D02*
X128277380Y-114179999D01*
X128277380Y-113989523D01*
X128229761Y-113894285D01*
X128182142Y-113846666D01*
X128086904Y-113799047D01*
X127801190Y-113799047D01*
X127705952Y-113846666D01*
X127658333Y-113894285D01*
X127610714Y-113989523D01*
X127610714Y-114179999D01*
X127658333Y-114275238D01*
D11*
X134156904Y-99727619D02*
X134728333Y-99727619D01*
X134842619Y-99689523D01*
X134918809Y-99613333D01*
X134956904Y-99499047D01*
X134956904Y-99422857D01*
X134652142Y-100108571D02*
X134652142Y-100718095D01*
X134956904Y-101480000D02*
X134956904Y-101099047D01*
X134156904Y-101099047D01*
X134956904Y-101746666D02*
X134423571Y-101746666D01*
X134156904Y-101746666D02*
X134195000Y-101708571D01*
X134233095Y-101746666D01*
X134195000Y-101784761D01*
X134156904Y-101746666D01*
X134233095Y-101746666D01*
X134423571Y-102127619D02*
X134956904Y-102127619D01*
X134499761Y-102127619D02*
X134461666Y-102165714D01*
X134423571Y-102241904D01*
X134423571Y-102356190D01*
X134461666Y-102432380D01*
X134537857Y-102470476D01*
X134956904Y-102470476D01*
X134956904Y-102851428D02*
X134156904Y-102851428D01*
X134652142Y-102927619D02*
X134956904Y-103156190D01*
X134423571Y-103156190D02*
X134728333Y-102851428D01*
X134156904Y-104489523D02*
X134156904Y-104108571D01*
X134537857Y-104070476D01*
X134499761Y-104108571D01*
X134461666Y-104184761D01*
X134461666Y-104375238D01*
X134499761Y-104451428D01*
X134537857Y-104489523D01*
X134614047Y-104527619D01*
X134804523Y-104527619D01*
X134880714Y-104489523D01*
X134918809Y-104451428D01*
X134956904Y-104375238D01*
X134956904Y-104184761D01*
X134918809Y-104108571D01*
X134880714Y-104070476D01*
X134156904Y-104756190D02*
X134956904Y-105022857D01*
X134156904Y-105289523D01*
X134880714Y-105556190D02*
X134918809Y-105594285D01*
X134956904Y-105556190D01*
X134918809Y-105518095D01*
X134880714Y-105556190D01*
X134956904Y-105556190D01*
X134461666Y-105556190D02*
X134499761Y-105594285D01*
X134537857Y-105556190D01*
X134499761Y-105518095D01*
X134461666Y-105556190D01*
X134537857Y-105556190D01*
X134156904Y-106470476D02*
X134156904Y-106965714D01*
X134461666Y-106699047D01*
X134461666Y-106813333D01*
X134499761Y-106889523D01*
X134537857Y-106927619D01*
X134614047Y-106965714D01*
X134804523Y-106965714D01*
X134880714Y-106927619D01*
X134918809Y-106889523D01*
X134956904Y-106813333D01*
X134956904Y-106584761D01*
X134918809Y-106508571D01*
X134880714Y-106470476D01*
X134156904Y-107460952D02*
X134156904Y-107537142D01*
X134195000Y-107613333D01*
X134233095Y-107651428D01*
X134309285Y-107689523D01*
X134461666Y-107727619D01*
X134652142Y-107727619D01*
X134804523Y-107689523D01*
X134880714Y-107651428D01*
X134918809Y-107613333D01*
X134956904Y-107537142D01*
X134956904Y-107460952D01*
X134918809Y-107384761D01*
X134880714Y-107346666D01*
X134804523Y-107308571D01*
X134652142Y-107270476D01*
X134461666Y-107270476D01*
X134309285Y-107308571D01*
X134233095Y-107346666D01*
X134195000Y-107384761D01*
X134156904Y-107460952D01*
X134156904Y-108222857D02*
X134156904Y-108299047D01*
X134195000Y-108375238D01*
X134233095Y-108413333D01*
X134309285Y-108451428D01*
X134461666Y-108489523D01*
X134652142Y-108489523D01*
X134804523Y-108451428D01*
X134880714Y-108413333D01*
X134918809Y-108375238D01*
X134956904Y-108299047D01*
X134956904Y-108222857D01*
X134918809Y-108146666D01*
X134880714Y-108108571D01*
X134804523Y-108070476D01*
X134652142Y-108032380D01*
X134461666Y-108032380D01*
X134309285Y-108070476D01*
X134233095Y-108108571D01*
X134195000Y-108146666D01*
X134156904Y-108222857D01*
X134956904Y-109441904D02*
X134423571Y-109441904D01*
X134499761Y-109441904D02*
X134461666Y-109480000D01*
X134423571Y-109556190D01*
X134423571Y-109670476D01*
X134461666Y-109746666D01*
X134537857Y-109784761D01*
X134956904Y-109784761D01*
X134537857Y-109784761D02*
X134461666Y-109822857D01*
X134423571Y-109899047D01*
X134423571Y-110013333D01*
X134461666Y-110089523D01*
X134537857Y-110127619D01*
X134956904Y-110127619D01*
X134728333Y-110470476D02*
X134728333Y-110851428D01*
X134956904Y-110394285D02*
X134156904Y-110660952D01*
X134956904Y-110927619D01*
X134956904Y-111803809D02*
X134423571Y-111803809D01*
X134499761Y-111803809D02*
X134461666Y-111841904D01*
X134423571Y-111918095D01*
X134423571Y-112032380D01*
X134461666Y-112108571D01*
X134537857Y-112146666D01*
X134956904Y-112146666D01*
X134537857Y-112146666D02*
X134461666Y-112184761D01*
X134423571Y-112260952D01*
X134423571Y-112375238D01*
X134461666Y-112451428D01*
X134537857Y-112489523D01*
X134956904Y-112489523D01*
X134956904Y-113213333D02*
X134537857Y-113213333D01*
X134461666Y-113175238D01*
X134423571Y-113099047D01*
X134423571Y-112946666D01*
X134461666Y-112870476D01*
X134918809Y-113213333D02*
X134956904Y-113137142D01*
X134956904Y-112946666D01*
X134918809Y-112870476D01*
X134842619Y-112832380D01*
X134766428Y-112832380D01*
X134690238Y-112870476D01*
X134652142Y-112946666D01*
X134652142Y-113137142D01*
X134614047Y-113213333D01*
X134956904Y-113518095D02*
X134423571Y-113937142D01*
X134423571Y-113518095D02*
X134956904Y-113937142D01*
X136581666Y-99651428D02*
X136543571Y-99613333D01*
X136429285Y-99537142D01*
X136353095Y-99499047D01*
X136238809Y-99460952D01*
X136048333Y-99422857D01*
X135895952Y-99422857D01*
X135705476Y-99460952D01*
X135591190Y-99499047D01*
X135515000Y-99537142D01*
X135400714Y-99613333D01*
X135362619Y-99651428D01*
X136276904Y-99956190D02*
X135743571Y-99956190D01*
X135819761Y-99956190D02*
X135781666Y-99994285D01*
X135743571Y-100070476D01*
X135743571Y-100184761D01*
X135781666Y-100260952D01*
X135857857Y-100299047D01*
X136276904Y-100299047D01*
X135857857Y-100299047D02*
X135781666Y-100337142D01*
X135743571Y-100413333D01*
X135743571Y-100527619D01*
X135781666Y-100603809D01*
X135857857Y-100641904D01*
X136276904Y-100641904D01*
X136276904Y-101137142D02*
X136238809Y-101060952D01*
X136200714Y-101022857D01*
X136124523Y-100984761D01*
X135895952Y-100984761D01*
X135819761Y-101022857D01*
X135781666Y-101060952D01*
X135743571Y-101137142D01*
X135743571Y-101251428D01*
X135781666Y-101327619D01*
X135819761Y-101365714D01*
X135895952Y-101403809D01*
X136124523Y-101403809D01*
X136200714Y-101365714D01*
X136238809Y-101327619D01*
X136276904Y-101251428D01*
X136276904Y-101137142D01*
X135743571Y-101746666D02*
X136276904Y-101746666D01*
X135819761Y-101746666D02*
X135781666Y-101784761D01*
X135743571Y-101860952D01*
X135743571Y-101975238D01*
X135781666Y-102051428D01*
X135857857Y-102089523D01*
X136276904Y-102089523D01*
X136276904Y-102470476D02*
X135743571Y-102470476D01*
X135476904Y-102470476D02*
X135515000Y-102432380D01*
X135553095Y-102470476D01*
X135515000Y-102508571D01*
X135476904Y-102470476D01*
X135553095Y-102470476D01*
X135743571Y-102737142D02*
X135743571Y-103041904D01*
X135476904Y-102851428D02*
X136162619Y-102851428D01*
X136238809Y-102889523D01*
X136276904Y-102965714D01*
X136276904Y-103041904D01*
X136276904Y-103422857D02*
X136238809Y-103346666D01*
X136200714Y-103308571D01*
X136124523Y-103270476D01*
X135895952Y-103270476D01*
X135819761Y-103308571D01*
X135781666Y-103346666D01*
X135743571Y-103422857D01*
X135743571Y-103537142D01*
X135781666Y-103613333D01*
X135819761Y-103651428D01*
X135895952Y-103689523D01*
X136124523Y-103689523D01*
X136200714Y-103651428D01*
X136238809Y-103613333D01*
X136276904Y-103537142D01*
X136276904Y-103422857D01*
X136276904Y-104032380D02*
X135743571Y-104032380D01*
X135895952Y-104032380D02*
X135819761Y-104070476D01*
X135781666Y-104108571D01*
X135743571Y-104184761D01*
X135743571Y-104260952D01*
X136238809Y-104832380D02*
X136276904Y-104756190D01*
X136276904Y-104603809D01*
X136238809Y-104527619D01*
X136162619Y-104489523D01*
X135857857Y-104489523D01*
X135781666Y-104527619D01*
X135743571Y-104603809D01*
X135743571Y-104756190D01*
X135781666Y-104832380D01*
X135857857Y-104870476D01*
X135934047Y-104870476D01*
X136010238Y-104489523D01*
X136276904Y-105556190D02*
X135476904Y-105556190D01*
X136238809Y-105556190D02*
X136276904Y-105480000D01*
X136276904Y-105327619D01*
X136238809Y-105251428D01*
X136200714Y-105213333D01*
X136124523Y-105175238D01*
X135895952Y-105175238D01*
X135819761Y-105213333D01*
X135781666Y-105251428D01*
X135743571Y-105327619D01*
X135743571Y-105480000D01*
X135781666Y-105556190D01*
X136276904Y-107194285D02*
X136276904Y-107156190D01*
X136238809Y-107080000D01*
X136124523Y-106965714D01*
X135895952Y-106775238D01*
X135781666Y-106699047D01*
X135667380Y-106660952D01*
X135591190Y-106660952D01*
X135515000Y-106699047D01*
X135476904Y-106775238D01*
X135476904Y-106813333D01*
X135515000Y-106889523D01*
X135591190Y-106927619D01*
X135629285Y-106927619D01*
X135705476Y-106889523D01*
X135743571Y-106851428D01*
X135895952Y-106622857D01*
X135934047Y-106584761D01*
X136010238Y-106546666D01*
X136124523Y-106546666D01*
X136200714Y-106584761D01*
X136238809Y-106622857D01*
X136276904Y-106699047D01*
X136276904Y-106813333D01*
X136238809Y-106889523D01*
X136200714Y-106927619D01*
X136048333Y-107041904D01*
X135934047Y-107080000D01*
X135857857Y-107080000D01*
X135743571Y-108146666D02*
X136543571Y-108146666D01*
X135781666Y-108146666D02*
X135743571Y-108222857D01*
X135743571Y-108375238D01*
X135781666Y-108451428D01*
X135819761Y-108489523D01*
X135895952Y-108527619D01*
X136124523Y-108527619D01*
X136200714Y-108489523D01*
X136238809Y-108451428D01*
X136276904Y-108375238D01*
X136276904Y-108222857D01*
X136238809Y-108146666D01*
X136276904Y-108870476D02*
X135743571Y-108870476D01*
X135895952Y-108870476D02*
X135819761Y-108908571D01*
X135781666Y-108946666D01*
X135743571Y-109022857D01*
X135743571Y-109099047D01*
X136276904Y-109480000D02*
X136238809Y-109403809D01*
X136200714Y-109365714D01*
X136124523Y-109327619D01*
X135895952Y-109327619D01*
X135819761Y-109365714D01*
X135781666Y-109403809D01*
X135743571Y-109480000D01*
X135743571Y-109594285D01*
X135781666Y-109670476D01*
X135819761Y-109708571D01*
X135895952Y-109746666D01*
X136124523Y-109746666D01*
X136200714Y-109708571D01*
X136238809Y-109670476D01*
X136276904Y-109594285D01*
X136276904Y-109480000D01*
X135743571Y-109975238D02*
X135743571Y-110280000D01*
X135476904Y-110089523D02*
X136162619Y-110089523D01*
X136238809Y-110127619D01*
X136276904Y-110203809D01*
X136276904Y-110280000D01*
X136238809Y-110851428D02*
X136276904Y-110775238D01*
X136276904Y-110622857D01*
X136238809Y-110546666D01*
X136162619Y-110508571D01*
X135857857Y-110508571D01*
X135781666Y-110546666D01*
X135743571Y-110622857D01*
X135743571Y-110775238D01*
X135781666Y-110851428D01*
X135857857Y-110889523D01*
X135934047Y-110889523D01*
X136010238Y-110508571D01*
X136238809Y-111575238D02*
X136276904Y-111499047D01*
X136276904Y-111346666D01*
X136238809Y-111270476D01*
X136200714Y-111232380D01*
X136124523Y-111194285D01*
X135895952Y-111194285D01*
X135819761Y-111232380D01*
X135781666Y-111270476D01*
X135743571Y-111346666D01*
X135743571Y-111499047D01*
X135781666Y-111575238D01*
X135743571Y-111803809D02*
X135743571Y-112108571D01*
X135476904Y-111918095D02*
X136162619Y-111918095D01*
X136238809Y-111956190D01*
X136276904Y-112032380D01*
X136276904Y-112108571D01*
X136238809Y-112680000D02*
X136276904Y-112603809D01*
X136276904Y-112451428D01*
X136238809Y-112375238D01*
X136162619Y-112337142D01*
X135857857Y-112337142D01*
X135781666Y-112375238D01*
X135743571Y-112451428D01*
X135743571Y-112603809D01*
X135781666Y-112680000D01*
X135857857Y-112718095D01*
X135934047Y-112718095D01*
X136010238Y-112337142D01*
X136276904Y-113403809D02*
X135476904Y-113403809D01*
X136238809Y-113403809D02*
X136276904Y-113327619D01*
X136276904Y-113175238D01*
X136238809Y-113099047D01*
X136200714Y-113060952D01*
X136124523Y-113022857D01*
X135895952Y-113022857D01*
X135819761Y-113060952D01*
X135781666Y-113099047D01*
X135743571Y-113175238D01*
X135743571Y-113327619D01*
X135781666Y-113403809D01*
X136581666Y-113708571D02*
X136543571Y-113746666D01*
X136429285Y-113822857D01*
X136353095Y-113860952D01*
X136238809Y-113899047D01*
X136048333Y-113937142D01*
X135895952Y-113937142D01*
X135705476Y-113899047D01*
X135591190Y-113860952D01*
X135515000Y-113822857D01*
X135400714Y-113746666D01*
X135362619Y-113708571D01*
X133477000Y-97155000D02*
X134112000Y-97155000D01*
X134112000Y-97155000D02*
X134112000Y-96520000D01*
D12*
G36*
X95451571Y-99326957D02*
G01*
X95475809Y-99423232D01*
X95518641Y-99509816D01*
X95578419Y-99584627D01*
X95653494Y-99645582D01*
X95742220Y-99690601D01*
X95838530Y-99716864D01*
X95935795Y-99722714D01*
X96029654Y-99707860D01*
X96117511Y-99674160D01*
X96196770Y-99623472D01*
X96264836Y-99557655D01*
X96319112Y-99478566D01*
X96357002Y-99388066D01*
X96369426Y-99336800D01*
X96376947Y-99292302D01*
X96379919Y-99258001D01*
X96378094Y-99225040D01*
X96371225Y-99184566D01*
X96364250Y-99151469D01*
X96332741Y-99058053D01*
X96281617Y-98974381D01*
X96212429Y-98902335D01*
X96126728Y-98843800D01*
X96099489Y-98829852D01*
X96063122Y-98813414D01*
X96032582Y-98803106D01*
X96000450Y-98797540D01*
X95959307Y-98795331D01*
X95913222Y-98795052D01*
X95828865Y-98799139D01*
X95759586Y-98812554D01*
X95698961Y-98837744D01*
X95640567Y-98877154D01*
X95596302Y-98915702D01*
X95530484Y-98987594D01*
X95485053Y-99062687D01*
X95457850Y-99145438D01*
X95447576Y-99223072D01*
X95451571Y-99326957D01*
G37*
X95451571Y-99326957D02*
X95475809Y-99423232D01*
X95518641Y-99509816D01*
X95578419Y-99584627D01*
X95653494Y-99645582D01*
X95742220Y-99690601D01*
X95838530Y-99716864D01*
X95935795Y-99722714D01*
X96029654Y-99707860D01*
X96117511Y-99674160D01*
X96196770Y-99623472D01*
X96264836Y-99557655D01*
X96319112Y-99478566D01*
X96357002Y-99388066D01*
X96369426Y-99336800D01*
X96376947Y-99292302D01*
X96379919Y-99258001D01*
X96378094Y-99225040D01*
X96371225Y-99184566D01*
X96364250Y-99151469D01*
X96332741Y-99058053D01*
X96281617Y-98974381D01*
X96212429Y-98902335D01*
X96126728Y-98843800D01*
X96099489Y-98829852D01*
X96063122Y-98813414D01*
X96032582Y-98803106D01*
X96000450Y-98797540D01*
X95959307Y-98795331D01*
X95913222Y-98795052D01*
X95828865Y-98799139D01*
X95759586Y-98812554D01*
X95698961Y-98837744D01*
X95640567Y-98877154D01*
X95596302Y-98915702D01*
X95530484Y-98987594D01*
X95485053Y-99062687D01*
X95457850Y-99145438D01*
X95447576Y-99223072D01*
X95451571Y-99326957D01*
G36*
X97897245Y-107786507D02*
G01*
X98131662Y-107786526D01*
X98344603Y-107786552D01*
X98537168Y-107786625D01*
X98710459Y-107786782D01*
X98865576Y-107787064D01*
X99003620Y-107787509D01*
X99125692Y-107788156D01*
X99232894Y-107789045D01*
X99326326Y-107790213D01*
X99407090Y-107791701D01*
X99476286Y-107793546D01*
X99535015Y-107795789D01*
X99584379Y-107798469D01*
X99625478Y-107801623D01*
X99659413Y-107805292D01*
X99687286Y-107809513D01*
X99710198Y-107814327D01*
X99729249Y-107819773D01*
X99745540Y-107825888D01*
X99760173Y-107832712D01*
X99774249Y-107840285D01*
X99788868Y-107848645D01*
X99797974Y-107853839D01*
X99858689Y-107888104D01*
X99858689Y-107029955D01*
X99762733Y-107029955D01*
X99719370Y-107029224D01*
X99686205Y-107027272D01*
X99668424Y-107024463D01*
X99666778Y-107023221D01*
X99673662Y-107011799D01*
X99691505Y-106989084D01*
X99710879Y-106966385D01*
X99751614Y-106911800D01*
X99792617Y-106842321D01*
X99830123Y-106765270D01*
X99860364Y-106687965D01*
X99870012Y-106657113D01*
X99884578Y-106588616D01*
X99894539Y-106505764D01*
X99899583Y-106416371D01*
X99899396Y-106328248D01*
X99893666Y-106249207D01*
X99887858Y-106211511D01*
X99849797Y-106073414D01*
X99792073Y-105946113D01*
X99715211Y-105830292D01*
X99619739Y-105726637D01*
X99506179Y-105635833D01*
X99395381Y-105569031D01*
X99278625Y-105514164D01*
X99159276Y-105472163D01*
X99033283Y-105442167D01*
X98896594Y-105423311D01*
X98745158Y-105414732D01*
X98667711Y-105414006D01*
X98610934Y-105416100D01*
X98610934Y-106245217D01*
X98704002Y-106245424D01*
X98791692Y-106248337D01*
X98868772Y-106254000D01*
X98930009Y-106262455D01*
X98942350Y-106265038D01*
X99049633Y-106296840D01*
X99136658Y-106338498D01*
X99203642Y-106390363D01*
X99250805Y-106452781D01*
X99278365Y-106526100D01*
X99286541Y-106610669D01*
X99275551Y-106706835D01*
X99259829Y-106770311D01*
X99241639Y-106819454D01*
X99215791Y-106873583D01*
X99192089Y-106914244D01*
X99145721Y-106984800D01*
X97995530Y-106984800D01*
X97951962Y-106917392D01*
X97911040Y-106838867D01*
X97884389Y-106754681D01*
X97872465Y-106669557D01*
X97875722Y-106588216D01*
X97894615Y-106515380D01*
X97910184Y-106483426D01*
X97953181Y-106425501D01*
X98009953Y-106376544D01*
X98082575Y-106335390D01*
X98173121Y-106300874D01*
X98283666Y-106271833D01*
X98289533Y-106270552D01*
X98351788Y-106260381D01*
X98429594Y-106252739D01*
X98517720Y-106247670D01*
X98610934Y-106245217D01*
X98610934Y-105416100D01*
X98454895Y-105421857D01*
X98259059Y-105443802D01*
X98080332Y-105479786D01*
X97918845Y-105529759D01*
X97774726Y-105593668D01*
X97648106Y-105671462D01*
X97539115Y-105763089D01*
X97447883Y-105868497D01*
X97416932Y-105913662D01*
X97360785Y-106014611D01*
X97321174Y-106117901D01*
X97297014Y-106227989D01*
X97287219Y-106349330D01*
X97288265Y-106441836D01*
X97299231Y-106571490D01*
X97321046Y-106684084D01*
X97354714Y-106782875D01*
X97401236Y-106871121D01*
X97435448Y-106919986D01*
X97457362Y-106949353D01*
X97472333Y-106971043D01*
X97476733Y-106979253D01*
X97465904Y-106980868D01*
X97435251Y-106982159D01*
X97387526Y-106983138D01*
X97325479Y-106983817D01*
X97251862Y-106984210D01*
X97169427Y-106984330D01*
X97080925Y-106984188D01*
X96989107Y-106983797D01*
X96896724Y-106983171D01*
X96806528Y-106982320D01*
X96721271Y-106981260D01*
X96643703Y-106980001D01*
X96576576Y-106978556D01*
X96522641Y-106976938D01*
X96484650Y-106975161D01*
X96477667Y-106974669D01*
X96407251Y-106967092D01*
X96352102Y-106955531D01*
X96304981Y-106937792D01*
X96258647Y-106911682D01*
X96249067Y-106905415D01*
X96212378Y-106880983D01*
X96212378Y-107786311D01*
X97897245Y-107786507D01*
G37*
X97897245Y-107786507D02*
X98131662Y-107786526D01*
X98344603Y-107786552D01*
X98537168Y-107786625D01*
X98710459Y-107786782D01*
X98865576Y-107787064D01*
X99003620Y-107787509D01*
X99125692Y-107788156D01*
X99232894Y-107789045D01*
X99326326Y-107790213D01*
X99407090Y-107791701D01*
X99476286Y-107793546D01*
X99535015Y-107795789D01*
X99584379Y-107798469D01*
X99625478Y-107801623D01*
X99659413Y-107805292D01*
X99687286Y-107809513D01*
X99710198Y-107814327D01*
X99729249Y-107819773D01*
X99745540Y-107825888D01*
X99760173Y-107832712D01*
X99774249Y-107840285D01*
X99788868Y-107848645D01*
X99797974Y-107853839D01*
X99858689Y-107888104D01*
X99858689Y-107029955D01*
X99762733Y-107029955D01*
X99719370Y-107029224D01*
X99686205Y-107027272D01*
X99668424Y-107024463D01*
X99666778Y-107023221D01*
X99673662Y-107011799D01*
X99691505Y-106989084D01*
X99710879Y-106966385D01*
X99751614Y-106911800D01*
X99792617Y-106842321D01*
X99830123Y-106765270D01*
X99860364Y-106687965D01*
X99870012Y-106657113D01*
X99884578Y-106588616D01*
X99894539Y-106505764D01*
X99899583Y-106416371D01*
X99899396Y-106328248D01*
X99893666Y-106249207D01*
X99887858Y-106211511D01*
X99849797Y-106073414D01*
X99792073Y-105946113D01*
X99715211Y-105830292D01*
X99619739Y-105726637D01*
X99506179Y-105635833D01*
X99395381Y-105569031D01*
X99278625Y-105514164D01*
X99159276Y-105472163D01*
X99033283Y-105442167D01*
X98896594Y-105423311D01*
X98745158Y-105414732D01*
X98667711Y-105414006D01*
X98610934Y-105416100D01*
X98610934Y-106245217D01*
X98704002Y-106245424D01*
X98791692Y-106248337D01*
X98868772Y-106254000D01*
X98930009Y-106262455D01*
X98942350Y-106265038D01*
X99049633Y-106296840D01*
X99136658Y-106338498D01*
X99203642Y-106390363D01*
X99250805Y-106452781D01*
X99278365Y-106526100D01*
X99286541Y-106610669D01*
X99275551Y-106706835D01*
X99259829Y-106770311D01*
X99241639Y-106819454D01*
X99215791Y-106873583D01*
X99192089Y-106914244D01*
X99145721Y-106984800D01*
X97995530Y-106984800D01*
X97951962Y-106917392D01*
X97911040Y-106838867D01*
X97884389Y-106754681D01*
X97872465Y-106669557D01*
X97875722Y-106588216D01*
X97894615Y-106515380D01*
X97910184Y-106483426D01*
X97953181Y-106425501D01*
X98009953Y-106376544D01*
X98082575Y-106335390D01*
X98173121Y-106300874D01*
X98283666Y-106271833D01*
X98289533Y-106270552D01*
X98351788Y-106260381D01*
X98429594Y-106252739D01*
X98517720Y-106247670D01*
X98610934Y-106245217D01*
X98610934Y-105416100D01*
X98454895Y-105421857D01*
X98259059Y-105443802D01*
X98080332Y-105479786D01*
X97918845Y-105529759D01*
X97774726Y-105593668D01*
X97648106Y-105671462D01*
X97539115Y-105763089D01*
X97447883Y-105868497D01*
X97416932Y-105913662D01*
X97360785Y-106014611D01*
X97321174Y-106117901D01*
X97297014Y-106227989D01*
X97287219Y-106349330D01*
X97288265Y-106441836D01*
X97299231Y-106571490D01*
X97321046Y-106684084D01*
X97354714Y-106782875D01*
X97401236Y-106871121D01*
X97435448Y-106919986D01*
X97457362Y-106949353D01*
X97472333Y-106971043D01*
X97476733Y-106979253D01*
X97465904Y-106980868D01*
X97435251Y-106982159D01*
X97387526Y-106983138D01*
X97325479Y-106983817D01*
X97251862Y-106984210D01*
X97169427Y-106984330D01*
X97080925Y-106984188D01*
X96989107Y-106983797D01*
X96896724Y-106983171D01*
X96806528Y-106982320D01*
X96721271Y-106981260D01*
X96643703Y-106980001D01*
X96576576Y-106978556D01*
X96522641Y-106976938D01*
X96484650Y-106975161D01*
X96477667Y-106974669D01*
X96407251Y-106967092D01*
X96352102Y-106955531D01*
X96304981Y-106937792D01*
X96258647Y-106911682D01*
X96249067Y-106905415D01*
X96212378Y-106880983D01*
X96212378Y-107786311D01*
X97897245Y-107786507D01*
G36*
X97291552Y-104273574D02*
G01*
X97311567Y-104425492D01*
X97345202Y-104560756D01*
X97392725Y-104680239D01*
X97454405Y-104784815D01*
X97517965Y-104862424D01*
X97592099Y-104931265D01*
X97671871Y-104985006D01*
X97764091Y-105027910D01*
X97807161Y-105043384D01*
X97846142Y-105056244D01*
X97882289Y-105067446D01*
X97917434Y-105077120D01*
X97953410Y-105085396D01*
X97992050Y-105092403D01*
X98035185Y-105098272D01*
X98084649Y-105103131D01*
X98142273Y-105107110D01*
X98209891Y-105110340D01*
X98289334Y-105112949D01*
X98382436Y-105115067D01*
X98491027Y-105116824D01*
X98616942Y-105118349D01*
X98762012Y-105119772D01*
X98904778Y-105121025D01*
X99060968Y-105122351D01*
X99196239Y-105123556D01*
X99312246Y-105124766D01*
X99410645Y-105126106D01*
X99493093Y-105127700D01*
X99561246Y-105129675D01*
X99616760Y-105132156D01*
X99661292Y-105135269D01*
X99696498Y-105139138D01*
X99724034Y-105143889D01*
X99745556Y-105149648D01*
X99762722Y-105156539D01*
X99777186Y-105164689D01*
X99790606Y-105174223D01*
X99804638Y-105185266D01*
X99810071Y-105189566D01*
X99832910Y-105205386D01*
X99848463Y-105212422D01*
X99848922Y-105212444D01*
X99851121Y-105201567D01*
X99853147Y-105170582D01*
X99854942Y-105121957D01*
X99856451Y-105058163D01*
X99857616Y-104981669D01*
X99858380Y-104894944D01*
X99858686Y-104800457D01*
X99858689Y-104789550D01*
X99858689Y-104366657D01*
X99762622Y-104363395D01*
X99666556Y-104360133D01*
X99717543Y-104298044D01*
X99785057Y-104200714D01*
X99839749Y-104090813D01*
X99869978Y-104004349D01*
X99884666Y-103935278D01*
X99894659Y-103851925D01*
X99899646Y-103762159D01*
X99899313Y-103673845D01*
X99893351Y-103594851D01*
X99887638Y-103558622D01*
X99849776Y-103418603D01*
X99794932Y-103292178D01*
X99723924Y-103180260D01*
X99637568Y-103083762D01*
X99536679Y-103003600D01*
X99422076Y-102940687D01*
X99295984Y-102896312D01*
X99239401Y-102883978D01*
X99177202Y-102876368D01*
X99102363Y-102872739D01*
X99068467Y-102872245D01*
X99065282Y-102872310D01*
X99065282Y-103632248D01*
X99140333Y-103641541D01*
X99204160Y-103669728D01*
X99259798Y-103718197D01*
X99264211Y-103723254D01*
X99299037Y-103771548D01*
X99321620Y-103823257D01*
X99333540Y-103883989D01*
X99336383Y-103959352D01*
X99335978Y-103977459D01*
X99333325Y-104031278D01*
X99327909Y-104071308D01*
X99317745Y-104106324D01*
X99300850Y-104145103D01*
X99295672Y-104155745D01*
X99259844Y-104216396D01*
X99217212Y-104263215D01*
X99201973Y-104275952D01*
X99145462Y-104320622D01*
X98949586Y-104320622D01*
X98870939Y-104320086D01*
X98812988Y-104318396D01*
X98773875Y-104315428D01*
X98751741Y-104311057D01*
X98745274Y-104306972D01*
X98742111Y-104291047D01*
X98739488Y-104257264D01*
X98737655Y-104210340D01*
X98736857Y-104154993D01*
X98736842Y-104146106D01*
X98742096Y-104025330D01*
X98758263Y-103922660D01*
X98785961Y-103836106D01*
X98825808Y-103763681D01*
X98872758Y-103708751D01*
X98930645Y-103664204D01*
X98993693Y-103639480D01*
X99065282Y-103632248D01*
X99065282Y-102872310D01*
X98974712Y-102874178D01*
X98895812Y-102882522D01*
X98824590Y-102898768D01*
X98753864Y-102924405D01*
X98701493Y-102948401D01*
X98606196Y-103007020D01*
X98518170Y-103085117D01*
X98439017Y-103180315D01*
X98370340Y-103290238D01*
X98313741Y-103412510D01*
X98270821Y-103544755D01*
X98255882Y-103609422D01*
X98233777Y-103745604D01*
X98219194Y-103894049D01*
X98212813Y-104045505D01*
X98214445Y-104172064D01*
X98221224Y-104333950D01*
X98162245Y-104326530D01*
X98063092Y-104307238D01*
X97982372Y-104276104D01*
X97919466Y-104232269D01*
X97873756Y-104174871D01*
X97844622Y-104103048D01*
X97831447Y-104015941D01*
X97833611Y-103912686D01*
X97837612Y-103874711D01*
X97862780Y-103733520D01*
X97903814Y-103596707D01*
X97941815Y-103502178D01*
X97961190Y-103457018D01*
X97976760Y-103418585D01*
X97986405Y-103392234D01*
X97988452Y-103384546D01*
X97979374Y-103374802D01*
X97950405Y-103358083D01*
X97901217Y-103334232D01*
X97831484Y-103303093D01*
X97740879Y-103264507D01*
X97725089Y-103257910D01*
X97652772Y-103227853D01*
X97587425Y-103200874D01*
X97531906Y-103178136D01*
X97489072Y-103160806D01*
X97461781Y-103150048D01*
X97452942Y-103146941D01*
X97448187Y-103156940D01*
X97442910Y-103183217D01*
X97439231Y-103211489D01*
X97434474Y-103241646D01*
X97425028Y-103289433D01*
X97411820Y-103350612D01*
X97395776Y-103420946D01*
X97377820Y-103496194D01*
X97370797Y-103524755D01*
X97345209Y-103629816D01*
X97325147Y-103717480D01*
X97309969Y-103792068D01*
X97299035Y-103857903D01*
X97291704Y-103919307D01*
X97287335Y-103980602D01*
X97285287Y-104046110D01*
X97284889Y-104104128D01*
X97291552Y-104273574D01*
G37*
X97291552Y-104273574D02*
X97311567Y-104425492D01*
X97345202Y-104560756D01*
X97392725Y-104680239D01*
X97454405Y-104784815D01*
X97517965Y-104862424D01*
X97592099Y-104931265D01*
X97671871Y-104985006D01*
X97764091Y-105027910D01*
X97807161Y-105043384D01*
X97846142Y-105056244D01*
X97882289Y-105067446D01*
X97917434Y-105077120D01*
X97953410Y-105085396D01*
X97992050Y-105092403D01*
X98035185Y-105098272D01*
X98084649Y-105103131D01*
X98142273Y-105107110D01*
X98209891Y-105110340D01*
X98289334Y-105112949D01*
X98382436Y-105115067D01*
X98491027Y-105116824D01*
X98616942Y-105118349D01*
X98762012Y-105119772D01*
X98904778Y-105121025D01*
X99060968Y-105122351D01*
X99196239Y-105123556D01*
X99312246Y-105124766D01*
X99410645Y-105126106D01*
X99493093Y-105127700D01*
X99561246Y-105129675D01*
X99616760Y-105132156D01*
X99661292Y-105135269D01*
X99696498Y-105139138D01*
X99724034Y-105143889D01*
X99745556Y-105149648D01*
X99762722Y-105156539D01*
X99777186Y-105164689D01*
X99790606Y-105174223D01*
X99804638Y-105185266D01*
X99810071Y-105189566D01*
X99832910Y-105205386D01*
X99848463Y-105212422D01*
X99848922Y-105212444D01*
X99851121Y-105201567D01*
X99853147Y-105170582D01*
X99854942Y-105121957D01*
X99856451Y-105058163D01*
X99857616Y-104981669D01*
X99858380Y-104894944D01*
X99858686Y-104800457D01*
X99858689Y-104789550D01*
X99858689Y-104366657D01*
X99762622Y-104363395D01*
X99666556Y-104360133D01*
X99717543Y-104298044D01*
X99785057Y-104200714D01*
X99839749Y-104090813D01*
X99869978Y-104004349D01*
X99884666Y-103935278D01*
X99894659Y-103851925D01*
X99899646Y-103762159D01*
X99899313Y-103673845D01*
X99893351Y-103594851D01*
X99887638Y-103558622D01*
X99849776Y-103418603D01*
X99794932Y-103292178D01*
X99723924Y-103180260D01*
X99637568Y-103083762D01*
X99536679Y-103003600D01*
X99422076Y-102940687D01*
X99295984Y-102896312D01*
X99239401Y-102883978D01*
X99177202Y-102876368D01*
X99102363Y-102872739D01*
X99068467Y-102872245D01*
X99065282Y-102872310D01*
X99065282Y-103632248D01*
X99140333Y-103641541D01*
X99204160Y-103669728D01*
X99259798Y-103718197D01*
X99264211Y-103723254D01*
X99299037Y-103771548D01*
X99321620Y-103823257D01*
X99333540Y-103883989D01*
X99336383Y-103959352D01*
X99335978Y-103977459D01*
X99333325Y-104031278D01*
X99327909Y-104071308D01*
X99317745Y-104106324D01*
X99300850Y-104145103D01*
X99295672Y-104155745D01*
X99259844Y-104216396D01*
X99217212Y-104263215D01*
X99201973Y-104275952D01*
X99145462Y-104320622D01*
X98949586Y-104320622D01*
X98870939Y-104320086D01*
X98812988Y-104318396D01*
X98773875Y-104315428D01*
X98751741Y-104311057D01*
X98745274Y-104306972D01*
X98742111Y-104291047D01*
X98739488Y-104257264D01*
X98737655Y-104210340D01*
X98736857Y-104154993D01*
X98736842Y-104146106D01*
X98742096Y-104025330D01*
X98758263Y-103922660D01*
X98785961Y-103836106D01*
X98825808Y-103763681D01*
X98872758Y-103708751D01*
X98930645Y-103664204D01*
X98993693Y-103639480D01*
X99065282Y-103632248D01*
X99065282Y-102872310D01*
X98974712Y-102874178D01*
X98895812Y-102882522D01*
X98824590Y-102898768D01*
X98753864Y-102924405D01*
X98701493Y-102948401D01*
X98606196Y-103007020D01*
X98518170Y-103085117D01*
X98439017Y-103180315D01*
X98370340Y-103290238D01*
X98313741Y-103412510D01*
X98270821Y-103544755D01*
X98255882Y-103609422D01*
X98233777Y-103745604D01*
X98219194Y-103894049D01*
X98212813Y-104045505D01*
X98214445Y-104172064D01*
X98221224Y-104333950D01*
X98162245Y-104326530D01*
X98063092Y-104307238D01*
X97982372Y-104276104D01*
X97919466Y-104232269D01*
X97873756Y-104174871D01*
X97844622Y-104103048D01*
X97831447Y-104015941D01*
X97833611Y-103912686D01*
X97837612Y-103874711D01*
X97862780Y-103733520D01*
X97903814Y-103596707D01*
X97941815Y-103502178D01*
X97961190Y-103457018D01*
X97976760Y-103418585D01*
X97986405Y-103392234D01*
X97988452Y-103384546D01*
X97979374Y-103374802D01*
X97950405Y-103358083D01*
X97901217Y-103334232D01*
X97831484Y-103303093D01*
X97740879Y-103264507D01*
X97725089Y-103257910D01*
X97652772Y-103227853D01*
X97587425Y-103200874D01*
X97531906Y-103178136D01*
X97489072Y-103160806D01*
X97461781Y-103150048D01*
X97452942Y-103146941D01*
X97448187Y-103156940D01*
X97442910Y-103183217D01*
X97439231Y-103211489D01*
X97434474Y-103241646D01*
X97425028Y-103289433D01*
X97411820Y-103350612D01*
X97395776Y-103420946D01*
X97377820Y-103496194D01*
X97370797Y-103524755D01*
X97345209Y-103629816D01*
X97325147Y-103717480D01*
X97309969Y-103792068D01*
X97299035Y-103857903D01*
X97291704Y-103919307D01*
X97287335Y-103980602D01*
X97285287Y-104046110D01*
X97284889Y-104104128D01*
X97291552Y-104273574D01*
G36*
X96374071Y-101928429D02*
G01*
X96395245Y-102088570D01*
X96435385Y-102252510D01*
X96494889Y-102422313D01*
X96574154Y-102600043D01*
X96579699Y-102611310D01*
X96607725Y-102669005D01*
X96631802Y-102720552D01*
X96650249Y-102762191D01*
X96661386Y-102790162D01*
X96663933Y-102799733D01*
X96668941Y-102818950D01*
X96673147Y-102823561D01*
X96683580Y-102818458D01*
X96709868Y-102802418D01*
X96749257Y-102777288D01*
X96798991Y-102744914D01*
X96856315Y-102707143D01*
X96918476Y-102665822D01*
X96982718Y-102622798D01*
X97046285Y-102579917D01*
X97106425Y-102539026D01*
X97160380Y-102501971D01*
X97205397Y-102470600D01*
X97238721Y-102446759D01*
X97257597Y-102432294D01*
X97259787Y-102430309D01*
X97255138Y-102420191D01*
X97237962Y-102397850D01*
X97211440Y-102367280D01*
X97196964Y-102351536D01*
X97121682Y-102255047D01*
X97066241Y-102148336D01*
X97031141Y-102032832D01*
X97016880Y-101909962D01*
X97018051Y-101840561D01*
X97035212Y-101719423D01*
X97071094Y-101610205D01*
X97125959Y-101512582D01*
X97200070Y-101426228D01*
X97293688Y-101350815D01*
X97407076Y-101286018D01*
X97493667Y-101248601D01*
X97629366Y-101204748D01*
X97776850Y-101172428D01*
X97932314Y-101151557D01*
X98091956Y-101142051D01*
X98251973Y-101143827D01*
X98408561Y-101156803D01*
X98557918Y-101180894D01*
X98696240Y-101216018D01*
X98819724Y-101262092D01*
X98853978Y-101278373D01*
X98968064Y-101346620D01*
X99064557Y-101427079D01*
X99142670Y-101518570D01*
X99201617Y-101619911D01*
X99240612Y-101729920D01*
X99258868Y-101847415D01*
X99260211Y-101888883D01*
X99249290Y-102010441D01*
X99216474Y-102130878D01*
X99162439Y-102248666D01*
X99087865Y-102362277D01*
X99009539Y-102453685D01*
X98965008Y-102500215D01*
X99262271Y-102681483D01*
X99336433Y-102726580D01*
X99404646Y-102767819D01*
X99464459Y-102803735D01*
X99513420Y-102832866D01*
X99549079Y-102853750D01*
X99568984Y-102864924D01*
X99572079Y-102866375D01*
X99581718Y-102858146D01*
X99598999Y-102832567D01*
X99622283Y-102792873D01*
X99649934Y-102742297D01*
X99680315Y-102684074D01*
X99711790Y-102621437D01*
X99742722Y-102557621D01*
X99771473Y-102495860D01*
X99796408Y-102439388D01*
X99815889Y-102391438D01*
X99824318Y-102367986D01*
X99862133Y-102234221D01*
X99887136Y-102096327D01*
X99900140Y-101948622D01*
X99902468Y-101821833D01*
X99901373Y-101753878D01*
X99899275Y-101688277D01*
X99896434Y-101630847D01*
X99893106Y-101587403D01*
X99891422Y-101573298D01*
X99862587Y-101434284D01*
X99817468Y-101292757D01*
X99758750Y-101155275D01*
X99689120Y-101028394D01*
X99636441Y-100950889D01*
X99528239Y-100823481D01*
X99401671Y-100705178D01*
X99259866Y-100598172D01*
X99105951Y-100504652D01*
X98943053Y-100426810D01*
X98825756Y-100382956D01*
X98642128Y-100332708D01*
X98447581Y-100299209D01*
X98246325Y-100282449D01*
X98042568Y-100282416D01*
X97840521Y-100299101D01*
X97644392Y-100332493D01*
X97458391Y-100382580D01*
X97446803Y-100386397D01*
X97284750Y-100449281D01*
X97136832Y-100526028D01*
X96998865Y-100619242D01*
X96866661Y-100731527D01*
X96821399Y-100775392D01*
X96697457Y-100911534D01*
X96594915Y-101051491D01*
X96512656Y-101197411D01*
X96449564Y-101351442D01*
X96404523Y-101515732D01*
X96387033Y-101611289D01*
X96371466Y-101770023D01*
X96374071Y-101928429D01*
G37*
X96374071Y-101928429D02*
X96395245Y-102088570D01*
X96435385Y-102252510D01*
X96494889Y-102422313D01*
X96574154Y-102600043D01*
X96579699Y-102611310D01*
X96607725Y-102669005D01*
X96631802Y-102720552D01*
X96650249Y-102762191D01*
X96661386Y-102790162D01*
X96663933Y-102799733D01*
X96668941Y-102818950D01*
X96673147Y-102823561D01*
X96683580Y-102818458D01*
X96709868Y-102802418D01*
X96749257Y-102777288D01*
X96798991Y-102744914D01*
X96856315Y-102707143D01*
X96918476Y-102665822D01*
X96982718Y-102622798D01*
X97046285Y-102579917D01*
X97106425Y-102539026D01*
X97160380Y-102501971D01*
X97205397Y-102470600D01*
X97238721Y-102446759D01*
X97257597Y-102432294D01*
X97259787Y-102430309D01*
X97255138Y-102420191D01*
X97237962Y-102397850D01*
X97211440Y-102367280D01*
X97196964Y-102351536D01*
X97121682Y-102255047D01*
X97066241Y-102148336D01*
X97031141Y-102032832D01*
X97016880Y-101909962D01*
X97018051Y-101840561D01*
X97035212Y-101719423D01*
X97071094Y-101610205D01*
X97125959Y-101512582D01*
X97200070Y-101426228D01*
X97293688Y-101350815D01*
X97407076Y-101286018D01*
X97493667Y-101248601D01*
X97629366Y-101204748D01*
X97776850Y-101172428D01*
X97932314Y-101151557D01*
X98091956Y-101142051D01*
X98251973Y-101143827D01*
X98408561Y-101156803D01*
X98557918Y-101180894D01*
X98696240Y-101216018D01*
X98819724Y-101262092D01*
X98853978Y-101278373D01*
X98968064Y-101346620D01*
X99064557Y-101427079D01*
X99142670Y-101518570D01*
X99201617Y-101619911D01*
X99240612Y-101729920D01*
X99258868Y-101847415D01*
X99260211Y-101888883D01*
X99249290Y-102010441D01*
X99216474Y-102130878D01*
X99162439Y-102248666D01*
X99087865Y-102362277D01*
X99009539Y-102453685D01*
X98965008Y-102500215D01*
X99262271Y-102681483D01*
X99336433Y-102726580D01*
X99404646Y-102767819D01*
X99464459Y-102803735D01*
X99513420Y-102832866D01*
X99549079Y-102853750D01*
X99568984Y-102864924D01*
X99572079Y-102866375D01*
X99581718Y-102858146D01*
X99598999Y-102832567D01*
X99622283Y-102792873D01*
X99649934Y-102742297D01*
X99680315Y-102684074D01*
X99711790Y-102621437D01*
X99742722Y-102557621D01*
X99771473Y-102495860D01*
X99796408Y-102439388D01*
X99815889Y-102391438D01*
X99824318Y-102367986D01*
X99862133Y-102234221D01*
X99887136Y-102096327D01*
X99900140Y-101948622D01*
X99902468Y-101821833D01*
X99901373Y-101753878D01*
X99899275Y-101688277D01*
X99896434Y-101630847D01*
X99893106Y-101587403D01*
X99891422Y-101573298D01*
X99862587Y-101434284D01*
X99817468Y-101292757D01*
X99758750Y-101155275D01*
X99689120Y-101028394D01*
X99636441Y-100950889D01*
X99528239Y-100823481D01*
X99401671Y-100705178D01*
X99259866Y-100598172D01*
X99105951Y-100504652D01*
X98943053Y-100426810D01*
X98825756Y-100382956D01*
X98642128Y-100332708D01*
X98447581Y-100299209D01*
X98246325Y-100282449D01*
X98042568Y-100282416D01*
X97840521Y-100299101D01*
X97644392Y-100332493D01*
X97458391Y-100382580D01*
X97446803Y-100386397D01*
X97284750Y-100449281D01*
X97136832Y-100526028D01*
X96998865Y-100619242D01*
X96866661Y-100731527D01*
X96821399Y-100775392D01*
X96697457Y-100911534D01*
X96594915Y-101051491D01*
X96512656Y-101197411D01*
X96449564Y-101351442D01*
X96404523Y-101515732D01*
X96387033Y-101611289D01*
X96371466Y-101770023D01*
X96374071Y-101928429D01*
G36*
X95914054Y-98653600D02*
G01*
X96027993Y-98664465D01*
X96135616Y-98696082D01*
X96234615Y-98746985D01*
X96322684Y-98815707D01*
X96397516Y-98900781D01*
X96455384Y-98997768D01*
X96495005Y-99104036D01*
X96513573Y-99211050D01*
X96512434Y-99316700D01*
X96492930Y-99418875D01*
X96456406Y-99515466D01*
X96404205Y-99604362D01*
X96337673Y-99683454D01*
X96258152Y-99750631D01*
X96166987Y-99803783D01*
X96065523Y-99840801D01*
X95955102Y-99859573D01*
X95905206Y-99861511D01*
X95817267Y-99861511D01*
X95817267Y-99913440D01*
X95820111Y-99949747D01*
X95831911Y-99976645D01*
X95855649Y-100003751D01*
X95894031Y-100042133D01*
X98085602Y-100042133D01*
X98347739Y-100042124D01*
X98588241Y-100042092D01*
X98808048Y-100042028D01*
X99008101Y-100041924D01*
X99189344Y-100041773D01*
X99352716Y-100041566D01*
X99499160Y-100041294D01*
X99629617Y-100040950D01*
X99745029Y-100040526D01*
X99846338Y-100040013D01*
X99934484Y-100039403D01*
X100010410Y-100038688D01*
X100075057Y-100037860D01*
X100129367Y-100036911D01*
X100174280Y-100035833D01*
X100210740Y-100034617D01*
X100239687Y-100033255D01*
X100262063Y-100031739D01*
X100278809Y-100030062D01*
X100290868Y-100028214D01*
X100299180Y-100026187D01*
X100304687Y-100023975D01*
X100306537Y-100022892D01*
X100313549Y-100018729D01*
X100319996Y-100015195D01*
X100325900Y-100011365D01*
X100331286Y-100006318D01*
X100336178Y-99999129D01*
X100340598Y-99988877D01*
X100344572Y-99974636D01*
X100348121Y-99955486D01*
X100351270Y-99930501D01*
X100354042Y-99898760D01*
X100356461Y-99859338D01*
X100358551Y-99811314D01*
X100360335Y-99753763D01*
X100361837Y-99685763D01*
X100363080Y-99606390D01*
X100364089Y-99514721D01*
X100364885Y-99409834D01*
X100365494Y-99290804D01*
X100365939Y-99156710D01*
X100366243Y-99006627D01*
X100366430Y-98839633D01*
X100366524Y-98654804D01*
X100366548Y-98451217D01*
X100366525Y-98227950D01*
X100366480Y-97984078D01*
X100366437Y-97718679D01*
X100366432Y-97680296D01*
X100366389Y-97413318D01*
X100366318Y-97167998D01*
X100366213Y-96943417D01*
X100366066Y-96738655D01*
X100365869Y-96552794D01*
X100365616Y-96384912D01*
X100365300Y-96234092D01*
X100364913Y-96099413D01*
X100364447Y-95979956D01*
X100363897Y-95874801D01*
X100363253Y-95783029D01*
X100362511Y-95703721D01*
X100361661Y-95635957D01*
X100360697Y-95578818D01*
X100359611Y-95531383D01*
X100358397Y-95492734D01*
X100357047Y-95461951D01*
X100355555Y-95438115D01*
X100353911Y-95420306D01*
X100352111Y-95407605D01*
X100350145Y-95399092D01*
X100348477Y-95394734D01*
X100344906Y-95386272D01*
X100342270Y-95378503D01*
X100339634Y-95371398D01*
X100336062Y-95364927D01*
X100330621Y-95359061D01*
X100322375Y-95353771D01*
X100310390Y-95349026D01*
X100293731Y-95344798D01*
X100271463Y-95341057D01*
X100242652Y-95337773D01*
X100206363Y-95334917D01*
X100161661Y-95332460D01*
X100107611Y-95330371D01*
X100043279Y-95328622D01*
X99967730Y-95327183D01*
X99880030Y-95326024D01*
X99779243Y-95325117D01*
X99664434Y-95324431D01*
X99534670Y-95323937D01*
X99389015Y-95323605D01*
X99226535Y-95323407D01*
X99046295Y-95323313D01*
X98847360Y-95323292D01*
X98628796Y-95323315D01*
X98389668Y-95323354D01*
X98129040Y-95323378D01*
X98086889Y-95323378D01*
X97823992Y-95323364D01*
X97582732Y-95323339D01*
X97362165Y-95323329D01*
X97161352Y-95323358D01*
X96979349Y-95323452D01*
X96815216Y-95323638D01*
X96668011Y-95323941D01*
X96536792Y-95324386D01*
X96426867Y-95324966D01*
X96426867Y-95627803D01*
X96484711Y-95667593D01*
X96500479Y-95678764D01*
X96514441Y-95688834D01*
X96527784Y-95697862D01*
X96541693Y-95705903D01*
X96557356Y-95713014D01*
X96575958Y-95719253D01*
X96598686Y-95724675D01*
X96626727Y-95729338D01*
X96661267Y-95733299D01*
X96703492Y-95736615D01*
X96754589Y-95739341D01*
X96815744Y-95741536D01*
X96888144Y-95743255D01*
X96972975Y-95744556D01*
X97071422Y-95745495D01*
X97184674Y-95746130D01*
X97313916Y-95746516D01*
X97460334Y-95746712D01*
X97625116Y-95746773D01*
X97809447Y-95746757D01*
X98014513Y-95746720D01*
X98137133Y-95746711D01*
X98354082Y-95746735D01*
X98549642Y-95746769D01*
X98724999Y-95746757D01*
X98881341Y-95746642D01*
X99019857Y-95746370D01*
X99141734Y-95745882D01*
X99248160Y-95745124D01*
X99340322Y-95744038D01*
X99419409Y-95742569D01*
X99486608Y-95740660D01*
X99543107Y-95738256D01*
X99590093Y-95735299D01*
X99628755Y-95731734D01*
X99660280Y-95727505D01*
X99685855Y-95722554D01*
X99706670Y-95716827D01*
X99723911Y-95710267D01*
X99738765Y-95702817D01*
X99752422Y-95694421D01*
X99766069Y-95685024D01*
X99780893Y-95674568D01*
X99789783Y-95668477D01*
X99847400Y-95629704D01*
X99847400Y-96161268D01*
X99847365Y-96284517D01*
X99847215Y-96387013D01*
X99846878Y-96470580D01*
X99846286Y-96537044D01*
X99845367Y-96588229D01*
X99844051Y-96625959D01*
X99842269Y-96652060D01*
X99839951Y-96668356D01*
X99837026Y-96676672D01*
X99833424Y-96678832D01*
X99829075Y-96676661D01*
X99827645Y-96675465D01*
X99790573Y-96650315D01*
X99737772Y-96624417D01*
X99675770Y-96600808D01*
X99649357Y-96592539D01*
X99631416Y-96587922D01*
X99610355Y-96584021D01*
X99584089Y-96580752D01*
X99550532Y-96578034D01*
X99507599Y-96575785D01*
X99453204Y-96573923D01*
X99385262Y-96572364D01*
X99301688Y-96571028D01*
X99200395Y-96569831D01*
X99079300Y-96568692D01*
X99034600Y-96568315D01*
X98909449Y-96567298D01*
X98805082Y-96566540D01*
X98719707Y-96566097D01*
X98651533Y-96566030D01*
X98598765Y-96566395D01*
X98559614Y-96567252D01*
X98532285Y-96568659D01*
X98514986Y-96570675D01*
X98505926Y-96573357D01*
X98503312Y-96576764D01*
X98505351Y-96580956D01*
X98509667Y-96585429D01*
X98522602Y-96595784D01*
X98551676Y-96617842D01*
X98594759Y-96650043D01*
X98649718Y-96690826D01*
X98714423Y-96738630D01*
X98786742Y-96791895D01*
X98864544Y-96849060D01*
X98945698Y-96908563D01*
X99028072Y-96968845D01*
X99109536Y-97028345D01*
X99187957Y-97085502D01*
X99261204Y-97138755D01*
X99327147Y-97186543D01*
X99383654Y-97227307D01*
X99428593Y-97259484D01*
X99459834Y-97281515D01*
X99466466Y-97286083D01*
X99503369Y-97309004D01*
X99551359Y-97335812D01*
X99600897Y-97361211D01*
X99607577Y-97364432D01*
X99655772Y-97386110D01*
X99693334Y-97398696D01*
X99729160Y-97404426D01*
X99771200Y-97405544D01*
X99847400Y-97404910D01*
X99847400Y-98559349D01*
X99753669Y-98468185D01*
X99703775Y-98421388D01*
X99647295Y-98371101D01*
X99593026Y-98325056D01*
X99567673Y-98304631D01*
X99528128Y-98274193D01*
X99474916Y-98234138D01*
X99409667Y-98185639D01*
X99334011Y-98129865D01*
X99249577Y-98067989D01*
X99157994Y-98001181D01*
X99060892Y-97930613D01*
X98959901Y-97857455D01*
X98856650Y-97782879D01*
X98752768Y-97708056D01*
X98649885Y-97634157D01*
X98549631Y-97562354D01*
X98453636Y-97493816D01*
X98363527Y-97429716D01*
X98280936Y-97371225D01*
X98207492Y-97319514D01*
X98144824Y-97275753D01*
X98094561Y-97241115D01*
X98058334Y-97216770D01*
X98037771Y-97203889D01*
X98033668Y-97202131D01*
X98022342Y-97210090D01*
X97995162Y-97230885D01*
X97953829Y-97263153D01*
X97900044Y-97305530D01*
X97835506Y-97356653D01*
X97761918Y-97415159D01*
X97680978Y-97479686D01*
X97594388Y-97548869D01*
X97503848Y-97621347D01*
X97411060Y-97695754D01*
X97336702Y-97755483D01*
X97336702Y-98766489D01*
X97349659Y-98772398D01*
X97371908Y-98786728D01*
X97373391Y-98787775D01*
X97403544Y-98806562D01*
X97440375Y-98826209D01*
X97448511Y-98830108D01*
X97456940Y-98833644D01*
X97467059Y-98836770D01*
X97480260Y-98839514D01*
X97497938Y-98841908D01*
X97521484Y-98843981D01*
X97552293Y-98845765D01*
X97591757Y-98847288D01*
X97641269Y-98848581D01*
X97702223Y-98849674D01*
X97776011Y-98850597D01*
X97864028Y-98851381D01*
X97967665Y-98852055D01*
X98088316Y-98852650D01*
X98227374Y-98853195D01*
X98386232Y-98853721D01*
X98565089Y-98854255D01*
X98750207Y-98854794D01*
X98914145Y-98855228D01*
X99058303Y-98855491D01*
X99184079Y-98855516D01*
X99292871Y-98855235D01*
X99386077Y-98854581D01*
X99465097Y-98853486D01*
X99531328Y-98851882D01*
X99586170Y-98849703D01*
X99631021Y-98846881D01*
X99667278Y-98843349D01*
X99696341Y-98839039D01*
X99719609Y-98833883D01*
X99738479Y-98827815D01*
X99754351Y-98820767D01*
X99768622Y-98812671D01*
X99782691Y-98803460D01*
X99795158Y-98794960D01*
X99821452Y-98777824D01*
X99839037Y-98767678D01*
X99842257Y-98766489D01*
X99843334Y-98777396D01*
X99844335Y-98808589D01*
X99845235Y-98857777D01*
X99846010Y-98922667D01*
X99846637Y-99000970D01*
X99847091Y-99090393D01*
X99847349Y-99188644D01*
X99847400Y-99257555D01*
X99847180Y-99362548D01*
X99846548Y-99459390D01*
X99845549Y-99545893D01*
X99844227Y-99619868D01*
X99842626Y-99679126D01*
X99840791Y-99721480D01*
X99838765Y-99744740D01*
X99837493Y-99748622D01*
X99822591Y-99740924D01*
X99814560Y-99732926D01*
X99797434Y-99719754D01*
X99767183Y-99702515D01*
X99742622Y-99690593D01*
X99683711Y-99663955D01*
X98506845Y-99660880D01*
X97329978Y-99657805D01*
X97329978Y-99212147D01*
X97330142Y-99114330D01*
X97330611Y-99023936D01*
X97331347Y-98943370D01*
X97332316Y-98875038D01*
X97333480Y-98821344D01*
X97334803Y-98784695D01*
X97336249Y-98767496D01*
X97336702Y-98766489D01*
X97336702Y-97755483D01*
X97317722Y-97770730D01*
X97225537Y-97844910D01*
X97136204Y-97916931D01*
X97051424Y-97985431D01*
X96972898Y-98049045D01*
X96902326Y-98106412D01*
X96841409Y-98156167D01*
X96791847Y-98196948D01*
X96771178Y-98214112D01*
X96670516Y-98300404D01*
X96587259Y-98377003D01*
X96519438Y-98445817D01*
X96465089Y-98508752D01*
X96457722Y-98518133D01*
X96427117Y-98557644D01*
X96426867Y-97425884D01*
X96474844Y-97431173D01*
X96532188Y-97427870D01*
X96600463Y-97406339D01*
X96680212Y-97366365D01*
X96752495Y-97321057D01*
X96775140Y-97304839D01*
X96812696Y-97276786D01*
X96863021Y-97238570D01*
X96923973Y-97191863D01*
X96993411Y-97138339D01*
X97069194Y-97079669D01*
X97149180Y-97017525D01*
X97231228Y-96953579D01*
X97313196Y-96889505D01*
X97392943Y-96826973D01*
X97468327Y-96767657D01*
X97537207Y-96713229D01*
X97597442Y-96665361D01*
X97646889Y-96625725D01*
X97683408Y-96595994D01*
X97704858Y-96577839D01*
X97708156Y-96574780D01*
X97700149Y-96571921D01*
X97669855Y-96569707D01*
X97617556Y-96568143D01*
X97543531Y-96567233D01*
X97448063Y-96566980D01*
X97331434Y-96567387D01*
X97211445Y-96568296D01*
X97079333Y-96569618D01*
X96967594Y-96571143D01*
X96874025Y-96573119D01*
X96796419Y-96575794D01*
X96732574Y-96579418D01*
X96680283Y-96584239D01*
X96637344Y-96590506D01*
X96601551Y-96598468D01*
X96570700Y-96608373D01*
X96542586Y-96620469D01*
X96515005Y-96635007D01*
X96489966Y-96649689D01*
X96426867Y-96687686D01*
X96426867Y-95627803D01*
X96426867Y-95324966D01*
X96420617Y-95324999D01*
X96318544Y-95325805D01*
X96229633Y-95326830D01*
X96152941Y-95328100D01*
X96087527Y-95329640D01*
X96032449Y-95331476D01*
X95986765Y-95333633D01*
X95949534Y-95336137D01*
X95919813Y-95339013D01*
X95896662Y-95342287D01*
X95879139Y-95345985D01*
X95866301Y-95350131D01*
X95857208Y-95354753D01*
X95850918Y-95359874D01*
X95846488Y-95365522D01*
X95842978Y-95371721D01*
X95839445Y-95378496D01*
X95835876Y-95384492D01*
X95833300Y-95389725D01*
X95830972Y-95397901D01*
X95828878Y-95410114D01*
X95827007Y-95427459D01*
X95825347Y-95451031D01*
X95823884Y-95481923D01*
X95822608Y-95521232D01*
X95821504Y-95570050D01*
X95820561Y-95629473D01*
X95819767Y-95700596D01*
X95819109Y-95784512D01*
X95818575Y-95882317D01*
X95818153Y-95995106D01*
X95817829Y-96123971D01*
X95817592Y-96270009D01*
X95817430Y-96434314D01*
X95817330Y-96617980D01*
X95817280Y-96822103D01*
X95817267Y-97033247D01*
X95817267Y-98653600D01*
X95914054Y-98653600D01*
G37*
X95914054Y-98653600D02*
X96027993Y-98664465D01*
X96135616Y-98696082D01*
X96234615Y-98746985D01*
X96322684Y-98815707D01*
X96397516Y-98900781D01*
X96455384Y-98997768D01*
X96495005Y-99104036D01*
X96513573Y-99211050D01*
X96512434Y-99316700D01*
X96492930Y-99418875D01*
X96456406Y-99515466D01*
X96404205Y-99604362D01*
X96337673Y-99683454D01*
X96258152Y-99750631D01*
X96166987Y-99803783D01*
X96065523Y-99840801D01*
X95955102Y-99859573D01*
X95905206Y-99861511D01*
X95817267Y-99861511D01*
X95817267Y-99913440D01*
X95820111Y-99949747D01*
X95831911Y-99976645D01*
X95855649Y-100003751D01*
X95894031Y-100042133D01*
X98085602Y-100042133D01*
X98347739Y-100042124D01*
X98588241Y-100042092D01*
X98808048Y-100042028D01*
X99008101Y-100041924D01*
X99189344Y-100041773D01*
X99352716Y-100041566D01*
X99499160Y-100041294D01*
X99629617Y-100040950D01*
X99745029Y-100040526D01*
X99846338Y-100040013D01*
X99934484Y-100039403D01*
X100010410Y-100038688D01*
X100075057Y-100037860D01*
X100129367Y-100036911D01*
X100174280Y-100035833D01*
X100210740Y-100034617D01*
X100239687Y-100033255D01*
X100262063Y-100031739D01*
X100278809Y-100030062D01*
X100290868Y-100028214D01*
X100299180Y-100026187D01*
X100304687Y-100023975D01*
X100306537Y-100022892D01*
X100313549Y-100018729D01*
X100319996Y-100015195D01*
X100325900Y-100011365D01*
X100331286Y-100006318D01*
X100336178Y-99999129D01*
X100340598Y-99988877D01*
X100344572Y-99974636D01*
X100348121Y-99955486D01*
X100351270Y-99930501D01*
X100354042Y-99898760D01*
X100356461Y-99859338D01*
X100358551Y-99811314D01*
X100360335Y-99753763D01*
X100361837Y-99685763D01*
X100363080Y-99606390D01*
X100364089Y-99514721D01*
X100364885Y-99409834D01*
X100365494Y-99290804D01*
X100365939Y-99156710D01*
X100366243Y-99006627D01*
X100366430Y-98839633D01*
X100366524Y-98654804D01*
X100366548Y-98451217D01*
X100366525Y-98227950D01*
X100366480Y-97984078D01*
X100366437Y-97718679D01*
X100366432Y-97680296D01*
X100366389Y-97413318D01*
X100366318Y-97167998D01*
X100366213Y-96943417D01*
X100366066Y-96738655D01*
X100365869Y-96552794D01*
X100365616Y-96384912D01*
X100365300Y-96234092D01*
X100364913Y-96099413D01*
X100364447Y-95979956D01*
X100363897Y-95874801D01*
X100363253Y-95783029D01*
X100362511Y-95703721D01*
X100361661Y-95635957D01*
X100360697Y-95578818D01*
X100359611Y-95531383D01*
X100358397Y-95492734D01*
X100357047Y-95461951D01*
X100355555Y-95438115D01*
X100353911Y-95420306D01*
X100352111Y-95407605D01*
X100350145Y-95399092D01*
X100348477Y-95394734D01*
X100344906Y-95386272D01*
X100342270Y-95378503D01*
X100339634Y-95371398D01*
X100336062Y-95364927D01*
X100330621Y-95359061D01*
X100322375Y-95353771D01*
X100310390Y-95349026D01*
X100293731Y-95344798D01*
X100271463Y-95341057D01*
X100242652Y-95337773D01*
X100206363Y-95334917D01*
X100161661Y-95332460D01*
X100107611Y-95330371D01*
X100043279Y-95328622D01*
X99967730Y-95327183D01*
X99880030Y-95326024D01*
X99779243Y-95325117D01*
X99664434Y-95324431D01*
X99534670Y-95323937D01*
X99389015Y-95323605D01*
X99226535Y-95323407D01*
X99046295Y-95323313D01*
X98847360Y-95323292D01*
X98628796Y-95323315D01*
X98389668Y-95323354D01*
X98129040Y-95323378D01*
X98086889Y-95323378D01*
X97823992Y-95323364D01*
X97582732Y-95323339D01*
X97362165Y-95323329D01*
X97161352Y-95323358D01*
X96979349Y-95323452D01*
X96815216Y-95323638D01*
X96668011Y-95323941D01*
X96536792Y-95324386D01*
X96426867Y-95324966D01*
X96426867Y-95627803D01*
X96484711Y-95667593D01*
X96500479Y-95678764D01*
X96514441Y-95688834D01*
X96527784Y-95697862D01*
X96541693Y-95705903D01*
X96557356Y-95713014D01*
X96575958Y-95719253D01*
X96598686Y-95724675D01*
X96626727Y-95729338D01*
X96661267Y-95733299D01*
X96703492Y-95736615D01*
X96754589Y-95739341D01*
X96815744Y-95741536D01*
X96888144Y-95743255D01*
X96972975Y-95744556D01*
X97071422Y-95745495D01*
X97184674Y-95746130D01*
X97313916Y-95746516D01*
X97460334Y-95746712D01*
X97625116Y-95746773D01*
X97809447Y-95746757D01*
X98014513Y-95746720D01*
X98137133Y-95746711D01*
X98354082Y-95746735D01*
X98549642Y-95746769D01*
X98724999Y-95746757D01*
X98881341Y-95746642D01*
X99019857Y-95746370D01*
X99141734Y-95745882D01*
X99248160Y-95745124D01*
X99340322Y-95744038D01*
X99419409Y-95742569D01*
X99486608Y-95740660D01*
X99543107Y-95738256D01*
X99590093Y-95735299D01*
X99628755Y-95731734D01*
X99660280Y-95727505D01*
X99685855Y-95722554D01*
X99706670Y-95716827D01*
X99723911Y-95710267D01*
X99738765Y-95702817D01*
X99752422Y-95694421D01*
X99766069Y-95685024D01*
X99780893Y-95674568D01*
X99789783Y-95668477D01*
X99847400Y-95629704D01*
X99847400Y-96161268D01*
X99847365Y-96284517D01*
X99847215Y-96387013D01*
X99846878Y-96470580D01*
X99846286Y-96537044D01*
X99845367Y-96588229D01*
X99844051Y-96625959D01*
X99842269Y-96652060D01*
X99839951Y-96668356D01*
X99837026Y-96676672D01*
X99833424Y-96678832D01*
X99829075Y-96676661D01*
X99827645Y-96675465D01*
X99790573Y-96650315D01*
X99737772Y-96624417D01*
X99675770Y-96600808D01*
X99649357Y-96592539D01*
X99631416Y-96587922D01*
X99610355Y-96584021D01*
X99584089Y-96580752D01*
X99550532Y-96578034D01*
X99507599Y-96575785D01*
X99453204Y-96573923D01*
X99385262Y-96572364D01*
X99301688Y-96571028D01*
X99200395Y-96569831D01*
X99079300Y-96568692D01*
X99034600Y-96568315D01*
X98909449Y-96567298D01*
X98805082Y-96566540D01*
X98719707Y-96566097D01*
X98651533Y-96566030D01*
X98598765Y-96566395D01*
X98559614Y-96567252D01*
X98532285Y-96568659D01*
X98514986Y-96570675D01*
X98505926Y-96573357D01*
X98503312Y-96576764D01*
X98505351Y-96580956D01*
X98509667Y-96585429D01*
X98522602Y-96595784D01*
X98551676Y-96617842D01*
X98594759Y-96650043D01*
X98649718Y-96690826D01*
X98714423Y-96738630D01*
X98786742Y-96791895D01*
X98864544Y-96849060D01*
X98945698Y-96908563D01*
X99028072Y-96968845D01*
X99109536Y-97028345D01*
X99187957Y-97085502D01*
X99261204Y-97138755D01*
X99327147Y-97186543D01*
X99383654Y-97227307D01*
X99428593Y-97259484D01*
X99459834Y-97281515D01*
X99466466Y-97286083D01*
X99503369Y-97309004D01*
X99551359Y-97335812D01*
X99600897Y-97361211D01*
X99607577Y-97364432D01*
X99655772Y-97386110D01*
X99693334Y-97398696D01*
X99729160Y-97404426D01*
X99771200Y-97405544D01*
X99847400Y-97404910D01*
X99847400Y-98559349D01*
X99753669Y-98468185D01*
X99703775Y-98421388D01*
X99647295Y-98371101D01*
X99593026Y-98325056D01*
X99567673Y-98304631D01*
X99528128Y-98274193D01*
X99474916Y-98234138D01*
X99409667Y-98185639D01*
X99334011Y-98129865D01*
X99249577Y-98067989D01*
X99157994Y-98001181D01*
X99060892Y-97930613D01*
X98959901Y-97857455D01*
X98856650Y-97782879D01*
X98752768Y-97708056D01*
X98649885Y-97634157D01*
X98549631Y-97562354D01*
X98453636Y-97493816D01*
X98363527Y-97429716D01*
X98280936Y-97371225D01*
X98207492Y-97319514D01*
X98144824Y-97275753D01*
X98094561Y-97241115D01*
X98058334Y-97216770D01*
X98037771Y-97203889D01*
X98033668Y-97202131D01*
X98022342Y-97210090D01*
X97995162Y-97230885D01*
X97953829Y-97263153D01*
X97900044Y-97305530D01*
X97835506Y-97356653D01*
X97761918Y-97415159D01*
X97680978Y-97479686D01*
X97594388Y-97548869D01*
X97503848Y-97621347D01*
X97411060Y-97695754D01*
X97336702Y-97755483D01*
X97336702Y-98766489D01*
X97349659Y-98772398D01*
X97371908Y-98786728D01*
X97373391Y-98787775D01*
X97403544Y-98806562D01*
X97440375Y-98826209D01*
X97448511Y-98830108D01*
X97456940Y-98833644D01*
X97467059Y-98836770D01*
X97480260Y-98839514D01*
X97497938Y-98841908D01*
X97521484Y-98843981D01*
X97552293Y-98845765D01*
X97591757Y-98847288D01*
X97641269Y-98848581D01*
X97702223Y-98849674D01*
X97776011Y-98850597D01*
X97864028Y-98851381D01*
X97967665Y-98852055D01*
X98088316Y-98852650D01*
X98227374Y-98853195D01*
X98386232Y-98853721D01*
X98565089Y-98854255D01*
X98750207Y-98854794D01*
X98914145Y-98855228D01*
X99058303Y-98855491D01*
X99184079Y-98855516D01*
X99292871Y-98855235D01*
X99386077Y-98854581D01*
X99465097Y-98853486D01*
X99531328Y-98851882D01*
X99586170Y-98849703D01*
X99631021Y-98846881D01*
X99667278Y-98843349D01*
X99696341Y-98839039D01*
X99719609Y-98833883D01*
X99738479Y-98827815D01*
X99754351Y-98820767D01*
X99768622Y-98812671D01*
X99782691Y-98803460D01*
X99795158Y-98794960D01*
X99821452Y-98777824D01*
X99839037Y-98767678D01*
X99842257Y-98766489D01*
X99843334Y-98777396D01*
X99844335Y-98808589D01*
X99845235Y-98857777D01*
X99846010Y-98922667D01*
X99846637Y-99000970D01*
X99847091Y-99090393D01*
X99847349Y-99188644D01*
X99847400Y-99257555D01*
X99847180Y-99362548D01*
X99846548Y-99459390D01*
X99845549Y-99545893D01*
X99844227Y-99619868D01*
X99842626Y-99679126D01*
X99840791Y-99721480D01*
X99838765Y-99744740D01*
X99837493Y-99748622D01*
X99822591Y-99740924D01*
X99814560Y-99732926D01*
X99797434Y-99719754D01*
X99767183Y-99702515D01*
X99742622Y-99690593D01*
X99683711Y-99663955D01*
X98506845Y-99660880D01*
X97329978Y-99657805D01*
X97329978Y-99212147D01*
X97330142Y-99114330D01*
X97330611Y-99023936D01*
X97331347Y-98943370D01*
X97332316Y-98875038D01*
X97333480Y-98821344D01*
X97334803Y-98784695D01*
X97336249Y-98767496D01*
X97336702Y-98766489D01*
X97336702Y-97755483D01*
X97317722Y-97770730D01*
X97225537Y-97844910D01*
X97136204Y-97916931D01*
X97051424Y-97985431D01*
X96972898Y-98049045D01*
X96902326Y-98106412D01*
X96841409Y-98156167D01*
X96791847Y-98196948D01*
X96771178Y-98214112D01*
X96670516Y-98300404D01*
X96587259Y-98377003D01*
X96519438Y-98445817D01*
X96465089Y-98508752D01*
X96457722Y-98518133D01*
X96427117Y-98557644D01*
X96426867Y-97425884D01*
X96474844Y-97431173D01*
X96532188Y-97427870D01*
X96600463Y-97406339D01*
X96680212Y-97366365D01*
X96752495Y-97321057D01*
X96775140Y-97304839D01*
X96812696Y-97276786D01*
X96863021Y-97238570D01*
X96923973Y-97191863D01*
X96993411Y-97138339D01*
X97069194Y-97079669D01*
X97149180Y-97017525D01*
X97231228Y-96953579D01*
X97313196Y-96889505D01*
X97392943Y-96826973D01*
X97468327Y-96767657D01*
X97537207Y-96713229D01*
X97597442Y-96665361D01*
X97646889Y-96625725D01*
X97683408Y-96595994D01*
X97704858Y-96577839D01*
X97708156Y-96574780D01*
X97700149Y-96571921D01*
X97669855Y-96569707D01*
X97617556Y-96568143D01*
X97543531Y-96567233D01*
X97448063Y-96566980D01*
X97331434Y-96567387D01*
X97211445Y-96568296D01*
X97079333Y-96569618D01*
X96967594Y-96571143D01*
X96874025Y-96573119D01*
X96796419Y-96575794D01*
X96732574Y-96579418D01*
X96680283Y-96584239D01*
X96637344Y-96590506D01*
X96601551Y-96598468D01*
X96570700Y-96608373D01*
X96542586Y-96620469D01*
X96515005Y-96635007D01*
X96489966Y-96649689D01*
X96426867Y-96687686D01*
X96426867Y-95627803D01*
X96426867Y-95324966D01*
X96420617Y-95324999D01*
X96318544Y-95325805D01*
X96229633Y-95326830D01*
X96152941Y-95328100D01*
X96087527Y-95329640D01*
X96032449Y-95331476D01*
X95986765Y-95333633D01*
X95949534Y-95336137D01*
X95919813Y-95339013D01*
X95896662Y-95342287D01*
X95879139Y-95345985D01*
X95866301Y-95350131D01*
X95857208Y-95354753D01*
X95850918Y-95359874D01*
X95846488Y-95365522D01*
X95842978Y-95371721D01*
X95839445Y-95378496D01*
X95835876Y-95384492D01*
X95833300Y-95389725D01*
X95830972Y-95397901D01*
X95828878Y-95410114D01*
X95827007Y-95427459D01*
X95825347Y-95451031D01*
X95823884Y-95481923D01*
X95822608Y-95521232D01*
X95821504Y-95570050D01*
X95820561Y-95629473D01*
X95819767Y-95700596D01*
X95819109Y-95784512D01*
X95818575Y-95882317D01*
X95818153Y-95995106D01*
X95817829Y-96123971D01*
X95817592Y-96270009D01*
X95817430Y-96434314D01*
X95817330Y-96617980D01*
X95817280Y-96822103D01*
X95817267Y-97033247D01*
X95817267Y-98653600D01*
X95914054Y-98653600D01*
D11*
X106410000Y-116350000D02*
X106410000Y-112250000D01*
X106410000Y-112250000D02*
X104410000Y-112250000D01*
X104410000Y-112250000D02*
X104410000Y-116350000D01*
X104410000Y-116350000D02*
X106410000Y-116350000D01*
X100060000Y-116350000D02*
X100060000Y-112250000D01*
X100060000Y-112250000D02*
X98060000Y-112250000D01*
X98060000Y-112250000D02*
X98060000Y-116350000D01*
X98060000Y-116350000D02*
X100060000Y-116350000D01*
D10*
X106662380Y-113466666D02*
X107376666Y-113466666D01*
X107519523Y-113419047D01*
X107614761Y-113323809D01*
X107662380Y-113180952D01*
X107662380Y-113085714D01*
X107662380Y-113942857D02*
X106662380Y-113942857D01*
X106662380Y-114323809D01*
X106710000Y-114419047D01*
X106757619Y-114466666D01*
X106852857Y-114514285D01*
X106995714Y-114514285D01*
X107090952Y-114466666D01*
X107138571Y-114419047D01*
X107186190Y-114323809D01*
X107186190Y-113942857D01*
X107662380Y-115466666D02*
X107662380Y-114895238D01*
X107662380Y-115180952D02*
X106662380Y-115180952D01*
X106805238Y-115085714D01*
X106900476Y-114990476D01*
X106948095Y-114895238D01*
X104910000Y-117191404D02*
X104862380Y-117096166D01*
X104862380Y-116953309D01*
X104910000Y-116810452D01*
X105005238Y-116715214D01*
X105100476Y-116667595D01*
X105290952Y-116619976D01*
X105433809Y-116619976D01*
X105624285Y-116667595D01*
X105719523Y-116715214D01*
X105814761Y-116810452D01*
X105862380Y-116953309D01*
X105862380Y-117048547D01*
X105814761Y-117191404D01*
X105767142Y-117239023D01*
X105433809Y-117239023D01*
X105433809Y-117048547D01*
X105862380Y-117667595D02*
X104862380Y-117667595D01*
X105862380Y-118239023D01*
X104862380Y-118239023D01*
X105862380Y-118715214D02*
X104862380Y-118715214D01*
X104862380Y-118953309D01*
X104910000Y-119096166D01*
X105005238Y-119191404D01*
X105100476Y-119239023D01*
X105290952Y-119286642D01*
X105433809Y-119286642D01*
X105624285Y-119239023D01*
X105719523Y-119191404D01*
X105814761Y-119096166D01*
X105862380Y-118953309D01*
X105862380Y-118715214D01*
X104862380Y-107757785D02*
X105862380Y-108091119D01*
X104862380Y-108424452D01*
X104862380Y-108614928D02*
X104862380Y-109186357D01*
X105862380Y-108900642D02*
X104862380Y-108900642D01*
X105862380Y-110091119D02*
X105386190Y-109757785D01*
X105862380Y-109519690D02*
X104862380Y-109519690D01*
X104862380Y-109900642D01*
X104910000Y-109995880D01*
X104957619Y-110043500D01*
X105052857Y-110091119D01*
X105195714Y-110091119D01*
X105290952Y-110043500D01*
X105338571Y-109995880D01*
X105386190Y-109900642D01*
X105386190Y-109519690D01*
X105338571Y-110519690D02*
X105338571Y-110853023D01*
X105862380Y-110995880D02*
X105862380Y-110519690D01*
X104862380Y-110519690D01*
X104862380Y-110995880D01*
X105338571Y-111757785D02*
X105338571Y-111424452D01*
X105862380Y-111424452D02*
X104862380Y-111424452D01*
X104862380Y-111900642D01*
X96734380Y-113466666D02*
X97448666Y-113466666D01*
X97591523Y-113419047D01*
X97686761Y-113323809D01*
X97734380Y-113180952D01*
X97734380Y-113085714D01*
X97734380Y-113942857D02*
X96734380Y-113942857D01*
X96734380Y-114323809D01*
X96782000Y-114419047D01*
X96829619Y-114466666D01*
X96924857Y-114514285D01*
X97067714Y-114514285D01*
X97162952Y-114466666D01*
X97210571Y-114419047D01*
X97258190Y-114323809D01*
X97258190Y-113942857D01*
X96829619Y-114895238D02*
X96782000Y-114942857D01*
X96734380Y-115038095D01*
X96734380Y-115276190D01*
X96782000Y-115371428D01*
X96829619Y-115419047D01*
X96924857Y-115466666D01*
X97020095Y-115466666D01*
X97162952Y-115419047D01*
X97734380Y-114847619D01*
X97734380Y-115466666D01*
X98512380Y-116651738D02*
X99512380Y-116985071D01*
X98512380Y-117318404D01*
X98512380Y-117508880D02*
X98512380Y-118080309D01*
X99512380Y-117794595D02*
X98512380Y-117794595D01*
X99512380Y-118985071D02*
X99036190Y-118651738D01*
X99512380Y-118413642D02*
X98512380Y-118413642D01*
X98512380Y-118794595D01*
X98560000Y-118889833D01*
X98607619Y-118937452D01*
X98702857Y-118985071D01*
X98845714Y-118985071D01*
X98940952Y-118937452D01*
X98988571Y-118889833D01*
X99036190Y-118794595D01*
X99036190Y-118413642D01*
X98988571Y-119413642D02*
X98988571Y-119746976D01*
X99512380Y-119889833D02*
X99512380Y-119413642D01*
X98512380Y-119413642D01*
X98512380Y-119889833D01*
X98988571Y-120651738D02*
X98988571Y-120318404D01*
X99512380Y-120318404D02*
X98512380Y-120318404D01*
X98512380Y-120794595D01*
X98560000Y-109757785D02*
X98512380Y-109662547D01*
X98512380Y-109519690D01*
X98560000Y-109376833D01*
X98655238Y-109281595D01*
X98750476Y-109233976D01*
X98940952Y-109186357D01*
X99083809Y-109186357D01*
X99274285Y-109233976D01*
X99369523Y-109281595D01*
X99464761Y-109376833D01*
X99512380Y-109519690D01*
X99512380Y-109614928D01*
X99464761Y-109757785D01*
X99417142Y-109805404D01*
X99083809Y-109805404D01*
X99083809Y-109614928D01*
X99512380Y-110233976D02*
X98512380Y-110233976D01*
X99512380Y-110805404D01*
X98512380Y-110805404D01*
X99512380Y-111281595D02*
X98512380Y-111281595D01*
X98512380Y-111519690D01*
X98560000Y-111662547D01*
X98655238Y-111757785D01*
X98750476Y-111805404D01*
X98940952Y-111853023D01*
X99083809Y-111853023D01*
X99274285Y-111805404D01*
X99369523Y-111757785D01*
X99464761Y-111662547D01*
X99512380Y-111519690D01*
X99512380Y-111281595D01*
M02*
