G04 #@! TF.GenerationSoftware,KiCad,Pcbnew,7.0.10-7.0.10~ubuntu22.04.1*
G04 #@! TF.CreationDate,2025-03-20T21:46:33+01:00*
G04 #@! TF.ProjectId,jlink-tagConnect-adapter-v4,6a6c696e-6b2d-4746-9167-436f6e6e6563,rev?*
G04 #@! TF.SameCoordinates,Original*
G04 #@! TF.FileFunction,Copper,L2,Bot*
G04 #@! TF.FilePolarity,Positive*
%FSLAX46Y46*%
G04 Gerber Fmt 4.6, Leading zero omitted, Abs format (unit mm)*
G04 Created by KiCad (PCBNEW 7.0.10-7.0.10~ubuntu22.04.1) date 2025-03-20 21:46:33*
%MOMM*%
%LPD*%
G01*
G04 APERTURE LIST*
G04 Aperture macros list*
%AMRoundRect*
0 Rectangle with rounded corners*
0 $1 Rounding radius*
0 $2 $3 $4 $5 $6 $7 $8 $9 X,Y pos of 4 corners*
0 Add a 4 corners polygon primitive as box body*
4,1,4,$2,$3,$4,$5,$6,$7,$8,$9,$2,$3,0*
0 Add four circle primitives for the rounded corners*
1,1,$1+$1,$2,$3*
1,1,$1+$1,$4,$5*
1,1,$1+$1,$6,$7*
1,1,$1+$1,$8,$9*
0 Add four rect primitives between the rounded corners*
20,1,$1+$1,$2,$3,$4,$5,0*
20,1,$1+$1,$4,$5,$6,$7,0*
20,1,$1+$1,$6,$7,$8,$9,0*
20,1,$1+$1,$8,$9,$2,$3,0*%
G04 Aperture macros list end*
G04 #@! TA.AperFunction,ComponentPad*
%ADD10R,1.700000X1.700000*%
G04 #@! TD*
G04 #@! TA.AperFunction,ComponentPad*
%ADD11O,1.700000X1.700000*%
G04 #@! TD*
G04 #@! TA.AperFunction,ComponentPad*
%ADD12R,1.727200X1.727200*%
G04 #@! TD*
G04 #@! TA.AperFunction,ComponentPad*
%ADD13O,1.727200X1.727200*%
G04 #@! TD*
G04 #@! TA.AperFunction,ComponentPad*
%ADD14R,1.000000X1.000000*%
G04 #@! TD*
G04 #@! TA.AperFunction,ComponentPad*
%ADD15O,1.000000X1.000000*%
G04 #@! TD*
G04 #@! TA.AperFunction,ComponentPad*
%ADD16R,2.250000X2.250000*%
G04 #@! TD*
G04 #@! TA.AperFunction,ComponentPad*
%ADD17C,2.250000*%
G04 #@! TD*
G04 #@! TA.AperFunction,SMDPad,CuDef*
%ADD18R,1.500000X1.000000*%
G04 #@! TD*
G04 #@! TA.AperFunction,ConnectorPad*
%ADD19C,0.787400*%
G04 #@! TD*
G04 #@! TA.AperFunction,SMDPad,CuDef*
%ADD20RoundRect,0.237500X0.237500X-0.250000X0.237500X0.250000X-0.237500X0.250000X-0.237500X-0.250000X0*%
G04 #@! TD*
G04 #@! TA.AperFunction,SMDPad,CuDef*
%ADD21RoundRect,0.237500X0.237500X-0.300000X0.237500X0.300000X-0.237500X0.300000X-0.237500X-0.300000X0*%
G04 #@! TD*
G04 #@! TA.AperFunction,ViaPad*
%ADD22C,1.400000*%
G04 #@! TD*
G04 #@! TA.AperFunction,ViaPad*
%ADD23C,0.800000*%
G04 #@! TD*
G04 #@! TA.AperFunction,Conductor*
%ADD24C,0.762000*%
G04 #@! TD*
G04 #@! TA.AperFunction,Conductor*
%ADD25C,1.016000*%
G04 #@! TD*
G04 #@! TA.AperFunction,Conductor*
%ADD26C,0.254000*%
G04 #@! TD*
G04 #@! TA.AperFunction,Profile*
%ADD27C,0.101600*%
G04 #@! TD*
G04 APERTURE END LIST*
G04 #@! TA.AperFunction,EtchedComponent*
G36*
X99360000Y-113900000D02*
G01*
X98760000Y-113900000D01*
X98760000Y-113400000D01*
X99360000Y-113400000D01*
X99360000Y-113900000D01*
G37*
G04 #@! TD.AperFunction*
G04 #@! TA.AperFunction,EtchedComponent*
G36*
X105710000Y-115200000D02*
G01*
X105110000Y-115200000D01*
X105110000Y-114700000D01*
X105710000Y-114700000D01*
X105710000Y-115200000D01*
G37*
G04 #@! TD.AperFunction*
G04 #@! TA.AperFunction,EtchedComponent*
G36*
X122982000Y-98040000D02*
G01*
X122382000Y-98040000D01*
X122382000Y-97540000D01*
X122982000Y-97540000D01*
X122982000Y-98040000D01*
G37*
G04 #@! TD.AperFunction*
D10*
X101600000Y-118110000D03*
D11*
X101600000Y-115570000D03*
X101600000Y-113030000D03*
D10*
X120015000Y-119380000D03*
D11*
X122555000Y-119380000D03*
D10*
X93980000Y-95250000D03*
D11*
X91440000Y-95250000D03*
X93980000Y-97790000D03*
X91440000Y-97790000D03*
X93980000Y-100330000D03*
X91440000Y-100330000D03*
X93980000Y-102870000D03*
X91440000Y-102870000D03*
X93980000Y-105410000D03*
X91440000Y-105410000D03*
X93980000Y-107950000D03*
X91440000Y-107950000D03*
X93980000Y-110490000D03*
X91440000Y-110490000D03*
X93980000Y-113030000D03*
X91440000Y-113030000D03*
X93980000Y-115570000D03*
X91440000Y-115570000D03*
X93980000Y-118110000D03*
X91440000Y-118110000D03*
D12*
X122555000Y-111760000D03*
D13*
X120015000Y-111760000D03*
X122555000Y-109220000D03*
X120015000Y-109220000D03*
X122555000Y-106680000D03*
X120015000Y-106680000D03*
X122555000Y-104140000D03*
X120015000Y-104140000D03*
X122555000Y-101600000D03*
X120015000Y-101600000D03*
D10*
X106680000Y-105410000D03*
D11*
X106680000Y-107950000D03*
D10*
X101600000Y-100330000D03*
D11*
X101600000Y-97790000D03*
X101600000Y-95250000D03*
D10*
X106680000Y-100330000D03*
D11*
X106680000Y-97790000D03*
X106680000Y-95250000D03*
D10*
X109220000Y-113030000D03*
D11*
X109220000Y-115570000D03*
X109220000Y-118110000D03*
D14*
X132715000Y-109220000D03*
D15*
X131445000Y-109220000D03*
X132715000Y-107950000D03*
X131445000Y-107950000D03*
X132715000Y-106680000D03*
X131445000Y-106680000D03*
X132715000Y-105410000D03*
X131445000Y-105410000D03*
X132715000Y-104140000D03*
X131445000Y-104140000D03*
D10*
X101600000Y-105410000D03*
D11*
X101600000Y-107950000D03*
D10*
X114300000Y-107950000D03*
D11*
X114300000Y-105410000D03*
D10*
X114300000Y-95250000D03*
D11*
X114300000Y-97790000D03*
D16*
X124535000Y-93726000D03*
D17*
X118035000Y-93726000D03*
D18*
X99060000Y-113000000D03*
X99060000Y-114300000D03*
X99060000Y-115600000D03*
X105410000Y-115600000D03*
X105410000Y-114300000D03*
X105410000Y-113000000D03*
D19*
X134620000Y-97282000D03*
X133350000Y-97282000D03*
X132080000Y-97282000D03*
X130810000Y-97282000D03*
X129540000Y-97282000D03*
X129540000Y-96012000D03*
X130810000Y-96012000D03*
X132080000Y-96012000D03*
X133350000Y-96012000D03*
X134620000Y-96012000D03*
D18*
X122682000Y-98440000D03*
X122682000Y-97140000D03*
D20*
X124968000Y-98956500D03*
X124968000Y-97131500D03*
D21*
X119888000Y-98906500D03*
X119888000Y-97181500D03*
D22*
X136525000Y-107950000D03*
X127508000Y-109220000D03*
X128333500Y-116078000D03*
D23*
X95250000Y-104140000D03*
X96012000Y-100330000D03*
X97790000Y-105410000D03*
X95250000Y-99060000D03*
X96774000Y-106680000D03*
D22*
X105410000Y-111252000D03*
X99060000Y-111252000D03*
D23*
X127000000Y-104140000D03*
D22*
X125095000Y-113665000D03*
D24*
X107285000Y-115600000D02*
X107315000Y-115570000D01*
X107315000Y-113030000D02*
X109220000Y-113030000D01*
X122555000Y-109220000D02*
X127508000Y-109220000D01*
D25*
X91440000Y-97790000D02*
X91440000Y-120015000D01*
D24*
X105410000Y-115600000D02*
X107285000Y-115600000D01*
X107315000Y-115570000D02*
X107315000Y-113030000D01*
D26*
X96012000Y-100330000D02*
X95250000Y-101092000D01*
X95250000Y-101092000D02*
X95250000Y-104140000D01*
X97075134Y-107407000D02*
X97063000Y-107407000D01*
X97063000Y-107407000D02*
X93980000Y-110490000D01*
X97790000Y-106692134D02*
X97075134Y-107407000D01*
X97790000Y-105410000D02*
X97790000Y-106692134D01*
X92710000Y-99568000D02*
X93218000Y-99060000D01*
X93980000Y-107950000D02*
X92710000Y-106680000D01*
X93218000Y-99060000D02*
X95250000Y-99060000D01*
X92710000Y-106680000D02*
X92710000Y-99568000D01*
X95504000Y-105410000D02*
X93980000Y-105410000D01*
X120015000Y-109220000D02*
X121285000Y-107950000D01*
X127000000Y-107950000D02*
X131445000Y-107950000D01*
X121285000Y-107950000D02*
X127000000Y-107950000D01*
X96774000Y-106680000D02*
X95504000Y-105410000D01*
X130810000Y-110490000D02*
X131445000Y-109855000D01*
X120015000Y-111760000D02*
X121285000Y-110490000D01*
X121285000Y-110490000D02*
X130810000Y-110490000D01*
X131445000Y-109855000D02*
X131445000Y-109220000D01*
D24*
X99060000Y-111252000D02*
X99060000Y-112819000D01*
X99060000Y-98298000D02*
X96012000Y-95250000D01*
X99060000Y-111252000D02*
X99060000Y-98298000D01*
X96012000Y-95250000D02*
X93980000Y-95250000D01*
X105410000Y-111252000D02*
X105410000Y-113000000D01*
D26*
X132715000Y-102235000D02*
X132715000Y-104140000D01*
X122555000Y-101600000D02*
X132080000Y-101600000D01*
X132080000Y-101600000D02*
X132715000Y-102235000D01*
X122555000Y-104140000D02*
X127000000Y-104140000D01*
D24*
X134620000Y-107315000D02*
X133985000Y-106680000D01*
X132715000Y-113665000D02*
X134620000Y-111760000D01*
X134620000Y-111760000D02*
X134620000Y-107315000D01*
X125095000Y-113665000D02*
X132715000Y-113665000D01*
X133985000Y-106680000D02*
X132715000Y-106680000D01*
X132715000Y-110490000D02*
X132715000Y-109220000D01*
X122555000Y-111760000D02*
X131445000Y-111760000D01*
X131445000Y-111760000D02*
X132715000Y-110490000D01*
X101600000Y-113030000D02*
X102870000Y-114300000D01*
X102870000Y-114300000D02*
X105410000Y-114300000D01*
X100330000Y-114300000D02*
X99060000Y-114300000D01*
X101600000Y-115570000D02*
X100330000Y-114300000D01*
D26*
X125095000Y-105410000D02*
X126365000Y-106680000D01*
X120015000Y-106680000D02*
X121285000Y-105410000D01*
X121285000Y-105410000D02*
X125095000Y-105410000D01*
X126365000Y-106680000D02*
X131445000Y-106680000D01*
X114300000Y-97790000D02*
X116205000Y-97790000D01*
X121285000Y-102870000D02*
X128905000Y-102870000D01*
X130175000Y-104140000D02*
X131445000Y-104140000D01*
X120015000Y-101600000D02*
X121285000Y-102870000D01*
X128905000Y-102870000D02*
X130175000Y-104140000D01*
X119888000Y-95579000D02*
X119888000Y-96927500D01*
X118035000Y-93726000D02*
X119888000Y-95579000D01*
X116205000Y-97790000D02*
X120015000Y-101600000D01*
X124959500Y-97140000D02*
X122682000Y-97140000D01*
X124535000Y-93726000D02*
X124535000Y-95579000D01*
X124968000Y-97131500D02*
X124959500Y-97140000D01*
X124535000Y-95579000D02*
X124968000Y-96012000D01*
X124968000Y-96012000D02*
X124968000Y-97131500D01*
G04 #@! TA.AperFunction,Conductor*
G36*
X91694000Y-117676325D02*
G01*
X91582315Y-117625320D01*
X91475763Y-117610000D01*
X91404237Y-117610000D01*
X91297685Y-117625320D01*
X91186000Y-117676325D01*
X91186000Y-116003674D01*
X91297685Y-116054680D01*
X91404237Y-116070000D01*
X91475763Y-116070000D01*
X91582315Y-116054680D01*
X91694000Y-116003674D01*
X91694000Y-117676325D01*
G37*
G04 #@! TD.AperFunction*
G04 #@! TA.AperFunction,Conductor*
G36*
X91694000Y-115136325D02*
G01*
X91582315Y-115085320D01*
X91475763Y-115070000D01*
X91404237Y-115070000D01*
X91297685Y-115085320D01*
X91186000Y-115136325D01*
X91186000Y-113463674D01*
X91297685Y-113514680D01*
X91404237Y-113530000D01*
X91475763Y-113530000D01*
X91582315Y-113514680D01*
X91694000Y-113463674D01*
X91694000Y-115136325D01*
G37*
G04 #@! TD.AperFunction*
G04 #@! TA.AperFunction,Conductor*
G36*
X91694000Y-112596325D02*
G01*
X91582315Y-112545320D01*
X91475763Y-112530000D01*
X91404237Y-112530000D01*
X91297685Y-112545320D01*
X91186000Y-112596325D01*
X91186000Y-110923674D01*
X91297685Y-110974680D01*
X91404237Y-110990000D01*
X91475763Y-110990000D01*
X91582315Y-110974680D01*
X91694000Y-110923674D01*
X91694000Y-112596325D01*
G37*
G04 #@! TD.AperFunction*
G04 #@! TA.AperFunction,Conductor*
G36*
X91694000Y-110056325D02*
G01*
X91582315Y-110005320D01*
X91475763Y-109990000D01*
X91404237Y-109990000D01*
X91297685Y-110005320D01*
X91186000Y-110056325D01*
X91186000Y-108383674D01*
X91297685Y-108434680D01*
X91404237Y-108450000D01*
X91475763Y-108450000D01*
X91582315Y-108434680D01*
X91694000Y-108383674D01*
X91694000Y-110056325D01*
G37*
G04 #@! TD.AperFunction*
G04 #@! TA.AperFunction,Conductor*
G36*
X91694000Y-107516325D02*
G01*
X91582315Y-107465320D01*
X91475763Y-107450000D01*
X91404237Y-107450000D01*
X91297685Y-107465320D01*
X91186000Y-107516325D01*
X91186000Y-105843674D01*
X91297685Y-105894680D01*
X91404237Y-105910000D01*
X91475763Y-105910000D01*
X91582315Y-105894680D01*
X91694000Y-105843674D01*
X91694000Y-107516325D01*
G37*
G04 #@! TD.AperFunction*
G04 #@! TA.AperFunction,Conductor*
G36*
X91694000Y-104976325D02*
G01*
X91582315Y-104925320D01*
X91475763Y-104910000D01*
X91404237Y-104910000D01*
X91297685Y-104925320D01*
X91186000Y-104976325D01*
X91186000Y-103303674D01*
X91297685Y-103354680D01*
X91404237Y-103370000D01*
X91475763Y-103370000D01*
X91582315Y-103354680D01*
X91694000Y-103303674D01*
X91694000Y-104976325D01*
G37*
G04 #@! TD.AperFunction*
G04 #@! TA.AperFunction,Conductor*
G36*
X91694000Y-102436325D02*
G01*
X91582315Y-102385320D01*
X91475763Y-102370000D01*
X91404237Y-102370000D01*
X91297685Y-102385320D01*
X91186000Y-102436325D01*
X91186000Y-100763674D01*
X91297685Y-100814680D01*
X91404237Y-100830000D01*
X91475763Y-100830000D01*
X91582315Y-100814680D01*
X91694000Y-100763674D01*
X91694000Y-102436325D01*
G37*
G04 #@! TD.AperFunction*
G04 #@! TA.AperFunction,Conductor*
G36*
X91694000Y-99896325D02*
G01*
X91582315Y-99845320D01*
X91475763Y-99830000D01*
X91404237Y-99830000D01*
X91297685Y-99845320D01*
X91186000Y-99896325D01*
X91186000Y-98223674D01*
X91297685Y-98274680D01*
X91404237Y-98290000D01*
X91475763Y-98290000D01*
X91582315Y-98274680D01*
X91694000Y-98223674D01*
X91694000Y-99896325D01*
G37*
G04 #@! TD.AperFunction*
G04 #@! TA.AperFunction,Conductor*
G36*
X130498523Y-108605502D02*
G01*
X130545016Y-108659158D01*
X130555120Y-108729432D01*
X130541524Y-108770895D01*
X130508760Y-108832191D01*
X130508759Y-108832194D01*
X130451090Y-109022305D01*
X130431620Y-109219996D01*
X130431620Y-109220003D01*
X130451090Y-109417694D01*
X130451091Y-109417700D01*
X130451092Y-109417701D01*
X130508759Y-109607804D01*
X130541525Y-109669106D01*
X130555997Y-109738609D01*
X130530594Y-109804906D01*
X130473381Y-109846944D01*
X130430403Y-109854500D01*
X123967291Y-109854500D01*
X123899170Y-109834498D01*
X123852677Y-109780842D01*
X123842573Y-109710568D01*
X123851902Y-109677890D01*
X123856728Y-109666886D01*
X123856730Y-109666880D01*
X123905574Y-109474000D01*
X122995625Y-109474000D01*
X123021845Y-109433201D01*
X123063000Y-109293039D01*
X123063000Y-109146961D01*
X123021845Y-109006799D01*
X122995625Y-108966000D01*
X123905574Y-108966000D01*
X123905574Y-108965999D01*
X123856730Y-108773119D01*
X123856728Y-108773113D01*
X123851902Y-108762110D01*
X123842858Y-108691692D01*
X123873320Y-108627563D01*
X123933617Y-108590083D01*
X123967291Y-108585500D01*
X126919718Y-108585500D01*
X130430402Y-108585500D01*
X130498523Y-108605502D01*
G37*
G04 #@! TD.AperFunction*
G04 #@! TA.AperFunction,Conductor*
G36*
X114554000Y-107516325D02*
G01*
X114442315Y-107465320D01*
X114335763Y-107450000D01*
X114264237Y-107450000D01*
X114157685Y-107465320D01*
X114046000Y-107516325D01*
X114046000Y-105843674D01*
X114157685Y-105894680D01*
X114264237Y-105910000D01*
X114335763Y-105910000D01*
X114442315Y-105894680D01*
X114554000Y-105843674D01*
X114554000Y-107516325D01*
G37*
G04 #@! TD.AperFunction*
G04 #@! TA.AperFunction,Conductor*
G36*
X135894119Y-91491570D02*
G01*
X136123725Y-91506619D01*
X136140042Y-91508767D01*
X136361681Y-91552853D01*
X136377585Y-91557114D01*
X136591571Y-91629754D01*
X136606772Y-91636050D01*
X136809446Y-91735997D01*
X136823716Y-91744237D01*
X137011595Y-91869773D01*
X137024670Y-91879806D01*
X137194554Y-92028790D01*
X137206209Y-92040445D01*
X137355193Y-92210329D01*
X137365226Y-92223404D01*
X137490762Y-92411283D01*
X137499003Y-92425556D01*
X137598945Y-92628219D01*
X137605249Y-92643438D01*
X137677882Y-92857406D01*
X137682148Y-92873327D01*
X137726230Y-93094945D01*
X137728381Y-93111285D01*
X137743430Y-93340880D01*
X137743700Y-93349121D01*
X137743700Y-120010878D01*
X137743430Y-120019119D01*
X137728381Y-120248714D01*
X137726230Y-120265054D01*
X137682148Y-120486672D01*
X137677882Y-120502593D01*
X137605249Y-120716561D01*
X137598942Y-120731788D01*
X137499003Y-120934443D01*
X137490762Y-120948716D01*
X137365226Y-121136595D01*
X137355193Y-121149670D01*
X137206209Y-121319554D01*
X137194554Y-121331209D01*
X137024670Y-121480193D01*
X137011595Y-121490226D01*
X136823716Y-121615762D01*
X136809443Y-121624003D01*
X136606788Y-121723942D01*
X136591561Y-121730249D01*
X136377593Y-121802882D01*
X136361672Y-121807148D01*
X136140054Y-121851230D01*
X136123714Y-121853381D01*
X135894119Y-121868430D01*
X135885878Y-121868700D01*
X91444122Y-121868700D01*
X91435881Y-121868430D01*
X91206285Y-121853381D01*
X91189945Y-121851230D01*
X90968327Y-121807148D01*
X90952406Y-121802882D01*
X90738438Y-121730249D01*
X90723219Y-121723945D01*
X90520556Y-121624003D01*
X90506283Y-121615762D01*
X90318404Y-121490226D01*
X90305329Y-121480193D01*
X90135445Y-121331209D01*
X90123790Y-121319554D01*
X89974806Y-121149670D01*
X89964773Y-121136595D01*
X89943123Y-121104194D01*
X89839237Y-120948716D01*
X89830996Y-120934443D01*
X89731050Y-120731772D01*
X89724754Y-120716571D01*
X89652114Y-120502585D01*
X89647853Y-120486681D01*
X89606474Y-120278649D01*
X118656500Y-120278649D01*
X118663009Y-120339196D01*
X118663011Y-120339204D01*
X118714110Y-120476202D01*
X118714112Y-120476207D01*
X118801738Y-120593261D01*
X118918792Y-120680887D01*
X118918794Y-120680888D01*
X118918796Y-120680889D01*
X118973900Y-120701442D01*
X119055795Y-120731988D01*
X119055803Y-120731990D01*
X119116350Y-120738499D01*
X119116355Y-120738499D01*
X119116362Y-120738500D01*
X119116368Y-120738500D01*
X120913632Y-120738500D01*
X120913638Y-120738500D01*
X120913645Y-120738499D01*
X120913649Y-120738499D01*
X120974196Y-120731990D01*
X120974199Y-120731989D01*
X120974201Y-120731989D01*
X121111204Y-120680889D01*
X121181399Y-120628342D01*
X121228261Y-120593261D01*
X121315886Y-120476208D01*
X121315885Y-120476208D01*
X121315889Y-120476204D01*
X121359999Y-120357939D01*
X121402545Y-120301107D01*
X121469066Y-120276296D01*
X121538440Y-120291388D01*
X121570753Y-120316635D01*
X121591529Y-120339204D01*
X121631762Y-120382908D01*
X121686331Y-120425381D01*
X121809424Y-120521189D01*
X122007426Y-120628342D01*
X122007427Y-120628342D01*
X122007428Y-120628343D01*
X122056476Y-120645181D01*
X122220365Y-120701444D01*
X122442431Y-120738500D01*
X122442435Y-120738500D01*
X122667565Y-120738500D01*
X122667569Y-120738500D01*
X122889635Y-120701444D01*
X123102574Y-120628342D01*
X123300576Y-120521189D01*
X123478240Y-120382906D01*
X123630722Y-120217268D01*
X123753860Y-120028791D01*
X123844296Y-119822616D01*
X123899564Y-119604368D01*
X123918156Y-119380000D01*
X123899564Y-119155632D01*
X123888650Y-119112534D01*
X123844297Y-118937387D01*
X123844296Y-118937386D01*
X123844296Y-118937384D01*
X123753860Y-118731209D01*
X123736500Y-118704637D01*
X123630724Y-118542734D01*
X123630720Y-118542729D01*
X123478237Y-118377091D01*
X123358367Y-118283792D01*
X123300576Y-118238811D01*
X123102574Y-118131658D01*
X123102572Y-118131657D01*
X123102571Y-118131656D01*
X122889639Y-118058557D01*
X122889630Y-118058555D01*
X122845476Y-118051187D01*
X122667569Y-118021500D01*
X122442431Y-118021500D01*
X122294211Y-118046233D01*
X122220369Y-118058555D01*
X122220360Y-118058557D01*
X122007428Y-118131656D01*
X122007426Y-118131658D01*
X121809426Y-118238810D01*
X121809424Y-118238811D01*
X121631762Y-118377091D01*
X121570754Y-118443363D01*
X121509901Y-118479933D01*
X121438936Y-118477798D01*
X121380391Y-118437636D01*
X121359999Y-118402057D01*
X121315889Y-118283797D01*
X121315887Y-118283792D01*
X121228261Y-118166738D01*
X121111207Y-118079112D01*
X121111202Y-118079110D01*
X120974204Y-118028011D01*
X120974196Y-118028009D01*
X120913649Y-118021500D01*
X120913638Y-118021500D01*
X119116362Y-118021500D01*
X119116350Y-118021500D01*
X119055803Y-118028009D01*
X119055795Y-118028011D01*
X118918797Y-118079110D01*
X118918792Y-118079112D01*
X118801738Y-118166738D01*
X118714112Y-118283792D01*
X118714110Y-118283797D01*
X118663011Y-118420795D01*
X118663009Y-118420803D01*
X118656500Y-118481350D01*
X118656500Y-120278649D01*
X89606474Y-120278649D01*
X89603767Y-120265042D01*
X89601619Y-120248725D01*
X89586570Y-120019119D01*
X89586300Y-120010878D01*
X89586300Y-95250000D01*
X90076844Y-95250000D01*
X90093394Y-95449728D01*
X90095437Y-95474375D01*
X90150702Y-95692612D01*
X90150703Y-95692613D01*
X90150704Y-95692616D01*
X90227476Y-95867639D01*
X90241141Y-95898793D01*
X90364275Y-96087265D01*
X90364279Y-96087270D01*
X90431940Y-96160768D01*
X90512512Y-96248292D01*
X90516762Y-96252908D01*
X90547379Y-96276738D01*
X90694424Y-96391189D01*
X90728205Y-96409470D01*
X90778596Y-96459482D01*
X90793949Y-96528799D01*
X90769389Y-96595412D01*
X90728209Y-96631096D01*
X90694704Y-96649228D01*
X90694698Y-96649232D01*
X90517097Y-96787465D01*
X90364674Y-96953041D01*
X90241580Y-97141451D01*
X90151179Y-97347543D01*
X90151176Y-97347550D01*
X90103455Y-97535999D01*
X90103456Y-97536000D01*
X91008884Y-97536000D01*
X90980507Y-97580156D01*
X90940000Y-97718111D01*
X90940000Y-97861889D01*
X90980507Y-97999844D01*
X91008884Y-98044000D01*
X90103455Y-98044000D01*
X90151176Y-98232449D01*
X90151179Y-98232456D01*
X90241580Y-98438548D01*
X90364674Y-98626958D01*
X90517097Y-98792534D01*
X90694698Y-98930767D01*
X90694699Y-98930768D01*
X90728734Y-98949187D01*
X90779123Y-98999201D01*
X90794475Y-99068518D01*
X90769913Y-99135130D01*
X90728734Y-99170813D01*
X90694699Y-99189231D01*
X90694698Y-99189232D01*
X90517097Y-99327465D01*
X90364674Y-99493041D01*
X90241580Y-99681451D01*
X90151179Y-99887543D01*
X90151176Y-99887550D01*
X90103455Y-100075999D01*
X90103456Y-100076000D01*
X91008884Y-100076000D01*
X90980507Y-100120156D01*
X90940000Y-100258111D01*
X90940000Y-100401889D01*
X90980507Y-100539844D01*
X91008884Y-100584000D01*
X90103455Y-100584000D01*
X90151176Y-100772449D01*
X90151179Y-100772456D01*
X90241580Y-100978548D01*
X90364674Y-101166958D01*
X90517097Y-101332534D01*
X90694698Y-101470767D01*
X90694699Y-101470768D01*
X90728734Y-101489187D01*
X90779123Y-101539201D01*
X90794475Y-101608518D01*
X90769913Y-101675130D01*
X90728734Y-101710813D01*
X90694699Y-101729231D01*
X90694698Y-101729232D01*
X90517097Y-101867465D01*
X90364674Y-102033041D01*
X90241580Y-102221451D01*
X90151179Y-102427543D01*
X90151176Y-102427550D01*
X90103455Y-102615999D01*
X90103456Y-102616000D01*
X91008884Y-102616000D01*
X90980507Y-102660156D01*
X90940000Y-102798111D01*
X90940000Y-102941889D01*
X90980507Y-103079844D01*
X91008884Y-103124000D01*
X90103455Y-103124000D01*
X90151176Y-103312449D01*
X90151179Y-103312456D01*
X90241580Y-103518548D01*
X90364674Y-103706958D01*
X90517097Y-103872534D01*
X90694698Y-104010767D01*
X90694699Y-104010768D01*
X90728734Y-104029187D01*
X90779123Y-104079201D01*
X90794475Y-104148518D01*
X90769913Y-104215130D01*
X90728734Y-104250813D01*
X90694699Y-104269231D01*
X90694698Y-104269232D01*
X90517097Y-104407465D01*
X90364674Y-104573041D01*
X90241580Y-104761451D01*
X90151179Y-104967543D01*
X90151176Y-104967550D01*
X90103455Y-105155999D01*
X90103456Y-105156000D01*
X91008884Y-105156000D01*
X90980507Y-105200156D01*
X90940000Y-105338111D01*
X90940000Y-105481889D01*
X90980507Y-105619844D01*
X91008884Y-105664000D01*
X90103455Y-105664000D01*
X90151176Y-105852449D01*
X90151179Y-105852456D01*
X90241580Y-106058548D01*
X90364674Y-106246958D01*
X90517097Y-106412534D01*
X90694698Y-106550767D01*
X90694699Y-106550768D01*
X90728734Y-106569187D01*
X90779123Y-106619201D01*
X90794475Y-106688518D01*
X90769913Y-106755130D01*
X90728734Y-106790813D01*
X90694699Y-106809231D01*
X90694698Y-106809232D01*
X90517097Y-106947465D01*
X90364674Y-107113041D01*
X90241580Y-107301451D01*
X90151179Y-107507543D01*
X90151176Y-107507550D01*
X90103455Y-107695999D01*
X90103456Y-107696000D01*
X91008884Y-107696000D01*
X90980507Y-107740156D01*
X90940000Y-107878111D01*
X90940000Y-108021889D01*
X90980507Y-108159844D01*
X91008884Y-108204000D01*
X90103455Y-108204000D01*
X90151176Y-108392449D01*
X90151179Y-108392456D01*
X90241580Y-108598548D01*
X90364674Y-108786958D01*
X90517097Y-108952534D01*
X90694698Y-109090767D01*
X90694699Y-109090768D01*
X90728734Y-109109187D01*
X90779123Y-109159201D01*
X90794475Y-109228518D01*
X90769913Y-109295130D01*
X90728734Y-109330813D01*
X90694699Y-109349231D01*
X90694698Y-109349232D01*
X90517097Y-109487465D01*
X90364674Y-109653041D01*
X90241580Y-109841451D01*
X90151179Y-110047543D01*
X90151176Y-110047550D01*
X90103455Y-110235999D01*
X90103456Y-110236000D01*
X91008884Y-110236000D01*
X90980507Y-110280156D01*
X90940000Y-110418111D01*
X90940000Y-110561889D01*
X90980507Y-110699844D01*
X91008884Y-110744000D01*
X90103455Y-110744000D01*
X90151176Y-110932449D01*
X90151179Y-110932456D01*
X90241580Y-111138548D01*
X90364674Y-111326958D01*
X90517097Y-111492534D01*
X90694698Y-111630767D01*
X90694699Y-111630768D01*
X90728734Y-111649187D01*
X90779123Y-111699201D01*
X90794475Y-111768518D01*
X90769913Y-111835130D01*
X90728734Y-111870813D01*
X90694699Y-111889231D01*
X90694698Y-111889232D01*
X90517097Y-112027465D01*
X90364674Y-112193041D01*
X90241580Y-112381451D01*
X90151179Y-112587543D01*
X90151176Y-112587550D01*
X90103455Y-112775999D01*
X90103456Y-112776000D01*
X91008884Y-112776000D01*
X90980507Y-112820156D01*
X90940000Y-112958111D01*
X90940000Y-113101889D01*
X90980507Y-113239844D01*
X91008884Y-113284000D01*
X90103455Y-113284000D01*
X90151176Y-113472449D01*
X90151179Y-113472456D01*
X90241580Y-113678548D01*
X90364674Y-113866958D01*
X90517097Y-114032534D01*
X90694698Y-114170767D01*
X90694699Y-114170768D01*
X90728734Y-114189187D01*
X90779123Y-114239201D01*
X90794475Y-114308518D01*
X90769913Y-114375130D01*
X90728734Y-114410813D01*
X90694699Y-114429231D01*
X90694698Y-114429232D01*
X90517097Y-114567465D01*
X90364674Y-114733041D01*
X90241580Y-114921451D01*
X90151179Y-115127543D01*
X90151176Y-115127550D01*
X90103455Y-115315999D01*
X90103456Y-115316000D01*
X91008884Y-115316000D01*
X90980507Y-115360156D01*
X90940000Y-115498111D01*
X90940000Y-115641889D01*
X90980507Y-115779844D01*
X91008884Y-115824000D01*
X90103455Y-115824000D01*
X90151176Y-116012449D01*
X90151179Y-116012456D01*
X90241580Y-116218548D01*
X90364674Y-116406958D01*
X90517097Y-116572534D01*
X90694698Y-116710767D01*
X90694699Y-116710768D01*
X90728734Y-116729187D01*
X90779123Y-116779201D01*
X90794475Y-116848518D01*
X90769913Y-116915130D01*
X90728734Y-116950813D01*
X90694699Y-116969231D01*
X90694698Y-116969232D01*
X90517097Y-117107465D01*
X90364674Y-117273041D01*
X90241580Y-117461451D01*
X90151179Y-117667543D01*
X90151176Y-117667550D01*
X90103455Y-117855999D01*
X90103456Y-117856000D01*
X91008884Y-117856000D01*
X90980507Y-117900156D01*
X90940000Y-118038111D01*
X90940000Y-118181889D01*
X90980507Y-118319844D01*
X91008884Y-118364000D01*
X90103455Y-118364000D01*
X90151176Y-118552449D01*
X90151179Y-118552456D01*
X90241580Y-118758548D01*
X90364674Y-118946958D01*
X90517097Y-119112534D01*
X90694698Y-119250767D01*
X90694699Y-119250768D01*
X90892628Y-119357882D01*
X90892630Y-119357883D01*
X91105483Y-119430955D01*
X91105492Y-119430957D01*
X91186000Y-119444391D01*
X91186000Y-118543674D01*
X91297685Y-118594680D01*
X91404237Y-118610000D01*
X91475763Y-118610000D01*
X91582315Y-118594680D01*
X91694000Y-118543674D01*
X91694000Y-119444390D01*
X91774507Y-119430957D01*
X91774516Y-119430955D01*
X91987369Y-119357883D01*
X91987371Y-119357882D01*
X92185300Y-119250768D01*
X92185301Y-119250767D01*
X92362902Y-119112534D01*
X92515327Y-118946955D01*
X92604217Y-118810899D01*
X92658220Y-118764810D01*
X92728568Y-118755235D01*
X92792925Y-118785212D01*
X92815183Y-118810898D01*
X92904279Y-118947270D01*
X93056762Y-119112908D01*
X93111331Y-119155381D01*
X93234424Y-119251189D01*
X93432426Y-119358342D01*
X93432427Y-119358342D01*
X93432428Y-119358343D01*
X93544227Y-119396723D01*
X93645365Y-119431444D01*
X93867431Y-119468500D01*
X93867435Y-119468500D01*
X94092565Y-119468500D01*
X94092569Y-119468500D01*
X94314635Y-119431444D01*
X94527574Y-119358342D01*
X94725576Y-119251189D01*
X94903240Y-119112906D01*
X95055722Y-118947268D01*
X95055927Y-118946955D01*
X95144816Y-118810899D01*
X95178860Y-118758791D01*
X95269296Y-118552616D01*
X95324564Y-118334368D01*
X95343156Y-118110000D01*
X95324564Y-117885632D01*
X95269338Y-117667550D01*
X95269297Y-117667387D01*
X95269296Y-117667386D01*
X95269296Y-117667384D01*
X95178860Y-117461209D01*
X95144816Y-117409100D01*
X95055724Y-117272734D01*
X95055720Y-117272729D01*
X94939570Y-117146559D01*
X94903240Y-117107094D01*
X94903239Y-117107093D01*
X94903237Y-117107091D01*
X94783367Y-117013792D01*
X94725576Y-116968811D01*
X94692319Y-116950813D01*
X94641929Y-116900802D01*
X94626576Y-116831485D01*
X94651136Y-116764872D01*
X94692320Y-116729186D01*
X94725576Y-116711189D01*
X94903240Y-116572906D01*
X95055722Y-116407268D01*
X95055927Y-116406955D01*
X95062441Y-116396983D01*
X95178860Y-116218791D01*
X95269296Y-116012616D01*
X95309463Y-115854000D01*
X97802000Y-115854000D01*
X97802000Y-116148597D01*
X97808505Y-116209093D01*
X97859555Y-116345964D01*
X97859555Y-116345965D01*
X97947095Y-116462904D01*
X98064034Y-116550444D01*
X98200906Y-116601494D01*
X98261402Y-116607999D01*
X98261415Y-116608000D01*
X98806000Y-116608000D01*
X98806000Y-115854000D01*
X97802000Y-115854000D01*
X95309463Y-115854000D01*
X95324564Y-115794368D01*
X95343156Y-115570000D01*
X95324564Y-115345632D01*
X95303679Y-115263158D01*
X95269297Y-115127387D01*
X95269296Y-115127386D01*
X95269296Y-115127384D01*
X95178860Y-114921209D01*
X95138665Y-114859686D01*
X95055724Y-114732734D01*
X95055720Y-114732729D01*
X94925620Y-114591405D01*
X94903240Y-114567094D01*
X94903239Y-114567093D01*
X94903237Y-114567091D01*
X94809122Y-114493838D01*
X94725576Y-114428811D01*
X94692319Y-114410813D01*
X94641929Y-114360802D01*
X94626576Y-114291485D01*
X94651136Y-114224872D01*
X94692320Y-114189186D01*
X94725576Y-114171189D01*
X94903240Y-114032906D01*
X95055722Y-113867268D01*
X95055927Y-113866955D01*
X95062441Y-113856983D01*
X95178860Y-113678791D01*
X95269296Y-113472616D01*
X95324564Y-113254368D01*
X95343156Y-113030000D01*
X95324564Y-112805632D01*
X95316286Y-112772943D01*
X95269297Y-112587387D01*
X95269296Y-112587386D01*
X95269296Y-112587384D01*
X95178860Y-112381209D01*
X95144816Y-112329100D01*
X95055724Y-112192734D01*
X95055720Y-112192729D01*
X94921047Y-112046437D01*
X94903240Y-112027094D01*
X94903239Y-112027093D01*
X94903237Y-112027091D01*
X94798995Y-111945956D01*
X94725576Y-111888811D01*
X94692319Y-111870813D01*
X94641929Y-111820802D01*
X94626576Y-111751485D01*
X94651136Y-111684872D01*
X94692320Y-111649186D01*
X94725576Y-111631189D01*
X94903240Y-111492906D01*
X95055722Y-111327268D01*
X95055927Y-111326955D01*
X95144816Y-111190899D01*
X95178860Y-111138791D01*
X95269296Y-110932616D01*
X95324564Y-110714368D01*
X95343156Y-110490000D01*
X95324564Y-110265632D01*
X95297388Y-110158318D01*
X95300054Y-110087374D01*
X95330435Y-110038295D01*
X97426780Y-107941950D01*
X97451731Y-107922596D01*
X97467732Y-107913134D01*
X97482119Y-107898746D01*
X97497159Y-107885902D01*
X97513613Y-107873948D01*
X97513613Y-107873947D01*
X97513621Y-107873942D01*
X97541918Y-107839735D01*
X97549886Y-107830978D01*
X97955406Y-107425459D01*
X98017717Y-107391435D01*
X98088533Y-107396500D01*
X98145368Y-107439047D01*
X98170179Y-107505567D01*
X98170500Y-107514556D01*
X98170500Y-110380233D01*
X98150498Y-110448354D01*
X98133595Y-110469328D01*
X98130701Y-110472221D01*
X98130692Y-110472232D01*
X98009412Y-110645438D01*
X97920045Y-110837087D01*
X97920043Y-110837091D01*
X97894448Y-110932616D01*
X97865314Y-111041345D01*
X97846884Y-111252000D01*
X97865314Y-111462655D01*
X97894643Y-111572113D01*
X97915294Y-111649186D01*
X97920044Y-111666910D01*
X97928419Y-111684871D01*
X98009410Y-111858557D01*
X98045642Y-111910302D01*
X98068329Y-111977576D01*
X98051043Y-112046437D01*
X98017937Y-112083440D01*
X97946738Y-112136738D01*
X97859112Y-112253792D01*
X97859110Y-112253797D01*
X97808011Y-112390795D01*
X97808009Y-112390803D01*
X97801500Y-112451350D01*
X97801500Y-113548649D01*
X97808009Y-113609195D01*
X97809823Y-113616867D01*
X97807624Y-113617386D01*
X97811866Y-113676799D01*
X97809068Y-113686327D01*
X97808009Y-113690804D01*
X97801500Y-113751350D01*
X97801500Y-114848649D01*
X97808009Y-114909195D01*
X97809823Y-114916867D01*
X97807834Y-114917336D01*
X97812135Y-114977505D01*
X97809759Y-114985599D01*
X97808505Y-114990903D01*
X97802000Y-115051402D01*
X97802000Y-115346000D01*
X99188000Y-115346000D01*
X99256121Y-115366002D01*
X99302614Y-115419658D01*
X99314000Y-115472000D01*
X99314000Y-116608000D01*
X99858585Y-116608000D01*
X99858597Y-116607999D01*
X99919093Y-116601494D01*
X100055964Y-116550444D01*
X100055965Y-116550444D01*
X100172904Y-116462904D01*
X100260443Y-116345966D01*
X100261412Y-116344192D01*
X100262843Y-116342760D01*
X100265847Y-116338748D01*
X100266423Y-116339179D01*
X100311610Y-116293985D01*
X100380982Y-116278887D01*
X100447505Y-116303692D01*
X100477488Y-116335651D01*
X100524279Y-116407270D01*
X100667475Y-116562820D01*
X100698896Y-116626485D01*
X100690909Y-116697031D01*
X100646051Y-116752060D01*
X100618807Y-116766213D01*
X100503797Y-116809110D01*
X100503792Y-116809112D01*
X100386738Y-116896738D01*
X100299112Y-117013792D01*
X100299110Y-117013797D01*
X100248011Y-117150795D01*
X100248009Y-117150803D01*
X100241500Y-117211350D01*
X100241500Y-119008649D01*
X100248009Y-119069196D01*
X100248011Y-119069204D01*
X100299110Y-119206202D01*
X100299112Y-119206207D01*
X100386738Y-119323261D01*
X100503792Y-119410887D01*
X100503794Y-119410888D01*
X100503796Y-119410889D01*
X100557600Y-119430957D01*
X100640795Y-119461988D01*
X100640803Y-119461990D01*
X100701350Y-119468499D01*
X100701355Y-119468499D01*
X100701362Y-119468500D01*
X100701368Y-119468500D01*
X102498632Y-119468500D01*
X102498638Y-119468500D01*
X102498645Y-119468499D01*
X102498649Y-119468499D01*
X102559196Y-119461990D01*
X102559199Y-119461989D01*
X102559201Y-119461989D01*
X102696204Y-119410889D01*
X102766399Y-119358342D01*
X102813261Y-119323261D01*
X102900887Y-119206207D01*
X102900887Y-119206206D01*
X102900889Y-119206204D01*
X102951989Y-119069201D01*
X102958500Y-119008638D01*
X102958500Y-118110000D01*
X107856844Y-118110000D01*
X107874232Y-118319844D01*
X107875437Y-118334375D01*
X107930702Y-118552612D01*
X107930703Y-118552613D01*
X107930704Y-118552616D01*
X108021140Y-118758791D01*
X108021141Y-118758793D01*
X108144275Y-118947265D01*
X108144279Y-118947270D01*
X108296762Y-119112908D01*
X108351331Y-119155381D01*
X108474424Y-119251189D01*
X108672426Y-119358342D01*
X108672427Y-119358342D01*
X108672428Y-119358343D01*
X108784227Y-119396723D01*
X108885365Y-119431444D01*
X109107431Y-119468500D01*
X109107435Y-119468500D01*
X109332565Y-119468500D01*
X109332569Y-119468500D01*
X109554635Y-119431444D01*
X109767574Y-119358342D01*
X109965576Y-119251189D01*
X110143240Y-119112906D01*
X110295722Y-118947268D01*
X110295927Y-118946955D01*
X110384816Y-118810899D01*
X110418860Y-118758791D01*
X110509296Y-118552616D01*
X110564564Y-118334368D01*
X110583156Y-118110000D01*
X110564564Y-117885632D01*
X110509338Y-117667550D01*
X110509297Y-117667387D01*
X110509296Y-117667386D01*
X110509296Y-117667384D01*
X110418860Y-117461209D01*
X110384816Y-117409100D01*
X110295724Y-117272734D01*
X110295720Y-117272729D01*
X110179570Y-117146559D01*
X110143240Y-117107094D01*
X110143239Y-117107093D01*
X110143237Y-117107091D01*
X110023367Y-117013792D01*
X109965576Y-116968811D01*
X109932319Y-116950813D01*
X109881929Y-116900802D01*
X109866576Y-116831485D01*
X109891136Y-116764872D01*
X109932320Y-116729186D01*
X109965576Y-116711189D01*
X110143240Y-116572906D01*
X110295722Y-116407268D01*
X110295927Y-116406955D01*
X110302441Y-116396983D01*
X110418860Y-116218791D01*
X110509296Y-116012616D01*
X110564564Y-115794368D01*
X110583156Y-115570000D01*
X110564564Y-115345632D01*
X110543679Y-115263158D01*
X110509297Y-115127387D01*
X110509296Y-115127386D01*
X110509296Y-115127384D01*
X110418860Y-114921209D01*
X110378665Y-114859686D01*
X110295724Y-114732734D01*
X110295714Y-114732722D01*
X110152159Y-114576782D01*
X110120737Y-114513117D01*
X110128723Y-114442571D01*
X110173582Y-114387542D01*
X110200827Y-114373388D01*
X110315965Y-114330444D01*
X110432904Y-114242904D01*
X110520444Y-114125965D01*
X110520444Y-114125964D01*
X110571494Y-113989093D01*
X110577999Y-113928597D01*
X110578000Y-113928585D01*
X110578000Y-113284000D01*
X109651116Y-113284000D01*
X109679493Y-113239844D01*
X109720000Y-113101889D01*
X109720000Y-112958111D01*
X109679493Y-112820156D01*
X109651116Y-112776000D01*
X110578000Y-112776000D01*
X110578000Y-112131414D01*
X110577999Y-112131402D01*
X110571494Y-112070906D01*
X110520444Y-111934035D01*
X110520444Y-111934034D01*
X110432904Y-111817095D01*
X110315965Y-111729555D01*
X110179093Y-111678505D01*
X110118597Y-111672000D01*
X109474000Y-111672000D01*
X109474000Y-112596325D01*
X109362315Y-112545320D01*
X109255763Y-112530000D01*
X109184237Y-112530000D01*
X109077685Y-112545320D01*
X108966000Y-112596325D01*
X108966000Y-111672000D01*
X108321402Y-111672000D01*
X108260906Y-111678505D01*
X108124035Y-111729555D01*
X108124034Y-111729555D01*
X108007095Y-111817095D01*
X107919555Y-111934034D01*
X107919555Y-111934035D01*
X107868505Y-112070906D01*
X107862000Y-112131402D01*
X107862000Y-112776000D01*
X108788884Y-112776000D01*
X108760507Y-112820156D01*
X108720000Y-112958111D01*
X108720000Y-113101889D01*
X108760507Y-113239844D01*
X108788884Y-113284000D01*
X107862000Y-113284000D01*
X107862000Y-113928597D01*
X107868505Y-113989093D01*
X107919555Y-114125964D01*
X107919555Y-114125965D01*
X108007095Y-114242904D01*
X108124034Y-114330444D01*
X108239172Y-114373388D01*
X108296008Y-114415935D01*
X108320819Y-114482455D01*
X108305728Y-114551829D01*
X108287841Y-114576782D01*
X108144280Y-114732729D01*
X108144275Y-114732734D01*
X108021141Y-114921206D01*
X107930703Y-115127386D01*
X107930702Y-115127387D01*
X107875437Y-115345624D01*
X107875436Y-115345630D01*
X107875436Y-115345632D01*
X107856844Y-115570000D01*
X107874232Y-115779844D01*
X107875437Y-115794375D01*
X107930702Y-116012612D01*
X107930703Y-116012613D01*
X107930704Y-116012616D01*
X108021140Y-116218791D01*
X108021141Y-116218793D01*
X108144275Y-116407265D01*
X108144279Y-116407270D01*
X108296762Y-116572908D01*
X108333489Y-116601494D01*
X108474424Y-116711189D01*
X108507680Y-116729186D01*
X108558071Y-116779200D01*
X108573423Y-116848516D01*
X108548862Y-116915129D01*
X108507680Y-116950813D01*
X108474426Y-116968810D01*
X108474424Y-116968811D01*
X108296762Y-117107091D01*
X108144279Y-117272729D01*
X108144275Y-117272734D01*
X108021141Y-117461206D01*
X107930703Y-117667386D01*
X107930702Y-117667387D01*
X107875437Y-117885624D01*
X107875436Y-117885630D01*
X107875436Y-117885632D01*
X107856844Y-118110000D01*
X102958500Y-118110000D01*
X102958500Y-117211362D01*
X102958499Y-117211350D01*
X102951990Y-117150803D01*
X102951988Y-117150795D01*
X102900889Y-117013797D01*
X102900887Y-117013792D01*
X102813261Y-116896738D01*
X102696207Y-116809112D01*
X102696203Y-116809110D01*
X102581192Y-116766213D01*
X102524356Y-116723667D01*
X102499546Y-116657146D01*
X102514638Y-116587772D01*
X102532525Y-116562820D01*
X102675714Y-116407277D01*
X102675724Y-116407265D01*
X102682441Y-116396983D01*
X102798860Y-116218791D01*
X102889296Y-116012616D01*
X102929463Y-115854000D01*
X104152000Y-115854000D01*
X104152000Y-116148597D01*
X104158505Y-116209093D01*
X104209555Y-116345964D01*
X104209555Y-116345965D01*
X104297095Y-116462904D01*
X104414034Y-116550444D01*
X104550906Y-116601494D01*
X104611402Y-116607999D01*
X104611415Y-116608000D01*
X105156000Y-116608000D01*
X105156000Y-115854000D01*
X105664000Y-115854000D01*
X105664000Y-116608000D01*
X106208585Y-116608000D01*
X106208597Y-116607999D01*
X106269093Y-116601494D01*
X106405964Y-116550444D01*
X106405965Y-116550444D01*
X106522904Y-116462904D01*
X106610444Y-116345965D01*
X106610444Y-116345964D01*
X106661494Y-116209093D01*
X106667999Y-116148597D01*
X106668000Y-116148585D01*
X106668000Y-115854000D01*
X105664000Y-115854000D01*
X105156000Y-115854000D01*
X104152000Y-115854000D01*
X102929463Y-115854000D01*
X102944564Y-115794368D01*
X102963156Y-115570000D01*
X102944564Y-115345632D01*
X102944562Y-115345624D01*
X102944562Y-115345620D01*
X102943706Y-115340487D01*
X102944998Y-115340271D01*
X102947434Y-115275485D01*
X102988035Y-115217243D01*
X103053678Y-115190197D01*
X103066911Y-115189500D01*
X104026000Y-115189500D01*
X104094121Y-115209502D01*
X104140614Y-115263158D01*
X104152000Y-115315500D01*
X104152000Y-115346000D01*
X106668000Y-115346000D01*
X106668000Y-115051414D01*
X106667999Y-115051402D01*
X106661494Y-114990906D01*
X106659681Y-114983231D01*
X106662068Y-114982666D01*
X106657857Y-114923960D01*
X106661158Y-114912714D01*
X106661988Y-114909203D01*
X106661987Y-114909203D01*
X106661989Y-114909201D01*
X106668500Y-114848638D01*
X106668500Y-113751362D01*
X106661989Y-113690799D01*
X106661989Y-113690798D01*
X106660177Y-113683129D01*
X106662379Y-113682608D01*
X106658130Y-113623220D01*
X106660930Y-113613682D01*
X106661989Y-113609201D01*
X106668499Y-113548649D01*
X106668500Y-113548632D01*
X106668500Y-112451367D01*
X106668499Y-112451350D01*
X106661990Y-112390803D01*
X106661988Y-112390795D01*
X106622794Y-112285715D01*
X106610889Y-112253796D01*
X106610888Y-112253794D01*
X106610887Y-112253792D01*
X106523261Y-112136738D01*
X106452061Y-112083439D01*
X106409514Y-112026603D01*
X106404449Y-111955788D01*
X106424354Y-111910305D01*
X106460589Y-111858558D01*
X106549956Y-111666910D01*
X106604686Y-111462655D01*
X106623116Y-111252000D01*
X106604686Y-111041345D01*
X106549956Y-110837090D01*
X106460589Y-110645442D01*
X106460588Y-110645441D01*
X106460587Y-110645438D01*
X106339307Y-110472232D01*
X106339304Y-110472228D01*
X106339301Y-110472224D01*
X106189776Y-110322699D01*
X106189772Y-110322696D01*
X106189767Y-110322692D01*
X106016561Y-110201412D01*
X105824912Y-110112045D01*
X105824908Y-110112043D01*
X105730113Y-110086643D01*
X105620655Y-110057314D01*
X105410000Y-110038884D01*
X105199345Y-110057314D01*
X105144616Y-110071978D01*
X104995091Y-110112043D01*
X104995087Y-110112045D01*
X104803438Y-110201412D01*
X104630232Y-110322692D01*
X104630221Y-110322701D01*
X104480701Y-110472221D01*
X104480692Y-110472232D01*
X104359412Y-110645438D01*
X104270045Y-110837087D01*
X104270043Y-110837091D01*
X104244448Y-110932616D01*
X104215314Y-111041345D01*
X104196884Y-111252000D01*
X104215314Y-111462655D01*
X104244643Y-111572113D01*
X104265294Y-111649186D01*
X104270044Y-111666910D01*
X104278419Y-111684871D01*
X104359410Y-111858557D01*
X104395642Y-111910302D01*
X104418329Y-111977576D01*
X104401043Y-112046437D01*
X104367937Y-112083440D01*
X104296738Y-112136738D01*
X104209112Y-112253792D01*
X104209110Y-112253797D01*
X104158011Y-112390795D01*
X104158009Y-112390803D01*
X104151500Y-112451350D01*
X104151500Y-113284500D01*
X104131498Y-113352621D01*
X104077842Y-113399114D01*
X104025500Y-113410500D01*
X103290633Y-113410500D01*
X103222512Y-113390498D01*
X103201538Y-113373595D01*
X102996402Y-113168459D01*
X102962376Y-113106147D01*
X102959927Y-113068958D01*
X102963156Y-113030000D01*
X102944564Y-112805632D01*
X102936286Y-112772943D01*
X102889297Y-112587387D01*
X102889296Y-112587386D01*
X102889296Y-112587384D01*
X102798860Y-112381209D01*
X102764816Y-112329100D01*
X102675724Y-112192734D01*
X102675720Y-112192729D01*
X102541047Y-112046437D01*
X102523240Y-112027094D01*
X102523239Y-112027093D01*
X102523237Y-112027091D01*
X102418995Y-111945956D01*
X102345576Y-111888811D01*
X102147574Y-111781658D01*
X102147572Y-111781657D01*
X102147571Y-111781656D01*
X101934639Y-111708557D01*
X101934630Y-111708555D01*
X101878567Y-111699200D01*
X101712569Y-111671500D01*
X101487431Y-111671500D01*
X101339211Y-111696233D01*
X101265369Y-111708555D01*
X101265360Y-111708557D01*
X101052428Y-111781656D01*
X101052426Y-111781658D01*
X100854432Y-111888807D01*
X100854426Y-111888810D01*
X100854424Y-111888811D01*
X100676762Y-112027091D01*
X100524279Y-112192729D01*
X100524273Y-112192738D01*
X100477800Y-112263869D01*
X100423796Y-112309957D01*
X100353448Y-112319532D01*
X100289091Y-112289554D01*
X100261725Y-112255328D01*
X100260886Y-112253791D01*
X100173261Y-112136738D01*
X100102061Y-112083439D01*
X100059514Y-112026603D01*
X100054449Y-111955788D01*
X100074354Y-111910305D01*
X100110589Y-111858558D01*
X100199956Y-111666910D01*
X100254686Y-111462655D01*
X100273116Y-111252000D01*
X100254686Y-111041345D01*
X100199956Y-110837090D01*
X100110589Y-110645442D01*
X100110588Y-110645441D01*
X100110587Y-110645438D01*
X99989307Y-110472232D01*
X99989304Y-110472228D01*
X99989301Y-110472224D01*
X99986405Y-110469328D01*
X99952379Y-110407016D01*
X99949500Y-110380233D01*
X99949500Y-107950000D01*
X100236844Y-107950000D01*
X100254232Y-108159844D01*
X100255437Y-108174375D01*
X100310702Y-108392612D01*
X100310703Y-108392613D01*
X100310704Y-108392616D01*
X100401140Y-108598791D01*
X100401141Y-108598793D01*
X100524275Y-108787265D01*
X100524279Y-108787270D01*
X100676762Y-108952908D01*
X100728758Y-108993378D01*
X100854424Y-109091189D01*
X101052426Y-109198342D01*
X101052427Y-109198342D01*
X101052428Y-109198343D01*
X101115522Y-109220003D01*
X101265365Y-109271444D01*
X101487431Y-109308500D01*
X101487435Y-109308500D01*
X101712565Y-109308500D01*
X101712569Y-109308500D01*
X101934635Y-109271444D01*
X102147574Y-109198342D01*
X102345576Y-109091189D01*
X102523240Y-108952906D01*
X102675722Y-108787268D01*
X102675927Y-108786955D01*
X102686419Y-108770895D01*
X102798860Y-108598791D01*
X102889296Y-108392616D01*
X102944564Y-108174368D01*
X102963156Y-107950000D01*
X105316844Y-107950000D01*
X105334232Y-108159844D01*
X105335437Y-108174375D01*
X105390702Y-108392612D01*
X105390703Y-108392613D01*
X105390704Y-108392616D01*
X105481140Y-108598791D01*
X105481141Y-108598793D01*
X105604275Y-108787265D01*
X105604279Y-108787270D01*
X105756762Y-108952908D01*
X105808758Y-108993378D01*
X105934424Y-109091189D01*
X106132426Y-109198342D01*
X106132427Y-109198342D01*
X106132428Y-109198343D01*
X106195522Y-109220003D01*
X106345365Y-109271444D01*
X106567431Y-109308500D01*
X106567435Y-109308500D01*
X106792565Y-109308500D01*
X106792569Y-109308500D01*
X107014635Y-109271444D01*
X107227574Y-109198342D01*
X107425576Y-109091189D01*
X107603240Y-108952906D01*
X107699264Y-108848597D01*
X112942000Y-108848597D01*
X112948505Y-108909093D01*
X112999555Y-109045964D01*
X112999555Y-109045965D01*
X113087095Y-109162904D01*
X113204034Y-109250444D01*
X113340906Y-109301494D01*
X113401402Y-109307999D01*
X113401415Y-109308000D01*
X114046000Y-109308000D01*
X114046000Y-108383674D01*
X114157685Y-108434680D01*
X114264237Y-108450000D01*
X114335763Y-108450000D01*
X114442315Y-108434680D01*
X114554000Y-108383674D01*
X114554000Y-109308000D01*
X115198585Y-109308000D01*
X115198597Y-109307999D01*
X115259093Y-109301494D01*
X115395964Y-109250444D01*
X115395965Y-109250444D01*
X115512904Y-109162904D01*
X115600444Y-109045965D01*
X115600444Y-109045964D01*
X115651494Y-108909093D01*
X115657999Y-108848597D01*
X115658000Y-108848585D01*
X115658000Y-108204000D01*
X114731116Y-108204000D01*
X114759493Y-108159844D01*
X114800000Y-108021889D01*
X114800000Y-107878111D01*
X114759493Y-107740156D01*
X114731116Y-107696000D01*
X115658000Y-107696000D01*
X115658000Y-107051414D01*
X115657999Y-107051402D01*
X115651494Y-106990906D01*
X115600444Y-106854035D01*
X115600444Y-106854034D01*
X115512904Y-106737095D01*
X115395966Y-106649556D01*
X115280321Y-106606423D01*
X115223486Y-106563876D01*
X115198675Y-106497356D01*
X115213766Y-106427982D01*
X115231653Y-106403030D01*
X115375323Y-106246961D01*
X115498419Y-106058548D01*
X115588820Y-105852456D01*
X115588823Y-105852449D01*
X115636544Y-105664000D01*
X114731116Y-105664000D01*
X114759493Y-105619844D01*
X114800000Y-105481889D01*
X114800000Y-105338111D01*
X114759493Y-105200156D01*
X114731116Y-105156000D01*
X115636544Y-105156000D01*
X115636544Y-105155999D01*
X115588823Y-104967550D01*
X115588820Y-104967543D01*
X115498419Y-104761451D01*
X115375325Y-104573041D01*
X115222902Y-104407465D01*
X115045301Y-104269232D01*
X115045300Y-104269231D01*
X114847371Y-104162117D01*
X114847369Y-104162116D01*
X114634512Y-104089043D01*
X114634501Y-104089040D01*
X114554000Y-104075606D01*
X114554000Y-104976325D01*
X114442315Y-104925320D01*
X114335763Y-104910000D01*
X114264237Y-104910000D01*
X114157685Y-104925320D01*
X114046000Y-104976325D01*
X114046000Y-104075607D01*
X114045999Y-104075606D01*
X113965498Y-104089040D01*
X113965487Y-104089043D01*
X113752630Y-104162116D01*
X113752628Y-104162117D01*
X113554699Y-104269231D01*
X113554698Y-104269232D01*
X113377097Y-104407465D01*
X113224674Y-104573041D01*
X113101580Y-104761451D01*
X113011179Y-104967543D01*
X113011176Y-104967550D01*
X112963455Y-105155999D01*
X112963456Y-105156000D01*
X113868884Y-105156000D01*
X113840507Y-105200156D01*
X113800000Y-105338111D01*
X113800000Y-105481889D01*
X113840507Y-105619844D01*
X113868884Y-105664000D01*
X112963455Y-105664000D01*
X113011176Y-105852449D01*
X113011179Y-105852456D01*
X113101580Y-106058548D01*
X113224674Y-106246958D01*
X113368347Y-106403030D01*
X113399767Y-106466695D01*
X113391780Y-106537241D01*
X113346920Y-106592270D01*
X113319678Y-106606423D01*
X113204033Y-106649556D01*
X113087095Y-106737095D01*
X112999555Y-106854034D01*
X112999555Y-106854035D01*
X112948505Y-106990906D01*
X112942000Y-107051402D01*
X112942000Y-107696000D01*
X113868884Y-107696000D01*
X113840507Y-107740156D01*
X113800000Y-107878111D01*
X113800000Y-108021889D01*
X113840507Y-108159844D01*
X113868884Y-108204000D01*
X112942000Y-108204000D01*
X112942000Y-108848597D01*
X107699264Y-108848597D01*
X107755722Y-108787268D01*
X107755927Y-108786955D01*
X107766419Y-108770895D01*
X107878860Y-108598791D01*
X107969296Y-108392616D01*
X108024564Y-108174368D01*
X108043156Y-107950000D01*
X108024564Y-107725632D01*
X108002822Y-107639773D01*
X107969297Y-107507387D01*
X107969296Y-107507386D01*
X107969296Y-107507384D01*
X107878860Y-107301209D01*
X107857408Y-107268374D01*
X107755724Y-107112734D01*
X107755719Y-107112729D01*
X107727609Y-107082194D01*
X107612524Y-106957179D01*
X107581103Y-106893514D01*
X107589090Y-106822968D01*
X107633948Y-106767939D01*
X107661183Y-106753789D01*
X107776204Y-106710889D01*
X107804129Y-106689985D01*
X107893261Y-106623261D01*
X107980887Y-106506207D01*
X107980887Y-106506206D01*
X107980889Y-106506204D01*
X108031989Y-106369201D01*
X108038500Y-106308638D01*
X108038500Y-104511362D01*
X108037440Y-104501500D01*
X108031990Y-104450803D01*
X108031988Y-104450795D01*
X107989805Y-104337701D01*
X107980889Y-104313796D01*
X107980888Y-104313794D01*
X107980887Y-104313792D01*
X107893261Y-104196738D01*
X107776207Y-104109112D01*
X107776202Y-104109110D01*
X107639204Y-104058011D01*
X107639196Y-104058009D01*
X107578649Y-104051500D01*
X107578638Y-104051500D01*
X105781362Y-104051500D01*
X105781350Y-104051500D01*
X105720803Y-104058009D01*
X105720795Y-104058011D01*
X105583797Y-104109110D01*
X105583792Y-104109112D01*
X105466738Y-104196738D01*
X105379112Y-104313792D01*
X105379110Y-104313797D01*
X105328011Y-104450795D01*
X105328009Y-104450803D01*
X105321500Y-104511350D01*
X105321500Y-106308649D01*
X105328009Y-106369196D01*
X105328011Y-106369204D01*
X105379110Y-106506202D01*
X105379112Y-106506207D01*
X105466738Y-106623261D01*
X105583791Y-106710886D01*
X105583792Y-106710886D01*
X105583796Y-106710889D01*
X105698810Y-106753787D01*
X105755642Y-106796332D01*
X105780453Y-106862852D01*
X105765362Y-106932226D01*
X105747475Y-106957179D01*
X105604280Y-107112729D01*
X105604275Y-107112734D01*
X105481141Y-107301206D01*
X105390703Y-107507386D01*
X105390702Y-107507387D01*
X105335437Y-107725624D01*
X105335436Y-107725630D01*
X105335436Y-107725632D01*
X105316844Y-107950000D01*
X102963156Y-107950000D01*
X102944564Y-107725632D01*
X102922822Y-107639773D01*
X102889297Y-107507387D01*
X102889296Y-107507386D01*
X102889296Y-107507384D01*
X102798860Y-107301209D01*
X102777408Y-107268374D01*
X102675724Y-107112734D01*
X102675719Y-107112729D01*
X102647609Y-107082194D01*
X102532524Y-106957179D01*
X102501103Y-106893514D01*
X102509090Y-106822968D01*
X102553948Y-106767939D01*
X102581183Y-106753789D01*
X102696204Y-106710889D01*
X102724129Y-106689985D01*
X102813261Y-106623261D01*
X102900887Y-106506207D01*
X102900887Y-106506206D01*
X102900889Y-106506204D01*
X102951989Y-106369201D01*
X102958500Y-106308638D01*
X102958500Y-104511362D01*
X102957440Y-104501500D01*
X102951990Y-104450803D01*
X102951988Y-104450795D01*
X102909805Y-104337701D01*
X102900889Y-104313796D01*
X102900888Y-104313794D01*
X102900887Y-104313792D01*
X102813261Y-104196738D01*
X102696207Y-104109112D01*
X102696202Y-104109110D01*
X102559204Y-104058011D01*
X102559196Y-104058009D01*
X102498649Y-104051500D01*
X102498638Y-104051500D01*
X100701362Y-104051500D01*
X100701350Y-104051500D01*
X100640803Y-104058009D01*
X100640795Y-104058011D01*
X100503797Y-104109110D01*
X100503792Y-104109112D01*
X100386738Y-104196738D01*
X100299112Y-104313792D01*
X100299110Y-104313797D01*
X100248011Y-104450795D01*
X100248009Y-104450803D01*
X100241500Y-104511350D01*
X100241500Y-106308649D01*
X100248009Y-106369196D01*
X100248011Y-106369204D01*
X100299110Y-106506202D01*
X100299112Y-106506207D01*
X100386738Y-106623261D01*
X100503791Y-106710886D01*
X100503792Y-106710886D01*
X100503796Y-106710889D01*
X100618810Y-106753787D01*
X100675642Y-106796332D01*
X100700453Y-106862852D01*
X100685362Y-106932226D01*
X100667475Y-106957179D01*
X100524280Y-107112729D01*
X100524275Y-107112734D01*
X100401141Y-107301206D01*
X100310703Y-107507386D01*
X100310702Y-107507387D01*
X100255437Y-107725624D01*
X100255436Y-107725630D01*
X100255436Y-107725632D01*
X100236844Y-107950000D01*
X99949500Y-107950000D01*
X99949500Y-98377924D01*
X99951051Y-98358212D01*
X99953174Y-98344807D01*
X99949673Y-98278000D01*
X99949500Y-98271406D01*
X99949500Y-98251387D01*
X99949500Y-98251380D01*
X99947406Y-98231471D01*
X99946889Y-98224890D01*
X99943390Y-98158094D01*
X99943389Y-98158091D01*
X99943389Y-98158085D01*
X99939874Y-98144969D01*
X99936272Y-98125529D01*
X99934855Y-98112046D01*
X99934855Y-98112044D01*
X99914173Y-98048394D01*
X99912309Y-98042098D01*
X99911329Y-98038439D01*
X99894994Y-97977476D01*
X99888830Y-97965379D01*
X99881270Y-97947126D01*
X99877075Y-97934215D01*
X99849356Y-97886204D01*
X99843619Y-97876267D01*
X99840471Y-97870469D01*
X99810108Y-97810877D01*
X99810105Y-97810872D01*
X99801570Y-97800333D01*
X99794468Y-97790000D01*
X100236844Y-97790000D01*
X100254232Y-97999844D01*
X100255437Y-98014375D01*
X100310702Y-98232612D01*
X100310703Y-98232613D01*
X100310704Y-98232616D01*
X100401140Y-98438791D01*
X100401141Y-98438793D01*
X100524275Y-98627265D01*
X100524278Y-98627268D01*
X100585710Y-98694000D01*
X100667475Y-98782820D01*
X100698896Y-98846485D01*
X100690909Y-98917031D01*
X100646051Y-98972060D01*
X100618807Y-98986213D01*
X100503797Y-99029110D01*
X100503792Y-99029112D01*
X100386738Y-99116738D01*
X100299112Y-99233792D01*
X100299110Y-99233797D01*
X100248011Y-99370795D01*
X100248009Y-99370803D01*
X100241500Y-99431350D01*
X100241500Y-101228649D01*
X100248009Y-101289196D01*
X100248011Y-101289204D01*
X100299110Y-101426202D01*
X100299112Y-101426207D01*
X100386738Y-101543261D01*
X100503792Y-101630887D01*
X100503794Y-101630888D01*
X100503796Y-101630889D01*
X100562875Y-101652924D01*
X100640795Y-101681988D01*
X100640803Y-101681990D01*
X100701350Y-101688499D01*
X100701355Y-101688499D01*
X100701362Y-101688500D01*
X100701368Y-101688500D01*
X102498632Y-101688500D01*
X102498638Y-101688500D01*
X102498645Y-101688499D01*
X102498649Y-101688499D01*
X102559196Y-101681990D01*
X102559199Y-101681989D01*
X102559201Y-101681989D01*
X102696204Y-101630889D01*
X102696799Y-101630444D01*
X102813261Y-101543261D01*
X102900887Y-101426207D01*
X102900887Y-101426206D01*
X102900889Y-101426204D01*
X102951989Y-101289201D01*
X102953473Y-101275405D01*
X102958499Y-101228649D01*
X102958500Y-101228632D01*
X102958500Y-99431367D01*
X102958499Y-99431350D01*
X102951990Y-99370803D01*
X102951988Y-99370795D01*
X102900978Y-99234035D01*
X102900889Y-99233796D01*
X102900888Y-99233794D01*
X102900887Y-99233792D01*
X102813261Y-99116738D01*
X102696207Y-99029112D01*
X102696203Y-99029110D01*
X102581192Y-98986213D01*
X102524356Y-98943667D01*
X102499546Y-98877146D01*
X102514638Y-98807772D01*
X102532525Y-98782820D01*
X102675714Y-98627277D01*
X102675724Y-98627265D01*
X102732296Y-98540675D01*
X102798860Y-98438791D01*
X102889296Y-98232616D01*
X102944564Y-98014368D01*
X102963156Y-97790000D01*
X105316844Y-97790000D01*
X105334232Y-97999844D01*
X105335437Y-98014375D01*
X105390702Y-98232612D01*
X105390703Y-98232613D01*
X105390704Y-98232616D01*
X105481140Y-98438791D01*
X105481141Y-98438793D01*
X105604275Y-98627265D01*
X105604279Y-98627270D01*
X105684016Y-98713886D01*
X105747475Y-98782820D01*
X105747841Y-98783217D01*
X105779262Y-98846882D01*
X105771276Y-98917428D01*
X105726417Y-98972457D01*
X105699173Y-98986610D01*
X105584039Y-99029553D01*
X105584034Y-99029555D01*
X105467095Y-99117095D01*
X105379555Y-99234034D01*
X105379555Y-99234035D01*
X105328505Y-99370906D01*
X105322000Y-99431402D01*
X105322000Y-100076000D01*
X106248884Y-100076000D01*
X106220507Y-100120156D01*
X106180000Y-100258111D01*
X106180000Y-100401889D01*
X106220507Y-100539844D01*
X106248884Y-100584000D01*
X105322000Y-100584000D01*
X105322000Y-101228597D01*
X105328505Y-101289093D01*
X105379555Y-101425964D01*
X105379555Y-101425965D01*
X105467095Y-101542904D01*
X105584034Y-101630444D01*
X105720906Y-101681494D01*
X105781402Y-101687999D01*
X105781415Y-101688000D01*
X106426000Y-101688000D01*
X106426000Y-100763674D01*
X106537685Y-100814680D01*
X106644237Y-100830000D01*
X106715763Y-100830000D01*
X106822315Y-100814680D01*
X106934000Y-100763674D01*
X106934000Y-101688000D01*
X107578585Y-101688000D01*
X107578597Y-101687999D01*
X107639093Y-101681494D01*
X107775964Y-101630444D01*
X107775965Y-101630444D01*
X107892904Y-101542904D01*
X107980444Y-101425965D01*
X107980444Y-101425964D01*
X108031494Y-101289093D01*
X108037999Y-101228597D01*
X108038000Y-101228585D01*
X108038000Y-100584000D01*
X107111116Y-100584000D01*
X107139493Y-100539844D01*
X107180000Y-100401889D01*
X107180000Y-100258111D01*
X107139493Y-100120156D01*
X107111116Y-100076000D01*
X108038000Y-100076000D01*
X108038000Y-99431414D01*
X108037999Y-99431402D01*
X108031494Y-99370906D01*
X107980444Y-99234035D01*
X107980444Y-99234034D01*
X107892904Y-99117095D01*
X107775966Y-99029556D01*
X107660826Y-98986611D01*
X107603991Y-98944064D01*
X107579180Y-98877543D01*
X107594272Y-98808169D01*
X107612154Y-98783222D01*
X107755722Y-98627268D01*
X107878860Y-98438791D01*
X107969296Y-98232616D01*
X108024564Y-98014368D01*
X108043156Y-97790000D01*
X112936844Y-97790000D01*
X112954232Y-97999844D01*
X112955437Y-98014375D01*
X113010702Y-98232612D01*
X113010703Y-98232613D01*
X113010704Y-98232616D01*
X113101140Y-98438791D01*
X113101141Y-98438793D01*
X113224275Y-98627265D01*
X113224279Y-98627270D01*
X113376762Y-98792908D01*
X113422491Y-98828500D01*
X113554424Y-98931189D01*
X113752426Y-99038342D01*
X113752427Y-99038342D01*
X113752428Y-99038343D01*
X113840326Y-99068518D01*
X113965365Y-99111444D01*
X114187431Y-99148500D01*
X114187435Y-99148500D01*
X114412565Y-99148500D01*
X114412569Y-99148500D01*
X114634635Y-99111444D01*
X114847574Y-99038342D01*
X115045576Y-98931189D01*
X115223240Y-98792906D01*
X115375722Y-98627268D01*
X115398073Y-98593058D01*
X115470248Y-98482585D01*
X115524251Y-98436496D01*
X115575731Y-98425500D01*
X115889578Y-98425500D01*
X115957699Y-98445502D01*
X115978673Y-98462405D01*
X118653366Y-101137099D01*
X118687392Y-101199411D01*
X118686416Y-101257124D01*
X118656976Y-101373382D01*
X118647380Y-101489187D01*
X118638198Y-101600000D01*
X118651824Y-101764443D01*
X118656977Y-101826621D01*
X118712795Y-102047043D01*
X118712798Y-102047050D01*
X118804138Y-102255284D01*
X118916680Y-102427543D01*
X118928510Y-102445649D01*
X119082517Y-102612946D01*
X119261961Y-102752612D01*
X119261963Y-102752613D01*
X119261966Y-102752615D01*
X119274110Y-102759187D01*
X119324500Y-102809200D01*
X119339852Y-102878517D01*
X119315291Y-102945130D01*
X119274110Y-102980813D01*
X119261966Y-102987384D01*
X119261960Y-102987388D01*
X119082514Y-103127056D01*
X118928507Y-103294354D01*
X118804138Y-103484715D01*
X118712798Y-103692949D01*
X118712795Y-103692956D01*
X118656977Y-103913378D01*
X118656976Y-103913384D01*
X118656976Y-103913386D01*
X118638198Y-104140000D01*
X118654580Y-104337701D01*
X118656977Y-104366621D01*
X118712795Y-104587043D01*
X118712798Y-104587050D01*
X118804138Y-104795284D01*
X118916680Y-104967543D01*
X118928510Y-104985649D01*
X119082517Y-105152946D01*
X119261961Y-105292612D01*
X119261963Y-105292613D01*
X119261966Y-105292615D01*
X119274110Y-105299187D01*
X119324500Y-105349200D01*
X119339852Y-105418517D01*
X119315291Y-105485130D01*
X119274110Y-105520813D01*
X119261966Y-105527384D01*
X119261960Y-105527388D01*
X119082514Y-105667056D01*
X118928507Y-105834354D01*
X118804138Y-106024715D01*
X118712798Y-106232949D01*
X118712795Y-106232956D01*
X118656977Y-106453378D01*
X118656976Y-106453384D01*
X118656976Y-106453386D01*
X118638198Y-106680000D01*
X118655890Y-106893514D01*
X118656977Y-106906621D01*
X118712795Y-107127043D01*
X118712798Y-107127050D01*
X118804138Y-107335284D01*
X118921262Y-107514556D01*
X118928510Y-107525649D01*
X119082517Y-107692946D01*
X119261961Y-107832612D01*
X119261963Y-107832613D01*
X119261966Y-107832615D01*
X119274110Y-107839187D01*
X119324500Y-107889200D01*
X119339852Y-107958517D01*
X119315291Y-108025130D01*
X119274110Y-108060813D01*
X119261966Y-108067384D01*
X119261960Y-108067388D01*
X119082514Y-108207056D01*
X118928507Y-108374354D01*
X118804138Y-108564715D01*
X118712798Y-108772949D01*
X118712795Y-108772956D01*
X118656977Y-108993378D01*
X118656976Y-108993384D01*
X118656976Y-108993386D01*
X118638198Y-109220000D01*
X118654580Y-109417701D01*
X118656977Y-109446621D01*
X118712795Y-109667043D01*
X118712798Y-109667050D01*
X118804138Y-109875284D01*
X118917115Y-110048209D01*
X118928510Y-110065649D01*
X119082517Y-110232946D01*
X119261961Y-110372612D01*
X119261963Y-110372613D01*
X119261966Y-110372615D01*
X119274110Y-110379187D01*
X119324500Y-110429200D01*
X119339852Y-110498517D01*
X119315291Y-110565130D01*
X119274110Y-110600813D01*
X119261966Y-110607384D01*
X119261960Y-110607388D01*
X119082514Y-110747056D01*
X118928507Y-110914354D01*
X118804138Y-111104715D01*
X118712798Y-111312949D01*
X118712795Y-111312956D01*
X118656977Y-111533378D01*
X118656976Y-111533384D01*
X118656976Y-111533386D01*
X118638198Y-111760000D01*
X118653607Y-111945960D01*
X118656977Y-111986621D01*
X118712795Y-112207043D01*
X118712798Y-112207050D01*
X118804138Y-112415284D01*
X118921548Y-112594994D01*
X118928510Y-112605649D01*
X119082517Y-112772946D01*
X119261961Y-112912612D01*
X119261963Y-112912613D01*
X119261966Y-112912615D01*
X119461941Y-113020837D01*
X119461947Y-113020840D01*
X119488627Y-113029999D01*
X119677015Y-113094672D01*
X119901305Y-113132100D01*
X119901309Y-113132100D01*
X120128691Y-113132100D01*
X120128695Y-113132100D01*
X120352985Y-113094672D01*
X120568055Y-113020839D01*
X120768039Y-112912612D01*
X120947483Y-112772946D01*
X120991286Y-112725362D01*
X121052137Y-112688792D01*
X121123101Y-112690925D01*
X121181647Y-112731085D01*
X121202042Y-112766667D01*
X121240510Y-112869802D01*
X121240512Y-112869807D01*
X121328138Y-112986861D01*
X121445192Y-113074487D01*
X121445194Y-113074488D01*
X121445196Y-113074489D01*
X121499303Y-113094670D01*
X121582195Y-113125588D01*
X121582203Y-113125590D01*
X121642750Y-113132099D01*
X121642755Y-113132099D01*
X121642762Y-113132100D01*
X121642768Y-113132100D01*
X123467232Y-113132100D01*
X123467238Y-113132100D01*
X123467245Y-113132099D01*
X123467249Y-113132099D01*
X123527796Y-113125590D01*
X123527799Y-113125589D01*
X123527801Y-113125589D01*
X123664804Y-113074489D01*
X123781861Y-112986861D01*
X123860968Y-112881186D01*
X123865897Y-112877496D01*
X123868356Y-112871879D01*
X123869486Y-112869806D01*
X123869489Y-112869804D01*
X123897975Y-112793432D01*
X123921087Y-112731467D01*
X123963634Y-112674631D01*
X124030154Y-112649821D01*
X124039142Y-112649500D01*
X124097233Y-112649500D01*
X124165354Y-112669502D01*
X124211847Y-112723158D01*
X124221951Y-112793432D01*
X124192457Y-112858012D01*
X124186328Y-112864595D01*
X124165701Y-112885221D01*
X124165696Y-112885227D01*
X124082157Y-113004534D01*
X124074799Y-113010415D01*
X124065050Y-113028964D01*
X124044411Y-113058440D01*
X123955045Y-113250087D01*
X123955043Y-113250091D01*
X123927571Y-113352621D01*
X123900314Y-113454345D01*
X123881884Y-113665000D01*
X123900314Y-113875655D01*
X123914497Y-113928585D01*
X123955043Y-114079908D01*
X123955045Y-114079912D01*
X124044412Y-114271561D01*
X124165692Y-114444767D01*
X124165696Y-114444772D01*
X124165699Y-114444776D01*
X124315224Y-114594301D01*
X124315228Y-114594304D01*
X124315232Y-114594307D01*
X124488438Y-114715587D01*
X124488441Y-114715588D01*
X124488442Y-114715589D01*
X124680090Y-114804956D01*
X124884345Y-114859686D01*
X125095000Y-114878116D01*
X125305655Y-114859686D01*
X125509910Y-114804956D01*
X125701558Y-114715589D01*
X125874776Y-114594301D01*
X125877672Y-114591405D01*
X125939984Y-114557379D01*
X125966767Y-114554500D01*
X132635075Y-114554500D01*
X132654785Y-114556050D01*
X132668190Y-114558174D01*
X132734999Y-114554672D01*
X132741593Y-114554500D01*
X132761612Y-114554500D01*
X132761620Y-114554500D01*
X132781578Y-114552401D01*
X132788041Y-114551892D01*
X132854915Y-114548389D01*
X132868020Y-114544876D01*
X132887471Y-114541272D01*
X132900956Y-114539855D01*
X132900958Y-114539854D01*
X132900960Y-114539854D01*
X132964573Y-114519184D01*
X132970902Y-114517309D01*
X133035520Y-114499995D01*
X133035519Y-114499995D01*
X133035524Y-114499994D01*
X133047613Y-114493833D01*
X133065877Y-114486268D01*
X133078785Y-114482075D01*
X133078788Y-114482073D01*
X133078789Y-114482073D01*
X133095329Y-114472522D01*
X133136729Y-114448619D01*
X133142489Y-114445491D01*
X133202125Y-114415107D01*
X133212671Y-114406565D01*
X133228959Y-114395371D01*
X133240715Y-114388585D01*
X133240718Y-114388581D01*
X133240720Y-114388581D01*
X133290427Y-114343824D01*
X133295434Y-114339545D01*
X133311006Y-114326937D01*
X133325178Y-114312763D01*
X133329949Y-114308237D01*
X133339098Y-114300000D01*
X133370683Y-114271561D01*
X133379664Y-114263475D01*
X133379665Y-114263473D01*
X133379669Y-114263470D01*
X133387654Y-114252478D01*
X133400483Y-114237458D01*
X135192458Y-112445483D01*
X135207478Y-112432654D01*
X135218470Y-112424669D01*
X135226920Y-112415285D01*
X135257601Y-112381209D01*
X135263241Y-112374943D01*
X135267763Y-112370178D01*
X135281937Y-112356006D01*
X135294545Y-112340434D01*
X135298824Y-112335427D01*
X135343581Y-112285720D01*
X135343581Y-112285718D01*
X135343585Y-112285715D01*
X135350371Y-112273959D01*
X135361565Y-112257671D01*
X135370107Y-112247125D01*
X135400491Y-112187489D01*
X135403619Y-112181729D01*
X135437075Y-112123785D01*
X135441268Y-112110877D01*
X135448833Y-112092613D01*
X135454994Y-112080524D01*
X135472309Y-112015899D01*
X135474184Y-112009573D01*
X135494854Y-111945960D01*
X135494855Y-111945954D01*
X135496272Y-111932471D01*
X135499877Y-111913020D01*
X135500605Y-111910302D01*
X135503389Y-111899915D01*
X135506892Y-111833041D01*
X135507401Y-111826578D01*
X135509500Y-111806620D01*
X135509500Y-111786593D01*
X135509673Y-111779998D01*
X135513174Y-111713190D01*
X135511051Y-111699784D01*
X135509500Y-111680074D01*
X135509500Y-107394924D01*
X135511051Y-107375212D01*
X135513174Y-107361807D01*
X135509673Y-107295000D01*
X135509500Y-107288406D01*
X135509500Y-107268387D01*
X135509500Y-107268380D01*
X135507406Y-107248471D01*
X135506889Y-107241890D01*
X135503390Y-107175094D01*
X135503389Y-107175091D01*
X135503389Y-107175085D01*
X135499874Y-107161969D01*
X135496272Y-107142529D01*
X135494855Y-107129046D01*
X135494855Y-107129044D01*
X135474173Y-107065394D01*
X135472309Y-107059098D01*
X135454994Y-106994476D01*
X135448830Y-106982379D01*
X135441270Y-106964126D01*
X135437075Y-106951215D01*
X135426112Y-106932226D01*
X135403619Y-106893267D01*
X135400471Y-106887469D01*
X135370108Y-106827877D01*
X135370105Y-106827872D01*
X135361570Y-106817333D01*
X135350368Y-106801034D01*
X135347653Y-106796332D01*
X135343585Y-106789285D01*
X135298806Y-106739552D01*
X135294543Y-106734561D01*
X135281935Y-106718992D01*
X135267762Y-106704819D01*
X135263237Y-106700050D01*
X135258017Y-106694253D01*
X135237517Y-106671485D01*
X135218472Y-106650333D01*
X135218471Y-106650332D01*
X135218470Y-106650331D01*
X135207483Y-106642348D01*
X135192452Y-106629509D01*
X134670488Y-106107545D01*
X134657646Y-106092509D01*
X134649669Y-106081530D01*
X134599938Y-106036751D01*
X134595154Y-106032210D01*
X134581013Y-106018069D01*
X134581007Y-106018064D01*
X134581006Y-106018063D01*
X134565444Y-106005460D01*
X134560434Y-106001182D01*
X134510715Y-105956415D01*
X134498961Y-105949629D01*
X134482667Y-105938430D01*
X134472123Y-105929891D01*
X134412520Y-105899523D01*
X134406739Y-105896385D01*
X134348785Y-105862925D01*
X134335872Y-105858729D01*
X134317613Y-105851165D01*
X134305524Y-105845006D01*
X134305521Y-105845005D01*
X134240906Y-105827691D01*
X134234582Y-105825818D01*
X134170957Y-105805144D01*
X134157463Y-105803726D01*
X134138033Y-105800125D01*
X134124919Y-105796611D01*
X134124908Y-105796610D01*
X134058112Y-105793110D01*
X134051534Y-105792593D01*
X134031623Y-105790500D01*
X134031620Y-105790500D01*
X134011593Y-105790500D01*
X134004999Y-105790327D01*
X134002793Y-105790211D01*
X133938191Y-105786825D01*
X133924786Y-105788949D01*
X133905075Y-105790500D01*
X133823348Y-105790500D01*
X133755227Y-105770498D01*
X133708734Y-105716842D01*
X133698630Y-105646568D01*
X133702773Y-105627927D01*
X133708909Y-105607697D01*
X133728380Y-105410003D01*
X133728380Y-105409996D01*
X133708909Y-105212305D01*
X133708908Y-105212303D01*
X133708908Y-105212299D01*
X133651241Y-105022196D01*
X133557595Y-104846996D01*
X133557587Y-104846987D01*
X133556265Y-104845007D01*
X133555887Y-104843801D01*
X133554677Y-104841537D01*
X133555106Y-104841307D01*
X133535047Y-104777256D01*
X133553827Y-104708788D01*
X133556265Y-104704993D01*
X133557584Y-104703017D01*
X133557595Y-104703004D01*
X133651241Y-104527804D01*
X133708908Y-104337701D01*
X133711263Y-104313797D01*
X133728380Y-104140003D01*
X133728380Y-104139996D01*
X133708909Y-103942305D01*
X133708908Y-103942303D01*
X133708908Y-103942299D01*
X133651241Y-103752196D01*
X133557595Y-103576996D01*
X133431568Y-103423432D01*
X133396564Y-103394705D01*
X133356597Y-103336028D01*
X133350500Y-103297307D01*
X133350500Y-102319075D01*
X133352252Y-102303202D01*
X133351963Y-102303175D01*
X133352709Y-102295282D01*
X133350562Y-102226968D01*
X133350500Y-102223010D01*
X133350500Y-102195020D01*
X133350500Y-102195017D01*
X133349991Y-102190994D01*
X133349058Y-102179148D01*
X133347665Y-102134795D01*
X133341984Y-102115243D01*
X133337977Y-102095895D01*
X133335427Y-102075701D01*
X133319089Y-102034437D01*
X133315251Y-102023227D01*
X133302869Y-101980607D01*
X133292508Y-101963088D01*
X133283812Y-101945336D01*
X133276320Y-101926415D01*
X133276319Y-101926412D01*
X133250233Y-101890508D01*
X133243720Y-101880593D01*
X133221135Y-101842402D01*
X133221133Y-101842400D01*
X133221133Y-101842399D01*
X133206746Y-101828012D01*
X133193905Y-101812978D01*
X133181942Y-101796513D01*
X133181941Y-101796511D01*
X133147750Y-101768227D01*
X133138969Y-101760236D01*
X132588815Y-101210082D01*
X132578831Y-101197620D01*
X132578607Y-101197806D01*
X132573554Y-101191698D01*
X132523734Y-101144914D01*
X132520890Y-101142157D01*
X132501099Y-101122365D01*
X132501096Y-101122363D01*
X132501094Y-101122361D01*
X132497875Y-101119864D01*
X132488851Y-101112157D01*
X132456506Y-101081783D01*
X132456499Y-101081778D01*
X132438673Y-101071978D01*
X132422147Y-101061123D01*
X132406066Y-101048649D01*
X132365337Y-101031024D01*
X132354678Y-101025802D01*
X132315805Y-101004432D01*
X132315803Y-101004431D01*
X132296085Y-100999368D01*
X132277382Y-100992964D01*
X132258706Y-100984882D01*
X132214874Y-100977940D01*
X132203249Y-100975532D01*
X132160287Y-100964501D01*
X132160284Y-100964500D01*
X132160282Y-100964500D01*
X132160279Y-100964500D01*
X132139934Y-100964500D01*
X132120224Y-100962949D01*
X132100121Y-100959765D01*
X132100120Y-100959765D01*
X132071129Y-100962505D01*
X132055943Y-100963941D01*
X132044087Y-100964500D01*
X123846975Y-100964500D01*
X123778854Y-100944498D01*
X123741492Y-100907415D01*
X123641492Y-100754354D01*
X123641491Y-100754353D01*
X123641490Y-100754351D01*
X123487483Y-100587054D01*
X123308039Y-100447388D01*
X123308033Y-100447384D01*
X123108058Y-100339162D01*
X123108052Y-100339159D01*
X122892989Y-100265329D01*
X122892982Y-100265327D01*
X122796993Y-100249309D01*
X122668695Y-100227900D01*
X122441305Y-100227900D01*
X122329058Y-100246630D01*
X122217017Y-100265327D01*
X122217010Y-100265329D01*
X122001947Y-100339159D01*
X122001941Y-100339162D01*
X121801966Y-100447384D01*
X121801960Y-100447388D01*
X121622514Y-100587056D01*
X121468509Y-100754351D01*
X121390483Y-100873780D01*
X121336479Y-100919868D01*
X121266131Y-100929443D01*
X121201774Y-100899465D01*
X121179517Y-100873780D01*
X121101490Y-100754351D01*
X120947485Y-100587056D01*
X120947484Y-100587055D01*
X120947483Y-100587054D01*
X120768039Y-100447388D01*
X120768033Y-100447384D01*
X120568058Y-100339162D01*
X120568052Y-100339159D01*
X120352989Y-100265329D01*
X120352982Y-100265327D01*
X120256993Y-100249309D01*
X120128695Y-100227900D01*
X119901305Y-100227900D01*
X119677015Y-100265328D01*
X119677012Y-100265328D01*
X119671971Y-100266606D01*
X119671599Y-100265140D01*
X119607535Y-100268017D01*
X119548478Y-100234745D01*
X119478042Y-100164309D01*
X119444016Y-100101997D01*
X119449081Y-100031182D01*
X119491628Y-99974346D01*
X119558148Y-99949535D01*
X119579947Y-99949867D01*
X119600819Y-99952000D01*
X119634000Y-99952000D01*
X119634000Y-99160500D01*
X120142000Y-99160500D01*
X120142000Y-99952000D01*
X120175185Y-99952000D01*
X120175184Y-99951999D01*
X120277273Y-99941569D01*
X120277276Y-99941568D01*
X120442707Y-99886751D01*
X120591033Y-99795262D01*
X120591039Y-99795257D01*
X120714257Y-99672039D01*
X120714262Y-99672033D01*
X120805751Y-99523707D01*
X120860568Y-99358276D01*
X120860569Y-99358273D01*
X120870999Y-99256184D01*
X120871000Y-99256184D01*
X120871000Y-99160500D01*
X120142000Y-99160500D01*
X119634000Y-99160500D01*
X118905000Y-99160500D01*
X118905000Y-99256177D01*
X118907133Y-99277057D01*
X118894157Y-99346858D01*
X118845504Y-99398563D01*
X118776621Y-99415756D01*
X118709377Y-99392979D01*
X118692690Y-99378957D01*
X118007733Y-98694000D01*
X121424000Y-98694000D01*
X121424000Y-98988597D01*
X121430505Y-99049093D01*
X121481555Y-99185964D01*
X121481555Y-99185965D01*
X121569095Y-99302904D01*
X121686034Y-99390444D01*
X121822906Y-99441494D01*
X121883402Y-99447999D01*
X121883415Y-99448000D01*
X122428000Y-99448000D01*
X122428000Y-98694000D01*
X121424000Y-98694000D01*
X118007733Y-98694000D01*
X116713815Y-97400082D01*
X116703831Y-97387620D01*
X116703607Y-97387806D01*
X116698554Y-97381698D01*
X116694229Y-97377637D01*
X116648733Y-97334913D01*
X116645890Y-97332157D01*
X116626099Y-97312365D01*
X116626096Y-97312363D01*
X116626094Y-97312361D01*
X116622875Y-97309864D01*
X116613851Y-97302157D01*
X116609936Y-97298481D01*
X116581506Y-97271783D01*
X116581499Y-97271778D01*
X116563673Y-97261978D01*
X116547147Y-97251123D01*
X116531066Y-97238649D01*
X116490337Y-97221024D01*
X116479678Y-97215802D01*
X116440805Y-97194432D01*
X116440803Y-97194431D01*
X116421085Y-97189368D01*
X116402382Y-97182964D01*
X116383706Y-97174882D01*
X116339874Y-97167940D01*
X116328249Y-97165532D01*
X116285287Y-97154501D01*
X116285284Y-97154500D01*
X116285282Y-97154500D01*
X116285279Y-97154500D01*
X116264934Y-97154500D01*
X116245224Y-97152949D01*
X116225121Y-97149765D01*
X116225120Y-97149765D01*
X116196129Y-97152505D01*
X116180943Y-97153941D01*
X116169087Y-97154500D01*
X115575731Y-97154500D01*
X115507610Y-97134498D01*
X115470248Y-97097415D01*
X115375724Y-96952734D01*
X115375719Y-96952729D01*
X115232524Y-96797179D01*
X115201103Y-96733514D01*
X115209090Y-96662968D01*
X115253948Y-96607939D01*
X115281183Y-96593789D01*
X115396204Y-96550889D01*
X115403779Y-96545219D01*
X115513261Y-96463261D01*
X115600887Y-96346207D01*
X115600887Y-96346206D01*
X115600889Y-96346204D01*
X115651989Y-96209201D01*
X115653800Y-96192362D01*
X115658499Y-96148649D01*
X115658500Y-96148632D01*
X115658500Y-94351367D01*
X115658499Y-94351350D01*
X115651990Y-94290803D01*
X115651988Y-94290795D01*
X115600889Y-94153797D01*
X115600887Y-94153792D01*
X115513261Y-94036738D01*
X115396207Y-93949112D01*
X115396202Y-93949110D01*
X115259204Y-93898011D01*
X115259196Y-93898009D01*
X115198649Y-93891500D01*
X115198638Y-93891500D01*
X113401362Y-93891500D01*
X113401350Y-93891500D01*
X113340803Y-93898009D01*
X113340795Y-93898011D01*
X113203797Y-93949110D01*
X113203792Y-93949112D01*
X113086738Y-94036738D01*
X112999112Y-94153792D01*
X112999110Y-94153797D01*
X112948011Y-94290795D01*
X112948009Y-94290803D01*
X112941500Y-94351350D01*
X112941500Y-96148649D01*
X112948009Y-96209196D01*
X112948011Y-96209204D01*
X112999110Y-96346202D01*
X112999112Y-96346207D01*
X113086738Y-96463261D01*
X113203791Y-96550886D01*
X113203792Y-96550886D01*
X113203796Y-96550889D01*
X113318810Y-96593787D01*
X113375642Y-96636332D01*
X113400453Y-96702852D01*
X113385362Y-96772226D01*
X113367475Y-96797179D01*
X113224280Y-96952729D01*
X113224275Y-96952734D01*
X113101141Y-97141206D01*
X113010703Y-97347386D01*
X113010702Y-97347387D01*
X112955437Y-97565624D01*
X112955436Y-97565630D01*
X112955436Y-97565632D01*
X112936844Y-97790000D01*
X108043156Y-97790000D01*
X108024564Y-97565632D01*
X107998902Y-97464295D01*
X107969297Y-97347387D01*
X107969296Y-97347386D01*
X107969296Y-97347384D01*
X107878860Y-97141209D01*
X107806736Y-97030815D01*
X107755724Y-96952734D01*
X107755720Y-96952729D01*
X107612524Y-96797179D01*
X107603240Y-96787094D01*
X107603239Y-96787093D01*
X107603237Y-96787091D01*
X107495007Y-96702852D01*
X107425576Y-96648811D01*
X107392319Y-96630813D01*
X107341929Y-96580802D01*
X107326576Y-96511485D01*
X107351136Y-96444872D01*
X107392320Y-96409186D01*
X107425576Y-96391189D01*
X107603240Y-96252906D01*
X107755722Y-96087268D01*
X107878860Y-95898791D01*
X107969296Y-95692616D01*
X108024564Y-95474368D01*
X108043156Y-95250000D01*
X108024564Y-95025632D01*
X107992658Y-94899638D01*
X107969297Y-94807387D01*
X107969296Y-94807386D01*
X107969296Y-94807384D01*
X107878860Y-94601209D01*
X107812666Y-94499891D01*
X107755724Y-94412734D01*
X107755720Y-94412729D01*
X107603237Y-94247091D01*
X107483372Y-94153796D01*
X107425576Y-94108811D01*
X107227574Y-94001658D01*
X107227572Y-94001657D01*
X107227571Y-94001656D01*
X107014639Y-93928557D01*
X107014630Y-93928555D01*
X106970476Y-93921187D01*
X106792569Y-93891500D01*
X106567431Y-93891500D01*
X106419211Y-93916233D01*
X106345369Y-93928555D01*
X106345360Y-93928557D01*
X106132428Y-94001656D01*
X106132426Y-94001658D01*
X105934426Y-94108810D01*
X105934424Y-94108811D01*
X105756762Y-94247091D01*
X105604279Y-94412729D01*
X105604275Y-94412734D01*
X105481141Y-94601206D01*
X105390703Y-94807386D01*
X105390702Y-94807387D01*
X105335437Y-95025624D01*
X105335436Y-95025630D01*
X105335436Y-95025632D01*
X105316844Y-95250000D01*
X105333394Y-95449728D01*
X105335437Y-95474375D01*
X105390702Y-95692612D01*
X105390703Y-95692613D01*
X105390704Y-95692616D01*
X105467476Y-95867639D01*
X105481141Y-95898793D01*
X105604275Y-96087265D01*
X105604279Y-96087270D01*
X105671940Y-96160768D01*
X105752512Y-96248292D01*
X105756762Y-96252908D01*
X105787379Y-96276738D01*
X105934424Y-96391189D01*
X105967680Y-96409186D01*
X106018071Y-96459200D01*
X106033423Y-96528516D01*
X106008862Y-96595129D01*
X105967680Y-96630813D01*
X105934426Y-96648810D01*
X105934424Y-96648811D01*
X105756762Y-96787091D01*
X105604279Y-96952729D01*
X105604275Y-96952734D01*
X105481141Y-97141206D01*
X105390703Y-97347386D01*
X105390702Y-97347387D01*
X105335437Y-97565624D01*
X105335436Y-97565630D01*
X105335436Y-97565632D01*
X105316844Y-97790000D01*
X102963156Y-97790000D01*
X102944564Y-97565632D01*
X102918902Y-97464295D01*
X102889297Y-97347387D01*
X102889296Y-97347386D01*
X102889296Y-97347384D01*
X102798860Y-97141209D01*
X102726736Y-97030815D01*
X102675724Y-96952734D01*
X102675720Y-96952729D01*
X102532524Y-96797179D01*
X102523240Y-96787094D01*
X102523239Y-96787093D01*
X102523237Y-96787091D01*
X102415007Y-96702852D01*
X102345576Y-96648811D01*
X102312319Y-96630813D01*
X102261929Y-96580802D01*
X102246576Y-96511485D01*
X102271136Y-96444872D01*
X102312320Y-96409186D01*
X102345576Y-96391189D01*
X102523240Y-96252906D01*
X102675722Y-96087268D01*
X102798860Y-95898791D01*
X102889296Y-95692616D01*
X102944564Y-95474368D01*
X102963156Y-95250000D01*
X102944564Y-95025632D01*
X102912658Y-94899638D01*
X102889297Y-94807387D01*
X102889296Y-94807386D01*
X102889296Y-94807384D01*
X102798860Y-94601209D01*
X102732666Y-94499891D01*
X102675724Y-94412734D01*
X102675720Y-94412729D01*
X102523237Y-94247091D01*
X102403372Y-94153796D01*
X102345576Y-94108811D01*
X102147574Y-94001658D01*
X102147572Y-94001657D01*
X102147571Y-94001656D01*
X101934639Y-93928557D01*
X101934630Y-93928555D01*
X101890476Y-93921187D01*
X101712569Y-93891500D01*
X101487431Y-93891500D01*
X101339211Y-93916233D01*
X101265369Y-93928555D01*
X101265360Y-93928557D01*
X101052428Y-94001656D01*
X101052426Y-94001658D01*
X100854426Y-94108810D01*
X100854424Y-94108811D01*
X100676762Y-94247091D01*
X100524279Y-94412729D01*
X100524275Y-94412734D01*
X100401141Y-94601206D01*
X100310703Y-94807386D01*
X100310702Y-94807387D01*
X100255437Y-95025624D01*
X100255436Y-95025630D01*
X100255436Y-95025632D01*
X100236844Y-95250000D01*
X100253394Y-95449728D01*
X100255437Y-95474375D01*
X100310702Y-95692612D01*
X100310703Y-95692613D01*
X100310704Y-95692616D01*
X100387476Y-95867639D01*
X100401141Y-95898793D01*
X100524275Y-96087265D01*
X100524279Y-96087270D01*
X100591940Y-96160768D01*
X100672512Y-96248292D01*
X100676762Y-96252908D01*
X100707379Y-96276738D01*
X100854424Y-96391189D01*
X100887680Y-96409186D01*
X100938071Y-96459200D01*
X100953423Y-96528516D01*
X100928862Y-96595129D01*
X100887680Y-96630813D01*
X100854426Y-96648810D01*
X100854424Y-96648811D01*
X100676762Y-96787091D01*
X100524279Y-96952729D01*
X100524275Y-96952734D01*
X100401141Y-97141206D01*
X100310703Y-97347386D01*
X100310702Y-97347387D01*
X100255437Y-97565624D01*
X100255436Y-97565630D01*
X100255436Y-97565632D01*
X100236844Y-97790000D01*
X99794468Y-97790000D01*
X99790368Y-97784034D01*
X99785441Y-97775500D01*
X99783585Y-97772285D01*
X99738806Y-97722552D01*
X99734543Y-97717561D01*
X99721937Y-97701994D01*
X99707762Y-97687819D01*
X99703237Y-97683050D01*
X99658472Y-97633333D01*
X99658471Y-97633332D01*
X99658470Y-97633331D01*
X99647483Y-97625348D01*
X99632452Y-97612509D01*
X96697488Y-94677545D01*
X96684646Y-94662509D01*
X96676669Y-94651530D01*
X96626938Y-94606751D01*
X96622154Y-94602210D01*
X96608013Y-94588069D01*
X96608007Y-94588064D01*
X96592449Y-94575465D01*
X96587434Y-94571182D01*
X96537715Y-94526415D01*
X96525961Y-94519629D01*
X96509667Y-94508430D01*
X96499123Y-94499891D01*
X96439520Y-94469523D01*
X96433739Y-94466385D01*
X96375785Y-94432925D01*
X96362872Y-94428729D01*
X96344613Y-94421165D01*
X96332524Y-94415006D01*
X96332521Y-94415005D01*
X96267906Y-94397691D01*
X96261582Y-94395818D01*
X96197957Y-94375144D01*
X96184463Y-94373726D01*
X96165033Y-94370125D01*
X96151919Y-94366611D01*
X96151908Y-94366610D01*
X96085112Y-94363110D01*
X96078534Y-94362593D01*
X96058623Y-94360500D01*
X96058620Y-94360500D01*
X96038593Y-94360500D01*
X96031999Y-94360327D01*
X96029793Y-94360211D01*
X95965191Y-94356825D01*
X95951786Y-94358949D01*
X95932075Y-94360500D01*
X95445469Y-94360500D01*
X95377348Y-94340498D01*
X95330855Y-94286842D01*
X95327422Y-94278556D01*
X95280889Y-94153796D01*
X95280886Y-94153792D01*
X95280886Y-94153791D01*
X95193261Y-94036738D01*
X95076207Y-93949112D01*
X95076202Y-93949110D01*
X94939204Y-93898011D01*
X94939196Y-93898009D01*
X94878649Y-93891500D01*
X94878638Y-93891500D01*
X93081362Y-93891500D01*
X93081350Y-93891500D01*
X93020803Y-93898009D01*
X93020795Y-93898011D01*
X92883797Y-93949110D01*
X92883792Y-93949112D01*
X92766738Y-94036738D01*
X92679112Y-94153792D01*
X92679111Y-94153795D01*
X92635000Y-94272058D01*
X92592453Y-94328893D01*
X92525932Y-94353703D01*
X92456558Y-94338611D01*
X92424246Y-94313363D01*
X92363240Y-94247094D01*
X92363239Y-94247093D01*
X92363237Y-94247091D01*
X92243372Y-94153796D01*
X92185576Y-94108811D01*
X91987574Y-94001658D01*
X91987572Y-94001657D01*
X91987571Y-94001656D01*
X91774639Y-93928557D01*
X91774630Y-93928555D01*
X91730476Y-93921187D01*
X91552569Y-93891500D01*
X91327431Y-93891500D01*
X91179211Y-93916233D01*
X91105369Y-93928555D01*
X91105360Y-93928557D01*
X90892428Y-94001656D01*
X90892426Y-94001658D01*
X90694426Y-94108810D01*
X90694424Y-94108811D01*
X90516762Y-94247091D01*
X90364279Y-94412729D01*
X90364275Y-94412734D01*
X90241141Y-94601206D01*
X90150703Y-94807386D01*
X90150702Y-94807387D01*
X90095437Y-95025624D01*
X90095436Y-95025630D01*
X90095436Y-95025632D01*
X90076844Y-95250000D01*
X89586300Y-95250000D01*
X89586300Y-93726000D01*
X116396449Y-93726000D01*
X116416622Y-93982325D01*
X116476644Y-94232338D01*
X116556724Y-94425667D01*
X116575040Y-94469887D01*
X116702293Y-94677545D01*
X116709385Y-94689117D01*
X116709386Y-94689119D01*
X116876368Y-94884631D01*
X117071880Y-95051613D01*
X117071884Y-95051616D01*
X117291113Y-95185960D01*
X117528660Y-95284355D01*
X117778674Y-95344378D01*
X118035000Y-95364551D01*
X118291326Y-95344378D01*
X118541340Y-95284355D01*
X118571945Y-95271678D01*
X118642535Y-95264088D01*
X118706022Y-95295866D01*
X118709259Y-95298991D01*
X119215595Y-95805327D01*
X119249621Y-95867639D01*
X119252500Y-95894422D01*
X119252500Y-96180171D01*
X119232498Y-96248292D01*
X119192653Y-96287408D01*
X119184654Y-96292342D01*
X119184653Y-96292343D01*
X119061343Y-96415652D01*
X119061342Y-96415653D01*
X118969791Y-96564080D01*
X118914937Y-96729622D01*
X118904500Y-96831778D01*
X118904500Y-97531212D01*
X118914937Y-97633380D01*
X118964858Y-97784034D01*
X118969791Y-97798920D01*
X119061342Y-97947346D01*
X119069252Y-97955256D01*
X119103278Y-98017565D01*
X119098216Y-98088381D01*
X119069258Y-98133445D01*
X119061737Y-98140966D01*
X118970248Y-98289292D01*
X118915431Y-98454723D01*
X118915430Y-98454726D01*
X118905000Y-98556815D01*
X118905000Y-98652500D01*
X120871000Y-98652500D01*
X120871000Y-98556815D01*
X120860569Y-98454726D01*
X120860568Y-98454723D01*
X120805751Y-98289292D01*
X120714262Y-98140966D01*
X120714257Y-98140960D01*
X120706745Y-98133448D01*
X120672719Y-98071136D01*
X120677784Y-98000321D01*
X120706747Y-97955256D01*
X120714658Y-97947346D01*
X120806209Y-97798920D01*
X120842748Y-97688649D01*
X121423500Y-97688649D01*
X121430009Y-97749195D01*
X121431823Y-97756867D01*
X121429834Y-97757336D01*
X121434135Y-97817505D01*
X121431759Y-97825599D01*
X121430505Y-97830903D01*
X121424000Y-97891402D01*
X121424000Y-98186000D01*
X122810000Y-98186000D01*
X122878121Y-98206002D01*
X122924614Y-98259658D01*
X122936000Y-98312000D01*
X122936000Y-99448000D01*
X123480585Y-99448000D01*
X123480597Y-99447999D01*
X123541093Y-99441494D01*
X123677963Y-99390445D01*
X123800796Y-99298492D01*
X123867316Y-99273681D01*
X123936691Y-99288772D01*
X123986893Y-99338974D01*
X123995910Y-99359727D01*
X124050246Y-99523703D01*
X124141737Y-99672033D01*
X124141742Y-99672039D01*
X124264960Y-99795257D01*
X124264966Y-99795262D01*
X124413292Y-99886751D01*
X124578723Y-99941568D01*
X124578726Y-99941569D01*
X124680815Y-99951999D01*
X124680815Y-99952000D01*
X124714000Y-99952000D01*
X124714000Y-99210500D01*
X125222000Y-99210500D01*
X125222000Y-99952000D01*
X125255185Y-99952000D01*
X125255184Y-99951999D01*
X125357273Y-99941569D01*
X125357276Y-99941568D01*
X125522707Y-99886751D01*
X125671033Y-99795262D01*
X125671039Y-99795257D01*
X125794257Y-99672039D01*
X125794262Y-99672033D01*
X125885751Y-99523707D01*
X125940568Y-99358276D01*
X125940569Y-99358273D01*
X125950999Y-99256184D01*
X125951000Y-99256184D01*
X125951000Y-99210500D01*
X125222000Y-99210500D01*
X124714000Y-99210500D01*
X124714000Y-98828500D01*
X124734002Y-98760379D01*
X124787658Y-98713886D01*
X124840000Y-98702500D01*
X125951000Y-98702500D01*
X125951000Y-98656815D01*
X125940569Y-98554726D01*
X125940568Y-98554723D01*
X125885751Y-98389292D01*
X125794262Y-98240966D01*
X125794257Y-98240960D01*
X125686746Y-98133449D01*
X125652720Y-98071137D01*
X125657785Y-98000322D01*
X125686746Y-97955259D01*
X125794652Y-97847352D01*
X125794658Y-97847346D01*
X125881435Y-97706660D01*
X127520393Y-97706660D01*
X127550668Y-97878354D01*
X127550669Y-97878356D01*
X127619719Y-98038435D01*
X127619721Y-98038439D01*
X127723831Y-98178282D01*
X127857384Y-98290348D01*
X127857386Y-98290349D01*
X128013185Y-98368594D01*
X128182829Y-98408800D01*
X128182831Y-98408800D01*
X128313439Y-98408800D01*
X128347117Y-98404863D01*
X128443164Y-98393637D01*
X128606993Y-98334008D01*
X128752654Y-98238205D01*
X128872296Y-98111393D01*
X128883401Y-98092157D01*
X128934780Y-98043165D01*
X129004493Y-98029727D01*
X129066580Y-98053221D01*
X129086415Y-98067632D01*
X129259669Y-98144770D01*
X129405744Y-98175818D01*
X129445174Y-98184200D01*
X129445175Y-98184200D01*
X129634826Y-98184200D01*
X129667343Y-98177287D01*
X129820331Y-98144770D01*
X129993585Y-98067632D01*
X130100939Y-97989634D01*
X130167806Y-97965777D01*
X130236958Y-97981857D01*
X130249061Y-97989635D01*
X130356410Y-98067629D01*
X130356412Y-98067630D01*
X130356415Y-98067632D01*
X130529669Y-98144770D01*
X130675744Y-98175818D01*
X130715174Y-98184200D01*
X130715175Y-98184200D01*
X130904826Y-98184200D01*
X130937343Y-98177287D01*
X131090331Y-98144770D01*
X131263585Y-98067632D01*
X131370939Y-97989634D01*
X131437806Y-97965777D01*
X131506958Y-97981857D01*
X131519061Y-97989635D01*
X131626410Y-98067629D01*
X131626412Y-98067630D01*
X131626415Y-98067632D01*
X131799669Y-98144770D01*
X131945744Y-98175818D01*
X131985174Y-98184200D01*
X131985175Y-98184200D01*
X132174826Y-98184200D01*
X132207343Y-98177287D01*
X132360331Y-98144770D01*
X132533585Y-98067632D01*
X132640939Y-97989634D01*
X132707806Y-97965777D01*
X132776958Y-97981857D01*
X132789061Y-97989635D01*
X132896410Y-98067629D01*
X132896412Y-98067630D01*
X132896415Y-98067632D01*
X133069669Y-98144770D01*
X133215744Y-98175818D01*
X133255174Y-98184200D01*
X133255175Y-98184200D01*
X133444826Y-98184200D01*
X133477343Y-98177287D01*
X133630331Y-98144770D01*
X133803585Y-98067632D01*
X133910939Y-97989634D01*
X133977806Y-97965777D01*
X134046958Y-97981857D01*
X134059061Y-97989635D01*
X134166410Y-98067629D01*
X134166412Y-98067630D01*
X134166415Y-98067632D01*
X134339669Y-98144770D01*
X134485744Y-98175818D01*
X134525174Y-98184200D01*
X134525175Y-98184200D01*
X134714826Y-98184200D01*
X134747343Y-98177287D01*
X134900331Y-98144770D01*
X135073585Y-98067632D01*
X135227015Y-97956159D01*
X135227826Y-97955259D01*
X135285322Y-97891402D01*
X135353916Y-97815221D01*
X135448741Y-97650979D01*
X135507346Y-97470611D01*
X135507533Y-97468834D01*
X135507927Y-97467875D01*
X135508719Y-97464151D01*
X135509400Y-97464295D01*
X135534545Y-97403177D01*
X135592766Y-97362546D01*
X135661898Y-97359399D01*
X135802829Y-97392800D01*
X135802831Y-97392800D01*
X135933439Y-97392800D01*
X135976162Y-97387806D01*
X136063164Y-97377637D01*
X136226993Y-97318008D01*
X136372654Y-97222205D01*
X136492296Y-97095393D01*
X136579467Y-96944407D01*
X136629469Y-96777388D01*
X136639607Y-96603340D01*
X136609332Y-96431646D01*
X136540279Y-96271562D01*
X136531232Y-96259410D01*
X136436168Y-96131717D01*
X136302615Y-96019651D01*
X136224370Y-95980355D01*
X136146815Y-95941406D01*
X135977171Y-95901200D01*
X135846564Y-95901200D01*
X135846561Y-95901200D01*
X135716838Y-95916362D01*
X135697255Y-95923490D01*
X135676022Y-95931218D01*
X135605169Y-95935720D01*
X135543129Y-95901201D01*
X135509600Y-95838621D01*
X135507619Y-95825983D01*
X135507346Y-95823388D01*
X135448743Y-95643026D01*
X135448739Y-95643018D01*
X135446581Y-95639281D01*
X135388696Y-95539020D01*
X135353917Y-95478780D01*
X135353915Y-95478778D01*
X135227017Y-95337842D01*
X135073589Y-95226370D01*
X135048166Y-95215051D01*
X134900331Y-95149230D01*
X134859311Y-95140511D01*
X134714826Y-95109800D01*
X134714825Y-95109800D01*
X134525175Y-95109800D01*
X134525174Y-95109800D01*
X134339668Y-95149230D01*
X134166410Y-95226370D01*
X134059061Y-95304364D01*
X133992193Y-95328223D01*
X133923041Y-95312142D01*
X133910939Y-95304364D01*
X133803589Y-95226370D01*
X133778166Y-95215051D01*
X133630331Y-95149230D01*
X133589311Y-95140511D01*
X133444826Y-95109800D01*
X133444825Y-95109800D01*
X133255175Y-95109800D01*
X133255174Y-95109800D01*
X133069668Y-95149230D01*
X132896410Y-95226370D01*
X132789061Y-95304364D01*
X132722193Y-95328223D01*
X132653041Y-95312142D01*
X132640939Y-95304364D01*
X132533589Y-95226370D01*
X132508166Y-95215051D01*
X132360331Y-95149230D01*
X132319311Y-95140511D01*
X132174826Y-95109800D01*
X132174825Y-95109800D01*
X131985175Y-95109800D01*
X131985174Y-95109800D01*
X131799668Y-95149230D01*
X131626410Y-95226370D01*
X131519061Y-95304364D01*
X131452193Y-95328223D01*
X131383041Y-95312142D01*
X131370939Y-95304364D01*
X131263589Y-95226370D01*
X131238166Y-95215051D01*
X131090331Y-95149230D01*
X131049311Y-95140511D01*
X130904826Y-95109800D01*
X130904825Y-95109800D01*
X130715175Y-95109800D01*
X130715174Y-95109800D01*
X130529668Y-95149230D01*
X130356410Y-95226370D01*
X130249061Y-95304364D01*
X130182193Y-95328223D01*
X130113041Y-95312142D01*
X130100939Y-95304364D01*
X129993589Y-95226370D01*
X129968166Y-95215051D01*
X129820331Y-95149230D01*
X129779311Y-95140511D01*
X129634826Y-95109800D01*
X129634825Y-95109800D01*
X129445175Y-95109800D01*
X129445174Y-95109800D01*
X129259668Y-95149230D01*
X129086413Y-95226368D01*
X129086411Y-95226370D01*
X129065244Y-95241748D01*
X128998375Y-95265604D01*
X128929224Y-95249520D01*
X128890120Y-95215051D01*
X128816168Y-95115717D01*
X128682615Y-95003651D01*
X128596088Y-94960196D01*
X128526815Y-94925406D01*
X128357171Y-94885200D01*
X128226564Y-94885200D01*
X128226561Y-94885200D01*
X128096835Y-94900363D01*
X127933006Y-94959992D01*
X127933003Y-94959993D01*
X127787346Y-95055794D01*
X127667703Y-95182607D01*
X127580535Y-95333587D01*
X127580533Y-95333593D01*
X127530531Y-95500612D01*
X127530052Y-95508840D01*
X127522236Y-95643026D01*
X127520393Y-95674660D01*
X127550668Y-95846354D01*
X127550669Y-95846356D01*
X127619719Y-96006435D01*
X127619721Y-96006439D01*
X127718782Y-96139500D01*
X127723832Y-96146283D01*
X127726639Y-96148638D01*
X127857384Y-96258348D01*
X127857386Y-96258349D01*
X128013185Y-96336594D01*
X128182829Y-96376800D01*
X128182831Y-96376800D01*
X128313439Y-96376800D01*
X128347117Y-96372863D01*
X128443164Y-96361637D01*
X128556126Y-96320521D01*
X128626979Y-96316019D01*
X128689019Y-96350537D01*
X128708339Y-96375923D01*
X128806082Y-96545219D01*
X128806083Y-96545221D01*
X128821813Y-96562691D01*
X128852530Y-96626698D01*
X128843765Y-96697152D01*
X128821813Y-96731309D01*
X128806083Y-96748778D01*
X128806082Y-96748780D01*
X128709371Y-96916290D01*
X128657989Y-96965283D01*
X128588275Y-96978719D01*
X128543707Y-96965889D01*
X128526815Y-96957406D01*
X128357171Y-96917200D01*
X128226564Y-96917200D01*
X128226561Y-96917200D01*
X128096835Y-96932363D01*
X127933006Y-96991992D01*
X127933003Y-96991993D01*
X127787346Y-97087794D01*
X127667703Y-97214607D01*
X127580535Y-97365587D01*
X127580533Y-97365593D01*
X127530948Y-97531221D01*
X127530531Y-97532613D01*
X127524662Y-97633377D01*
X127520393Y-97706660D01*
X125881435Y-97706660D01*
X125886209Y-97698920D01*
X125941062Y-97533381D01*
X125951500Y-97431213D01*
X125951499Y-96831788D01*
X125945414Y-96772226D01*
X125941062Y-96729619D01*
X125930304Y-96697152D01*
X125886209Y-96564080D01*
X125794658Y-96415654D01*
X125671346Y-96292342D01*
X125663347Y-96287408D01*
X125615873Y-96234622D01*
X125603500Y-96180171D01*
X125603500Y-96096069D01*
X125605252Y-96080201D01*
X125604962Y-96080174D01*
X125605708Y-96072281D01*
X125603562Y-96004000D01*
X125603500Y-96000042D01*
X125603500Y-95972017D01*
X125603499Y-95972009D01*
X125602990Y-95967979D01*
X125602057Y-95956134D01*
X125601594Y-95941406D01*
X125600664Y-95911795D01*
X125594987Y-95892254D01*
X125590978Y-95872897D01*
X125588427Y-95852701D01*
X125588426Y-95852699D01*
X125588426Y-95852697D01*
X125572088Y-95811433D01*
X125568242Y-95800200D01*
X125565505Y-95790779D01*
X125555868Y-95757607D01*
X125545505Y-95740085D01*
X125536810Y-95722334D01*
X125529320Y-95703414D01*
X125529319Y-95703413D01*
X125529319Y-95703412D01*
X125503234Y-95667509D01*
X125496720Y-95657592D01*
X125474135Y-95619401D01*
X125459746Y-95605012D01*
X125446905Y-95589978D01*
X125434942Y-95573512D01*
X125433286Y-95571749D01*
X125432426Y-95570050D01*
X125430283Y-95567100D01*
X125430759Y-95566754D01*
X125401238Y-95508398D01*
X125408528Y-95437776D01*
X125452841Y-95382307D01*
X125520109Y-95359600D01*
X125525140Y-95359500D01*
X125708632Y-95359500D01*
X125708638Y-95359500D01*
X125708645Y-95359499D01*
X125708649Y-95359499D01*
X125769196Y-95352990D01*
X125769199Y-95352989D01*
X125769201Y-95352989D01*
X125906204Y-95301889D01*
X125910076Y-95298991D01*
X126023261Y-95214261D01*
X126110887Y-95097207D01*
X126110887Y-95097206D01*
X126110889Y-95097204D01*
X126161989Y-94960201D01*
X126162012Y-94959993D01*
X126168499Y-94899649D01*
X126168500Y-94899632D01*
X126168500Y-92552367D01*
X126168499Y-92552350D01*
X126161990Y-92491803D01*
X126161988Y-92491795D01*
X126110889Y-92354797D01*
X126110887Y-92354792D01*
X126023261Y-92237738D01*
X125906207Y-92150112D01*
X125906202Y-92150110D01*
X125769204Y-92099011D01*
X125769196Y-92099009D01*
X125708649Y-92092500D01*
X125708638Y-92092500D01*
X123361362Y-92092500D01*
X123361350Y-92092500D01*
X123300803Y-92099009D01*
X123300795Y-92099011D01*
X123163797Y-92150110D01*
X123163792Y-92150112D01*
X123046738Y-92237738D01*
X122959112Y-92354792D01*
X122959110Y-92354797D01*
X122908011Y-92491795D01*
X122908009Y-92491803D01*
X122901500Y-92552350D01*
X122901500Y-94899649D01*
X122908009Y-94960196D01*
X122908011Y-94960204D01*
X122959110Y-95097202D01*
X122959112Y-95097207D01*
X123046738Y-95214261D01*
X123163792Y-95301887D01*
X123163794Y-95301888D01*
X123163796Y-95301889D01*
X123222875Y-95323924D01*
X123300795Y-95352988D01*
X123300803Y-95352990D01*
X123361350Y-95359499D01*
X123361355Y-95359499D01*
X123361362Y-95359500D01*
X123773500Y-95359500D01*
X123841621Y-95379502D01*
X123888114Y-95433158D01*
X123899500Y-95485500D01*
X123899500Y-95494931D01*
X123897748Y-95510801D01*
X123898038Y-95510829D01*
X123897292Y-95518720D01*
X123899438Y-95587011D01*
X123899500Y-95590969D01*
X123899500Y-95618987D01*
X123900011Y-95623038D01*
X123900940Y-95634847D01*
X123902334Y-95679202D01*
X123902335Y-95679207D01*
X123908014Y-95698756D01*
X123912021Y-95718107D01*
X123914572Y-95738295D01*
X123914572Y-95738296D01*
X123914572Y-95738298D01*
X123914573Y-95738299D01*
X123922217Y-95757607D01*
X123930906Y-95779553D01*
X123934749Y-95790779D01*
X123947129Y-95833390D01*
X123947131Y-95833395D01*
X123957492Y-95850914D01*
X123966189Y-95868666D01*
X123973681Y-95887588D01*
X123999765Y-95923490D01*
X124006281Y-95933410D01*
X124028865Y-95971597D01*
X124028868Y-95971601D01*
X124043250Y-95985983D01*
X124056090Y-96001016D01*
X124068054Y-96017483D01*
X124068057Y-96017486D01*
X124102255Y-96045777D01*
X124111035Y-96053767D01*
X124218036Y-96160768D01*
X124252062Y-96223080D01*
X124246997Y-96293895D01*
X124218037Y-96338958D01*
X124141340Y-96415655D01*
X124123458Y-96444648D01*
X124070672Y-96492125D01*
X124016218Y-96504500D01*
X124011663Y-96504500D01*
X123943542Y-96484498D01*
X123897049Y-96430842D01*
X123893608Y-96422534D01*
X123882889Y-96393797D01*
X123882889Y-96393796D01*
X123882887Y-96393794D01*
X123882887Y-96393792D01*
X123795261Y-96276738D01*
X123678207Y-96189112D01*
X123678202Y-96189110D01*
X123541204Y-96138011D01*
X123541196Y-96138009D01*
X123480649Y-96131500D01*
X123480638Y-96131500D01*
X121883362Y-96131500D01*
X121883350Y-96131500D01*
X121822803Y-96138009D01*
X121822795Y-96138011D01*
X121685797Y-96189110D01*
X121685792Y-96189112D01*
X121568738Y-96276738D01*
X121481112Y-96393792D01*
X121481110Y-96393797D01*
X121430011Y-96530795D01*
X121430009Y-96530803D01*
X121423500Y-96591350D01*
X121423500Y-97688649D01*
X120842748Y-97688649D01*
X120861062Y-97633381D01*
X120871500Y-97531213D01*
X120871499Y-96831788D01*
X120865414Y-96772226D01*
X120861062Y-96729619D01*
X120850304Y-96697152D01*
X120806209Y-96564080D01*
X120714658Y-96415654D01*
X120591346Y-96292342D01*
X120583347Y-96287408D01*
X120535873Y-96234622D01*
X120523500Y-96180171D01*
X120523500Y-95663075D01*
X120525252Y-95647202D01*
X120524963Y-95647175D01*
X120525709Y-95639282D01*
X120523562Y-95570968D01*
X120523500Y-95567010D01*
X120523500Y-95539020D01*
X120523500Y-95539017D01*
X120522991Y-95534994D01*
X120522058Y-95523148D01*
X120521670Y-95510801D01*
X120520665Y-95478795D01*
X120514984Y-95459243D01*
X120510977Y-95439895D01*
X120508427Y-95419701D01*
X120492084Y-95378425D01*
X120488251Y-95367227D01*
X120475869Y-95324607D01*
X120465507Y-95307087D01*
X120456809Y-95289331D01*
X120454839Y-95284355D01*
X120449319Y-95270412D01*
X120423230Y-95234504D01*
X120416717Y-95224588D01*
X120394134Y-95186402D01*
X120394131Y-95186398D01*
X120379749Y-95172016D01*
X120366908Y-95156983D01*
X120361275Y-95149230D01*
X120354942Y-95140513D01*
X120320744Y-95112222D01*
X120311964Y-95104232D01*
X119607991Y-94400259D01*
X119573965Y-94337947D01*
X119579030Y-94267132D01*
X119580678Y-94262945D01*
X119583169Y-94256930D01*
X119593355Y-94232340D01*
X119653378Y-93982326D01*
X119673551Y-93726000D01*
X119653378Y-93469674D01*
X119593355Y-93219660D01*
X119494960Y-92982113D01*
X119360616Y-92762884D01*
X119319565Y-92714819D01*
X119193631Y-92567368D01*
X118998119Y-92400386D01*
X118998117Y-92400385D01*
X118998116Y-92400384D01*
X118778887Y-92266040D01*
X118710563Y-92237739D01*
X118541338Y-92167644D01*
X118370310Y-92126584D01*
X118291326Y-92107622D01*
X118035000Y-92087449D01*
X117778674Y-92107622D01*
X117528661Y-92167644D01*
X117291114Y-92266039D01*
X117071882Y-92400385D01*
X117071880Y-92400386D01*
X116876368Y-92567368D01*
X116709386Y-92762880D01*
X116709385Y-92762882D01*
X116575039Y-92982114D01*
X116476644Y-93219661D01*
X116416622Y-93469674D01*
X116396449Y-93726000D01*
X89586300Y-93726000D01*
X89586300Y-93349121D01*
X89586570Y-93340880D01*
X89594704Y-93216777D01*
X89601619Y-93111272D01*
X89603767Y-93094959D01*
X89647854Y-92873314D01*
X89652113Y-92857418D01*
X89724756Y-92643423D01*
X89731048Y-92628232D01*
X89831001Y-92425546D01*
X89839237Y-92411283D01*
X89964780Y-92223394D01*
X89974798Y-92210338D01*
X90123797Y-92040437D01*
X90135437Y-92028797D01*
X90305338Y-91879798D01*
X90318394Y-91869780D01*
X90506287Y-91744234D01*
X90520546Y-91736001D01*
X90723232Y-91636048D01*
X90738423Y-91629756D01*
X90952418Y-91557113D01*
X90968314Y-91552854D01*
X91189959Y-91508767D01*
X91206272Y-91506619D01*
X91435881Y-91491570D01*
X91444122Y-91491300D01*
X91456668Y-91491300D01*
X135873332Y-91491300D01*
X135885878Y-91491300D01*
X135894119Y-91491570D01*
G37*
G04 #@! TD.AperFunction*
D27*
X137795000Y-93345000D02*
G75*
G03*
X135890000Y-91440000I-1905000J0D01*
G01*
X137795000Y-120015000D02*
X137795000Y-93345000D01*
X89535000Y-120015000D02*
G75*
G03*
X91440000Y-121920000I1905000J0D01*
G01*
X91440000Y-121920000D02*
X135890000Y-121920000D01*
X135890000Y-121920000D02*
G75*
G03*
X137795000Y-120015000I0J1905000D01*
G01*
X135890000Y-91440000D02*
X91440000Y-91440000D01*
X91440000Y-91440000D02*
G75*
G03*
X89535000Y-93345000I0J-1905000D01*
G01*
X89535000Y-93345000D02*
X89535000Y-120015000D01*
M02*
