G04 #@! TF.GenerationSoftware,KiCad,Pcbnew,7.0.10-7.0.10~ubuntu22.04.1*
G04 #@! TF.CreationDate,2025-03-20T21:46:33+01:00*
G04 #@! TF.ProjectId,jlink-tagConnect-adapter-v4,6a6c696e-6b2d-4746-9167-436f6e6e6563,rev?*
G04 #@! TF.SameCoordinates,Original*
G04 #@! TF.FileFunction,Legend,Top*
G04 #@! TF.FilePolarity,Positive*
%FSLAX46Y46*%
G04 Gerber Fmt 4.6, Leading zero omitted, Abs format (unit mm)*
G04 Created by KiCad (PCBNEW 7.0.10-7.0.10~ubuntu22.04.1) date 2025-03-20 21:46:33*
%MOMM*%
%LPD*%
G01*
G04 APERTURE LIST*
%ADD10C,0.120000*%
%ADD11C,0.150000*%
%ADD12C,0.200000*%
G04 #@! TA.AperFunction,Profile*
%ADD13C,0.101600*%
G04 #@! TD*
G04 APERTURE END LIST*
D10*
X137414000Y-100076000D02*
X126492000Y-100076000D01*
X126492000Y-92964000D02*
X137414000Y-92964000D01*
X126492000Y-92964000D02*
X126492000Y-100076000D01*
X126492000Y-120396000D02*
X126492000Y-113284000D01*
X137414000Y-120396000D02*
X126492000Y-120396000D01*
X137414000Y-92964000D02*
X137414000Y-100076000D01*
X137414000Y-113284000D02*
X137414000Y-120396000D01*
X126492000Y-113284000D02*
X137414000Y-113284000D01*
D11*
X127098588Y-112214819D02*
X126527160Y-112214819D01*
X126812874Y-112214819D02*
X126812874Y-111214819D01*
X126812874Y-111214819D02*
X126717636Y-111357676D01*
X126717636Y-111357676D02*
X126622398Y-111452914D01*
X126622398Y-111452914D02*
X126527160Y-111500533D01*
X108826493Y-104102819D02*
X108826493Y-104817104D01*
X108826493Y-104817104D02*
X108778874Y-104959961D01*
X108778874Y-104959961D02*
X108683636Y-105055200D01*
X108683636Y-105055200D02*
X108540779Y-105102819D01*
X108540779Y-105102819D02*
X108445541Y-105102819D01*
X109778874Y-105102819D02*
X109302684Y-105102819D01*
X109302684Y-105102819D02*
X109302684Y-104102819D01*
X110112208Y-105007580D02*
X110159827Y-105055200D01*
X110159827Y-105055200D02*
X110112208Y-105102819D01*
X110112208Y-105102819D02*
X110064589Y-105055200D01*
X110064589Y-105055200D02*
X110112208Y-105007580D01*
X110112208Y-105007580D02*
X110112208Y-105102819D01*
X110445541Y-104102819D02*
X111016969Y-104102819D01*
X110731255Y-105102819D02*
X110731255Y-104102819D01*
X111255065Y-104102819D02*
X111921731Y-105102819D01*
X111921731Y-104102819D02*
X111255065Y-105102819D01*
X114109523Y-100353819D02*
X113538095Y-100353819D01*
X113823809Y-100353819D02*
X113823809Y-99353819D01*
X113823809Y-99353819D02*
X113728571Y-99496676D01*
X113728571Y-99496676D02*
X113633333Y-99591914D01*
X113633333Y-99591914D02*
X113538095Y-99639533D01*
X114728571Y-99353819D02*
X114823809Y-99353819D01*
X114823809Y-99353819D02*
X114919047Y-99401438D01*
X114919047Y-99401438D02*
X114966666Y-99449057D01*
X114966666Y-99449057D02*
X115014285Y-99544295D01*
X115014285Y-99544295D02*
X115061904Y-99734771D01*
X115061904Y-99734771D02*
X115061904Y-99972866D01*
X115061904Y-99972866D02*
X115014285Y-100163342D01*
X115014285Y-100163342D02*
X114966666Y-100258580D01*
X114966666Y-100258580D02*
X114919047Y-100306200D01*
X114919047Y-100306200D02*
X114823809Y-100353819D01*
X114823809Y-100353819D02*
X114728571Y-100353819D01*
X114728571Y-100353819D02*
X114633333Y-100306200D01*
X114633333Y-100306200D02*
X114585714Y-100258580D01*
X114585714Y-100258580D02*
X114538095Y-100163342D01*
X114538095Y-100163342D02*
X114490476Y-99972866D01*
X114490476Y-99972866D02*
X114490476Y-99734771D01*
X114490476Y-99734771D02*
X114538095Y-99544295D01*
X114538095Y-99544295D02*
X114585714Y-99449057D01*
X114585714Y-99449057D02*
X114633333Y-99401438D01*
X114633333Y-99401438D02*
X114728571Y-99353819D01*
X108397922Y-105626819D02*
X108969350Y-105626819D01*
X108683636Y-106626819D02*
X108683636Y-105626819D01*
X109302684Y-106626819D02*
X109302684Y-105626819D01*
X109302684Y-105626819D02*
X109540779Y-105626819D01*
X109540779Y-105626819D02*
X109683636Y-105674438D01*
X109683636Y-105674438D02*
X109778874Y-105769676D01*
X109778874Y-105769676D02*
X109826493Y-105864914D01*
X109826493Y-105864914D02*
X109874112Y-106055390D01*
X109874112Y-106055390D02*
X109874112Y-106198247D01*
X109874112Y-106198247D02*
X109826493Y-106388723D01*
X109826493Y-106388723D02*
X109778874Y-106483961D01*
X109778874Y-106483961D02*
X109683636Y-106579200D01*
X109683636Y-106579200D02*
X109540779Y-106626819D01*
X109540779Y-106626819D02*
X109302684Y-106626819D01*
X110302684Y-106626819D02*
X110302684Y-105626819D01*
X113979601Y-118834819D02*
X114312934Y-119834819D01*
X114312934Y-119834819D02*
X114646267Y-118834819D01*
X114836744Y-118834819D02*
X115408172Y-118834819D01*
X115122458Y-119834819D02*
X115122458Y-118834819D01*
X116312934Y-119834819D02*
X115979601Y-119358628D01*
X115741506Y-119834819D02*
X115741506Y-118834819D01*
X115741506Y-118834819D02*
X116122458Y-118834819D01*
X116122458Y-118834819D02*
X116217696Y-118882438D01*
X116217696Y-118882438D02*
X116265315Y-118930057D01*
X116265315Y-118930057D02*
X116312934Y-119025295D01*
X116312934Y-119025295D02*
X116312934Y-119168152D01*
X116312934Y-119168152D02*
X116265315Y-119263390D01*
X116265315Y-119263390D02*
X116217696Y-119311009D01*
X116217696Y-119311009D02*
X116122458Y-119358628D01*
X116122458Y-119358628D02*
X115741506Y-119358628D01*
X116741506Y-119311009D02*
X117074839Y-119311009D01*
X117217696Y-119834819D02*
X116741506Y-119834819D01*
X116741506Y-119834819D02*
X116741506Y-118834819D01*
X116741506Y-118834819D02*
X117217696Y-118834819D01*
X117979601Y-119311009D02*
X117646268Y-119311009D01*
X117646268Y-119834819D02*
X117646268Y-118834819D01*
X117646268Y-118834819D02*
X118122458Y-118834819D01*
X98882077Y-117564819D02*
X98405887Y-117564819D01*
X98405887Y-117564819D02*
X98358268Y-118041009D01*
X98358268Y-118041009D02*
X98405887Y-117993390D01*
X98405887Y-117993390D02*
X98501125Y-117945771D01*
X98501125Y-117945771D02*
X98739220Y-117945771D01*
X98739220Y-117945771D02*
X98834458Y-117993390D01*
X98834458Y-117993390D02*
X98882077Y-118041009D01*
X98882077Y-118041009D02*
X98929696Y-118136247D01*
X98929696Y-118136247D02*
X98929696Y-118374342D01*
X98929696Y-118374342D02*
X98882077Y-118469580D01*
X98882077Y-118469580D02*
X98834458Y-118517200D01*
X98834458Y-118517200D02*
X98739220Y-118564819D01*
X98739220Y-118564819D02*
X98501125Y-118564819D01*
X98501125Y-118564819D02*
X98405887Y-118517200D01*
X98405887Y-118517200D02*
X98358268Y-118469580D01*
X99215411Y-117564819D02*
X99548744Y-118564819D01*
X99548744Y-118564819D02*
X99882077Y-117564819D01*
D10*
X127434470Y-94307855D02*
X126977327Y-94307855D01*
X127205899Y-94307855D02*
X127205899Y-93507855D01*
X127205899Y-93507855D02*
X127129708Y-93622140D01*
X127129708Y-93622140D02*
X127053518Y-93698331D01*
X127053518Y-93698331D02*
X126977327Y-93736426D01*
X127777328Y-94231664D02*
X127815423Y-94269760D01*
X127815423Y-94269760D02*
X127777328Y-94307855D01*
X127777328Y-94307855D02*
X127739232Y-94269760D01*
X127739232Y-94269760D02*
X127777328Y-94231664D01*
X127777328Y-94231664D02*
X127777328Y-94307855D01*
X127777328Y-93812617D02*
X127815423Y-93850712D01*
X127815423Y-93850712D02*
X127777328Y-93888807D01*
X127777328Y-93888807D02*
X127739232Y-93850712D01*
X127739232Y-93850712D02*
X127777328Y-93812617D01*
X127777328Y-93812617D02*
X127777328Y-93888807D01*
X128653518Y-93507855D02*
X128920185Y-94307855D01*
X128920185Y-94307855D02*
X129186851Y-93507855D01*
X129339232Y-93507855D02*
X129796375Y-93507855D01*
X129567803Y-94307855D02*
X129567803Y-93507855D01*
X130520185Y-94307855D02*
X130253518Y-93926902D01*
X130063042Y-94307855D02*
X130063042Y-93507855D01*
X130063042Y-93507855D02*
X130367804Y-93507855D01*
X130367804Y-93507855D02*
X130443994Y-93545950D01*
X130443994Y-93545950D02*
X130482089Y-93584045D01*
X130482089Y-93584045D02*
X130520185Y-93660236D01*
X130520185Y-93660236D02*
X130520185Y-93774521D01*
X130520185Y-93774521D02*
X130482089Y-93850712D01*
X130482089Y-93850712D02*
X130443994Y-93888807D01*
X130443994Y-93888807D02*
X130367804Y-93926902D01*
X130367804Y-93926902D02*
X130063042Y-93926902D01*
X130863042Y-93888807D02*
X131129708Y-93888807D01*
X131243994Y-94307855D02*
X130863042Y-94307855D01*
X130863042Y-94307855D02*
X130863042Y-93507855D01*
X130863042Y-93507855D02*
X131243994Y-93507855D01*
X131853518Y-93888807D02*
X131586852Y-93888807D01*
X131586852Y-94307855D02*
X131586852Y-93507855D01*
X131586852Y-93507855D02*
X131967804Y-93507855D01*
X126977327Y-94872045D02*
X127015423Y-94833950D01*
X127015423Y-94833950D02*
X127091613Y-94795855D01*
X127091613Y-94795855D02*
X127282089Y-94795855D01*
X127282089Y-94795855D02*
X127358280Y-94833950D01*
X127358280Y-94833950D02*
X127396375Y-94872045D01*
X127396375Y-94872045D02*
X127434470Y-94948236D01*
X127434470Y-94948236D02*
X127434470Y-95024426D01*
X127434470Y-95024426D02*
X127396375Y-95138712D01*
X127396375Y-95138712D02*
X126939232Y-95595855D01*
X126939232Y-95595855D02*
X127434470Y-95595855D01*
X127777328Y-95519664D02*
X127815423Y-95557760D01*
X127815423Y-95557760D02*
X127777328Y-95595855D01*
X127777328Y-95595855D02*
X127739232Y-95557760D01*
X127739232Y-95557760D02*
X127777328Y-95519664D01*
X127777328Y-95519664D02*
X127777328Y-95595855D01*
X127777328Y-95100617D02*
X127815423Y-95138712D01*
X127815423Y-95138712D02*
X127777328Y-95176807D01*
X127777328Y-95176807D02*
X127739232Y-95138712D01*
X127739232Y-95138712D02*
X127777328Y-95100617D01*
X127777328Y-95100617D02*
X127777328Y-95176807D01*
X128729708Y-95557760D02*
X128843994Y-95595855D01*
X128843994Y-95595855D02*
X129034470Y-95595855D01*
X129034470Y-95595855D02*
X129110661Y-95557760D01*
X129110661Y-95557760D02*
X129148756Y-95519664D01*
X129148756Y-95519664D02*
X129186851Y-95443474D01*
X129186851Y-95443474D02*
X129186851Y-95367283D01*
X129186851Y-95367283D02*
X129148756Y-95291093D01*
X129148756Y-95291093D02*
X129110661Y-95252998D01*
X129110661Y-95252998D02*
X129034470Y-95214902D01*
X129034470Y-95214902D02*
X128882089Y-95176807D01*
X128882089Y-95176807D02*
X128805899Y-95138712D01*
X128805899Y-95138712D02*
X128767804Y-95100617D01*
X128767804Y-95100617D02*
X128729708Y-95024426D01*
X128729708Y-95024426D02*
X128729708Y-94948236D01*
X128729708Y-94948236D02*
X128767804Y-94872045D01*
X128767804Y-94872045D02*
X128805899Y-94833950D01*
X128805899Y-94833950D02*
X128882089Y-94795855D01*
X128882089Y-94795855D02*
X129072566Y-94795855D01*
X129072566Y-94795855D02*
X129186851Y-94833950D01*
X129453518Y-94795855D02*
X129643994Y-95595855D01*
X129643994Y-95595855D02*
X129796375Y-95024426D01*
X129796375Y-95024426D02*
X129948756Y-95595855D01*
X129948756Y-95595855D02*
X130139233Y-94795855D01*
X130443995Y-95595855D02*
X130443995Y-94795855D01*
X130443995Y-94795855D02*
X130634471Y-94795855D01*
X130634471Y-94795855D02*
X130748757Y-94833950D01*
X130748757Y-94833950D02*
X130824947Y-94910140D01*
X130824947Y-94910140D02*
X130863042Y-94986331D01*
X130863042Y-94986331D02*
X130901138Y-95138712D01*
X130901138Y-95138712D02*
X130901138Y-95252998D01*
X130901138Y-95252998D02*
X130863042Y-95405379D01*
X130863042Y-95405379D02*
X130824947Y-95481569D01*
X130824947Y-95481569D02*
X130748757Y-95557760D01*
X130748757Y-95557760D02*
X130634471Y-95595855D01*
X130634471Y-95595855D02*
X130443995Y-95595855D01*
X131243995Y-95595855D02*
X131243995Y-94795855D01*
X131777328Y-94795855D02*
X131929709Y-94795855D01*
X131929709Y-94795855D02*
X132005899Y-94833950D01*
X132005899Y-94833950D02*
X132082090Y-94910140D01*
X132082090Y-94910140D02*
X132120185Y-95062521D01*
X132120185Y-95062521D02*
X132120185Y-95329188D01*
X132120185Y-95329188D02*
X132082090Y-95481569D01*
X132082090Y-95481569D02*
X132005899Y-95557760D01*
X132005899Y-95557760D02*
X131929709Y-95595855D01*
X131929709Y-95595855D02*
X131777328Y-95595855D01*
X131777328Y-95595855D02*
X131701137Y-95557760D01*
X131701137Y-95557760D02*
X131624947Y-95481569D01*
X131624947Y-95481569D02*
X131586851Y-95329188D01*
X131586851Y-95329188D02*
X131586851Y-95062521D01*
X131586851Y-95062521D02*
X131624947Y-94910140D01*
X131624947Y-94910140D02*
X131701137Y-94833950D01*
X131701137Y-94833950D02*
X131777328Y-94795855D01*
X132653518Y-95862521D02*
X132653518Y-94719664D01*
X133110661Y-94795855D02*
X133567804Y-94795855D01*
X133339232Y-95595855D02*
X133339232Y-94795855D01*
X133834471Y-95595855D02*
X133834471Y-94795855D01*
X133834471Y-94795855D02*
X134101137Y-95367283D01*
X134101137Y-95367283D02*
X134367804Y-94795855D01*
X134367804Y-94795855D02*
X134367804Y-95595855D01*
X134710661Y-95557760D02*
X134824947Y-95595855D01*
X134824947Y-95595855D02*
X135015423Y-95595855D01*
X135015423Y-95595855D02*
X135091614Y-95557760D01*
X135091614Y-95557760D02*
X135129709Y-95519664D01*
X135129709Y-95519664D02*
X135167804Y-95443474D01*
X135167804Y-95443474D02*
X135167804Y-95367283D01*
X135167804Y-95367283D02*
X135129709Y-95291093D01*
X135129709Y-95291093D02*
X135091614Y-95252998D01*
X135091614Y-95252998D02*
X135015423Y-95214902D01*
X135015423Y-95214902D02*
X134863042Y-95176807D01*
X134863042Y-95176807D02*
X134786852Y-95138712D01*
X134786852Y-95138712D02*
X134748757Y-95100617D01*
X134748757Y-95100617D02*
X134710661Y-95024426D01*
X134710661Y-95024426D02*
X134710661Y-94948236D01*
X134710661Y-94948236D02*
X134748757Y-94872045D01*
X134748757Y-94872045D02*
X134786852Y-94833950D01*
X134786852Y-94833950D02*
X134863042Y-94795855D01*
X134863042Y-94795855D02*
X135053519Y-94795855D01*
X135053519Y-94795855D02*
X135167804Y-94833950D01*
X126939232Y-96083855D02*
X127434470Y-96083855D01*
X127434470Y-96083855D02*
X127167804Y-96388617D01*
X127167804Y-96388617D02*
X127282089Y-96388617D01*
X127282089Y-96388617D02*
X127358280Y-96426712D01*
X127358280Y-96426712D02*
X127396375Y-96464807D01*
X127396375Y-96464807D02*
X127434470Y-96540998D01*
X127434470Y-96540998D02*
X127434470Y-96731474D01*
X127434470Y-96731474D02*
X127396375Y-96807664D01*
X127396375Y-96807664D02*
X127358280Y-96845760D01*
X127358280Y-96845760D02*
X127282089Y-96883855D01*
X127282089Y-96883855D02*
X127053518Y-96883855D01*
X127053518Y-96883855D02*
X126977327Y-96845760D01*
X126977327Y-96845760D02*
X126939232Y-96807664D01*
X127777328Y-96807664D02*
X127815423Y-96845760D01*
X127815423Y-96845760D02*
X127777328Y-96883855D01*
X127777328Y-96883855D02*
X127739232Y-96845760D01*
X127739232Y-96845760D02*
X127777328Y-96807664D01*
X127777328Y-96807664D02*
X127777328Y-96883855D01*
X127777328Y-96388617D02*
X127815423Y-96426712D01*
X127815423Y-96426712D02*
X127777328Y-96464807D01*
X127777328Y-96464807D02*
X127739232Y-96426712D01*
X127739232Y-96426712D02*
X127777328Y-96388617D01*
X127777328Y-96388617D02*
X127777328Y-96464807D01*
X129186851Y-96121950D02*
X129110661Y-96083855D01*
X129110661Y-96083855D02*
X128996375Y-96083855D01*
X128996375Y-96083855D02*
X128882089Y-96121950D01*
X128882089Y-96121950D02*
X128805899Y-96198140D01*
X128805899Y-96198140D02*
X128767804Y-96274331D01*
X128767804Y-96274331D02*
X128729708Y-96426712D01*
X128729708Y-96426712D02*
X128729708Y-96540998D01*
X128729708Y-96540998D02*
X128767804Y-96693379D01*
X128767804Y-96693379D02*
X128805899Y-96769569D01*
X128805899Y-96769569D02*
X128882089Y-96845760D01*
X128882089Y-96845760D02*
X128996375Y-96883855D01*
X128996375Y-96883855D02*
X129072566Y-96883855D01*
X129072566Y-96883855D02*
X129186851Y-96845760D01*
X129186851Y-96845760D02*
X129224947Y-96807664D01*
X129224947Y-96807664D02*
X129224947Y-96540998D01*
X129224947Y-96540998D02*
X129072566Y-96540998D01*
X129567804Y-96883855D02*
X129567804Y-96083855D01*
X129567804Y-96083855D02*
X130024947Y-96883855D01*
X130024947Y-96883855D02*
X130024947Y-96083855D01*
X130405899Y-96883855D02*
X130405899Y-96083855D01*
X130405899Y-96083855D02*
X130596375Y-96083855D01*
X130596375Y-96083855D02*
X130710661Y-96121950D01*
X130710661Y-96121950D02*
X130786851Y-96198140D01*
X130786851Y-96198140D02*
X130824946Y-96274331D01*
X130824946Y-96274331D02*
X130863042Y-96426712D01*
X130863042Y-96426712D02*
X130863042Y-96540998D01*
X130863042Y-96540998D02*
X130824946Y-96693379D01*
X130824946Y-96693379D02*
X130786851Y-96769569D01*
X130786851Y-96769569D02*
X130710661Y-96845760D01*
X130710661Y-96845760D02*
X130596375Y-96883855D01*
X130596375Y-96883855D02*
X130405899Y-96883855D01*
X127358280Y-97638521D02*
X127358280Y-98171855D01*
X127167804Y-97333760D02*
X126977327Y-97905188D01*
X126977327Y-97905188D02*
X127472566Y-97905188D01*
X127777328Y-98095664D02*
X127815423Y-98133760D01*
X127815423Y-98133760D02*
X127777328Y-98171855D01*
X127777328Y-98171855D02*
X127739232Y-98133760D01*
X127739232Y-98133760D02*
X127777328Y-98095664D01*
X127777328Y-98095664D02*
X127777328Y-98171855D01*
X127777328Y-97676617D02*
X127815423Y-97714712D01*
X127815423Y-97714712D02*
X127777328Y-97752807D01*
X127777328Y-97752807D02*
X127739232Y-97714712D01*
X127739232Y-97714712D02*
X127777328Y-97676617D01*
X127777328Y-97676617D02*
X127777328Y-97752807D01*
X128729708Y-98133760D02*
X128843994Y-98171855D01*
X128843994Y-98171855D02*
X129034470Y-98171855D01*
X129034470Y-98171855D02*
X129110661Y-98133760D01*
X129110661Y-98133760D02*
X129148756Y-98095664D01*
X129148756Y-98095664D02*
X129186851Y-98019474D01*
X129186851Y-98019474D02*
X129186851Y-97943283D01*
X129186851Y-97943283D02*
X129148756Y-97867093D01*
X129148756Y-97867093D02*
X129110661Y-97828998D01*
X129110661Y-97828998D02*
X129034470Y-97790902D01*
X129034470Y-97790902D02*
X128882089Y-97752807D01*
X128882089Y-97752807D02*
X128805899Y-97714712D01*
X128805899Y-97714712D02*
X128767804Y-97676617D01*
X128767804Y-97676617D02*
X128729708Y-97600426D01*
X128729708Y-97600426D02*
X128729708Y-97524236D01*
X128729708Y-97524236D02*
X128767804Y-97448045D01*
X128767804Y-97448045D02*
X128805899Y-97409950D01*
X128805899Y-97409950D02*
X128882089Y-97371855D01*
X128882089Y-97371855D02*
X129072566Y-97371855D01*
X129072566Y-97371855D02*
X129186851Y-97409950D01*
X129453518Y-97371855D02*
X129643994Y-98171855D01*
X129643994Y-98171855D02*
X129796375Y-97600426D01*
X129796375Y-97600426D02*
X129948756Y-98171855D01*
X129948756Y-98171855D02*
X130139233Y-97371855D01*
X130901138Y-98095664D02*
X130863042Y-98133760D01*
X130863042Y-98133760D02*
X130748757Y-98171855D01*
X130748757Y-98171855D02*
X130672566Y-98171855D01*
X130672566Y-98171855D02*
X130558280Y-98133760D01*
X130558280Y-98133760D02*
X130482090Y-98057569D01*
X130482090Y-98057569D02*
X130443995Y-97981379D01*
X130443995Y-97981379D02*
X130405899Y-97828998D01*
X130405899Y-97828998D02*
X130405899Y-97714712D01*
X130405899Y-97714712D02*
X130443995Y-97562331D01*
X130443995Y-97562331D02*
X130482090Y-97486140D01*
X130482090Y-97486140D02*
X130558280Y-97409950D01*
X130558280Y-97409950D02*
X130672566Y-97371855D01*
X130672566Y-97371855D02*
X130748757Y-97371855D01*
X130748757Y-97371855D02*
X130863042Y-97409950D01*
X130863042Y-97409950D02*
X130901138Y-97448045D01*
X131624947Y-98171855D02*
X131243995Y-98171855D01*
X131243995Y-98171855D02*
X131243995Y-97371855D01*
X131891614Y-98171855D02*
X131891614Y-97371855D01*
X132348757Y-98171855D02*
X132005899Y-97714712D01*
X132348757Y-97371855D02*
X131891614Y-97828998D01*
X132882090Y-98438521D02*
X132882090Y-97295664D01*
X133339233Y-97371855D02*
X133796376Y-97371855D01*
X133567804Y-98171855D02*
X133567804Y-97371855D01*
X134520186Y-98095664D02*
X134482090Y-98133760D01*
X134482090Y-98133760D02*
X134367805Y-98171855D01*
X134367805Y-98171855D02*
X134291614Y-98171855D01*
X134291614Y-98171855D02*
X134177328Y-98133760D01*
X134177328Y-98133760D02*
X134101138Y-98057569D01*
X134101138Y-98057569D02*
X134063043Y-97981379D01*
X134063043Y-97981379D02*
X134024947Y-97828998D01*
X134024947Y-97828998D02*
X134024947Y-97714712D01*
X134024947Y-97714712D02*
X134063043Y-97562331D01*
X134063043Y-97562331D02*
X134101138Y-97486140D01*
X134101138Y-97486140D02*
X134177328Y-97409950D01*
X134177328Y-97409950D02*
X134291614Y-97371855D01*
X134291614Y-97371855D02*
X134367805Y-97371855D01*
X134367805Y-97371855D02*
X134482090Y-97409950D01*
X134482090Y-97409950D02*
X134520186Y-97448045D01*
X134863043Y-98171855D02*
X134863043Y-97371855D01*
X135320186Y-98171855D02*
X134977328Y-97714712D01*
X135320186Y-97371855D02*
X134863043Y-97828998D01*
X127396375Y-98659855D02*
X127015423Y-98659855D01*
X127015423Y-98659855D02*
X126977327Y-99040807D01*
X126977327Y-99040807D02*
X127015423Y-99002712D01*
X127015423Y-99002712D02*
X127091613Y-98964617D01*
X127091613Y-98964617D02*
X127282089Y-98964617D01*
X127282089Y-98964617D02*
X127358280Y-99002712D01*
X127358280Y-99002712D02*
X127396375Y-99040807D01*
X127396375Y-99040807D02*
X127434470Y-99116998D01*
X127434470Y-99116998D02*
X127434470Y-99307474D01*
X127434470Y-99307474D02*
X127396375Y-99383664D01*
X127396375Y-99383664D02*
X127358280Y-99421760D01*
X127358280Y-99421760D02*
X127282089Y-99459855D01*
X127282089Y-99459855D02*
X127091613Y-99459855D01*
X127091613Y-99459855D02*
X127015423Y-99421760D01*
X127015423Y-99421760D02*
X126977327Y-99383664D01*
X127777328Y-99383664D02*
X127815423Y-99421760D01*
X127815423Y-99421760D02*
X127777328Y-99459855D01*
X127777328Y-99459855D02*
X127739232Y-99421760D01*
X127739232Y-99421760D02*
X127777328Y-99383664D01*
X127777328Y-99383664D02*
X127777328Y-99459855D01*
X127777328Y-98964617D02*
X127815423Y-99002712D01*
X127815423Y-99002712D02*
X127777328Y-99040807D01*
X127777328Y-99040807D02*
X127739232Y-99002712D01*
X127739232Y-99002712D02*
X127777328Y-98964617D01*
X127777328Y-98964617D02*
X127777328Y-99040807D01*
X129186851Y-98697950D02*
X129110661Y-98659855D01*
X129110661Y-98659855D02*
X128996375Y-98659855D01*
X128996375Y-98659855D02*
X128882089Y-98697950D01*
X128882089Y-98697950D02*
X128805899Y-98774140D01*
X128805899Y-98774140D02*
X128767804Y-98850331D01*
X128767804Y-98850331D02*
X128729708Y-99002712D01*
X128729708Y-99002712D02*
X128729708Y-99116998D01*
X128729708Y-99116998D02*
X128767804Y-99269379D01*
X128767804Y-99269379D02*
X128805899Y-99345569D01*
X128805899Y-99345569D02*
X128882089Y-99421760D01*
X128882089Y-99421760D02*
X128996375Y-99459855D01*
X128996375Y-99459855D02*
X129072566Y-99459855D01*
X129072566Y-99459855D02*
X129186851Y-99421760D01*
X129186851Y-99421760D02*
X129224947Y-99383664D01*
X129224947Y-99383664D02*
X129224947Y-99116998D01*
X129224947Y-99116998D02*
X129072566Y-99116998D01*
X129567804Y-99459855D02*
X129567804Y-98659855D01*
X129567804Y-98659855D02*
X130024947Y-99459855D01*
X130024947Y-99459855D02*
X130024947Y-98659855D01*
X130405899Y-99459855D02*
X130405899Y-98659855D01*
X130405899Y-98659855D02*
X130596375Y-98659855D01*
X130596375Y-98659855D02*
X130710661Y-98697950D01*
X130710661Y-98697950D02*
X130786851Y-98774140D01*
X130786851Y-98774140D02*
X130824946Y-98850331D01*
X130824946Y-98850331D02*
X130863042Y-99002712D01*
X130863042Y-99002712D02*
X130863042Y-99116998D01*
X130863042Y-99116998D02*
X130824946Y-99269379D01*
X130824946Y-99269379D02*
X130786851Y-99345569D01*
X130786851Y-99345569D02*
X130710661Y-99421760D01*
X130710661Y-99421760D02*
X130596375Y-99459855D01*
X130596375Y-99459855D02*
X130405899Y-99459855D01*
X131777327Y-98621760D02*
X131091613Y-99650331D01*
X132272565Y-99764617D02*
X132234470Y-99726521D01*
X132234470Y-99726521D02*
X132158279Y-99612236D01*
X132158279Y-99612236D02*
X132120184Y-99536045D01*
X132120184Y-99536045D02*
X132082089Y-99421760D01*
X132082089Y-99421760D02*
X132043994Y-99231283D01*
X132043994Y-99231283D02*
X132043994Y-99078902D01*
X132043994Y-99078902D02*
X132082089Y-98888426D01*
X132082089Y-98888426D02*
X132120184Y-98774140D01*
X132120184Y-98774140D02*
X132158279Y-98697950D01*
X132158279Y-98697950D02*
X132234470Y-98583664D01*
X132234470Y-98583664D02*
X132272565Y-98545569D01*
X132958279Y-98659855D02*
X132577327Y-98659855D01*
X132577327Y-98659855D02*
X132539231Y-99040807D01*
X132539231Y-99040807D02*
X132577327Y-99002712D01*
X132577327Y-99002712D02*
X132653517Y-98964617D01*
X132653517Y-98964617D02*
X132843993Y-98964617D01*
X132843993Y-98964617D02*
X132920184Y-99002712D01*
X132920184Y-99002712D02*
X132958279Y-99040807D01*
X132958279Y-99040807D02*
X132996374Y-99116998D01*
X132996374Y-99116998D02*
X132996374Y-99307474D01*
X132996374Y-99307474D02*
X132958279Y-99383664D01*
X132958279Y-99383664D02*
X132920184Y-99421760D01*
X132920184Y-99421760D02*
X132843993Y-99459855D01*
X132843993Y-99459855D02*
X132653517Y-99459855D01*
X132653517Y-99459855D02*
X132577327Y-99421760D01*
X132577327Y-99421760D02*
X132539231Y-99383664D01*
X133224946Y-98659855D02*
X133491613Y-99459855D01*
X133491613Y-99459855D02*
X133758279Y-98659855D01*
X133948755Y-99764617D02*
X133986850Y-99726521D01*
X133986850Y-99726521D02*
X134063041Y-99612236D01*
X134063041Y-99612236D02*
X134101136Y-99536045D01*
X134101136Y-99536045D02*
X134139231Y-99421760D01*
X134139231Y-99421760D02*
X134177327Y-99231283D01*
X134177327Y-99231283D02*
X134177327Y-99078902D01*
X134177327Y-99078902D02*
X134139231Y-98888426D01*
X134139231Y-98888426D02*
X134101136Y-98774140D01*
X134101136Y-98774140D02*
X134063041Y-98697950D01*
X134063041Y-98697950D02*
X133986850Y-98583664D01*
X133986850Y-98583664D02*
X133948755Y-98545569D01*
D11*
X128298458Y-104594819D02*
X127727030Y-104594819D01*
X128012744Y-104594819D02*
X128012744Y-103594819D01*
X128012744Y-103594819D02*
X127917506Y-103737676D01*
X127917506Y-103737676D02*
X127822268Y-103832914D01*
X127822268Y-103832914D02*
X127727030Y-103880533D01*
X128917506Y-103594819D02*
X129012744Y-103594819D01*
X129012744Y-103594819D02*
X129107982Y-103642438D01*
X129107982Y-103642438D02*
X129155601Y-103690057D01*
X129155601Y-103690057D02*
X129203220Y-103785295D01*
X129203220Y-103785295D02*
X129250839Y-103975771D01*
X129250839Y-103975771D02*
X129250839Y-104213866D01*
X129250839Y-104213866D02*
X129203220Y-104404342D01*
X129203220Y-104404342D02*
X129155601Y-104499580D01*
X129155601Y-104499580D02*
X129107982Y-104547200D01*
X129107982Y-104547200D02*
X129012744Y-104594819D01*
X129012744Y-104594819D02*
X128917506Y-104594819D01*
X128917506Y-104594819D02*
X128822268Y-104547200D01*
X128822268Y-104547200D02*
X128774649Y-104499580D01*
X128774649Y-104499580D02*
X128727030Y-104404342D01*
X128727030Y-104404342D02*
X128679411Y-104213866D01*
X128679411Y-104213866D02*
X128679411Y-103975771D01*
X128679411Y-103975771D02*
X128727030Y-103785295D01*
X128727030Y-103785295D02*
X128774649Y-103690057D01*
X128774649Y-103690057D02*
X128822268Y-103642438D01*
X128822268Y-103642438D02*
X128917506Y-103594819D01*
X135480588Y-109674819D02*
X134909160Y-109674819D01*
X135194874Y-109674819D02*
X135194874Y-108674819D01*
X135194874Y-108674819D02*
X135099636Y-108817676D01*
X135099636Y-108817676D02*
X135004398Y-108912914D01*
X135004398Y-108912914D02*
X134909160Y-108960533D01*
X128679411Y-108770057D02*
X128727030Y-108722438D01*
X128727030Y-108722438D02*
X128822268Y-108674819D01*
X128822268Y-108674819D02*
X129060363Y-108674819D01*
X129060363Y-108674819D02*
X129155601Y-108722438D01*
X129155601Y-108722438D02*
X129203220Y-108770057D01*
X129203220Y-108770057D02*
X129250839Y-108865295D01*
X129250839Y-108865295D02*
X129250839Y-108960533D01*
X129250839Y-108960533D02*
X129203220Y-109103390D01*
X129203220Y-109103390D02*
X128631792Y-109674819D01*
X128631792Y-109674819D02*
X129250839Y-109674819D01*
X97024934Y-95704819D02*
X96691601Y-95228628D01*
X96453506Y-95704819D02*
X96453506Y-94704819D01*
X96453506Y-94704819D02*
X96834458Y-94704819D01*
X96834458Y-94704819D02*
X96929696Y-94752438D01*
X96929696Y-94752438D02*
X96977315Y-94800057D01*
X96977315Y-94800057D02*
X97024934Y-94895295D01*
X97024934Y-94895295D02*
X97024934Y-95038152D01*
X97024934Y-95038152D02*
X96977315Y-95133390D01*
X96977315Y-95133390D02*
X96929696Y-95181009D01*
X96929696Y-95181009D02*
X96834458Y-95228628D01*
X96834458Y-95228628D02*
X96453506Y-95228628D01*
X97310649Y-94704819D02*
X97882077Y-94704819D01*
X97596363Y-95704819D02*
X97596363Y-94704819D01*
X98786839Y-95609580D02*
X98739220Y-95657200D01*
X98739220Y-95657200D02*
X98596363Y-95704819D01*
X98596363Y-95704819D02*
X98501125Y-95704819D01*
X98501125Y-95704819D02*
X98358268Y-95657200D01*
X98358268Y-95657200D02*
X98263030Y-95561961D01*
X98263030Y-95561961D02*
X98215411Y-95466723D01*
X98215411Y-95466723D02*
X98167792Y-95276247D01*
X98167792Y-95276247D02*
X98167792Y-95133390D01*
X98167792Y-95133390D02*
X98215411Y-94942914D01*
X98215411Y-94942914D02*
X98263030Y-94847676D01*
X98263030Y-94847676D02*
X98358268Y-94752438D01*
X98358268Y-94752438D02*
X98501125Y-94704819D01*
X98501125Y-94704819D02*
X98596363Y-94704819D01*
X98596363Y-94704819D02*
X98739220Y-94752438D01*
X98739220Y-94752438D02*
X98786839Y-94800057D01*
X99215411Y-95704819D02*
X99215411Y-94704819D01*
X99786839Y-95704819D02*
X99358268Y-95133390D01*
X99786839Y-94704819D02*
X99215411Y-95276247D01*
D10*
X127358280Y-113827855D02*
X127205899Y-113827855D01*
X127205899Y-113827855D02*
X127129708Y-113865950D01*
X127129708Y-113865950D02*
X127091613Y-113904045D01*
X127091613Y-113904045D02*
X127015423Y-114018331D01*
X127015423Y-114018331D02*
X126977327Y-114170712D01*
X126977327Y-114170712D02*
X126977327Y-114475474D01*
X126977327Y-114475474D02*
X127015423Y-114551664D01*
X127015423Y-114551664D02*
X127053518Y-114589760D01*
X127053518Y-114589760D02*
X127129708Y-114627855D01*
X127129708Y-114627855D02*
X127282089Y-114627855D01*
X127282089Y-114627855D02*
X127358280Y-114589760D01*
X127358280Y-114589760D02*
X127396375Y-114551664D01*
X127396375Y-114551664D02*
X127434470Y-114475474D01*
X127434470Y-114475474D02*
X127434470Y-114284998D01*
X127434470Y-114284998D02*
X127396375Y-114208807D01*
X127396375Y-114208807D02*
X127358280Y-114170712D01*
X127358280Y-114170712D02*
X127282089Y-114132617D01*
X127282089Y-114132617D02*
X127129708Y-114132617D01*
X127129708Y-114132617D02*
X127053518Y-114170712D01*
X127053518Y-114170712D02*
X127015423Y-114208807D01*
X127015423Y-114208807D02*
X126977327Y-114284998D01*
X127777328Y-114551664D02*
X127815423Y-114589760D01*
X127815423Y-114589760D02*
X127777328Y-114627855D01*
X127777328Y-114627855D02*
X127739232Y-114589760D01*
X127739232Y-114589760D02*
X127777328Y-114551664D01*
X127777328Y-114551664D02*
X127777328Y-114627855D01*
X127777328Y-114132617D02*
X127815423Y-114170712D01*
X127815423Y-114170712D02*
X127777328Y-114208807D01*
X127777328Y-114208807D02*
X127739232Y-114170712D01*
X127739232Y-114170712D02*
X127777328Y-114132617D01*
X127777328Y-114132617D02*
X127777328Y-114208807D01*
X128729708Y-114589760D02*
X128843994Y-114627855D01*
X128843994Y-114627855D02*
X129034470Y-114627855D01*
X129034470Y-114627855D02*
X129110661Y-114589760D01*
X129110661Y-114589760D02*
X129148756Y-114551664D01*
X129148756Y-114551664D02*
X129186851Y-114475474D01*
X129186851Y-114475474D02*
X129186851Y-114399283D01*
X129186851Y-114399283D02*
X129148756Y-114323093D01*
X129148756Y-114323093D02*
X129110661Y-114284998D01*
X129110661Y-114284998D02*
X129034470Y-114246902D01*
X129034470Y-114246902D02*
X128882089Y-114208807D01*
X128882089Y-114208807D02*
X128805899Y-114170712D01*
X128805899Y-114170712D02*
X128767804Y-114132617D01*
X128767804Y-114132617D02*
X128729708Y-114056426D01*
X128729708Y-114056426D02*
X128729708Y-113980236D01*
X128729708Y-113980236D02*
X128767804Y-113904045D01*
X128767804Y-113904045D02*
X128805899Y-113865950D01*
X128805899Y-113865950D02*
X128882089Y-113827855D01*
X128882089Y-113827855D02*
X129072566Y-113827855D01*
X129072566Y-113827855D02*
X129186851Y-113865950D01*
X129453518Y-113827855D02*
X129643994Y-114627855D01*
X129643994Y-114627855D02*
X129796375Y-114056426D01*
X129796375Y-114056426D02*
X129948756Y-114627855D01*
X129948756Y-114627855D02*
X130139233Y-113827855D01*
X130596376Y-113827855D02*
X130748757Y-113827855D01*
X130748757Y-113827855D02*
X130824947Y-113865950D01*
X130824947Y-113865950D02*
X130901138Y-113942140D01*
X130901138Y-113942140D02*
X130939233Y-114094521D01*
X130939233Y-114094521D02*
X130939233Y-114361188D01*
X130939233Y-114361188D02*
X130901138Y-114513569D01*
X130901138Y-114513569D02*
X130824947Y-114589760D01*
X130824947Y-114589760D02*
X130748757Y-114627855D01*
X130748757Y-114627855D02*
X130596376Y-114627855D01*
X130596376Y-114627855D02*
X130520185Y-114589760D01*
X130520185Y-114589760D02*
X130443995Y-114513569D01*
X130443995Y-114513569D02*
X130405899Y-114361188D01*
X130405899Y-114361188D02*
X130405899Y-114094521D01*
X130405899Y-114094521D02*
X130443995Y-113942140D01*
X130443995Y-113942140D02*
X130520185Y-113865950D01*
X130520185Y-113865950D02*
X130596376Y-113827855D01*
X131472566Y-114894521D02*
X131472566Y-113751664D01*
X131929709Y-113827855D02*
X132386852Y-113827855D01*
X132158280Y-114627855D02*
X132158280Y-113827855D01*
X132653519Y-114627855D02*
X132653519Y-113827855D01*
X132653519Y-113827855D02*
X132843995Y-113827855D01*
X132843995Y-113827855D02*
X132958281Y-113865950D01*
X132958281Y-113865950D02*
X133034471Y-113942140D01*
X133034471Y-113942140D02*
X133072566Y-114018331D01*
X133072566Y-114018331D02*
X133110662Y-114170712D01*
X133110662Y-114170712D02*
X133110662Y-114284998D01*
X133110662Y-114284998D02*
X133072566Y-114437379D01*
X133072566Y-114437379D02*
X133034471Y-114513569D01*
X133034471Y-114513569D02*
X132958281Y-114589760D01*
X132958281Y-114589760D02*
X132843995Y-114627855D01*
X132843995Y-114627855D02*
X132653519Y-114627855D01*
X133605900Y-113827855D02*
X133758281Y-113827855D01*
X133758281Y-113827855D02*
X133834471Y-113865950D01*
X133834471Y-113865950D02*
X133910662Y-113942140D01*
X133910662Y-113942140D02*
X133948757Y-114094521D01*
X133948757Y-114094521D02*
X133948757Y-114361188D01*
X133948757Y-114361188D02*
X133910662Y-114513569D01*
X133910662Y-114513569D02*
X133834471Y-114589760D01*
X133834471Y-114589760D02*
X133758281Y-114627855D01*
X133758281Y-114627855D02*
X133605900Y-114627855D01*
X133605900Y-114627855D02*
X133529709Y-114589760D01*
X133529709Y-114589760D02*
X133453519Y-114513569D01*
X133453519Y-114513569D02*
X133415423Y-114361188D01*
X133415423Y-114361188D02*
X133415423Y-114094521D01*
X133415423Y-114094521D02*
X133453519Y-113942140D01*
X133453519Y-113942140D02*
X133529709Y-113865950D01*
X133529709Y-113865950D02*
X133605900Y-113827855D01*
X126939232Y-115115855D02*
X127472566Y-115115855D01*
X127472566Y-115115855D02*
X127129708Y-115915855D01*
X127777328Y-115839664D02*
X127815423Y-115877760D01*
X127815423Y-115877760D02*
X127777328Y-115915855D01*
X127777328Y-115915855D02*
X127739232Y-115877760D01*
X127739232Y-115877760D02*
X127777328Y-115839664D01*
X127777328Y-115839664D02*
X127777328Y-115915855D01*
X127777328Y-115420617D02*
X127815423Y-115458712D01*
X127815423Y-115458712D02*
X127777328Y-115496807D01*
X127777328Y-115496807D02*
X127739232Y-115458712D01*
X127739232Y-115458712D02*
X127777328Y-115420617D01*
X127777328Y-115420617D02*
X127777328Y-115496807D01*
X128996375Y-116220617D02*
X128958280Y-116182521D01*
X128958280Y-116182521D02*
X128882089Y-116068236D01*
X128882089Y-116068236D02*
X128843994Y-115992045D01*
X128843994Y-115992045D02*
X128805899Y-115877760D01*
X128805899Y-115877760D02*
X128767804Y-115687283D01*
X128767804Y-115687283D02*
X128767804Y-115534902D01*
X128767804Y-115534902D02*
X128805899Y-115344426D01*
X128805899Y-115344426D02*
X128843994Y-115230140D01*
X128843994Y-115230140D02*
X128882089Y-115153950D01*
X128882089Y-115153950D02*
X128958280Y-115039664D01*
X128958280Y-115039664D02*
X128996375Y-115001569D01*
X129301137Y-115382521D02*
X129301137Y-116068236D01*
X129301137Y-116068236D02*
X129263041Y-116144426D01*
X129263041Y-116144426D02*
X129186851Y-116182521D01*
X129186851Y-116182521D02*
X129148756Y-116182521D01*
X129301137Y-115115855D02*
X129263041Y-115153950D01*
X129263041Y-115153950D02*
X129301137Y-115192045D01*
X129301137Y-115192045D02*
X129339232Y-115153950D01*
X129339232Y-115153950D02*
X129301137Y-115115855D01*
X129301137Y-115115855D02*
X129301137Y-115192045D01*
X129796374Y-115915855D02*
X129720184Y-115877760D01*
X129720184Y-115877760D02*
X129682089Y-115801569D01*
X129682089Y-115801569D02*
X129682089Y-115115855D01*
X130101137Y-115839664D02*
X130139232Y-115877760D01*
X130139232Y-115877760D02*
X130101137Y-115915855D01*
X130101137Y-115915855D02*
X130063041Y-115877760D01*
X130063041Y-115877760D02*
X130101137Y-115839664D01*
X130101137Y-115839664D02*
X130101137Y-115915855D01*
X130939232Y-115915855D02*
X130672565Y-115534902D01*
X130482089Y-115915855D02*
X130482089Y-115115855D01*
X130482089Y-115115855D02*
X130786851Y-115115855D01*
X130786851Y-115115855D02*
X130863041Y-115153950D01*
X130863041Y-115153950D02*
X130901136Y-115192045D01*
X130901136Y-115192045D02*
X130939232Y-115268236D01*
X130939232Y-115268236D02*
X130939232Y-115382521D01*
X130939232Y-115382521D02*
X130901136Y-115458712D01*
X130901136Y-115458712D02*
X130863041Y-115496807D01*
X130863041Y-115496807D02*
X130786851Y-115534902D01*
X130786851Y-115534902D02*
X130482089Y-115534902D01*
X131205898Y-115115855D02*
X131739232Y-115915855D01*
X131739232Y-115115855D02*
X131205898Y-115915855D01*
X131967803Y-116220617D02*
X132005898Y-116182521D01*
X132005898Y-116182521D02*
X132082089Y-116068236D01*
X132082089Y-116068236D02*
X132120184Y-115992045D01*
X132120184Y-115992045D02*
X132158279Y-115877760D01*
X132158279Y-115877760D02*
X132196375Y-115687283D01*
X132196375Y-115687283D02*
X132196375Y-115534902D01*
X132196375Y-115534902D02*
X132158279Y-115344426D01*
X132158279Y-115344426D02*
X132120184Y-115230140D01*
X132120184Y-115230140D02*
X132082089Y-115153950D01*
X132082089Y-115153950D02*
X132005898Y-115039664D01*
X132005898Y-115039664D02*
X131967803Y-115001569D01*
X133148755Y-115077760D02*
X132463041Y-116106331D01*
X133643993Y-116220617D02*
X133605898Y-116182521D01*
X133605898Y-116182521D02*
X133529707Y-116068236D01*
X133529707Y-116068236D02*
X133491612Y-115992045D01*
X133491612Y-115992045D02*
X133453517Y-115877760D01*
X133453517Y-115877760D02*
X133415422Y-115687283D01*
X133415422Y-115687283D02*
X133415422Y-115534902D01*
X133415422Y-115534902D02*
X133453517Y-115344426D01*
X133453517Y-115344426D02*
X133491612Y-115230140D01*
X133491612Y-115230140D02*
X133529707Y-115153950D01*
X133529707Y-115153950D02*
X133605898Y-115039664D01*
X133605898Y-115039664D02*
X133643993Y-115001569D01*
X134405898Y-115915855D02*
X134139231Y-115534902D01*
X133948755Y-115915855D02*
X133948755Y-115115855D01*
X133948755Y-115115855D02*
X134253517Y-115115855D01*
X134253517Y-115115855D02*
X134329707Y-115153950D01*
X134329707Y-115153950D02*
X134367802Y-115192045D01*
X134367802Y-115192045D02*
X134405898Y-115268236D01*
X134405898Y-115268236D02*
X134405898Y-115382521D01*
X134405898Y-115382521D02*
X134367802Y-115458712D01*
X134367802Y-115458712D02*
X134329707Y-115496807D01*
X134329707Y-115496807D02*
X134253517Y-115534902D01*
X134253517Y-115534902D02*
X133948755Y-115534902D01*
X134634469Y-115115855D02*
X135091612Y-115115855D01*
X134863040Y-115915855D02*
X134863040Y-115115855D01*
X135815422Y-115839664D02*
X135777326Y-115877760D01*
X135777326Y-115877760D02*
X135663041Y-115915855D01*
X135663041Y-115915855D02*
X135586850Y-115915855D01*
X135586850Y-115915855D02*
X135472564Y-115877760D01*
X135472564Y-115877760D02*
X135396374Y-115801569D01*
X135396374Y-115801569D02*
X135358279Y-115725379D01*
X135358279Y-115725379D02*
X135320183Y-115572998D01*
X135320183Y-115572998D02*
X135320183Y-115458712D01*
X135320183Y-115458712D02*
X135358279Y-115306331D01*
X135358279Y-115306331D02*
X135396374Y-115230140D01*
X135396374Y-115230140D02*
X135472564Y-115153950D01*
X135472564Y-115153950D02*
X135586850Y-115115855D01*
X135586850Y-115115855D02*
X135663041Y-115115855D01*
X135663041Y-115115855D02*
X135777326Y-115153950D01*
X135777326Y-115153950D02*
X135815422Y-115192045D01*
X136158279Y-115915855D02*
X136158279Y-115115855D01*
X136615422Y-115915855D02*
X136272564Y-115458712D01*
X136615422Y-115115855D02*
X136158279Y-115572998D01*
X136882088Y-116220617D02*
X136920183Y-116182521D01*
X136920183Y-116182521D02*
X136996374Y-116068236D01*
X136996374Y-116068236D02*
X137034469Y-115992045D01*
X137034469Y-115992045D02*
X137072564Y-115877760D01*
X137072564Y-115877760D02*
X137110660Y-115687283D01*
X137110660Y-115687283D02*
X137110660Y-115534902D01*
X137110660Y-115534902D02*
X137072564Y-115344426D01*
X137072564Y-115344426D02*
X137034469Y-115230140D01*
X137034469Y-115230140D02*
X136996374Y-115153950D01*
X136996374Y-115153950D02*
X136920183Y-115039664D01*
X136920183Y-115039664D02*
X136882088Y-115001569D01*
X127129708Y-116746712D02*
X127053518Y-116708617D01*
X127053518Y-116708617D02*
X127015423Y-116670521D01*
X127015423Y-116670521D02*
X126977327Y-116594331D01*
X126977327Y-116594331D02*
X126977327Y-116556236D01*
X126977327Y-116556236D02*
X127015423Y-116480045D01*
X127015423Y-116480045D02*
X127053518Y-116441950D01*
X127053518Y-116441950D02*
X127129708Y-116403855D01*
X127129708Y-116403855D02*
X127282089Y-116403855D01*
X127282089Y-116403855D02*
X127358280Y-116441950D01*
X127358280Y-116441950D02*
X127396375Y-116480045D01*
X127396375Y-116480045D02*
X127434470Y-116556236D01*
X127434470Y-116556236D02*
X127434470Y-116594331D01*
X127434470Y-116594331D02*
X127396375Y-116670521D01*
X127396375Y-116670521D02*
X127358280Y-116708617D01*
X127358280Y-116708617D02*
X127282089Y-116746712D01*
X127282089Y-116746712D02*
X127129708Y-116746712D01*
X127129708Y-116746712D02*
X127053518Y-116784807D01*
X127053518Y-116784807D02*
X127015423Y-116822902D01*
X127015423Y-116822902D02*
X126977327Y-116899093D01*
X126977327Y-116899093D02*
X126977327Y-117051474D01*
X126977327Y-117051474D02*
X127015423Y-117127664D01*
X127015423Y-117127664D02*
X127053518Y-117165760D01*
X127053518Y-117165760D02*
X127129708Y-117203855D01*
X127129708Y-117203855D02*
X127282089Y-117203855D01*
X127282089Y-117203855D02*
X127358280Y-117165760D01*
X127358280Y-117165760D02*
X127396375Y-117127664D01*
X127396375Y-117127664D02*
X127434470Y-117051474D01*
X127434470Y-117051474D02*
X127434470Y-116899093D01*
X127434470Y-116899093D02*
X127396375Y-116822902D01*
X127396375Y-116822902D02*
X127358280Y-116784807D01*
X127358280Y-116784807D02*
X127282089Y-116746712D01*
X127777328Y-117127664D02*
X127815423Y-117165760D01*
X127815423Y-117165760D02*
X127777328Y-117203855D01*
X127777328Y-117203855D02*
X127739232Y-117165760D01*
X127739232Y-117165760D02*
X127777328Y-117127664D01*
X127777328Y-117127664D02*
X127777328Y-117203855D01*
X127777328Y-116708617D02*
X127815423Y-116746712D01*
X127815423Y-116746712D02*
X127777328Y-116784807D01*
X127777328Y-116784807D02*
X127739232Y-116746712D01*
X127739232Y-116746712D02*
X127777328Y-116708617D01*
X127777328Y-116708617D02*
X127777328Y-116784807D01*
X128996375Y-117508617D02*
X128958280Y-117470521D01*
X128958280Y-117470521D02*
X128882089Y-117356236D01*
X128882089Y-117356236D02*
X128843994Y-117280045D01*
X128843994Y-117280045D02*
X128805899Y-117165760D01*
X128805899Y-117165760D02*
X128767804Y-116975283D01*
X128767804Y-116975283D02*
X128767804Y-116822902D01*
X128767804Y-116822902D02*
X128805899Y-116632426D01*
X128805899Y-116632426D02*
X128843994Y-116518140D01*
X128843994Y-116518140D02*
X128882089Y-116441950D01*
X128882089Y-116441950D02*
X128958280Y-116327664D01*
X128958280Y-116327664D02*
X128996375Y-116289569D01*
X129301137Y-116670521D02*
X129301137Y-117356236D01*
X129301137Y-117356236D02*
X129263041Y-117432426D01*
X129263041Y-117432426D02*
X129186851Y-117470521D01*
X129186851Y-117470521D02*
X129148756Y-117470521D01*
X129301137Y-116403855D02*
X129263041Y-116441950D01*
X129263041Y-116441950D02*
X129301137Y-116480045D01*
X129301137Y-116480045D02*
X129339232Y-116441950D01*
X129339232Y-116441950D02*
X129301137Y-116403855D01*
X129301137Y-116403855D02*
X129301137Y-116480045D01*
X129796374Y-117203855D02*
X129720184Y-117165760D01*
X129720184Y-117165760D02*
X129682089Y-117089569D01*
X129682089Y-117089569D02*
X129682089Y-116403855D01*
X130101137Y-117127664D02*
X130139232Y-117165760D01*
X130139232Y-117165760D02*
X130101137Y-117203855D01*
X130101137Y-117203855D02*
X130063041Y-117165760D01*
X130063041Y-117165760D02*
X130101137Y-117127664D01*
X130101137Y-117127664D02*
X130101137Y-117203855D01*
X130367803Y-116403855D02*
X130824946Y-116403855D01*
X130596374Y-117203855D02*
X130596374Y-116403855D01*
X131015422Y-116403855D02*
X131548756Y-117203855D01*
X131548756Y-116403855D02*
X131015422Y-117203855D01*
X131777327Y-117508617D02*
X131815422Y-117470521D01*
X131815422Y-117470521D02*
X131891613Y-117356236D01*
X131891613Y-117356236D02*
X131929708Y-117280045D01*
X131929708Y-117280045D02*
X131967803Y-117165760D01*
X131967803Y-117165760D02*
X132005899Y-116975283D01*
X132005899Y-116975283D02*
X132005899Y-116822902D01*
X132005899Y-116822902D02*
X131967803Y-116632426D01*
X131967803Y-116632426D02*
X131929708Y-116518140D01*
X131929708Y-116518140D02*
X131891613Y-116441950D01*
X131891613Y-116441950D02*
X131815422Y-116327664D01*
X131815422Y-116327664D02*
X131777327Y-116289569D01*
X132577327Y-117470521D02*
X132577327Y-116327664D01*
X133034470Y-116403855D02*
X133491613Y-116403855D01*
X133263041Y-117203855D02*
X133263041Y-116403855D01*
X133758280Y-117203855D02*
X133758280Y-116403855D01*
X133758280Y-116403855D02*
X133948756Y-116403855D01*
X133948756Y-116403855D02*
X134063042Y-116441950D01*
X134063042Y-116441950D02*
X134139232Y-116518140D01*
X134139232Y-116518140D02*
X134177327Y-116594331D01*
X134177327Y-116594331D02*
X134215423Y-116746712D01*
X134215423Y-116746712D02*
X134215423Y-116860998D01*
X134215423Y-116860998D02*
X134177327Y-117013379D01*
X134177327Y-117013379D02*
X134139232Y-117089569D01*
X134139232Y-117089569D02*
X134063042Y-117165760D01*
X134063042Y-117165760D02*
X133948756Y-117203855D01*
X133948756Y-117203855D02*
X133758280Y-117203855D01*
X134558280Y-117203855D02*
X134558280Y-116403855D01*
X127053518Y-118491855D02*
X127205899Y-118491855D01*
X127205899Y-118491855D02*
X127282089Y-118453760D01*
X127282089Y-118453760D02*
X127320185Y-118415664D01*
X127320185Y-118415664D02*
X127396375Y-118301379D01*
X127396375Y-118301379D02*
X127434470Y-118148998D01*
X127434470Y-118148998D02*
X127434470Y-117844236D01*
X127434470Y-117844236D02*
X127396375Y-117768045D01*
X127396375Y-117768045D02*
X127358280Y-117729950D01*
X127358280Y-117729950D02*
X127282089Y-117691855D01*
X127282089Y-117691855D02*
X127129708Y-117691855D01*
X127129708Y-117691855D02*
X127053518Y-117729950D01*
X127053518Y-117729950D02*
X127015423Y-117768045D01*
X127015423Y-117768045D02*
X126977327Y-117844236D01*
X126977327Y-117844236D02*
X126977327Y-118034712D01*
X126977327Y-118034712D02*
X127015423Y-118110902D01*
X127015423Y-118110902D02*
X127053518Y-118148998D01*
X127053518Y-118148998D02*
X127129708Y-118187093D01*
X127129708Y-118187093D02*
X127282089Y-118187093D01*
X127282089Y-118187093D02*
X127358280Y-118148998D01*
X127358280Y-118148998D02*
X127396375Y-118110902D01*
X127396375Y-118110902D02*
X127434470Y-118034712D01*
X127777328Y-118415664D02*
X127815423Y-118453760D01*
X127815423Y-118453760D02*
X127777328Y-118491855D01*
X127777328Y-118491855D02*
X127739232Y-118453760D01*
X127739232Y-118453760D02*
X127777328Y-118415664D01*
X127777328Y-118415664D02*
X127777328Y-118491855D01*
X127777328Y-117996617D02*
X127815423Y-118034712D01*
X127815423Y-118034712D02*
X127777328Y-118072807D01*
X127777328Y-118072807D02*
X127739232Y-118034712D01*
X127739232Y-118034712D02*
X127777328Y-117996617D01*
X127777328Y-117996617D02*
X127777328Y-118072807D01*
X129186851Y-117729950D02*
X129110661Y-117691855D01*
X129110661Y-117691855D02*
X128996375Y-117691855D01*
X128996375Y-117691855D02*
X128882089Y-117729950D01*
X128882089Y-117729950D02*
X128805899Y-117806140D01*
X128805899Y-117806140D02*
X128767804Y-117882331D01*
X128767804Y-117882331D02*
X128729708Y-118034712D01*
X128729708Y-118034712D02*
X128729708Y-118148998D01*
X128729708Y-118148998D02*
X128767804Y-118301379D01*
X128767804Y-118301379D02*
X128805899Y-118377569D01*
X128805899Y-118377569D02*
X128882089Y-118453760D01*
X128882089Y-118453760D02*
X128996375Y-118491855D01*
X128996375Y-118491855D02*
X129072566Y-118491855D01*
X129072566Y-118491855D02*
X129186851Y-118453760D01*
X129186851Y-118453760D02*
X129224947Y-118415664D01*
X129224947Y-118415664D02*
X129224947Y-118148998D01*
X129224947Y-118148998D02*
X129072566Y-118148998D01*
X129567804Y-118491855D02*
X129567804Y-117691855D01*
X129567804Y-117691855D02*
X130024947Y-118491855D01*
X130024947Y-118491855D02*
X130024947Y-117691855D01*
X130405899Y-118491855D02*
X130405899Y-117691855D01*
X130405899Y-117691855D02*
X130596375Y-117691855D01*
X130596375Y-117691855D02*
X130710661Y-117729950D01*
X130710661Y-117729950D02*
X130786851Y-117806140D01*
X130786851Y-117806140D02*
X130824946Y-117882331D01*
X130824946Y-117882331D02*
X130863042Y-118034712D01*
X130863042Y-118034712D02*
X130863042Y-118148998D01*
X130863042Y-118148998D02*
X130824946Y-118301379D01*
X130824946Y-118301379D02*
X130786851Y-118377569D01*
X130786851Y-118377569D02*
X130710661Y-118453760D01*
X130710661Y-118453760D02*
X130596375Y-118491855D01*
X130596375Y-118491855D02*
X130405899Y-118491855D01*
X131548756Y-118491855D02*
X131548756Y-117691855D01*
X131548756Y-118453760D02*
X131472565Y-118491855D01*
X131472565Y-118491855D02*
X131320184Y-118491855D01*
X131320184Y-118491855D02*
X131243994Y-118453760D01*
X131243994Y-118453760D02*
X131205899Y-118415664D01*
X131205899Y-118415664D02*
X131167803Y-118339474D01*
X131167803Y-118339474D02*
X131167803Y-118110902D01*
X131167803Y-118110902D02*
X131205899Y-118034712D01*
X131205899Y-118034712D02*
X131243994Y-117996617D01*
X131243994Y-117996617D02*
X131320184Y-117958521D01*
X131320184Y-117958521D02*
X131472565Y-117958521D01*
X131472565Y-117958521D02*
X131548756Y-117996617D01*
X132501137Y-117653760D02*
X131815423Y-118682331D01*
X132996375Y-118796617D02*
X132958280Y-118758521D01*
X132958280Y-118758521D02*
X132882089Y-118644236D01*
X132882089Y-118644236D02*
X132843994Y-118568045D01*
X132843994Y-118568045D02*
X132805899Y-118453760D01*
X132805899Y-118453760D02*
X132767804Y-118263283D01*
X132767804Y-118263283D02*
X132767804Y-118110902D01*
X132767804Y-118110902D02*
X132805899Y-117920426D01*
X132805899Y-117920426D02*
X132843994Y-117806140D01*
X132843994Y-117806140D02*
X132882089Y-117729950D01*
X132882089Y-117729950D02*
X132958280Y-117615664D01*
X132958280Y-117615664D02*
X132996375Y-117577569D01*
X133186851Y-117691855D02*
X133643994Y-117691855D01*
X133415422Y-118491855D02*
X133415422Y-117691855D01*
X134367804Y-118491855D02*
X134101137Y-118110902D01*
X133910661Y-118491855D02*
X133910661Y-117691855D01*
X133910661Y-117691855D02*
X134215423Y-117691855D01*
X134215423Y-117691855D02*
X134291613Y-117729950D01*
X134291613Y-117729950D02*
X134329708Y-117768045D01*
X134329708Y-117768045D02*
X134367804Y-117844236D01*
X134367804Y-117844236D02*
X134367804Y-117958521D01*
X134367804Y-117958521D02*
X134329708Y-118034712D01*
X134329708Y-118034712D02*
X134291613Y-118072807D01*
X134291613Y-118072807D02*
X134215423Y-118110902D01*
X134215423Y-118110902D02*
X133910661Y-118110902D01*
X134672565Y-118453760D02*
X134786851Y-118491855D01*
X134786851Y-118491855D02*
X134977327Y-118491855D01*
X134977327Y-118491855D02*
X135053518Y-118453760D01*
X135053518Y-118453760D02*
X135091613Y-118415664D01*
X135091613Y-118415664D02*
X135129708Y-118339474D01*
X135129708Y-118339474D02*
X135129708Y-118263283D01*
X135129708Y-118263283D02*
X135091613Y-118187093D01*
X135091613Y-118187093D02*
X135053518Y-118148998D01*
X135053518Y-118148998D02*
X134977327Y-118110902D01*
X134977327Y-118110902D02*
X134824946Y-118072807D01*
X134824946Y-118072807D02*
X134748756Y-118034712D01*
X134748756Y-118034712D02*
X134710661Y-117996617D01*
X134710661Y-117996617D02*
X134672565Y-117920426D01*
X134672565Y-117920426D02*
X134672565Y-117844236D01*
X134672565Y-117844236D02*
X134710661Y-117768045D01*
X134710661Y-117768045D02*
X134748756Y-117729950D01*
X134748756Y-117729950D02*
X134824946Y-117691855D01*
X134824946Y-117691855D02*
X135015423Y-117691855D01*
X135015423Y-117691855D02*
X135129708Y-117729950D01*
X135358280Y-117691855D02*
X135815423Y-117691855D01*
X135586851Y-118491855D02*
X135586851Y-117691855D01*
X133190661Y-117469760D02*
X135811614Y-117469760D01*
X136005899Y-118796617D02*
X136043994Y-118758521D01*
X136043994Y-118758521D02*
X136120185Y-118644236D01*
X136120185Y-118644236D02*
X136158280Y-118568045D01*
X136158280Y-118568045D02*
X136196375Y-118453760D01*
X136196375Y-118453760D02*
X136234471Y-118263283D01*
X136234471Y-118263283D02*
X136234471Y-118110902D01*
X136234471Y-118110902D02*
X136196375Y-117920426D01*
X136196375Y-117920426D02*
X136158280Y-117806140D01*
X136158280Y-117806140D02*
X136120185Y-117729950D01*
X136120185Y-117729950D02*
X136043994Y-117615664D01*
X136043994Y-117615664D02*
X136005899Y-117577569D01*
X127434470Y-119779855D02*
X126977327Y-119779855D01*
X127205899Y-119779855D02*
X127205899Y-118979855D01*
X127205899Y-118979855D02*
X127129708Y-119094140D01*
X127129708Y-119094140D02*
X127053518Y-119170331D01*
X127053518Y-119170331D02*
X126977327Y-119208426D01*
X127929709Y-118979855D02*
X128005899Y-118979855D01*
X128005899Y-118979855D02*
X128082090Y-119017950D01*
X128082090Y-119017950D02*
X128120185Y-119056045D01*
X128120185Y-119056045D02*
X128158280Y-119132236D01*
X128158280Y-119132236D02*
X128196375Y-119284617D01*
X128196375Y-119284617D02*
X128196375Y-119475093D01*
X128196375Y-119475093D02*
X128158280Y-119627474D01*
X128158280Y-119627474D02*
X128120185Y-119703664D01*
X128120185Y-119703664D02*
X128082090Y-119741760D01*
X128082090Y-119741760D02*
X128005899Y-119779855D01*
X128005899Y-119779855D02*
X127929709Y-119779855D01*
X127929709Y-119779855D02*
X127853518Y-119741760D01*
X127853518Y-119741760D02*
X127815423Y-119703664D01*
X127815423Y-119703664D02*
X127777328Y-119627474D01*
X127777328Y-119627474D02*
X127739232Y-119475093D01*
X127739232Y-119475093D02*
X127739232Y-119284617D01*
X127739232Y-119284617D02*
X127777328Y-119132236D01*
X127777328Y-119132236D02*
X127815423Y-119056045D01*
X127815423Y-119056045D02*
X127853518Y-119017950D01*
X127853518Y-119017950D02*
X127929709Y-118979855D01*
X128539233Y-119703664D02*
X128577328Y-119741760D01*
X128577328Y-119741760D02*
X128539233Y-119779855D01*
X128539233Y-119779855D02*
X128501137Y-119741760D01*
X128501137Y-119741760D02*
X128539233Y-119703664D01*
X128539233Y-119703664D02*
X128539233Y-119779855D01*
X128539233Y-119284617D02*
X128577328Y-119322712D01*
X128577328Y-119322712D02*
X128539233Y-119360807D01*
X128539233Y-119360807D02*
X128501137Y-119322712D01*
X128501137Y-119322712D02*
X128539233Y-119284617D01*
X128539233Y-119284617D02*
X128539233Y-119360807D01*
X129986852Y-119779855D02*
X129720185Y-119398902D01*
X129529709Y-119779855D02*
X129529709Y-118979855D01*
X129529709Y-118979855D02*
X129834471Y-118979855D01*
X129834471Y-118979855D02*
X129910661Y-119017950D01*
X129910661Y-119017950D02*
X129948756Y-119056045D01*
X129948756Y-119056045D02*
X129986852Y-119132236D01*
X129986852Y-119132236D02*
X129986852Y-119246521D01*
X129986852Y-119246521D02*
X129948756Y-119322712D01*
X129948756Y-119322712D02*
X129910661Y-119360807D01*
X129910661Y-119360807D02*
X129834471Y-119398902D01*
X129834471Y-119398902D02*
X129529709Y-119398902D01*
X130329709Y-119360807D02*
X130596375Y-119360807D01*
X130710661Y-119779855D02*
X130329709Y-119779855D01*
X130329709Y-119779855D02*
X130329709Y-118979855D01*
X130329709Y-118979855D02*
X130710661Y-118979855D01*
X131015423Y-119741760D02*
X131129709Y-119779855D01*
X131129709Y-119779855D02*
X131320185Y-119779855D01*
X131320185Y-119779855D02*
X131396376Y-119741760D01*
X131396376Y-119741760D02*
X131434471Y-119703664D01*
X131434471Y-119703664D02*
X131472566Y-119627474D01*
X131472566Y-119627474D02*
X131472566Y-119551283D01*
X131472566Y-119551283D02*
X131434471Y-119475093D01*
X131434471Y-119475093D02*
X131396376Y-119436998D01*
X131396376Y-119436998D02*
X131320185Y-119398902D01*
X131320185Y-119398902D02*
X131167804Y-119360807D01*
X131167804Y-119360807D02*
X131091614Y-119322712D01*
X131091614Y-119322712D02*
X131053519Y-119284617D01*
X131053519Y-119284617D02*
X131015423Y-119208426D01*
X131015423Y-119208426D02*
X131015423Y-119132236D01*
X131015423Y-119132236D02*
X131053519Y-119056045D01*
X131053519Y-119056045D02*
X131091614Y-119017950D01*
X131091614Y-119017950D02*
X131167804Y-118979855D01*
X131167804Y-118979855D02*
X131358281Y-118979855D01*
X131358281Y-118979855D02*
X131472566Y-119017950D01*
X131815424Y-119360807D02*
X132082090Y-119360807D01*
X132196376Y-119779855D02*
X131815424Y-119779855D01*
X131815424Y-119779855D02*
X131815424Y-118979855D01*
X131815424Y-118979855D02*
X132196376Y-118979855D01*
X132424948Y-118979855D02*
X132882091Y-118979855D01*
X132653519Y-119779855D02*
X132653519Y-118979855D01*
X129419233Y-118757760D02*
X132878282Y-118757760D01*
D12*
X96556244Y-121102219D02*
X96556244Y-120578409D01*
X96556244Y-120578409D02*
X96508625Y-120483171D01*
X96508625Y-120483171D02*
X96413387Y-120435552D01*
X96413387Y-120435552D02*
X96222911Y-120435552D01*
X96222911Y-120435552D02*
X96127673Y-120483171D01*
X96556244Y-121054600D02*
X96461006Y-121102219D01*
X96461006Y-121102219D02*
X96222911Y-121102219D01*
X96222911Y-121102219D02*
X96127673Y-121054600D01*
X96127673Y-121054600D02*
X96080054Y-120959361D01*
X96080054Y-120959361D02*
X96080054Y-120864123D01*
X96080054Y-120864123D02*
X96127673Y-120768885D01*
X96127673Y-120768885D02*
X96222911Y-120721266D01*
X96222911Y-120721266D02*
X96461006Y-120721266D01*
X96461006Y-120721266D02*
X96556244Y-120673647D01*
X97461006Y-121102219D02*
X97461006Y-120102219D01*
X97461006Y-121054600D02*
X97365768Y-121102219D01*
X97365768Y-121102219D02*
X97175292Y-121102219D01*
X97175292Y-121102219D02*
X97080054Y-121054600D01*
X97080054Y-121054600D02*
X97032435Y-121006980D01*
X97032435Y-121006980D02*
X96984816Y-120911742D01*
X96984816Y-120911742D02*
X96984816Y-120626028D01*
X96984816Y-120626028D02*
X97032435Y-120530790D01*
X97032435Y-120530790D02*
X97080054Y-120483171D01*
X97080054Y-120483171D02*
X97175292Y-120435552D01*
X97175292Y-120435552D02*
X97365768Y-120435552D01*
X97365768Y-120435552D02*
X97461006Y-120483171D01*
X98365768Y-121102219D02*
X98365768Y-120578409D01*
X98365768Y-120578409D02*
X98318149Y-120483171D01*
X98318149Y-120483171D02*
X98222911Y-120435552D01*
X98222911Y-120435552D02*
X98032435Y-120435552D01*
X98032435Y-120435552D02*
X97937197Y-120483171D01*
X98365768Y-121054600D02*
X98270530Y-121102219D01*
X98270530Y-121102219D02*
X98032435Y-121102219D01*
X98032435Y-121102219D02*
X97937197Y-121054600D01*
X97937197Y-121054600D02*
X97889578Y-120959361D01*
X97889578Y-120959361D02*
X97889578Y-120864123D01*
X97889578Y-120864123D02*
X97937197Y-120768885D01*
X97937197Y-120768885D02*
X98032435Y-120721266D01*
X98032435Y-120721266D02*
X98270530Y-120721266D01*
X98270530Y-120721266D02*
X98365768Y-120673647D01*
X98841959Y-120435552D02*
X98841959Y-121435552D01*
X98841959Y-120483171D02*
X98937197Y-120435552D01*
X98937197Y-120435552D02*
X99127673Y-120435552D01*
X99127673Y-120435552D02*
X99222911Y-120483171D01*
X99222911Y-120483171D02*
X99270530Y-120530790D01*
X99270530Y-120530790D02*
X99318149Y-120626028D01*
X99318149Y-120626028D02*
X99318149Y-120911742D01*
X99318149Y-120911742D02*
X99270530Y-121006980D01*
X99270530Y-121006980D02*
X99222911Y-121054600D01*
X99222911Y-121054600D02*
X99127673Y-121102219D01*
X99127673Y-121102219D02*
X98937197Y-121102219D01*
X98937197Y-121102219D02*
X98841959Y-121054600D01*
X99603864Y-120435552D02*
X99984816Y-120435552D01*
X99746721Y-120102219D02*
X99746721Y-120959361D01*
X99746721Y-120959361D02*
X99794340Y-121054600D01*
X99794340Y-121054600D02*
X99889578Y-121102219D01*
X99889578Y-121102219D02*
X99984816Y-121102219D01*
X100699102Y-121054600D02*
X100603864Y-121102219D01*
X100603864Y-121102219D02*
X100413388Y-121102219D01*
X100413388Y-121102219D02*
X100318150Y-121054600D01*
X100318150Y-121054600D02*
X100270531Y-120959361D01*
X100270531Y-120959361D02*
X100270531Y-120578409D01*
X100270531Y-120578409D02*
X100318150Y-120483171D01*
X100318150Y-120483171D02*
X100413388Y-120435552D01*
X100413388Y-120435552D02*
X100603864Y-120435552D01*
X100603864Y-120435552D02*
X100699102Y-120483171D01*
X100699102Y-120483171D02*
X100746721Y-120578409D01*
X100746721Y-120578409D02*
X100746721Y-120673647D01*
X100746721Y-120673647D02*
X100270531Y-120768885D01*
X101175293Y-121102219D02*
X101175293Y-120435552D01*
X101175293Y-120626028D02*
X101222912Y-120530790D01*
X101222912Y-120530790D02*
X101270531Y-120483171D01*
X101270531Y-120483171D02*
X101365769Y-120435552D01*
X101365769Y-120435552D02*
X101461007Y-120435552D01*
D11*
X115471411Y-111310057D02*
X115519030Y-111262438D01*
X115519030Y-111262438D02*
X115614268Y-111214819D01*
X115614268Y-111214819D02*
X115852363Y-111214819D01*
X115852363Y-111214819D02*
X115947601Y-111262438D01*
X115947601Y-111262438D02*
X115995220Y-111310057D01*
X115995220Y-111310057D02*
X116042839Y-111405295D01*
X116042839Y-111405295D02*
X116042839Y-111500533D01*
X116042839Y-111500533D02*
X115995220Y-111643390D01*
X115995220Y-111643390D02*
X115423792Y-112214819D01*
X115423792Y-112214819D02*
X116042839Y-112214819D01*
X126622398Y-102054819D02*
X126812874Y-102054819D01*
X126812874Y-102054819D02*
X126908112Y-102007200D01*
X126908112Y-102007200D02*
X126955731Y-101959580D01*
X126955731Y-101959580D02*
X127050969Y-101816723D01*
X127050969Y-101816723D02*
X127098588Y-101626247D01*
X127098588Y-101626247D02*
X127098588Y-101245295D01*
X127098588Y-101245295D02*
X127050969Y-101150057D01*
X127050969Y-101150057D02*
X127003350Y-101102438D01*
X127003350Y-101102438D02*
X126908112Y-101054819D01*
X126908112Y-101054819D02*
X126717636Y-101054819D01*
X126717636Y-101054819D02*
X126622398Y-101102438D01*
X126622398Y-101102438D02*
X126574779Y-101150057D01*
X126574779Y-101150057D02*
X126527160Y-101245295D01*
X126527160Y-101245295D02*
X126527160Y-101483390D01*
X126527160Y-101483390D02*
X126574779Y-101578628D01*
X126574779Y-101578628D02*
X126622398Y-101626247D01*
X126622398Y-101626247D02*
X126717636Y-101673866D01*
X126717636Y-101673866D02*
X126908112Y-101673866D01*
X126908112Y-101673866D02*
X127003350Y-101626247D01*
X127003350Y-101626247D02*
X127050969Y-101578628D01*
X127050969Y-101578628D02*
X127098588Y-101483390D01*
X97024935Y-105055200D02*
X97167792Y-105102819D01*
X97167792Y-105102819D02*
X97405887Y-105102819D01*
X97405887Y-105102819D02*
X97501125Y-105055200D01*
X97501125Y-105055200D02*
X97548744Y-105007580D01*
X97548744Y-105007580D02*
X97596363Y-104912342D01*
X97596363Y-104912342D02*
X97596363Y-104817104D01*
X97596363Y-104817104D02*
X97548744Y-104721866D01*
X97548744Y-104721866D02*
X97501125Y-104674247D01*
X97501125Y-104674247D02*
X97405887Y-104626628D01*
X97405887Y-104626628D02*
X97215411Y-104579009D01*
X97215411Y-104579009D02*
X97120173Y-104531390D01*
X97120173Y-104531390D02*
X97072554Y-104483771D01*
X97072554Y-104483771D02*
X97024935Y-104388533D01*
X97024935Y-104388533D02*
X97024935Y-104293295D01*
X97024935Y-104293295D02*
X97072554Y-104198057D01*
X97072554Y-104198057D02*
X97120173Y-104150438D01*
X97120173Y-104150438D02*
X97215411Y-104102819D01*
X97215411Y-104102819D02*
X97453506Y-104102819D01*
X97453506Y-104102819D02*
X97596363Y-104150438D01*
X97929697Y-104102819D02*
X98167792Y-105102819D01*
X98167792Y-105102819D02*
X98358268Y-104388533D01*
X98358268Y-104388533D02*
X98548744Y-105102819D01*
X98548744Y-105102819D02*
X98786840Y-104102819D01*
X99358268Y-104102819D02*
X99548744Y-104102819D01*
X99548744Y-104102819D02*
X99643982Y-104150438D01*
X99643982Y-104150438D02*
X99739220Y-104245676D01*
X99739220Y-104245676D02*
X99786839Y-104436152D01*
X99786839Y-104436152D02*
X99786839Y-104769485D01*
X99786839Y-104769485D02*
X99739220Y-104959961D01*
X99739220Y-104959961D02*
X99643982Y-105055200D01*
X99643982Y-105055200D02*
X99548744Y-105102819D01*
X99548744Y-105102819D02*
X99358268Y-105102819D01*
X99358268Y-105102819D02*
X99263030Y-105055200D01*
X99263030Y-105055200D02*
X99167792Y-104959961D01*
X99167792Y-104959961D02*
X99120173Y-104769485D01*
X99120173Y-104769485D02*
X99120173Y-104436152D01*
X99120173Y-104436152D02*
X99167792Y-104245676D01*
X99167792Y-104245676D02*
X99263030Y-104150438D01*
X99263030Y-104150438D02*
X99358268Y-104102819D01*
X99691601Y-107404819D02*
X99501125Y-107404819D01*
X99501125Y-107404819D02*
X99405887Y-107452438D01*
X99405887Y-107452438D02*
X99358268Y-107500057D01*
X99358268Y-107500057D02*
X99263030Y-107642914D01*
X99263030Y-107642914D02*
X99215411Y-107833390D01*
X99215411Y-107833390D02*
X99215411Y-108214342D01*
X99215411Y-108214342D02*
X99263030Y-108309580D01*
X99263030Y-108309580D02*
X99310649Y-108357200D01*
X99310649Y-108357200D02*
X99405887Y-108404819D01*
X99405887Y-108404819D02*
X99596363Y-108404819D01*
X99596363Y-108404819D02*
X99691601Y-108357200D01*
X99691601Y-108357200D02*
X99739220Y-108309580D01*
X99739220Y-108309580D02*
X99786839Y-108214342D01*
X99786839Y-108214342D02*
X99786839Y-107976247D01*
X99786839Y-107976247D02*
X99739220Y-107881009D01*
X99739220Y-107881009D02*
X99691601Y-107833390D01*
X99691601Y-107833390D02*
X99596363Y-107785771D01*
X99596363Y-107785771D02*
X99405887Y-107785771D01*
X99405887Y-107785771D02*
X99310649Y-107833390D01*
X99310649Y-107833390D02*
X99263030Y-107881009D01*
X99263030Y-107881009D02*
X99215411Y-107976247D01*
X111556969Y-117564819D02*
X111080779Y-117564819D01*
X111080779Y-117564819D02*
X111033160Y-118041009D01*
X111033160Y-118041009D02*
X111080779Y-117993390D01*
X111080779Y-117993390D02*
X111176017Y-117945771D01*
X111176017Y-117945771D02*
X111414112Y-117945771D01*
X111414112Y-117945771D02*
X111509350Y-117993390D01*
X111509350Y-117993390D02*
X111556969Y-118041009D01*
X111556969Y-118041009D02*
X111604588Y-118136247D01*
X111604588Y-118136247D02*
X111604588Y-118374342D01*
X111604588Y-118374342D02*
X111556969Y-118469580D01*
X111556969Y-118469580D02*
X111509350Y-118517200D01*
X111509350Y-118517200D02*
X111414112Y-118564819D01*
X111414112Y-118564819D02*
X111176017Y-118564819D01*
X111176017Y-118564819D02*
X111080779Y-118517200D01*
X111080779Y-118517200D02*
X111033160Y-118469580D01*
X111890303Y-117564819D02*
X112223636Y-118564819D01*
X112223636Y-118564819D02*
X112556969Y-117564819D01*
X112847618Y-93595819D02*
X112514285Y-93119628D01*
X112276190Y-93595819D02*
X112276190Y-92595819D01*
X112276190Y-92595819D02*
X112657142Y-92595819D01*
X112657142Y-92595819D02*
X112752380Y-92643438D01*
X112752380Y-92643438D02*
X112799999Y-92691057D01*
X112799999Y-92691057D02*
X112847618Y-92786295D01*
X112847618Y-92786295D02*
X112847618Y-92929152D01*
X112847618Y-92929152D02*
X112799999Y-93024390D01*
X112799999Y-93024390D02*
X112752380Y-93072009D01*
X112752380Y-93072009D02*
X112657142Y-93119628D01*
X112657142Y-93119628D02*
X112276190Y-93119628D01*
X113276190Y-93072009D02*
X113609523Y-93072009D01*
X113752380Y-93595819D02*
X113276190Y-93595819D01*
X113276190Y-93595819D02*
X113276190Y-92595819D01*
X113276190Y-92595819D02*
X113752380Y-92595819D01*
X114133333Y-93548200D02*
X114276190Y-93595819D01*
X114276190Y-93595819D02*
X114514285Y-93595819D01*
X114514285Y-93595819D02*
X114609523Y-93548200D01*
X114609523Y-93548200D02*
X114657142Y-93500580D01*
X114657142Y-93500580D02*
X114704761Y-93405342D01*
X114704761Y-93405342D02*
X114704761Y-93310104D01*
X114704761Y-93310104D02*
X114657142Y-93214866D01*
X114657142Y-93214866D02*
X114609523Y-93167247D01*
X114609523Y-93167247D02*
X114514285Y-93119628D01*
X114514285Y-93119628D02*
X114323809Y-93072009D01*
X114323809Y-93072009D02*
X114228571Y-93024390D01*
X114228571Y-93024390D02*
X114180952Y-92976771D01*
X114180952Y-92976771D02*
X114133333Y-92881533D01*
X114133333Y-92881533D02*
X114133333Y-92786295D01*
X114133333Y-92786295D02*
X114180952Y-92691057D01*
X114180952Y-92691057D02*
X114228571Y-92643438D01*
X114228571Y-92643438D02*
X114323809Y-92595819D01*
X114323809Y-92595819D02*
X114561904Y-92595819D01*
X114561904Y-92595819D02*
X114704761Y-92643438D01*
X115133333Y-93072009D02*
X115466666Y-93072009D01*
X115609523Y-93595819D02*
X115133333Y-93595819D01*
X115133333Y-93595819D02*
X115133333Y-92595819D01*
X115133333Y-92595819D02*
X115609523Y-92595819D01*
X115895238Y-92595819D02*
X116466666Y-92595819D01*
X116180952Y-93595819D02*
X116180952Y-92595819D01*
X112138095Y-92318200D02*
X116461905Y-92318200D01*
X108588398Y-98244819D02*
X108778874Y-98244819D01*
X108778874Y-98244819D02*
X108874112Y-98197200D01*
X108874112Y-98197200D02*
X108921731Y-98149580D01*
X108921731Y-98149580D02*
X109016969Y-98006723D01*
X109016969Y-98006723D02*
X109064588Y-97816247D01*
X109064588Y-97816247D02*
X109064588Y-97435295D01*
X109064588Y-97435295D02*
X109016969Y-97340057D01*
X109016969Y-97340057D02*
X108969350Y-97292438D01*
X108969350Y-97292438D02*
X108874112Y-97244819D01*
X108874112Y-97244819D02*
X108683636Y-97244819D01*
X108683636Y-97244819D02*
X108588398Y-97292438D01*
X108588398Y-97292438D02*
X108540779Y-97340057D01*
X108540779Y-97340057D02*
X108493160Y-97435295D01*
X108493160Y-97435295D02*
X108493160Y-97673390D01*
X108493160Y-97673390D02*
X108540779Y-97768628D01*
X108540779Y-97768628D02*
X108588398Y-97816247D01*
X108588398Y-97816247D02*
X108683636Y-97863866D01*
X108683636Y-97863866D02*
X108874112Y-97863866D01*
X108874112Y-97863866D02*
X108969350Y-97816247D01*
X108969350Y-97816247D02*
X109016969Y-97768628D01*
X109016969Y-97768628D02*
X109064588Y-97673390D01*
X113538095Y-109561438D02*
X113442857Y-109513819D01*
X113442857Y-109513819D02*
X113300000Y-109513819D01*
X113300000Y-109513819D02*
X113157143Y-109561438D01*
X113157143Y-109561438D02*
X113061905Y-109656676D01*
X113061905Y-109656676D02*
X113014286Y-109751914D01*
X113014286Y-109751914D02*
X112966667Y-109942390D01*
X112966667Y-109942390D02*
X112966667Y-110085247D01*
X112966667Y-110085247D02*
X113014286Y-110275723D01*
X113014286Y-110275723D02*
X113061905Y-110370961D01*
X113061905Y-110370961D02*
X113157143Y-110466200D01*
X113157143Y-110466200D02*
X113300000Y-110513819D01*
X113300000Y-110513819D02*
X113395238Y-110513819D01*
X113395238Y-110513819D02*
X113538095Y-110466200D01*
X113538095Y-110466200D02*
X113585714Y-110418580D01*
X113585714Y-110418580D02*
X113585714Y-110085247D01*
X113585714Y-110085247D02*
X113395238Y-110085247D01*
X114014286Y-110513819D02*
X114014286Y-109513819D01*
X114014286Y-109513819D02*
X114585714Y-110513819D01*
X114585714Y-110513819D02*
X114585714Y-109513819D01*
X115061905Y-110513819D02*
X115061905Y-109513819D01*
X115061905Y-109513819D02*
X115300000Y-109513819D01*
X115300000Y-109513819D02*
X115442857Y-109561438D01*
X115442857Y-109561438D02*
X115538095Y-109656676D01*
X115538095Y-109656676D02*
X115585714Y-109751914D01*
X115585714Y-109751914D02*
X115633333Y-109942390D01*
X115633333Y-109942390D02*
X115633333Y-110085247D01*
X115633333Y-110085247D02*
X115585714Y-110275723D01*
X115585714Y-110275723D02*
X115538095Y-110370961D01*
X115538095Y-110370961D02*
X115442857Y-110466200D01*
X115442857Y-110466200D02*
X115300000Y-110513819D01*
X115300000Y-110513819D02*
X115061905Y-110513819D01*
X108683636Y-107833390D02*
X108588398Y-107785771D01*
X108588398Y-107785771D02*
X108540779Y-107738152D01*
X108540779Y-107738152D02*
X108493160Y-107642914D01*
X108493160Y-107642914D02*
X108493160Y-107595295D01*
X108493160Y-107595295D02*
X108540779Y-107500057D01*
X108540779Y-107500057D02*
X108588398Y-107452438D01*
X108588398Y-107452438D02*
X108683636Y-107404819D01*
X108683636Y-107404819D02*
X108874112Y-107404819D01*
X108874112Y-107404819D02*
X108969350Y-107452438D01*
X108969350Y-107452438D02*
X109016969Y-107500057D01*
X109016969Y-107500057D02*
X109064588Y-107595295D01*
X109064588Y-107595295D02*
X109064588Y-107642914D01*
X109064588Y-107642914D02*
X109016969Y-107738152D01*
X109016969Y-107738152D02*
X108969350Y-107785771D01*
X108969350Y-107785771D02*
X108874112Y-107833390D01*
X108874112Y-107833390D02*
X108683636Y-107833390D01*
X108683636Y-107833390D02*
X108588398Y-107881009D01*
X108588398Y-107881009D02*
X108540779Y-107928628D01*
X108540779Y-107928628D02*
X108493160Y-108023866D01*
X108493160Y-108023866D02*
X108493160Y-108214342D01*
X108493160Y-108214342D02*
X108540779Y-108309580D01*
X108540779Y-108309580D02*
X108588398Y-108357200D01*
X108588398Y-108357200D02*
X108683636Y-108404819D01*
X108683636Y-108404819D02*
X108874112Y-108404819D01*
X108874112Y-108404819D02*
X108969350Y-108357200D01*
X108969350Y-108357200D02*
X109016969Y-108309580D01*
X109016969Y-108309580D02*
X109064588Y-108214342D01*
X109064588Y-108214342D02*
X109064588Y-108023866D01*
X109064588Y-108023866D02*
X109016969Y-107928628D01*
X109016969Y-107928628D02*
X108969350Y-107881009D01*
X108969350Y-107881009D02*
X108874112Y-107833390D01*
X97786839Y-112484819D02*
X97786839Y-113199104D01*
X97786839Y-113199104D02*
X97739220Y-113341961D01*
X97739220Y-113341961D02*
X97643982Y-113437200D01*
X97643982Y-113437200D02*
X97501125Y-113484819D01*
X97501125Y-113484819D02*
X97405887Y-113484819D01*
X98263030Y-113484819D02*
X98263030Y-112484819D01*
X98263030Y-112484819D02*
X98643982Y-112484819D01*
X98643982Y-112484819D02*
X98739220Y-112532438D01*
X98739220Y-112532438D02*
X98786839Y-112580057D01*
X98786839Y-112580057D02*
X98834458Y-112675295D01*
X98834458Y-112675295D02*
X98834458Y-112818152D01*
X98834458Y-112818152D02*
X98786839Y-112913390D01*
X98786839Y-112913390D02*
X98739220Y-112961009D01*
X98739220Y-112961009D02*
X98643982Y-113008628D01*
X98643982Y-113008628D02*
X98263030Y-113008628D01*
X99786839Y-113484819D02*
X99215411Y-113484819D01*
X99501125Y-113484819D02*
X99501125Y-112484819D01*
X99501125Y-112484819D02*
X99405887Y-112627676D01*
X99405887Y-112627676D02*
X99310649Y-112722914D01*
X99310649Y-112722914D02*
X99215411Y-112770533D01*
X99167792Y-97244819D02*
X99834458Y-97244819D01*
X99834458Y-97244819D02*
X99405887Y-98244819D01*
X108397922Y-94704819D02*
X108969350Y-94704819D01*
X108683636Y-95704819D02*
X108683636Y-94704819D01*
X109874112Y-95704819D02*
X109540779Y-95228628D01*
X109302684Y-95704819D02*
X109302684Y-94704819D01*
X109302684Y-94704819D02*
X109683636Y-94704819D01*
X109683636Y-94704819D02*
X109778874Y-94752438D01*
X109778874Y-94752438D02*
X109826493Y-94800057D01*
X109826493Y-94800057D02*
X109874112Y-94895295D01*
X109874112Y-94895295D02*
X109874112Y-95038152D01*
X109874112Y-95038152D02*
X109826493Y-95133390D01*
X109826493Y-95133390D02*
X109778874Y-95181009D01*
X109778874Y-95181009D02*
X109683636Y-95228628D01*
X109683636Y-95228628D02*
X109302684Y-95228628D01*
X110255065Y-95657200D02*
X110397922Y-95704819D01*
X110397922Y-95704819D02*
X110636017Y-95704819D01*
X110636017Y-95704819D02*
X110731255Y-95657200D01*
X110731255Y-95657200D02*
X110778874Y-95609580D01*
X110778874Y-95609580D02*
X110826493Y-95514342D01*
X110826493Y-95514342D02*
X110826493Y-95419104D01*
X110826493Y-95419104D02*
X110778874Y-95323866D01*
X110778874Y-95323866D02*
X110731255Y-95276247D01*
X110731255Y-95276247D02*
X110636017Y-95228628D01*
X110636017Y-95228628D02*
X110445541Y-95181009D01*
X110445541Y-95181009D02*
X110350303Y-95133390D01*
X110350303Y-95133390D02*
X110302684Y-95085771D01*
X110302684Y-95085771D02*
X110255065Y-94990533D01*
X110255065Y-94990533D02*
X110255065Y-94895295D01*
X110255065Y-94895295D02*
X110302684Y-94800057D01*
X110302684Y-94800057D02*
X110350303Y-94752438D01*
X110350303Y-94752438D02*
X110445541Y-94704819D01*
X110445541Y-94704819D02*
X110683636Y-94704819D01*
X110683636Y-94704819D02*
X110826493Y-94752438D01*
X111112208Y-94704819D02*
X111683636Y-94704819D01*
X111397922Y-95704819D02*
X111397922Y-94704819D01*
X108402684Y-94427200D02*
X111678875Y-94427200D01*
X96501125Y-99784819D02*
X96501125Y-100499104D01*
X96501125Y-100499104D02*
X96453506Y-100641961D01*
X96453506Y-100641961D02*
X96358268Y-100737200D01*
X96358268Y-100737200D02*
X96215411Y-100784819D01*
X96215411Y-100784819D02*
X96120173Y-100784819D01*
X97453506Y-100784819D02*
X96977316Y-100784819D01*
X96977316Y-100784819D02*
X96977316Y-99784819D01*
X97786840Y-100689580D02*
X97834459Y-100737200D01*
X97834459Y-100737200D02*
X97786840Y-100784819D01*
X97786840Y-100784819D02*
X97739221Y-100737200D01*
X97739221Y-100737200D02*
X97786840Y-100689580D01*
X97786840Y-100689580D02*
X97786840Y-100784819D01*
X98834458Y-100784819D02*
X98501125Y-100308628D01*
X98263030Y-100784819D02*
X98263030Y-99784819D01*
X98263030Y-99784819D02*
X98643982Y-99784819D01*
X98643982Y-99784819D02*
X98739220Y-99832438D01*
X98739220Y-99832438D02*
X98786839Y-99880057D01*
X98786839Y-99880057D02*
X98834458Y-99975295D01*
X98834458Y-99975295D02*
X98834458Y-100118152D01*
X98834458Y-100118152D02*
X98786839Y-100213390D01*
X98786839Y-100213390D02*
X98739220Y-100261009D01*
X98739220Y-100261009D02*
X98643982Y-100308628D01*
X98643982Y-100308628D02*
X98263030Y-100308628D01*
X99167792Y-99784819D02*
X99834458Y-100784819D01*
X99834458Y-99784819D02*
X99167792Y-100784819D01*
X113538095Y-102803438D02*
X113442857Y-102755819D01*
X113442857Y-102755819D02*
X113300000Y-102755819D01*
X113300000Y-102755819D02*
X113157143Y-102803438D01*
X113157143Y-102803438D02*
X113061905Y-102898676D01*
X113061905Y-102898676D02*
X113014286Y-102993914D01*
X113014286Y-102993914D02*
X112966667Y-103184390D01*
X112966667Y-103184390D02*
X112966667Y-103327247D01*
X112966667Y-103327247D02*
X113014286Y-103517723D01*
X113014286Y-103517723D02*
X113061905Y-103612961D01*
X113061905Y-103612961D02*
X113157143Y-103708200D01*
X113157143Y-103708200D02*
X113300000Y-103755819D01*
X113300000Y-103755819D02*
X113395238Y-103755819D01*
X113395238Y-103755819D02*
X113538095Y-103708200D01*
X113538095Y-103708200D02*
X113585714Y-103660580D01*
X113585714Y-103660580D02*
X113585714Y-103327247D01*
X113585714Y-103327247D02*
X113395238Y-103327247D01*
X114014286Y-103755819D02*
X114014286Y-102755819D01*
X114014286Y-102755819D02*
X114585714Y-103755819D01*
X114585714Y-103755819D02*
X114585714Y-102755819D01*
X115061905Y-103755819D02*
X115061905Y-102755819D01*
X115061905Y-102755819D02*
X115300000Y-102755819D01*
X115300000Y-102755819D02*
X115442857Y-102803438D01*
X115442857Y-102803438D02*
X115538095Y-102898676D01*
X115538095Y-102898676D02*
X115585714Y-102993914D01*
X115585714Y-102993914D02*
X115633333Y-103184390D01*
X115633333Y-103184390D02*
X115633333Y-103327247D01*
X115633333Y-103327247D02*
X115585714Y-103517723D01*
X115585714Y-103517723D02*
X115538095Y-103612961D01*
X115538095Y-103612961D02*
X115442857Y-103708200D01*
X115442857Y-103708200D02*
X115300000Y-103755819D01*
X115300000Y-103755819D02*
X115061905Y-103755819D01*
X111556969Y-115024819D02*
X111080779Y-115024819D01*
X111080779Y-115024819D02*
X111033160Y-115501009D01*
X111033160Y-115501009D02*
X111080779Y-115453390D01*
X111080779Y-115453390D02*
X111176017Y-115405771D01*
X111176017Y-115405771D02*
X111414112Y-115405771D01*
X111414112Y-115405771D02*
X111509350Y-115453390D01*
X111509350Y-115453390D02*
X111556969Y-115501009D01*
X111556969Y-115501009D02*
X111604588Y-115596247D01*
X111604588Y-115596247D02*
X111604588Y-115834342D01*
X111604588Y-115834342D02*
X111556969Y-115929580D01*
X111556969Y-115929580D02*
X111509350Y-115977200D01*
X111509350Y-115977200D02*
X111414112Y-116024819D01*
X111414112Y-116024819D02*
X111176017Y-116024819D01*
X111176017Y-116024819D02*
X111080779Y-115977200D01*
X111080779Y-115977200D02*
X111033160Y-115929580D01*
X97263030Y-105626819D02*
X97834458Y-105626819D01*
X97548744Y-106626819D02*
X97548744Y-105626819D01*
X98167792Y-106626819D02*
X98167792Y-105626819D01*
X98167792Y-105626819D02*
X98405887Y-105626819D01*
X98405887Y-105626819D02*
X98548744Y-105674438D01*
X98548744Y-105674438D02*
X98643982Y-105769676D01*
X98643982Y-105769676D02*
X98691601Y-105864914D01*
X98691601Y-105864914D02*
X98739220Y-106055390D01*
X98739220Y-106055390D02*
X98739220Y-106198247D01*
X98739220Y-106198247D02*
X98691601Y-106388723D01*
X98691601Y-106388723D02*
X98643982Y-106483961D01*
X98643982Y-106483961D02*
X98548744Y-106579200D01*
X98548744Y-106579200D02*
X98405887Y-106626819D01*
X98405887Y-106626819D02*
X98167792Y-106626819D01*
X99358268Y-105626819D02*
X99548744Y-105626819D01*
X99548744Y-105626819D02*
X99643982Y-105674438D01*
X99643982Y-105674438D02*
X99739220Y-105769676D01*
X99739220Y-105769676D02*
X99786839Y-105960152D01*
X99786839Y-105960152D02*
X99786839Y-106293485D01*
X99786839Y-106293485D02*
X99739220Y-106483961D01*
X99739220Y-106483961D02*
X99643982Y-106579200D01*
X99643982Y-106579200D02*
X99548744Y-106626819D01*
X99548744Y-106626819D02*
X99358268Y-106626819D01*
X99358268Y-106626819D02*
X99263030Y-106579200D01*
X99263030Y-106579200D02*
X99167792Y-106483961D01*
X99167792Y-106483961D02*
X99120173Y-106293485D01*
X99120173Y-106293485D02*
X99120173Y-105960152D01*
X99120173Y-105960152D02*
X99167792Y-105769676D01*
X99167792Y-105769676D02*
X99263030Y-105674438D01*
X99263030Y-105674438D02*
X99358268Y-105626819D01*
X111604588Y-112532438D02*
X111509350Y-112484819D01*
X111509350Y-112484819D02*
X111366493Y-112484819D01*
X111366493Y-112484819D02*
X111223636Y-112532438D01*
X111223636Y-112532438D02*
X111128398Y-112627676D01*
X111128398Y-112627676D02*
X111080779Y-112722914D01*
X111080779Y-112722914D02*
X111033160Y-112913390D01*
X111033160Y-112913390D02*
X111033160Y-113056247D01*
X111033160Y-113056247D02*
X111080779Y-113246723D01*
X111080779Y-113246723D02*
X111128398Y-113341961D01*
X111128398Y-113341961D02*
X111223636Y-113437200D01*
X111223636Y-113437200D02*
X111366493Y-113484819D01*
X111366493Y-113484819D02*
X111461731Y-113484819D01*
X111461731Y-113484819D02*
X111604588Y-113437200D01*
X111604588Y-113437200D02*
X111652207Y-113389580D01*
X111652207Y-113389580D02*
X111652207Y-113056247D01*
X111652207Y-113056247D02*
X111461731Y-113056247D01*
X112080779Y-113484819D02*
X112080779Y-112484819D01*
X112080779Y-112484819D02*
X112652207Y-113484819D01*
X112652207Y-113484819D02*
X112652207Y-112484819D01*
X113128398Y-113484819D02*
X113128398Y-112484819D01*
X113128398Y-112484819D02*
X113366493Y-112484819D01*
X113366493Y-112484819D02*
X113509350Y-112532438D01*
X113509350Y-112532438D02*
X113604588Y-112627676D01*
X113604588Y-112627676D02*
X113652207Y-112722914D01*
X113652207Y-112722914D02*
X113699826Y-112913390D01*
X113699826Y-112913390D02*
X113699826Y-113056247D01*
X113699826Y-113056247D02*
X113652207Y-113246723D01*
X113652207Y-113246723D02*
X113604588Y-113341961D01*
X113604588Y-113341961D02*
X113509350Y-113437200D01*
X113509350Y-113437200D02*
X113366493Y-113484819D01*
X113366493Y-113484819D02*
X113128398Y-113484819D01*
X125066588Y-119834819D02*
X124495160Y-119834819D01*
X124780874Y-119834819D02*
X124780874Y-118834819D01*
X124780874Y-118834819D02*
X124685636Y-118977676D01*
X124685636Y-118977676D02*
X124590398Y-119072914D01*
X124590398Y-119072914D02*
X124495160Y-119120533D01*
X115090458Y-102054819D02*
X114519030Y-102054819D01*
X114804744Y-102054819D02*
X114804744Y-101054819D01*
X114804744Y-101054819D02*
X114709506Y-101197676D01*
X114709506Y-101197676D02*
X114614268Y-101292914D01*
X114614268Y-101292914D02*
X114519030Y-101340533D01*
X115709506Y-101054819D02*
X115804744Y-101054819D01*
X115804744Y-101054819D02*
X115899982Y-101102438D01*
X115899982Y-101102438D02*
X115947601Y-101150057D01*
X115947601Y-101150057D02*
X115995220Y-101245295D01*
X115995220Y-101245295D02*
X116042839Y-101435771D01*
X116042839Y-101435771D02*
X116042839Y-101673866D01*
X116042839Y-101673866D02*
X115995220Y-101864342D01*
X115995220Y-101864342D02*
X115947601Y-101959580D01*
X115947601Y-101959580D02*
X115899982Y-102007200D01*
X115899982Y-102007200D02*
X115804744Y-102054819D01*
X115804744Y-102054819D02*
X115709506Y-102054819D01*
X115709506Y-102054819D02*
X115614268Y-102007200D01*
X115614268Y-102007200D02*
X115566649Y-101959580D01*
X115566649Y-101959580D02*
X115519030Y-101864342D01*
X115519030Y-101864342D02*
X115471411Y-101673866D01*
X115471411Y-101673866D02*
X115471411Y-101435771D01*
X115471411Y-101435771D02*
X115519030Y-101245295D01*
X115519030Y-101245295D02*
X115566649Y-101150057D01*
X115566649Y-101150057D02*
X115614268Y-101102438D01*
X115614268Y-101102438D02*
X115709506Y-101054819D01*
X97786839Y-115024819D02*
X97786839Y-115739104D01*
X97786839Y-115739104D02*
X97739220Y-115881961D01*
X97739220Y-115881961D02*
X97643982Y-115977200D01*
X97643982Y-115977200D02*
X97501125Y-116024819D01*
X97501125Y-116024819D02*
X97405887Y-116024819D01*
X98263030Y-116024819D02*
X98263030Y-115024819D01*
X98263030Y-115024819D02*
X98643982Y-115024819D01*
X98643982Y-115024819D02*
X98739220Y-115072438D01*
X98739220Y-115072438D02*
X98786839Y-115120057D01*
X98786839Y-115120057D02*
X98834458Y-115215295D01*
X98834458Y-115215295D02*
X98834458Y-115358152D01*
X98834458Y-115358152D02*
X98786839Y-115453390D01*
X98786839Y-115453390D02*
X98739220Y-115501009D01*
X98739220Y-115501009D02*
X98643982Y-115548628D01*
X98643982Y-115548628D02*
X98263030Y-115548628D01*
X99215411Y-115120057D02*
X99263030Y-115072438D01*
X99263030Y-115072438D02*
X99358268Y-115024819D01*
X99358268Y-115024819D02*
X99596363Y-115024819D01*
X99596363Y-115024819D02*
X99691601Y-115072438D01*
X99691601Y-115072438D02*
X99739220Y-115120057D01*
X99739220Y-115120057D02*
X99786839Y-115215295D01*
X99786839Y-115215295D02*
X99786839Y-115310533D01*
X99786839Y-115310533D02*
X99739220Y-115453390D01*
X99739220Y-115453390D02*
X99167792Y-116024819D01*
X99167792Y-116024819D02*
X99786839Y-116024819D01*
X109064588Y-99832438D02*
X108969350Y-99784819D01*
X108969350Y-99784819D02*
X108826493Y-99784819D01*
X108826493Y-99784819D02*
X108683636Y-99832438D01*
X108683636Y-99832438D02*
X108588398Y-99927676D01*
X108588398Y-99927676D02*
X108540779Y-100022914D01*
X108540779Y-100022914D02*
X108493160Y-100213390D01*
X108493160Y-100213390D02*
X108493160Y-100356247D01*
X108493160Y-100356247D02*
X108540779Y-100546723D01*
X108540779Y-100546723D02*
X108588398Y-100641961D01*
X108588398Y-100641961D02*
X108683636Y-100737200D01*
X108683636Y-100737200D02*
X108826493Y-100784819D01*
X108826493Y-100784819D02*
X108921731Y-100784819D01*
X108921731Y-100784819D02*
X109064588Y-100737200D01*
X109064588Y-100737200D02*
X109112207Y-100689580D01*
X109112207Y-100689580D02*
X109112207Y-100356247D01*
X109112207Y-100356247D02*
X108921731Y-100356247D01*
X109540779Y-100784819D02*
X109540779Y-99784819D01*
X109540779Y-99784819D02*
X110112207Y-100784819D01*
X110112207Y-100784819D02*
X110112207Y-99784819D01*
X110588398Y-100784819D02*
X110588398Y-99784819D01*
X110588398Y-99784819D02*
X110826493Y-99784819D01*
X110826493Y-99784819D02*
X110969350Y-99832438D01*
X110969350Y-99832438D02*
X111064588Y-99927676D01*
X111064588Y-99927676D02*
X111112207Y-100022914D01*
X111112207Y-100022914D02*
X111159826Y-100213390D01*
X111159826Y-100213390D02*
X111159826Y-100356247D01*
X111159826Y-100356247D02*
X111112207Y-100546723D01*
X111112207Y-100546723D02*
X111064588Y-100641961D01*
X111064588Y-100641961D02*
X110969350Y-100737200D01*
X110969350Y-100737200D02*
X110826493Y-100784819D01*
X110826493Y-100784819D02*
X110588398Y-100784819D01*
X135004398Y-104594819D02*
X135194874Y-104594819D01*
X135194874Y-104594819D02*
X135290112Y-104547200D01*
X135290112Y-104547200D02*
X135337731Y-104499580D01*
X135337731Y-104499580D02*
X135432969Y-104356723D01*
X135432969Y-104356723D02*
X135480588Y-104166247D01*
X135480588Y-104166247D02*
X135480588Y-103785295D01*
X135480588Y-103785295D02*
X135432969Y-103690057D01*
X135432969Y-103690057D02*
X135385350Y-103642438D01*
X135385350Y-103642438D02*
X135290112Y-103594819D01*
X135290112Y-103594819D02*
X135099636Y-103594819D01*
X135099636Y-103594819D02*
X135004398Y-103642438D01*
X135004398Y-103642438D02*
X134956779Y-103690057D01*
X134956779Y-103690057D02*
X134909160Y-103785295D01*
X134909160Y-103785295D02*
X134909160Y-104023390D01*
X134909160Y-104023390D02*
X134956779Y-104118628D01*
X134956779Y-104118628D02*
X135004398Y-104166247D01*
X135004398Y-104166247D02*
X135099636Y-104213866D01*
X135099636Y-104213866D02*
X135290112Y-104213866D01*
X135290112Y-104213866D02*
X135385350Y-104166247D01*
X135385350Y-104166247D02*
X135432969Y-104118628D01*
X135432969Y-104118628D02*
X135480588Y-104023390D01*
D10*
X102930000Y-116840000D02*
X102930000Y-111700000D01*
X102930000Y-116840000D02*
X100270000Y-116840000D01*
X102930000Y-111700000D02*
X100270000Y-111700000D01*
X101600000Y-119440000D02*
X100270000Y-119440000D01*
X100270000Y-119440000D02*
X100270000Y-118110000D01*
X100270000Y-116840000D02*
X100270000Y-111700000D01*
X118685000Y-120710000D02*
X118685000Y-119380000D01*
X120015000Y-120710000D02*
X118685000Y-120710000D01*
X121285000Y-120710000D02*
X123885000Y-120710000D01*
X121285000Y-120710000D02*
X121285000Y-118050000D01*
X123885000Y-120710000D02*
X123885000Y-118050000D01*
X121285000Y-118050000D02*
X123885000Y-118050000D01*
X93980000Y-93920000D02*
X95090000Y-93920000D01*
X95090000Y-93920000D02*
X95090000Y-95250000D01*
X126210000Y-117360000D02*
X126210000Y-114820000D01*
X126210000Y-117360000D02*
X123670000Y-117360000D01*
X125960000Y-117110000D02*
X116610000Y-117110000D01*
X125960000Y-96250000D02*
X125960000Y-117110000D01*
X116610000Y-117110000D02*
X116610000Y-96250000D01*
X116610000Y-96250000D02*
X125960000Y-96250000D01*
X105350000Y-104080000D02*
X106680000Y-104080000D01*
X105350000Y-105410000D02*
X105350000Y-104080000D01*
X105350000Y-106680000D02*
X105350000Y-109280000D01*
X105350000Y-106680000D02*
X108010000Y-106680000D01*
X105350000Y-109280000D02*
X108010000Y-109280000D01*
X108010000Y-106680000D02*
X108010000Y-109280000D01*
X102930000Y-101660000D02*
X101600000Y-101660000D01*
X102930000Y-100330000D02*
X102930000Y-101660000D01*
X102930000Y-99060000D02*
X102930000Y-93920000D01*
X102930000Y-99060000D02*
X100270000Y-99060000D01*
X102930000Y-93920000D02*
X100270000Y-93920000D01*
X100270000Y-99060000D02*
X100270000Y-93920000D01*
X108010000Y-101660000D02*
X106680000Y-101660000D01*
X108010000Y-100330000D02*
X108010000Y-101660000D01*
X108010000Y-99060000D02*
X108010000Y-93920000D01*
X108010000Y-99060000D02*
X105350000Y-99060000D01*
X108010000Y-93920000D02*
X105350000Y-93920000D01*
X105350000Y-99060000D02*
X105350000Y-93920000D01*
X107890000Y-111700000D02*
X109220000Y-111700000D01*
X107890000Y-113030000D02*
X107890000Y-111700000D01*
X107890000Y-114300000D02*
X107890000Y-119440000D01*
X107890000Y-114300000D02*
X110550000Y-114300000D01*
X107890000Y-119440000D02*
X110550000Y-119440000D01*
X110550000Y-114300000D02*
X110550000Y-119440000D01*
X133845000Y-109980000D02*
X132715000Y-109980000D01*
X133845000Y-109220000D02*
X133845000Y-109980000D01*
X133845000Y-108460000D02*
X133845000Y-103445000D01*
X133845000Y-108460000D02*
X133278471Y-108460000D01*
X133845000Y-103445000D02*
X133022530Y-103445000D01*
X132407470Y-103445000D02*
X131752530Y-103445000D01*
X132151529Y-108460000D02*
X132008471Y-108460000D01*
X131955000Y-109915000D02*
X131752530Y-109915000D01*
X131955000Y-109783471D02*
X131955000Y-109915000D01*
X131955000Y-108513471D02*
X131955000Y-108656529D01*
X131137470Y-109915000D02*
X130315000Y-109915000D01*
X131137470Y-103445000D02*
X130315000Y-103445000D01*
X130315000Y-109915000D02*
X130315000Y-103445000D01*
X100270000Y-104080000D02*
X101600000Y-104080000D01*
X100270000Y-105410000D02*
X100270000Y-104080000D01*
X100270000Y-106680000D02*
X100270000Y-109280000D01*
X100270000Y-106680000D02*
X102930000Y-106680000D01*
X100270000Y-109280000D02*
X102930000Y-109280000D01*
X102930000Y-106680000D02*
X102930000Y-109280000D01*
X115630000Y-109280000D02*
X114300000Y-109280000D01*
X115630000Y-107950000D02*
X115630000Y-109280000D01*
X115630000Y-106680000D02*
X115630000Y-104080000D01*
X115630000Y-106680000D02*
X112970000Y-106680000D01*
X115630000Y-104080000D02*
X112970000Y-104080000D01*
X112970000Y-106680000D02*
X112970000Y-104080000D01*
X112970000Y-93920000D02*
X114300000Y-93920000D01*
X112970000Y-95250000D02*
X112970000Y-93920000D01*
X112970000Y-96520000D02*
X112970000Y-99120000D01*
X112970000Y-96520000D02*
X115630000Y-96520000D01*
X112970000Y-99120000D02*
X115630000Y-99120000D01*
X115630000Y-96520000D02*
X115630000Y-99120000D01*
X124385000Y-95576000D02*
X124385000Y-95116000D01*
X124385000Y-95116000D02*
X125385000Y-95116000D01*
X124385000Y-92336000D02*
X124385000Y-91876000D01*
X124385000Y-91876000D02*
X118185000Y-91876000D01*
X118185000Y-95576000D02*
X124385000Y-95576000D01*
X118185000Y-95576000D02*
X118185000Y-95116000D01*
X118185000Y-92336000D02*
X118185000Y-91876000D01*
X122785000Y-94276000D02*
X119935000Y-94276000D01*
X119935000Y-94276000D02*
X119935000Y-93226000D01*
X119935000Y-93226000D02*
X122785000Y-93226000D01*
X122785000Y-93226000D02*
X122785000Y-94276000D01*
D13*
X137795000Y-93345000D02*
G75*
G03*
X135890000Y-91440000I-1905000J0D01*
G01*
X137795000Y-120015000D02*
X137795000Y-93345000D01*
X89535000Y-120015000D02*
G75*
G03*
X91440000Y-121920000I1905000J0D01*
G01*
X91440000Y-121920000D02*
X135890000Y-121920000D01*
X135890000Y-121920000D02*
G75*
G03*
X137795000Y-120015000I0J1905000D01*
G01*
X135890000Y-91440000D02*
X91440000Y-91440000D01*
X91440000Y-91440000D02*
G75*
G03*
X89535000Y-93345000I0J-1905000D01*
G01*
X89535000Y-93345000D02*
X89535000Y-120015000D01*
M02*
