G04 #@! TF.GenerationSoftware,KiCad,Pcbnew,5.1.4-e60b266~84~ubuntu19.04.1*
G04 #@! TF.CreationDate,2019-09-18T22:19:55+02:00*
G04 #@! TF.ProjectId,jlink-tagConnect-adapter,6a6c696e-6b2d-4746-9167-436f6e6e6563,rev?*
G04 #@! TF.SameCoordinates,Original*
G04 #@! TF.FileFunction,Copper,L2,Bot*
G04 #@! TF.FilePolarity,Positive*
%FSLAX46Y46*%
G04 Gerber Fmt 4.6, Leading zero omitted, Abs format (unit mm)*
G04 Created by KiCad (PCBNEW 5.1.4-e60b266~84~ubuntu19.04.1) date 2019-09-18 22:19:55*
%MOMM*%
%LPD*%
G04 APERTURE LIST*
%ADD10C,0.100000*%
%ADD11O,1.700000X1.700000*%
%ADD12R,1.700000X1.700000*%
%ADD13C,0.787400*%
%ADD14R,1.727200X1.727200*%
%ADD15O,1.727200X1.727200*%
%ADD16R,1.500000X1.000000*%
%ADD17C,0.762000*%
%ADD18C,0.250000*%
%ADD19C,0.762000*%
%ADD20C,0.508000*%
%ADD21C,0.254000*%
G04 APERTURE END LIST*
D10*
G36*
X126792000Y-95896000D02*
G01*
X126792000Y-95396000D01*
X126192000Y-95396000D01*
X126192000Y-95896000D01*
X126792000Y-95896000D01*
G37*
G36*
X126792000Y-102246000D02*
G01*
X126792000Y-101746000D01*
X126192000Y-101746000D01*
X126192000Y-102246000D01*
X126792000Y-102246000D01*
G37*
D11*
X143637000Y-86741000D03*
X141097000Y-86741000D03*
X143637000Y-89281000D03*
X141097000Y-89281000D03*
X143637000Y-91821000D03*
X141097000Y-91821000D03*
X143637000Y-94361000D03*
X141097000Y-94361000D03*
X143637000Y-96901000D03*
X141097000Y-96901000D03*
X143637000Y-99441000D03*
X141097000Y-99441000D03*
X143637000Y-101981000D03*
X141097000Y-101981000D03*
X143637000Y-104521000D03*
X141097000Y-104521000D03*
X143637000Y-107061000D03*
X141097000Y-107061000D03*
X143637000Y-109601000D03*
D12*
X141097000Y-109601000D03*
D13*
X104902000Y-110236000D03*
X103632000Y-110236000D03*
X102362000Y-110236000D03*
X101092000Y-110236000D03*
X99822000Y-110236000D03*
X99822000Y-111506000D03*
X101092000Y-111506000D03*
X102362000Y-111506000D03*
X103632000Y-111506000D03*
X104902000Y-111506000D03*
D14*
X99187000Y-93091000D03*
D15*
X101727000Y-93091000D03*
X99187000Y-95631000D03*
X101727000Y-95631000D03*
X99187000Y-98171000D03*
X101727000Y-98171000D03*
X99187000Y-100711000D03*
X101727000Y-100711000D03*
X99187000Y-103251000D03*
X101727000Y-103251000D03*
D12*
X123952000Y-81661000D03*
D11*
X121412000Y-81661000D03*
X118872000Y-81661000D03*
X116332000Y-81661000D03*
X113792000Y-81661000D03*
X111252000Y-81661000D03*
X108712000Y-81661000D03*
D12*
X134112000Y-81661000D03*
D11*
X131572000Y-81661000D03*
X129032000Y-81661000D03*
D12*
X131572000Y-95631000D03*
D11*
X131572000Y-98171000D03*
X131572000Y-100711000D03*
D12*
X113792000Y-96266000D03*
D11*
X111252000Y-96266000D03*
X108712000Y-96266000D03*
X108712000Y-100076000D03*
X111252000Y-100076000D03*
D12*
X113792000Y-100076000D03*
D16*
X126492000Y-94996000D03*
X126492000Y-93696000D03*
X126492000Y-96296000D03*
X126492000Y-102646000D03*
X126492000Y-100046000D03*
X126492000Y-101346000D03*
D17*
X121412000Y-103886000D03*
X123952000Y-109601000D03*
X129032000Y-93726000D03*
X129032000Y-102616000D03*
X128397000Y-115951000D03*
X110617000Y-115951000D03*
X138557000Y-108331000D03*
X111887000Y-92456000D03*
X120142000Y-92456000D03*
X130937000Y-109601000D03*
X113792000Y-108966000D03*
X137922000Y-88011000D03*
D18*
X121412000Y-103886000D02*
X121412000Y-107061000D01*
X121412000Y-107061000D02*
X123952000Y-109601000D01*
X123952000Y-109601000D02*
X123952000Y-109601000D01*
D19*
X143637000Y-86741000D02*
X143637000Y-84836000D01*
X143637000Y-86741000D02*
X143637000Y-107061000D01*
D20*
X101727000Y-93091000D02*
X99187000Y-95631000D01*
D19*
X129002000Y-93696000D02*
X129032000Y-93726000D01*
X126492000Y-93696000D02*
X129002000Y-93696000D01*
X129002000Y-102646000D02*
X129032000Y-102616000D01*
X126492000Y-102646000D02*
X129002000Y-102646000D01*
D21*
X143637000Y-107061000D02*
X142367000Y-105791000D01*
X142367000Y-105791000D02*
X138557000Y-105791000D01*
D18*
X123952000Y-81661000D02*
X123952000Y-79756000D01*
X123952000Y-79756000D02*
X123317000Y-79121000D01*
X123317000Y-79121000D02*
X98552000Y-79121000D01*
X98552000Y-79121000D02*
X96012000Y-81661000D01*
X96012000Y-81661000D02*
X96012000Y-103886000D01*
X96012000Y-103886000D02*
X97282000Y-105156000D01*
X97282000Y-105156000D02*
X101092000Y-105156000D01*
X101727000Y-104521000D02*
X101727000Y-103251000D01*
X101092000Y-105156000D02*
X101727000Y-104521000D01*
X121412000Y-81661000D02*
X121412000Y-80391000D01*
X121412000Y-80391000D02*
X120777000Y-79756000D01*
X120777000Y-79756000D02*
X99187000Y-79756000D01*
X99187000Y-79756000D02*
X96647000Y-82296000D01*
X96647000Y-82296000D02*
X96647000Y-102616000D01*
X97282000Y-103251000D02*
X99187000Y-103251000D01*
X96647000Y-102616000D02*
X97282000Y-103251000D01*
D19*
X126492000Y-98171000D02*
X126492000Y-96296000D01*
X126492000Y-98171000D02*
X126492000Y-100046000D01*
X123317000Y-98171000D02*
X115062000Y-89916000D01*
X115062000Y-89916000D02*
X100457000Y-89916000D01*
X99187000Y-91186000D02*
X99187000Y-93091000D01*
X100457000Y-89916000D02*
X99187000Y-91186000D01*
X111252000Y-86106000D02*
X115062000Y-89916000D01*
X111252000Y-81661000D02*
X111252000Y-86106000D01*
X125222000Y-98171000D02*
X123317000Y-98171000D01*
X123317000Y-100076000D02*
X125222000Y-98171000D01*
X126492000Y-98171000D02*
X125222000Y-98171000D01*
X141097000Y-109601000D02*
X130937000Y-109601000D01*
X128397000Y-109601000D02*
X123317000Y-104521000D01*
X123317000Y-104521000D02*
X123317000Y-100076000D01*
X130937000Y-109601000D02*
X128397000Y-109601000D01*
D21*
X142367000Y-93091000D02*
X142367000Y-85471000D01*
X134747000Y-84201000D02*
X134112000Y-83566000D01*
X141097000Y-94361000D02*
X142367000Y-93091000D01*
X142367000Y-85471000D02*
X141097000Y-84201000D01*
X134112000Y-83566000D02*
X134112000Y-81661000D01*
X141097000Y-84201000D02*
X134747000Y-84201000D01*
D18*
X113792000Y-108966000D02*
X113792000Y-100076000D01*
D21*
X141097000Y-96901000D02*
X139192000Y-96901000D01*
X139192000Y-96901000D02*
X137922000Y-95631000D01*
X137922000Y-95631000D02*
X137922000Y-88011000D01*
X137922000Y-88011000D02*
X137922000Y-88011000D01*
X137922000Y-88011000D02*
X137922000Y-88011000D01*
D19*
X141097000Y-86741000D02*
X136652000Y-86741000D01*
X136652000Y-86741000D02*
X134112000Y-89281000D01*
X134112000Y-89281000D02*
X134112000Y-94996000D01*
X133477000Y-95631000D02*
X131572000Y-95631000D01*
X134112000Y-94996000D02*
X133477000Y-95631000D01*
X131572000Y-98171000D02*
X129667000Y-98171000D01*
X129667000Y-98171000D02*
X129032000Y-97536000D01*
X129032000Y-97536000D02*
X129032000Y-95631000D01*
X128397000Y-94996000D02*
X126492000Y-94996000D01*
X129032000Y-95631000D02*
X128397000Y-94996000D01*
X131572000Y-100711000D02*
X129667000Y-100711000D01*
X129032000Y-101346000D02*
X126492000Y-101346000D01*
X129667000Y-100711000D02*
X129032000Y-101346000D01*
D21*
G36*
X122563292Y-98854133D02*
G01*
X122595104Y-98892896D01*
X122749810Y-99019860D01*
X122871341Y-99084819D01*
X122633868Y-99322292D01*
X122595105Y-99354104D01*
X122468141Y-99508810D01*
X122436504Y-99568000D01*
X122373799Y-99685313D01*
X122315702Y-99876830D01*
X122296085Y-100076000D01*
X122301001Y-100125912D01*
X122301000Y-103387731D01*
X122201179Y-103238338D01*
X122059662Y-103096821D01*
X121893256Y-102985632D01*
X121708356Y-102909044D01*
X121512067Y-102870000D01*
X121311933Y-102870000D01*
X121115644Y-102909044D01*
X120930744Y-102985632D01*
X120764338Y-103096821D01*
X120622821Y-103238338D01*
X120511632Y-103404744D01*
X120435044Y-103589644D01*
X120396000Y-103785933D01*
X120396000Y-103986067D01*
X120435044Y-104182356D01*
X120511632Y-104367256D01*
X120622821Y-104533662D01*
X120652000Y-104562841D01*
X120652001Y-107023668D01*
X120648324Y-107061000D01*
X120662998Y-107209985D01*
X120706454Y-107353246D01*
X120777026Y-107485276D01*
X120842536Y-107565099D01*
X120872000Y-107601001D01*
X120900998Y-107624799D01*
X122936000Y-109659803D01*
X122936000Y-109701067D01*
X122975044Y-109897356D01*
X123051632Y-110082256D01*
X123162821Y-110248662D01*
X123304338Y-110390179D01*
X123470744Y-110501368D01*
X123655644Y-110577956D01*
X123851933Y-110617000D01*
X124052067Y-110617000D01*
X124248356Y-110577956D01*
X124433256Y-110501368D01*
X124599662Y-110390179D01*
X124741179Y-110248662D01*
X124852368Y-110082256D01*
X124928956Y-109897356D01*
X124968000Y-109701067D01*
X124968000Y-109500933D01*
X124928956Y-109304644D01*
X124852368Y-109119744D01*
X124741179Y-108953338D01*
X124599662Y-108811821D01*
X124433256Y-108700632D01*
X124248356Y-108624044D01*
X124052067Y-108585000D01*
X124010803Y-108585000D01*
X122172000Y-106746199D01*
X122172000Y-104562841D01*
X122201179Y-104533662D01*
X122301000Y-104384269D01*
X122301000Y-104471098D01*
X122296085Y-104521000D01*
X122301000Y-104570901D01*
X122315702Y-104720170D01*
X122373798Y-104911686D01*
X122468140Y-105088190D01*
X122595104Y-105242896D01*
X122633872Y-105274712D01*
X127643292Y-110284133D01*
X127675104Y-110322896D01*
X127829810Y-110449860D01*
X127926176Y-110501368D01*
X128006312Y-110544202D01*
X128197829Y-110602298D01*
X128397000Y-110621915D01*
X128446902Y-110617000D01*
X139633782Y-110617000D01*
X139657498Y-110695180D01*
X139716463Y-110805494D01*
X139795815Y-110902185D01*
X139892506Y-110981537D01*
X140002820Y-111040502D01*
X140122518Y-111076812D01*
X140247000Y-111089072D01*
X141947000Y-111089072D01*
X142071482Y-111076812D01*
X142191180Y-111040502D01*
X142301494Y-110981537D01*
X142398185Y-110902185D01*
X142477537Y-110805494D01*
X142536502Y-110695180D01*
X142557393Y-110626313D01*
X142581866Y-110656134D01*
X142807986Y-110841706D01*
X143065966Y-110979599D01*
X143345889Y-111064513D01*
X143564050Y-111086000D01*
X143709950Y-111086000D01*
X143928111Y-111064513D01*
X144120001Y-111006304D01*
X144120001Y-116934711D01*
X144105278Y-117084869D01*
X144071047Y-117198246D01*
X144015446Y-117302817D01*
X143940594Y-117394595D01*
X143849335Y-117470091D01*
X143745160Y-117526419D01*
X143632024Y-117561440D01*
X143483979Y-117577000D01*
X96044279Y-117577000D01*
X95894131Y-117562278D01*
X95780754Y-117528047D01*
X95676183Y-117472446D01*
X95584405Y-117397594D01*
X95508909Y-117306335D01*
X95452581Y-117202160D01*
X95417560Y-117089024D01*
X95402000Y-116940979D01*
X95402000Y-109743675D01*
X97421700Y-109743675D01*
X97421700Y-109966325D01*
X97465137Y-110184696D01*
X97550341Y-110390398D01*
X97674039Y-110575524D01*
X97831476Y-110732961D01*
X98016602Y-110856659D01*
X98051224Y-110871000D01*
X98016602Y-110885341D01*
X97831476Y-111009039D01*
X97674039Y-111166476D01*
X97550341Y-111351602D01*
X97465137Y-111557304D01*
X97421700Y-111775675D01*
X97421700Y-111998325D01*
X97465137Y-112216696D01*
X97550341Y-112422398D01*
X97674039Y-112607524D01*
X97831476Y-112764961D01*
X98016602Y-112888659D01*
X98222304Y-112973863D01*
X98440675Y-113017300D01*
X98663325Y-113017300D01*
X98881696Y-112973863D01*
X99087398Y-112888659D01*
X99272524Y-112764961D01*
X99429961Y-112607524D01*
X99508700Y-112489683D01*
X99521939Y-112495167D01*
X99720682Y-112534700D01*
X99923318Y-112534700D01*
X100122061Y-112495167D01*
X100309272Y-112417622D01*
X100457000Y-112318913D01*
X100604728Y-112417622D01*
X100791939Y-112495167D01*
X100990682Y-112534700D01*
X101193318Y-112534700D01*
X101392061Y-112495167D01*
X101579272Y-112417622D01*
X101727000Y-112318913D01*
X101874728Y-112417622D01*
X102061939Y-112495167D01*
X102260682Y-112534700D01*
X102463318Y-112534700D01*
X102662061Y-112495167D01*
X102849272Y-112417622D01*
X102997000Y-112318913D01*
X103144728Y-112417622D01*
X103331939Y-112495167D01*
X103530682Y-112534700D01*
X103733318Y-112534700D01*
X103932061Y-112495167D01*
X104119272Y-112417622D01*
X104267000Y-112318913D01*
X104414728Y-112417622D01*
X104601939Y-112495167D01*
X104800682Y-112534700D01*
X105003318Y-112534700D01*
X105202061Y-112495167D01*
X105389272Y-112417622D01*
X105557758Y-112305043D01*
X105701043Y-112161758D01*
X105813622Y-111993272D01*
X105830341Y-111952908D01*
X105842304Y-111957863D01*
X106060675Y-112001300D01*
X106283325Y-112001300D01*
X106501696Y-111957863D01*
X106707398Y-111872659D01*
X106892524Y-111748961D01*
X107049961Y-111591524D01*
X107173659Y-111406398D01*
X107258863Y-111200696D01*
X107302300Y-110982325D01*
X107302300Y-110759675D01*
X107258863Y-110541304D01*
X107173659Y-110335602D01*
X107049961Y-110150476D01*
X106892524Y-109993039D01*
X106707398Y-109869341D01*
X106501696Y-109784137D01*
X106283325Y-109740700D01*
X106060675Y-109740700D01*
X105842304Y-109784137D01*
X105830341Y-109789092D01*
X105813622Y-109748728D01*
X105701043Y-109580242D01*
X105557758Y-109436957D01*
X105389272Y-109324378D01*
X105202061Y-109246833D01*
X105003318Y-109207300D01*
X104800682Y-109207300D01*
X104601939Y-109246833D01*
X104414728Y-109324378D01*
X104267000Y-109423087D01*
X104119272Y-109324378D01*
X103932061Y-109246833D01*
X103733318Y-109207300D01*
X103530682Y-109207300D01*
X103331939Y-109246833D01*
X103144728Y-109324378D01*
X102997000Y-109423087D01*
X102849272Y-109324378D01*
X102662061Y-109246833D01*
X102463318Y-109207300D01*
X102260682Y-109207300D01*
X102061939Y-109246833D01*
X101874728Y-109324378D01*
X101727000Y-109423087D01*
X101579272Y-109324378D01*
X101392061Y-109246833D01*
X101193318Y-109207300D01*
X100990682Y-109207300D01*
X100791939Y-109246833D01*
X100604728Y-109324378D01*
X100457000Y-109423087D01*
X100309272Y-109324378D01*
X100122061Y-109246833D01*
X99923318Y-109207300D01*
X99720682Y-109207300D01*
X99521939Y-109246833D01*
X99508700Y-109252317D01*
X99429961Y-109134476D01*
X99272524Y-108977039D01*
X99087398Y-108853341D01*
X98881696Y-108768137D01*
X98663325Y-108724700D01*
X98440675Y-108724700D01*
X98222304Y-108768137D01*
X98016602Y-108853341D01*
X97831476Y-108977039D01*
X97674039Y-109134476D01*
X97550341Y-109319602D01*
X97465137Y-109525304D01*
X97421700Y-109743675D01*
X95402000Y-109743675D01*
X95402000Y-104340707D01*
X95423789Y-104367256D01*
X95472000Y-104426001D01*
X95500998Y-104449799D01*
X96718201Y-105667003D01*
X96741999Y-105696001D01*
X96857724Y-105790974D01*
X96989753Y-105861546D01*
X97133014Y-105905003D01*
X97244667Y-105916000D01*
X97244676Y-105916000D01*
X97281999Y-105919676D01*
X97319322Y-105916000D01*
X101054678Y-105916000D01*
X101092000Y-105919676D01*
X101129322Y-105916000D01*
X101129333Y-105916000D01*
X101240986Y-105905003D01*
X101384247Y-105861546D01*
X101516276Y-105790974D01*
X101632001Y-105696001D01*
X101655803Y-105666998D01*
X102238004Y-105084798D01*
X102267001Y-105061001D01*
X102361974Y-104945276D01*
X102432546Y-104813247D01*
X102476003Y-104669986D01*
X102487000Y-104558333D01*
X102487000Y-104558332D01*
X102488488Y-104543220D01*
X102563606Y-104503069D01*
X102791797Y-104315797D01*
X102979069Y-104087606D01*
X103118225Y-103827264D01*
X103203916Y-103544777D01*
X103232851Y-103251000D01*
X103203916Y-102957223D01*
X103118225Y-102674736D01*
X102979069Y-102414394D01*
X102791797Y-102186203D01*
X102563606Y-101998931D01*
X102530060Y-101981000D01*
X102563606Y-101963069D01*
X102791797Y-101775797D01*
X102979069Y-101547606D01*
X103118225Y-101287264D01*
X103203916Y-101004777D01*
X103232851Y-100711000D01*
X103203916Y-100417223D01*
X103118225Y-100134736D01*
X103086830Y-100076000D01*
X107219815Y-100076000D01*
X107248487Y-100367111D01*
X107333401Y-100647034D01*
X107471294Y-100905014D01*
X107656866Y-101131134D01*
X107882986Y-101316706D01*
X108140966Y-101454599D01*
X108420889Y-101539513D01*
X108639050Y-101561000D01*
X108784950Y-101561000D01*
X109003111Y-101539513D01*
X109283034Y-101454599D01*
X109541014Y-101316706D01*
X109767134Y-101131134D01*
X109952706Y-100905014D01*
X109982000Y-100850209D01*
X110011294Y-100905014D01*
X110196866Y-101131134D01*
X110422986Y-101316706D01*
X110680966Y-101454599D01*
X110960889Y-101539513D01*
X111179050Y-101561000D01*
X111324950Y-101561000D01*
X111543111Y-101539513D01*
X111823034Y-101454599D01*
X112081014Y-101316706D01*
X112307134Y-101131134D01*
X112331607Y-101101313D01*
X112352498Y-101170180D01*
X112411463Y-101280494D01*
X112490815Y-101377185D01*
X112587506Y-101456537D01*
X112697820Y-101515502D01*
X112817518Y-101551812D01*
X112942000Y-101564072D01*
X113032001Y-101564072D01*
X113032000Y-108289159D01*
X113002821Y-108318338D01*
X112891632Y-108484744D01*
X112815044Y-108669644D01*
X112776000Y-108865933D01*
X112776000Y-109066067D01*
X112815044Y-109262356D01*
X112891632Y-109447256D01*
X113002821Y-109613662D01*
X113144338Y-109755179D01*
X113310744Y-109866368D01*
X113495644Y-109942956D01*
X113691933Y-109982000D01*
X113892067Y-109982000D01*
X114088356Y-109942956D01*
X114273256Y-109866368D01*
X114439662Y-109755179D01*
X114581179Y-109613662D01*
X114692368Y-109447256D01*
X114768956Y-109262356D01*
X114808000Y-109066067D01*
X114808000Y-108865933D01*
X114768956Y-108669644D01*
X114692368Y-108484744D01*
X114581179Y-108318338D01*
X114552000Y-108289159D01*
X114552000Y-101564072D01*
X114642000Y-101564072D01*
X114766482Y-101551812D01*
X114886180Y-101515502D01*
X114996494Y-101456537D01*
X115093185Y-101377185D01*
X115172537Y-101280494D01*
X115231502Y-101170180D01*
X115267812Y-101050482D01*
X115280072Y-100926000D01*
X115280072Y-99226000D01*
X115267812Y-99101518D01*
X115231502Y-98981820D01*
X115172537Y-98871506D01*
X115093185Y-98774815D01*
X114996494Y-98695463D01*
X114886180Y-98636498D01*
X114766482Y-98600188D01*
X114642000Y-98587928D01*
X112942000Y-98587928D01*
X112817518Y-98600188D01*
X112697820Y-98636498D01*
X112587506Y-98695463D01*
X112490815Y-98774815D01*
X112411463Y-98871506D01*
X112352498Y-98981820D01*
X112331607Y-99050687D01*
X112307134Y-99020866D01*
X112081014Y-98835294D01*
X111823034Y-98697401D01*
X111543111Y-98612487D01*
X111324950Y-98591000D01*
X111179050Y-98591000D01*
X110960889Y-98612487D01*
X110680966Y-98697401D01*
X110422986Y-98835294D01*
X110196866Y-99020866D01*
X110011294Y-99246986D01*
X109982000Y-99301791D01*
X109952706Y-99246986D01*
X109767134Y-99020866D01*
X109541014Y-98835294D01*
X109283034Y-98697401D01*
X109003111Y-98612487D01*
X108784950Y-98591000D01*
X108639050Y-98591000D01*
X108420889Y-98612487D01*
X108140966Y-98697401D01*
X107882986Y-98835294D01*
X107656866Y-99020866D01*
X107471294Y-99246986D01*
X107333401Y-99504966D01*
X107248487Y-99784889D01*
X107219815Y-100076000D01*
X103086830Y-100076000D01*
X102979069Y-99874394D01*
X102791797Y-99646203D01*
X102563606Y-99458931D01*
X102530060Y-99441000D01*
X102563606Y-99423069D01*
X102791797Y-99235797D01*
X102979069Y-99007606D01*
X103118225Y-98747264D01*
X103203916Y-98464777D01*
X103232851Y-98171000D01*
X103203916Y-97877223D01*
X103118225Y-97594736D01*
X102979069Y-97334394D01*
X102791797Y-97106203D01*
X102563606Y-96918931D01*
X102530060Y-96901000D01*
X102563606Y-96883069D01*
X102791797Y-96695797D01*
X102979069Y-96467606D01*
X103086829Y-96266000D01*
X107219815Y-96266000D01*
X107248487Y-96557111D01*
X107333401Y-96837034D01*
X107471294Y-97095014D01*
X107656866Y-97321134D01*
X107882986Y-97506706D01*
X108140966Y-97644599D01*
X108420889Y-97729513D01*
X108639050Y-97751000D01*
X108784950Y-97751000D01*
X109003111Y-97729513D01*
X109283034Y-97644599D01*
X109541014Y-97506706D01*
X109767134Y-97321134D01*
X109952706Y-97095014D01*
X109982000Y-97040209D01*
X110011294Y-97095014D01*
X110196866Y-97321134D01*
X110422986Y-97506706D01*
X110680966Y-97644599D01*
X110960889Y-97729513D01*
X111179050Y-97751000D01*
X111324950Y-97751000D01*
X111543111Y-97729513D01*
X111823034Y-97644599D01*
X112081014Y-97506706D01*
X112307134Y-97321134D01*
X112331607Y-97291313D01*
X112352498Y-97360180D01*
X112411463Y-97470494D01*
X112490815Y-97567185D01*
X112587506Y-97646537D01*
X112697820Y-97705502D01*
X112817518Y-97741812D01*
X112942000Y-97754072D01*
X114642000Y-97754072D01*
X114766482Y-97741812D01*
X114886180Y-97705502D01*
X114996494Y-97646537D01*
X115093185Y-97567185D01*
X115172537Y-97470494D01*
X115231502Y-97360180D01*
X115267812Y-97240482D01*
X115280072Y-97116000D01*
X115280072Y-95416000D01*
X115267812Y-95291518D01*
X115231502Y-95171820D01*
X115172537Y-95061506D01*
X115093185Y-94964815D01*
X114996494Y-94885463D01*
X114886180Y-94826498D01*
X114766482Y-94790188D01*
X114642000Y-94777928D01*
X112942000Y-94777928D01*
X112817518Y-94790188D01*
X112697820Y-94826498D01*
X112587506Y-94885463D01*
X112490815Y-94964815D01*
X112411463Y-95061506D01*
X112352498Y-95171820D01*
X112331607Y-95240687D01*
X112307134Y-95210866D01*
X112081014Y-95025294D01*
X111823034Y-94887401D01*
X111543111Y-94802487D01*
X111324950Y-94781000D01*
X111179050Y-94781000D01*
X110960889Y-94802487D01*
X110680966Y-94887401D01*
X110422986Y-95025294D01*
X110196866Y-95210866D01*
X110011294Y-95436986D01*
X109982000Y-95491791D01*
X109952706Y-95436986D01*
X109767134Y-95210866D01*
X109541014Y-95025294D01*
X109283034Y-94887401D01*
X109003111Y-94802487D01*
X108784950Y-94781000D01*
X108639050Y-94781000D01*
X108420889Y-94802487D01*
X108140966Y-94887401D01*
X107882986Y-95025294D01*
X107656866Y-95210866D01*
X107471294Y-95436986D01*
X107333401Y-95694966D01*
X107248487Y-95974889D01*
X107219815Y-96266000D01*
X103086829Y-96266000D01*
X103118225Y-96207264D01*
X103203916Y-95924777D01*
X103232851Y-95631000D01*
X103203916Y-95337223D01*
X103118225Y-95054736D01*
X102979069Y-94794394D01*
X102791797Y-94566203D01*
X102563606Y-94378931D01*
X102519090Y-94355137D01*
X102615488Y-94297817D01*
X102833854Y-94101293D01*
X103009684Y-93865944D01*
X103136222Y-93600814D01*
X103181958Y-93450026D01*
X103060817Y-93218000D01*
X101854000Y-93218000D01*
X101854000Y-93238000D01*
X101600000Y-93238000D01*
X101600000Y-93218000D01*
X101580000Y-93218000D01*
X101580000Y-92964000D01*
X101600000Y-92964000D01*
X101600000Y-91756536D01*
X101854000Y-91756536D01*
X101854000Y-92964000D01*
X103060817Y-92964000D01*
X103181958Y-92731974D01*
X103136222Y-92581186D01*
X103009684Y-92316056D01*
X102833854Y-92080707D01*
X102615488Y-91884183D01*
X102362978Y-91734036D01*
X102086027Y-91636037D01*
X101854000Y-91756536D01*
X101600000Y-91756536D01*
X101367973Y-91636037D01*
X101091022Y-91734036D01*
X100838512Y-91884183D01*
X100659053Y-92045692D01*
X100640102Y-91983220D01*
X100581137Y-91872906D01*
X100501785Y-91776215D01*
X100405094Y-91696863D01*
X100294780Y-91637898D01*
X100203000Y-91610057D01*
X100203000Y-91606840D01*
X100877841Y-90932000D01*
X114641160Y-90932000D01*
X122563292Y-98854133D01*
X122563292Y-98854133D01*
G37*
X122563292Y-98854133D02*
X122595104Y-98892896D01*
X122749810Y-99019860D01*
X122871341Y-99084819D01*
X122633868Y-99322292D01*
X122595105Y-99354104D01*
X122468141Y-99508810D01*
X122436504Y-99568000D01*
X122373799Y-99685313D01*
X122315702Y-99876830D01*
X122296085Y-100076000D01*
X122301001Y-100125912D01*
X122301000Y-103387731D01*
X122201179Y-103238338D01*
X122059662Y-103096821D01*
X121893256Y-102985632D01*
X121708356Y-102909044D01*
X121512067Y-102870000D01*
X121311933Y-102870000D01*
X121115644Y-102909044D01*
X120930744Y-102985632D01*
X120764338Y-103096821D01*
X120622821Y-103238338D01*
X120511632Y-103404744D01*
X120435044Y-103589644D01*
X120396000Y-103785933D01*
X120396000Y-103986067D01*
X120435044Y-104182356D01*
X120511632Y-104367256D01*
X120622821Y-104533662D01*
X120652000Y-104562841D01*
X120652001Y-107023668D01*
X120648324Y-107061000D01*
X120662998Y-107209985D01*
X120706454Y-107353246D01*
X120777026Y-107485276D01*
X120842536Y-107565099D01*
X120872000Y-107601001D01*
X120900998Y-107624799D01*
X122936000Y-109659803D01*
X122936000Y-109701067D01*
X122975044Y-109897356D01*
X123051632Y-110082256D01*
X123162821Y-110248662D01*
X123304338Y-110390179D01*
X123470744Y-110501368D01*
X123655644Y-110577956D01*
X123851933Y-110617000D01*
X124052067Y-110617000D01*
X124248356Y-110577956D01*
X124433256Y-110501368D01*
X124599662Y-110390179D01*
X124741179Y-110248662D01*
X124852368Y-110082256D01*
X124928956Y-109897356D01*
X124968000Y-109701067D01*
X124968000Y-109500933D01*
X124928956Y-109304644D01*
X124852368Y-109119744D01*
X124741179Y-108953338D01*
X124599662Y-108811821D01*
X124433256Y-108700632D01*
X124248356Y-108624044D01*
X124052067Y-108585000D01*
X124010803Y-108585000D01*
X122172000Y-106746199D01*
X122172000Y-104562841D01*
X122201179Y-104533662D01*
X122301000Y-104384269D01*
X122301000Y-104471098D01*
X122296085Y-104521000D01*
X122301000Y-104570901D01*
X122315702Y-104720170D01*
X122373798Y-104911686D01*
X122468140Y-105088190D01*
X122595104Y-105242896D01*
X122633872Y-105274712D01*
X127643292Y-110284133D01*
X127675104Y-110322896D01*
X127829810Y-110449860D01*
X127926176Y-110501368D01*
X128006312Y-110544202D01*
X128197829Y-110602298D01*
X128397000Y-110621915D01*
X128446902Y-110617000D01*
X139633782Y-110617000D01*
X139657498Y-110695180D01*
X139716463Y-110805494D01*
X139795815Y-110902185D01*
X139892506Y-110981537D01*
X140002820Y-111040502D01*
X140122518Y-111076812D01*
X140247000Y-111089072D01*
X141947000Y-111089072D01*
X142071482Y-111076812D01*
X142191180Y-111040502D01*
X142301494Y-110981537D01*
X142398185Y-110902185D01*
X142477537Y-110805494D01*
X142536502Y-110695180D01*
X142557393Y-110626313D01*
X142581866Y-110656134D01*
X142807986Y-110841706D01*
X143065966Y-110979599D01*
X143345889Y-111064513D01*
X143564050Y-111086000D01*
X143709950Y-111086000D01*
X143928111Y-111064513D01*
X144120001Y-111006304D01*
X144120001Y-116934711D01*
X144105278Y-117084869D01*
X144071047Y-117198246D01*
X144015446Y-117302817D01*
X143940594Y-117394595D01*
X143849335Y-117470091D01*
X143745160Y-117526419D01*
X143632024Y-117561440D01*
X143483979Y-117577000D01*
X96044279Y-117577000D01*
X95894131Y-117562278D01*
X95780754Y-117528047D01*
X95676183Y-117472446D01*
X95584405Y-117397594D01*
X95508909Y-117306335D01*
X95452581Y-117202160D01*
X95417560Y-117089024D01*
X95402000Y-116940979D01*
X95402000Y-109743675D01*
X97421700Y-109743675D01*
X97421700Y-109966325D01*
X97465137Y-110184696D01*
X97550341Y-110390398D01*
X97674039Y-110575524D01*
X97831476Y-110732961D01*
X98016602Y-110856659D01*
X98051224Y-110871000D01*
X98016602Y-110885341D01*
X97831476Y-111009039D01*
X97674039Y-111166476D01*
X97550341Y-111351602D01*
X97465137Y-111557304D01*
X97421700Y-111775675D01*
X97421700Y-111998325D01*
X97465137Y-112216696D01*
X97550341Y-112422398D01*
X97674039Y-112607524D01*
X97831476Y-112764961D01*
X98016602Y-112888659D01*
X98222304Y-112973863D01*
X98440675Y-113017300D01*
X98663325Y-113017300D01*
X98881696Y-112973863D01*
X99087398Y-112888659D01*
X99272524Y-112764961D01*
X99429961Y-112607524D01*
X99508700Y-112489683D01*
X99521939Y-112495167D01*
X99720682Y-112534700D01*
X99923318Y-112534700D01*
X100122061Y-112495167D01*
X100309272Y-112417622D01*
X100457000Y-112318913D01*
X100604728Y-112417622D01*
X100791939Y-112495167D01*
X100990682Y-112534700D01*
X101193318Y-112534700D01*
X101392061Y-112495167D01*
X101579272Y-112417622D01*
X101727000Y-112318913D01*
X101874728Y-112417622D01*
X102061939Y-112495167D01*
X102260682Y-112534700D01*
X102463318Y-112534700D01*
X102662061Y-112495167D01*
X102849272Y-112417622D01*
X102997000Y-112318913D01*
X103144728Y-112417622D01*
X103331939Y-112495167D01*
X103530682Y-112534700D01*
X103733318Y-112534700D01*
X103932061Y-112495167D01*
X104119272Y-112417622D01*
X104267000Y-112318913D01*
X104414728Y-112417622D01*
X104601939Y-112495167D01*
X104800682Y-112534700D01*
X105003318Y-112534700D01*
X105202061Y-112495167D01*
X105389272Y-112417622D01*
X105557758Y-112305043D01*
X105701043Y-112161758D01*
X105813622Y-111993272D01*
X105830341Y-111952908D01*
X105842304Y-111957863D01*
X106060675Y-112001300D01*
X106283325Y-112001300D01*
X106501696Y-111957863D01*
X106707398Y-111872659D01*
X106892524Y-111748961D01*
X107049961Y-111591524D01*
X107173659Y-111406398D01*
X107258863Y-111200696D01*
X107302300Y-110982325D01*
X107302300Y-110759675D01*
X107258863Y-110541304D01*
X107173659Y-110335602D01*
X107049961Y-110150476D01*
X106892524Y-109993039D01*
X106707398Y-109869341D01*
X106501696Y-109784137D01*
X106283325Y-109740700D01*
X106060675Y-109740700D01*
X105842304Y-109784137D01*
X105830341Y-109789092D01*
X105813622Y-109748728D01*
X105701043Y-109580242D01*
X105557758Y-109436957D01*
X105389272Y-109324378D01*
X105202061Y-109246833D01*
X105003318Y-109207300D01*
X104800682Y-109207300D01*
X104601939Y-109246833D01*
X104414728Y-109324378D01*
X104267000Y-109423087D01*
X104119272Y-109324378D01*
X103932061Y-109246833D01*
X103733318Y-109207300D01*
X103530682Y-109207300D01*
X103331939Y-109246833D01*
X103144728Y-109324378D01*
X102997000Y-109423087D01*
X102849272Y-109324378D01*
X102662061Y-109246833D01*
X102463318Y-109207300D01*
X102260682Y-109207300D01*
X102061939Y-109246833D01*
X101874728Y-109324378D01*
X101727000Y-109423087D01*
X101579272Y-109324378D01*
X101392061Y-109246833D01*
X101193318Y-109207300D01*
X100990682Y-109207300D01*
X100791939Y-109246833D01*
X100604728Y-109324378D01*
X100457000Y-109423087D01*
X100309272Y-109324378D01*
X100122061Y-109246833D01*
X99923318Y-109207300D01*
X99720682Y-109207300D01*
X99521939Y-109246833D01*
X99508700Y-109252317D01*
X99429961Y-109134476D01*
X99272524Y-108977039D01*
X99087398Y-108853341D01*
X98881696Y-108768137D01*
X98663325Y-108724700D01*
X98440675Y-108724700D01*
X98222304Y-108768137D01*
X98016602Y-108853341D01*
X97831476Y-108977039D01*
X97674039Y-109134476D01*
X97550341Y-109319602D01*
X97465137Y-109525304D01*
X97421700Y-109743675D01*
X95402000Y-109743675D01*
X95402000Y-104340707D01*
X95423789Y-104367256D01*
X95472000Y-104426001D01*
X95500998Y-104449799D01*
X96718201Y-105667003D01*
X96741999Y-105696001D01*
X96857724Y-105790974D01*
X96989753Y-105861546D01*
X97133014Y-105905003D01*
X97244667Y-105916000D01*
X97244676Y-105916000D01*
X97281999Y-105919676D01*
X97319322Y-105916000D01*
X101054678Y-105916000D01*
X101092000Y-105919676D01*
X101129322Y-105916000D01*
X101129333Y-105916000D01*
X101240986Y-105905003D01*
X101384247Y-105861546D01*
X101516276Y-105790974D01*
X101632001Y-105696001D01*
X101655803Y-105666998D01*
X102238004Y-105084798D01*
X102267001Y-105061001D01*
X102361974Y-104945276D01*
X102432546Y-104813247D01*
X102476003Y-104669986D01*
X102487000Y-104558333D01*
X102487000Y-104558332D01*
X102488488Y-104543220D01*
X102563606Y-104503069D01*
X102791797Y-104315797D01*
X102979069Y-104087606D01*
X103118225Y-103827264D01*
X103203916Y-103544777D01*
X103232851Y-103251000D01*
X103203916Y-102957223D01*
X103118225Y-102674736D01*
X102979069Y-102414394D01*
X102791797Y-102186203D01*
X102563606Y-101998931D01*
X102530060Y-101981000D01*
X102563606Y-101963069D01*
X102791797Y-101775797D01*
X102979069Y-101547606D01*
X103118225Y-101287264D01*
X103203916Y-101004777D01*
X103232851Y-100711000D01*
X103203916Y-100417223D01*
X103118225Y-100134736D01*
X103086830Y-100076000D01*
X107219815Y-100076000D01*
X107248487Y-100367111D01*
X107333401Y-100647034D01*
X107471294Y-100905014D01*
X107656866Y-101131134D01*
X107882986Y-101316706D01*
X108140966Y-101454599D01*
X108420889Y-101539513D01*
X108639050Y-101561000D01*
X108784950Y-101561000D01*
X109003111Y-101539513D01*
X109283034Y-101454599D01*
X109541014Y-101316706D01*
X109767134Y-101131134D01*
X109952706Y-100905014D01*
X109982000Y-100850209D01*
X110011294Y-100905014D01*
X110196866Y-101131134D01*
X110422986Y-101316706D01*
X110680966Y-101454599D01*
X110960889Y-101539513D01*
X111179050Y-101561000D01*
X111324950Y-101561000D01*
X111543111Y-101539513D01*
X111823034Y-101454599D01*
X112081014Y-101316706D01*
X112307134Y-101131134D01*
X112331607Y-101101313D01*
X112352498Y-101170180D01*
X112411463Y-101280494D01*
X112490815Y-101377185D01*
X112587506Y-101456537D01*
X112697820Y-101515502D01*
X112817518Y-101551812D01*
X112942000Y-101564072D01*
X113032001Y-101564072D01*
X113032000Y-108289159D01*
X113002821Y-108318338D01*
X112891632Y-108484744D01*
X112815044Y-108669644D01*
X112776000Y-108865933D01*
X112776000Y-109066067D01*
X112815044Y-109262356D01*
X112891632Y-109447256D01*
X113002821Y-109613662D01*
X113144338Y-109755179D01*
X113310744Y-109866368D01*
X113495644Y-109942956D01*
X113691933Y-109982000D01*
X113892067Y-109982000D01*
X114088356Y-109942956D01*
X114273256Y-109866368D01*
X114439662Y-109755179D01*
X114581179Y-109613662D01*
X114692368Y-109447256D01*
X114768956Y-109262356D01*
X114808000Y-109066067D01*
X114808000Y-108865933D01*
X114768956Y-108669644D01*
X114692368Y-108484744D01*
X114581179Y-108318338D01*
X114552000Y-108289159D01*
X114552000Y-101564072D01*
X114642000Y-101564072D01*
X114766482Y-101551812D01*
X114886180Y-101515502D01*
X114996494Y-101456537D01*
X115093185Y-101377185D01*
X115172537Y-101280494D01*
X115231502Y-101170180D01*
X115267812Y-101050482D01*
X115280072Y-100926000D01*
X115280072Y-99226000D01*
X115267812Y-99101518D01*
X115231502Y-98981820D01*
X115172537Y-98871506D01*
X115093185Y-98774815D01*
X114996494Y-98695463D01*
X114886180Y-98636498D01*
X114766482Y-98600188D01*
X114642000Y-98587928D01*
X112942000Y-98587928D01*
X112817518Y-98600188D01*
X112697820Y-98636498D01*
X112587506Y-98695463D01*
X112490815Y-98774815D01*
X112411463Y-98871506D01*
X112352498Y-98981820D01*
X112331607Y-99050687D01*
X112307134Y-99020866D01*
X112081014Y-98835294D01*
X111823034Y-98697401D01*
X111543111Y-98612487D01*
X111324950Y-98591000D01*
X111179050Y-98591000D01*
X110960889Y-98612487D01*
X110680966Y-98697401D01*
X110422986Y-98835294D01*
X110196866Y-99020866D01*
X110011294Y-99246986D01*
X109982000Y-99301791D01*
X109952706Y-99246986D01*
X109767134Y-99020866D01*
X109541014Y-98835294D01*
X109283034Y-98697401D01*
X109003111Y-98612487D01*
X108784950Y-98591000D01*
X108639050Y-98591000D01*
X108420889Y-98612487D01*
X108140966Y-98697401D01*
X107882986Y-98835294D01*
X107656866Y-99020866D01*
X107471294Y-99246986D01*
X107333401Y-99504966D01*
X107248487Y-99784889D01*
X107219815Y-100076000D01*
X103086830Y-100076000D01*
X102979069Y-99874394D01*
X102791797Y-99646203D01*
X102563606Y-99458931D01*
X102530060Y-99441000D01*
X102563606Y-99423069D01*
X102791797Y-99235797D01*
X102979069Y-99007606D01*
X103118225Y-98747264D01*
X103203916Y-98464777D01*
X103232851Y-98171000D01*
X103203916Y-97877223D01*
X103118225Y-97594736D01*
X102979069Y-97334394D01*
X102791797Y-97106203D01*
X102563606Y-96918931D01*
X102530060Y-96901000D01*
X102563606Y-96883069D01*
X102791797Y-96695797D01*
X102979069Y-96467606D01*
X103086829Y-96266000D01*
X107219815Y-96266000D01*
X107248487Y-96557111D01*
X107333401Y-96837034D01*
X107471294Y-97095014D01*
X107656866Y-97321134D01*
X107882986Y-97506706D01*
X108140966Y-97644599D01*
X108420889Y-97729513D01*
X108639050Y-97751000D01*
X108784950Y-97751000D01*
X109003111Y-97729513D01*
X109283034Y-97644599D01*
X109541014Y-97506706D01*
X109767134Y-97321134D01*
X109952706Y-97095014D01*
X109982000Y-97040209D01*
X110011294Y-97095014D01*
X110196866Y-97321134D01*
X110422986Y-97506706D01*
X110680966Y-97644599D01*
X110960889Y-97729513D01*
X111179050Y-97751000D01*
X111324950Y-97751000D01*
X111543111Y-97729513D01*
X111823034Y-97644599D01*
X112081014Y-97506706D01*
X112307134Y-97321134D01*
X112331607Y-97291313D01*
X112352498Y-97360180D01*
X112411463Y-97470494D01*
X112490815Y-97567185D01*
X112587506Y-97646537D01*
X112697820Y-97705502D01*
X112817518Y-97741812D01*
X112942000Y-97754072D01*
X114642000Y-97754072D01*
X114766482Y-97741812D01*
X114886180Y-97705502D01*
X114996494Y-97646537D01*
X115093185Y-97567185D01*
X115172537Y-97470494D01*
X115231502Y-97360180D01*
X115267812Y-97240482D01*
X115280072Y-97116000D01*
X115280072Y-95416000D01*
X115267812Y-95291518D01*
X115231502Y-95171820D01*
X115172537Y-95061506D01*
X115093185Y-94964815D01*
X114996494Y-94885463D01*
X114886180Y-94826498D01*
X114766482Y-94790188D01*
X114642000Y-94777928D01*
X112942000Y-94777928D01*
X112817518Y-94790188D01*
X112697820Y-94826498D01*
X112587506Y-94885463D01*
X112490815Y-94964815D01*
X112411463Y-95061506D01*
X112352498Y-95171820D01*
X112331607Y-95240687D01*
X112307134Y-95210866D01*
X112081014Y-95025294D01*
X111823034Y-94887401D01*
X111543111Y-94802487D01*
X111324950Y-94781000D01*
X111179050Y-94781000D01*
X110960889Y-94802487D01*
X110680966Y-94887401D01*
X110422986Y-95025294D01*
X110196866Y-95210866D01*
X110011294Y-95436986D01*
X109982000Y-95491791D01*
X109952706Y-95436986D01*
X109767134Y-95210866D01*
X109541014Y-95025294D01*
X109283034Y-94887401D01*
X109003111Y-94802487D01*
X108784950Y-94781000D01*
X108639050Y-94781000D01*
X108420889Y-94802487D01*
X108140966Y-94887401D01*
X107882986Y-95025294D01*
X107656866Y-95210866D01*
X107471294Y-95436986D01*
X107333401Y-95694966D01*
X107248487Y-95974889D01*
X107219815Y-96266000D01*
X103086829Y-96266000D01*
X103118225Y-96207264D01*
X103203916Y-95924777D01*
X103232851Y-95631000D01*
X103203916Y-95337223D01*
X103118225Y-95054736D01*
X102979069Y-94794394D01*
X102791797Y-94566203D01*
X102563606Y-94378931D01*
X102519090Y-94355137D01*
X102615488Y-94297817D01*
X102833854Y-94101293D01*
X103009684Y-93865944D01*
X103136222Y-93600814D01*
X103181958Y-93450026D01*
X103060817Y-93218000D01*
X101854000Y-93218000D01*
X101854000Y-93238000D01*
X101600000Y-93238000D01*
X101600000Y-93218000D01*
X101580000Y-93218000D01*
X101580000Y-92964000D01*
X101600000Y-92964000D01*
X101600000Y-91756536D01*
X101854000Y-91756536D01*
X101854000Y-92964000D01*
X103060817Y-92964000D01*
X103181958Y-92731974D01*
X103136222Y-92581186D01*
X103009684Y-92316056D01*
X102833854Y-92080707D01*
X102615488Y-91884183D01*
X102362978Y-91734036D01*
X102086027Y-91636037D01*
X101854000Y-91756536D01*
X101600000Y-91756536D01*
X101367973Y-91636037D01*
X101091022Y-91734036D01*
X100838512Y-91884183D01*
X100659053Y-92045692D01*
X100640102Y-91983220D01*
X100581137Y-91872906D01*
X100501785Y-91776215D01*
X100405094Y-91696863D01*
X100294780Y-91637898D01*
X100203000Y-91610057D01*
X100203000Y-91606840D01*
X100877841Y-90932000D01*
X114641160Y-90932000D01*
X122563292Y-98854133D01*
G36*
X136906000Y-88111067D02*
G01*
X136945044Y-88307356D01*
X137021632Y-88492256D01*
X137132821Y-88658662D01*
X137160001Y-88685842D01*
X137160000Y-95593577D01*
X137156314Y-95631000D01*
X137160000Y-95668423D01*
X137160000Y-95668425D01*
X137171026Y-95780377D01*
X137214598Y-95924014D01*
X137226983Y-95947185D01*
X137285355Y-96056392D01*
X137298153Y-96071986D01*
X137380578Y-96172422D01*
X137409654Y-96196284D01*
X138626721Y-97413352D01*
X138650578Y-97442422D01*
X138766608Y-97537645D01*
X138898985Y-97608402D01*
X139042622Y-97651974D01*
X139154574Y-97663000D01*
X139154576Y-97663000D01*
X139191999Y-97666686D01*
X139229422Y-97663000D01*
X139820474Y-97663000D01*
X139856294Y-97730014D01*
X140041866Y-97956134D01*
X140267986Y-98141706D01*
X140322791Y-98171000D01*
X140267986Y-98200294D01*
X140041866Y-98385866D01*
X139856294Y-98611986D01*
X139718401Y-98869966D01*
X139633487Y-99149889D01*
X139604815Y-99441000D01*
X139633487Y-99732111D01*
X139718401Y-100012034D01*
X139856294Y-100270014D01*
X140041866Y-100496134D01*
X140267986Y-100681706D01*
X140322791Y-100711000D01*
X140267986Y-100740294D01*
X140041866Y-100925866D01*
X139856294Y-101151986D01*
X139718401Y-101409966D01*
X139633487Y-101689889D01*
X139604815Y-101981000D01*
X139633487Y-102272111D01*
X139718401Y-102552034D01*
X139856294Y-102810014D01*
X140041866Y-103036134D01*
X140267986Y-103221706D01*
X140322791Y-103251000D01*
X140267986Y-103280294D01*
X140041866Y-103465866D01*
X139856294Y-103691986D01*
X139718401Y-103949966D01*
X139633487Y-104229889D01*
X139604815Y-104521000D01*
X139633487Y-104812111D01*
X139718401Y-105092034D01*
X139856294Y-105350014D01*
X140041866Y-105576134D01*
X140267986Y-105761706D01*
X140322791Y-105791000D01*
X140267986Y-105820294D01*
X140041866Y-106005866D01*
X139856294Y-106231986D01*
X139718401Y-106489966D01*
X139633487Y-106769889D01*
X139604815Y-107061000D01*
X139633487Y-107352111D01*
X139718401Y-107632034D01*
X139856294Y-107890014D01*
X140041866Y-108116134D01*
X140071687Y-108140607D01*
X140002820Y-108161498D01*
X139892506Y-108220463D01*
X139795815Y-108299815D01*
X139716463Y-108396506D01*
X139657498Y-108506820D01*
X139633782Y-108585000D01*
X128817841Y-108585000D01*
X124333000Y-104100160D01*
X124333000Y-100496840D01*
X125103928Y-99725913D01*
X125103928Y-100546000D01*
X125116188Y-100670482D01*
X125123929Y-100696000D01*
X125116188Y-100721518D01*
X125103928Y-100846000D01*
X125103928Y-101846000D01*
X125116188Y-101970482D01*
X125123929Y-101996000D01*
X125116188Y-102021518D01*
X125103928Y-102146000D01*
X125107000Y-102360250D01*
X125265750Y-102519000D01*
X125621407Y-102519000D01*
X125632988Y-102540781D01*
X125660655Y-102593703D01*
X125662049Y-102595437D01*
X125663095Y-102597404D01*
X125700883Y-102643737D01*
X125738310Y-102690286D01*
X125740015Y-102691717D01*
X125741423Y-102693443D01*
X125787473Y-102731539D01*
X125833246Y-102769947D01*
X125835198Y-102771020D01*
X125836913Y-102772439D01*
X125837951Y-102773000D01*
X125265750Y-102773000D01*
X125107000Y-102931750D01*
X125103928Y-103146000D01*
X125116188Y-103270482D01*
X125152498Y-103390180D01*
X125211463Y-103500494D01*
X125290815Y-103597185D01*
X125387506Y-103676537D01*
X125497820Y-103735502D01*
X125617518Y-103771812D01*
X125742000Y-103784072D01*
X126206250Y-103781000D01*
X126365000Y-103622250D01*
X126365000Y-102881000D01*
X126619000Y-102881000D01*
X126619000Y-103622250D01*
X126777750Y-103781000D01*
X127242000Y-103784072D01*
X127366482Y-103771812D01*
X127486180Y-103735502D01*
X127596494Y-103676537D01*
X127693185Y-103597185D01*
X127772537Y-103500494D01*
X127831502Y-103390180D01*
X127867812Y-103270482D01*
X127880072Y-103146000D01*
X127877000Y-102931750D01*
X127718250Y-102773000D01*
X127145740Y-102773000D01*
X127189737Y-102737117D01*
X127236286Y-102699690D01*
X127237717Y-102697985D01*
X127239443Y-102696577D01*
X127277539Y-102650527D01*
X127315947Y-102604754D01*
X127317020Y-102602802D01*
X127318439Y-102601087D01*
X127346851Y-102548539D01*
X127363091Y-102519000D01*
X127718250Y-102519000D01*
X127875250Y-102362000D01*
X128982098Y-102362000D01*
X129032000Y-102366915D01*
X129081902Y-102362000D01*
X129231171Y-102347298D01*
X129422687Y-102289202D01*
X129599190Y-102194860D01*
X129753896Y-102067896D01*
X129785713Y-102029127D01*
X130087840Y-101727000D01*
X130484750Y-101727000D01*
X130516866Y-101766134D01*
X130742986Y-101951706D01*
X131000966Y-102089599D01*
X131280889Y-102174513D01*
X131499050Y-102196000D01*
X131644950Y-102196000D01*
X131863111Y-102174513D01*
X132143034Y-102089599D01*
X132401014Y-101951706D01*
X132627134Y-101766134D01*
X132812706Y-101540014D01*
X132950599Y-101282034D01*
X133035513Y-101002111D01*
X133064185Y-100711000D01*
X133035513Y-100419889D01*
X132950599Y-100139966D01*
X132812706Y-99881986D01*
X132627134Y-99655866D01*
X132401014Y-99470294D01*
X132346209Y-99441000D01*
X132401014Y-99411706D01*
X132627134Y-99226134D01*
X132812706Y-99000014D01*
X132950599Y-98742034D01*
X133035513Y-98462111D01*
X133064185Y-98171000D01*
X133035513Y-97879889D01*
X132950599Y-97599966D01*
X132812706Y-97341986D01*
X132627134Y-97115866D01*
X132597313Y-97091393D01*
X132666180Y-97070502D01*
X132776494Y-97011537D01*
X132873185Y-96932185D01*
X132952537Y-96835494D01*
X133011502Y-96725180D01*
X133035218Y-96647000D01*
X133427098Y-96647000D01*
X133477000Y-96651915D01*
X133526902Y-96647000D01*
X133676171Y-96632298D01*
X133867687Y-96574202D01*
X134044190Y-96479860D01*
X134198896Y-96352896D01*
X134230713Y-96314127D01*
X134795127Y-95749713D01*
X134833896Y-95717896D01*
X134960860Y-95563190D01*
X135055202Y-95386687D01*
X135113298Y-95195171D01*
X135128000Y-95045902D01*
X135132915Y-94996000D01*
X135128000Y-94946098D01*
X135128000Y-89701840D01*
X136906000Y-87923841D01*
X136906000Y-88111067D01*
X136906000Y-88111067D01*
G37*
X136906000Y-88111067D02*
X136945044Y-88307356D01*
X137021632Y-88492256D01*
X137132821Y-88658662D01*
X137160001Y-88685842D01*
X137160000Y-95593577D01*
X137156314Y-95631000D01*
X137160000Y-95668423D01*
X137160000Y-95668425D01*
X137171026Y-95780377D01*
X137214598Y-95924014D01*
X137226983Y-95947185D01*
X137285355Y-96056392D01*
X137298153Y-96071986D01*
X137380578Y-96172422D01*
X137409654Y-96196284D01*
X138626721Y-97413352D01*
X138650578Y-97442422D01*
X138766608Y-97537645D01*
X138898985Y-97608402D01*
X139042622Y-97651974D01*
X139154574Y-97663000D01*
X139154576Y-97663000D01*
X139191999Y-97666686D01*
X139229422Y-97663000D01*
X139820474Y-97663000D01*
X139856294Y-97730014D01*
X140041866Y-97956134D01*
X140267986Y-98141706D01*
X140322791Y-98171000D01*
X140267986Y-98200294D01*
X140041866Y-98385866D01*
X139856294Y-98611986D01*
X139718401Y-98869966D01*
X139633487Y-99149889D01*
X139604815Y-99441000D01*
X139633487Y-99732111D01*
X139718401Y-100012034D01*
X139856294Y-100270014D01*
X140041866Y-100496134D01*
X140267986Y-100681706D01*
X140322791Y-100711000D01*
X140267986Y-100740294D01*
X140041866Y-100925866D01*
X139856294Y-101151986D01*
X139718401Y-101409966D01*
X139633487Y-101689889D01*
X139604815Y-101981000D01*
X139633487Y-102272111D01*
X139718401Y-102552034D01*
X139856294Y-102810014D01*
X140041866Y-103036134D01*
X140267986Y-103221706D01*
X140322791Y-103251000D01*
X140267986Y-103280294D01*
X140041866Y-103465866D01*
X139856294Y-103691986D01*
X139718401Y-103949966D01*
X139633487Y-104229889D01*
X139604815Y-104521000D01*
X139633487Y-104812111D01*
X139718401Y-105092034D01*
X139856294Y-105350014D01*
X140041866Y-105576134D01*
X140267986Y-105761706D01*
X140322791Y-105791000D01*
X140267986Y-105820294D01*
X140041866Y-106005866D01*
X139856294Y-106231986D01*
X139718401Y-106489966D01*
X139633487Y-106769889D01*
X139604815Y-107061000D01*
X139633487Y-107352111D01*
X139718401Y-107632034D01*
X139856294Y-107890014D01*
X140041866Y-108116134D01*
X140071687Y-108140607D01*
X140002820Y-108161498D01*
X139892506Y-108220463D01*
X139795815Y-108299815D01*
X139716463Y-108396506D01*
X139657498Y-108506820D01*
X139633782Y-108585000D01*
X128817841Y-108585000D01*
X124333000Y-104100160D01*
X124333000Y-100496840D01*
X125103928Y-99725913D01*
X125103928Y-100546000D01*
X125116188Y-100670482D01*
X125123929Y-100696000D01*
X125116188Y-100721518D01*
X125103928Y-100846000D01*
X125103928Y-101846000D01*
X125116188Y-101970482D01*
X125123929Y-101996000D01*
X125116188Y-102021518D01*
X125103928Y-102146000D01*
X125107000Y-102360250D01*
X125265750Y-102519000D01*
X125621407Y-102519000D01*
X125632988Y-102540781D01*
X125660655Y-102593703D01*
X125662049Y-102595437D01*
X125663095Y-102597404D01*
X125700883Y-102643737D01*
X125738310Y-102690286D01*
X125740015Y-102691717D01*
X125741423Y-102693443D01*
X125787473Y-102731539D01*
X125833246Y-102769947D01*
X125835198Y-102771020D01*
X125836913Y-102772439D01*
X125837951Y-102773000D01*
X125265750Y-102773000D01*
X125107000Y-102931750D01*
X125103928Y-103146000D01*
X125116188Y-103270482D01*
X125152498Y-103390180D01*
X125211463Y-103500494D01*
X125290815Y-103597185D01*
X125387506Y-103676537D01*
X125497820Y-103735502D01*
X125617518Y-103771812D01*
X125742000Y-103784072D01*
X126206250Y-103781000D01*
X126365000Y-103622250D01*
X126365000Y-102881000D01*
X126619000Y-102881000D01*
X126619000Y-103622250D01*
X126777750Y-103781000D01*
X127242000Y-103784072D01*
X127366482Y-103771812D01*
X127486180Y-103735502D01*
X127596494Y-103676537D01*
X127693185Y-103597185D01*
X127772537Y-103500494D01*
X127831502Y-103390180D01*
X127867812Y-103270482D01*
X127880072Y-103146000D01*
X127877000Y-102931750D01*
X127718250Y-102773000D01*
X127145740Y-102773000D01*
X127189737Y-102737117D01*
X127236286Y-102699690D01*
X127237717Y-102697985D01*
X127239443Y-102696577D01*
X127277539Y-102650527D01*
X127315947Y-102604754D01*
X127317020Y-102602802D01*
X127318439Y-102601087D01*
X127346851Y-102548539D01*
X127363091Y-102519000D01*
X127718250Y-102519000D01*
X127875250Y-102362000D01*
X128982098Y-102362000D01*
X129032000Y-102366915D01*
X129081902Y-102362000D01*
X129231171Y-102347298D01*
X129422687Y-102289202D01*
X129599190Y-102194860D01*
X129753896Y-102067896D01*
X129785713Y-102029127D01*
X130087840Y-101727000D01*
X130484750Y-101727000D01*
X130516866Y-101766134D01*
X130742986Y-101951706D01*
X131000966Y-102089599D01*
X131280889Y-102174513D01*
X131499050Y-102196000D01*
X131644950Y-102196000D01*
X131863111Y-102174513D01*
X132143034Y-102089599D01*
X132401014Y-101951706D01*
X132627134Y-101766134D01*
X132812706Y-101540014D01*
X132950599Y-101282034D01*
X133035513Y-101002111D01*
X133064185Y-100711000D01*
X133035513Y-100419889D01*
X132950599Y-100139966D01*
X132812706Y-99881986D01*
X132627134Y-99655866D01*
X132401014Y-99470294D01*
X132346209Y-99441000D01*
X132401014Y-99411706D01*
X132627134Y-99226134D01*
X132812706Y-99000014D01*
X132950599Y-98742034D01*
X133035513Y-98462111D01*
X133064185Y-98171000D01*
X133035513Y-97879889D01*
X132950599Y-97599966D01*
X132812706Y-97341986D01*
X132627134Y-97115866D01*
X132597313Y-97091393D01*
X132666180Y-97070502D01*
X132776494Y-97011537D01*
X132873185Y-96932185D01*
X132952537Y-96835494D01*
X133011502Y-96725180D01*
X133035218Y-96647000D01*
X133427098Y-96647000D01*
X133477000Y-96651915D01*
X133526902Y-96647000D01*
X133676171Y-96632298D01*
X133867687Y-96574202D01*
X134044190Y-96479860D01*
X134198896Y-96352896D01*
X134230713Y-96314127D01*
X134795127Y-95749713D01*
X134833896Y-95717896D01*
X134960860Y-95563190D01*
X135055202Y-95386687D01*
X135113298Y-95195171D01*
X135128000Y-95045902D01*
X135132915Y-94996000D01*
X135128000Y-94946098D01*
X135128000Y-89701840D01*
X136906000Y-87923841D01*
X136906000Y-88111067D01*
G36*
X143627869Y-78779722D02*
G01*
X143741246Y-78813953D01*
X143845819Y-78869555D01*
X143937596Y-78944407D01*
X144013091Y-79035664D01*
X144069419Y-79139844D01*
X144104440Y-79252976D01*
X144120000Y-79401022D01*
X144120000Y-85344254D01*
X143993891Y-85299519D01*
X143764000Y-85420186D01*
X143764000Y-86614000D01*
X143784000Y-86614000D01*
X143784000Y-86868000D01*
X143764000Y-86868000D01*
X143764000Y-89154000D01*
X143784000Y-89154000D01*
X143784000Y-89408000D01*
X143764000Y-89408000D01*
X143764000Y-91694000D01*
X143784000Y-91694000D01*
X143784000Y-91948000D01*
X143764000Y-91948000D01*
X143764000Y-94234000D01*
X143784000Y-94234000D01*
X143784000Y-94488000D01*
X143764000Y-94488000D01*
X143764000Y-96774000D01*
X143784000Y-96774000D01*
X143784000Y-97028000D01*
X143764000Y-97028000D01*
X143764000Y-99314000D01*
X143784000Y-99314000D01*
X143784000Y-99568000D01*
X143764000Y-99568000D01*
X143764000Y-101854000D01*
X143784000Y-101854000D01*
X143784000Y-102108000D01*
X143764000Y-102108000D01*
X143764000Y-104394000D01*
X143784000Y-104394000D01*
X143784000Y-104648000D01*
X143764000Y-104648000D01*
X143764000Y-106934000D01*
X143784000Y-106934000D01*
X143784000Y-107188000D01*
X143764000Y-107188000D01*
X143764000Y-107208000D01*
X143510000Y-107208000D01*
X143510000Y-107188000D01*
X143490000Y-107188000D01*
X143490000Y-106934000D01*
X143510000Y-106934000D01*
X143510000Y-104648000D01*
X143490000Y-104648000D01*
X143490000Y-104394000D01*
X143510000Y-104394000D01*
X143510000Y-102108000D01*
X143490000Y-102108000D01*
X143490000Y-101854000D01*
X143510000Y-101854000D01*
X143510000Y-99568000D01*
X143490000Y-99568000D01*
X143490000Y-99314000D01*
X143510000Y-99314000D01*
X143510000Y-97028000D01*
X143490000Y-97028000D01*
X143490000Y-96774000D01*
X143510000Y-96774000D01*
X143510000Y-94488000D01*
X143490000Y-94488000D01*
X143490000Y-94234000D01*
X143510000Y-94234000D01*
X143510000Y-91948000D01*
X143490000Y-91948000D01*
X143490000Y-91694000D01*
X143510000Y-91694000D01*
X143510000Y-89408000D01*
X143490000Y-89408000D01*
X143490000Y-89154000D01*
X143510000Y-89154000D01*
X143510000Y-86868000D01*
X143490000Y-86868000D01*
X143490000Y-86614000D01*
X143510000Y-86614000D01*
X143510000Y-85420186D01*
X143280109Y-85299519D01*
X143121344Y-85355838D01*
X143117974Y-85321622D01*
X143074402Y-85177985D01*
X143003645Y-85045608D01*
X142908422Y-84929578D01*
X142879352Y-84905721D01*
X141662284Y-83688654D01*
X141638422Y-83659578D01*
X141522392Y-83564355D01*
X141390015Y-83493598D01*
X141246378Y-83450026D01*
X141134426Y-83439000D01*
X141134423Y-83439000D01*
X141097000Y-83435314D01*
X141059577Y-83439000D01*
X135062630Y-83439000D01*
X134874000Y-83250370D01*
X134874000Y-83149072D01*
X134962000Y-83149072D01*
X135086482Y-83136812D01*
X135206180Y-83100502D01*
X135316494Y-83041537D01*
X135413185Y-82962185D01*
X135492537Y-82865494D01*
X135551502Y-82755180D01*
X135587812Y-82635482D01*
X135600072Y-82511000D01*
X135600072Y-80811000D01*
X135587812Y-80686518D01*
X135551502Y-80566820D01*
X135492537Y-80456506D01*
X135413185Y-80359815D01*
X135316494Y-80280463D01*
X135206180Y-80221498D01*
X135086482Y-80185188D01*
X134962000Y-80172928D01*
X133262000Y-80172928D01*
X133137518Y-80185188D01*
X133017820Y-80221498D01*
X132907506Y-80280463D01*
X132810815Y-80359815D01*
X132731463Y-80456506D01*
X132672498Y-80566820D01*
X132651607Y-80635687D01*
X132627134Y-80605866D01*
X132401014Y-80420294D01*
X132143034Y-80282401D01*
X131863111Y-80197487D01*
X131644950Y-80176000D01*
X131499050Y-80176000D01*
X131280889Y-80197487D01*
X131000966Y-80282401D01*
X130742986Y-80420294D01*
X130516866Y-80605866D01*
X130331294Y-80831986D01*
X130302000Y-80886791D01*
X130272706Y-80831986D01*
X130087134Y-80605866D01*
X129861014Y-80420294D01*
X129603034Y-80282401D01*
X129323111Y-80197487D01*
X129104950Y-80176000D01*
X128959050Y-80176000D01*
X128740889Y-80197487D01*
X128460966Y-80282401D01*
X128202986Y-80420294D01*
X127976866Y-80605866D01*
X127791294Y-80831986D01*
X127653401Y-81089966D01*
X127568487Y-81369889D01*
X127539815Y-81661000D01*
X127568487Y-81952111D01*
X127653401Y-82232034D01*
X127791294Y-82490014D01*
X127976866Y-82716134D01*
X128202986Y-82901706D01*
X128460966Y-83039599D01*
X128740889Y-83124513D01*
X128959050Y-83146000D01*
X129104950Y-83146000D01*
X129323111Y-83124513D01*
X129603034Y-83039599D01*
X129861014Y-82901706D01*
X130087134Y-82716134D01*
X130272706Y-82490014D01*
X130302000Y-82435209D01*
X130331294Y-82490014D01*
X130516866Y-82716134D01*
X130742986Y-82901706D01*
X131000966Y-83039599D01*
X131280889Y-83124513D01*
X131499050Y-83146000D01*
X131644950Y-83146000D01*
X131863111Y-83124513D01*
X132143034Y-83039599D01*
X132401014Y-82901706D01*
X132627134Y-82716134D01*
X132651607Y-82686313D01*
X132672498Y-82755180D01*
X132731463Y-82865494D01*
X132810815Y-82962185D01*
X132907506Y-83041537D01*
X133017820Y-83100502D01*
X133137518Y-83136812D01*
X133262000Y-83149072D01*
X133350000Y-83149072D01*
X133350000Y-83528576D01*
X133346314Y-83566000D01*
X133350000Y-83603423D01*
X133350000Y-83603425D01*
X133361026Y-83715377D01*
X133404598Y-83859014D01*
X133404599Y-83859015D01*
X133475355Y-83991392D01*
X133514983Y-84039678D01*
X133570578Y-84107422D01*
X133599654Y-84131284D01*
X134181716Y-84713346D01*
X134205578Y-84742422D01*
X134279219Y-84802857D01*
X134321607Y-84837645D01*
X134392364Y-84875465D01*
X134453985Y-84908402D01*
X134597622Y-84951974D01*
X134709574Y-84963000D01*
X134709577Y-84963000D01*
X134747000Y-84966686D01*
X134784423Y-84963000D01*
X140781370Y-84963000D01*
X141074370Y-85256000D01*
X141024050Y-85256000D01*
X140805889Y-85277487D01*
X140525966Y-85362401D01*
X140267986Y-85500294D01*
X140041866Y-85685866D01*
X140009750Y-85725000D01*
X136701893Y-85725000D01*
X136651999Y-85720086D01*
X136602105Y-85725000D01*
X136602098Y-85725000D01*
X136472177Y-85737796D01*
X136452828Y-85739702D01*
X136394732Y-85757326D01*
X136261313Y-85797798D01*
X136084810Y-85892140D01*
X135930104Y-86019104D01*
X135898292Y-86057867D01*
X133428872Y-88527288D01*
X133390104Y-88559104D01*
X133263140Y-88713810D01*
X133168798Y-88890314D01*
X133138592Y-88989889D01*
X133110702Y-89081830D01*
X133091085Y-89281000D01*
X133096000Y-89330902D01*
X133096001Y-94575159D01*
X133056160Y-94615000D01*
X133035218Y-94615000D01*
X133011502Y-94536820D01*
X132952537Y-94426506D01*
X132873185Y-94329815D01*
X132776494Y-94250463D01*
X132666180Y-94191498D01*
X132546482Y-94155188D01*
X132422000Y-94142928D01*
X130722000Y-94142928D01*
X130597518Y-94155188D01*
X130477820Y-94191498D01*
X130367506Y-94250463D01*
X130270815Y-94329815D01*
X130191463Y-94426506D01*
X130132498Y-94536820D01*
X130096188Y-94656518D01*
X130083928Y-94781000D01*
X130083928Y-96481000D01*
X130096188Y-96605482D01*
X130132498Y-96725180D01*
X130191463Y-96835494D01*
X130270815Y-96932185D01*
X130367506Y-97011537D01*
X130477820Y-97070502D01*
X130546687Y-97091393D01*
X130516866Y-97115866D01*
X130484750Y-97155000D01*
X130087840Y-97155000D01*
X130048000Y-97115160D01*
X130048000Y-95680902D01*
X130052915Y-95631000D01*
X130033298Y-95431829D01*
X129975202Y-95240313D01*
X129880860Y-95063810D01*
X129859059Y-95037246D01*
X129753896Y-94909104D01*
X129715127Y-94877287D01*
X129150713Y-94312873D01*
X129118896Y-94274104D01*
X128964190Y-94147140D01*
X128787687Y-94052798D01*
X128596171Y-93994702D01*
X128446902Y-93980000D01*
X128397000Y-93975085D01*
X128347098Y-93980000D01*
X127875250Y-93980000D01*
X127718250Y-93823000D01*
X126619000Y-93823000D01*
X126619000Y-93843000D01*
X126365000Y-93843000D01*
X126365000Y-93823000D01*
X125265750Y-93823000D01*
X125107000Y-93981750D01*
X125103928Y-94196000D01*
X125116188Y-94320482D01*
X125123929Y-94346000D01*
X125116188Y-94371518D01*
X125103928Y-94496000D01*
X125103928Y-95496000D01*
X125116188Y-95620482D01*
X125123929Y-95646000D01*
X125116188Y-95671518D01*
X125103928Y-95796000D01*
X125103928Y-96796000D01*
X125116188Y-96920482D01*
X125152498Y-97040180D01*
X125211463Y-97150494D01*
X125211940Y-97151076D01*
X125172098Y-97155000D01*
X123737841Y-97155000D01*
X119778841Y-93196000D01*
X125103928Y-93196000D01*
X125107000Y-93410250D01*
X125265750Y-93569000D01*
X126365000Y-93569000D01*
X126365000Y-92719750D01*
X126619000Y-92719750D01*
X126619000Y-93569000D01*
X127718250Y-93569000D01*
X127877000Y-93410250D01*
X127880072Y-93196000D01*
X127867812Y-93071518D01*
X127831502Y-92951820D01*
X127772537Y-92841506D01*
X127693185Y-92744815D01*
X127596494Y-92665463D01*
X127486180Y-92606498D01*
X127366482Y-92570188D01*
X127242000Y-92557928D01*
X126777750Y-92561000D01*
X126619000Y-92719750D01*
X126365000Y-92719750D01*
X126206250Y-92561000D01*
X125742000Y-92557928D01*
X125617518Y-92570188D01*
X125497820Y-92606498D01*
X125387506Y-92665463D01*
X125290815Y-92744815D01*
X125211463Y-92841506D01*
X125152498Y-92951820D01*
X125116188Y-93071518D01*
X125103928Y-93196000D01*
X119778841Y-93196000D01*
X115815712Y-89232872D01*
X115783896Y-89194104D01*
X115745133Y-89162292D01*
X112268000Y-85685160D01*
X112268000Y-82748250D01*
X112307134Y-82716134D01*
X112492706Y-82490014D01*
X112527201Y-82425477D01*
X112596822Y-82542355D01*
X112791731Y-82758588D01*
X113025080Y-82932641D01*
X113287901Y-83057825D01*
X113435110Y-83102476D01*
X113665000Y-82981155D01*
X113665000Y-81788000D01*
X113645000Y-81788000D01*
X113645000Y-81534000D01*
X113665000Y-81534000D01*
X113665000Y-81514000D01*
X113919000Y-81514000D01*
X113919000Y-81534000D01*
X113939000Y-81534000D01*
X113939000Y-81788000D01*
X113919000Y-81788000D01*
X113919000Y-82981155D01*
X114148890Y-83102476D01*
X114296099Y-83057825D01*
X114558920Y-82932641D01*
X114792269Y-82758588D01*
X114987178Y-82542355D01*
X115056799Y-82425477D01*
X115091294Y-82490014D01*
X115276866Y-82716134D01*
X115502986Y-82901706D01*
X115760966Y-83039599D01*
X116040889Y-83124513D01*
X116259050Y-83146000D01*
X116404950Y-83146000D01*
X116623111Y-83124513D01*
X116903034Y-83039599D01*
X117161014Y-82901706D01*
X117387134Y-82716134D01*
X117572706Y-82490014D01*
X117602000Y-82435209D01*
X117631294Y-82490014D01*
X117816866Y-82716134D01*
X118042986Y-82901706D01*
X118300966Y-83039599D01*
X118580889Y-83124513D01*
X118799050Y-83146000D01*
X118944950Y-83146000D01*
X119163111Y-83124513D01*
X119443034Y-83039599D01*
X119701014Y-82901706D01*
X119927134Y-82716134D01*
X120112706Y-82490014D01*
X120142000Y-82435209D01*
X120171294Y-82490014D01*
X120356866Y-82716134D01*
X120582986Y-82901706D01*
X120840966Y-83039599D01*
X121120889Y-83124513D01*
X121339050Y-83146000D01*
X121484950Y-83146000D01*
X121703111Y-83124513D01*
X121983034Y-83039599D01*
X122241014Y-82901706D01*
X122467134Y-82716134D01*
X122491607Y-82686313D01*
X122512498Y-82755180D01*
X122571463Y-82865494D01*
X122650815Y-82962185D01*
X122747506Y-83041537D01*
X122857820Y-83100502D01*
X122977518Y-83136812D01*
X123102000Y-83149072D01*
X124802000Y-83149072D01*
X124926482Y-83136812D01*
X125046180Y-83100502D01*
X125156494Y-83041537D01*
X125253185Y-82962185D01*
X125332537Y-82865494D01*
X125391502Y-82755180D01*
X125427812Y-82635482D01*
X125440072Y-82511000D01*
X125440072Y-80811000D01*
X125427812Y-80686518D01*
X125391502Y-80566820D01*
X125332537Y-80456506D01*
X125253185Y-80359815D01*
X125156494Y-80280463D01*
X125046180Y-80221498D01*
X124926482Y-80185188D01*
X124802000Y-80172928D01*
X124712000Y-80172928D01*
X124712000Y-79793333D01*
X124715677Y-79756000D01*
X124701003Y-79607014D01*
X124657546Y-79463753D01*
X124586974Y-79331724D01*
X124515799Y-79244997D01*
X124492001Y-79215999D01*
X124463002Y-79192200D01*
X124035801Y-78765000D01*
X143477721Y-78765000D01*
X143627869Y-78779722D01*
X143627869Y-78779722D01*
G37*
X143627869Y-78779722D02*
X143741246Y-78813953D01*
X143845819Y-78869555D01*
X143937596Y-78944407D01*
X144013091Y-79035664D01*
X144069419Y-79139844D01*
X144104440Y-79252976D01*
X144120000Y-79401022D01*
X144120000Y-85344254D01*
X143993891Y-85299519D01*
X143764000Y-85420186D01*
X143764000Y-86614000D01*
X143784000Y-86614000D01*
X143784000Y-86868000D01*
X143764000Y-86868000D01*
X143764000Y-89154000D01*
X143784000Y-89154000D01*
X143784000Y-89408000D01*
X143764000Y-89408000D01*
X143764000Y-91694000D01*
X143784000Y-91694000D01*
X143784000Y-91948000D01*
X143764000Y-91948000D01*
X143764000Y-94234000D01*
X143784000Y-94234000D01*
X143784000Y-94488000D01*
X143764000Y-94488000D01*
X143764000Y-96774000D01*
X143784000Y-96774000D01*
X143784000Y-97028000D01*
X143764000Y-97028000D01*
X143764000Y-99314000D01*
X143784000Y-99314000D01*
X143784000Y-99568000D01*
X143764000Y-99568000D01*
X143764000Y-101854000D01*
X143784000Y-101854000D01*
X143784000Y-102108000D01*
X143764000Y-102108000D01*
X143764000Y-104394000D01*
X143784000Y-104394000D01*
X143784000Y-104648000D01*
X143764000Y-104648000D01*
X143764000Y-106934000D01*
X143784000Y-106934000D01*
X143784000Y-107188000D01*
X143764000Y-107188000D01*
X143764000Y-107208000D01*
X143510000Y-107208000D01*
X143510000Y-107188000D01*
X143490000Y-107188000D01*
X143490000Y-106934000D01*
X143510000Y-106934000D01*
X143510000Y-104648000D01*
X143490000Y-104648000D01*
X143490000Y-104394000D01*
X143510000Y-104394000D01*
X143510000Y-102108000D01*
X143490000Y-102108000D01*
X143490000Y-101854000D01*
X143510000Y-101854000D01*
X143510000Y-99568000D01*
X143490000Y-99568000D01*
X143490000Y-99314000D01*
X143510000Y-99314000D01*
X143510000Y-97028000D01*
X143490000Y-97028000D01*
X143490000Y-96774000D01*
X143510000Y-96774000D01*
X143510000Y-94488000D01*
X143490000Y-94488000D01*
X143490000Y-94234000D01*
X143510000Y-94234000D01*
X143510000Y-91948000D01*
X143490000Y-91948000D01*
X143490000Y-91694000D01*
X143510000Y-91694000D01*
X143510000Y-89408000D01*
X143490000Y-89408000D01*
X143490000Y-89154000D01*
X143510000Y-89154000D01*
X143510000Y-86868000D01*
X143490000Y-86868000D01*
X143490000Y-86614000D01*
X143510000Y-86614000D01*
X143510000Y-85420186D01*
X143280109Y-85299519D01*
X143121344Y-85355838D01*
X143117974Y-85321622D01*
X143074402Y-85177985D01*
X143003645Y-85045608D01*
X142908422Y-84929578D01*
X142879352Y-84905721D01*
X141662284Y-83688654D01*
X141638422Y-83659578D01*
X141522392Y-83564355D01*
X141390015Y-83493598D01*
X141246378Y-83450026D01*
X141134426Y-83439000D01*
X141134423Y-83439000D01*
X141097000Y-83435314D01*
X141059577Y-83439000D01*
X135062630Y-83439000D01*
X134874000Y-83250370D01*
X134874000Y-83149072D01*
X134962000Y-83149072D01*
X135086482Y-83136812D01*
X135206180Y-83100502D01*
X135316494Y-83041537D01*
X135413185Y-82962185D01*
X135492537Y-82865494D01*
X135551502Y-82755180D01*
X135587812Y-82635482D01*
X135600072Y-82511000D01*
X135600072Y-80811000D01*
X135587812Y-80686518D01*
X135551502Y-80566820D01*
X135492537Y-80456506D01*
X135413185Y-80359815D01*
X135316494Y-80280463D01*
X135206180Y-80221498D01*
X135086482Y-80185188D01*
X134962000Y-80172928D01*
X133262000Y-80172928D01*
X133137518Y-80185188D01*
X133017820Y-80221498D01*
X132907506Y-80280463D01*
X132810815Y-80359815D01*
X132731463Y-80456506D01*
X132672498Y-80566820D01*
X132651607Y-80635687D01*
X132627134Y-80605866D01*
X132401014Y-80420294D01*
X132143034Y-80282401D01*
X131863111Y-80197487D01*
X131644950Y-80176000D01*
X131499050Y-80176000D01*
X131280889Y-80197487D01*
X131000966Y-80282401D01*
X130742986Y-80420294D01*
X130516866Y-80605866D01*
X130331294Y-80831986D01*
X130302000Y-80886791D01*
X130272706Y-80831986D01*
X130087134Y-80605866D01*
X129861014Y-80420294D01*
X129603034Y-80282401D01*
X129323111Y-80197487D01*
X129104950Y-80176000D01*
X128959050Y-80176000D01*
X128740889Y-80197487D01*
X128460966Y-80282401D01*
X128202986Y-80420294D01*
X127976866Y-80605866D01*
X127791294Y-80831986D01*
X127653401Y-81089966D01*
X127568487Y-81369889D01*
X127539815Y-81661000D01*
X127568487Y-81952111D01*
X127653401Y-82232034D01*
X127791294Y-82490014D01*
X127976866Y-82716134D01*
X128202986Y-82901706D01*
X128460966Y-83039599D01*
X128740889Y-83124513D01*
X128959050Y-83146000D01*
X129104950Y-83146000D01*
X129323111Y-83124513D01*
X129603034Y-83039599D01*
X129861014Y-82901706D01*
X130087134Y-82716134D01*
X130272706Y-82490014D01*
X130302000Y-82435209D01*
X130331294Y-82490014D01*
X130516866Y-82716134D01*
X130742986Y-82901706D01*
X131000966Y-83039599D01*
X131280889Y-83124513D01*
X131499050Y-83146000D01*
X131644950Y-83146000D01*
X131863111Y-83124513D01*
X132143034Y-83039599D01*
X132401014Y-82901706D01*
X132627134Y-82716134D01*
X132651607Y-82686313D01*
X132672498Y-82755180D01*
X132731463Y-82865494D01*
X132810815Y-82962185D01*
X132907506Y-83041537D01*
X133017820Y-83100502D01*
X133137518Y-83136812D01*
X133262000Y-83149072D01*
X133350000Y-83149072D01*
X133350000Y-83528576D01*
X133346314Y-83566000D01*
X133350000Y-83603423D01*
X133350000Y-83603425D01*
X133361026Y-83715377D01*
X133404598Y-83859014D01*
X133404599Y-83859015D01*
X133475355Y-83991392D01*
X133514983Y-84039678D01*
X133570578Y-84107422D01*
X133599654Y-84131284D01*
X134181716Y-84713346D01*
X134205578Y-84742422D01*
X134279219Y-84802857D01*
X134321607Y-84837645D01*
X134392364Y-84875465D01*
X134453985Y-84908402D01*
X134597622Y-84951974D01*
X134709574Y-84963000D01*
X134709577Y-84963000D01*
X134747000Y-84966686D01*
X134784423Y-84963000D01*
X140781370Y-84963000D01*
X141074370Y-85256000D01*
X141024050Y-85256000D01*
X140805889Y-85277487D01*
X140525966Y-85362401D01*
X140267986Y-85500294D01*
X140041866Y-85685866D01*
X140009750Y-85725000D01*
X136701893Y-85725000D01*
X136651999Y-85720086D01*
X136602105Y-85725000D01*
X136602098Y-85725000D01*
X136472177Y-85737796D01*
X136452828Y-85739702D01*
X136394732Y-85757326D01*
X136261313Y-85797798D01*
X136084810Y-85892140D01*
X135930104Y-86019104D01*
X135898292Y-86057867D01*
X133428872Y-88527288D01*
X133390104Y-88559104D01*
X133263140Y-88713810D01*
X133168798Y-88890314D01*
X133138592Y-88989889D01*
X133110702Y-89081830D01*
X133091085Y-89281000D01*
X133096000Y-89330902D01*
X133096001Y-94575159D01*
X133056160Y-94615000D01*
X133035218Y-94615000D01*
X133011502Y-94536820D01*
X132952537Y-94426506D01*
X132873185Y-94329815D01*
X132776494Y-94250463D01*
X132666180Y-94191498D01*
X132546482Y-94155188D01*
X132422000Y-94142928D01*
X130722000Y-94142928D01*
X130597518Y-94155188D01*
X130477820Y-94191498D01*
X130367506Y-94250463D01*
X130270815Y-94329815D01*
X130191463Y-94426506D01*
X130132498Y-94536820D01*
X130096188Y-94656518D01*
X130083928Y-94781000D01*
X130083928Y-96481000D01*
X130096188Y-96605482D01*
X130132498Y-96725180D01*
X130191463Y-96835494D01*
X130270815Y-96932185D01*
X130367506Y-97011537D01*
X130477820Y-97070502D01*
X130546687Y-97091393D01*
X130516866Y-97115866D01*
X130484750Y-97155000D01*
X130087840Y-97155000D01*
X130048000Y-97115160D01*
X130048000Y-95680902D01*
X130052915Y-95631000D01*
X130033298Y-95431829D01*
X129975202Y-95240313D01*
X129880860Y-95063810D01*
X129859059Y-95037246D01*
X129753896Y-94909104D01*
X129715127Y-94877287D01*
X129150713Y-94312873D01*
X129118896Y-94274104D01*
X128964190Y-94147140D01*
X128787687Y-94052798D01*
X128596171Y-93994702D01*
X128446902Y-93980000D01*
X128397000Y-93975085D01*
X128347098Y-93980000D01*
X127875250Y-93980000D01*
X127718250Y-93823000D01*
X126619000Y-93823000D01*
X126619000Y-93843000D01*
X126365000Y-93843000D01*
X126365000Y-93823000D01*
X125265750Y-93823000D01*
X125107000Y-93981750D01*
X125103928Y-94196000D01*
X125116188Y-94320482D01*
X125123929Y-94346000D01*
X125116188Y-94371518D01*
X125103928Y-94496000D01*
X125103928Y-95496000D01*
X125116188Y-95620482D01*
X125123929Y-95646000D01*
X125116188Y-95671518D01*
X125103928Y-95796000D01*
X125103928Y-96796000D01*
X125116188Y-96920482D01*
X125152498Y-97040180D01*
X125211463Y-97150494D01*
X125211940Y-97151076D01*
X125172098Y-97155000D01*
X123737841Y-97155000D01*
X119778841Y-93196000D01*
X125103928Y-93196000D01*
X125107000Y-93410250D01*
X125265750Y-93569000D01*
X126365000Y-93569000D01*
X126365000Y-92719750D01*
X126619000Y-92719750D01*
X126619000Y-93569000D01*
X127718250Y-93569000D01*
X127877000Y-93410250D01*
X127880072Y-93196000D01*
X127867812Y-93071518D01*
X127831502Y-92951820D01*
X127772537Y-92841506D01*
X127693185Y-92744815D01*
X127596494Y-92665463D01*
X127486180Y-92606498D01*
X127366482Y-92570188D01*
X127242000Y-92557928D01*
X126777750Y-92561000D01*
X126619000Y-92719750D01*
X126365000Y-92719750D01*
X126206250Y-92561000D01*
X125742000Y-92557928D01*
X125617518Y-92570188D01*
X125497820Y-92606498D01*
X125387506Y-92665463D01*
X125290815Y-92744815D01*
X125211463Y-92841506D01*
X125152498Y-92951820D01*
X125116188Y-93071518D01*
X125103928Y-93196000D01*
X119778841Y-93196000D01*
X115815712Y-89232872D01*
X115783896Y-89194104D01*
X115745133Y-89162292D01*
X112268000Y-85685160D01*
X112268000Y-82748250D01*
X112307134Y-82716134D01*
X112492706Y-82490014D01*
X112527201Y-82425477D01*
X112596822Y-82542355D01*
X112791731Y-82758588D01*
X113025080Y-82932641D01*
X113287901Y-83057825D01*
X113435110Y-83102476D01*
X113665000Y-82981155D01*
X113665000Y-81788000D01*
X113645000Y-81788000D01*
X113645000Y-81534000D01*
X113665000Y-81534000D01*
X113665000Y-81514000D01*
X113919000Y-81514000D01*
X113919000Y-81534000D01*
X113939000Y-81534000D01*
X113939000Y-81788000D01*
X113919000Y-81788000D01*
X113919000Y-82981155D01*
X114148890Y-83102476D01*
X114296099Y-83057825D01*
X114558920Y-82932641D01*
X114792269Y-82758588D01*
X114987178Y-82542355D01*
X115056799Y-82425477D01*
X115091294Y-82490014D01*
X115276866Y-82716134D01*
X115502986Y-82901706D01*
X115760966Y-83039599D01*
X116040889Y-83124513D01*
X116259050Y-83146000D01*
X116404950Y-83146000D01*
X116623111Y-83124513D01*
X116903034Y-83039599D01*
X117161014Y-82901706D01*
X117387134Y-82716134D01*
X117572706Y-82490014D01*
X117602000Y-82435209D01*
X117631294Y-82490014D01*
X117816866Y-82716134D01*
X118042986Y-82901706D01*
X118300966Y-83039599D01*
X118580889Y-83124513D01*
X118799050Y-83146000D01*
X118944950Y-83146000D01*
X119163111Y-83124513D01*
X119443034Y-83039599D01*
X119701014Y-82901706D01*
X119927134Y-82716134D01*
X120112706Y-82490014D01*
X120142000Y-82435209D01*
X120171294Y-82490014D01*
X120356866Y-82716134D01*
X120582986Y-82901706D01*
X120840966Y-83039599D01*
X121120889Y-83124513D01*
X121339050Y-83146000D01*
X121484950Y-83146000D01*
X121703111Y-83124513D01*
X121983034Y-83039599D01*
X122241014Y-82901706D01*
X122467134Y-82716134D01*
X122491607Y-82686313D01*
X122512498Y-82755180D01*
X122571463Y-82865494D01*
X122650815Y-82962185D01*
X122747506Y-83041537D01*
X122857820Y-83100502D01*
X122977518Y-83136812D01*
X123102000Y-83149072D01*
X124802000Y-83149072D01*
X124926482Y-83136812D01*
X125046180Y-83100502D01*
X125156494Y-83041537D01*
X125253185Y-82962185D01*
X125332537Y-82865494D01*
X125391502Y-82755180D01*
X125427812Y-82635482D01*
X125440072Y-82511000D01*
X125440072Y-80811000D01*
X125427812Y-80686518D01*
X125391502Y-80566820D01*
X125332537Y-80456506D01*
X125253185Y-80359815D01*
X125156494Y-80280463D01*
X125046180Y-80221498D01*
X124926482Y-80185188D01*
X124802000Y-80172928D01*
X124712000Y-80172928D01*
X124712000Y-79793333D01*
X124715677Y-79756000D01*
X124701003Y-79607014D01*
X124657546Y-79463753D01*
X124586974Y-79331724D01*
X124515799Y-79244997D01*
X124492001Y-79215999D01*
X124463002Y-79192200D01*
X124035801Y-78765000D01*
X143477721Y-78765000D01*
X143627869Y-78779722D01*
G36*
X142539412Y-105521269D02*
G01*
X142755645Y-105716178D01*
X142881255Y-105791000D01*
X142755645Y-105865822D01*
X142539412Y-106060731D01*
X142368584Y-106289756D01*
X142337706Y-106231986D01*
X142152134Y-106005866D01*
X141926014Y-105820294D01*
X141871209Y-105791000D01*
X141926014Y-105761706D01*
X142152134Y-105576134D01*
X142337706Y-105350014D01*
X142368584Y-105292244D01*
X142539412Y-105521269D01*
X142539412Y-105521269D01*
G37*
X142539412Y-105521269D02*
X142755645Y-105716178D01*
X142881255Y-105791000D01*
X142755645Y-105865822D01*
X142539412Y-106060731D01*
X142368584Y-106289756D01*
X142337706Y-106231986D01*
X142152134Y-106005866D01*
X141926014Y-105820294D01*
X141871209Y-105791000D01*
X141926014Y-105761706D01*
X142152134Y-105576134D01*
X142337706Y-105350014D01*
X142368584Y-105292244D01*
X142539412Y-105521269D01*
G36*
X107656866Y-80605866D02*
G01*
X107471294Y-80831986D01*
X107333401Y-81089966D01*
X107248487Y-81369889D01*
X107219815Y-81661000D01*
X107248487Y-81952111D01*
X107333401Y-82232034D01*
X107471294Y-82490014D01*
X107656866Y-82716134D01*
X107882986Y-82901706D01*
X108140966Y-83039599D01*
X108420889Y-83124513D01*
X108639050Y-83146000D01*
X108784950Y-83146000D01*
X109003111Y-83124513D01*
X109283034Y-83039599D01*
X109541014Y-82901706D01*
X109767134Y-82716134D01*
X109952706Y-82490014D01*
X109982000Y-82435209D01*
X110011294Y-82490014D01*
X110196866Y-82716134D01*
X110236000Y-82748251D01*
X110236001Y-86056088D01*
X110231085Y-86106000D01*
X110250702Y-86305170D01*
X110264397Y-86350314D01*
X110308799Y-86496687D01*
X110403141Y-86673190D01*
X110530105Y-86827896D01*
X110568868Y-86859708D01*
X112609159Y-88900000D01*
X100506893Y-88900000D01*
X100456999Y-88895086D01*
X100407105Y-88900000D01*
X100407098Y-88900000D01*
X100257829Y-88914702D01*
X100066313Y-88972798D01*
X99889810Y-89067140D01*
X99735104Y-89194104D01*
X99703294Y-89232865D01*
X98503872Y-90432288D01*
X98465104Y-90464104D01*
X98338140Y-90618810D01*
X98243798Y-90795314D01*
X98202335Y-90932000D01*
X98185702Y-90986830D01*
X98166085Y-91186000D01*
X98171000Y-91235902D01*
X98171000Y-91610057D01*
X98079220Y-91637898D01*
X97968906Y-91696863D01*
X97872215Y-91776215D01*
X97792863Y-91872906D01*
X97733898Y-91983220D01*
X97697588Y-92102918D01*
X97685328Y-92227400D01*
X97685328Y-93954600D01*
X97697588Y-94079082D01*
X97733898Y-94198780D01*
X97792863Y-94309094D01*
X97872215Y-94405785D01*
X97968906Y-94485137D01*
X98079220Y-94544102D01*
X98143574Y-94563624D01*
X98080146Y-94620707D01*
X97904316Y-94856056D01*
X97777778Y-95121186D01*
X97732042Y-95271974D01*
X97853183Y-95504000D01*
X99060000Y-95504000D01*
X99060000Y-95484000D01*
X99314000Y-95484000D01*
X99314000Y-95504000D01*
X99334000Y-95504000D01*
X99334000Y-95758000D01*
X99314000Y-95758000D01*
X99314000Y-95778000D01*
X99060000Y-95778000D01*
X99060000Y-95758000D01*
X97853183Y-95758000D01*
X97732042Y-95990026D01*
X97777778Y-96140814D01*
X97904316Y-96405944D01*
X98080146Y-96641293D01*
X98298512Y-96837817D01*
X98394910Y-96895137D01*
X98350394Y-96918931D01*
X98122203Y-97106203D01*
X97934931Y-97334394D01*
X97795775Y-97594736D01*
X97710084Y-97877223D01*
X97681149Y-98171000D01*
X97710084Y-98464777D01*
X97795775Y-98747264D01*
X97934931Y-99007606D01*
X98122203Y-99235797D01*
X98350394Y-99423069D01*
X98383940Y-99441000D01*
X98350394Y-99458931D01*
X98122203Y-99646203D01*
X97934931Y-99874394D01*
X97795775Y-100134736D01*
X97710084Y-100417223D01*
X97681149Y-100711000D01*
X97710084Y-101004777D01*
X97795775Y-101287264D01*
X97934931Y-101547606D01*
X98122203Y-101775797D01*
X98350394Y-101963069D01*
X98383940Y-101981000D01*
X98350394Y-101998931D01*
X98122203Y-102186203D01*
X97934931Y-102414394D01*
X97893984Y-102491000D01*
X97596802Y-102491000D01*
X97407000Y-102301199D01*
X97407000Y-82610801D01*
X99501803Y-80516000D01*
X107766368Y-80516000D01*
X107656866Y-80605866D01*
X107656866Y-80605866D01*
G37*
X107656866Y-80605866D02*
X107471294Y-80831986D01*
X107333401Y-81089966D01*
X107248487Y-81369889D01*
X107219815Y-81661000D01*
X107248487Y-81952111D01*
X107333401Y-82232034D01*
X107471294Y-82490014D01*
X107656866Y-82716134D01*
X107882986Y-82901706D01*
X108140966Y-83039599D01*
X108420889Y-83124513D01*
X108639050Y-83146000D01*
X108784950Y-83146000D01*
X109003111Y-83124513D01*
X109283034Y-83039599D01*
X109541014Y-82901706D01*
X109767134Y-82716134D01*
X109952706Y-82490014D01*
X109982000Y-82435209D01*
X110011294Y-82490014D01*
X110196866Y-82716134D01*
X110236000Y-82748251D01*
X110236001Y-86056088D01*
X110231085Y-86106000D01*
X110250702Y-86305170D01*
X110264397Y-86350314D01*
X110308799Y-86496687D01*
X110403141Y-86673190D01*
X110530105Y-86827896D01*
X110568868Y-86859708D01*
X112609159Y-88900000D01*
X100506893Y-88900000D01*
X100456999Y-88895086D01*
X100407105Y-88900000D01*
X100407098Y-88900000D01*
X100257829Y-88914702D01*
X100066313Y-88972798D01*
X99889810Y-89067140D01*
X99735104Y-89194104D01*
X99703294Y-89232865D01*
X98503872Y-90432288D01*
X98465104Y-90464104D01*
X98338140Y-90618810D01*
X98243798Y-90795314D01*
X98202335Y-90932000D01*
X98185702Y-90986830D01*
X98166085Y-91186000D01*
X98171000Y-91235902D01*
X98171000Y-91610057D01*
X98079220Y-91637898D01*
X97968906Y-91696863D01*
X97872215Y-91776215D01*
X97792863Y-91872906D01*
X97733898Y-91983220D01*
X97697588Y-92102918D01*
X97685328Y-92227400D01*
X97685328Y-93954600D01*
X97697588Y-94079082D01*
X97733898Y-94198780D01*
X97792863Y-94309094D01*
X97872215Y-94405785D01*
X97968906Y-94485137D01*
X98079220Y-94544102D01*
X98143574Y-94563624D01*
X98080146Y-94620707D01*
X97904316Y-94856056D01*
X97777778Y-95121186D01*
X97732042Y-95271974D01*
X97853183Y-95504000D01*
X99060000Y-95504000D01*
X99060000Y-95484000D01*
X99314000Y-95484000D01*
X99314000Y-95504000D01*
X99334000Y-95504000D01*
X99334000Y-95758000D01*
X99314000Y-95758000D01*
X99314000Y-95778000D01*
X99060000Y-95778000D01*
X99060000Y-95758000D01*
X97853183Y-95758000D01*
X97732042Y-95990026D01*
X97777778Y-96140814D01*
X97904316Y-96405944D01*
X98080146Y-96641293D01*
X98298512Y-96837817D01*
X98394910Y-96895137D01*
X98350394Y-96918931D01*
X98122203Y-97106203D01*
X97934931Y-97334394D01*
X97795775Y-97594736D01*
X97710084Y-97877223D01*
X97681149Y-98171000D01*
X97710084Y-98464777D01*
X97795775Y-98747264D01*
X97934931Y-99007606D01*
X98122203Y-99235797D01*
X98350394Y-99423069D01*
X98383940Y-99441000D01*
X98350394Y-99458931D01*
X98122203Y-99646203D01*
X97934931Y-99874394D01*
X97795775Y-100134736D01*
X97710084Y-100417223D01*
X97681149Y-100711000D01*
X97710084Y-101004777D01*
X97795775Y-101287264D01*
X97934931Y-101547606D01*
X98122203Y-101775797D01*
X98350394Y-101963069D01*
X98383940Y-101981000D01*
X98350394Y-101998931D01*
X98122203Y-102186203D01*
X97934931Y-102414394D01*
X97893984Y-102491000D01*
X97596802Y-102491000D01*
X97407000Y-102301199D01*
X97407000Y-82610801D01*
X99501803Y-80516000D01*
X107766368Y-80516000D01*
X107656866Y-80605866D01*
M02*
