G04 #@! TF.GenerationSoftware,KiCad,Pcbnew,5.1.4-e60b266~84~ubuntu19.04.1*
G04 #@! TF.CreationDate,2019-09-18T22:19:55+02:00*
G04 #@! TF.ProjectId,jlink-tagConnect-adapter,6a6c696e-6b2d-4746-9167-436f6e6e6563,rev?*
G04 #@! TF.SameCoordinates,Original*
G04 #@! TF.FileFunction,Copper,L1,Top*
G04 #@! TF.FilePolarity,Positive*
%FSLAX46Y46*%
G04 Gerber Fmt 4.6, Leading zero omitted, Abs format (unit mm)*
G04 Created by KiCad (PCBNEW 5.1.4-e60b266~84~ubuntu19.04.1) date 2019-09-18 22:19:55*
%MOMM*%
%LPD*%
G04 APERTURE LIST*
%ADD10O,1.700000X1.700000*%
%ADD11R,1.700000X1.700000*%
%ADD12R,1.727200X1.727200*%
%ADD13O,1.727200X1.727200*%
%ADD14C,0.100000*%
%ADD15C,1.150000*%
%ADD16R,2.180000X1.600000*%
%ADD17C,0.762000*%
%ADD18C,0.254000*%
%ADD19C,0.250000*%
%ADD20C,0.762000*%
%ADD21C,0.508000*%
G04 APERTURE END LIST*
D10*
X143637000Y-86741000D03*
X141097000Y-86741000D03*
X143637000Y-89281000D03*
X141097000Y-89281000D03*
X143637000Y-91821000D03*
X141097000Y-91821000D03*
X143637000Y-94361000D03*
X141097000Y-94361000D03*
X143637000Y-96901000D03*
X141097000Y-96901000D03*
X143637000Y-99441000D03*
X141097000Y-99441000D03*
X143637000Y-101981000D03*
X141097000Y-101981000D03*
X143637000Y-104521000D03*
X141097000Y-104521000D03*
X143637000Y-107061000D03*
X141097000Y-107061000D03*
X143637000Y-109601000D03*
D11*
X141097000Y-109601000D03*
D12*
X99187000Y-93091000D03*
D13*
X101727000Y-93091000D03*
X99187000Y-95631000D03*
X101727000Y-95631000D03*
X99187000Y-98171000D03*
X101727000Y-98171000D03*
X99187000Y-100711000D03*
X101727000Y-100711000D03*
X99187000Y-103251000D03*
X101727000Y-103251000D03*
D14*
G36*
X128871505Y-111812204D02*
G01*
X128895773Y-111815804D01*
X128919572Y-111821765D01*
X128942671Y-111830030D01*
X128964850Y-111840520D01*
X128985893Y-111853132D01*
X129005599Y-111867747D01*
X129023777Y-111884223D01*
X129040253Y-111902401D01*
X129054868Y-111922107D01*
X129067480Y-111943150D01*
X129077970Y-111965329D01*
X129086235Y-111988428D01*
X129092196Y-112012227D01*
X129095796Y-112036495D01*
X129097000Y-112060999D01*
X129097000Y-112711001D01*
X129095796Y-112735505D01*
X129092196Y-112759773D01*
X129086235Y-112783572D01*
X129077970Y-112806671D01*
X129067480Y-112828850D01*
X129054868Y-112849893D01*
X129040253Y-112869599D01*
X129023777Y-112887777D01*
X129005599Y-112904253D01*
X128985893Y-112918868D01*
X128964850Y-112931480D01*
X128942671Y-112941970D01*
X128919572Y-112950235D01*
X128895773Y-112956196D01*
X128871505Y-112959796D01*
X128847001Y-112961000D01*
X127946999Y-112961000D01*
X127922495Y-112959796D01*
X127898227Y-112956196D01*
X127874428Y-112950235D01*
X127851329Y-112941970D01*
X127829150Y-112931480D01*
X127808107Y-112918868D01*
X127788401Y-112904253D01*
X127770223Y-112887777D01*
X127753747Y-112869599D01*
X127739132Y-112849893D01*
X127726520Y-112828850D01*
X127716030Y-112806671D01*
X127707765Y-112783572D01*
X127701804Y-112759773D01*
X127698204Y-112735505D01*
X127697000Y-112711001D01*
X127697000Y-112060999D01*
X127698204Y-112036495D01*
X127701804Y-112012227D01*
X127707765Y-111988428D01*
X127716030Y-111965329D01*
X127726520Y-111943150D01*
X127739132Y-111922107D01*
X127753747Y-111902401D01*
X127770223Y-111884223D01*
X127788401Y-111867747D01*
X127808107Y-111853132D01*
X127829150Y-111840520D01*
X127851329Y-111830030D01*
X127874428Y-111821765D01*
X127898227Y-111815804D01*
X127922495Y-111812204D01*
X127946999Y-111811000D01*
X128847001Y-111811000D01*
X128871505Y-111812204D01*
X128871505Y-111812204D01*
G37*
D15*
X128397000Y-112386000D03*
D14*
G36*
X128871505Y-113862204D02*
G01*
X128895773Y-113865804D01*
X128919572Y-113871765D01*
X128942671Y-113880030D01*
X128964850Y-113890520D01*
X128985893Y-113903132D01*
X129005599Y-113917747D01*
X129023777Y-113934223D01*
X129040253Y-113952401D01*
X129054868Y-113972107D01*
X129067480Y-113993150D01*
X129077970Y-114015329D01*
X129086235Y-114038428D01*
X129092196Y-114062227D01*
X129095796Y-114086495D01*
X129097000Y-114110999D01*
X129097000Y-114761001D01*
X129095796Y-114785505D01*
X129092196Y-114809773D01*
X129086235Y-114833572D01*
X129077970Y-114856671D01*
X129067480Y-114878850D01*
X129054868Y-114899893D01*
X129040253Y-114919599D01*
X129023777Y-114937777D01*
X129005599Y-114954253D01*
X128985893Y-114968868D01*
X128964850Y-114981480D01*
X128942671Y-114991970D01*
X128919572Y-115000235D01*
X128895773Y-115006196D01*
X128871505Y-115009796D01*
X128847001Y-115011000D01*
X127946999Y-115011000D01*
X127922495Y-115009796D01*
X127898227Y-115006196D01*
X127874428Y-115000235D01*
X127851329Y-114991970D01*
X127829150Y-114981480D01*
X127808107Y-114968868D01*
X127788401Y-114954253D01*
X127770223Y-114937777D01*
X127753747Y-114919599D01*
X127739132Y-114899893D01*
X127726520Y-114878850D01*
X127716030Y-114856671D01*
X127707765Y-114833572D01*
X127701804Y-114809773D01*
X127698204Y-114785505D01*
X127697000Y-114761001D01*
X127697000Y-114110999D01*
X127698204Y-114086495D01*
X127701804Y-114062227D01*
X127707765Y-114038428D01*
X127716030Y-114015329D01*
X127726520Y-113993150D01*
X127739132Y-113972107D01*
X127753747Y-113952401D01*
X127770223Y-113934223D01*
X127788401Y-113917747D01*
X127808107Y-113903132D01*
X127829150Y-113890520D01*
X127851329Y-113880030D01*
X127874428Y-113871765D01*
X127898227Y-113865804D01*
X127922495Y-113862204D01*
X127946999Y-113861000D01*
X128847001Y-113861000D01*
X128871505Y-113862204D01*
X128871505Y-113862204D01*
G37*
D15*
X128397000Y-114436000D03*
D11*
X123952000Y-81661000D03*
D10*
X121412000Y-81661000D03*
X118872000Y-81661000D03*
X116332000Y-81661000D03*
X113792000Y-81661000D03*
X111252000Y-81661000D03*
X108712000Y-81661000D03*
D11*
X134112000Y-81661000D03*
D10*
X131572000Y-81661000D03*
X129032000Y-81661000D03*
D11*
X131572000Y-95631000D03*
D10*
X131572000Y-98171000D03*
X131572000Y-100711000D03*
D11*
X113792000Y-96266000D03*
D10*
X111252000Y-96266000D03*
X108712000Y-96266000D03*
X108712000Y-100076000D03*
X111252000Y-100076000D03*
D11*
X113792000Y-100076000D03*
D14*
G36*
X131411505Y-113862204D02*
G01*
X131435773Y-113865804D01*
X131459572Y-113871765D01*
X131482671Y-113880030D01*
X131504850Y-113890520D01*
X131525893Y-113903132D01*
X131545599Y-113917747D01*
X131563777Y-113934223D01*
X131580253Y-113952401D01*
X131594868Y-113972107D01*
X131607480Y-113993150D01*
X131617970Y-114015329D01*
X131626235Y-114038428D01*
X131632196Y-114062227D01*
X131635796Y-114086495D01*
X131637000Y-114110999D01*
X131637000Y-114761001D01*
X131635796Y-114785505D01*
X131632196Y-114809773D01*
X131626235Y-114833572D01*
X131617970Y-114856671D01*
X131607480Y-114878850D01*
X131594868Y-114899893D01*
X131580253Y-114919599D01*
X131563777Y-114937777D01*
X131545599Y-114954253D01*
X131525893Y-114968868D01*
X131504850Y-114981480D01*
X131482671Y-114991970D01*
X131459572Y-115000235D01*
X131435773Y-115006196D01*
X131411505Y-115009796D01*
X131387001Y-115011000D01*
X130486999Y-115011000D01*
X130462495Y-115009796D01*
X130438227Y-115006196D01*
X130414428Y-115000235D01*
X130391329Y-114991970D01*
X130369150Y-114981480D01*
X130348107Y-114968868D01*
X130328401Y-114954253D01*
X130310223Y-114937777D01*
X130293747Y-114919599D01*
X130279132Y-114899893D01*
X130266520Y-114878850D01*
X130256030Y-114856671D01*
X130247765Y-114833572D01*
X130241804Y-114809773D01*
X130238204Y-114785505D01*
X130237000Y-114761001D01*
X130237000Y-114110999D01*
X130238204Y-114086495D01*
X130241804Y-114062227D01*
X130247765Y-114038428D01*
X130256030Y-114015329D01*
X130266520Y-113993150D01*
X130279132Y-113972107D01*
X130293747Y-113952401D01*
X130310223Y-113934223D01*
X130328401Y-113917747D01*
X130348107Y-113903132D01*
X130369150Y-113890520D01*
X130391329Y-113880030D01*
X130414428Y-113871765D01*
X130438227Y-113865804D01*
X130462495Y-113862204D01*
X130486999Y-113861000D01*
X131387001Y-113861000D01*
X131411505Y-113862204D01*
X131411505Y-113862204D01*
G37*
D15*
X130937000Y-114436000D03*
D14*
G36*
X131411505Y-111812204D02*
G01*
X131435773Y-111815804D01*
X131459572Y-111821765D01*
X131482671Y-111830030D01*
X131504850Y-111840520D01*
X131525893Y-111853132D01*
X131545599Y-111867747D01*
X131563777Y-111884223D01*
X131580253Y-111902401D01*
X131594868Y-111922107D01*
X131607480Y-111943150D01*
X131617970Y-111965329D01*
X131626235Y-111988428D01*
X131632196Y-112012227D01*
X131635796Y-112036495D01*
X131637000Y-112060999D01*
X131637000Y-112711001D01*
X131635796Y-112735505D01*
X131632196Y-112759773D01*
X131626235Y-112783572D01*
X131617970Y-112806671D01*
X131607480Y-112828850D01*
X131594868Y-112849893D01*
X131580253Y-112869599D01*
X131563777Y-112887777D01*
X131545599Y-112904253D01*
X131525893Y-112918868D01*
X131504850Y-112931480D01*
X131482671Y-112941970D01*
X131459572Y-112950235D01*
X131435773Y-112956196D01*
X131411505Y-112959796D01*
X131387001Y-112961000D01*
X130486999Y-112961000D01*
X130462495Y-112959796D01*
X130438227Y-112956196D01*
X130414428Y-112950235D01*
X130391329Y-112941970D01*
X130369150Y-112931480D01*
X130348107Y-112918868D01*
X130328401Y-112904253D01*
X130310223Y-112887777D01*
X130293747Y-112869599D01*
X130279132Y-112849893D01*
X130266520Y-112828850D01*
X130256030Y-112806671D01*
X130247765Y-112783572D01*
X130241804Y-112759773D01*
X130238204Y-112735505D01*
X130237000Y-112711001D01*
X130237000Y-112060999D01*
X130238204Y-112036495D01*
X130241804Y-112012227D01*
X130247765Y-111988428D01*
X130256030Y-111965329D01*
X130266520Y-111943150D01*
X130279132Y-111922107D01*
X130293747Y-111902401D01*
X130310223Y-111884223D01*
X130328401Y-111867747D01*
X130348107Y-111853132D01*
X130369150Y-111840520D01*
X130391329Y-111830030D01*
X130414428Y-111821765D01*
X130438227Y-111815804D01*
X130462495Y-111812204D01*
X130486999Y-111811000D01*
X131387001Y-111811000D01*
X131411505Y-111812204D01*
X131411505Y-111812204D01*
G37*
D15*
X130937000Y-112386000D03*
D14*
G36*
X111091505Y-113862204D02*
G01*
X111115773Y-113865804D01*
X111139572Y-113871765D01*
X111162671Y-113880030D01*
X111184850Y-113890520D01*
X111205893Y-113903132D01*
X111225599Y-113917747D01*
X111243777Y-113934223D01*
X111260253Y-113952401D01*
X111274868Y-113972107D01*
X111287480Y-113993150D01*
X111297970Y-114015329D01*
X111306235Y-114038428D01*
X111312196Y-114062227D01*
X111315796Y-114086495D01*
X111317000Y-114110999D01*
X111317000Y-114761001D01*
X111315796Y-114785505D01*
X111312196Y-114809773D01*
X111306235Y-114833572D01*
X111297970Y-114856671D01*
X111287480Y-114878850D01*
X111274868Y-114899893D01*
X111260253Y-114919599D01*
X111243777Y-114937777D01*
X111225599Y-114954253D01*
X111205893Y-114968868D01*
X111184850Y-114981480D01*
X111162671Y-114991970D01*
X111139572Y-115000235D01*
X111115773Y-115006196D01*
X111091505Y-115009796D01*
X111067001Y-115011000D01*
X110166999Y-115011000D01*
X110142495Y-115009796D01*
X110118227Y-115006196D01*
X110094428Y-115000235D01*
X110071329Y-114991970D01*
X110049150Y-114981480D01*
X110028107Y-114968868D01*
X110008401Y-114954253D01*
X109990223Y-114937777D01*
X109973747Y-114919599D01*
X109959132Y-114899893D01*
X109946520Y-114878850D01*
X109936030Y-114856671D01*
X109927765Y-114833572D01*
X109921804Y-114809773D01*
X109918204Y-114785505D01*
X109917000Y-114761001D01*
X109917000Y-114110999D01*
X109918204Y-114086495D01*
X109921804Y-114062227D01*
X109927765Y-114038428D01*
X109936030Y-114015329D01*
X109946520Y-113993150D01*
X109959132Y-113972107D01*
X109973747Y-113952401D01*
X109990223Y-113934223D01*
X110008401Y-113917747D01*
X110028107Y-113903132D01*
X110049150Y-113890520D01*
X110071329Y-113880030D01*
X110094428Y-113871765D01*
X110118227Y-113865804D01*
X110142495Y-113862204D01*
X110166999Y-113861000D01*
X111067001Y-113861000D01*
X111091505Y-113862204D01*
X111091505Y-113862204D01*
G37*
D15*
X110617000Y-114436000D03*
D14*
G36*
X111091505Y-111812204D02*
G01*
X111115773Y-111815804D01*
X111139572Y-111821765D01*
X111162671Y-111830030D01*
X111184850Y-111840520D01*
X111205893Y-111853132D01*
X111225599Y-111867747D01*
X111243777Y-111884223D01*
X111260253Y-111902401D01*
X111274868Y-111922107D01*
X111287480Y-111943150D01*
X111297970Y-111965329D01*
X111306235Y-111988428D01*
X111312196Y-112012227D01*
X111315796Y-112036495D01*
X111317000Y-112060999D01*
X111317000Y-112711001D01*
X111315796Y-112735505D01*
X111312196Y-112759773D01*
X111306235Y-112783572D01*
X111297970Y-112806671D01*
X111287480Y-112828850D01*
X111274868Y-112849893D01*
X111260253Y-112869599D01*
X111243777Y-112887777D01*
X111225599Y-112904253D01*
X111205893Y-112918868D01*
X111184850Y-112931480D01*
X111162671Y-112941970D01*
X111139572Y-112950235D01*
X111115773Y-112956196D01*
X111091505Y-112959796D01*
X111067001Y-112961000D01*
X110166999Y-112961000D01*
X110142495Y-112959796D01*
X110118227Y-112956196D01*
X110094428Y-112950235D01*
X110071329Y-112941970D01*
X110049150Y-112931480D01*
X110028107Y-112918868D01*
X110008401Y-112904253D01*
X109990223Y-112887777D01*
X109973747Y-112869599D01*
X109959132Y-112849893D01*
X109946520Y-112828850D01*
X109936030Y-112806671D01*
X109927765Y-112783572D01*
X109921804Y-112759773D01*
X109918204Y-112735505D01*
X109917000Y-112711001D01*
X109917000Y-112060999D01*
X109918204Y-112036495D01*
X109921804Y-112012227D01*
X109927765Y-111988428D01*
X109936030Y-111965329D01*
X109946520Y-111943150D01*
X109959132Y-111922107D01*
X109973747Y-111902401D01*
X109990223Y-111884223D01*
X110008401Y-111867747D01*
X110028107Y-111853132D01*
X110049150Y-111840520D01*
X110071329Y-111830030D01*
X110094428Y-111821765D01*
X110118227Y-111815804D01*
X110142495Y-111812204D01*
X110166999Y-111811000D01*
X111067001Y-111811000D01*
X111091505Y-111812204D01*
X111091505Y-111812204D01*
G37*
D15*
X110617000Y-112386000D03*
D16*
X114917000Y-113411000D03*
X124097000Y-113411000D03*
D17*
X121412000Y-103886000D03*
X123952000Y-109601000D03*
X129032000Y-93726000D03*
X129032000Y-102616000D03*
X128397000Y-115951000D03*
X110617000Y-115951000D03*
X138557000Y-108331000D03*
X111887000Y-92456000D03*
X120142000Y-92456000D03*
X130937000Y-109601000D03*
X113792000Y-108966000D03*
X137922000Y-88011000D03*
D18*
X128397000Y-112386000D02*
X128642000Y-112386000D01*
X130692000Y-114436000D02*
X130937000Y-114436000D01*
X128642000Y-112386000D02*
X130692000Y-114436000D01*
X128397000Y-112386000D02*
X127517000Y-112386000D01*
X126492000Y-113411000D02*
X124097000Y-113411000D01*
X127517000Y-112386000D02*
X126492000Y-113411000D01*
X141097000Y-91821000D02*
X136017000Y-91821000D01*
X136017000Y-91821000D02*
X134112000Y-93726000D01*
X134112000Y-93726000D02*
X134112000Y-103251000D01*
X134112000Y-103251000D02*
X132207000Y-105156000D01*
X102362000Y-98171000D02*
X101727000Y-98171000D01*
X132207000Y-105156000D02*
X126492000Y-105156000D01*
X107442000Y-105156000D02*
X106172000Y-103886000D01*
X106172000Y-103886000D02*
X106172000Y-100711000D01*
X106172000Y-100711000D02*
X104902000Y-99441000D01*
X102997000Y-99441000D02*
X101727000Y-98171000D01*
X104902000Y-99441000D02*
X102997000Y-99441000D01*
D19*
X98552000Y-81661000D02*
X108712000Y-81661000D01*
X101727000Y-98171000D02*
X100457000Y-99441000D01*
X100457000Y-99441000D02*
X97917000Y-99441000D01*
X97917000Y-99441000D02*
X97282000Y-98806000D01*
X97282000Y-98806000D02*
X97282000Y-82931000D01*
X97282000Y-82931000D02*
X98552000Y-81661000D01*
D18*
X122047000Y-105156000D02*
X107442000Y-105156000D01*
X126492000Y-105156000D02*
X122047000Y-105156000D01*
D19*
X121412000Y-103886000D02*
X121412000Y-103886000D01*
X124097000Y-109746000D02*
X123952000Y-109601000D01*
X124097000Y-113411000D02*
X124097000Y-109746000D01*
X121412000Y-104521000D02*
X122047000Y-105156000D01*
X121412000Y-103886000D02*
X121412000Y-104521000D01*
D20*
X143637000Y-86741000D02*
X143637000Y-89281000D01*
X143637000Y-89281000D02*
X143637000Y-91821000D01*
X143637000Y-91821000D02*
X143637000Y-94361000D01*
X143637000Y-94361000D02*
X143637000Y-96901000D01*
X143637000Y-96901000D02*
X143637000Y-99441000D01*
X143637000Y-99441000D02*
X143637000Y-101981000D01*
X143637000Y-101981000D02*
X143637000Y-104521000D01*
X143637000Y-104521000D02*
X143637000Y-107061000D01*
D21*
X143637000Y-107061000D02*
X143510000Y-107061000D01*
D20*
X143637000Y-86741000D02*
X143637000Y-84836000D01*
D18*
X136652000Y-101981000D02*
X136017000Y-102616000D01*
X134112000Y-107061000D02*
X105537000Y-107061000D01*
X136017000Y-105156000D02*
X134112000Y-107061000D01*
X136017000Y-102616000D02*
X136017000Y-105156000D01*
X141097000Y-101981000D02*
X136652000Y-101981000D01*
X105537000Y-107061000D02*
X101727000Y-103251000D01*
X121412000Y-81026000D02*
X121412000Y-81661000D01*
X141097000Y-99441000D02*
X136017000Y-99441000D01*
X100457000Y-101981000D02*
X99187000Y-103251000D01*
X136017000Y-99441000D02*
X135382000Y-100076000D01*
X133477000Y-106426000D02*
X106172000Y-106426000D01*
X135382000Y-104521000D02*
X133477000Y-106426000D01*
X135382000Y-100076000D02*
X135382000Y-104521000D01*
X104902000Y-105156000D02*
X104902000Y-103251000D01*
X103632000Y-101981000D02*
X100457000Y-101981000D01*
X106172000Y-106426000D02*
X104902000Y-105156000D01*
X104902000Y-103251000D02*
X103632000Y-101981000D01*
X108712000Y-91821000D02*
X108712000Y-96266000D01*
X111252000Y-89281000D02*
X108712000Y-91821000D01*
X118872000Y-81661000D02*
X118872000Y-87376000D01*
X116967000Y-89281000D02*
X111252000Y-89281000D01*
X141097000Y-89281000D02*
X120777000Y-89281000D01*
X118872000Y-87376000D02*
X120777000Y-89281000D01*
X120777000Y-89281000D02*
X116967000Y-89281000D01*
D19*
X141097000Y-104521000D02*
X137922000Y-104521000D01*
X137922000Y-104521000D02*
X134747000Y-107696000D01*
X134747000Y-107696000D02*
X100457000Y-107696000D01*
X100457000Y-107696000D02*
X97282000Y-104521000D01*
X97282000Y-104521000D02*
X97282000Y-101346000D01*
X97917000Y-100711000D02*
X99187000Y-100711000D01*
X97282000Y-101346000D02*
X97917000Y-100711000D01*
X96647000Y-99441000D02*
X96647000Y-82296000D01*
X97917000Y-100711000D02*
X96647000Y-99441000D01*
X96647000Y-82296000D02*
X99187000Y-79756000D01*
X116332000Y-80391000D02*
X116332000Y-81661000D01*
X115697000Y-79756000D02*
X116332000Y-80391000D01*
X99187000Y-79756000D02*
X115697000Y-79756000D01*
D18*
X130937000Y-109601000D02*
X130937000Y-112386000D01*
X104902000Y-100711000D02*
X101727000Y-100711000D01*
X141097000Y-94361000D02*
X136017000Y-94361000D01*
X105537000Y-104521000D02*
X105537000Y-101346000D01*
X106807000Y-105791000D02*
X105537000Y-104521000D01*
X134747000Y-95631000D02*
X134747000Y-103886000D01*
X134747000Y-103886000D02*
X132842000Y-105791000D01*
X136017000Y-94361000D02*
X134747000Y-95631000D01*
X132842000Y-105791000D02*
X106807000Y-105791000D01*
X105537000Y-101346000D02*
X104902000Y-100711000D01*
X142367000Y-105791000D02*
X142367000Y-85471000D01*
X141097000Y-107061000D02*
X142367000Y-105791000D01*
X131572000Y-83566000D02*
X131572000Y-81661000D01*
X141097000Y-84201000D02*
X132207000Y-84201000D01*
X132207000Y-84201000D02*
X131572000Y-83566000D01*
X142367000Y-85471000D02*
X141097000Y-84201000D01*
D19*
X141097000Y-107061000D02*
X136652000Y-107061000D01*
X136652000Y-107061000D02*
X135382000Y-108331000D01*
X135382000Y-108331000D02*
X114427000Y-108331000D01*
X114427000Y-108331000D02*
X113792000Y-108966000D01*
X113792000Y-108966000D02*
X113792000Y-108966000D01*
D18*
X137922000Y-88011000D02*
X137922000Y-86106000D01*
X137922000Y-86106000D02*
X136652000Y-84836000D01*
X136652000Y-84836000D02*
X129667000Y-84836000D01*
X129032000Y-84201000D02*
X129032000Y-81661000D01*
X129667000Y-84836000D02*
X129032000Y-84201000D01*
X111252000Y-96266000D02*
X111252000Y-96901000D01*
X110236000Y-97790000D02*
X105156000Y-97790000D01*
X105156000Y-97790000D02*
X102997000Y-95631000D01*
X111252000Y-96266000D02*
X111252000Y-96774000D01*
X102997000Y-95631000D02*
X101727000Y-95631000D01*
X111252000Y-96774000D02*
X110236000Y-97790000D01*
X111252000Y-100076000D02*
X111252000Y-99568000D01*
X111252000Y-99568000D02*
X110236000Y-98552000D01*
X110236000Y-98552000D02*
X104394000Y-98552000D01*
X104394000Y-98552000D02*
X102743000Y-96901000D01*
X100457000Y-96901000D02*
X99187000Y-98171000D01*
X102743000Y-96901000D02*
X100457000Y-96901000D01*
X110617000Y-112386000D02*
X111497000Y-112386000D01*
X111497000Y-112386000D02*
X112522000Y-113411000D01*
X112522000Y-113411000D02*
X114917000Y-113411000D01*
G36*
X143627869Y-78779722D02*
G01*
X143741246Y-78813953D01*
X143845819Y-78869555D01*
X143937596Y-78944407D01*
X144013091Y-79035664D01*
X144069419Y-79139844D01*
X144104440Y-79252976D01*
X144120000Y-79401022D01*
X144120000Y-85344254D01*
X143993891Y-85299519D01*
X143764000Y-85420186D01*
X143764000Y-86614000D01*
X143784000Y-86614000D01*
X143784000Y-86868000D01*
X143764000Y-86868000D01*
X143764000Y-89154000D01*
X143784000Y-89154000D01*
X143784000Y-89408000D01*
X143764000Y-89408000D01*
X143764000Y-91694000D01*
X143784000Y-91694000D01*
X143784000Y-91948000D01*
X143764000Y-91948000D01*
X143764000Y-94234000D01*
X143784000Y-94234000D01*
X143784000Y-94488000D01*
X143764000Y-94488000D01*
X143764000Y-96774000D01*
X143784000Y-96774000D01*
X143784000Y-97028000D01*
X143764000Y-97028000D01*
X143764000Y-99314000D01*
X143784000Y-99314000D01*
X143784000Y-99568000D01*
X143764000Y-99568000D01*
X143764000Y-101854000D01*
X143784000Y-101854000D01*
X143784000Y-102108000D01*
X143764000Y-102108000D01*
X143764000Y-104394000D01*
X143784000Y-104394000D01*
X143784000Y-104648000D01*
X143764000Y-104648000D01*
X143764000Y-106934000D01*
X143784000Y-106934000D01*
X143784000Y-107188000D01*
X143764000Y-107188000D01*
X143764000Y-107208000D01*
X143510000Y-107208000D01*
X143510000Y-107188000D01*
X143490000Y-107188000D01*
X143490000Y-106934000D01*
X143510000Y-106934000D01*
X143510000Y-104648000D01*
X143490000Y-104648000D01*
X143490000Y-104394000D01*
X143510000Y-104394000D01*
X143510000Y-102108000D01*
X143490000Y-102108000D01*
X143490000Y-101854000D01*
X143510000Y-101854000D01*
X143510000Y-99568000D01*
X143490000Y-99568000D01*
X143490000Y-99314000D01*
X143510000Y-99314000D01*
X143510000Y-97028000D01*
X143490000Y-97028000D01*
X143490000Y-96774000D01*
X143510000Y-96774000D01*
X143510000Y-94488000D01*
X143490000Y-94488000D01*
X143490000Y-94234000D01*
X143510000Y-94234000D01*
X143510000Y-91948000D01*
X143490000Y-91948000D01*
X143490000Y-91694000D01*
X143510000Y-91694000D01*
X143510000Y-89408000D01*
X143490000Y-89408000D01*
X143490000Y-89154000D01*
X143510000Y-89154000D01*
X143510000Y-86868000D01*
X143490000Y-86868000D01*
X143490000Y-86614000D01*
X143510000Y-86614000D01*
X143510000Y-85420186D01*
X143280109Y-85299519D01*
X143121344Y-85355838D01*
X143117974Y-85321622D01*
X143074402Y-85177985D01*
X143003645Y-85045608D01*
X142908422Y-84929578D01*
X142879352Y-84905721D01*
X141662284Y-83688654D01*
X141638422Y-83659578D01*
X141522392Y-83564355D01*
X141390015Y-83493598D01*
X141246378Y-83450026D01*
X141134426Y-83439000D01*
X141134423Y-83439000D01*
X141097000Y-83435314D01*
X141059577Y-83439000D01*
X132522630Y-83439000D01*
X132334000Y-83250370D01*
X132334000Y-82937526D01*
X132401014Y-82901706D01*
X132627134Y-82716134D01*
X132651607Y-82686313D01*
X132672498Y-82755180D01*
X132731463Y-82865494D01*
X132810815Y-82962185D01*
X132907506Y-83041537D01*
X133017820Y-83100502D01*
X133137518Y-83136812D01*
X133262000Y-83149072D01*
X134962000Y-83149072D01*
X135086482Y-83136812D01*
X135206180Y-83100502D01*
X135316494Y-83041537D01*
X135413185Y-82962185D01*
X135492537Y-82865494D01*
X135551502Y-82755180D01*
X135587812Y-82635482D01*
X135600072Y-82511000D01*
X135600072Y-80811000D01*
X135587812Y-80686518D01*
X135551502Y-80566820D01*
X135492537Y-80456506D01*
X135413185Y-80359815D01*
X135316494Y-80280463D01*
X135206180Y-80221498D01*
X135086482Y-80185188D01*
X134962000Y-80172928D01*
X133262000Y-80172928D01*
X133137518Y-80185188D01*
X133017820Y-80221498D01*
X132907506Y-80280463D01*
X132810815Y-80359815D01*
X132731463Y-80456506D01*
X132672498Y-80566820D01*
X132651607Y-80635687D01*
X132627134Y-80605866D01*
X132401014Y-80420294D01*
X132143034Y-80282401D01*
X131863111Y-80197487D01*
X131644950Y-80176000D01*
X131499050Y-80176000D01*
X131280889Y-80197487D01*
X131000966Y-80282401D01*
X130742986Y-80420294D01*
X130516866Y-80605866D01*
X130331294Y-80831986D01*
X130302000Y-80886791D01*
X130272706Y-80831986D01*
X130087134Y-80605866D01*
X129861014Y-80420294D01*
X129603034Y-80282401D01*
X129323111Y-80197487D01*
X129104950Y-80176000D01*
X128959050Y-80176000D01*
X128740889Y-80197487D01*
X128460966Y-80282401D01*
X128202986Y-80420294D01*
X127976866Y-80605866D01*
X127791294Y-80831986D01*
X127653401Y-81089966D01*
X127568487Y-81369889D01*
X127539815Y-81661000D01*
X127568487Y-81952111D01*
X127653401Y-82232034D01*
X127791294Y-82490014D01*
X127976866Y-82716134D01*
X128202986Y-82901706D01*
X128270000Y-82937526D01*
X128270000Y-84163577D01*
X128266314Y-84201000D01*
X128270000Y-84238423D01*
X128270000Y-84238425D01*
X128281026Y-84350377D01*
X128324598Y-84494014D01*
X128350773Y-84542984D01*
X128395355Y-84626392D01*
X128434983Y-84674678D01*
X128490578Y-84742422D01*
X128519654Y-84766284D01*
X129101716Y-85348346D01*
X129125578Y-85377422D01*
X129194000Y-85433574D01*
X129241607Y-85472645D01*
X129312364Y-85510465D01*
X129373985Y-85543402D01*
X129517622Y-85586974D01*
X129629574Y-85598000D01*
X129629577Y-85598000D01*
X129667000Y-85601686D01*
X129704423Y-85598000D01*
X136336370Y-85598000D01*
X137160001Y-86421632D01*
X137160000Y-87336159D01*
X137132821Y-87363338D01*
X137021632Y-87529744D01*
X136945044Y-87714644D01*
X136906000Y-87910933D01*
X136906000Y-88111067D01*
X136945044Y-88307356D01*
X137021632Y-88492256D01*
X137039502Y-88519000D01*
X121092631Y-88519000D01*
X119634000Y-87060370D01*
X119634000Y-82937526D01*
X119701014Y-82901706D01*
X119927134Y-82716134D01*
X120112706Y-82490014D01*
X120142000Y-82435209D01*
X120171294Y-82490014D01*
X120356866Y-82716134D01*
X120582986Y-82901706D01*
X120840966Y-83039599D01*
X121120889Y-83124513D01*
X121339050Y-83146000D01*
X121484950Y-83146000D01*
X121703111Y-83124513D01*
X121983034Y-83039599D01*
X122241014Y-82901706D01*
X122467134Y-82716134D01*
X122491607Y-82686313D01*
X122512498Y-82755180D01*
X122571463Y-82865494D01*
X122650815Y-82962185D01*
X122747506Y-83041537D01*
X122857820Y-83100502D01*
X122977518Y-83136812D01*
X123102000Y-83149072D01*
X124802000Y-83149072D01*
X124926482Y-83136812D01*
X125046180Y-83100502D01*
X125156494Y-83041537D01*
X125253185Y-82962185D01*
X125332537Y-82865494D01*
X125391502Y-82755180D01*
X125427812Y-82635482D01*
X125440072Y-82511000D01*
X125440072Y-80811000D01*
X125427812Y-80686518D01*
X125391502Y-80566820D01*
X125332537Y-80456506D01*
X125253185Y-80359815D01*
X125156494Y-80280463D01*
X125046180Y-80221498D01*
X124926482Y-80185188D01*
X124802000Y-80172928D01*
X123102000Y-80172928D01*
X122977518Y-80185188D01*
X122857820Y-80221498D01*
X122747506Y-80280463D01*
X122650815Y-80359815D01*
X122571463Y-80456506D01*
X122512498Y-80566820D01*
X122491607Y-80635687D01*
X122467134Y-80605866D01*
X122241014Y-80420294D01*
X121983034Y-80282401D01*
X121703111Y-80197487D01*
X121484950Y-80176000D01*
X121339050Y-80176000D01*
X121120889Y-80197487D01*
X120840966Y-80282401D01*
X120582986Y-80420294D01*
X120356866Y-80605866D01*
X120171294Y-80831986D01*
X120142000Y-80886791D01*
X120112706Y-80831986D01*
X119927134Y-80605866D01*
X119701014Y-80420294D01*
X119443034Y-80282401D01*
X119163111Y-80197487D01*
X118944950Y-80176000D01*
X118799050Y-80176000D01*
X118580889Y-80197487D01*
X118300966Y-80282401D01*
X118042986Y-80420294D01*
X117816866Y-80605866D01*
X117631294Y-80831986D01*
X117602000Y-80886791D01*
X117572706Y-80831986D01*
X117387134Y-80605866D01*
X117161014Y-80420294D01*
X117095092Y-80385058D01*
X117081003Y-80242014D01*
X117037546Y-80098753D01*
X116966974Y-79966724D01*
X116916306Y-79904985D01*
X116872001Y-79850999D01*
X116843004Y-79827202D01*
X116260803Y-79245002D01*
X116237001Y-79215999D01*
X116121276Y-79121026D01*
X115989247Y-79050454D01*
X115845986Y-79006997D01*
X115734333Y-78996000D01*
X115734322Y-78996000D01*
X115697000Y-78992324D01*
X115659678Y-78996000D01*
X99224322Y-78996000D01*
X99186999Y-78992324D01*
X99149676Y-78996000D01*
X99149667Y-78996000D01*
X99038014Y-79006997D01*
X98894753Y-79050454D01*
X98762724Y-79121026D01*
X98762502Y-79121208D01*
X98675996Y-79192201D01*
X98675992Y-79192205D01*
X98646999Y-79215999D01*
X98623205Y-79244992D01*
X96135998Y-81732201D01*
X96107000Y-81755999D01*
X96083202Y-81784997D01*
X96083201Y-81784998D01*
X96012026Y-81871724D01*
X95941454Y-82003754D01*
X95937166Y-82017891D01*
X95897998Y-82147014D01*
X95892681Y-82201001D01*
X95883324Y-82296000D01*
X95887001Y-82333333D01*
X95887000Y-99403678D01*
X95883324Y-99441000D01*
X95887000Y-99478322D01*
X95887000Y-99478332D01*
X95897997Y-99589985D01*
X95922148Y-99669600D01*
X95941454Y-99733246D01*
X96012026Y-99865276D01*
X96025740Y-99881986D01*
X96106999Y-99981001D01*
X96136003Y-100004804D01*
X96842199Y-100711000D01*
X96770998Y-100782201D01*
X96742000Y-100805999D01*
X96718202Y-100834997D01*
X96718201Y-100834998D01*
X96647026Y-100921724D01*
X96576454Y-101053754D01*
X96552982Y-101131134D01*
X96532998Y-101197014D01*
X96527681Y-101251001D01*
X96518324Y-101346000D01*
X96522001Y-101383332D01*
X96522000Y-104483677D01*
X96518324Y-104521000D01*
X96522000Y-104558322D01*
X96522000Y-104558332D01*
X96532997Y-104669985D01*
X96557148Y-104749600D01*
X96576454Y-104813246D01*
X96647026Y-104945276D01*
X96686871Y-104993826D01*
X96741999Y-105061001D01*
X96771003Y-105084804D01*
X99893201Y-108207003D01*
X99916999Y-108236001D01*
X99945997Y-108259799D01*
X100032723Y-108330974D01*
X100155324Y-108396506D01*
X100164753Y-108401546D01*
X100308014Y-108445003D01*
X100419667Y-108456000D01*
X100419676Y-108456000D01*
X100456999Y-108459676D01*
X100494322Y-108456000D01*
X112910838Y-108456000D01*
X112891632Y-108484744D01*
X112815044Y-108669644D01*
X112776000Y-108865933D01*
X112776000Y-109066067D01*
X112815044Y-109262356D01*
X112891632Y-109447256D01*
X113002821Y-109613662D01*
X113144338Y-109755179D01*
X113310744Y-109866368D01*
X113495644Y-109942956D01*
X113691933Y-109982000D01*
X113892067Y-109982000D01*
X114088356Y-109942956D01*
X114273256Y-109866368D01*
X114439662Y-109755179D01*
X114581179Y-109613662D01*
X114692368Y-109447256D01*
X114768956Y-109262356D01*
X114803041Y-109091000D01*
X123070838Y-109091000D01*
X123051632Y-109119744D01*
X122975044Y-109304644D01*
X122936000Y-109500933D01*
X122936000Y-109701067D01*
X122975044Y-109897356D01*
X123051632Y-110082256D01*
X123162821Y-110248662D01*
X123304338Y-110390179D01*
X123337001Y-110412004D01*
X123337000Y-111972928D01*
X123007000Y-111972928D01*
X122882518Y-111985188D01*
X122762820Y-112021498D01*
X122652506Y-112080463D01*
X122555815Y-112159815D01*
X122476463Y-112256506D01*
X122417498Y-112366820D01*
X122381188Y-112486518D01*
X122368928Y-112611000D01*
X122368928Y-114211000D01*
X122381188Y-114335482D01*
X122417498Y-114455180D01*
X122476463Y-114565494D01*
X122555815Y-114662185D01*
X122652506Y-114741537D01*
X122762820Y-114800502D01*
X122882518Y-114836812D01*
X123007000Y-114849072D01*
X125187000Y-114849072D01*
X125311482Y-114836812D01*
X125431180Y-114800502D01*
X125541494Y-114741537D01*
X125638185Y-114662185D01*
X125717537Y-114565494D01*
X125776502Y-114455180D01*
X125812812Y-114335482D01*
X125825072Y-114211000D01*
X125825072Y-114173000D01*
X126454577Y-114173000D01*
X126492000Y-114176686D01*
X126529423Y-114173000D01*
X126529426Y-114173000D01*
X126641378Y-114161974D01*
X126785015Y-114118402D01*
X126917392Y-114047645D01*
X127033422Y-113952422D01*
X127057284Y-113923346D01*
X127059566Y-113921064D01*
X127062000Y-114150250D01*
X127220750Y-114309000D01*
X128270000Y-114309000D01*
X128270000Y-114289000D01*
X128524000Y-114289000D01*
X128524000Y-114309000D01*
X128544000Y-114309000D01*
X128544000Y-114563000D01*
X128524000Y-114563000D01*
X128524000Y-115487250D01*
X128682750Y-115646000D01*
X129097000Y-115649072D01*
X129221482Y-115636812D01*
X129341180Y-115600502D01*
X129451494Y-115541537D01*
X129548185Y-115462185D01*
X129627537Y-115365494D01*
X129686502Y-115255180D01*
X129709136Y-115180565D01*
X129748595Y-115254387D01*
X129859038Y-115388962D01*
X129993613Y-115499405D01*
X130147149Y-115581472D01*
X130313745Y-115632008D01*
X130486999Y-115649072D01*
X131387001Y-115649072D01*
X131560255Y-115632008D01*
X131726851Y-115581472D01*
X131880387Y-115499405D01*
X132014962Y-115388962D01*
X132125405Y-115254387D01*
X132207472Y-115100851D01*
X132258008Y-114934255D01*
X132275072Y-114761001D01*
X132275072Y-114110999D01*
X132258008Y-113937745D01*
X132207472Y-113771149D01*
X132125405Y-113617613D01*
X132014962Y-113483038D01*
X131927184Y-113411000D01*
X132014962Y-113338962D01*
X132125405Y-113204387D01*
X132207472Y-113050851D01*
X132258008Y-112884255D01*
X132275072Y-112711001D01*
X132275072Y-112060999D01*
X132258008Y-111887745D01*
X132207472Y-111721149D01*
X132125405Y-111567613D01*
X132014962Y-111433038D01*
X131880387Y-111322595D01*
X131726851Y-111240528D01*
X131699000Y-111232080D01*
X131699000Y-110275841D01*
X131726179Y-110248662D01*
X131837368Y-110082256D01*
X131913956Y-109897356D01*
X131953000Y-109701067D01*
X131953000Y-109500933D01*
X131913956Y-109304644D01*
X131837368Y-109119744D01*
X131818162Y-109091000D01*
X135344678Y-109091000D01*
X135382000Y-109094676D01*
X135419322Y-109091000D01*
X135419333Y-109091000D01*
X135530986Y-109080003D01*
X135674247Y-109036546D01*
X135806276Y-108965974D01*
X135922001Y-108871001D01*
X135945804Y-108841997D01*
X136966802Y-107821000D01*
X139819405Y-107821000D01*
X139856294Y-107890014D01*
X140041866Y-108116134D01*
X140071687Y-108140607D01*
X140002820Y-108161498D01*
X139892506Y-108220463D01*
X139795815Y-108299815D01*
X139716463Y-108396506D01*
X139657498Y-108506820D01*
X139621188Y-108626518D01*
X139608928Y-108751000D01*
X139608928Y-110451000D01*
X139621188Y-110575482D01*
X139657498Y-110695180D01*
X139716463Y-110805494D01*
X139795815Y-110902185D01*
X139892506Y-110981537D01*
X140002820Y-111040502D01*
X140122518Y-111076812D01*
X140247000Y-111089072D01*
X141947000Y-111089072D01*
X142071482Y-111076812D01*
X142191180Y-111040502D01*
X142301494Y-110981537D01*
X142398185Y-110902185D01*
X142477537Y-110805494D01*
X142536502Y-110695180D01*
X142557393Y-110626313D01*
X142581866Y-110656134D01*
X142807986Y-110841706D01*
X143065966Y-110979599D01*
X143345889Y-111064513D01*
X143564050Y-111086000D01*
X143709950Y-111086000D01*
X143928111Y-111064513D01*
X144120001Y-111006304D01*
X144120001Y-116934711D01*
X144105278Y-117084869D01*
X144071047Y-117198246D01*
X144015446Y-117302817D01*
X143940594Y-117394595D01*
X143849335Y-117470091D01*
X143745160Y-117526419D01*
X143632024Y-117561440D01*
X143483979Y-117577000D01*
X96044279Y-117577000D01*
X95894131Y-117562278D01*
X95780754Y-117528047D01*
X95676183Y-117472446D01*
X95584405Y-117397594D01*
X95508909Y-117306335D01*
X95452581Y-117202160D01*
X95417560Y-117089024D01*
X95402000Y-116940979D01*
X95402000Y-115011000D01*
X109278928Y-115011000D01*
X109291188Y-115135482D01*
X109327498Y-115255180D01*
X109386463Y-115365494D01*
X109465815Y-115462185D01*
X109562506Y-115541537D01*
X109672820Y-115600502D01*
X109792518Y-115636812D01*
X109917000Y-115649072D01*
X110331250Y-115646000D01*
X110490000Y-115487250D01*
X110490000Y-114563000D01*
X110744000Y-114563000D01*
X110744000Y-115487250D01*
X110902750Y-115646000D01*
X111317000Y-115649072D01*
X111441482Y-115636812D01*
X111561180Y-115600502D01*
X111671494Y-115541537D01*
X111768185Y-115462185D01*
X111847537Y-115365494D01*
X111906502Y-115255180D01*
X111942812Y-115135482D01*
X111955072Y-115011000D01*
X127058928Y-115011000D01*
X127071188Y-115135482D01*
X127107498Y-115255180D01*
X127166463Y-115365494D01*
X127245815Y-115462185D01*
X127342506Y-115541537D01*
X127452820Y-115600502D01*
X127572518Y-115636812D01*
X127697000Y-115649072D01*
X128111250Y-115646000D01*
X128270000Y-115487250D01*
X128270000Y-114563000D01*
X127220750Y-114563000D01*
X127062000Y-114721750D01*
X127058928Y-115011000D01*
X111955072Y-115011000D01*
X111952000Y-114721750D01*
X111793250Y-114563000D01*
X110744000Y-114563000D01*
X110490000Y-114563000D01*
X109440750Y-114563000D01*
X109282000Y-114721750D01*
X109278928Y-115011000D01*
X95402000Y-115011000D01*
X95402000Y-109743675D01*
X97421700Y-109743675D01*
X97421700Y-109966325D01*
X97465137Y-110184696D01*
X97550341Y-110390398D01*
X97674039Y-110575524D01*
X97831476Y-110732961D01*
X98016602Y-110856659D01*
X98051224Y-110871000D01*
X98016602Y-110885341D01*
X97831476Y-111009039D01*
X97674039Y-111166476D01*
X97550341Y-111351602D01*
X97465137Y-111557304D01*
X97421700Y-111775675D01*
X97421700Y-111998325D01*
X97465137Y-112216696D01*
X97550341Y-112422398D01*
X97674039Y-112607524D01*
X97831476Y-112764961D01*
X98016602Y-112888659D01*
X98222304Y-112973863D01*
X98440675Y-113017300D01*
X98663325Y-113017300D01*
X98881696Y-112973863D01*
X99087398Y-112888659D01*
X99272524Y-112764961D01*
X99429961Y-112607524D01*
X99553659Y-112422398D01*
X99638863Y-112216696D01*
X99669833Y-112060999D01*
X109278928Y-112060999D01*
X109278928Y-112711001D01*
X109295992Y-112884255D01*
X109346528Y-113050851D01*
X109428595Y-113204387D01*
X109539038Y-113338962D01*
X109545594Y-113344342D01*
X109465815Y-113409815D01*
X109386463Y-113506506D01*
X109327498Y-113616820D01*
X109291188Y-113736518D01*
X109278928Y-113861000D01*
X109282000Y-114150250D01*
X109440750Y-114309000D01*
X110490000Y-114309000D01*
X110490000Y-114289000D01*
X110744000Y-114289000D01*
X110744000Y-114309000D01*
X111793250Y-114309000D01*
X111952000Y-114150250D01*
X111954434Y-113921065D01*
X111956721Y-113923351D01*
X111980578Y-113952422D01*
X112009648Y-113976279D01*
X112096607Y-114047645D01*
X112167364Y-114085465D01*
X112228985Y-114118402D01*
X112372622Y-114161974D01*
X112484574Y-114173000D01*
X112484577Y-114173000D01*
X112522000Y-114176686D01*
X112559423Y-114173000D01*
X113188928Y-114173000D01*
X113188928Y-114211000D01*
X113201188Y-114335482D01*
X113237498Y-114455180D01*
X113296463Y-114565494D01*
X113375815Y-114662185D01*
X113472506Y-114741537D01*
X113582820Y-114800502D01*
X113702518Y-114836812D01*
X113827000Y-114849072D01*
X116007000Y-114849072D01*
X116131482Y-114836812D01*
X116251180Y-114800502D01*
X116361494Y-114741537D01*
X116458185Y-114662185D01*
X116537537Y-114565494D01*
X116596502Y-114455180D01*
X116632812Y-114335482D01*
X116645072Y-114211000D01*
X116645072Y-112611000D01*
X116632812Y-112486518D01*
X116596502Y-112366820D01*
X116537537Y-112256506D01*
X116458185Y-112159815D01*
X116361494Y-112080463D01*
X116251180Y-112021498D01*
X116131482Y-111985188D01*
X116007000Y-111972928D01*
X113827000Y-111972928D01*
X113702518Y-111985188D01*
X113582820Y-112021498D01*
X113472506Y-112080463D01*
X113375815Y-112159815D01*
X113296463Y-112256506D01*
X113237498Y-112366820D01*
X113201188Y-112486518D01*
X113188928Y-112611000D01*
X113188928Y-112649000D01*
X112837631Y-112649000D01*
X112062284Y-111873654D01*
X112038422Y-111844578D01*
X111922392Y-111749355D01*
X111890926Y-111732536D01*
X111887472Y-111721149D01*
X111805405Y-111567613D01*
X111694962Y-111433038D01*
X111560387Y-111322595D01*
X111406851Y-111240528D01*
X111240255Y-111189992D01*
X111067001Y-111172928D01*
X110166999Y-111172928D01*
X109993745Y-111189992D01*
X109827149Y-111240528D01*
X109673613Y-111322595D01*
X109539038Y-111433038D01*
X109428595Y-111567613D01*
X109346528Y-111721149D01*
X109295992Y-111887745D01*
X109278928Y-112060999D01*
X99669833Y-112060999D01*
X99682300Y-111998325D01*
X99682300Y-111775675D01*
X99638863Y-111557304D01*
X99553659Y-111351602D01*
X99429961Y-111166476D01*
X99272524Y-111009039D01*
X99087398Y-110885341D01*
X99052776Y-110871000D01*
X99087398Y-110856659D01*
X99232543Y-110759675D01*
X105041700Y-110759675D01*
X105041700Y-110982325D01*
X105085137Y-111200696D01*
X105170341Y-111406398D01*
X105294039Y-111591524D01*
X105451476Y-111748961D01*
X105636602Y-111872659D01*
X105842304Y-111957863D01*
X106060675Y-112001300D01*
X106283325Y-112001300D01*
X106501696Y-111957863D01*
X106707398Y-111872659D01*
X106892524Y-111748961D01*
X107049961Y-111591524D01*
X107173659Y-111406398D01*
X107258863Y-111200696D01*
X107302300Y-110982325D01*
X107302300Y-110759675D01*
X107258863Y-110541304D01*
X107173659Y-110335602D01*
X107049961Y-110150476D01*
X106892524Y-109993039D01*
X106707398Y-109869341D01*
X106501696Y-109784137D01*
X106283325Y-109740700D01*
X106060675Y-109740700D01*
X105842304Y-109784137D01*
X105636602Y-109869341D01*
X105451476Y-109993039D01*
X105294039Y-110150476D01*
X105170341Y-110335602D01*
X105085137Y-110541304D01*
X105041700Y-110759675D01*
X99232543Y-110759675D01*
X99272524Y-110732961D01*
X99429961Y-110575524D01*
X99553659Y-110390398D01*
X99638863Y-110184696D01*
X99682300Y-109966325D01*
X99682300Y-109743675D01*
X99638863Y-109525304D01*
X99553659Y-109319602D01*
X99429961Y-109134476D01*
X99272524Y-108977039D01*
X99087398Y-108853341D01*
X98881696Y-108768137D01*
X98663325Y-108724700D01*
X98440675Y-108724700D01*
X98222304Y-108768137D01*
X98016602Y-108853341D01*
X97831476Y-108977039D01*
X97674039Y-109134476D01*
X97550341Y-109319602D01*
X97465137Y-109525304D01*
X97421700Y-109743675D01*
X95402000Y-109743675D01*
X95402000Y-79407279D01*
X95416722Y-79257131D01*
X95450953Y-79143754D01*
X95506555Y-79039181D01*
X95581407Y-78947404D01*
X95672664Y-78871909D01*
X95776844Y-78815581D01*
X95889976Y-78780560D01*
X96038022Y-78765000D01*
X143477721Y-78765000D01*
X143627869Y-78779722D01*
X143627869Y-78779722D01*
G37*
X143627869Y-78779722D02*
X143741246Y-78813953D01*
X143845819Y-78869555D01*
X143937596Y-78944407D01*
X144013091Y-79035664D01*
X144069419Y-79139844D01*
X144104440Y-79252976D01*
X144120000Y-79401022D01*
X144120000Y-85344254D01*
X143993891Y-85299519D01*
X143764000Y-85420186D01*
X143764000Y-86614000D01*
X143784000Y-86614000D01*
X143784000Y-86868000D01*
X143764000Y-86868000D01*
X143764000Y-89154000D01*
X143784000Y-89154000D01*
X143784000Y-89408000D01*
X143764000Y-89408000D01*
X143764000Y-91694000D01*
X143784000Y-91694000D01*
X143784000Y-91948000D01*
X143764000Y-91948000D01*
X143764000Y-94234000D01*
X143784000Y-94234000D01*
X143784000Y-94488000D01*
X143764000Y-94488000D01*
X143764000Y-96774000D01*
X143784000Y-96774000D01*
X143784000Y-97028000D01*
X143764000Y-97028000D01*
X143764000Y-99314000D01*
X143784000Y-99314000D01*
X143784000Y-99568000D01*
X143764000Y-99568000D01*
X143764000Y-101854000D01*
X143784000Y-101854000D01*
X143784000Y-102108000D01*
X143764000Y-102108000D01*
X143764000Y-104394000D01*
X143784000Y-104394000D01*
X143784000Y-104648000D01*
X143764000Y-104648000D01*
X143764000Y-106934000D01*
X143784000Y-106934000D01*
X143784000Y-107188000D01*
X143764000Y-107188000D01*
X143764000Y-107208000D01*
X143510000Y-107208000D01*
X143510000Y-107188000D01*
X143490000Y-107188000D01*
X143490000Y-106934000D01*
X143510000Y-106934000D01*
X143510000Y-104648000D01*
X143490000Y-104648000D01*
X143490000Y-104394000D01*
X143510000Y-104394000D01*
X143510000Y-102108000D01*
X143490000Y-102108000D01*
X143490000Y-101854000D01*
X143510000Y-101854000D01*
X143510000Y-99568000D01*
X143490000Y-99568000D01*
X143490000Y-99314000D01*
X143510000Y-99314000D01*
X143510000Y-97028000D01*
X143490000Y-97028000D01*
X143490000Y-96774000D01*
X143510000Y-96774000D01*
X143510000Y-94488000D01*
X143490000Y-94488000D01*
X143490000Y-94234000D01*
X143510000Y-94234000D01*
X143510000Y-91948000D01*
X143490000Y-91948000D01*
X143490000Y-91694000D01*
X143510000Y-91694000D01*
X143510000Y-89408000D01*
X143490000Y-89408000D01*
X143490000Y-89154000D01*
X143510000Y-89154000D01*
X143510000Y-86868000D01*
X143490000Y-86868000D01*
X143490000Y-86614000D01*
X143510000Y-86614000D01*
X143510000Y-85420186D01*
X143280109Y-85299519D01*
X143121344Y-85355838D01*
X143117974Y-85321622D01*
X143074402Y-85177985D01*
X143003645Y-85045608D01*
X142908422Y-84929578D01*
X142879352Y-84905721D01*
X141662284Y-83688654D01*
X141638422Y-83659578D01*
X141522392Y-83564355D01*
X141390015Y-83493598D01*
X141246378Y-83450026D01*
X141134426Y-83439000D01*
X141134423Y-83439000D01*
X141097000Y-83435314D01*
X141059577Y-83439000D01*
X132522630Y-83439000D01*
X132334000Y-83250370D01*
X132334000Y-82937526D01*
X132401014Y-82901706D01*
X132627134Y-82716134D01*
X132651607Y-82686313D01*
X132672498Y-82755180D01*
X132731463Y-82865494D01*
X132810815Y-82962185D01*
X132907506Y-83041537D01*
X133017820Y-83100502D01*
X133137518Y-83136812D01*
X133262000Y-83149072D01*
X134962000Y-83149072D01*
X135086482Y-83136812D01*
X135206180Y-83100502D01*
X135316494Y-83041537D01*
X135413185Y-82962185D01*
X135492537Y-82865494D01*
X135551502Y-82755180D01*
X135587812Y-82635482D01*
X135600072Y-82511000D01*
X135600072Y-80811000D01*
X135587812Y-80686518D01*
X135551502Y-80566820D01*
X135492537Y-80456506D01*
X135413185Y-80359815D01*
X135316494Y-80280463D01*
X135206180Y-80221498D01*
X135086482Y-80185188D01*
X134962000Y-80172928D01*
X133262000Y-80172928D01*
X133137518Y-80185188D01*
X133017820Y-80221498D01*
X132907506Y-80280463D01*
X132810815Y-80359815D01*
X132731463Y-80456506D01*
X132672498Y-80566820D01*
X132651607Y-80635687D01*
X132627134Y-80605866D01*
X132401014Y-80420294D01*
X132143034Y-80282401D01*
X131863111Y-80197487D01*
X131644950Y-80176000D01*
X131499050Y-80176000D01*
X131280889Y-80197487D01*
X131000966Y-80282401D01*
X130742986Y-80420294D01*
X130516866Y-80605866D01*
X130331294Y-80831986D01*
X130302000Y-80886791D01*
X130272706Y-80831986D01*
X130087134Y-80605866D01*
X129861014Y-80420294D01*
X129603034Y-80282401D01*
X129323111Y-80197487D01*
X129104950Y-80176000D01*
X128959050Y-80176000D01*
X128740889Y-80197487D01*
X128460966Y-80282401D01*
X128202986Y-80420294D01*
X127976866Y-80605866D01*
X127791294Y-80831986D01*
X127653401Y-81089966D01*
X127568487Y-81369889D01*
X127539815Y-81661000D01*
X127568487Y-81952111D01*
X127653401Y-82232034D01*
X127791294Y-82490014D01*
X127976866Y-82716134D01*
X128202986Y-82901706D01*
X128270000Y-82937526D01*
X128270000Y-84163577D01*
X128266314Y-84201000D01*
X128270000Y-84238423D01*
X128270000Y-84238425D01*
X128281026Y-84350377D01*
X128324598Y-84494014D01*
X128350773Y-84542984D01*
X128395355Y-84626392D01*
X128434983Y-84674678D01*
X128490578Y-84742422D01*
X128519654Y-84766284D01*
X129101716Y-85348346D01*
X129125578Y-85377422D01*
X129194000Y-85433574D01*
X129241607Y-85472645D01*
X129312364Y-85510465D01*
X129373985Y-85543402D01*
X129517622Y-85586974D01*
X129629574Y-85598000D01*
X129629577Y-85598000D01*
X129667000Y-85601686D01*
X129704423Y-85598000D01*
X136336370Y-85598000D01*
X137160001Y-86421632D01*
X137160000Y-87336159D01*
X137132821Y-87363338D01*
X137021632Y-87529744D01*
X136945044Y-87714644D01*
X136906000Y-87910933D01*
X136906000Y-88111067D01*
X136945044Y-88307356D01*
X137021632Y-88492256D01*
X137039502Y-88519000D01*
X121092631Y-88519000D01*
X119634000Y-87060370D01*
X119634000Y-82937526D01*
X119701014Y-82901706D01*
X119927134Y-82716134D01*
X120112706Y-82490014D01*
X120142000Y-82435209D01*
X120171294Y-82490014D01*
X120356866Y-82716134D01*
X120582986Y-82901706D01*
X120840966Y-83039599D01*
X121120889Y-83124513D01*
X121339050Y-83146000D01*
X121484950Y-83146000D01*
X121703111Y-83124513D01*
X121983034Y-83039599D01*
X122241014Y-82901706D01*
X122467134Y-82716134D01*
X122491607Y-82686313D01*
X122512498Y-82755180D01*
X122571463Y-82865494D01*
X122650815Y-82962185D01*
X122747506Y-83041537D01*
X122857820Y-83100502D01*
X122977518Y-83136812D01*
X123102000Y-83149072D01*
X124802000Y-83149072D01*
X124926482Y-83136812D01*
X125046180Y-83100502D01*
X125156494Y-83041537D01*
X125253185Y-82962185D01*
X125332537Y-82865494D01*
X125391502Y-82755180D01*
X125427812Y-82635482D01*
X125440072Y-82511000D01*
X125440072Y-80811000D01*
X125427812Y-80686518D01*
X125391502Y-80566820D01*
X125332537Y-80456506D01*
X125253185Y-80359815D01*
X125156494Y-80280463D01*
X125046180Y-80221498D01*
X124926482Y-80185188D01*
X124802000Y-80172928D01*
X123102000Y-80172928D01*
X122977518Y-80185188D01*
X122857820Y-80221498D01*
X122747506Y-80280463D01*
X122650815Y-80359815D01*
X122571463Y-80456506D01*
X122512498Y-80566820D01*
X122491607Y-80635687D01*
X122467134Y-80605866D01*
X122241014Y-80420294D01*
X121983034Y-80282401D01*
X121703111Y-80197487D01*
X121484950Y-80176000D01*
X121339050Y-80176000D01*
X121120889Y-80197487D01*
X120840966Y-80282401D01*
X120582986Y-80420294D01*
X120356866Y-80605866D01*
X120171294Y-80831986D01*
X120142000Y-80886791D01*
X120112706Y-80831986D01*
X119927134Y-80605866D01*
X119701014Y-80420294D01*
X119443034Y-80282401D01*
X119163111Y-80197487D01*
X118944950Y-80176000D01*
X118799050Y-80176000D01*
X118580889Y-80197487D01*
X118300966Y-80282401D01*
X118042986Y-80420294D01*
X117816866Y-80605866D01*
X117631294Y-80831986D01*
X117602000Y-80886791D01*
X117572706Y-80831986D01*
X117387134Y-80605866D01*
X117161014Y-80420294D01*
X117095092Y-80385058D01*
X117081003Y-80242014D01*
X117037546Y-80098753D01*
X116966974Y-79966724D01*
X116916306Y-79904985D01*
X116872001Y-79850999D01*
X116843004Y-79827202D01*
X116260803Y-79245002D01*
X116237001Y-79215999D01*
X116121276Y-79121026D01*
X115989247Y-79050454D01*
X115845986Y-79006997D01*
X115734333Y-78996000D01*
X115734322Y-78996000D01*
X115697000Y-78992324D01*
X115659678Y-78996000D01*
X99224322Y-78996000D01*
X99186999Y-78992324D01*
X99149676Y-78996000D01*
X99149667Y-78996000D01*
X99038014Y-79006997D01*
X98894753Y-79050454D01*
X98762724Y-79121026D01*
X98762502Y-79121208D01*
X98675996Y-79192201D01*
X98675992Y-79192205D01*
X98646999Y-79215999D01*
X98623205Y-79244992D01*
X96135998Y-81732201D01*
X96107000Y-81755999D01*
X96083202Y-81784997D01*
X96083201Y-81784998D01*
X96012026Y-81871724D01*
X95941454Y-82003754D01*
X95937166Y-82017891D01*
X95897998Y-82147014D01*
X95892681Y-82201001D01*
X95883324Y-82296000D01*
X95887001Y-82333333D01*
X95887000Y-99403678D01*
X95883324Y-99441000D01*
X95887000Y-99478322D01*
X95887000Y-99478332D01*
X95897997Y-99589985D01*
X95922148Y-99669600D01*
X95941454Y-99733246D01*
X96012026Y-99865276D01*
X96025740Y-99881986D01*
X96106999Y-99981001D01*
X96136003Y-100004804D01*
X96842199Y-100711000D01*
X96770998Y-100782201D01*
X96742000Y-100805999D01*
X96718202Y-100834997D01*
X96718201Y-100834998D01*
X96647026Y-100921724D01*
X96576454Y-101053754D01*
X96552982Y-101131134D01*
X96532998Y-101197014D01*
X96527681Y-101251001D01*
X96518324Y-101346000D01*
X96522001Y-101383332D01*
X96522000Y-104483677D01*
X96518324Y-104521000D01*
X96522000Y-104558322D01*
X96522000Y-104558332D01*
X96532997Y-104669985D01*
X96557148Y-104749600D01*
X96576454Y-104813246D01*
X96647026Y-104945276D01*
X96686871Y-104993826D01*
X96741999Y-105061001D01*
X96771003Y-105084804D01*
X99893201Y-108207003D01*
X99916999Y-108236001D01*
X99945997Y-108259799D01*
X100032723Y-108330974D01*
X100155324Y-108396506D01*
X100164753Y-108401546D01*
X100308014Y-108445003D01*
X100419667Y-108456000D01*
X100419676Y-108456000D01*
X100456999Y-108459676D01*
X100494322Y-108456000D01*
X112910838Y-108456000D01*
X112891632Y-108484744D01*
X112815044Y-108669644D01*
X112776000Y-108865933D01*
X112776000Y-109066067D01*
X112815044Y-109262356D01*
X112891632Y-109447256D01*
X113002821Y-109613662D01*
X113144338Y-109755179D01*
X113310744Y-109866368D01*
X113495644Y-109942956D01*
X113691933Y-109982000D01*
X113892067Y-109982000D01*
X114088356Y-109942956D01*
X114273256Y-109866368D01*
X114439662Y-109755179D01*
X114581179Y-109613662D01*
X114692368Y-109447256D01*
X114768956Y-109262356D01*
X114803041Y-109091000D01*
X123070838Y-109091000D01*
X123051632Y-109119744D01*
X122975044Y-109304644D01*
X122936000Y-109500933D01*
X122936000Y-109701067D01*
X122975044Y-109897356D01*
X123051632Y-110082256D01*
X123162821Y-110248662D01*
X123304338Y-110390179D01*
X123337001Y-110412004D01*
X123337000Y-111972928D01*
X123007000Y-111972928D01*
X122882518Y-111985188D01*
X122762820Y-112021498D01*
X122652506Y-112080463D01*
X122555815Y-112159815D01*
X122476463Y-112256506D01*
X122417498Y-112366820D01*
X122381188Y-112486518D01*
X122368928Y-112611000D01*
X122368928Y-114211000D01*
X122381188Y-114335482D01*
X122417498Y-114455180D01*
X122476463Y-114565494D01*
X122555815Y-114662185D01*
X122652506Y-114741537D01*
X122762820Y-114800502D01*
X122882518Y-114836812D01*
X123007000Y-114849072D01*
X125187000Y-114849072D01*
X125311482Y-114836812D01*
X125431180Y-114800502D01*
X125541494Y-114741537D01*
X125638185Y-114662185D01*
X125717537Y-114565494D01*
X125776502Y-114455180D01*
X125812812Y-114335482D01*
X125825072Y-114211000D01*
X125825072Y-114173000D01*
X126454577Y-114173000D01*
X126492000Y-114176686D01*
X126529423Y-114173000D01*
X126529426Y-114173000D01*
X126641378Y-114161974D01*
X126785015Y-114118402D01*
X126917392Y-114047645D01*
X127033422Y-113952422D01*
X127057284Y-113923346D01*
X127059566Y-113921064D01*
X127062000Y-114150250D01*
X127220750Y-114309000D01*
X128270000Y-114309000D01*
X128270000Y-114289000D01*
X128524000Y-114289000D01*
X128524000Y-114309000D01*
X128544000Y-114309000D01*
X128544000Y-114563000D01*
X128524000Y-114563000D01*
X128524000Y-115487250D01*
X128682750Y-115646000D01*
X129097000Y-115649072D01*
X129221482Y-115636812D01*
X129341180Y-115600502D01*
X129451494Y-115541537D01*
X129548185Y-115462185D01*
X129627537Y-115365494D01*
X129686502Y-115255180D01*
X129709136Y-115180565D01*
X129748595Y-115254387D01*
X129859038Y-115388962D01*
X129993613Y-115499405D01*
X130147149Y-115581472D01*
X130313745Y-115632008D01*
X130486999Y-115649072D01*
X131387001Y-115649072D01*
X131560255Y-115632008D01*
X131726851Y-115581472D01*
X131880387Y-115499405D01*
X132014962Y-115388962D01*
X132125405Y-115254387D01*
X132207472Y-115100851D01*
X132258008Y-114934255D01*
X132275072Y-114761001D01*
X132275072Y-114110999D01*
X132258008Y-113937745D01*
X132207472Y-113771149D01*
X132125405Y-113617613D01*
X132014962Y-113483038D01*
X131927184Y-113411000D01*
X132014962Y-113338962D01*
X132125405Y-113204387D01*
X132207472Y-113050851D01*
X132258008Y-112884255D01*
X132275072Y-112711001D01*
X132275072Y-112060999D01*
X132258008Y-111887745D01*
X132207472Y-111721149D01*
X132125405Y-111567613D01*
X132014962Y-111433038D01*
X131880387Y-111322595D01*
X131726851Y-111240528D01*
X131699000Y-111232080D01*
X131699000Y-110275841D01*
X131726179Y-110248662D01*
X131837368Y-110082256D01*
X131913956Y-109897356D01*
X131953000Y-109701067D01*
X131953000Y-109500933D01*
X131913956Y-109304644D01*
X131837368Y-109119744D01*
X131818162Y-109091000D01*
X135344678Y-109091000D01*
X135382000Y-109094676D01*
X135419322Y-109091000D01*
X135419333Y-109091000D01*
X135530986Y-109080003D01*
X135674247Y-109036546D01*
X135806276Y-108965974D01*
X135922001Y-108871001D01*
X135945804Y-108841997D01*
X136966802Y-107821000D01*
X139819405Y-107821000D01*
X139856294Y-107890014D01*
X140041866Y-108116134D01*
X140071687Y-108140607D01*
X140002820Y-108161498D01*
X139892506Y-108220463D01*
X139795815Y-108299815D01*
X139716463Y-108396506D01*
X139657498Y-108506820D01*
X139621188Y-108626518D01*
X139608928Y-108751000D01*
X139608928Y-110451000D01*
X139621188Y-110575482D01*
X139657498Y-110695180D01*
X139716463Y-110805494D01*
X139795815Y-110902185D01*
X139892506Y-110981537D01*
X140002820Y-111040502D01*
X140122518Y-111076812D01*
X140247000Y-111089072D01*
X141947000Y-111089072D01*
X142071482Y-111076812D01*
X142191180Y-111040502D01*
X142301494Y-110981537D01*
X142398185Y-110902185D01*
X142477537Y-110805494D01*
X142536502Y-110695180D01*
X142557393Y-110626313D01*
X142581866Y-110656134D01*
X142807986Y-110841706D01*
X143065966Y-110979599D01*
X143345889Y-111064513D01*
X143564050Y-111086000D01*
X143709950Y-111086000D01*
X143928111Y-111064513D01*
X144120001Y-111006304D01*
X144120001Y-116934711D01*
X144105278Y-117084869D01*
X144071047Y-117198246D01*
X144015446Y-117302817D01*
X143940594Y-117394595D01*
X143849335Y-117470091D01*
X143745160Y-117526419D01*
X143632024Y-117561440D01*
X143483979Y-117577000D01*
X96044279Y-117577000D01*
X95894131Y-117562278D01*
X95780754Y-117528047D01*
X95676183Y-117472446D01*
X95584405Y-117397594D01*
X95508909Y-117306335D01*
X95452581Y-117202160D01*
X95417560Y-117089024D01*
X95402000Y-116940979D01*
X95402000Y-115011000D01*
X109278928Y-115011000D01*
X109291188Y-115135482D01*
X109327498Y-115255180D01*
X109386463Y-115365494D01*
X109465815Y-115462185D01*
X109562506Y-115541537D01*
X109672820Y-115600502D01*
X109792518Y-115636812D01*
X109917000Y-115649072D01*
X110331250Y-115646000D01*
X110490000Y-115487250D01*
X110490000Y-114563000D01*
X110744000Y-114563000D01*
X110744000Y-115487250D01*
X110902750Y-115646000D01*
X111317000Y-115649072D01*
X111441482Y-115636812D01*
X111561180Y-115600502D01*
X111671494Y-115541537D01*
X111768185Y-115462185D01*
X111847537Y-115365494D01*
X111906502Y-115255180D01*
X111942812Y-115135482D01*
X111955072Y-115011000D01*
X127058928Y-115011000D01*
X127071188Y-115135482D01*
X127107498Y-115255180D01*
X127166463Y-115365494D01*
X127245815Y-115462185D01*
X127342506Y-115541537D01*
X127452820Y-115600502D01*
X127572518Y-115636812D01*
X127697000Y-115649072D01*
X128111250Y-115646000D01*
X128270000Y-115487250D01*
X128270000Y-114563000D01*
X127220750Y-114563000D01*
X127062000Y-114721750D01*
X127058928Y-115011000D01*
X111955072Y-115011000D01*
X111952000Y-114721750D01*
X111793250Y-114563000D01*
X110744000Y-114563000D01*
X110490000Y-114563000D01*
X109440750Y-114563000D01*
X109282000Y-114721750D01*
X109278928Y-115011000D01*
X95402000Y-115011000D01*
X95402000Y-109743675D01*
X97421700Y-109743675D01*
X97421700Y-109966325D01*
X97465137Y-110184696D01*
X97550341Y-110390398D01*
X97674039Y-110575524D01*
X97831476Y-110732961D01*
X98016602Y-110856659D01*
X98051224Y-110871000D01*
X98016602Y-110885341D01*
X97831476Y-111009039D01*
X97674039Y-111166476D01*
X97550341Y-111351602D01*
X97465137Y-111557304D01*
X97421700Y-111775675D01*
X97421700Y-111998325D01*
X97465137Y-112216696D01*
X97550341Y-112422398D01*
X97674039Y-112607524D01*
X97831476Y-112764961D01*
X98016602Y-112888659D01*
X98222304Y-112973863D01*
X98440675Y-113017300D01*
X98663325Y-113017300D01*
X98881696Y-112973863D01*
X99087398Y-112888659D01*
X99272524Y-112764961D01*
X99429961Y-112607524D01*
X99553659Y-112422398D01*
X99638863Y-112216696D01*
X99669833Y-112060999D01*
X109278928Y-112060999D01*
X109278928Y-112711001D01*
X109295992Y-112884255D01*
X109346528Y-113050851D01*
X109428595Y-113204387D01*
X109539038Y-113338962D01*
X109545594Y-113344342D01*
X109465815Y-113409815D01*
X109386463Y-113506506D01*
X109327498Y-113616820D01*
X109291188Y-113736518D01*
X109278928Y-113861000D01*
X109282000Y-114150250D01*
X109440750Y-114309000D01*
X110490000Y-114309000D01*
X110490000Y-114289000D01*
X110744000Y-114289000D01*
X110744000Y-114309000D01*
X111793250Y-114309000D01*
X111952000Y-114150250D01*
X111954434Y-113921065D01*
X111956721Y-113923351D01*
X111980578Y-113952422D01*
X112009648Y-113976279D01*
X112096607Y-114047645D01*
X112167364Y-114085465D01*
X112228985Y-114118402D01*
X112372622Y-114161974D01*
X112484574Y-114173000D01*
X112484577Y-114173000D01*
X112522000Y-114176686D01*
X112559423Y-114173000D01*
X113188928Y-114173000D01*
X113188928Y-114211000D01*
X113201188Y-114335482D01*
X113237498Y-114455180D01*
X113296463Y-114565494D01*
X113375815Y-114662185D01*
X113472506Y-114741537D01*
X113582820Y-114800502D01*
X113702518Y-114836812D01*
X113827000Y-114849072D01*
X116007000Y-114849072D01*
X116131482Y-114836812D01*
X116251180Y-114800502D01*
X116361494Y-114741537D01*
X116458185Y-114662185D01*
X116537537Y-114565494D01*
X116596502Y-114455180D01*
X116632812Y-114335482D01*
X116645072Y-114211000D01*
X116645072Y-112611000D01*
X116632812Y-112486518D01*
X116596502Y-112366820D01*
X116537537Y-112256506D01*
X116458185Y-112159815D01*
X116361494Y-112080463D01*
X116251180Y-112021498D01*
X116131482Y-111985188D01*
X116007000Y-111972928D01*
X113827000Y-111972928D01*
X113702518Y-111985188D01*
X113582820Y-112021498D01*
X113472506Y-112080463D01*
X113375815Y-112159815D01*
X113296463Y-112256506D01*
X113237498Y-112366820D01*
X113201188Y-112486518D01*
X113188928Y-112611000D01*
X113188928Y-112649000D01*
X112837631Y-112649000D01*
X112062284Y-111873654D01*
X112038422Y-111844578D01*
X111922392Y-111749355D01*
X111890926Y-111732536D01*
X111887472Y-111721149D01*
X111805405Y-111567613D01*
X111694962Y-111433038D01*
X111560387Y-111322595D01*
X111406851Y-111240528D01*
X111240255Y-111189992D01*
X111067001Y-111172928D01*
X110166999Y-111172928D01*
X109993745Y-111189992D01*
X109827149Y-111240528D01*
X109673613Y-111322595D01*
X109539038Y-111433038D01*
X109428595Y-111567613D01*
X109346528Y-111721149D01*
X109295992Y-111887745D01*
X109278928Y-112060999D01*
X99669833Y-112060999D01*
X99682300Y-111998325D01*
X99682300Y-111775675D01*
X99638863Y-111557304D01*
X99553659Y-111351602D01*
X99429961Y-111166476D01*
X99272524Y-111009039D01*
X99087398Y-110885341D01*
X99052776Y-110871000D01*
X99087398Y-110856659D01*
X99232543Y-110759675D01*
X105041700Y-110759675D01*
X105041700Y-110982325D01*
X105085137Y-111200696D01*
X105170341Y-111406398D01*
X105294039Y-111591524D01*
X105451476Y-111748961D01*
X105636602Y-111872659D01*
X105842304Y-111957863D01*
X106060675Y-112001300D01*
X106283325Y-112001300D01*
X106501696Y-111957863D01*
X106707398Y-111872659D01*
X106892524Y-111748961D01*
X107049961Y-111591524D01*
X107173659Y-111406398D01*
X107258863Y-111200696D01*
X107302300Y-110982325D01*
X107302300Y-110759675D01*
X107258863Y-110541304D01*
X107173659Y-110335602D01*
X107049961Y-110150476D01*
X106892524Y-109993039D01*
X106707398Y-109869341D01*
X106501696Y-109784137D01*
X106283325Y-109740700D01*
X106060675Y-109740700D01*
X105842304Y-109784137D01*
X105636602Y-109869341D01*
X105451476Y-109993039D01*
X105294039Y-110150476D01*
X105170341Y-110335602D01*
X105085137Y-110541304D01*
X105041700Y-110759675D01*
X99232543Y-110759675D01*
X99272524Y-110732961D01*
X99429961Y-110575524D01*
X99553659Y-110390398D01*
X99638863Y-110184696D01*
X99682300Y-109966325D01*
X99682300Y-109743675D01*
X99638863Y-109525304D01*
X99553659Y-109319602D01*
X99429961Y-109134476D01*
X99272524Y-108977039D01*
X99087398Y-108853341D01*
X98881696Y-108768137D01*
X98663325Y-108724700D01*
X98440675Y-108724700D01*
X98222304Y-108768137D01*
X98016602Y-108853341D01*
X97831476Y-108977039D01*
X97674039Y-109134476D01*
X97550341Y-109319602D01*
X97465137Y-109525304D01*
X97421700Y-109743675D01*
X95402000Y-109743675D01*
X95402000Y-79407279D01*
X95416722Y-79257131D01*
X95450953Y-79143754D01*
X95506555Y-79039181D01*
X95581407Y-78947404D01*
X95672664Y-78871909D01*
X95776844Y-78815581D01*
X95889976Y-78780560D01*
X96038022Y-78765000D01*
X143477721Y-78765000D01*
X143627869Y-78779722D01*
G36*
X120777000Y-90046686D02*
G01*
X120814423Y-90043000D01*
X139820474Y-90043000D01*
X139856294Y-90110014D01*
X140041866Y-90336134D01*
X140267986Y-90521706D01*
X140322791Y-90551000D01*
X140267986Y-90580294D01*
X140041866Y-90765866D01*
X139856294Y-90991986D01*
X139820474Y-91059000D01*
X136054423Y-91059000D01*
X136017000Y-91055314D01*
X135979577Y-91059000D01*
X135979574Y-91059000D01*
X135867622Y-91070026D01*
X135723985Y-91113598D01*
X135662364Y-91146535D01*
X135591607Y-91184355D01*
X135511660Y-91249966D01*
X135475578Y-91279578D01*
X135451721Y-91308648D01*
X133599654Y-93160716D01*
X133570578Y-93184578D01*
X133543150Y-93218000D01*
X133475355Y-93300608D01*
X133472545Y-93305866D01*
X133404598Y-93432986D01*
X133361026Y-93576623D01*
X133353445Y-93653598D01*
X133346314Y-93726000D01*
X133350000Y-93763423D01*
X133350001Y-102935368D01*
X131891370Y-104394000D01*
X122359802Y-104394000D01*
X122318428Y-104352626D01*
X122388956Y-104182356D01*
X122428000Y-103986067D01*
X122428000Y-103785933D01*
X122388956Y-103589644D01*
X122312368Y-103404744D01*
X122201179Y-103238338D01*
X122059662Y-103096821D01*
X121893256Y-102985632D01*
X121708356Y-102909044D01*
X121512067Y-102870000D01*
X121311933Y-102870000D01*
X121115644Y-102909044D01*
X120930744Y-102985632D01*
X120764338Y-103096821D01*
X120622821Y-103238338D01*
X120511632Y-103404744D01*
X120435044Y-103589644D01*
X120396000Y-103785933D01*
X120396000Y-103986067D01*
X120435044Y-104182356D01*
X120511632Y-104367256D01*
X120529502Y-104394000D01*
X107757631Y-104394000D01*
X106934000Y-103570370D01*
X106934000Y-100748422D01*
X106937686Y-100710999D01*
X106930382Y-100636843D01*
X106922974Y-100561622D01*
X106879402Y-100417985D01*
X106808645Y-100285608D01*
X106713422Y-100169578D01*
X106684352Y-100145721D01*
X105852630Y-99314000D01*
X107435474Y-99314000D01*
X107333401Y-99504966D01*
X107248487Y-99784889D01*
X107219815Y-100076000D01*
X107248487Y-100367111D01*
X107333401Y-100647034D01*
X107471294Y-100905014D01*
X107656866Y-101131134D01*
X107882986Y-101316706D01*
X108140966Y-101454599D01*
X108420889Y-101539513D01*
X108639050Y-101561000D01*
X108784950Y-101561000D01*
X109003111Y-101539513D01*
X109283034Y-101454599D01*
X109541014Y-101316706D01*
X109767134Y-101131134D01*
X109952706Y-100905014D01*
X109982000Y-100850209D01*
X110011294Y-100905014D01*
X110196866Y-101131134D01*
X110422986Y-101316706D01*
X110680966Y-101454599D01*
X110960889Y-101539513D01*
X111179050Y-101561000D01*
X111324950Y-101561000D01*
X111543111Y-101539513D01*
X111823034Y-101454599D01*
X112081014Y-101316706D01*
X112307134Y-101131134D01*
X112331607Y-101101313D01*
X112352498Y-101170180D01*
X112411463Y-101280494D01*
X112490815Y-101377185D01*
X112587506Y-101456537D01*
X112697820Y-101515502D01*
X112817518Y-101551812D01*
X112942000Y-101564072D01*
X114642000Y-101564072D01*
X114766482Y-101551812D01*
X114886180Y-101515502D01*
X114996494Y-101456537D01*
X115093185Y-101377185D01*
X115172537Y-101280494D01*
X115231502Y-101170180D01*
X115267812Y-101050482D01*
X115280072Y-100926000D01*
X115280072Y-99226000D01*
X115267812Y-99101518D01*
X115231502Y-98981820D01*
X115172537Y-98871506D01*
X115093185Y-98774815D01*
X114996494Y-98695463D01*
X114886180Y-98636498D01*
X114766482Y-98600188D01*
X114642000Y-98587928D01*
X112942000Y-98587928D01*
X112817518Y-98600188D01*
X112697820Y-98636498D01*
X112587506Y-98695463D01*
X112490815Y-98774815D01*
X112411463Y-98871506D01*
X112352498Y-98981820D01*
X112331607Y-99050687D01*
X112307134Y-99020866D01*
X112081014Y-98835294D01*
X111823034Y-98697401D01*
X111543111Y-98612487D01*
X111355655Y-98594024D01*
X110932630Y-98171000D01*
X130079815Y-98171000D01*
X130108487Y-98462111D01*
X130193401Y-98742034D01*
X130331294Y-99000014D01*
X130516866Y-99226134D01*
X130742986Y-99411706D01*
X130797791Y-99441000D01*
X130742986Y-99470294D01*
X130516866Y-99655866D01*
X130331294Y-99881986D01*
X130193401Y-100139966D01*
X130108487Y-100419889D01*
X130079815Y-100711000D01*
X130108487Y-101002111D01*
X130193401Y-101282034D01*
X130331294Y-101540014D01*
X130516866Y-101766134D01*
X130742986Y-101951706D01*
X131000966Y-102089599D01*
X131280889Y-102174513D01*
X131499050Y-102196000D01*
X131644950Y-102196000D01*
X131863111Y-102174513D01*
X132143034Y-102089599D01*
X132401014Y-101951706D01*
X132627134Y-101766134D01*
X132812706Y-101540014D01*
X132950599Y-101282034D01*
X133035513Y-101002111D01*
X133064185Y-100711000D01*
X133035513Y-100419889D01*
X132950599Y-100139966D01*
X132812706Y-99881986D01*
X132627134Y-99655866D01*
X132401014Y-99470294D01*
X132346209Y-99441000D01*
X132401014Y-99411706D01*
X132627134Y-99226134D01*
X132812706Y-99000014D01*
X132950599Y-98742034D01*
X133035513Y-98462111D01*
X133064185Y-98171000D01*
X133035513Y-97879889D01*
X132950599Y-97599966D01*
X132812706Y-97341986D01*
X132627134Y-97115866D01*
X132597313Y-97091393D01*
X132666180Y-97070502D01*
X132776494Y-97011537D01*
X132873185Y-96932185D01*
X132952537Y-96835494D01*
X133011502Y-96725180D01*
X133047812Y-96605482D01*
X133060072Y-96481000D01*
X133060072Y-94781000D01*
X133047812Y-94656518D01*
X133011502Y-94536820D01*
X132952537Y-94426506D01*
X132873185Y-94329815D01*
X132776494Y-94250463D01*
X132666180Y-94191498D01*
X132546482Y-94155188D01*
X132422000Y-94142928D01*
X130722000Y-94142928D01*
X130597518Y-94155188D01*
X130477820Y-94191498D01*
X130367506Y-94250463D01*
X130270815Y-94329815D01*
X130191463Y-94426506D01*
X130132498Y-94536820D01*
X130096188Y-94656518D01*
X130083928Y-94781000D01*
X130083928Y-96481000D01*
X130096188Y-96605482D01*
X130132498Y-96725180D01*
X130191463Y-96835494D01*
X130270815Y-96932185D01*
X130367506Y-97011537D01*
X130477820Y-97070502D01*
X130546687Y-97091393D01*
X130516866Y-97115866D01*
X130331294Y-97341986D01*
X130193401Y-97599966D01*
X130108487Y-97879889D01*
X130079815Y-98171000D01*
X110932630Y-98171000D01*
X111355655Y-97747976D01*
X111543111Y-97729513D01*
X111823034Y-97644599D01*
X112081014Y-97506706D01*
X112307134Y-97321134D01*
X112331607Y-97291313D01*
X112352498Y-97360180D01*
X112411463Y-97470494D01*
X112490815Y-97567185D01*
X112587506Y-97646537D01*
X112697820Y-97705502D01*
X112817518Y-97741812D01*
X112942000Y-97754072D01*
X114642000Y-97754072D01*
X114766482Y-97741812D01*
X114886180Y-97705502D01*
X114996494Y-97646537D01*
X115093185Y-97567185D01*
X115172537Y-97470494D01*
X115231502Y-97360180D01*
X115267812Y-97240482D01*
X115280072Y-97116000D01*
X115280072Y-95416000D01*
X115267812Y-95291518D01*
X115231502Y-95171820D01*
X115172537Y-95061506D01*
X115093185Y-94964815D01*
X114996494Y-94885463D01*
X114886180Y-94826498D01*
X114766482Y-94790188D01*
X114642000Y-94777928D01*
X112942000Y-94777928D01*
X112817518Y-94790188D01*
X112697820Y-94826498D01*
X112587506Y-94885463D01*
X112490815Y-94964815D01*
X112411463Y-95061506D01*
X112352498Y-95171820D01*
X112331607Y-95240687D01*
X112307134Y-95210866D01*
X112081014Y-95025294D01*
X111823034Y-94887401D01*
X111543111Y-94802487D01*
X111324950Y-94781000D01*
X111179050Y-94781000D01*
X110960889Y-94802487D01*
X110680966Y-94887401D01*
X110422986Y-95025294D01*
X110196866Y-95210866D01*
X110011294Y-95436986D01*
X109982000Y-95491791D01*
X109952706Y-95436986D01*
X109767134Y-95210866D01*
X109541014Y-95025294D01*
X109474000Y-94989474D01*
X109474000Y-92136630D01*
X111567631Y-90043000D01*
X120739577Y-90043000D01*
X120777000Y-90046686D01*
X120777000Y-90046686D01*
G37*
X120777000Y-90046686D02*
X120814423Y-90043000D01*
X139820474Y-90043000D01*
X139856294Y-90110014D01*
X140041866Y-90336134D01*
X140267986Y-90521706D01*
X140322791Y-90551000D01*
X140267986Y-90580294D01*
X140041866Y-90765866D01*
X139856294Y-90991986D01*
X139820474Y-91059000D01*
X136054423Y-91059000D01*
X136017000Y-91055314D01*
X135979577Y-91059000D01*
X135979574Y-91059000D01*
X135867622Y-91070026D01*
X135723985Y-91113598D01*
X135662364Y-91146535D01*
X135591607Y-91184355D01*
X135511660Y-91249966D01*
X135475578Y-91279578D01*
X135451721Y-91308648D01*
X133599654Y-93160716D01*
X133570578Y-93184578D01*
X133543150Y-93218000D01*
X133475355Y-93300608D01*
X133472545Y-93305866D01*
X133404598Y-93432986D01*
X133361026Y-93576623D01*
X133353445Y-93653598D01*
X133346314Y-93726000D01*
X133350000Y-93763423D01*
X133350001Y-102935368D01*
X131891370Y-104394000D01*
X122359802Y-104394000D01*
X122318428Y-104352626D01*
X122388956Y-104182356D01*
X122428000Y-103986067D01*
X122428000Y-103785933D01*
X122388956Y-103589644D01*
X122312368Y-103404744D01*
X122201179Y-103238338D01*
X122059662Y-103096821D01*
X121893256Y-102985632D01*
X121708356Y-102909044D01*
X121512067Y-102870000D01*
X121311933Y-102870000D01*
X121115644Y-102909044D01*
X120930744Y-102985632D01*
X120764338Y-103096821D01*
X120622821Y-103238338D01*
X120511632Y-103404744D01*
X120435044Y-103589644D01*
X120396000Y-103785933D01*
X120396000Y-103986067D01*
X120435044Y-104182356D01*
X120511632Y-104367256D01*
X120529502Y-104394000D01*
X107757631Y-104394000D01*
X106934000Y-103570370D01*
X106934000Y-100748422D01*
X106937686Y-100710999D01*
X106930382Y-100636843D01*
X106922974Y-100561622D01*
X106879402Y-100417985D01*
X106808645Y-100285608D01*
X106713422Y-100169578D01*
X106684352Y-100145721D01*
X105852630Y-99314000D01*
X107435474Y-99314000D01*
X107333401Y-99504966D01*
X107248487Y-99784889D01*
X107219815Y-100076000D01*
X107248487Y-100367111D01*
X107333401Y-100647034D01*
X107471294Y-100905014D01*
X107656866Y-101131134D01*
X107882986Y-101316706D01*
X108140966Y-101454599D01*
X108420889Y-101539513D01*
X108639050Y-101561000D01*
X108784950Y-101561000D01*
X109003111Y-101539513D01*
X109283034Y-101454599D01*
X109541014Y-101316706D01*
X109767134Y-101131134D01*
X109952706Y-100905014D01*
X109982000Y-100850209D01*
X110011294Y-100905014D01*
X110196866Y-101131134D01*
X110422986Y-101316706D01*
X110680966Y-101454599D01*
X110960889Y-101539513D01*
X111179050Y-101561000D01*
X111324950Y-101561000D01*
X111543111Y-101539513D01*
X111823034Y-101454599D01*
X112081014Y-101316706D01*
X112307134Y-101131134D01*
X112331607Y-101101313D01*
X112352498Y-101170180D01*
X112411463Y-101280494D01*
X112490815Y-101377185D01*
X112587506Y-101456537D01*
X112697820Y-101515502D01*
X112817518Y-101551812D01*
X112942000Y-101564072D01*
X114642000Y-101564072D01*
X114766482Y-101551812D01*
X114886180Y-101515502D01*
X114996494Y-101456537D01*
X115093185Y-101377185D01*
X115172537Y-101280494D01*
X115231502Y-101170180D01*
X115267812Y-101050482D01*
X115280072Y-100926000D01*
X115280072Y-99226000D01*
X115267812Y-99101518D01*
X115231502Y-98981820D01*
X115172537Y-98871506D01*
X115093185Y-98774815D01*
X114996494Y-98695463D01*
X114886180Y-98636498D01*
X114766482Y-98600188D01*
X114642000Y-98587928D01*
X112942000Y-98587928D01*
X112817518Y-98600188D01*
X112697820Y-98636498D01*
X112587506Y-98695463D01*
X112490815Y-98774815D01*
X112411463Y-98871506D01*
X112352498Y-98981820D01*
X112331607Y-99050687D01*
X112307134Y-99020866D01*
X112081014Y-98835294D01*
X111823034Y-98697401D01*
X111543111Y-98612487D01*
X111355655Y-98594024D01*
X110932630Y-98171000D01*
X130079815Y-98171000D01*
X130108487Y-98462111D01*
X130193401Y-98742034D01*
X130331294Y-99000014D01*
X130516866Y-99226134D01*
X130742986Y-99411706D01*
X130797791Y-99441000D01*
X130742986Y-99470294D01*
X130516866Y-99655866D01*
X130331294Y-99881986D01*
X130193401Y-100139966D01*
X130108487Y-100419889D01*
X130079815Y-100711000D01*
X130108487Y-101002111D01*
X130193401Y-101282034D01*
X130331294Y-101540014D01*
X130516866Y-101766134D01*
X130742986Y-101951706D01*
X131000966Y-102089599D01*
X131280889Y-102174513D01*
X131499050Y-102196000D01*
X131644950Y-102196000D01*
X131863111Y-102174513D01*
X132143034Y-102089599D01*
X132401014Y-101951706D01*
X132627134Y-101766134D01*
X132812706Y-101540014D01*
X132950599Y-101282034D01*
X133035513Y-101002111D01*
X133064185Y-100711000D01*
X133035513Y-100419889D01*
X132950599Y-100139966D01*
X132812706Y-99881986D01*
X132627134Y-99655866D01*
X132401014Y-99470294D01*
X132346209Y-99441000D01*
X132401014Y-99411706D01*
X132627134Y-99226134D01*
X132812706Y-99000014D01*
X132950599Y-98742034D01*
X133035513Y-98462111D01*
X133064185Y-98171000D01*
X133035513Y-97879889D01*
X132950599Y-97599966D01*
X132812706Y-97341986D01*
X132627134Y-97115866D01*
X132597313Y-97091393D01*
X132666180Y-97070502D01*
X132776494Y-97011537D01*
X132873185Y-96932185D01*
X132952537Y-96835494D01*
X133011502Y-96725180D01*
X133047812Y-96605482D01*
X133060072Y-96481000D01*
X133060072Y-94781000D01*
X133047812Y-94656518D01*
X133011502Y-94536820D01*
X132952537Y-94426506D01*
X132873185Y-94329815D01*
X132776494Y-94250463D01*
X132666180Y-94191498D01*
X132546482Y-94155188D01*
X132422000Y-94142928D01*
X130722000Y-94142928D01*
X130597518Y-94155188D01*
X130477820Y-94191498D01*
X130367506Y-94250463D01*
X130270815Y-94329815D01*
X130191463Y-94426506D01*
X130132498Y-94536820D01*
X130096188Y-94656518D01*
X130083928Y-94781000D01*
X130083928Y-96481000D01*
X130096188Y-96605482D01*
X130132498Y-96725180D01*
X130191463Y-96835494D01*
X130270815Y-96932185D01*
X130367506Y-97011537D01*
X130477820Y-97070502D01*
X130546687Y-97091393D01*
X130516866Y-97115866D01*
X130331294Y-97341986D01*
X130193401Y-97599966D01*
X130108487Y-97879889D01*
X130079815Y-98171000D01*
X110932630Y-98171000D01*
X111355655Y-97747976D01*
X111543111Y-97729513D01*
X111823034Y-97644599D01*
X112081014Y-97506706D01*
X112307134Y-97321134D01*
X112331607Y-97291313D01*
X112352498Y-97360180D01*
X112411463Y-97470494D01*
X112490815Y-97567185D01*
X112587506Y-97646537D01*
X112697820Y-97705502D01*
X112817518Y-97741812D01*
X112942000Y-97754072D01*
X114642000Y-97754072D01*
X114766482Y-97741812D01*
X114886180Y-97705502D01*
X114996494Y-97646537D01*
X115093185Y-97567185D01*
X115172537Y-97470494D01*
X115231502Y-97360180D01*
X115267812Y-97240482D01*
X115280072Y-97116000D01*
X115280072Y-95416000D01*
X115267812Y-95291518D01*
X115231502Y-95171820D01*
X115172537Y-95061506D01*
X115093185Y-94964815D01*
X114996494Y-94885463D01*
X114886180Y-94826498D01*
X114766482Y-94790188D01*
X114642000Y-94777928D01*
X112942000Y-94777928D01*
X112817518Y-94790188D01*
X112697820Y-94826498D01*
X112587506Y-94885463D01*
X112490815Y-94964815D01*
X112411463Y-95061506D01*
X112352498Y-95171820D01*
X112331607Y-95240687D01*
X112307134Y-95210866D01*
X112081014Y-95025294D01*
X111823034Y-94887401D01*
X111543111Y-94802487D01*
X111324950Y-94781000D01*
X111179050Y-94781000D01*
X110960889Y-94802487D01*
X110680966Y-94887401D01*
X110422986Y-95025294D01*
X110196866Y-95210866D01*
X110011294Y-95436986D01*
X109982000Y-95491791D01*
X109952706Y-95436986D01*
X109767134Y-95210866D01*
X109541014Y-95025294D01*
X109474000Y-94989474D01*
X109474000Y-92136630D01*
X111567631Y-90043000D01*
X120739577Y-90043000D01*
X120777000Y-90046686D01*
G36*
X113919000Y-81534000D02*
G01*
X113939000Y-81534000D01*
X113939000Y-81788000D01*
X113919000Y-81788000D01*
X113919000Y-82981155D01*
X114148890Y-83102476D01*
X114296099Y-83057825D01*
X114558920Y-82932641D01*
X114792269Y-82758588D01*
X114987178Y-82542355D01*
X115056799Y-82425477D01*
X115091294Y-82490014D01*
X115276866Y-82716134D01*
X115502986Y-82901706D01*
X115760966Y-83039599D01*
X116040889Y-83124513D01*
X116259050Y-83146000D01*
X116404950Y-83146000D01*
X116623111Y-83124513D01*
X116903034Y-83039599D01*
X117161014Y-82901706D01*
X117387134Y-82716134D01*
X117572706Y-82490014D01*
X117602000Y-82435209D01*
X117631294Y-82490014D01*
X117816866Y-82716134D01*
X118042986Y-82901706D01*
X118110000Y-82937526D01*
X118110001Y-87338567D01*
X118106314Y-87376000D01*
X118121027Y-87525378D01*
X118164599Y-87669015D01*
X118235355Y-87801392D01*
X118306721Y-87888351D01*
X118330579Y-87917422D01*
X118359649Y-87941279D01*
X118937370Y-88519000D01*
X111289422Y-88519000D01*
X111251999Y-88515314D01*
X111214576Y-88519000D01*
X111214574Y-88519000D01*
X111102622Y-88530026D01*
X110958985Y-88573598D01*
X110826608Y-88644355D01*
X110710578Y-88739578D01*
X110686721Y-88768648D01*
X108199654Y-91255716D01*
X108170578Y-91279578D01*
X108114983Y-91347322D01*
X108075355Y-91395608D01*
X108038740Y-91464110D01*
X108004598Y-91527986D01*
X107961026Y-91671623D01*
X107952663Y-91756536D01*
X107946314Y-91821000D01*
X107950000Y-91858423D01*
X107950001Y-94989474D01*
X107882986Y-95025294D01*
X107656866Y-95210866D01*
X107471294Y-95436986D01*
X107333401Y-95694966D01*
X107248487Y-95974889D01*
X107219815Y-96266000D01*
X107248487Y-96557111D01*
X107333401Y-96837034D01*
X107435474Y-97028000D01*
X105471631Y-97028000D01*
X103562284Y-95118654D01*
X103538422Y-95089578D01*
X103422392Y-94994355D01*
X103290015Y-94923598D01*
X103146378Y-94880026D01*
X103034426Y-94869000D01*
X103034423Y-94869000D01*
X103018087Y-94867391D01*
X102979069Y-94794394D01*
X102791797Y-94566203D01*
X102563606Y-94378931D01*
X102519090Y-94355137D01*
X102615488Y-94297817D01*
X102833854Y-94101293D01*
X103009684Y-93865944D01*
X103136222Y-93600814D01*
X103181958Y-93450026D01*
X103060817Y-93218000D01*
X101854000Y-93218000D01*
X101854000Y-93238000D01*
X101600000Y-93238000D01*
X101600000Y-93218000D01*
X101580000Y-93218000D01*
X101580000Y-92964000D01*
X101600000Y-92964000D01*
X101600000Y-91756536D01*
X101854000Y-91756536D01*
X101854000Y-92964000D01*
X103060817Y-92964000D01*
X103181958Y-92731974D01*
X103136222Y-92581186D01*
X103009684Y-92316056D01*
X102833854Y-92080707D01*
X102615488Y-91884183D01*
X102362978Y-91734036D01*
X102086027Y-91636037D01*
X101854000Y-91756536D01*
X101600000Y-91756536D01*
X101367973Y-91636037D01*
X101091022Y-91734036D01*
X100838512Y-91884183D01*
X100659053Y-92045692D01*
X100640102Y-91983220D01*
X100581137Y-91872906D01*
X100501785Y-91776215D01*
X100405094Y-91696863D01*
X100294780Y-91637898D01*
X100175082Y-91601588D01*
X100050600Y-91589328D01*
X98323400Y-91589328D01*
X98198918Y-91601588D01*
X98079220Y-91637898D01*
X98042000Y-91657793D01*
X98042000Y-83245801D01*
X98866802Y-82421000D01*
X107434405Y-82421000D01*
X107471294Y-82490014D01*
X107656866Y-82716134D01*
X107882986Y-82901706D01*
X108140966Y-83039599D01*
X108420889Y-83124513D01*
X108639050Y-83146000D01*
X108784950Y-83146000D01*
X109003111Y-83124513D01*
X109283034Y-83039599D01*
X109541014Y-82901706D01*
X109767134Y-82716134D01*
X109952706Y-82490014D01*
X109982000Y-82435209D01*
X110011294Y-82490014D01*
X110196866Y-82716134D01*
X110422986Y-82901706D01*
X110680966Y-83039599D01*
X110960889Y-83124513D01*
X111179050Y-83146000D01*
X111324950Y-83146000D01*
X111543111Y-83124513D01*
X111823034Y-83039599D01*
X112081014Y-82901706D01*
X112307134Y-82716134D01*
X112492706Y-82490014D01*
X112527201Y-82425477D01*
X112596822Y-82542355D01*
X112791731Y-82758588D01*
X113025080Y-82932641D01*
X113287901Y-83057825D01*
X113435110Y-83102476D01*
X113665000Y-82981155D01*
X113665000Y-81788000D01*
X113645000Y-81788000D01*
X113645000Y-81534000D01*
X113665000Y-81534000D01*
X113665000Y-81514000D01*
X113919000Y-81514000D01*
X113919000Y-81534000D01*
X113919000Y-81534000D01*
G37*
X113919000Y-81534000D02*
X113939000Y-81534000D01*
X113939000Y-81788000D01*
X113919000Y-81788000D01*
X113919000Y-82981155D01*
X114148890Y-83102476D01*
X114296099Y-83057825D01*
X114558920Y-82932641D01*
X114792269Y-82758588D01*
X114987178Y-82542355D01*
X115056799Y-82425477D01*
X115091294Y-82490014D01*
X115276866Y-82716134D01*
X115502986Y-82901706D01*
X115760966Y-83039599D01*
X116040889Y-83124513D01*
X116259050Y-83146000D01*
X116404950Y-83146000D01*
X116623111Y-83124513D01*
X116903034Y-83039599D01*
X117161014Y-82901706D01*
X117387134Y-82716134D01*
X117572706Y-82490014D01*
X117602000Y-82435209D01*
X117631294Y-82490014D01*
X117816866Y-82716134D01*
X118042986Y-82901706D01*
X118110000Y-82937526D01*
X118110001Y-87338567D01*
X118106314Y-87376000D01*
X118121027Y-87525378D01*
X118164599Y-87669015D01*
X118235355Y-87801392D01*
X118306721Y-87888351D01*
X118330579Y-87917422D01*
X118359649Y-87941279D01*
X118937370Y-88519000D01*
X111289422Y-88519000D01*
X111251999Y-88515314D01*
X111214576Y-88519000D01*
X111214574Y-88519000D01*
X111102622Y-88530026D01*
X110958985Y-88573598D01*
X110826608Y-88644355D01*
X110710578Y-88739578D01*
X110686721Y-88768648D01*
X108199654Y-91255716D01*
X108170578Y-91279578D01*
X108114983Y-91347322D01*
X108075355Y-91395608D01*
X108038740Y-91464110D01*
X108004598Y-91527986D01*
X107961026Y-91671623D01*
X107952663Y-91756536D01*
X107946314Y-91821000D01*
X107950000Y-91858423D01*
X107950001Y-94989474D01*
X107882986Y-95025294D01*
X107656866Y-95210866D01*
X107471294Y-95436986D01*
X107333401Y-95694966D01*
X107248487Y-95974889D01*
X107219815Y-96266000D01*
X107248487Y-96557111D01*
X107333401Y-96837034D01*
X107435474Y-97028000D01*
X105471631Y-97028000D01*
X103562284Y-95118654D01*
X103538422Y-95089578D01*
X103422392Y-94994355D01*
X103290015Y-94923598D01*
X103146378Y-94880026D01*
X103034426Y-94869000D01*
X103034423Y-94869000D01*
X103018087Y-94867391D01*
X102979069Y-94794394D01*
X102791797Y-94566203D01*
X102563606Y-94378931D01*
X102519090Y-94355137D01*
X102615488Y-94297817D01*
X102833854Y-94101293D01*
X103009684Y-93865944D01*
X103136222Y-93600814D01*
X103181958Y-93450026D01*
X103060817Y-93218000D01*
X101854000Y-93218000D01*
X101854000Y-93238000D01*
X101600000Y-93238000D01*
X101600000Y-93218000D01*
X101580000Y-93218000D01*
X101580000Y-92964000D01*
X101600000Y-92964000D01*
X101600000Y-91756536D01*
X101854000Y-91756536D01*
X101854000Y-92964000D01*
X103060817Y-92964000D01*
X103181958Y-92731974D01*
X103136222Y-92581186D01*
X103009684Y-92316056D01*
X102833854Y-92080707D01*
X102615488Y-91884183D01*
X102362978Y-91734036D01*
X102086027Y-91636037D01*
X101854000Y-91756536D01*
X101600000Y-91756536D01*
X101367973Y-91636037D01*
X101091022Y-91734036D01*
X100838512Y-91884183D01*
X100659053Y-92045692D01*
X100640102Y-91983220D01*
X100581137Y-91872906D01*
X100501785Y-91776215D01*
X100405094Y-91696863D01*
X100294780Y-91637898D01*
X100175082Y-91601588D01*
X100050600Y-91589328D01*
X98323400Y-91589328D01*
X98198918Y-91601588D01*
X98079220Y-91637898D01*
X98042000Y-91657793D01*
X98042000Y-83245801D01*
X98866802Y-82421000D01*
X107434405Y-82421000D01*
X107471294Y-82490014D01*
X107656866Y-82716134D01*
X107882986Y-82901706D01*
X108140966Y-83039599D01*
X108420889Y-83124513D01*
X108639050Y-83146000D01*
X108784950Y-83146000D01*
X109003111Y-83124513D01*
X109283034Y-83039599D01*
X109541014Y-82901706D01*
X109767134Y-82716134D01*
X109952706Y-82490014D01*
X109982000Y-82435209D01*
X110011294Y-82490014D01*
X110196866Y-82716134D01*
X110422986Y-82901706D01*
X110680966Y-83039599D01*
X110960889Y-83124513D01*
X111179050Y-83146000D01*
X111324950Y-83146000D01*
X111543111Y-83124513D01*
X111823034Y-83039599D01*
X112081014Y-82901706D01*
X112307134Y-82716134D01*
X112492706Y-82490014D01*
X112527201Y-82425477D01*
X112596822Y-82542355D01*
X112791731Y-82758588D01*
X113025080Y-82932641D01*
X113287901Y-83057825D01*
X113435110Y-83102476D01*
X113665000Y-82981155D01*
X113665000Y-81788000D01*
X113645000Y-81788000D01*
X113645000Y-81534000D01*
X113665000Y-81534000D01*
X113665000Y-81514000D01*
X113919000Y-81514000D01*
X113919000Y-81534000D01*
G36*
X99314000Y-95504000D02*
G01*
X99334000Y-95504000D01*
X99334000Y-95758000D01*
X99314000Y-95758000D01*
X99314000Y-95778000D01*
X99060000Y-95778000D01*
X99060000Y-95758000D01*
X99040000Y-95758000D01*
X99040000Y-95504000D01*
X99060000Y-95504000D01*
X99060000Y-95484000D01*
X99314000Y-95484000D01*
X99314000Y-95504000D01*
X99314000Y-95504000D01*
G37*
X99314000Y-95504000D02*
X99334000Y-95504000D01*
X99334000Y-95758000D01*
X99314000Y-95758000D01*
X99314000Y-95778000D01*
X99060000Y-95778000D01*
X99060000Y-95758000D01*
X99040000Y-95758000D01*
X99040000Y-95504000D01*
X99060000Y-95504000D01*
X99060000Y-95484000D01*
X99314000Y-95484000D01*
X99314000Y-95504000D01*
M02*
