M48
; DRILL file {KiCad 5.1.4-e60b266~84~ubuntu19.04.1} date wo 18 sep 2019 22:19:59 CEST
; FORMAT={-:-/ absolute / inch / decimal}
; #@! TF.CreationDate,2019-09-18T22:19:59+02:00
; #@! TF.GenerationSoftware,Kicad,Pcbnew,5.1.4-e60b266~84~ubuntu19.04.1
FMAT,2
INCH
T1C0.0150
T2C0.0394
T3C0.0400
T4C0.0390
%
G90
G05
T1
X4.355Y-4.565
X4.405Y-3.64
X4.48Y-4.29
X4.73Y-3.64
X4.78Y-4.09
X4.88Y-4.315
X5.055Y-4.565
X5.08Y-3.69
X5.08Y-4.04
X5.155Y-4.315
X5.43Y-3.465
X5.455Y-4.265
T2
X4.28Y-3.215
X4.38Y-3.215
X4.48Y-3.215
X4.58Y-3.215
X4.68Y-3.215
X4.78Y-3.215
X4.88Y-3.215
X4.28Y-3.79
X4.38Y-3.79
X4.48Y-3.79
X5.18Y-3.765
X5.18Y-3.865
X5.18Y-3.965
X5.555Y-3.415
X5.555Y-3.515
X5.555Y-3.615
X5.555Y-3.715
X5.555Y-3.815
X5.555Y-3.915
X5.555Y-4.015
X5.555Y-4.115
X5.555Y-4.215
X5.555Y-4.315
X5.655Y-3.415
X5.655Y-3.515
X5.655Y-3.615
X5.655Y-3.715
X5.655Y-3.815
X5.655Y-3.915
X5.655Y-4.015
X5.655Y-4.115
X5.655Y-4.215
X5.655Y-4.315
X5.08Y-3.215
X5.18Y-3.215
X5.28Y-3.215
X4.28Y-3.94
X4.38Y-3.94
X4.48Y-3.94
T3
X3.905Y-3.665
X3.905Y-3.765
X3.905Y-3.865
X3.905Y-3.965
X3.905Y-4.065
X4.005Y-3.665
X4.005Y-3.765
X4.005Y-3.865
X4.005Y-3.965
X4.005Y-4.065
T4
X3.88Y-4.325
X3.88Y-4.405
X4.18Y-4.365
T0
M30
